<svg xmlns="http://www.w3.org/2000/svg" xmlns:xlink="http://www.w3.org/1999/xlink" viewBox="0 0 26.28 25.56"><defs><style>.cls-1{isolation:isolate;}.cls-2{fill:url(#radial-gradient);}.cls-3{fill:url(#radial-gradient-2);}.cls-100,.cls-102,.cls-104,.cls-106,.cls-108,.cls-11,.cls-111,.cls-112,.cls-113,.cls-114,.cls-117,.cls-120,.cls-123,.cls-126,.cls-127,.cls-128,.cls-132,.cls-135,.cls-138,.cls-14,.cls-141,.cls-144,.cls-147,.cls-150,.cls-151,.cls-152,.cls-153,.cls-154,.cls-155,.cls-162,.cls-163,.cls-166,.cls-167,.cls-171,.cls-173,.cls-174,.cls-176,.cls-177,.cls-18,.cls-180,.cls-182,.cls-183,.cls-186,.cls-187,.cls-188,.cls-189,.cls-22,.cls-24,.cls-27,.cls-30,.cls-33,.cls-36,.cls-38,.cls-4,.cls-43,.cls-45,.cls-47,.cls-51,.cls-52,.cls-53,.cls-55,.cls-58,.cls-59,.cls-62,.cls-66,.cls-68,.cls-71,.cls-74,.cls-77,.cls-8,.cls-80,.cls-83,.cls-85,.cls-88,.cls-91,.cls-94,.cls-96,.cls-98{mix-blend-mode:screen;}.cls-4{fill:url(#linear-gradient);}.cls-5{fill:#d0a074;}.cls-6{fill:url(#radial-gradient-3);}.cls-7{fill:url(#radial-gradient-4);}.cls-8{fill:url(#linear-gradient-2);}.cls-9{fill:url(#radial-gradient-5);}.cls-10{fill:url(#radial-gradient-6);}.cls-11{fill:url(#linear-gradient-3);}.cls-12{fill:url(#radial-gradient-7);}.cls-13{fill:url(#radial-gradient-8);}.cls-14{fill:url(#radial-gradient-9);}.cls-15{fill:#200908;}.cls-16{fill:url(#radial-gradient-10);}.cls-17{fill:url(#radial-gradient-11);}.cls-18{fill:url(#radial-gradient-12);}.cls-19{fill:url(#radial-gradient-13);}.cls-20{fill:url(#radial-gradient-14);}.cls-21{fill:url(#radial-gradient-15);}.cls-22{fill:url(#radial-gradient-16);}.cls-23{fill:url(#radial-gradient-17);}.cls-24{fill:url(#radial-gradient-18);}.cls-25{fill:url(#radial-gradient-19);}.cls-26{fill:url(#radial-gradient-20);}.cls-27{fill:url(#radial-gradient-21);}.cls-28{fill:url(#radial-gradient-22);}.cls-29{fill:url(#radial-gradient-23);}.cls-30{fill:url(#radial-gradient-24);}.cls-31{fill:url(#radial-gradient-25);}.cls-32{fill:url(#radial-gradient-26);}.cls-33{fill:url(#radial-gradient-27);}.cls-34{fill:#863609;}.cls-35{fill:url(#radial-gradient-28);}.cls-36{fill:url(#radial-gradient-29);}.cls-37{fill:url(#radial-gradient-30);}.cls-38{fill:url(#radial-gradient-31);}.cls-39{fill:url(#radial-gradient-32);}.cls-40{fill:url(#radial-gradient-33);}.cls-41{fill:#244d16;}.cls-42{fill:url(#radial-gradient-34);}.cls-43{fill:url(#radial-gradient-35);}.cls-44{fill:url(#radial-gradient-36);}.cls-45{fill:url(#radial-gradient-37);}.cls-46{fill:url(#radial-gradient-38);}.cls-47{fill:url(#radial-gradient-39);}.cls-48{fill:url(#radial-gradient-40);}.cls-49{fill:url(#radial-gradient-41);}.cls-50{fill:url(#radial-gradient-42);}.cls-51{fill:url(#radial-gradient-43);}.cls-52{fill:url(#linear-gradient-4);}.cls-53{fill:url(#radial-gradient-44);}.cls-54{fill:#2c6d20;}.cls-55{fill:url(#linear-gradient-5);}.cls-56{fill:url(#radial-gradient-45);}.cls-57{fill:url(#radial-gradient-46);}.cls-58{fill:url(#radial-gradient-47);}.cls-59{fill:url(#linear-gradient-6);}.cls-60{fill:url(#radial-gradient-48);}.cls-61{fill:url(#radial-gradient-49);}.cls-62{fill:url(#linear-gradient-7);}.cls-63{fill:#965e11;}.cls-64{fill:url(#radial-gradient-50);}.cls-65{fill:url(#radial-gradient-51);}.cls-66{fill:url(#linear-gradient-8);}.cls-67{fill:url(#radial-gradient-52);}.cls-68{fill:url(#radial-gradient-53);}.cls-69{fill:url(#radial-gradient-54);}.cls-70{fill:url(#radial-gradient-55);}.cls-71{fill:url(#linear-gradient-9);}.cls-72{fill:url(#radial-gradient-56);}.cls-73{fill:url(#radial-gradient-57);}.cls-74{fill:url(#linear-gradient-10);}.cls-75{fill:url(#radial-gradient-58);}.cls-76{fill:url(#radial-gradient-59);}.cls-77{fill:url(#linear-gradient-11);}.cls-78{fill:url(#radial-gradient-60);}.cls-79{fill:url(#radial-gradient-61);}.cls-80{fill:url(#linear-gradient-12);}.cls-81{fill:url(#radial-gradient-62);}.cls-82{fill:url(#radial-gradient-63);}.cls-83{fill:url(#linear-gradient-13);}.cls-84{fill:url(#radial-gradient-64);}.cls-85{fill:url(#radial-gradient-65);}.cls-86{fill:url(#radial-gradient-66);}.cls-87{fill:url(#radial-gradient-67);}.cls-88{fill:url(#linear-gradient-14);}.cls-89{fill:url(#radial-gradient-68);}.cls-90{fill:url(#radial-gradient-69);}.cls-91{fill:url(#linear-gradient-15);}.cls-92{fill:url(#radial-gradient-70);}.cls-93{fill:url(#radial-gradient-71);}.cls-94{fill:url(#linear-gradient-16);}.cls-95{fill:url(#radial-gradient-72);}.cls-96{fill:url(#radial-gradient-73);}.cls-97{fill:url(#radial-gradient-74);}.cls-98{fill:url(#radial-gradient-75);}.cls-99{fill:url(#radial-gradient-76);}.cls-100{fill:url(#radial-gradient-77);}.cls-101{fill:url(#radial-gradient-78);}.cls-102{fill:url(#radial-gradient-79);}.cls-103{fill:url(#radial-gradient-80);}.cls-104{fill:url(#radial-gradient-81);}.cls-105{fill:url(#radial-gradient-82);}.cls-106{fill:url(#radial-gradient-83);}.cls-107{fill:url(#radial-gradient-84);}.cls-108{fill:url(#radial-gradient-85);}.cls-109{fill:url(#radial-gradient-86);}.cls-110{fill:url(#radial-gradient-87);}.cls-111{fill:url(#radial-gradient-88);}.cls-112{fill:url(#linear-gradient-17);}.cls-113{fill:url(#radial-gradient-89);}.cls-114{fill:url(#linear-gradient-18);}.cls-115{fill:url(#radial-gradient-90);}.cls-116{fill:url(#radial-gradient-91);}.cls-117{fill:url(#linear-gradient-19);}.cls-118{fill:url(#radial-gradient-92);}.cls-119{fill:url(#radial-gradient-93);}.cls-120{fill:url(#linear-gradient-20);}.cls-121{fill:url(#radial-gradient-94);}.cls-122{fill:url(#radial-gradient-95);}.cls-123{fill:url(#linear-gradient-21);}.cls-124{fill:url(#radial-gradient-96);}.cls-125{fill:url(#radial-gradient-97);}.cls-126{fill:url(#radial-gradient-98);}.cls-127{fill:url(#linear-gradient-22);}.cls-128{fill:url(#linear-gradient-23);}.cls-129{fill:#21561a;}.cls-130{fill:url(#radial-gradient-99);}.cls-131{fill:url(#radial-gradient-100);}.cls-132{fill:url(#linear-gradient-24);}.cls-133{fill:url(#radial-gradient-101);}.cls-134{fill:url(#radial-gradient-102);}.cls-135{fill:url(#linear-gradient-25);}.cls-136{fill:url(#radial-gradient-103);}.cls-137{fill:url(#radial-gradient-104);}.cls-138{fill:url(#linear-gradient-26);}.cls-139{fill:url(#radial-gradient-105);}.cls-140{fill:url(#radial-gradient-106);}.cls-141{fill:url(#linear-gradient-27);}.cls-142{fill:url(#radial-gradient-107);}.cls-143{fill:url(#radial-gradient-108);}.cls-144{fill:url(#linear-gradient-28);}.cls-145{fill:url(#radial-gradient-109);}.cls-146{fill:url(#radial-gradient-110);}.cls-147{fill:url(#linear-gradient-29);}.cls-148{fill:url(#radial-gradient-111);}.cls-149{fill:url(#radial-gradient-112);}.cls-150{fill:url(#radial-gradient-113);}.cls-151{fill:url(#linear-gradient-30);}.cls-152{fill:url(#radial-gradient-114);}.cls-153{fill:url(#linear-gradient-31);}.cls-154{fill:url(#radial-gradient-115);}.cls-155{opacity:0.7;fill:url(#linear-gradient-32);}.cls-156{fill:url(#radial-gradient-116);}.cls-157{fill:#2c7722;}.cls-158{fill:url(#radial-gradient-117);}.cls-159{fill:url(#radial-gradient-118);}.cls-160{fill:url(#linear-gradient-33);}.cls-161{fill:url(#linear-gradient-34);}.cls-162{fill:url(#radial-gradient-119);}.cls-163{fill:url(#radial-gradient-120);}.cls-164{fill:#df4a4b;}.cls-165{fill:url(#radial-gradient-121);}.cls-166{fill:url(#radial-gradient-122);}.cls-167{fill:url(#linear-gradient-35);}.cls-168,.cls-178{mix-blend-mode:multiply;}.cls-168{fill:url(#radial-gradient-123);}.cls-169{fill:#fff;}.cls-170{fill:url(#radial-gradient-124);}.cls-171,.cls-180{opacity:0.6;}.cls-171{fill:url(#radial-gradient-125);}.cls-172{fill:url(#radial-gradient-126);}.cls-173,.cls-182{opacity:0.5;}.cls-173{fill:url(#radial-gradient-127);}.cls-174{fill:url(#linear-gradient-36);}.cls-175{fill:url(#radial-gradient-128);}.cls-176{fill:url(#radial-gradient-129);}.cls-177{fill:url(#linear-gradient-37);}.cls-178{fill:url(#radial-gradient-130);}.cls-179{fill:url(#radial-gradient-131);}.cls-180{fill:url(#radial-gradient-132);}.cls-181{fill:url(#radial-gradient-133);}.cls-182{fill:url(#radial-gradient-134);}.cls-183{fill:url(#linear-gradient-38);}.cls-184{fill:url(#radial-gradient-135);}.cls-185{fill:url(#radial-gradient-136);}.cls-186{fill:url(#radial-gradient-137);}.cls-187{fill:url(#linear-gradient-39);}.cls-188{fill:url(#radial-gradient-138);}.cls-189{fill:url(#linear-gradient-40);}.cls-190{fill:#14511b;}.cls-191{fill:#307a22;}.cls-192{fill:#26621e;}.cls-193{fill:#2d7521;}</style><radialGradient id="radial-gradient" cx="781.27" cy="-1098.79" r="1.18" gradientTransform="matrix(0.93, 0.36, 0.36, -0.93, -323.89, -1298.96)" gradientUnits="userSpaceOnUse"><stop offset="0" stop-color="#f2e6d5"/><stop offset="1" stop-color="#e4c097"/></radialGradient><radialGradient id="radial-gradient-2" cx="781.27" cy="-1098.79" r="1.18" gradientTransform="matrix(0.93, 0.36, 0.36, -0.93, -323.89, -1298.96)" gradientUnits="userSpaceOnUse"><stop offset="0" stop-color="#f4ede0"/><stop offset="0.36" stop-color="#f0e2cd"/><stop offset="1" stop-color="#e6c7a2"/></radialGradient><linearGradient id="linear-gradient" x1="781.26" y1="-1098.66" x2="782.15" y2="-1098.66" gradientTransform="matrix(0.93, 0.36, 0.36, -0.93, -323.89, -1298.96)" gradientUnits="userSpaceOnUse"><stop offset="0" stop-color="#fff"/><stop offset="0.1" stop-color="#e5e5e5"/><stop offset="0.33" stop-color="#a3a3a3"/><stop offset="0.65" stop-color="#3a3a3a"/><stop offset="0.82"/><stop offset="1"/></linearGradient><radialGradient id="radial-gradient-3" cx="645.67" cy="-1116.76" r="1.18" gradientTransform="matrix(0.93, -0.38, -0.38, -0.93, -1007.72, -785.07)" xlink:href="#radial-gradient"/><radialGradient id="radial-gradient-4" cx="645.67" cy="-1116.76" r="1.18" gradientTransform="matrix(0.93, -0.38, -0.38, -0.93, -1007.72, -785.07)" xlink:href="#radial-gradient-2"/><linearGradient id="linear-gradient-2" x1="645.66" y1="-1116.64" x2="646.55" y2="-1116.64" gradientTransform="matrix(0.93, -0.38, -0.38, -0.93, -1007.72, -785.07)" xlink:href="#linear-gradient"/><radialGradient id="radial-gradient-5" cx="569.29" cy="-1097.06" r="1.18" gradientTransform="matrix(0.65, -0.76, -0.76, -0.65, -1193.71, -275.26)" xlink:href="#radial-gradient"/><radialGradient id="radial-gradient-6" cx="569.29" cy="-1097.06" r="1.18" gradientTransform="matrix(0.65, -0.76, -0.76, -0.65, -1193.71, -275.26)" xlink:href="#radial-gradient-2"/><linearGradient id="linear-gradient-3" x1="569.29" y1="-1096.93" x2="570.18" y2="-1096.93" gradientTransform="matrix(0.65, -0.76, -0.76, -0.65, -1193.71, -275.26)" xlink:href="#linear-gradient"/><radialGradient id="radial-gradient-7" cx="17.52" cy="23.52" r="1.22" gradientUnits="userSpaceOnUse"><stop offset="0" stop-color="#701709"/><stop offset="1" stop-color="#260707"/></radialGradient><radialGradient id="radial-gradient-8" cx="17.29" cy="23.53" r="0.6" gradientUnits="userSpaceOnUse"><stop offset="0" stop-color="#74300b"/><stop offset="1" stop-color="#491b07"/></radialGradient><radialGradient id="radial-gradient-9" cx="17.29" cy="23.53" r="0.6" gradientUnits="userSpaceOnUse"><stop offset="0" stop-color="#602a0c"/><stop offset="0.77"/><stop offset="1"/></radialGradient><radialGradient id="radial-gradient-10" cx="15.57" cy="22.58" r="2.04" xlink:href="#radial-gradient-7"/><radialGradient id="radial-gradient-11" cx="15.58" cy="22.43" r="1.47" xlink:href="#radial-gradient-8"/><radialGradient id="radial-gradient-12" cx="15.58" cy="22.43" r="1.47" xlink:href="#radial-gradient-9"/><radialGradient id="radial-gradient-13" cx="22.59" cy="17.27" r="2.76" xlink:href="#radial-gradient-7"/><radialGradient id="radial-gradient-14" cx="20.48" cy="18.68" r="2.31" xlink:href="#radial-gradient-7"/><radialGradient id="radial-gradient-15" cx="22.34" cy="17.34" r="1.5" xlink:href="#radial-gradient-8"/><radialGradient id="radial-gradient-16" cx="22.34" cy="17.34" r="1.5" xlink:href="#radial-gradient-9"/><radialGradient id="radial-gradient-17" cx="19.6" cy="19.05" r="1.02" xlink:href="#radial-gradient-8"/><radialGradient id="radial-gradient-18" cx="19.6" cy="19.05" r="1.02" xlink:href="#radial-gradient-9"/><radialGradient id="radial-gradient-19" cx="16.65" cy="19.64" r="2.86" xlink:href="#radial-gradient-7"/><radialGradient id="radial-gradient-20" cx="16.88" cy="19.77" r="1.74" xlink:href="#radial-gradient-8"/><radialGradient id="radial-gradient-21" cx="16.88" cy="19.77" r="1.74" xlink:href="#radial-gradient-9"/><radialGradient id="radial-gradient-22" cx="13.41" cy="20.83" r="2.57" xlink:href="#radial-gradient-7"/><radialGradient id="radial-gradient-23" cx="13.16" cy="20.89" r="1.68" xlink:href="#radial-gradient-8"/><radialGradient id="radial-gradient-24" cx="13.16" cy="20.89" r="1.68" xlink:href="#radial-gradient-9"/><radialGradient id="radial-gradient-25" cx="18.71" cy="14.1" r="3.81" gradientUnits="userSpaceOnUse"><stop offset="0" stop-color="#170b0b"/><stop offset="0.55" stop-color="#2e0606"/><stop offset="0.66" stop-color="#380906"/><stop offset="0.84" stop-color="#530f08"/><stop offset="1" stop-color="#701709"/></radialGradient><radialGradient id="radial-gradient-26" cx="18.58" cy="11.21" r="1" gradientUnits="userSpaceOnUse"><stop offset="0" stop-color="#d87f25"/><stop offset="1" stop-color="#c14e0c"/></radialGradient><radialGradient id="radial-gradient-27" cx="18.58" cy="11.21" r="1" gradientUnits="userSpaceOnUse"><stop offset="0" stop-color="#d87f25"/><stop offset="0.02" stop-color="#cf7a24"/><stop offset="0.17" stop-color="#915519"/><stop offset="0.31" stop-color="#5d3710"/><stop offset="0.44" stop-color="#351f09"/><stop offset="0.55" stop-color="#180e04"/><stop offset="0.66" stop-color="#060401"/><stop offset="0.73"/><stop offset="1"/></radialGradient><radialGradient id="radial-gradient-28" cx="19.72" cy="10.79" r="0.71" xlink:href="#radial-gradient-26"/><radialGradient id="radial-gradient-29" cx="19.72" cy="10.79" r="0.71" xlink:href="#radial-gradient-27"/><radialGradient id="radial-gradient-30" cx="21.97" cy="11.5" r="0.81" xlink:href="#radial-gradient-26"/><radialGradient id="radial-gradient-31" cx="21.97" cy="11.5" r="0.81" xlink:href="#radial-gradient-27"/><radialGradient id="radial-gradient-32" cx="17.72" cy="11" r="4.36" gradientUnits="userSpaceOnUse"><stop offset="0" stop-color="#48a528"/><stop offset="0.54" stop-color="#3b8f25"/><stop offset="1" stop-color="#2e7922"/></radialGradient><radialGradient id="radial-gradient-33" cx="17.72" cy="11" r="4.36" gradientUnits="userSpaceOnUse"><stop offset="0" stop-color="#5bb224"/><stop offset="0.88" stop-color="#459e26"/><stop offset="1" stop-color="#429b26"/></radialGradient><radialGradient id="radial-gradient-34" cx="21.96" cy="12.93" r="0.9" xlink:href="#radial-gradient-26"/><radialGradient id="radial-gradient-35" cx="21.96" cy="12.93" r="0.9" xlink:href="#radial-gradient-27"/><radialGradient id="radial-gradient-36" cx="21.93" cy="14.3" r="1.03" xlink:href="#radial-gradient-26"/><radialGradient id="radial-gradient-37" cx="21.93" cy="14.3" r="1.03" xlink:href="#radial-gradient-27"/><radialGradient id="radial-gradient-38" cx="21.49" cy="15.49" r="0.93" xlink:href="#radial-gradient-26"/><radialGradient id="radial-gradient-39" cx="21.49" cy="15.49" r="0.93" xlink:href="#radial-gradient-27"/><radialGradient id="radial-gradient-40" cx="9.57" cy="22.13" r="3.33" xlink:href="#radial-gradient-32"/><radialGradient id="radial-gradient-41" cx="3.45" cy="14.9" r="7.52" xlink:href="#radial-gradient-32"/><radialGradient id="radial-gradient-42" cx="3.45" cy="14.9" r="7.52" xlink:href="#radial-gradient-33"/><radialGradient id="radial-gradient-43" cx="1.82" cy="16.94" r="3.13" gradientUnits="userSpaceOnUse"><stop offset="0" stop-color="#91ca1f"/><stop offset="0.05" stop-color="#86bb1d"/><stop offset="0.34" stop-color="#4d6c11"/><stop offset="0.57" stop-color="#243208"/><stop offset="0.74" stop-color="#0a0e02"/><stop offset="0.83"/><stop offset="1"/></radialGradient><linearGradient id="linear-gradient-4" x1="2.21" y1="17.31" x2="1.84" y2="19.42" gradientUnits="userSpaceOnUse"><stop offset="0" stop-color="#9bcf82"/><stop offset="0.29" stop-color="#5d7c4e"/><stop offset="0.55" stop-color="#2b3924"/><stop offset="0.74" stop-color="#0c100a"/><stop offset="0.83"/><stop offset="1"/></linearGradient><radialGradient id="radial-gradient-44" cx="3.64" cy="14.91" r="3.95" xlink:href="#radial-gradient-43"/><linearGradient id="linear-gradient-5" x1="3.34" y1="14.99" x2="6.13" y2="17.3" xlink:href="#linear-gradient-4"/><radialGradient id="radial-gradient-45" cx="10.7" cy="7.19" r="7.61" xlink:href="#radial-gradient-32"/><radialGradient id="radial-gradient-46" cx="10.7" cy="7.19" r="7.61" xlink:href="#radial-gradient-33"/><radialGradient id="radial-gradient-47" cx="10.78" cy="7.16" r="6.27" xlink:href="#radial-gradient-43"/><linearGradient id="linear-gradient-6" x1="9.75" y1="7.51" x2="12.91" y2="9.95" xlink:href="#linear-gradient-4"/><radialGradient id="radial-gradient-48" cx="17.92" cy="11.73" r="0.81" gradientUnits="userSpaceOnUse"><stop offset="0" stop-color="#f8c950"/><stop offset="1" stop-color="#f8a12a"/></radialGradient><radialGradient id="radial-gradient-49" cx="17.92" cy="11.84" r="0.61" gradientUnits="userSpaceOnUse"><stop offset="0" stop-color="#f6e86d"/><stop offset="0.59" stop-color="#f7ce54"/><stop offset="1" stop-color="#f7b941"/></radialGradient><linearGradient id="linear-gradient-7" x1="17.93" y1="11.69" x2="17.81" y2="12.08" gradientUnits="userSpaceOnUse"><stop offset="0" stop-color="#717171"/><stop offset="0.36" stop-color="#393939"/><stop offset="0.67" stop-color="#101010"/><stop offset="0.83"/><stop offset="1"/></linearGradient><radialGradient id="radial-gradient-50" cx="19.19" cy="12.7" r="1.68" xlink:href="#radial-gradient-48"/><radialGradient id="radial-gradient-51" cx="19.11" cy="12.53" r="0.72" xlink:href="#radial-gradient-49"/><linearGradient id="linear-gradient-8" x1="19.37" y1="12.47" x2="18.95" y2="13.2" xlink:href="#linear-gradient-7"/><radialGradient id="radial-gradient-52" cx="7.49" cy="15.98" r="0.72" xlink:href="#radial-gradient-26"/><radialGradient id="radial-gradient-53" cx="7.49" cy="15.98" r="0.72" xlink:href="#radial-gradient-27"/><radialGradient id="radial-gradient-54" cx="16.18" cy="12.07" r="1.78" xlink:href="#radial-gradient-48"/><radialGradient id="radial-gradient-55" cx="16.09" cy="12.09" r="0.99" xlink:href="#radial-gradient-49"/><linearGradient id="linear-gradient-9" x1="16.17" y1="11.88" x2="16.02" y2="12.9" xlink:href="#linear-gradient-7"/><radialGradient id="radial-gradient-56" cx="13.67" cy="12.91" r="1.64" xlink:href="#radial-gradient-48"/><radialGradient id="radial-gradient-57" cx="13.62" cy="12.92" r="1.11" xlink:href="#radial-gradient-49"/><linearGradient id="linear-gradient-10" x1="13.75" y1="12.54" x2="13.52" y2="13.99" xlink:href="#linear-gradient-7"/><radialGradient id="radial-gradient-58" cx="11.45" cy="13.87" r="1.71" xlink:href="#radial-gradient-48"/><radialGradient id="radial-gradient-59" cx="11.46" cy="13.86" r="1.21" xlink:href="#radial-gradient-49"/><linearGradient id="linear-gradient-11" x1="11.59" y1="13.69" x2="11.4" y2="14.88" xlink:href="#linear-gradient-7"/><radialGradient id="radial-gradient-60" cx="9.18" cy="15.06" r="1.43" xlink:href="#radial-gradient-48"/><radialGradient id="radial-gradient-61" cx="9.11" cy="15.02" r="1.22" xlink:href="#radial-gradient-49"/><linearGradient id="linear-gradient-12" x1="9.14" y1="14.73" x2="9.01" y2="16.22" xlink:href="#linear-gradient-7"/><radialGradient id="radial-gradient-62" cx="17.84" cy="13.74" r="2.58" xlink:href="#radial-gradient-48"/><radialGradient id="radial-gradient-63" cx="17.81" cy="13.63" r="1.79" xlink:href="#radial-gradient-49"/><linearGradient id="linear-gradient-13" x1="18.39" y1="13.16" x2="17.43" y2="14.98" xlink:href="#linear-gradient-7"/><radialGradient id="radial-gradient-64" cx="20.01" cy="15.73" r="1.4" xlink:href="#radial-gradient-26"/><radialGradient id="radial-gradient-65" cx="20.01" cy="15.73" r="1.4" xlink:href="#radial-gradient-27"/><radialGradient id="radial-gradient-66" cx="15.38" cy="14.85" r="2.52" xlink:href="#radial-gradient-48"/><radialGradient id="radial-gradient-67" cx="15.29" cy="14.53" r="2.09" xlink:href="#radial-gradient-49"/><linearGradient id="linear-gradient-14" x1="16.15" y1="14.31" x2="15.03" y2="16.31" xlink:href="#linear-gradient-7"/><radialGradient id="radial-gradient-68" cx="12.74" cy="15.6" r="2.67" xlink:href="#radial-gradient-48"/><radialGradient id="radial-gradient-69" cx="12.64" cy="15.6" r="2.17" xlink:href="#radial-gradient-49"/><linearGradient id="linear-gradient-15" x1="13.39" y1="15.17" x2="12.31" y2="17.48" xlink:href="#linear-gradient-7"/><radialGradient id="radial-gradient-70" cx="10.43" cy="16.24" r="1.58" xlink:href="#radial-gradient-48"/><radialGradient id="radial-gradient-71" cx="10.16" cy="16.19" r="0.96" xlink:href="#radial-gradient-49"/><linearGradient id="linear-gradient-16" x1="10.44" y1="15.95" x2="10.14" y2="17.31" xlink:href="#linear-gradient-7"/><radialGradient id="radial-gradient-72" cx="9.58" cy="19.72" r="0.81" xlink:href="#radial-gradient-26"/><radialGradient id="radial-gradient-73" cx="9.58" cy="19.72" r="0.81" xlink:href="#radial-gradient-27"/><radialGradient id="radial-gradient-74" cx="11" cy="19.42" r="1.01" xlink:href="#radial-gradient-26"/><radialGradient id="radial-gradient-75" cx="11" cy="19.42" r="1.01" xlink:href="#radial-gradient-27"/><radialGradient id="radial-gradient-76" cx="11.71" cy="17.52" r="1.44" xlink:href="#radial-gradient-26"/><radialGradient id="radial-gradient-77" cx="11.71" cy="17.52" r="1.44" xlink:href="#radial-gradient-27"/><radialGradient id="radial-gradient-78" cx="12.66" cy="19.13" r="1.11" xlink:href="#radial-gradient-26"/><radialGradient id="radial-gradient-79" cx="12.66" cy="19.13" r="1.11" xlink:href="#radial-gradient-27"/><radialGradient id="radial-gradient-80" cx="14.21" cy="18.42" r="1.28" xlink:href="#radial-gradient-26"/><radialGradient id="radial-gradient-81" cx="14.21" cy="18.42" r="1.28" xlink:href="#radial-gradient-27"/><radialGradient id="radial-gradient-82" cx="16.4" cy="17.85" r="1.31" xlink:href="#radial-gradient-26"/><radialGradient id="radial-gradient-83" cx="16.4" cy="17.85" r="1.31" xlink:href="#radial-gradient-27"/><radialGradient id="radial-gradient-84" cx="18.42" cy="17.4" r="1.21" xlink:href="#radial-gradient-26"/><radialGradient id="radial-gradient-85" cx="18.42" cy="17.4" r="1.21" xlink:href="#radial-gradient-27"/><radialGradient id="radial-gradient-86" cx="5.08" cy="17.3" r="7.71" xlink:href="#radial-gradient-32"/><radialGradient id="radial-gradient-87" cx="5.08" cy="17.3" r="7.71" xlink:href="#radial-gradient-33"/><radialGradient id="radial-gradient-88" cx="4.25" cy="20.15" r="3.94" xlink:href="#radial-gradient-43"/><linearGradient id="linear-gradient-17" x1="4.13" y1="20.94" x2="4.01" y2="22.82" xlink:href="#linear-gradient-4"/><radialGradient id="radial-gradient-89" cx="5.51" cy="17.38" r="4.58" xlink:href="#radial-gradient-43"/><linearGradient id="linear-gradient-18" x1="4.93" y1="17.3" x2="7.53" y2="19.45" xlink:href="#linear-gradient-4"/><radialGradient id="radial-gradient-90" cx="342.63" cy="-624.56" r="1.18" gradientTransform="matrix(0.45, 0.89, -0.89, 0.45, -709.38, -1.42)" xlink:href="#radial-gradient"/><radialGradient id="radial-gradient-91" cx="342.63" cy="-624.56" r="1.18" gradientTransform="matrix(0.45, 0.89, -0.89, 0.45, -709.38, -1.42)" xlink:href="#radial-gradient-2"/><linearGradient id="linear-gradient-19" x1="342.62" y1="-624.44" x2="343.51" y2="-624.44" gradientTransform="matrix(0.45, 0.89, -0.89, 0.45, -709.38, -1.42)" xlink:href="#linear-gradient"/><radialGradient id="radial-gradient-92" cx="607.44" cy="-650.91" r="1.18" gradientTransform="translate(-765.26 472.63) rotate(16.73)" xlink:href="#radial-gradient"/><radialGradient id="radial-gradient-93" cx="607.44" cy="-650.91" r="1.18" gradientTransform="translate(-765.26 472.63) rotate(16.73)" xlink:href="#radial-gradient-2"/><linearGradient id="linear-gradient-20" x1="607.43" y1="-650.79" x2="608.32" y2="-650.79" gradientTransform="translate(-765.26 472.63) rotate(16.73)" xlink:href="#linear-gradient"/><radialGradient id="radial-gradient-94" cx="690.18" cy="-624.77" r="1.18" gradientTransform="translate(-694.07 638.52) rotate(0.91)" xlink:href="#radial-gradient"/><radialGradient id="radial-gradient-95" cx="690.18" cy="-624.77" r="1.18" gradientTransform="translate(-694.07 638.52) rotate(0.91)" xlink:href="#radial-gradient-2"/><linearGradient id="linear-gradient-21" x1="690.17" y1="-624.64" x2="691.06" y2="-624.64" gradientTransform="translate(-694.07 638.52) rotate(0.91)" xlink:href="#linear-gradient"/><radialGradient id="radial-gradient-96" cx="17.19" cy="19.27" r="8.54" xlink:href="#radial-gradient-32"/><radialGradient id="radial-gradient-97" cx="17.19" cy="19.27" r="8.54" xlink:href="#radial-gradient-33"/><radialGradient id="radial-gradient-98" cx="17.57" cy="19.57" r="7.17" xlink:href="#radial-gradient-43"/><linearGradient id="linear-gradient-22" x1="19.18" y1="18.71" x2="20.71" y2="18.22" xlink:href="#linear-gradient-4"/><linearGradient id="linear-gradient-23" x1="18.4" y1="20.53" x2="19.39" y2="21.77" xlink:href="#linear-gradient-4"/><radialGradient id="radial-gradient-99" cx="587.72" cy="-322.51" r="1.18" gradientTransform="matrix(0.14, 0.99, -0.99, 0.14, -384.14, -515.33)" xlink:href="#radial-gradient"/><radialGradient id="radial-gradient-100" cx="587.72" cy="-322.51" r="1.18" gradientTransform="matrix(0.14, 0.99, -0.99, 0.14, -384.14, -515.33)" xlink:href="#radial-gradient-2"/><linearGradient id="linear-gradient-24" x1="587.71" y1="-322.38" x2="588.6" y2="-322.38" gradientTransform="matrix(0.14, 0.99, -0.99, 0.14, -384.14, -515.33)" xlink:href="#linear-gradient"/><radialGradient id="radial-gradient-101" cx="583.03" cy="-536.05" r="1.18" gradientTransform="matrix(0.76, 0.65, -0.65, 0.76, -773.86, 49.14)" xlink:href="#radial-gradient"/><radialGradient id="radial-gradient-102" cx="583.03" cy="-536.05" r="1.18" gradientTransform="matrix(0.76, 0.65, -0.65, 0.76, -773.86, 49.14)" xlink:href="#radial-gradient-2"/><linearGradient id="linear-gradient-25" x1="583.02" y1="-535.93" x2="583.91" y2="-535.93" gradientTransform="matrix(0.76, 0.65, -0.65, 0.76, -773.86, 49.14)" xlink:href="#linear-gradient"/><radialGradient id="radial-gradient-103" cx="724.89" cy="-730.64" r="1.18" gradientTransform="translate(-692.04 768.4) rotate(-1.04)" xlink:href="#radial-gradient"/><radialGradient id="radial-gradient-104" cx="724.89" cy="-730.64" r="1.18" gradientTransform="translate(-692.04 768.4) rotate(-1.04)" xlink:href="#radial-gradient-2"/><linearGradient id="linear-gradient-26" x1="724.88" y1="-730.52" x2="725.77" y2="-730.52" gradientTransform="translate(-692.04 768.4) rotate(-1.04)" xlink:href="#linear-gradient"/><radialGradient id="radial-gradient-105" cx="886.47" cy="-1024.68" r="1.18" gradientTransform="matrix(0.45, 0.89, 0.89, -0.45, 523.7, -1247.05)" xlink:href="#radial-gradient"/><radialGradient id="radial-gradient-106" cx="886.47" cy="-1024.68" r="1.18" gradientTransform="matrix(0.45, 0.89, 0.89, -0.45, 523.7, -1247.05)" xlink:href="#radial-gradient-2"/><linearGradient id="linear-gradient-27" x1="886.46" y1="-1024.56" x2="887.35" y2="-1024.56" gradientTransform="matrix(0.45, 0.89, 0.89, -0.45, 523.7, -1247.05)" xlink:href="#linear-gradient"/><radialGradient id="radial-gradient-107" cx="528.92" cy="-624.53" r="1.18" gradientTransform="matrix(0.87, 0.5, -0.5, 0.87, -768.44, 298.53)" xlink:href="#radial-gradient"/><radialGradient id="radial-gradient-108" cx="528.92" cy="-624.53" r="1.18" gradientTransform="matrix(0.87, 0.5, -0.5, 0.87, -768.44, 298.53)" xlink:href="#radial-gradient-2"/><linearGradient id="linear-gradient-28" x1="528.91" y1="-624.41" x2="529.8" y2="-624.41" gradientTransform="matrix(0.87, 0.5, -0.5, 0.87, -768.44, 298.53)" xlink:href="#linear-gradient"/><radialGradient id="radial-gradient-109" cx="344.43" cy="-625.62" r="1.18" gradientTransform="matrix(0.51, 0.86, -0.86, 0.51, -713.35, 41.11)" xlink:href="#radial-gradient"/><radialGradient id="radial-gradient-110" cx="344.43" cy="-625.62" r="1.18" gradientTransform="matrix(0.51, 0.86, -0.86, 0.51, -713.35, 41.11)" xlink:href="#radial-gradient-2"/><linearGradient id="linear-gradient-29" x1="344.42" y1="-625.49" x2="345.31" y2="-625.49" gradientTransform="matrix(0.51, 0.86, -0.86, 0.51, -713.35, 41.11)" xlink:href="#linear-gradient"/><radialGradient id="radial-gradient-111" cx="172.81" cy="179.26" r="9.14" gradientTransform="translate(-37.72 -239.64) rotate(31.01)" gradientUnits="userSpaceOnUse"><stop offset="0.12" stop-color="#48a528"/><stop offset="0.46" stop-color="#46a228"/><stop offset="0.68" stop-color="#419a26"/><stop offset="0.86" stop-color="#398b24"/><stop offset="1" stop-color="#2e7922"/></radialGradient><radialGradient id="radial-gradient-112" cx="172.81" cy="179.31" r="9.17" gradientTransform="translate(-37.72 -239.64) rotate(31.01)" xlink:href="#radial-gradient-33"/><radialGradient id="radial-gradient-113" cx="152.22" cy="186.7" r="2.21" gradientTransform="translate(-28.45 -234.4) rotate(28.28)" xlink:href="#radial-gradient-43"/><linearGradient id="linear-gradient-30" x1="152.28" y1="186.96" x2="152.95" y2="187.32" gradientTransform="translate(-28.45 -234.4) rotate(28.28)" gradientUnits="userSpaceOnUse"><stop offset="0" stop-color="#5f5f5f"/><stop offset="0.13" stop-color="#4b4b4b"/><stop offset="0.44" stop-color="#222"/><stop offset="0.69" stop-color="#090909"/><stop offset="0.83"/><stop offset="1"/></linearGradient><radialGradient id="radial-gradient-114" cx="154.09" cy="183.18" r="1.85" gradientTransform="translate(-28.45 -234.4) rotate(28.28)" xlink:href="#radial-gradient-43"/><linearGradient id="linear-gradient-31" x1="154.24" y1="183.4" x2="154.87" y2="184.17" gradientTransform="translate(-28.45 -234.4) rotate(28.28)" gradientUnits="userSpaceOnUse"><stop offset="0" stop-color="#5f5f5f"/><stop offset="0.29" stop-color="#393939"/><stop offset="0.65" stop-color="#101010"/><stop offset="0.83"/><stop offset="1"/></linearGradient><radialGradient id="radial-gradient-115" cx="155.87" cy="191.81" r="2.49" gradientTransform="translate(-28.45 -234.4) rotate(28.28)" xlink:href="#radial-gradient-43"/><linearGradient id="linear-gradient-32" x1="188.91" y1="243.73" x2="191.4" y2="243.21" gradientTransform="matrix(0.78, 0.47, -0.44, 0.72, -24.09, -256.72)" gradientUnits="userSpaceOnUse"><stop offset="0" stop-color="#4c4c4c"/><stop offset="0.69" stop-color="#181818"/><stop offset="1"/></linearGradient><radialGradient id="radial-gradient-116" cx="175.88" cy="183.6" r="1.87" gradientTransform="translate(-37.72 -239.64) rotate(31.01)" gradientUnits="userSpaceOnUse"><stop offset="0" stop-color="#150c0c"/><stop offset="0.28" stop-color="#200a0a"/><stop offset="0.56" stop-color="#300707"/><stop offset="0.68" stop-color="#3b0807"/><stop offset="1" stop-color="#540a06"/></radialGradient><radialGradient id="radial-gradient-117" cx="175.81" cy="183.66" r="2.03" gradientTransform="translate(-37.72 -239.64) rotate(31.01)" gradientUnits="userSpaceOnUse"><stop offset="0" stop-color="#130c0c"/><stop offset="0.59" stop-color="#6a0a09"/><stop offset="0.72" stop-color="#7c0c08"/><stop offset="0.87" stop-color="#890e06"/><stop offset="1" stop-color="#8e0f06"/></radialGradient><radialGradient id="radial-gradient-118" cx="175.81" cy="183.66" r="2.03" xlink:href="#radial-gradient-117"/><linearGradient id="linear-gradient-33" x1="175.57" y1="185.22" x2="175.95" y2="183.93" gradientTransform="translate(-37.72 -239.64) rotate(31.01)" gradientUnits="userSpaceOnUse"><stop offset="0" stop-color="#f59e9f"/><stop offset="1" stop-color="#f17171"/></linearGradient><linearGradient id="linear-gradient-34" x1="175.53" y1="185.21" x2="175.91" y2="183.91" gradientTransform="translate(-37.72 -239.64) rotate(31.01)" gradientUnits="userSpaceOnUse"><stop offset="0" stop-color="#f0b8b8"/><stop offset="1" stop-color="#f79899"/></linearGradient><radialGradient id="radial-gradient-119" cx="155.25" cy="192.43" r="0.88" gradientTransform="translate(-28.45 -234.4) rotate(28.28)" gradientUnits="userSpaceOnUse"><stop offset="0" stop-color="#f0b8b8"/><stop offset="0.02" stop-color="#e6b0b0"/><stop offset="0.12" stop-color="#aa8282"/><stop offset="0.23" stop-color="#765a5a"/><stop offset="0.33" stop-color="#4c3a3a"/><stop offset="0.43" stop-color="#2b2121"/><stop offset="0.53" stop-color="#130f0f"/><stop offset="0.62" stop-color="#050404"/><stop offset="0.69"/><stop offset="1"/></radialGradient><radialGradient id="radial-gradient-120" cx="155.87" cy="192.41" r="1.21" xlink:href="#radial-gradient-119"/><radialGradient id="radial-gradient-121" cx="172.81" cy="179.26" r="9.14" gradientTransform="translate(-37.72 -239.64) rotate(31.01)" xlink:href="#radial-gradient-33"/><radialGradient id="radial-gradient-122" cx="158.2" cy="182.62" r="4.44" gradientTransform="translate(-28.45 -234.4) rotate(28.28)" gradientUnits="userSpaceOnUse"><stop offset="0" stop-color="#91ca1f"/><stop offset="0" stop-color="#90c91f"/><stop offset="0.12" stop-color="#6a9417"/><stop offset="0.24" stop-color="#4a6710"/><stop offset="0.36" stop-color="#2f420a"/><stop offset="0.48" stop-color="#1a2506"/><stop offset="0.6" stop-color="#0c1003"/><stop offset="0.72" stop-color="#030401"/><stop offset="0.83"/><stop offset="1"/></radialGradient><linearGradient id="linear-gradient-35" x1="158.58" y1="183.23" x2="158.67" y2="185.48" xlink:href="#linear-gradient-31"/><radialGradient id="radial-gradient-123" cx="157.91" cy="183.87" r="4.73" gradientTransform="translate(-28.45 -234.4) rotate(28.28)" gradientUnits="userSpaceOnUse"><stop offset="0" stop-color="#fff"/><stop offset="0.22" stop-color="#d1e6ca"/><stop offset="0.6" stop-color="#84be72"/><stop offset="0.87" stop-color="#55a53b"/><stop offset="1" stop-color="#429b26"/></radialGradient><radialGradient id="radial-gradient-124" cx="228.77" cy="193.87" r="2.78" gradientTransform="translate(-43.33 -288.25) rotate(37.36)" gradientUnits="userSpaceOnUse"><stop offset="0.54" stop-color="#e7e7e7"/><stop offset="0.66" stop-color="#e4e4e5"/><stop offset="0.74" stop-color="#dcdcdd"/><stop offset="0.8" stop-color="#cdcdd1"/><stop offset="0.86" stop-color="#b8b8bf"/><stop offset="0.91" stop-color="#9d9da8"/><stop offset="0.94" stop-color="#8c8c9a"/><stop offset="1" stop-color="#c5c5c5"/></radialGradient><radialGradient id="radial-gradient-125" cx="145.67" cy="-85.36" r="0.13" gradientTransform="matrix(1.69, 1.29, -1.33, 1.74, -336.21, -35.17)" gradientUnits="userSpaceOnUse"><stop offset="0.21" stop-color="#fff"/><stop offset="0.36" stop-color="#aeaeae"/><stop offset="0.52" stop-color="#646464"/><stop offset="0.64" stop-color="#2e2e2e"/><stop offset="0.74" stop-color="#0d0d0d"/><stop offset="0.79"/><stop offset="0.98"/></radialGradient><radialGradient id="radial-gradient-126" cx="231.02" cy="168.52" r="1.76" gradientTransform="matrix(0.79, 0.61, -0.64, 0.85, -52.68, -276.8)" gradientUnits="userSpaceOnUse"><stop offset="0" stop-color="#31b2d1"/><stop offset="0.13" stop-color="#2aa3c9"/><stop offset="0.32" stop-color="#1b85ba"/><stop offset="0.52" stop-color="#1b6bae"/><stop offset="0.93" stop-color="#1c298f"/><stop offset="1" stop-color="#1c1d89"/></radialGradient><radialGradient id="radial-gradient-127" cx="146" cy="-84.82" r="0.1" gradientTransform="matrix(1.69, 1.29, -1.33, 1.74, -336.21, -35.17)" gradientUnits="userSpaceOnUse"><stop offset="0" stop-color="#fff"/><stop offset="0.22" stop-color="#b3b3b3"/><stop offset="0.62" stop-color="#333"/><stop offset="0.79"/><stop offset="1"/></radialGradient><linearGradient id="linear-gradient-36" x1="192.68" y1="202.09" x2="193.08" y2="202.57" gradientTransform="translate(-30.19 -269.79) rotate(32.78)" gradientUnits="userSpaceOnUse"><stop offset="0" stop-color="#b9b9b9"/><stop offset="0.04" stop-color="#adadad"/><stop offset="0.33" stop-color="#646464"/><stop offset="0.57" stop-color="#2e2e2e"/><stop offset="0.75" stop-color="#0d0d0d"/><stop offset="0.85"/><stop offset="0.98"/></linearGradient><radialGradient id="radial-gradient-128" cx="153.46" cy="187.07" r="9.13" gradientTransform="translate(-28.45 -234.4) rotate(28.28)" xlink:href="#radial-gradient-33"/><radialGradient id="radial-gradient-129" cx="158.28" cy="188.05" r="2.23" xlink:href="#radial-gradient-122"/><linearGradient id="linear-gradient-37" x1="183.84" y1="179.08" x2="184.28" y2="180.14" gradientTransform="translate(-39.22 -242.67) rotate(31.98)" xlink:href="#linear-gradient-30"/><radialGradient id="radial-gradient-130" cx="154.6" cy="183.58" r="3.53" xlink:href="#radial-gradient-123"/><radialGradient id="radial-gradient-131" cx="347.23" cy="129.25" r="2.25" gradientTransform="translate(-80.78 -355.47) rotate(54.13)" xlink:href="#radial-gradient-124"/><radialGradient id="radial-gradient-132" cx="200.76" cy="-115.32" r="0.1" gradientTransform="matrix(1.24, 1.72, -1.77, 1.28, -434.69, -196.03)" xlink:href="#radial-gradient-125"/><radialGradient id="radial-gradient-133" cx="348.82" cy="106.63" r="1.42" gradientTransform="matrix(0.59, 0.81, -0.86, 0.62, -93.75, -346.53)" xlink:href="#radial-gradient-126"/><radialGradient id="radial-gradient-134" cx="143.79" cy="-84.89" r="0.1" xlink:href="#radial-gradient-127"/><linearGradient id="linear-gradient-38" x1="314.63" y1="148.84" x2="314.96" y2="149.23" gradientTransform="translate(-71.82 -334.33) rotate(49.54)" xlink:href="#linear-gradient-36"/><radialGradient id="radial-gradient-135" cx="172.81" cy="179.26" r="9.14" xlink:href="#radial-gradient-111"/><radialGradient id="radial-gradient-136" cx="172.81" cy="179.26" r="9.14" gradientTransform="translate(-37.72 -239.64) rotate(31.01)" xlink:href="#radial-gradient-33"/><radialGradient id="radial-gradient-137" cx="151.72" cy="188.46" r="6.09" gradientTransform="translate(-28.45 -234.4) rotate(28.28)" xlink:href="#radial-gradient-43"/><linearGradient id="linear-gradient-39" x1="197.51" y1="155.98" x2="200.57" y2="155.98" gradientTransform="translate(-57.01 -237.4) rotate(34.74)" xlink:href="#linear-gradient-31"/><radialGradient id="radial-gradient-138" cx="154.15" cy="183.6" r="3.69" gradientTransform="translate(-28.45 -234.4) rotate(28.28)" xlink:href="#radial-gradient-43"/><linearGradient id="linear-gradient-40" x1="154.52" y1="183.94" x2="156.53" y2="185.44" xlink:href="#linear-gradient-31"/></defs><g class="cls-1"><g id="Layer_2" data-name="Layer 2"><g id="Layer_1-2" data-name="Layer 1"><g id="turtee-assets"><g id="slip-turtee"><path class="cls-2" d="M13.27,7.31c.2-.23.08-1.18-.18-1.27s-.94.53-1,.81S13.1,7.51,13.27,7.31Z"/><path class="cls-3" d="M13.05,7.27a1.56,1.56,0,0,0,0-1.23c-.25-.1-.94.53-1,.81S12.88,7.47,13.05,7.27Z"/><path class="cls-4" d="M13,7.25c.19-.22.23-1.11.09-1.16s-.86.53-.87.82S12.86,7.41,13,7.25Z"/><path class="cls-5" d="M13.35,6.42a1.23,1.23,0,0,1,0,.91c-.11.13-.45.08-.73,0s-.49-.29-.48-.46.33-.55.61-.73A.55.55,0,0,1,13.11,6h0C13.24,6.05,13.32,6.28,13.35,6.42Zm-.1.86a1.27,1.27,0,0,0,0-.85.58.58,0,0,0-.2-.36v0a.52.52,0,0,0-.34.11c-.28.19-.56.51-.57.68s.16.27.43.38S13.17,7.37,13.25,7.28Z"/><path class="cls-6" d="M11.64,6.82c0-.29-.75-.91-1-.8s-.32,1-.14,1.25S11.65,7.09,11.64,6.82Z"/><path class="cls-7" d="M11.46,7c0-.3-.68-1-.82-.93s-.32,1-.14,1.25S11.47,7.21,11.46,7Z"/><path class="cls-8" d="M11.4,7c0-.3-.59-1-.73-.92s-.26,1-.08,1.2S11.41,7.18,11.4,7Z"/><path class="cls-5" d="M11.09,6.12c.29.19.59.5.59.7s-.27.37-.55.48-.56.13-.66,0a1.4,1.4,0,0,1-.06-1c0-.14.1-.32.22-.37h0C10.77,5.93,11,6.05,11.09,6.12Zm.52.7c0-.15-.26-.44-.56-.64s-.32-.16-.39-.13v0c-.07,0-.13.14-.17.31a1.27,1.27,0,0,0,0,.89c.08.1.3.09.57,0S11.61,6.94,11.61,6.82Z"/><path class="cls-9" d="M10.3,7.56c-.14-.26-1.08-.47-1.25-.26s.18,1.07.44,1.19S10.43,7.79,10.3,7.56Z"/><path class="cls-10" d="M10.2,7.76c-.15-.26-1.06-.57-1.15-.46s.18,1.07.44,1.19S10.33,8,10.2,7.76Z"/><path class="cls-11" d="M10.16,7.81c-.15-.26-1-.59-1.07-.48s.21,1,.48,1.1S10.26,8,10.16,7.81Z"/><path class="cls-5" d="M9.49,7.19a1.25,1.25,0,0,1,.85.35c.08.15-.08.45-.27.68s-.44.37-.59.3A1.42,1.42,0,0,1,9,7.7a.54.54,0,0,1,0-.42H9C9.11,7.17,9.36,7.17,9.49,7.19Zm.78.39a1.19,1.19,0,0,0-.79-.32c-.2,0-.35,0-.4.06l0,0,0,0c-.05,0-.05.18,0,.35a1.35,1.35,0,0,0,.45.77c.11.05.31-.06.5-.28S10.33,7.67,10.27,7.58Z"/><path class="cls-12" d="M16.23,23.39s.58,1,2.34.37c0-.58-1.45-1.42-1.45-1.42Z"/><path class="cls-13" d="M17.61,23.21a.89.89,0,0,0-.53.23h0c-.09.07-.19.17-.19.21s0,0,0,0a1.42,1.42,0,0,0,.56.19h0l.07,0c.1-.18.23-.57.17-.61Z"/><path class="cls-14" d="M17.61,23.21a.89.89,0,0,0-.53.23h0c-.09.07-.19.17-.19.21s0,0,0,0a1.42,1.42,0,0,0,.56.19h0l.07,0c.1-.18.23-.57.17-.61Z"/><path class="cls-15" d="M17.5,24h0a1.44,1.44,0,0,1-1.3-.59v0l.92-1.1,0,0c.05,0,1.43.86,1.47,1.45v0h0A3.22,3.22,0,0,1,17.5,24Zm-1.23-.6a1.49,1.49,0,0,0,1.23.53,3.24,3.24,0,0,0,1-.19c-.07-.52-1.23-1.25-1.41-1.36Z"/><path class="cls-16" d="M13.19,22.09A2.94,2.94,0,0,0,15,23.48c1.33.35,2.41-.07,2.5-.95.14-1.46-.57-1.13-1.21-1.36a4,4,0,0,0-2.15-.25A4.38,4.38,0,0,0,13.19,22.09Z"/><path class="cls-17" d="M15.35,21.61a2.84,2.84,0,0,0-.81.45c-.11.11-.42.46-.33.61a2.68,2.68,0,0,0,1.28.57h.1c.48,0,1.17-.13,1.23-.28s.2-.82.09-.89a5.51,5.51,0,0,0-1.55-.46Z"/><path class="cls-18" d="M15.35,21.61a2.84,2.84,0,0,0-.81.45c-.11.11-.42.46-.33.61a2.68,2.68,0,0,0,1.28.57h.1c.48,0,1.17-.13,1.23-.28s.2-.82.09-.89a5.51,5.51,0,0,0-1.55-.46Z"/><path class="cls-15" d="M15.91,23.63h0a3.74,3.74,0,0,1-.91-.12,3,3,0,0,1-1.84-1.4v0a4.42,4.42,0,0,1,1-1.18,1.1,1.1,0,0,1,.47-.08,5.9,5.9,0,0,1,1.71.33,2.36,2.36,0,0,0,.43.09c.49.08.91.14.81,1.3C17.48,23.2,16.84,23.63,15.91,23.63Zm-2.69-1.54A3,3,0,0,0,15,23.44a3.19,3.19,0,0,0,.89.13c.89,0,1.5-.41,1.57-1.05.1-1.09-.27-1.15-.75-1.22a2.46,2.46,0,0,1-.44-.09,5.83,5.83,0,0,0-1.69-.33,1,1,0,0,0-.44.07A4.64,4.64,0,0,0,13.22,22.09Z"/><path class="cls-19" d="M23.44,16a16.27,16.27,0,0,0-1-2.86L20,15.47A9.13,9.13,0,0,1,21.59,20l.84-.53C23.67,18.7,23.73,17.26,23.44,16Z"/><path class="cls-20" d="M18.05,17.43s0,3.17.79,3.49c.63.24,1.71-.26,2.75-.88A9.13,9.13,0,0,0,20,15.47Z"/><path class="cls-21" d="M21.8,16.79c0,.22.1,2,.66,2h.09c.66-.19.61-1.73.6-2.24v-.07c0-.44-.36-1-.51-1s-.14.2-.18.41a2,2,0,0,1-.1.39A1.08,1.08,0,0,1,21.8,16.79Z"/><path class="cls-22" d="M21.8,16.79c0,.22.1,2,.66,2h.09c.66-.19.61-1.73.6-2.24v-.07c0-.44-.36-1-.51-1s-.14.2-.18.41a2,2,0,0,1-.1.39A1.08,1.08,0,0,1,21.8,16.79Z"/><path class="cls-23" d="M19.59,18.09c-.15,0-.48.1-.5.26a8.08,8.08,0,0,0,0,1.1c0,.28.07.5.42.54a.6.6,0,0,0,.53-.18.34.34,0,0,0,.1-.25A14.33,14.33,0,0,0,19.59,18.09Z"/><path class="cls-24" d="M19.59,18.09c-.15,0-.48.1-.5.26a8.08,8.08,0,0,0,0,1.1c0,.28.07.5.42.54a.6.6,0,0,0,.53-.18.34.34,0,0,0,.1-.25A14.33,14.33,0,0,0,19.59,18.09Z"/><path class="cls-15" d="M19.22,21a1.25,1.25,0,0,1-.4-.06c-.81-.32-.8-3.39-.8-3.52h0L22.44,13l0,.05a17.6,17.6,0,0,1,1,2.86c.37,1.69,0,2.9-1,3.59A7.54,7.54,0,0,1,19.22,21Zm-1.13-3.57c0,.23,0,3.15.76,3.44a.84.84,0,0,0,.37.07,7.55,7.55,0,0,0,3.19-1.47c1-.67,1.37-1.86,1-3.52a16.64,16.64,0,0,0-1-2.8Z"/><path class="cls-15" d="M19.73,19.54h0a.46.46,0,0,1-.28-.13,1,1,0,0,1,0-.67.52.52,0,0,1,.23-.28l0,0v.05c.07.28.23.95.12,1A.16.16,0,0,1,19.73,19.54Zm-.05-1a.55.55,0,0,0-.17.23,1.07,1.07,0,0,0,0,.59.38.38,0,0,0,.23.11l.08,0A2.93,2.93,0,0,0,19.68,18.54Z"/><path class="cls-25" d="M18.41,17.59s1,2.27.11,3.3a2.11,2.11,0,0,1-3.31,0,4.5,4.5,0,0,1-.8-2.23Z"/><path class="cls-26" d="M15.27,19.23c-.16.29.1,1,.22,1.28s.85.51,1.3.51h.15a2.66,2.66,0,0,0,1.44-.81,1.44,1.44,0,0,0-.17-1.55.51.51,0,0,0-.42-.13A9.17,9.17,0,0,0,15.27,19.23Z"/><path class="cls-27" d="M15.27,19.23c-.16.29.1,1,.22,1.28s.85.51,1.3.51h.15a2.66,2.66,0,0,0,1.44-.81,1.44,1.44,0,0,0-.17-1.55.51.51,0,0,0-.42-.13A9.17,9.17,0,0,0,15.27,19.23Z"/><path class="cls-15" d="M16.79,21.72a1.94,1.94,0,0,1-1.61-.81,4.55,4.55,0,0,1-.81-2.25v0l4.06-1.09v0c0,.09,1,2.3.11,3.33A2.36,2.36,0,0,1,16.79,21.72Zm-2.35-3a4.63,4.63,0,0,0,.79,2.18,1.87,1.87,0,0,0,1.56.78,2.31,2.31,0,0,0,1.71-.78c.81-.95,0-3-.11-3.24Z"/><path class="cls-15" d="M16.79,21.09c-.46,0-1.22-.15-1.37-.55s-.37-1.08-.21-1.35h0a9.13,9.13,0,0,1,2.56-.73.63.63,0,0,1,.48.15,1.53,1.53,0,0,1,.17,1.63,2.65,2.65,0,0,1-1.5.85Zm-1.52-1.86c-.16.29.1,1,.22,1.28s.85.51,1.3.51h.15a2.66,2.66,0,0,0,1.44-.81,1.44,1.44,0,0,0-.17-1.55.51.51,0,0,0-.42-.13A9.17,9.17,0,0,0,15.27,19.23Z"/><path class="cls-28" d="M9.66,20.27a1.71,1.71,0,0,0,.77.52,6.26,6.26,0,0,1,1.52,1A2.3,2.3,0,0,0,14,22.1c.78-.31,1.32-.88,1.34-1.36s-.89-2.31-1.08-2.15S9.66,20.27,9.66,20.27Z"/><path class="cls-29" d="M11.7,20.69c-.09.12.12.55.31.75a2.44,2.44,0,0,0,1.21.4h.1a2.93,2.93,0,0,0,.78-.32l.29-.14a.4.4,0,0,0,.2-.25,1,1,0,0,0-.1-.8.82.82,0,0,0-.78-.38,2.1,2.1,0,0,0-.41,0A9.51,9.51,0,0,0,11.7,20.69Z"/><path class="cls-30" d="M11.7,20.69c-.09.12.12.55.31.75a2.44,2.44,0,0,0,1.21.4h.1a2.93,2.93,0,0,0,.78-.32l.29-.14a.4.4,0,0,0,.2-.25,1,1,0,0,0-.1-.8.82.82,0,0,0-.78-.38,2.1,2.1,0,0,0-.41,0A9.51,9.51,0,0,0,11.7,20.69Z"/><path class="cls-15" d="M13.32,22.26h0a2.38,2.38,0,0,1-1.39-.44l0,0a6,6,0,0,0-1.48-1,1.59,1.59,0,0,1-.78-.53l0,0,0,0c1.23-.42,4.44-1.55,4.6-1.68l.05,0a.24.24,0,0,1,.13.08,5.32,5.32,0,0,1,1,2.12c0,.5-.59,1.09-1.36,1.39A2,2,0,0,1,13.32,22.26Zm-3.6-2a1.78,1.78,0,0,0,.72.47,6.27,6.27,0,0,1,1.51,1l0,0a2.35,2.35,0,0,0,1.35.42,1.91,1.91,0,0,0,.68-.12c.75-.3,1.3-.86,1.31-1.33a5.22,5.22,0,0,0-.93-2.07c-.05-.06-.08-.06-.08-.06h0C14.11,18.76,10.22,20.12,9.72,20.29Z"/><path class="cls-31" d="M20.58,10.79a7.81,7.81,0,0,0-2.2.69,1.71,1.71,0,0,0-.75,1.93,3,3,0,0,0,2.95,2.81c.76,0,1.54-1.28,1.65-2.38S22,11,20.58,10.79Z"/><path d="M20.58,16.25h0a3.08,3.08,0,0,1-2.24-1,3.89,3.89,0,0,1-.75-1.79,1.72,1.72,0,0,1,.71-1.92l.06-.05a7.94,7.94,0,0,1,2.21-.7h0c1.43.25,1.79,2,1.68,3.1S21.38,16.25,20.58,16.25Zm0-5.43a7.72,7.72,0,0,0-2.18.68l0,.05a1.65,1.65,0,0,0-.69,1.86,3,3,0,0,0,2.92,2.78c.74,0,1.51-1.29,1.61-2.35S22,11.06,20.58,10.82Z"/><path class="cls-15" d="M20.69,13.74v-.06c.77-.17,1.15-1.31,1.16-1.32a1.52,1.52,0,0,1-.11.37A1.71,1.71,0,0,1,20.69,13.74Z"/><path class="cls-15" d="M21,14.21l-.15,0,0-.06c.58.11,1.07-.55,1.08-.56a1.17,1.17,0,0,1-.2.27A1.1,1.1,0,0,1,21,14.21Z"/><path class="cls-15" d="M19.41,11.85c-.2-.16-.14-.57-.14-.59h.06s0,.39.12.53Z"/><path class="cls-32" d="M19.4,10.88s-.68-.13-1.5.8c0,.11.49.22.49.22a4.27,4.27,0,0,1,1.05-.63A.29.29,0,0,0,19.4,10.88Z"/><path class="cls-33" d="M19.4,10.88s-.68-.13-1.5.8c0,.11.49.22.49.22a4.27,4.27,0,0,1,1.05-.63A.29.29,0,0,0,19.4,10.88Z"/><path class="cls-34" d="M18.39,11.9h0c-.07,0-.45-.1-.51-.2a.08.08,0,0,1,0-.07h0a2,2,0,0,1,1.42-.81h.12a.31.31,0,0,1,0,.43h0a4.59,4.59,0,0,0-1,.63Zm-.46-.24h0a1.31,1.31,0,0,0,.45.16,4.42,4.42,0,0,1,1-.63.22.22,0,0,0,0-.32H19.3A1.93,1.93,0,0,0,17.93,11.66Z"/><path class="cls-35" d="M20.38,10.51s-.9.16-1.13.46.14.54.75.22S20.38,10.51,20.38,10.51Z"/><path class="cls-36" d="M20.38,10.51s-.9.16-1.13.46.14.54.75.22S20.38,10.51,20.38,10.51Z"/><path class="cls-34" d="M19.49,11.34h0a.36.36,0,0,1-.33-.15.26.26,0,0,1,.06-.28,2.55,2.55,0,0,1,1.15-.47h0v0a.43.43,0,0,1,0,.31.72.72,0,0,1-.42.43A1.16,1.16,0,0,1,19.49,11.34Zm.87-.83a2.6,2.6,0,0,0-1.09.44.22.22,0,0,0-.05.21.3.3,0,0,0,.27.11,1.08,1.08,0,0,0,.5-.14.73.73,0,0,0,.39-.39A.32.32,0,0,0,20.36,10.51Z"/><path class="cls-37" d="M21.91,12.48s-.3-.83-.88-1c-.11-.4.35-.84.35-.84a1.7,1.7,0,0,1,1,1.62A3.59,3.59,0,0,1,21.91,12.48Z"/><path class="cls-38" d="M21.91,12.48s-.3-.83-.88-1c-.11-.4.35-.84.35-.84a1.7,1.7,0,0,1,1,1.62A3.59,3.59,0,0,1,21.91,12.48Z"/><path class="cls-34" d="M21.88,12.52v0s-.29-.82-.85-.94h0v0c-.11-.41.35-.85.37-.87h0a1.75,1.75,0,0,1,1.06,1.65v0h0a5.62,5.62,0,0,1-.53.19Zm-.83-1c.53.13.82.8.88.95.07,0,.29-.09.46-.16a1.69,1.69,0,0,0-1-1.56C21.31,10.8,21,11.16,21.05,11.49Z"/><path class="cls-39" d="M20.46,9.37s-.12,2.49-2.17,2.69c-.32.14-.93.27-1,.63s.93,4.24,2.93,3.25a3.13,3.13,0,0,1,.93-.06A13,13,0,0,1,22,9.61Z"/><path class="cls-40" d="M19.57,12.26c.89.68.44,1.87.81,2.82,0,.05.06.13.11.1.27,0,.33-.36.32-.77,0-1,.36-1.87.3-2.78-.12-.37-.71-.23-1-.85a2.17,2.17,0,0,1-1.79,1.28c-.32.14-.93.27-1,.63a.78.78,0,0,0,0,.13C17.94,12.2,19,11.79,19.57,12.26Z"/><path class="cls-41" d="M19.61,16.13a1.27,1.27,0,0,1-.75-.25,5.24,5.24,0,0,1-1.57-3.19c0-.31.43-.45.76-.57l.23-.09h0a2.14,2.14,0,0,0,1.82-1.4,3.81,3.81,0,0,0,.32-1.26h.07a4.28,4.28,0,0,1-.32,1.29,2.27,2.27,0,0,1-1.88,1.43l-.23.09c-.31.11-.69.25-.71.51a5.33,5.33,0,0,0,1.54,3.14,1.25,1.25,0,0,0,1.33.08h0a3.25,3.25,0,0,1,.9-.06A13.27,13.27,0,0,1,22,9.6l.07,0a13.16,13.16,0,0,0-.82,6.25v.05h0a3,3,0,0,0-.91.06A1.45,1.45,0,0,1,19.61,16.13Z"/><path class="cls-42" d="M22,13.67a2.09,2.09,0,0,1-.15-1.1c.11-.48.54-.58.73-.3s.24,1.47-.06,1.56A.57.57,0,0,1,22,13.67Z"/><path class="cls-43" d="M22,13.67a2.09,2.09,0,0,1-.15-1.1c.11-.48.54-.58.73-.3s.24,1.47-.06,1.56A.57.57,0,0,1,22,13.67Z"/><path class="cls-34" d="M22.34,13.88a.64.64,0,0,1-.42-.18h0a2.13,2.13,0,0,1-.16-1.13.56.56,0,0,1,.49-.48.38.38,0,0,1,.31.17,2.21,2.21,0,0,1,.09,1.41.29.29,0,0,1-.17.2ZM22,13.66a.57.57,0,0,0,.36.15.25.25,0,0,0,.12,0q.08,0,.12-.15a2.22,2.22,0,0,0-.08-1.35.3.3,0,0,0-.25-.14c-.16,0-.35.13-.42.43A2,2,0,0,0,22,13.66Z"/><path class="cls-44" d="M21.6,15.11a3.7,3.7,0,0,1,.2-1.31c.24-.56.8-.32.82,0a2.13,2.13,0,0,1-.51,1.49C21.76,15.57,21.6,15.11,21.6,15.11Z"/><path class="cls-45" d="M21.6,15.11a3.7,3.7,0,0,1,.2-1.31c.24-.56.8-.32.82,0a2.13,2.13,0,0,1-.51,1.49C21.76,15.57,21.6,15.11,21.6,15.11Z"/><path class="cls-34" d="M21.92,15.43c-.24,0-.35-.3-.36-.31h0a3.82,3.82,0,0,1,.21-1.32.51.51,0,0,1,.45-.36.46.46,0,0,1,.44.41,2.24,2.24,0,0,1-.53,1.52A.35.35,0,0,1,21.92,15.43Zm-.29-.33s.11.26.29.26a.32.32,0,0,0,.17-.06,2.1,2.1,0,0,0,.5-1.45.38.38,0,0,0-.37-.35.43.43,0,0,0-.38.31A3.46,3.46,0,0,0,21.63,15.1Z"/><path class="cls-46" d="M21.05,15.82s.21-.89.69-.8.56.42.4.8-.29.7-.54.69S21.05,15.82,21.05,15.82Z"/><path class="cls-47" d="M21.05,15.82s.21-.89.69-.8.56.42.4.8-.29.7-.54.69S21.05,15.82,21.05,15.82Z"/><path class="cls-34" d="M21.61,16.54h0c-.27,0-.54-.64-.57-.71h0s.2-.83.66-.83h.07a.61.61,0,0,1,.45.27.67.67,0,0,1,0,.58v0C22,16.22,21.87,16.54,21.61,16.54Zm-.52-.72c.08.19.32.64.51.65s.35-.28.5-.64v0a.6.6,0,0,0,0-.52.53.53,0,0,0-.4-.24h-.06C21.3,15.05,21.11,15.72,21.09,15.82Z"/><path class="cls-48" d="M9.19,19.67a1.82,1.82,0,0,0-.44.89c0,.47.53.84.88,1s.13.33-.23.34-1.11-.14-1.3-.7-.32-1.62,0-1.83S9.19,19.67,9.19,19.67Z"/><path class="cls-41" d="M9.37,21.89c-.36,0-1.1-.15-1.3-.72s-.34-1.63,0-1.86a.32.32,0,0,1,.2-.06,2.12,2.12,0,0,1,.93.39l0,0,0,0a1.67,1.67,0,0,0-.43.87c0,.43.47.8.85.93.18.06.21.14.2.19s-.21.21-.44.21ZM8.28,19.32a.27.27,0,0,0-.16,0c-.29.19-.2,1.2,0,1.79s.89.68,1.24.68h0c.21,0,.37-.09.38-.16s-.06-.08-.16-.12c-.37-.12-.94-.5-.9-1a1.83,1.83,0,0,1,.42-.89A2,2,0,0,0,8.28,19.32Z"/><path class="cls-49" d="M8.88,14.92a6,6,0,0,0-2.2-.7A5.6,5.6,0,0,0,2.27,16.1c-.56.64-.73,1.43-1,1.57a1.09,1.09,0,0,0-.67,1.2,2.35,2.35,0,0,0,.37.69s.25,2,2.83,1.66c.34-.19,1.55-3.88,3.48-4.13a8.86,8.86,0,0,0,1.33-.26Z"/><path class="cls-50" d="M2.14,20.77a.93.93,0,0,0,1.32-.61A5.27,5.27,0,0,1,6.4,16.34a4.15,4.15,0,0,0,1.32-.94,1.65,1.65,0,0,1,1-.54,5.84,5.84,0,0,0-2.08-.64A5.6,5.6,0,0,0,2.27,16.1c-.56.64-.73,1.43-1,1.57a1.09,1.09,0,0,0-.67,1.2,2.35,2.35,0,0,0,.37.69,1.66,1.66,0,0,0,.11.38A3,3,0,0,0,2.14,20.77Z"/><path class="cls-51" d="M1.33,17.65l0,0a1.09,1.09,0,0,0-.67,1.2,2.35,2.35,0,0,0,.37.69,1.66,1.66,0,0,0,.11.38,3,3,0,0,0,1,.83.93.93,0,0,0,1.32-.61c0-.15.09-.3.14-.44C3.13,18.73,2.41,17.62,1.33,17.65Z"/><path class="cls-52" d="M2.23,18c.64.45.83,1,.65,1.24s-1.1-.08-1.45-.38-.48-.75-.32-.94A1,1,0,0,1,2.23,18Z"/><path class="cls-53" d="M6.67,14.22A5.63,5.63,0,0,0,2.26,16.1c-.54.62-.72,1.36-.94,1.55,1.1,0,1.79,1.08,2.27,2.07a5,5,0,0,1,2.8-3.37,4.29,4.29,0,0,0,1.31-1,1.68,1.68,0,0,1,1-.54A5.84,5.84,0,0,0,6.67,14.22Z"/><path class="cls-54" d="M3.68,16.06a.82.82,0,0,0,.8-.84.85.85,0,0,0-.2-.56,5.93,5.93,0,0,0-1.35.83A.79.79,0,0,0,3.68,16.06Z"/><path class="cls-54" d="M3.44,16.48a.33.33,0,0,1-.31.35.35.35,0,0,1,0-.7A.33.33,0,0,1,3.44,16.48Z"/><path class="cls-54" d="M4.7,16.76a.47.47,0,1,1-.47-.45A.46.46,0,0,1,4.7,16.76Z"/><path class="cls-54" d="M5.34,16a.39.39,0,0,1-.78,0,.39.39,0,0,1,.78,0Z"/><path class="cls-54" d="M5.82,15.06a.46.46,0,0,1-.49.43.43.43,0,1,1,0-.86A.46.46,0,0,1,5.82,15.06Z"/><path class="cls-55" d="M7.34,14.38a5.1,5.1,0,0,0-5.71,3c-.12.4,1,.29,1.5-.54A4.9,4.9,0,0,1,7.34,14.38Z"/><path class="cls-41" d="M3.29,21.29a2.29,2.29,0,0,1-1.95-.86A2.12,2.12,0,0,1,1,19.58a2.39,2.39,0,0,1-.37-.71,1.1,1.1,0,0,1,.67-1.22h0a1.34,1.34,0,0,0,.31-.5,4.27,4.27,0,0,1,.65-1.06,5.7,5.7,0,0,1,4.11-1.91h.34a5.93,5.93,0,0,1,2.21.72h0l-.25,1.95h0a8.74,8.74,0,0,1-1.31.25h0c-1.39.19-2.43,2.24-3,3.34a3,3,0,0,1-.47.79h0A3.27,3.27,0,0,1,3.29,21.29Zm3.06-7.06a5.68,5.68,0,0,0-4.06,1.89,4.7,4.7,0,0,0-.64,1.05,1.3,1.3,0,0,1-.33.53h0a1.08,1.08,0,0,0-.64,1.16,2.4,2.4,0,0,0,.37.68H1a1.9,1.9,0,0,0,.36.83,2.21,2.21,0,0,0,1.89.83l.53,0a3.83,3.83,0,0,0,.44-.76c.6-1.19,1.62-3.19,3.05-3.38h0a7.2,7.2,0,0,0,1.3-.24l.23-1.87a5.94,5.94,0,0,0-2.16-.69Z"/><path class="cls-41" d="M2,17.76a1.42,1.42,0,0,0-.66-.06l0-.07A1.14,1.14,0,0,1,2,17.76Z"/><path class="cls-56" d="M17.21,11.88a7.13,7.13,0,0,0-1.57-.9c-.69-.23-1.28-.35-1.47-.84a3.92,3.92,0,0,0-.7-1.31,4,4,0,0,0,0-1.14,1.48,1.48,0,0,0-1.15-.86A2.64,2.64,0,0,0,9.59,8.4c-.39,1.34,1.47,3.7,3.81,4.36C13.61,12.81,17.21,11.88,17.21,11.88Z"/><path class="cls-57" d="M14.43,10.64a2.32,2.32,0,0,1,0,.46,17.24,17.24,0,0,0-1-2.16c-.14-.42.1-1-.05-1.46a1.65,1.65,0,0,0-1-.65A2.64,2.64,0,0,0,9.59,8.4c-.28,1,.6,2.45,2,3.46a2.27,2.27,0,0,0,1.71.43,1.8,1.8,0,0,1,1.25-.07,2,2,0,0,1,1.86-.72,2.44,2.44,0,0,0-.64-.29A3.83,3.83,0,0,1,14.43,10.64Z"/><path class="cls-58" d="M14.43,10.64a2.32,2.32,0,0,1,0,.46,17.24,17.24,0,0,0-1-2.16c-.14-.42.1-1-.05-1.46a1.65,1.65,0,0,0-1-.65A2.64,2.64,0,0,0,9.59,8.4c-.28,1,.6,2.45,2,3.46a2.27,2.27,0,0,0,1.71.43,1.8,1.8,0,0,1,1.25-.07,2,2,0,0,1,1.86-.72,2.44,2.44,0,0,0-.64-.29A3.83,3.83,0,0,1,14.43,10.64Z"/><path class="cls-59" d="M10.48,7.74A2.72,2.72,0,0,1,13,7.13a1.84,1.84,0,0,0-.71-.3A2.64,2.64,0,0,0,9.59,8.4c-.23.8.34,2,1.34,2.92C10.11,10.1,9.32,8.81,10.48,7.74Z"/><path class="cls-54" d="M13.37,9.9a.56.56,0,0,0,.53.58.52.52,0,0,0,.37-.16.81.81,0,0,1-.1-.18c-.1-.26-.23-.56-.35-.81A.57.57,0,0,0,13.37,9.9Z"/><path class="cls-41" d="M13.42,12.8h0a6.18,6.18,0,0,1-3.5-2.74,2.25,2.25,0,0,1-.33-1.67,2.62,2.62,0,0,1,2.5-1.61l.26,0a1.51,1.51,0,0,1,1.18.88,2.41,2.41,0,0,1,0,.89c0,.09,0,.17,0,.25a3.54,3.54,0,0,1,.7,1.31c.16.4.6.54,1.15.72l.3.1a7,7,0,0,1,1.58.91l.05,0-.06,0C17.08,12,13.8,12.8,13.42,12.8Zm0-.07h0c.34,0,3.23-.74,3.71-.86a6.48,6.48,0,0,0-1.5-.86l-.3-.09c-.57-.19-1-.33-1.19-.77a3.57,3.57,0,0,0-.69-1.29h0v0a2.11,2.11,0,0,0,0-.26,2.29,2.29,0,0,0,0-.87,1.41,1.41,0,0,0-1.12-.83,1,1,0,0,0-.25,0A2.55,2.55,0,0,0,9.62,8.41,2.24,2.24,0,0,0,10,10a6,6,0,0,0,3.46,2.7Z"/><path class="cls-60" d="M16.85,11.8s1.42-.69,2,.43a7.82,7.82,0,0,1-1.16.49Z"/><path class="cls-61" d="M17.48,11.71c-.07,0,0,.09,0,.12a1,1,0,0,1,.44.29c.1.14.28,0,.34-.14s.07-.08,0-.13S17.67,11.65,17.48,11.71Z"/><path class="cls-62" d="M17.6,11.75c-.05,0,0,.06,0,.08a.72.72,0,0,1,.31.21c.08.09.2,0,.24-.1s0-.06,0-.09S17.74,11.71,17.6,11.75Z"/><path class="cls-63" d="M17.67,12.76l-.87-1,0,0a2.64,2.64,0,0,1,.93-.21,1.14,1.14,0,0,1,1.1.66v0l0,0a7.24,7.24,0,0,1-1.17.49Zm-.76-.94.78.86a7.17,7.17,0,0,0,1.1-.46,1.07,1.07,0,0,0-1-.59A2.38,2.38,0,0,0,16.91,11.82Z"/><path class="cls-64" d="M20.32,15.86C19.59,17.28,18,13,17.9,12.58a.93.93,0,0,1,1.48-.28A1.92,1.92,0,0,1,20,13.56,15.73,15.73,0,0,0,20.32,15.86Z"/><path class="cls-65" d="M18.9,12.22c-.17,0-.47.1-.37.2a2.83,2.83,0,0,1,1,1.39s.12,0,.14-.07a1.69,1.69,0,0,0,0-.68A1.2,1.2,0,0,0,18.9,12.22Z"/><path class="cls-66" d="M19,12.34c-.12,0-.35.07-.27.15a2,2,0,0,1,.74,1s.08,0,.09-.05a1.19,1.19,0,0,0,0-.5A.89.89,0,0,0,19,12.34Z"/><path class="cls-63" d="M19.94,16a.8.8,0,0,1-.3-.06c-.9-.38-1.49-2.38-1.7-3.13,0-.1-.06-.17-.07-.21v0h0a1,1,0,0,1,.58-.51,1.25,1.25,0,0,1,.95.22A2,2,0,0,1,20,13.56H20a1.93,1.93,0,0,0-.61-1.24,1.11,1.11,0,0,0-.89-.21.85.85,0,0,0-.53.46l.06.21c.2.67.79,2.71,1.66,3.08a.76.76,0,0,0,.64,0l0,.06A.81.81,0,0,1,19.94,16Z"/><path class="cls-41" d="M20.2,15.87l-.06,0a4.84,4.84,0,0,0-.08-1.26c0-.31-.08-.59-.09-.78a3.11,3.11,0,0,1,.27-1.24,3.82,3.82,0,0,0-.2,1.23c0,.19.05.48.09.78A3.92,3.92,0,0,1,20.2,15.87Z"/><path class="cls-41" d="M14.39,11.1a1.8,1.8,0,0,0-.15-.76l.06,0A1.37,1.37,0,0,1,14.39,11.1Z"/><path class="cls-67" d="M6.84,16.89s.17-1,1.56-1.07C8.73,16.11,8,17,8,17S6.84,16.89,6.84,16.89Z"/><path class="cls-68" d="M6.84,16.89s.17-1,1.56-1.07C8.73,16.11,8,17,8,17S6.84,16.89,6.84,16.89Z"/><path class="cls-63" d="M7.94,17c-.15,0-1.07-.11-1.11-.11h0v0a1.56,1.56,0,0,1,1.6-1.1h0a.38.38,0,0,1,.08.41A2,2,0,0,1,8,17Zm-1.06-.17c.18,0,.93.1,1.06.1H8a2,2,0,0,0,.5-.87.29.29,0,0,0-.06-.24C7.19,15.94,6.92,16.68,6.88,16.86Z"/><path class="cls-69" d="M14.42,12.53a2.93,2.93,0,0,1,1.69-.81c1-.09,1.66.1,1.94.93a22.69,22.69,0,0,1-2.93,1Z"/><path class="cls-70" d="M15.25,12.29c-.14.2.32.56.54.44.66-.36.84-.17,1.18-.44,0,0,.16-.14.09-.23C16.8,11.68,15.63,11.76,15.25,12.29Z"/><path class="cls-71" d="M15.44,12.29c-.1.15.24.42.4.33.5-.27.63-.13.89-.33,0,0,.11-.11.07-.17C16.6,11.84,15.72,11.89,15.44,12.29Z"/><path class="cls-63" d="M15.11,13.71l-.73-1.19,0,0a3,3,0,0,1,1.71-.81l.43,0a1.41,1.41,0,0,1,1.55,1v0l0,0a23.33,23.33,0,0,1-2.94,1Zm-.64-1.18.67,1.1a22.33,22.33,0,0,0,2.87-1,1.32,1.32,0,0,0-1.47-.9,3.32,3.32,0,0,0-.43,0A2.84,2.84,0,0,0,14.47,12.53Z"/><path class="cls-72" d="M12.09,13.4a2.23,2.23,0,0,1,1.83-1.06,1.65,1.65,0,0,1,1.5,1.17A26.6,26.6,0,0,0,13,14.65Z"/><path class="cls-73" d="M14.71,13.1a1.21,1.21,0,0,0-.78-.56,1.43,1.43,0,0,0-1.15.53c-.2.27.24.64.44.64s.48-.25.94-.41C14.33,13.23,14.81,13.23,14.71,13.1Z"/><path class="cls-74" d="M14.38,13.11a.9.9,0,0,0-.58-.42,1.08,1.08,0,0,0-.85.39c-.15.2.18.48.33.48s.35-.19.69-.3C14.1,13.21,14.45,13.2,14.38,13.11Z"/><path class="cls-63" d="M13,14.7l-.91-1.3v0a2.27,2.27,0,0,1,1.86-1.07H14a1.71,1.71,0,0,1,1.45,1.2v0h0C15,13.65,13,14.67,13,14.68Zm-.83-1.31L13,14.61c.24-.12,1.93-1,2.4-1.13A1.66,1.66,0,0,0,14,12.37h-.07A2.28,2.28,0,0,0,12.13,13.39Z"/><path class="cls-75" d="M9.71,14.49A3.15,3.15,0,0,1,12,13.27c.45,0,1.26.72,1.17,1.22a29.18,29.18,0,0,0-2.65,1.33Z"/><path class="cls-76" d="M12,13.49s-1.14.07-1.51.68c-.17.23.12.73.43.53a2.73,2.73,0,0,1,1.47-.55c.11,0,.31,0,.31-.14C12.67,13.69,12.22,13.43,12,13.49Z"/><path class="cls-77" d="M11.85,13.64s-.87,0-1.16.51c-.13.19.1.56.33.41a2.19,2.19,0,0,1,1.13-.42c.08,0,.23,0,.23-.1S12.05,13.59,11.85,13.64Z"/><path class="cls-63" d="M10.46,15.86l-.79-1.38h0A3.18,3.18,0,0,1,12,13.24h0a1.42,1.42,0,0,1,.89.55.92.92,0,0,1,.27.71v0h0a27.65,27.65,0,0,0-2.64,1.33Zm-.71-1.37.74,1.28a27.28,27.28,0,0,1,2.6-1.31.92.92,0,0,0-.26-.64A1.38,1.38,0,0,0,12,13.3h0A3.14,3.14,0,0,0,9.75,14.49Z"/><path class="cls-78" d="M7.82,16.67a2.62,2.62,0,0,1,.87-2c.9-.75,1.6-.51,2,.91C10.28,15.8,9.19,17.47,7.82,16.67Z"/><path class="cls-79" d="M9.71,14.51c-.41-.1-1.56.85-1.56,1.34,0,.1.23.35.36.29a3.48,3.48,0,0,1,1.6-1C10.28,15,10,14.64,9.71,14.51Z"/><path class="cls-80" d="M9.51,14.66c-.31-.08-1.18.64-1.18,1,0,.07.17.27.28.21a2.62,2.62,0,0,1,1.2-.74C9.94,15,9.7,14.76,9.51,14.66Z"/><path class="cls-63" d="M8.57,16.92a1.48,1.48,0,0,1-.77-.22h0v0a2.72,2.72,0,0,1,.88-2,1.51,1.51,0,0,1,.93-.43q.75,0,1.11,1.35v0l0,0a1.77,1.77,0,0,0-.37.3A2.79,2.79,0,0,1,8.57,16.92Zm-.72-.27a1.4,1.4,0,0,0,.72.2,2.67,2.67,0,0,0,1.7-.94,2.32,2.32,0,0,1,.36-.3c-.23-.85-.58-1.27-1-1.27a1.47,1.47,0,0,0-.88.41A2.62,2.62,0,0,0,7.85,16.65Z"/><path class="cls-81" d="M19.57,15.39a3.68,3.68,0,0,0-.44-2,1.73,1.73,0,0,0-1.86-1,3.14,3.14,0,0,0-2.06,1.25c.25.4,1.14,4.94,2.57,4.43s1.86-.61,1.95-1.08Z"/><path class="cls-82" d="M18.26,13a1.75,1.75,0,0,0-1.83.37c-.07.07-.1.23,0,.27a3.49,3.49,0,0,1,1.32,2.06.55.55,0,0,0,.78.31,1.65,1.65,0,0,0,.63-1.59A1.75,1.75,0,0,0,18.26,13Z"/><path class="cls-83" d="M18.2,13.23a1.25,1.25,0,0,0-1.32.27c-.05.05-.08.16,0,.19a2.52,2.52,0,0,1,.95,1.5.41.41,0,0,0,.57.22,1.18,1.18,0,0,0,.46-1.15A1.24,1.24,0,0,0,18.2,13.23Z"/><path class="cls-63" d="M17.56,18.17a.67.67,0,0,1-.33-.08c-.84-.43-1.43-2.42-1.79-3.61a5.8,5.8,0,0,0-.26-.79h0v0a3.12,3.12,0,0,1,2.09-1.27,1.73,1.73,0,0,1,1.88,1,2.68,2.68,0,0,1,.32.74,3.31,3.31,0,0,1,.07,1.29,3.69,3.69,0,0,0-.44-2,1.66,1.66,0,0,0-1.82-.94,3.1,3.1,0,0,0-2,1.21,7.06,7.06,0,0,1,.26.79c.35,1.18.94,3.15,1.75,3.57a.61.61,0,0,0,.51,0l.38-.13c1.13-.4,1.47-.52,1.54-.93l.07,0c-.08.44-.43.57-1.59,1l-.38.13A.59.59,0,0,1,17.56,18.17Z"/><path class="cls-84" d="M19.22,17.59a2.1,2.1,0,0,1,.28-1.74,1.31,1.31,0,0,1,1.85-.08,1.14,1.14,0,0,1,.3.84Z"/><path class="cls-85" d="M19.22,17.59a2.1,2.1,0,0,1,.28-1.74,1.31,1.31,0,0,1,1.85-.08,1.14,1.14,0,0,1,.3.84Z"/><path class="cls-34" d="M19.2,17.64v0a2.13,2.13,0,0,1,.28-1.77,1.15,1.15,0,0,1,.92-.44,1.62,1.62,0,0,1,1,.35,1.12,1.12,0,0,1,.31.87v0Zm1.19-2.19a1.11,1.11,0,0,0-.87.42,2.13,2.13,0,0,0-.28,1.68l2.38-1a1.11,1.11,0,0,0-.29-.8A1.49,1.49,0,0,0,20.39,15.45Z"/><path class="cls-86" d="M13.06,14.41a2.2,2.2,0,0,1,2.2-1.07,3.71,3.71,0,0,1,2,1.87,3.14,3.14,0,0,1,0,2.95,18.8,18.8,0,0,1-2.65.66Z"/><path class="cls-87" d="M15.39,13.68a1.37,1.37,0,0,0-.85.13c-.24.13-.81.3-.61.57a4.44,4.44,0,0,1,1.42,2.84c0,.61,1.28.07,1.66-.44s.06-1.08-.24-1.59A5.14,5.14,0,0,0,15.39,13.68Z"/><path class="cls-88" d="M15.5,14.07a1,1,0,0,0-.63.09c-.18.1-.6.22-.45.42a3.21,3.21,0,0,1,1,2.09c0,.45.95,0,1.22-.32s.05-.8-.17-1.17A3.83,3.83,0,0,0,15.5,14.07Z"/><path class="cls-63" d="M14.6,18.85,13,14.41v0a2.28,2.28,0,0,1,2.23-1.09,3.68,3.68,0,0,1,2,1.9,3.16,3.16,0,0,1,0,3,18.32,18.32,0,0,1-2.66.66Zm-1.5-4.44,1.55,4.37a18,18,0,0,0,2.6-.65,3.15,3.15,0,0,0,0-2.9,3.71,3.71,0,0,0-2-1.86h-.1A2.16,2.16,0,0,0,13.1,14.41Z"/><path class="cls-89" d="M10.53,15.53a3,3,0,0,1,2.24-1.28c.56-.07,2.6,1.57,2.27,4.22-.91.55-4.06,1.8-4.06,1.8Z"/><path class="cls-90" d="M13,14.61a2.54,2.54,0,0,0-1.45.52c-.17.1-.37.3-.2.5.74.71.6,1.83,1.25,2.5.47.51,1.31,0,1.89-.4a.47.47,0,0,0,.1-.58C14.13,16.27,13.87,15.09,13,14.61Z"/><path class="cls-91" d="M12.88,15a1.72,1.72,0,0,0-1,.36c-.12.07-.26.21-.14.35.51.49.42,1.26.86,1.73s.91,0,1.31-.28a.32.32,0,0,0,.07-.4C13.7,16.18,13.52,15.36,12.88,15Z"/><path class="cls-63" d="M11,20.32l-.45-4.79h0a3.14,3.14,0,0,1,2.27-1.31h0A2.17,2.17,0,0,1,14,15a4.32,4.32,0,0,1,1,3.44v0h0A42.86,42.86,0,0,1,11,20.3Zm-.38-4.78L11,20.23c.37-.15,3.15-1.27,4-1.78a4.27,4.27,0,0,0-1-3.38,2,2,0,0,0-1.21-.79A3,3,0,0,0,10.57,15.54Z"/><path class="cls-92" d="M8.58,16.77a2.17,2.17,0,0,1,1.58-1.35c.51-.13.84.23,1.17.79s.89,1.74.53,2.05S8.58,16.77,8.58,16.77Z"/><path class="cls-93" d="M9.32,16.41c-.21.84,1.1,1.21,2,.77.22-.08-.26-1-.61-1.39S9.39,16,9.32,16.41Z"/><path class="cls-94" d="M9.64,16.44c-.12.52.68.75,1.25.48.14-.05-.16-.61-.38-.86S9.68,16.21,9.64,16.44Z"/><path class="cls-63" d="M11.73,18.33A13.21,13.21,0,0,1,8.56,16.8h0v0a2.24,2.24,0,0,1,1.62-1.38.76.76,0,0,1,.21,0c.44,0,.73.4,1,.83s.9,1.77.52,2.1A.21.21,0,0,1,11.73,18.33ZM8.62,16.76a13.44,13.44,0,0,0,3.11,1.5l.11,0c.31-.28-.15-1.36-.54-2-.24-.42-.53-.8-.93-.8l-.2,0A2.14,2.14,0,0,0,8.62,16.76Z"/><path class="cls-95" d="M8.58,19.5a1.73,1.73,0,0,0,1.3,1c.28.05.72-.11.7-.23s-.32-.83-.69-.88A6.75,6.75,0,0,0,8.58,19.5Z"/><path class="cls-96" d="M8.58,19.5a1.73,1.73,0,0,0,1.3,1c.28.05.72-.11.7-.23s-.32-.83-.69-.88A6.75,6.75,0,0,0,8.58,19.5Z"/><path class="cls-34" d="M10,20.54H9.87a1.77,1.77,0,0,1-1.33-1v0h0a9.49,9.49,0,0,1,1.14-.12h.18c.39.05.7.78.72.91a.09.09,0,0,1,0,.08A1,1,0,0,1,10,20.54Zm-1.37-1a1.74,1.74,0,0,0,1.26.94H10a.93.93,0,0,0,.54-.17l0,0c0-.11-.32-.81-.67-.86H9.71A7.88,7.88,0,0,0,8.62,19.53Z"/><path class="cls-97" d="M10.18,19.67s-.15.81.35.83S11.82,20.4,12,20s-.16-.82-.5-.78A10.07,10.07,0,0,0,10.18,19.67Z"/><path class="cls-98" d="M10.18,19.67s-.15.81.35.83S11.82,20.4,12,20s-.16-.82-.5-.78A10.07,10.07,0,0,0,10.18,19.67Z"/><path class="cls-34" d="M10.63,20.53h-.1a.36.36,0,0,1-.28-.13,1.16,1.16,0,0,1-.11-.74v0h0a10.11,10.11,0,0,1,1.28-.4.46.46,0,0,1,.44.22.67.67,0,0,1,.1.6C11.84,20.43,11.07,20.53,10.63,20.53Zm-.42-.84a1,1,0,0,0,.09.67.32.32,0,0,0,.23.11h.1c.54,0,1.18-.14,1.29-.44a.63.63,0,0,0-.09-.54.43.43,0,0,0-.38-.2A9.11,9.11,0,0,0,10.21,19.69Z"/><path class="cls-99" d="M10.74,17.39s1.18.08,1.39.78-.28,1.54-1.43,1.49c-.15-.24,1-.72.78-1.19A6.07,6.07,0,0,0,10.74,17.39Z"/><path class="cls-100" d="M10.74,17.39s1.18.08,1.39.78-.28,1.54-1.43,1.49c-.15-.24,1-.72.78-1.19A6.07,6.07,0,0,0,10.74,17.39Z"/><path class="cls-34" d="M10.79,19.7h-.11v0c-.08-.13.1-.28.32-.47s.57-.48.46-.72a5.92,5.92,0,0,0-.74-1.08l-.05-.06h.08s1.21.08,1.42.8a1.14,1.14,0,0,1-.17,1A1.45,1.45,0,0,1,10.79,19.7Zm-.07-.07h.07a1.37,1.37,0,0,0,1.14-.5,1,1,0,0,0,.17-.95c-.17-.57-1-.71-1.28-.75a5.51,5.51,0,0,1,.69,1c.13.29-.2.57-.47.8S10.7,19.55,10.72,19.63Z"/><path class="cls-101" d="M13.61,18.67s-1.81.39-1.91.91.22.61.63.49,1.15-.44,1.28-.83A1.86,1.86,0,0,0,13.61,18.67Z"/><path class="cls-102" d="M13.61,18.67s-1.81.39-1.91.91.22.61.63.49,1.15-.44,1.28-.83A1.86,1.86,0,0,0,13.61,18.67Z"/><path class="cls-34" d="M12.05,20.15h0a.37.37,0,0,1-.32-.13.53.53,0,0,1-.06-.45c.1-.53,1.86-.92,1.93-.94h0v0a1.46,1.46,0,0,1,0,.59h0c-.13.41-.91.74-1.3.85A1.18,1.18,0,0,1,12.05,20.15Zm1.53-1.44c-.25.06-1.76.42-1.85.87a.54.54,0,0,0,0,.4.33.33,0,0,0,.27.1h0a1,1,0,0,0,.27,0c.44-.13,1.14-.45,1.26-.81A1.74,1.74,0,0,0,13.58,18.71Z"/><path class="cls-103" d="M15.39,18.24a2.08,2.08,0,0,0-1.28.06c-.66.26-.85.69-.7,1s1.52.26,2-.64C15.47,18.46,15.48,18.27,15.39,18.24Z"/><path class="cls-104" d="M15.39,18.24a2.08,2.08,0,0,0-1.28.06c-.66.26-.85.69-.7,1s1.52.26,2-.64C15.47,18.46,15.48,18.27,15.39,18.24Z"/><path class="cls-34" d="M13.91,19.48h0c-.27,0-.47-.07-.53-.18a.49.49,0,0,1,0-.41,1.24,1.24,0,0,1,.74-.62,1.92,1.92,0,0,1,.72-.14,2.1,2.1,0,0,1,.58.08.13.13,0,0,1,.06.05.53.53,0,0,1,0,.39h0A1.76,1.76,0,0,1,13.91,19.48Zm.91-1.28a1.82,1.82,0,0,0-.7.13,1.12,1.12,0,0,0-.69.58.41.41,0,0,0,0,.36c0,.09.23.14.47.14a1.69,1.69,0,0,0,1.47-.78.55.55,0,0,0,0-.33s0,0,0,0A1.87,1.87,0,0,0,14.82,18.2Z"/><path class="cls-105" d="M17.55,17.83a1.74,1.74,0,0,0-1.06-.16c-.63.08-1.23.42-1.25.72s.09.44.61.45,1.67-.24,1.78-.7A.43.43,0,0,0,17.55,17.83Z"/><path class="cls-106" d="M17.55,17.83a1.74,1.74,0,0,0-1.06-.16c-.63.08-1.23.42-1.25.72s.09.44.61.45,1.67-.24,1.78-.7A.43.43,0,0,0,17.55,17.83Z"/><path class="cls-34" d="M15.88,18.87h0a.73.73,0,0,1-.56-.15.44.44,0,0,1-.08-.33c0-.31.62-.67,1.28-.76h.27a1.69,1.69,0,0,1,.81.18h0a.46.46,0,0,1,.08.34C17.55,18.62,16.43,18.87,15.88,18.87Zm.88-1.19-.26,0c-.62.08-1.21.41-1.22.7a.37.37,0,0,0,.06.28.72.72,0,0,0,.51.12h0c.55,0,1.61-.25,1.71-.67a.33.33,0,0,0-.06-.27A1.57,1.57,0,0,0,16.76,17.68Z"/><path class="cls-107" d="M19.61,17.38a3,3,0,0,0-1.16-.12c-.55.06-1,.29-1,.76s.91.33,1.3.19A1.12,1.12,0,0,0,19.61,17.38Z"/><path class="cls-108" d="M19.61,17.38a3,3,0,0,0-1.16-.12c-.55.06-1,.29-1,.76s.91.33,1.3.19A1.12,1.12,0,0,0,19.61,17.38Z"/><path class="cls-34" d="M18,18.38h0c-.47,0-.58-.2-.59-.36,0-.43.36-.71,1-.79l.29,0a2.87,2.87,0,0,1,.89.14h0v0c-.07.52-.52.73-.9.87A2.53,2.53,0,0,1,18,18.38Zm.74-1.1h-.28c-.3,0-1,.18-1,.72,0,.25.29.3.52.3a2.45,2.45,0,0,0,.73-.13,1.11,1.11,0,0,0,.85-.78A3.12,3.12,0,0,0,18.73,17.28Z"/><path class="cls-41" d="M10.32,8.79a1.25,1.25,0,0,1,.79-.33.43.43,0,0,1,.16,0,1.08,1.08,0,0,1,.59.24A1.49,1.49,0,0,0,10.32,8.79Z"/><path class="cls-41" d="M11.2,8.5l-.06,0a1.69,1.69,0,0,1,1.45-.8A1.77,1.77,0,0,0,11.2,8.5Z"/><path class="cls-54" d="M13.23,11.43A.43.43,0,1,1,12.8,11,.45.45,0,0,1,13.23,11.43Z"/><path class="cls-54" d="M13.93,11a.35.35,0,1,1-.35-.33A.35.35,0,0,1,13.93,11Z"/><path class="cls-54" d="M13.23,10.36a.31.31,0,1,1-.31-.3A.3.3,0,0,1,13.23,10.36Z"/><path class="cls-15" d="M22.46,18.85c-.66,0-.72-2-.72-2.08v0h0a1.11,1.11,0,0,0,.53-.53c0-.12.07-.26.1-.38s.09-.47.24-.47.57.62.58,1.1v.07c0,.58.07,2.1-.65,2.31Zm-.66-2.06c0,.22.1,2,.66,2h.09c.66-.19.61-1.73.6-2.24v-.07c0-.44-.36-1-.51-1s-.14.2-.18.41a2,2,0,0,1-.1.39A1.08,1.08,0,0,1,21.8,16.79Z"/><path class="cls-15" d="M22.5,18.38c-.29,0-.59-1.13-.63-1.26v0l.35-.41a1.1,1.1,0,0,0,.23-.39v0c.05-.2.1-.38.21-.38a.12.12,0,0,1,.09,0,1.13,1.13,0,0,1,.24,1l0,.13c-.07.56-.14,1.18-.42,1.3Zm-.56-1.26c.13.47.38,1.2.56,1.2h0c.24-.1.32-.74.38-1.24l0-.13a1.13,1.13,0,0,0-.22-1,0,0,0,0,0,0,0c-.06,0-.11.19-.14.33v0a1.07,1.07,0,0,1-.24.42Z"/><path class="cls-15" d="M22.3,17.81a.12.12,0,0,1-.11-.1c-.07-.21-.16-.59-.16-.59v0h0c0-.05.37-.4.52-.4h0s.07,0,.11.08a.91.91,0,0,1,.08.63C22.69,17.57,22.45,17.81,22.3,17.81Zm-.2-.69c0,.08.09.39.15.57a.06.06,0,0,0,.05,0c.11,0,.33-.21.39-.36a.8.8,0,0,0-.07-.57s0,0-.06,0h0C22.47,16.76,22.24,17,22.1,17.12Z"/><path class="cls-15" d="M19.6,20.07h-.1c-.43-.06-.46-.38-.48-.61a8.21,8.21,0,0,1,0-1.11c0-.26.56-.32.58-.32h0v0a14.94,14.94,0,0,1,.57,1.51.45.45,0,0,1-.12.31A.67.67,0,0,1,19.6,20.07Zm0-2c-.15,0-.48.1-.5.26a8.08,8.08,0,0,0,0,1.1c0,.28.07.5.42.54a.6.6,0,0,0,.53-.18.34.34,0,0,0,.1-.25A14.33,14.33,0,0,0,19.59,18.09Z"/><path class="cls-15" d="M19.65,19.78h0a.47.47,0,0,1-.28-.08c-.2-.15-.2-.9-.1-1.15a.62.62,0,0,1,.3-.28l0,0L20,19.73h0A1.15,1.15,0,0,1,19.65,19.78Zm-.09-1.43a.47.47,0,0,0-.22.22c-.1.25-.1.95.07,1.07a.34.34,0,0,0,.24.07h0a1,1,0,0,0,.22,0Z"/><path class="cls-15" d="M16.25,20.7c-.15,0-.24,0-.29-.1-.16-.24-.49-.93-.36-1.22a5.14,5.14,0,0,1,1.59-.47h0c.22,0,.93.07,1,.47a1.22,1.22,0,0,1-.2.78.72.72,0,0,1-.47.3l-.46.1A4.31,4.31,0,0,1,16.25,20.7Zm-.59-1.29c-.11.27.22.94.36,1.16,0,0,.11.06.23.06a4.26,4.26,0,0,0,.82-.14l.47-.09a.66.66,0,0,0,.42-.28,1.06,1.06,0,0,0,.19-.72c0-.28-.51-.4-.93-.42h0A6,6,0,0,0,15.66,19.41Z"/><path class="cls-15" d="M16.45,20.48l-.1,0a1.27,1.27,0,0,1-.43-.69.28.28,0,0,1,0-.23h0a6.49,6.49,0,0,1,1.16-.3h0c.26,0,.71.1.79.32a.4.4,0,0,1,0,.34.59.59,0,0,1-.39.26,2.61,2.61,0,0,0-.47.16A2.5,2.5,0,0,1,16.45,20.48ZM16,19.59a.22.22,0,0,0,0,.17,1.19,1.19,0,0,0,.39.64h.07a2.1,2.1,0,0,0,.59-.17l.47-.16a.51.51,0,0,0,.35-.23.34.34,0,0,0,0-.28c-.06-.15-.43-.26-.73-.27h0A6.18,6.18,0,0,0,16,19.59Z"/><path class="cls-15" d="M16.8,20.07c-.13,0-.38,0-.48-.17a.31.31,0,0,1,0-.27c0-.1.52-.19.73-.19h.11c.13,0,.51.15.55.29a.1.1,0,0,1,0,.09,1.84,1.84,0,0,1-.85.24Zm-.45-.42a.24.24,0,0,0,0,.21c.09.13.33.14.43.14h0a1.58,1.58,0,0,0,.8-.22,0,0,0,0,0,0,0c0-.08-.32-.19-.5-.23H17A1.83,1.83,0,0,0,16.35,19.65Z"/><path class="cls-15" d="M13.22,21.91A2.51,2.51,0,0,1,12,21.49c-.16-.17-.46-.68-.3-.85h0a8.53,8.53,0,0,1,1.61-.73,2.29,2.29,0,0,1,.43,0,.87.87,0,0,1,.83.42,1.08,1.08,0,0,1,.12.85.47.47,0,0,1-.24.29l-.29.14a3.23,3.23,0,0,1-.8.33ZM11.7,20.69c-.09.12.12.55.31.75a2.44,2.44,0,0,0,1.21.4h.1a2.93,2.93,0,0,0,.78-.32l.29-.14a.4.4,0,0,0,.2-.25,1,1,0,0,0-.1-.8.82.82,0,0,0-.78-.38,2.1,2.1,0,0,0-.41,0A9.51,9.51,0,0,0,11.7,20.69Z"/><path class="cls-15" d="M13.32,21.61a2.27,2.27,0,0,1-1-.17c-.38-.2-.56-.45-.48-.63h0a2.13,2.13,0,0,1,.89-.5,3,3,0,0,1,.86-.16.87.87,0,0,1,.42.1,1.08,1.08,0,0,1,.43.59.2.2,0,0,1,0,.16,1.75,1.75,0,0,1-.83.61ZM12,20.84c-.06.14.12.36.45.54a2.26,2.26,0,0,0,.92.17l.31,0c.3,0,.7-.47.79-.58a.18.18,0,0,0,0-.11A.94.94,0,0,0,14,20.3a.75.75,0,0,0-.39-.09,2.94,2.94,0,0,0-.84.16A2.3,2.3,0,0,0,12,20.84Z"/><path class="cls-15" d="M12.88,21.4a.26.26,0,0,1-.14,0l0,0c-.18-.11-.5-.3-.39-.55a1.43,1.43,0,0,1,.8-.33h.44a.94.94,0,0,1,.43.08.26.26,0,0,1,.12.25.44.44,0,0,1-.28.36A3.64,3.64,0,0,1,12.88,21.4Zm.68-.88h-.44a1.5,1.5,0,0,0-.73.29c-.09.19.14.34.35.47l0,0a.16.16,0,0,0,.1,0,3.68,3.68,0,0,0,.93-.25.36.36,0,0,0,.23-.31.16.16,0,0,0-.09-.18A.9.9,0,0,0,13.56,20.52Z"/><path class="cls-15" d="M12.87,21.21a.17.17,0,0,1-.13,0,.33.33,0,0,1-.12-.24.2.2,0,0,1,.11-.15h0a1.39,1.39,0,0,1,.55-.12h.14c.23,0,.25.18.25.22a.22.22,0,0,1-.19.2.82.82,0,0,0-.22.05A2.16,2.16,0,0,1,12.87,21.21Zm-.11-.37s-.07.06-.07.09a.23.23,0,0,0,.1.19s0,0,.08,0a2.22,2.22,0,0,0,.38-.07l.22-.05a.15.15,0,0,0,.13-.13c0-.08-.07-.13-.19-.15h-.13A1.49,1.49,0,0,0,12.76,20.84Z"/><path class="cls-15" d="M15.59,23.31h-.11a2.71,2.71,0,0,1-1.32-.6c-.11-.18.12-.46.33-.7a3,3,0,0,1,.84-.46h0A5.43,5.43,0,0,1,17,22c.17.12,0,.82-.07,1S16,23.31,15.59,23.31Zm-.24-1.7a2.84,2.84,0,0,0-.81.45c-.11.11-.42.46-.33.61a2.68,2.68,0,0,0,1.28.57h.1c.48,0,1.17-.13,1.23-.28s.2-.82.09-.89a5.51,5.51,0,0,0-1.55-.46Z"/><path class="cls-15" d="M15.54,23.13h-.16a1.48,1.48,0,0,1-.86-.65c0-.17.29-.44.32-.48a.91.91,0,0,1,.56-.21h.06a3.17,3.17,0,0,1,1.32.45c.13.21-.28.73-.28.73S15.76,23.13,15.54,23.13Zm-.14-1.29a.82.82,0,0,0-.51.2c-.13.11-.32.32-.31.42a1.59,1.59,0,0,0,.81.6h.15a2.14,2.14,0,0,0,.91-.14c.12-.15.36-.52.27-.65a3.15,3.15,0,0,0-1.27-.42Z"/><path class="cls-15" d="M15.82,23h0a1.5,1.5,0,0,1-1-.4.18.18,0,0,1,0-.17h0a.89.89,0,0,1,.39-.38.53.53,0,0,1,.2,0,3.16,3.16,0,0,1,.79.15c.22.08.35.17.38.25a.12.12,0,0,1,0,.1l0,0A.86.86,0,0,1,15.82,23Zm-1-.55a.15.15,0,0,0,0,.11,1.5,1.5,0,0,0,1,.37h0a.77.77,0,0,0,.61-.43l0,0a.06.06,0,0,0,0,0c0-.06-.15-.14-.34-.21a3.13,3.13,0,0,0-.77-.14l-.18,0A.92.92,0,0,0,14.82,22.42Z"/><path class="cls-15" d="M15.75,22.82H15.7c-.42-.1-.63-.2-.68-.31a.1.1,0,0,1,0-.1.61.61,0,0,1,.43-.24l.12,0h.05c.51.16.59.19.6.24a.08.08,0,0,1,0,0s0,0,0,.05S15.91,22.82,15.75,22.82Zm-.28-.58a.58.58,0,0,0-.38.21s0,0,0,0,.12.14.62.26h0c.13,0,.3-.19.38-.28l0,0a5.62,5.62,0,0,0-.54-.18l0,0Z"/><path class="cls-15" d="M17.45,23.92h0a1.57,1.57,0,0,1-.6-.2.09.09,0,0,1,0-.06c0-.1.17-.24.21-.27a1,1,0,0,1,.58-.25l.11,0c.16.1-.14.69-.14.7A.14.14,0,0,1,17.45,23.92Zm.16-.71a.89.89,0,0,0-.53.23h0c-.09.07-.19.17-.19.21s0,0,0,0a1.42,1.42,0,0,0,.56.19h0l.07,0c.1-.18.23-.57.17-.61Z"/><path class="cls-15" d="M17.33,23.73h0a.75.75,0,0,1-.31-.14l0,0,0,0a.55.55,0,0,1,.51-.16.06.06,0,0,1,0,.06c0,.09-.15.25-.21.28Zm-.24-.17a.65.65,0,0,0,.24.1h0c.07,0,.19-.19.17-.22h-.07A.54.54,0,0,0,17.09,23.56Z"/><path class="cls-109" d="M10.85,17.28s.85.4.93,1a1.51,1.51,0,0,1-1.28,1.48,7,7,0,0,1-2.4-.23,5,5,0,0,1-.14,3c.24.45.55,2.25-1,2.07-1,0-1.18-.14-2.21-.22-.57-.3-1.39-.8-1.58-1.3a1.72,1.72,0,0,1-.41-1.29.82.82,0,0,1,.67-.55c.07-.2,1.15-2.56,1.74-3.54a3,3,0,0,1,2.71-1.25A9.93,9.93,0,0,1,10.85,17.28Z"/><path class="cls-110" d="M7.48,23.57a.85.85,0,0,0,0-1.24,3.69,3.69,0,0,0,0-3.52,3.37,3.37,0,0,0,3.58.32,1.38,1.38,0,0,0,.71-.78v0c-.08-.65-.93-1-.93-1a9.93,9.93,0,0,0-2.94-.8A3,3,0,0,0,5.2,17.73c-.59,1-1.67,3.34-1.74,3.54a.82.82,0,0,0-.67.55,1.72,1.72,0,0,0,.41,1.29,1.19,1.19,0,0,0,.18.3C4.65,24.22,6.38,24.7,7.48,23.57Z"/><path class="cls-111" d="M3.47,21.24v0a.82.82,0,0,0-.67.55,1.72,1.72,0,0,0,.41,1.29,1.19,1.19,0,0,0,.18.3c1.27.81,3,1.29,4.1.16a.85.85,0,0,0,0-1.24h0c-1.27,0-2.23-.62-3.53-1A1.85,1.85,0,0,0,3.47,21.24Z"/><path class="cls-112" d="M4.15,21.41c.73.27,1.06.78.93,1s-1.08.18-1.5,0-.64-.61-.53-.84S3.72,21.25,4.15,21.41Z"/><path class="cls-113" d="M11.78,18.33c-.08-.65-.93-1-.93-1a9.93,9.93,0,0,0-2.94-.8A3,3,0,0,0,5.2,17.73c-.57.94-1.59,3.17-1.73,3.51a1.85,1.85,0,0,1,.49.09c1.24.35,2.26,1,3.53,1a3.7,3.7,0,0,0,0-3.51,3.37,3.37,0,0,0,3.58.32,1.38,1.38,0,0,0,.71-.78Z"/><path class="cls-54" d="M4.8,19.89A.83.83,0,0,0,5.58,19a.86.86,0,0,0-.64-.86c-.22.42-.48.94-.72,1.44A.76.76,0,0,0,4.8,19.89Z"/><path class="cls-54" d="M5.58,20.62a.53.53,0,0,1-.57.47.48.48,0,1,1,0-.94A.53.53,0,0,1,5.58,20.62Z"/><path class="cls-54" d="M6.69,20.87a.48.48,0,1,1-.48-.47A.47.47,0,0,1,6.69,20.87Z"/><path class="cls-54" d="M6.86,19.55a.53.53,0,0,1-1.06,0,.53.53,0,0,1,1.06,0Z"/><ellipse class="cls-54" cx="6.12" cy="18.47" rx="0.44" ry="0.31"/><path class="cls-114" d="M10.39,17.12c-2.48-1.08-3.84-.75-4.71.1s-1.29,2.33-1.87,3.35c-.49.86,1.16.8,1.61-.06s.54-2,1.11-2.67S8.36,16.74,10.39,17.12Z"/><path class="cls-41" d="M7.2,24.68H7a9.52,9.52,0,0,1-1.19-.11c-.27,0-.57-.08-1-.12h0c-.92-.49-1.44-.92-1.59-1.31a1.75,1.75,0,0,1-.41-1.32.86.86,0,0,1,.68-.57,37.14,37.14,0,0,1,1.73-3.53,3,3,0,0,1,2.6-1.27h.14a9.92,9.92,0,0,1,2.95.8s.87.42,1,1.07a1.57,1.57,0,0,1-1.31,1.53,3,3,0,0,1-.46,0,7.9,7.9,0,0,1-1.88-.25A5.27,5.27,0,0,1,8,22.56a2.06,2.06,0,0,1,0,1.7A.88.88,0,0,1,7.2,24.68Zm-2.41-.3c.45,0,.75.07,1,.11A7.91,7.91,0,0,0,7,24.6H7.2A.83.83,0,0,0,8,24.23a2,2,0,0,0,0-1.65v0h0a5,5,0,0,0,.14-3l0-.08.08,0a7.52,7.52,0,0,0,1.93.27,2.9,2.9,0,0,0,.45,0,1.5,1.5,0,0,0,1.26-1.45c-.08-.62-.91-1-.92-1a10.08,10.08,0,0,0-2.92-.8H7.77a3,3,0,0,0-2.54,1.24c-.59,1-1.66,3.32-1.74,3.53v0h0a.75.75,0,0,0-.65.52,1.66,1.66,0,0,0,.41,1.26h0C3.37,23.47,3.88,23.89,4.79,24.38Z"/><path class="cls-41" d="M8,22.6a.81.81,0,0,0-.47-.27.7.7,0,0,1,.52.23Z"/><path class="cls-115" d="M3.39,23.26c-.21.22-1.17.19-1.29-.05s.44-1,.72-1S3.57,23.07,3.39,23.26Z"/><path class="cls-116" d="M3.33,23a1.61,1.61,0,0,1-1.23.17c-.12-.25.44-1,.72-1S3.51,22.85,3.33,23Z"/><path class="cls-117" d="M3.3,23c-.2.21-1.08.34-1.15.21s.45-.91.73-1S3.44,22.83,3.3,23Z"/><path class="cls-5" d="M2.07,23.23h0c-.06-.11,0-.28.07-.41.16-.29.47-.65.67-.68s.35.13.5.43.22.6.1.72a1.29,1.29,0,0,1-.9.15C2.37,23.41,2.14,23.36,2.07,23.23Zm1.18-.64c-.13-.26-.3-.41-.43-.39a1.38,1.38,0,0,0-.61.65c-.08.15-.11.28-.07.34l0,0,0,0c0,.07.18.13.38.16a1.19,1.19,0,0,0,.84-.12C3.43,23.15,3.38,22.87,3.25,22.59Z"/><path class="cls-118" d="M5,24.22c0,.3-.67,1-.93.89s-.42-1-.26-1.23S5,24,5,24.22Z"/><path class="cls-119" d="M4.82,24.11c0,.3-.59,1.05-.73,1s-.42-1-.26-1.23S4.8,23.85,4.82,24.11Z"/><path class="cls-120" d="M4.76,24.09c0,.29-.5,1-.64,1s-.36-.95-.2-1.19S4.75,23.89,4.76,24.09Z"/><path class="cls-5" d="M4.08,25.15h0c-.12,0-.2-.21-.24-.34a1.37,1.37,0,0,1,0-.95c.09-.14.34-.17.66-.07s.58.26.59.43-.25.54-.52.75C4.42,25.06,4.22,25.19,4.08,25.15Zm.36-1.29c-.28-.08-.51-.07-.58,0a1.33,1.33,0,0,0,.05.89c0,.16.13.27.2.29v0c.07,0,.21,0,.37-.17s.51-.53.5-.69S4.73,24,4.44,23.86Z"/><path class="cls-121" d="M7.06,24.41c.1.28-.37,1.12-.64,1.11s-.68-.84-.59-1.11S7,24.16,7.06,24.41Z"/><path class="cls-122" d="M6.84,24.36c.1.28-.28,1.17-.42,1.16s-.68-.84-.59-1.11S6.76,24.11,6.84,24.36Z"/><path class="cls-123" d="M6.78,24.36c.09.28-.21,1.11-.35,1.11s-.6-.82-.51-1.08S6.71,24.17,6.78,24.36Z"/><path class="cls-5" d="M6.42,25.56h0c-.13,0-.25-.14-.33-.26a1.44,1.44,0,0,1-.3-.9c0-.16.29-.25.62-.25s.63.09.69.25a1.32,1.32,0,0,1-.3.87C6.72,25.38,6.56,25.56,6.42,25.56Zm0-1.33c-.29,0-.51.07-.55.19a1.36,1.36,0,0,0,.29.84.52.52,0,0,0,.27.23v0c.08,0,.2-.1.32-.27A1.2,1.2,0,0,0,7,24.43C7,24.32,6.71,24.23,6.41,24.23Z"/><path class="cls-41" d="M8.07,19.59a2.13,2.13,0,0,0-.58-.78,1.51,1.51,0,0,1,.64.75Z"/><path class="cls-124" d="M20.68,16a1,1,0,0,1,1.05.38,7.42,7.42,0,0,1,1.32,3.71,4.44,4.44,0,0,1-2.48,4.44,1.6,1.6,0,0,1-.78-.08,1.37,1.37,0,0,1-1.15-.25,2.29,2.29,0,0,1-1.34-1.73,1.51,1.51,0,0,1,.55-1.54A4.26,4.26,0,0,1,20,20.27a9.85,9.85,0,0,1-.58-3.16C19.47,16.43,20.36,16,20.68,16Z"/><path class="cls-125" d="M22,21.85a5.77,5.77,0,0,0,.24-3.26,4.34,4.34,0,0,0-1.33-2.65.91.91,0,0,0-.2,0c-.32.06-1.21.47-1.27,1.15A9.85,9.85,0,0,0,20,20.27a4.26,4.26,0,0,0-2.14.62,1.51,1.51,0,0,0-.55,1.54,2.14,2.14,0,0,0,1,1.55C19.88,24,21.41,23.48,22,21.85Z"/><path class="cls-126" d="M22,21.85a5.77,5.77,0,0,0,.24-3.26,4.34,4.34,0,0,0-1.33-2.65.91.91,0,0,0-.2,0c-.32.06-1.21.47-1.27,1.15A9.85,9.85,0,0,0,20,20.27a4.26,4.26,0,0,0-2.14.62,1.51,1.51,0,0,0-.55,1.54,2.14,2.14,0,0,0,1,1.55C19.88,24,21.41,23.48,22,21.85Z"/><path class="cls-127" d="M19.44,17.08A11.43,11.43,0,0,0,20,20.13c.13.23.76.16.39-.69a10.23,10.23,0,0,1-.8-2.51C19.56,16.53,19.46,16.77,19.44,17.08Z"/><path class="cls-128" d="M20.51,20.44a3.16,3.16,0,0,0-2.84.72c-.53.46,0,1.83.29,1.2a3.2,3.2,0,0,1,2-1.63C20.41,20.59,21,20.67,20.51,20.44Z"/><path class="cls-129" d="M21.6,17.92a.87.87,0,0,0,.83.9.77.77,0,0,0,.39-.11,7.9,7.9,0,0,0-.64-1.65A.88.88,0,0,0,21.6,17.92Z"/><path class="cls-54" d="M21.6,17.92a.88.88,0,0,0,.64.87,4.92,4.92,0,0,0-.41-1.5A.85.85,0,0,0,21.6,17.92Z"/><path class="cls-41" d="M20.35,24.53a1.45,1.45,0,0,1-.57-.08,2.85,2.85,0,0,1-.33,0,1.17,1.17,0,0,1-.82-.29,2.32,2.32,0,0,1-1.36-1.76,1.56,1.56,0,0,1,.56-1.57,4.25,4.25,0,0,1,2.1-.62,10.89,10.89,0,0,1-.56-3.13c.07-.68.95-1.11,1.3-1.18a1.27,1.27,0,0,1,.24,0,1,1,0,0,1,.84.41,7.57,7.57,0,0,1,1.34,3.74,4.49,4.49,0,0,1-2.5,4.47h-.24Zm-.56-.16h0a1.3,1.3,0,0,0,.55.08h.21A4.4,4.4,0,0,0,23,20.05a7.51,7.51,0,0,0-1.32-3.69,1,1,0,0,0-.79-.39.76.76,0,0,0-.22,0h0c-.34.06-1.19.47-1.25,1.11A9.66,9.66,0,0,0,20,20.25l0,.06h-.14a4.2,4.2,0,0,0-2.05.61,1.46,1.46,0,0,0-.54,1.5,2.28,2.28,0,0,0,1.33,1.71h0a1.09,1.09,0,0,0,.78.28,1.74,1.74,0,0,0,.33,0Z"/><path class="cls-41" d="M20.88,20.61a2.41,2.41,0,0,0-.92-.3v-.07A1.91,1.91,0,0,1,20.88,20.61Z"/><path class="cls-54" d="M21.46,18.3a.36.36,0,0,1-.35.36.35.35,0,0,1-.35-.36.36.36,0,0,1,.35-.37A.37.37,0,0,1,21.46,18.3Z"/><path class="cls-54" d="M21.6,17a.47.47,0,1,1-.47-.41A.44.44,0,0,1,21.6,17Z"/><path class="cls-54" d="M22.19,19.45a.55.55,0,0,1-1.08,0,.55.55,0,0,1,1.08,0Z"/><path class="cls-129" d="M22.89,19.42a.24.24,0,1,1-.24-.29A.27.27,0,0,1,22.89,19.42Z"/><path class="cls-41" d="M4.15,21.4a2.56,2.56,0,0,0-.69-.09v-.07A1.7,1.7,0,0,1,4.15,21.4Z"/><path class="cls-130" d="M17.56,22.8c-.27.14-1.17-.2-1.2-.47s.73-.8,1-.75S17.79,22.67,17.56,22.8Z"/><path class="cls-131" d="M17.57,22.57c-.26.14-1.19-.09-1.21-.24s.73-.8,1-.75S17.81,22.45,17.57,22.57Z"/><path class="cls-132" d="M17.57,22.5c-.27.14-1.14,0-1.16-.16s.72-.73,1-.68S17.75,22.41,17.57,22.5Z"/><path class="cls-5" d="M16.32,22.34h0c0-.13.1-.27.2-.37a1.43,1.43,0,0,1,.86-.43c.16,0,.29.24.33.57s0,.64-.14.72a1.31,1.31,0,0,1-.9-.16C16.55,22.61,16.34,22.48,16.32,22.34Zm1.32-.22c0-.29-.15-.49-.28-.51a1.41,1.41,0,0,0-.78.41.54.54,0,0,0-.19.31h0c0,.08.12.18.3.27a1.2,1.2,0,0,0,.84.16C17.64,22.71,17.68,22.42,17.64,22.12Z"/><path class="cls-133" d="M18.8,24.19c-.11.27-1,.62-1.21.44s0-1.09.26-1.24S18.89,23.94,18.8,24.19Z"/><path class="cls-134" d="M18.66,24c-.1.28-1,.71-1.07.62s0-1.09.26-1.24S18.76,23.76,18.66,24Z"/><path class="cls-135" d="M18.61,24c-.1.28-.87.73-1,.64s.06-1,.31-1.16S18.69,23.77,18.61,24Z"/><path class="cls-5" d="M17.57,24.66h0a.52.52,0,0,1-.09-.41,1.47,1.47,0,0,1,.35-.89c.15-.09.38,0,.63.21s.43.47.37.63-.45.39-.78.48C17.92,24.71,17.68,24.75,17.57,24.66Zm.85-1c-.23-.19-.44-.27-.55-.21a1.44,1.44,0,0,0-.32.83c0,.18,0,.3.07.35l0,0,0,0c.06,0,.21,0,.41,0a1.15,1.15,0,0,0,.73-.43C18.8,24.07,18.65,23.82,18.42,23.63Z"/><path class="cls-136" d="M20.55,24.37c.11.27-.33,1.13-.6,1.13s-.71-.83-.63-1.1S20.46,24.12,20.55,24.37Z"/><path class="cls-137" d="M20.33,24.32A1.62,1.62,0,0,1,20,25.5c-.28,0-.71-.83-.63-1.1S20.24,24.08,20.33,24.32Z"/><path class="cls-138" d="M20.26,24.32c.11.28-.16,1.12-.3,1.13s-.63-.8-.55-1.07S20.19,24.13,20.26,24.32Z"/><path class="cls-5" d="M20,25.54h0c-.13,0-.26-.14-.34-.25a1.45,1.45,0,0,1-.33-.9c0-.16.28-.26.61-.26s.64.07.7.22a1.29,1.29,0,0,1-.27.88C20.24,25.34,20.09,25.53,20,25.54Zm-.06-1.34c-.29,0-.5.09-.53.21a1.28,1.28,0,0,0,.31.83c.1.14.2.22.28.22v0c.08,0,.19-.1.31-.27a1.29,1.29,0,0,0,.26-.81C20.48,24.28,20.2,24.2,19.89,24.2Z"/><path class="cls-139" d="M13.67,9.28c.3,0,.84-.82.72-1.06s-1.06-.24-1.27,0S13.41,9.31,13.67,9.28Z"/><path class="cls-140" d="M13.53,9.11c.3,0,.92-.77.86-.89s-1.06-.24-1.27,0S13.27,9.14,13.53,9.11Z"/><path class="cls-141" d="M13.5,9.05c.29,0,.91-.67.85-.8s-1-.18-1.2,0S13.3,9.08,13.5,9.05Z"/><path class="cls-5" d="M14.33,8.67c-.16.3-.45.62-.65.65s-.39-.24-.53-.51-.17-.54-.05-.66A1.44,1.44,0,0,1,14,8c.14,0,.32.08.38.19h0C14.49,8.33,14.39,8.55,14.33,8.67Zm-.66.57c.15,0,.42-.29.59-.6a.59.59,0,0,0,.1-.41h0c0-.06-.15-.11-.32-.14a1.42,1.42,0,0,0-.88.11c-.09.09-.06.32.07.58S13.56,9.26,13.67,9.24Z"/><path class="cls-142" d="M2.51,21c-.06.29-.87.8-1.11.66s-.18-1.07,0-1.26S2.55,20.76,2.51,21Z"/><path class="cls-143" d="M2.34,20.87c0,.29-.81.88-.94.81s-.18-1.07,0-1.26S2.38,20.61,2.34,20.87Z"/><path class="cls-144" d="M2.28,20.83c0,.29-.72.88-.84.81s-.13-1,.08-1.2S2.32,20.63,2.28,20.83Z"/><path class="cls-5" d="M1.39,21.71h0c-.11-.06-.15-.24-.17-.39a1.43,1.43,0,0,1,.18-.93c.13-.12.37-.08.66.08s.51.39.48.55-.37.47-.68.62C1.74,21.7,1.51,21.78,1.39,21.71ZM2,20.54c-.25-.15-.47-.18-.56-.1a1.35,1.35,0,0,0-.16.88.45.45,0,0,0,.12.33v0a.54.54,0,0,0,.41-.08c.32-.15.61-.4.64-.56S2.29,20.69,2,20.54Z"/><path class="cls-145" d="M1.34,19.56c-.18.23-1.14.27-1.28,0s.37-1,.64-1.09S1.51,19.36,1.34,19.56Z"/><path class="cls-146" d="M1.27,19.35a1.64,1.64,0,0,1-1.21.25c-.14-.24.37-1,.64-1.09S1.44,19.15,1.27,19.35Z"/><path class="cls-147" d="M1.24,19.29c-.19.23-1.06.41-1.13.29s.38-.94.66-1S1.37,19.14,1.24,19.29Z"/><path class="cls-5" d="M0,19.62H0a.53.53,0,0,1,.05-.42c.13-.3.41-.68.62-.73s.36.11.53.4.25.59.14.72a1.27,1.27,0,0,1-.89.2C.34,19.78.1,19.74,0,19.62Zm1.13-.71c-.15-.25-.32-.39-.45-.36s-.43.37-.57.68a.54.54,0,0,0-.05.35l0,0,0,0c0,.07.19.12.39.13a1.18,1.18,0,0,0,.83-.17C1.39,19.45,1.32,19.17,1.16,18.91Z"/><path class="cls-148" d="M24.88,3.25A3.19,3.19,0,0,0,21.69.61c-.67-.5-1.38-1.26-2.43.71-.48.35-1.22,1-1.32,1s-1.19-.53-1.32,1a20.61,20.61,0,0,0-.17,4.09c.13.81-.09,1.38.16,2a1.58,1.58,0,0,0,1.55.88,6,6,0,0,1,2,.57,4.81,4.81,0,0,0,2.92.66,2.8,2.8,0,0,0,2.5-3A4,4,0,0,0,24.88,3.25Z"/><path class="cls-149" d="M25.5,4.34a1.28,1.28,0,0,1-.36.39,4.23,4.23,0,0,0,.26-.81,4.34,4.34,0,0,0-.52-.67A3.19,3.19,0,0,0,21.69.61c-.67-.5-1.38-1.26-2.43.71-.48.35-1.22,1-1.32,1s-1.19-.53-1.32,1a15.11,15.11,0,0,0,0,4c0,.68-.23,1.51,0,2,.89,1.39,2.18.25,2.52.78,0,0-.2.07-.16.07.64.11,2.71.93,3.89.6a3,3,0,0,0,2.37-3.11A2.92,2.92,0,0,0,25.5,4.34Z"/><path class="cls-150" d="M16.63,3.22c.06-.42.18-.79.41-.89s.53-.2,1.32.15a1,1,0,0,1-.43,1.17C17.4,3.92,16.6,3.68,16.63,3.22Z"/><path class="cls-151" d="M17.74,2.44c.1.16,0,.41-.26.57s-.53.16-.64,0a.49.49,0,0,1,.24-.61A.5.5,0,0,1,17.74,2.44Z"/><path class="cls-152" d="M21.72.67c-.4-.32-.8-.7-1.31-.58s-1.22,1.15-1.39,2A5.18,5.18,0,0,1,21.72.67Z"/><path class="cls-153" d="M19.39,1.35A1.82,1.82,0,0,1,20.47.13c.27-.06.81.07,1.49.78C20.92.26,20.08.18,19.39,1.35Z"/><path class="cls-154" d="M21.71,8.46c-1.4-.18-1.76,1.79-3.56,1.76a1.49,1.49,0,0,1-1.59-1,5.9,5.9,0,0,1-.09-1.45,7,7,0,0,0,4-.1A4.45,4.45,0,0,0,21.71,8.46Z"/><path class="cls-155" d="M18.77,9.69a1.65,1.65,0,0,1-2.19-1A1.3,1.3,0,0,0,18.77,9.69Z"/><path class="cls-156" d="M20.89,7.89a2.39,2.39,0,0,1-.32-.31,5.76,5.76,0,0,1-3.64.29c-.23.72-.18,1.35.46,1.72s1.7-.41,2.28-.92a1.85,1.85,0,0,1,1.67-.49A2.78,2.78,0,0,1,20.89,7.89Z"/><path class="cls-157" d="M23.45,1.07l-.08.08a.32.32,0,0,0,.15.43A.33.33,0,0,0,24,1.51h0A2.41,2.41,0,0,0,23.45,1.07Z"/><path class="cls-157" d="M22.55.68a3.19,3.19,0,0,0-.78-.07.25.25,0,0,0,0,.09c0,.12.15.34.32.38a.49.49,0,0,0,.51-.29A.2.2,0,0,0,22.55.68Z"/><path class="cls-41" d="M17.18,10h0a1.44,1.44,0,0,1-.6-.67,2.31,2.31,0,0,1-.13-1,4.2,4.2,0,0,0,0-.92,14,14,0,0,1,.09-3.17c0-.31.06-.63.08-.94A1.2,1.2,0,0,1,17,2.33a1,1,0,0,1,.85-.07l.08,0a6.19,6.19,0,0,0,.65-.48l.65-.51C19.63.55,20,.14,20.39,0a1,1,0,0,1,.78.15c.13.08.27.19.39.28l.14.11a3,3,0,0,1,1.67.4,3.78,3.78,0,0,1,1.55,2.26,4,4,0,0,1,1.31,3.62,4.21,4.21,0,0,1-.64,1.67,2.48,2.48,0,0,1-.69,2,3.39,3.39,0,0,1-1.85,1,4.92,4.92,0,0,1-2.94-.66,5.64,5.64,0,0,0-1.95-.57A1.7,1.7,0,0,1,17.18,10ZM21.13.25A.89.89,0,0,0,20.42.1c-.37.1-.74.51-1.12,1.23h0l-.65.51a3.37,3.37,0,0,1-.69.5l-.11,0a.93.93,0,0,0-.79.05,1.19,1.19,0,0,0-.38.9c0,.31-.06.63-.08.94a13.8,13.8,0,0,0-.09,3.15,4.34,4.34,0,0,1,0,.93,2.32,2.32,0,0,0,.12,1,1.46,1.46,0,0,0,.57.64h0a1.64,1.64,0,0,0,.94.22,6,6,0,0,1,2,.58,4.83,4.83,0,0,0,2.89.65,2.77,2.77,0,0,0,2.47-2.91v0h0a4.28,4.28,0,0,0,.64-1.64,4,4,0,0,0-1.31-3.57h0A3.71,3.71,0,0,0,23.33,1,2.87,2.87,0,0,0,21.69.65h0L21.52.52C21.39.43,21.26.33,21.13.25Z"/><path class="cls-158" d="M20.89,7.89a2.39,2.39,0,0,1-.32-.31A6.86,6.86,0,0,1,18.71,8a.73.73,0,0,1,.35,1.13c.2-.14.46-.35.61-.48a1.85,1.85,0,0,1,1.67-.49A2.78,2.78,0,0,1,20.89,7.89Z"/><path class="cls-159" d="M17,9.25A1.45,1.45,0,0,1,18,8a4.13,4.13,0,0,1-1.11-.16A1.53,1.53,0,0,0,17,9.25Z"/><path class="cls-160" d="M18.21,8.65c-.52-.55-1.14,0-1.38.2a1.07,1.07,0,0,0,.56.74c.48.27,1.16-.07,1.72-.48A.72.72,0,0,0,18.21,8.65Z"/><path class="cls-161" d="M17.85,8.84c.21-.49-.55-.47-1,.12a.82.82,0,0,0,.51.63,1.13,1.13,0,0,0,1.41-.51C18.88,8.75,18.31,8.52,17.85,8.84Z"/><path class="cls-162" d="M17.88,8.86c.07-.23,0-.39-.19-.38A.82.82,0,0,0,16.9,9a.79.79,0,0,0,.42.47C17.42,9.49,17.63,9.07,17.88,8.86Z"/><path class="cls-163" d="M18.74,8.9a.74.74,0,0,0-.95,0c-.27.21-.55.58-.39.66a1.05,1.05,0,0,0,1-.1C18.66,9.28,18.83,9,18.74,8.9Z"/><path class="cls-164" d="M17.33,9.6h0a1.15,1.15,0,0,1-.54-.74v0c.21-.2.74-.65,1.24-.35a1.1,1.1,0,0,1,.18.14.81.81,0,0,1,.61.08.79.79,0,0,1,.32.41v0h0c-.76.55-1.36.71-1.77.48Zm-.46-.74a1,1,0,0,0,.5.67h0l0,0c.38.22.93.06,1.66-.45a.77.77,0,0,0-.28-.35.75.75,0,0,0-.57-.06h0l0,0A.73.73,0,0,0,18,8.54C17.56,8.27,17.08,8.66,16.87,8.86Z"/><path class="cls-164" d="M18.33,8.59v.08a1.34,1.34,0,0,0-.58.26A.91.91,0,0,1,18.33,8.59Z"/><path class="cls-41" d="M17.33,9.6c-.56-.34-.7-.91-.44-1.74v0h0a5.72,5.72,0,0,0,3.61-.28h0l0,0a3.45,3.45,0,0,0,.3.31,2.4,2.4,0,0,0,.29.19l.16.09h0l0,.07h0a1.82,1.82,0,0,0-1.62.48c-1,.89-1.83,1.21-2.33.92ZM17,7.92c-.23.78-.09,1.3.42,1.61l0,0c.47.27,1.24-.05,2.23-.91a2.22,2.22,0,0,1,1.45-.56l-.23-.16a3,3,0,0,1-.31-.31A6,6,0,0,1,17,7.92Z"/><path class="cls-165" d="M25.14,4.74s.65-1.5-.19-2.34c-1-1-2.39-.06-2.39-.06Z"/><path class="cls-166" d="M25,2.4a1.88,1.88,0,0,0-2.37-.1c-.69.46-2.72,1.83-1.82,2.83a3,3,0,0,0,4.37-.4A2.05,2.05,0,0,0,25,2.4Z"/><path class="cls-167" d="M22.15,2.58a2.26,2.26,0,0,1,2.65-.23c.49.35.78,1.17.23,2.57C25.13,2.72,24,2,22.15,2.58Z"/><path class="cls-168" d="M23.09,3c-.66-.33-1.66.82-2.09,1.64-.65,1.21,0,1.88.74,2a2.69,2.69,0,0,1,1.17.5C24.29,5.52,24.56,3.73,23.09,3Z"/><path class="cls-169" d="M23,3.56c-.69-.25-1.52.38-1.95,1.2-.65,1.24,0,1.78.67,2a1.52,1.52,0,0,0,1.8-1.13C23.8,4.78,23.6,3.79,23,3.56Z"/><path class="cls-170" d="M23,3.56c-.69-.25-1.52.38-1.95,1.2-.65,1.24,0,1.78.67,2a1.52,1.52,0,0,0,1.8-1.13C23.8,4.78,23.6,3.79,23,3.56Z"/><path class="cls-171" d="M23.08,4.16a.27.27,0,1,1,0-.38A.27.27,0,0,1,23.08,4.16Z"/><path class="cls-172" d="M22.89,4.37a1.19,1.19,0,0,0-1.39.72c-.32.59-.22,1.24.23,1.45a1.2,1.2,0,0,0,1.39-.71C23.44,5.23,23.34,4.58,22.89,4.37Z"/><path d="M22.64,4.86a.77.77,0,0,0-.92.45.69.69,0,0,0,.17,1,.74.74,0,0,0,.91-.45A.68.68,0,0,0,22.64,4.86Z"/><path class="cls-173" d="M22.86,5.49a.21.21,0,0,1-.33-.25.21.21,0,1,1,.33.25Z"/><path class="cls-174" d="M22.4,4.44c-.31.06-.53.25-.5.43s.29.28.6.22.52-.25.49-.43S22.7,4.39,22.4,4.44Z"/><path d="M23,3.42c-.73-.27-1.61.55-2,1.33a1.61,1.61,0,0,0-.2,1.32,1.37,1.37,0,0,0,.88.74c.69.25,1.49-.2,1.86-1.23S23.63,3.64,23,3.42ZM21.68,6.77a1.32,1.32,0,0,1-.85-.71A1.54,1.54,0,0,1,21,4.77C21.43,4,22.24,3.32,23,3.58s.84,1.16.51,2.07A1.51,1.51,0,0,1,21.68,6.77Z"/><path class="cls-175" d="M20.55,6.72l2.51.68A1.8,1.8,0,0,0,20.55,6.72Z"/><path class="cls-176" d="M23.14,7.66c-.07.27-.52.74-1.56.48S20.28,7.22,20.35,7s.86-.59,1.56-.41S23.21,7.39,23.14,7.66Z"/><path class="cls-177" d="M22.86,7.45c-.07.28-.6.39-1.2.25s-1-.5-.95-.78.6-.46,1.2-.31S22.93,7.17,22.86,7.45Z"/><path class="cls-41" d="M21.94,6.49a1.89,1.89,0,0,0-1.45.26,2.07,2.07,0,0,1,1.43-.2,2,2,0,0,1,1.14.85A1.78,1.78,0,0,0,21.94,6.49Z"/><path class="cls-178" d="M20.41,1.13C20,.69,19,1,18.48,1.49a1.07,1.07,0,0,0-.06,1.59c.4.43.75.73,1.45-.12C20.34,2.39,20.63,1.36,20.41,1.13Z"/><path class="cls-169" d="M19.83,1.26c-.47-.35-1.26-.06-1.78.48-.79.8-.43,1.37,0,1.72A1.24,1.24,0,0,0,19.75,3C20.19,2.4,20.27,1.59,19.83,1.26Z"/><path class="cls-179" d="M19.83,1.26c-.47-.35-1.26-.06-1.78.48-.79.8-.43,1.37,0,1.72A1.24,1.24,0,0,0,19.75,3C20.19,2.4,20.27,1.59,19.83,1.26Z"/><path class="cls-180" d="M19.57,1.59a.22.22,0,1,1-.25-.35.21.21,0,0,1,.3,0A.22.22,0,0,1,19.57,1.59Z"/><path class="cls-181" d="M19.49,1.68a1,1,0,0,0-1.24.23c-.39.38-.46.91-.16,1.17a1,1,0,0,0,1.24-.23C19.72,2.47,19.79,1.94,19.49,1.68Z"/><path d="M19.18,2a.63.63,0,0,0-.81.14c-.25.26-.29.61-.09.78a.61.61,0,0,0,.81-.13A.56.56,0,0,0,19.18,2Z"/><path class="cls-182" d="M19.23,2.52a.21.21,0,1,1-.33-.25.21.21,0,0,1,.29,0A.2.2,0,0,1,19.23,2.52Z"/><path class="cls-183" d="M19.09,1.62c-.24,0-.46.07-.48.21s.16.28.41.31.46-.07.48-.21S19.34,1.64,19.09,1.62Z"/><path d="M19.9,1.16c-.5-.37-1.36.05-1.87.56a1.32,1.32,0,0,0-.46,1,1.07,1.07,0,0,0,.51.78c.47.35,1.2.2,1.72-.51S20.33,1.48,19.9,1.16ZM18.1,3.44a1.1,1.1,0,0,1-.5-.75,1.26,1.26,0,0,1,.46-.94c.49-.5,1.27-.84,1.76-.48s.38,1.1-.09,1.72A1.21,1.21,0,0,1,18.1,3.44Z"/><path class="cls-184" d="M20.49,1A9.74,9.74,0,0,0,18,3a2.19,2.19,0,0,0-2.38.63c-.21-.17-.61.07-.63.86,0,.44-.7,1.76.21,2.53a5.15,5.15,0,0,0,5.3.55Z"/><path class="cls-185" d="M18.05,3a2.2,2.2,0,0,0-2.37.63c-.22-.16-.61.08-.64.87a4.48,4.48,0,0,0-.19,1.9,3.36,3.36,0,0,0,1.73,1.14,8.17,8.17,0,0,0,4,0l.3-5.69L20.49,1A10,10,0,0,0,18.05,3Z"/><path class="cls-186" d="M18.09,3a2.25,2.25,0,0,0-2.41.61c-.22-.16-.61.07-.63.87a4.37,4.37,0,0,0-.17,1.9A3.47,3.47,0,0,0,16.7,7.49c2.11.6,3.62,0,4-.5l.07-5.41L20.55,1A10.81,10.81,0,0,0,18.09,3Z"/><path class="cls-187" d="M18.92,3.8a2.13,2.13,0,0,0-3.06.09c-.29.31.41.72,1,.2A1.74,1.74,0,0,1,18.92,3.8Z"/><path class="cls-188" d="M24.4,2.06A3,3,0,0,0,22.26.66C20.88.47,19.14,1.83,18,3c.76.19,1.94,2.09,3,.62C21.75,2.69,23.19,1.65,24.4,2.06Z"/><path class="cls-189" d="M23.85,1.41C22-.21,19.93,1.08,18.47,2.67c-.38.4.52.7,1,.17C20.81,1.14,22.4.63,23.85,1.41Z"/><path class="cls-41" d="M15.72,7.42a3.87,3.87,0,0,1-.51-.36,2,2,0,0,1-.31-2.14A4.12,4.12,0,0,0,15,4.5a1,1,0,0,1,.39-.92.32.32,0,0,1,.27,0A2.26,2.26,0,0,1,18,3a8,8,0,0,1,1.42-1.31,5.58,5.58,0,0,1,1-.62,10.7,10.7,0,0,0-2.42,2l0,0h0a2.18,2.18,0,0,0-2.33.62l0,0,0,0a.2.2,0,0,0-.22,0c-.16.08-.34.34-.36.86a2.06,2.06,0,0,1-.09.43c-.15.59-.39,1.48.29,2.06a5.06,5.06,0,0,0,5.27.55l0,.07A6,6,0,0,1,17.28,8,4.72,4.72,0,0,1,15.72,7.42Z"/><path class="cls-190" d="M15.49,3.89s-.14.11-.21.3-.09.37,0,.38.19-.23.22-.3S15.53,3.89,15.49,3.89Z"/><path class="cls-191" d="M15.28,4.19c-.07.18-.09.37,0,.38s.22-.31.22-.31C15.24,4.56,15.28,4.19,15.28,4.19Z"/><path class="cls-41" d="M15.25,4.6h0c-.13-.08,0-.35,0-.43a.59.59,0,0,1,.23-.32h0c.08,0,.09.29,0,.42s-.14.35-.26.33Zm.23-.66a.67.67,0,0,0-.16.26c-.07.18-.07.31,0,.33h0s.12-.08.18-.27A.57.57,0,0,0,15.48,3.94Z"/><path class="cls-190" d="M17.63,5.42c-.16-.37-.87.14-.85.23a.58.58,0,0,0,.51.18C17.48,5.79,17.71,5.6,17.63,5.42Z"/><path class="cls-191" d="M17.63,5.42v0c-.07.27-.51.4-.83.28a.66.66,0,0,0,.5.15C17.48,5.79,17.71,5.6,17.63,5.42Z"/><path class="cls-41" d="M16.87,5.78h0s-.12-.08-.13-.12.11-.17.18-.22.48-.26.65-.16a.29.29,0,0,1,.1.12.22.22,0,0,1,0,.21.57.57,0,0,1-.37.26A.6.6,0,0,1,16.87,5.78Zm-.05-.14.09.07a.49.49,0,0,0,.37.08.46.46,0,0,0,.31-.21.16.16,0,0,0,0-.15.27.27,0,0,0-.07-.08.42.42,0,0,0-.34,0A.9.9,0,0,0,16.82,5.64Z"/><path class="cls-157" d="M22.92,1.17c-.07,0-.43.06-.48.23s.16.29.34.32a.42.42,0,0,0,.43-.2C23.23,1.45,23.06,1.2,22.92,1.17Z"/><path class="cls-157" d="M21.61,1.19a.23.23,0,0,0-.29.12.22.22,0,0,0,0,.31.23.23,0,0,0,.29-.12A.23.23,0,0,0,21.61,1.19Z"/><path class="cls-157" d="M22.25,1.58a.63.63,0,0,0-.48.16c0,.1.1.26.14.29s.29,0,.33-.08S22.32,1.63,22.25,1.58Z"/><path class="cls-157" d="M21.54,1.94a.69.69,0,0,0-.36,0,.49.49,0,0,0-.06.29c0,.06.24.18.29.13S21.6,2,21.54,1.94Z"/><path class="cls-192" d="M24.81,9.2c-.16,0-.63.63-.38.82s.56-.08.66-.24S24.94,9.19,24.81,9.2Z"/><path class="cls-193" d="M24.81,9.2c-.15,0-.56.52-.43.75a2.75,2.75,0,0,0,.54-.68A.2.2,0,0,0,24.81,9.2Z"/><path class="cls-193" d="M23.65,9.34c-.09,0-.55.18-.56.3a1,1,0,0,0,.32.56c.12.07.5-.17.54-.31S23.83,9.4,23.65,9.34Z"/><path class="cls-193" d="M23.37,8.76s-.31.09-.39.21.19.23.24.21S23.45,8.83,23.37,8.76Z"/><path class="cls-193" d="M22.77,9.69c-.05,0-.37.38-.32.49s.37.07.41,0S22.86,9.71,22.77,9.69Z"/><path class="cls-192" d="M23.07,10.44a.52.52,0,0,0-.38.26.24.24,0,0,0,.13.28c.07,0,.3-.09.36-.2S23.13,10.47,23.07,10.44Z"/><path class="cls-193" d="M23.07,10.44a.52.52,0,0,0-.38.26.18.18,0,0,0,0,.14,2.17,2.17,0,0,0,.49-.15A.42.42,0,0,0,23.07,10.44Z"/><path class="cls-192" d="M24.23,10.32a.61.61,0,0,0-.65.22c-.06.12.25.35.37.28S24.31,10.41,24.23,10.32Z"/><path class="cls-191" d="M23.9,10.32a.52.52,0,0,0-.3.19Z"/><path class="cls-41" d="M18.05,10.27v-.08a1.36,1.36,0,0,0,.42-.08l.11,0a1,1,0,0,1,.55.05,1.48,1.48,0,0,0-.53,0l-.11,0A1.38,1.38,0,0,1,18.05,10.27Z"/><path class="cls-41" d="M25.52,8.61a2.49,2.49,0,0,0-.39-.93,2,2,0,0,1,.47.92Z"/><path class="cls-41" d="M21,.85a2.12,2.12,0,0,1,.77-.28V.65A3.92,3.92,0,0,0,21,.85Z"/><path class="cls-41" d="M25.14,4.74h0c.15-.43.6-1.75-.42-2.47a2,2,0,0,0-2.16.08,1.71,1.71,0,0,1,.79-.41,1.74,1.74,0,0,1,1.42.27,1.69,1.69,0,0,1,.65,1.73A3.33,3.33,0,0,1,25.14,4.74Z"/><path class="cls-41" d="M18.73,3.57A2.51,2.51,0,0,0,17.91,3l0-.07A2.25,2.25,0,0,1,18.73,3.57Z"/><path class="cls-41" d="M21.08,8.1a1.94,1.94,0,0,1-.55-.5,1,1,0,0,1-.21-.55,1.86,1.86,0,0,0,1.44,1.22A1,1,0,0,1,21.08,8.1Z"/><path class="cls-41" d="M15.73,3.89a.25.25,0,0,0-.17-.26l0-.07C15.78,3.63,15.73,3.89,15.73,3.89Z"/></g></g></g></g></g></svg>