<svg xmlns="http://www.w3.org/2000/svg" xmlns:xlink="http://www.w3.org/1999/xlink" viewBox="0 0 22.52 26.37"><defs><style>.cls-1{fill:url(#radial-gradient);}.cls-2{fill:url(#radial-gradient-2);}.cls-3{fill:#244d16;}.cls-4{fill:url(#radial-gradient-3);}.cls-5{fill:url(#radial-gradient-4);}.cls-108,.cls-110,.cls-112,.cls-114,.cls-116,.cls-118,.cls-12,.cls-126,.cls-128,.cls-130,.cls-133,.cls-138,.cls-139,.cls-140,.cls-141,.cls-142,.cls-148,.cls-150,.cls-151,.cls-152,.cls-154,.cls-155,.cls-16,.cls-161,.cls-162,.cls-167,.cls-170,.cls-172,.cls-173,.cls-175,.cls-176,.cls-179,.cls-182,.cls-19,.cls-22,.cls-27,.cls-30,.cls-33,.cls-38,.cls-43,.cls-47,.cls-50,.cls-53,.cls-59,.cls-6,.cls-61,.cls-63,.cls-65,.cls-69,.cls-70,.cls-71,.cls-74,.cls-77,.cls-80,.cls-81,.cls-84,.cls-85,.cls-86,.cls-87,.cls-88,.cls-89,.cls-9,.cls-92,.cls-95,.cls-98{mix-blend-mode:screen;}.cls-6{fill:url(#radial-gradient-5);}.cls-7{fill:url(#radial-gradient-6);}.cls-8{fill:url(#radial-gradient-7);}.cls-9{fill:url(#radial-gradient-8);}.cls-10{fill:url(#radial-gradient-9);}.cls-11{fill:url(#radial-gradient-10);}.cls-12{fill:url(#radial-gradient-11);}.cls-13{fill:#3d0d08;}.cls-14{fill:url(#radial-gradient-12);}.cls-15{fill:url(#radial-gradient-13);}.cls-16{fill:url(#radial-gradient-14);}.cls-17{fill:url(#radial-gradient-15);}.cls-18{fill:url(#radial-gradient-16);}.cls-19{fill:url(#radial-gradient-17);}.cls-20{fill:url(#radial-gradient-18);}.cls-21{fill:url(#radial-gradient-19);}.cls-22{fill:url(#radial-gradient-20);}.cls-23{fill:#663923;}.cls-24{fill:url(#radial-gradient-21);}.cls-25{fill:url(#radial-gradient-22);}.cls-26{fill:url(#radial-gradient-23);}.cls-27{fill:url(#radial-gradient-24);}.cls-28{fill:url(#radial-gradient-25);}.cls-29{fill:url(#radial-gradient-26);}.cls-30{fill:url(#radial-gradient-27);}.cls-31{fill:url(#radial-gradient-28);}.cls-32{fill:url(#radial-gradient-29);}.cls-33{fill:url(#radial-gradient-30);}.cls-34{fill:#200908;}.cls-35{fill:url(#radial-gradient-31);}.cls-36{fill:url(#radial-gradient-32);}.cls-37{fill:url(#radial-gradient-33);}.cls-38{fill:url(#radial-gradient-34);}.cls-39{fill:#28691f;}.cls-40{fill:#2d7521;}.cls-41{fill:url(#radial-gradient-35);}.cls-42{fill:url(#radial-gradient-36);}.cls-43{fill:url(#linear-gradient);}.cls-44{fill:#d0a074;}.cls-45{fill:url(#radial-gradient-37);}.cls-46{fill:url(#radial-gradient-38);}.cls-47{fill:url(#linear-gradient-2);}.cls-48{fill:url(#radial-gradient-39);}.cls-49{fill:url(#radial-gradient-40);}.cls-50{fill:url(#radial-gradient-41);}.cls-51{fill:url(#radial-gradient-42);}.cls-52{fill:url(#radial-gradient-43);}.cls-53{fill:url(#linear-gradient-3);}.cls-54{fill:url(#radial-gradient-44);}.cls-55{fill:url(#radial-gradient-45);}.cls-56{fill:url(#radial-gradient-46);}.cls-57{fill:url(#radial-gradient-47);}.cls-58{fill:url(#radial-gradient-48);}.cls-59{fill:url(#linear-gradient-4);}.cls-60{fill:url(#radial-gradient-49);}.cls-61{fill:url(#linear-gradient-5);}.cls-62{fill:url(#radial-gradient-50);}.cls-63{fill:url(#linear-gradient-6);}.cls-64{fill:url(#radial-gradient-51);}.cls-65{fill:url(#linear-gradient-7);}.cls-66{fill:#995b12;}.cls-67{fill:url(#radial-gradient-52);}.cls-68{fill:url(#radial-gradient-53);}.cls-69{fill:url(#linear-gradient-8);}.cls-70{fill:url(#radial-gradient-54);}.cls-71{fill:url(#linear-gradient-9);}.cls-72{fill:url(#radial-gradient-55);}.cls-73{fill:url(#radial-gradient-56);}.cls-74{fill:url(#linear-gradient-10);}.cls-75{fill:url(#radial-gradient-57);}.cls-76{fill:url(#radial-gradient-58);}.cls-77{fill:url(#linear-gradient-11);}.cls-78{fill:url(#radial-gradient-59);}.cls-79{fill:url(#radial-gradient-60);}.cls-80{fill:url(#linear-gradient-12);}.cls-81{fill:url(#linear-gradient-13);}.cls-82{fill:url(#radial-gradient-61);}.cls-83{fill:url(#radial-gradient-62);}.cls-84{fill:url(#radial-gradient-63);}.cls-85{fill:url(#linear-gradient-14);}.cls-86{fill:url(#radial-gradient-64);}.cls-87{fill:url(#linear-gradient-15);}.cls-88{fill:url(#radial-gradient-65);}.cls-89{fill:url(#linear-gradient-16);}.cls-90{fill:url(#radial-gradient-66);}.cls-91{fill:url(#radial-gradient-67);}.cls-92{fill:url(#linear-gradient-17);}.cls-93{fill:url(#radial-gradient-68);}.cls-94{fill:url(#radial-gradient-69);}.cls-95{fill:url(#linear-gradient-18);}.cls-96{fill:url(#radial-gradient-70);}.cls-97{fill:url(#radial-gradient-71);}.cls-98{fill:url(#linear-gradient-19);}.cls-99{fill:url(#radial-gradient-72);}.cls-100{fill:url(#radial-gradient-73);}.cls-101{fill:url(#radial-gradient-74);}.cls-102{fill:url(#radial-gradient-75);}.cls-103{fill:url(#radial-gradient-76);}.cls-104{fill:url(#radial-gradient-77);}.cls-105{fill:url(#radial-gradient-78);}.cls-106{fill:url(#radial-gradient-79);}.cls-107{fill:url(#radial-gradient-80);}.cls-108{fill:url(#radial-gradient-81);}.cls-109{fill:url(#radial-gradient-82);}.cls-110{fill:url(#radial-gradient-83);}.cls-111{fill:url(#radial-gradient-84);}.cls-112{fill:url(#radial-gradient-85);}.cls-113{fill:url(#radial-gradient-86);}.cls-114{fill:url(#radial-gradient-87);}.cls-115{fill:url(#radial-gradient-88);}.cls-116{fill:url(#radial-gradient-89);}.cls-117{fill:url(#radial-gradient-90);}.cls-118{fill:url(#radial-gradient-91);}.cls-119{fill:#682d0f;}.cls-120{fill:url(#radial-gradient-92);}.cls-121{fill:url(#radial-gradient-93);}.cls-122{fill:url(#radial-gradient-94);}.cls-123{fill:url(#radial-gradient-95);}.cls-124{fill:url(#radial-gradient-96);}.cls-125{fill:url(#radial-gradient-97);}.cls-126{fill:url(#radial-gradient-98);}.cls-127{fill:url(#radial-gradient-99);}.cls-128{fill:url(#radial-gradient-100);}.cls-129{fill:url(#radial-gradient-101);}.cls-130{fill:url(#radial-gradient-102);}.cls-131{fill:url(#radial-gradient-103);}.cls-132{fill:url(#radial-gradient-104);}.cls-133{fill:url(#radial-gradient-105);}.cls-134{fill:url(#radial-gradient-106);}.cls-135{fill:url(#radial-gradient-107);}.cls-136{fill:url(#radial-gradient-108);}.cls-137{fill:url(#radial-gradient-109);}.cls-138{fill:url(#radial-gradient-110);}.cls-139{fill:url(#linear-gradient-20);}.cls-140{fill:url(#radial-gradient-111);}.cls-141{fill:url(#radial-gradient-112);}.cls-142{fill:url(#linear-gradient-21);}.cls-143{fill:url(#radial-gradient-113);}.cls-144{fill:#358423;}.cls-145{fill:#25621e;}.cls-146,.cls-168{mix-blend-mode:multiply;}.cls-146{fill:url(#radial-gradient-114);}.cls-147{fill:url(#radial-gradient-115);}.cls-148,.cls-170{opacity:0.6;}.cls-148{fill:url(#radial-gradient-116);}.cls-149{fill:url(#radial-gradient-117);}.cls-150,.cls-172{opacity:0.5;}.cls-150{fill:url(#radial-gradient-118);}.cls-151{fill:url(#linear-gradient-22);}.cls-152{fill:url(#radial-gradient-120);}.cls-153{fill:url(#radial-gradient-121);}.cls-154{fill:url(#radial-gradient-122);}.cls-155{fill:url(#linear-gradient-23);}.cls-156{fill:url(#radial-gradient-123);}.cls-157{fill:url(#radial-gradient-124);}.cls-158{fill:url(#radial-gradient-125);}.cls-159{fill:url(#linear-gradient-24);}.cls-160{fill:url(#linear-gradient-25);}.cls-161{fill:url(#radial-gradient-126);}.cls-162{fill:url(#radial-gradient-127);}.cls-163{fill:#df4a4b;}.cls-164{fill:#14511b;}.cls-165{fill:#307a22;}.cls-166{fill:#154316;}.cls-167{fill:url(#linear-gradient-26);}.cls-168{fill:url(#radial-gradient-128);}.cls-169{fill:url(#radial-gradient-129);}.cls-170{fill:url(#radial-gradient-130);}.cls-171{fill:url(#radial-gradient-131);}.cls-172{fill:url(#radial-gradient-132);}.cls-173{fill:url(#linear-gradient-27);}.cls-174{fill:url(#radial-gradient-133);}.cls-175{fill:url(#radial-gradient-134);}.cls-176{opacity:0.8;fill:url(#linear-gradient-28);}.cls-177{fill:url(#radial-gradient-135);}.cls-178{fill:url(#radial-gradient-136);}.cls-179{fill:url(#linear-gradient-29);}.cls-180{fill:url(#radial-gradient-137);}.cls-181{fill:url(#radial-gradient-138);}.cls-182{fill:url(#linear-gradient-30);}</style><radialGradient id="radial-gradient" cx="20.14" cy="13.54" r="2.76" gradientUnits="userSpaceOnUse"><stop offset="0" stop-color="#48a528"/><stop offset="0.29" stop-color="#449e27"/><stop offset="0.7" stop-color="#398b24"/><stop offset="1" stop-color="#2e7922"/></radialGradient><radialGradient id="radial-gradient-2" cx="20.14" cy="13.54" r="2.76" gradientUnits="userSpaceOnUse"><stop offset="0" stop-color="#5bb224"/><stop offset="0.88" stop-color="#459e26"/><stop offset="1" stop-color="#429b26"/></radialGradient><radialGradient id="radial-gradient-3" cx="4.01" cy="13.2" r="2.72" gradientUnits="userSpaceOnUse"><stop offset="0" stop-color="#701709"/><stop offset="1" stop-color="#260707"/></radialGradient><radialGradient id="radial-gradient-4" cx="3.9" cy="13.18" r="1.88" gradientUnits="userSpaceOnUse"><stop offset="0" stop-color="#74300b"/><stop offset="1" stop-color="#491b07"/></radialGradient><radialGradient id="radial-gradient-5" cx="3.96" cy="13.17" r="1.59" gradientUnits="userSpaceOnUse"><stop offset="0" stop-color="#602a0c"/><stop offset="0.77"/><stop offset="1"/></radialGradient><radialGradient id="radial-gradient-6" cx="6.01" cy="11.3" r="2.39" xlink:href="#radial-gradient-3"/><radialGradient id="radial-gradient-7" cx="5.87" cy="11.3" r="1.55" xlink:href="#radial-gradient-4"/><radialGradient id="radial-gradient-8" cx="5.93" cy="11.38" r="1.47" xlink:href="#radial-gradient-5"/><radialGradient id="radial-gradient-9" cx="2.53" cy="15.55" r="2.22" xlink:href="#radial-gradient-3"/><radialGradient id="radial-gradient-10" cx="2.38" cy="15.42" r="1.78" xlink:href="#radial-gradient-4"/><radialGradient id="radial-gradient-11" cx="2.4" cy="15.51" r="1.56" xlink:href="#radial-gradient-5"/><radialGradient id="radial-gradient-12" cx="15.44" cy="9.63" r="1.97" xlink:href="#radial-gradient-3"/><radialGradient id="radial-gradient-13" cx="15.66" cy="9.63" r="1.37" xlink:href="#radial-gradient-4"/><radialGradient id="radial-gradient-14" cx="15.4" cy="9.7" r="1.37" xlink:href="#radial-gradient-5"/><radialGradient id="radial-gradient-15" cx="17.57" cy="11.61" r="1.97" xlink:href="#radial-gradient-3"/><radialGradient id="radial-gradient-16" cx="17.51" cy="11.67" r="1.46" xlink:href="#radial-gradient-4"/><radialGradient id="radial-gradient-17" cx="17.62" cy="11.7" r="1.46" xlink:href="#radial-gradient-5"/><radialGradient id="radial-gradient-18" cx="19.22" cy="14.01" r="1.57" xlink:href="#radial-gradient-3"/><radialGradient id="radial-gradient-19" cx="19.07" cy="13.98" r="1.14" xlink:href="#radial-gradient-4"/><radialGradient id="radial-gradient-20" cx="19.08" cy="14" r="1.14" xlink:href="#radial-gradient-5"/><radialGradient id="radial-gradient-21" cx="11.84" cy="10.58" r="1.5" xlink:href="#radial-gradient-3"/><radialGradient id="radial-gradient-22" cx="13.85" cy="11.2" r="2.01" xlink:href="#radial-gradient-3"/><radialGradient id="radial-gradient-23" cx="14.06" cy="11.13" r="1.49" xlink:href="#radial-gradient-4"/><radialGradient id="radial-gradient-24" cx="14" cy="11.17" r="1.49" xlink:href="#radial-gradient-5"/><radialGradient id="radial-gradient-25" cx="16.18" cy="13.59" r="2.2" xlink:href="#radial-gradient-3"/><radialGradient id="radial-gradient-26" cx="16.45" cy="13.18" r="1.69" xlink:href="#radial-gradient-4"/><radialGradient id="radial-gradient-27" cx="16.38" cy="13.29" r="1.69" xlink:href="#radial-gradient-5"/><radialGradient id="radial-gradient-28" cx="18.16" cy="15.64" r="1.81" xlink:href="#radial-gradient-3"/><radialGradient id="radial-gradient-29" cx="17.97" cy="15.56" r="1.38" xlink:href="#radial-gradient-4"/><radialGradient id="radial-gradient-30" cx="18.08" cy="15.53" r="1.38" xlink:href="#radial-gradient-5"/><radialGradient id="radial-gradient-31" cx="9.31" cy="17.09" r="5.6" gradientUnits="userSpaceOnUse"><stop offset="0" stop-color="#110d0c"/><stop offset="0.16" stop-color="#1c0d0b"/><stop offset="0.45" stop-color="#3a0d08"/><stop offset="0.61" stop-color="#4e0d06"/><stop offset="1" stop-color="#871f06"/></radialGradient><radialGradient id="radial-gradient-32" cx="15.7" cy="20.81" r="3.66" gradientUnits="userSpaceOnUse"><stop offset="0" stop-color="#48a528"/><stop offset="0.28" stop-color="#459f27"/><stop offset="0.65" stop-color="#3b8f25"/><stop offset="1" stop-color="#2e7922"/></radialGradient><radialGradient id="radial-gradient-33" cx="15.7" cy="20.81" r="3.66" xlink:href="#radial-gradient-2"/><radialGradient id="radial-gradient-34" cx="16.82" cy="21.24" r="5.23" gradientUnits="userSpaceOnUse"><stop offset="0" stop-color="#91ca1f"/><stop offset="0.14" stop-color="#6d9817"/><stop offset="0.32" stop-color="#47630f"/><stop offset="0.48" stop-color="#283809"/><stop offset="0.62" stop-color="#121904"/><stop offset="0.75" stop-color="#050701"/><stop offset="0.83"/><stop offset="1"/></radialGradient><radialGradient id="radial-gradient-35" cx="9798.6" cy="-3371.53" r="1.01" gradientTransform="matrix(0.63, -0.78, 0.78, 0.63, -3479.56, 9776.05)" gradientUnits="userSpaceOnUse"><stop offset="0" stop-color="#f2e6d5"/><stop offset="1" stop-color="#e4c097"/></radialGradient><radialGradient id="radial-gradient-36" cx="9798.6" cy="-3371.53" r="1.01" gradientTransform="matrix(0.63, -0.78, 0.78, 0.63, -3479.56, 9776.05)" gradientUnits="userSpaceOnUse"><stop offset="0" stop-color="#f4ede0"/><stop offset="0.36" stop-color="#f0e2cd"/><stop offset="1" stop-color="#e6c7a2"/></radialGradient><linearGradient id="linear-gradient" x1="9798.59" y1="-3371.42" x2="9799.36" y2="-3371.42" gradientTransform="matrix(0.63, -0.78, 0.78, 0.63, -3479.56, 9776.05)" gradientUnits="userSpaceOnUse"><stop offset="0" stop-color="#fff"/><stop offset="0.1" stop-color="#e5e5e5"/><stop offset="0.33" stop-color="#a3a3a3"/><stop offset="0.65" stop-color="#3a3a3a"/><stop offset="0.82"/><stop offset="1"/></linearGradient><radialGradient id="radial-gradient-37" cx="-713.07" cy="858.69" r="1.01" gradientTransform="translate(809.21 -765.19) rotate(5.32)" xlink:href="#radial-gradient-35"/><radialGradient id="radial-gradient-38" cx="-713.07" cy="858.69" r="1.01" gradientTransform="translate(809.21 -765.19) rotate(5.32)" xlink:href="#radial-gradient-36"/><linearGradient id="linear-gradient-2" x1="-713.08" y1="858.79" x2="-712.31" y2="858.79" gradientTransform="translate(809.21 -765.19) rotate(5.32)" xlink:href="#linear-gradient"/><radialGradient id="radial-gradient-39" cx="2.4" cy="21.28" r="3.54" xlink:href="#radial-gradient"/><radialGradient id="radial-gradient-40" cx="2.4" cy="21.28" r="3.54" xlink:href="#radial-gradient-2"/><radialGradient id="radial-gradient-41" cx="3.05" cy="22.48" r="2.34" xlink:href="#radial-gradient-34"/><radialGradient id="radial-gradient-42" cx="12436.93" cy="-2360.39" r="0.79" gradientTransform="translate(-2990.73 12322.62) rotate(-65.56)" xlink:href="#radial-gradient-35"/><radialGradient id="radial-gradient-43" cx="12436.93" cy="-2360.39" r="0.79" gradientTransform="translate(-2990.73 12322.62) rotate(-65.56)" xlink:href="#radial-gradient-36"/><linearGradient id="linear-gradient-3" x1="12436.93" y1="-2360.31" x2="12437.52" y2="-2360.31" gradientTransform="translate(-2990.73 12322.62) rotate(-65.56)" xlink:href="#linear-gradient"/><radialGradient id="radial-gradient-44" cx="6.47" cy="18.51" r="2.11" gradientUnits="userSpaceOnUse"><stop offset="0" stop-color="#f8c950"/><stop offset="1" stop-color="#f8a12a"/></radialGradient><radialGradient id="radial-gradient-45" cx="6.61" cy="20.85" r="1.93" xlink:href="#radial-gradient-44"/><radialGradient id="radial-gradient-46" cx="11.19" cy="18.73" r="3.29" xlink:href="#radial-gradient-44"/><radialGradient id="radial-gradient-47" cx="11.44" cy="20.5" r="2.36" xlink:href="#radial-gradient-44"/><radialGradient id="radial-gradient-48" cx="11.19" cy="18.73" r="3.29" gradientUnits="userSpaceOnUse"><stop offset="0" stop-color="#f6e368"/><stop offset="0.98" stop-color="#f7ba42"/><stop offset="1" stop-color="#f7b941"/></radialGradient><linearGradient id="linear-gradient-4" x1="10.74" y1="17.68" x2="11.29" y2="19.75" gradientUnits="userSpaceOnUse"><stop offset="0" stop-color="#717171"/><stop offset="0.36" stop-color="#393939"/><stop offset="0.67" stop-color="#101010"/><stop offset="0.83"/><stop offset="1"/></linearGradient><radialGradient id="radial-gradient-49" cx="11.44" cy="20.5" r="2.36" xlink:href="#radial-gradient-48"/><linearGradient id="linear-gradient-5" x1="11.68" y1="19.91" x2="12.01" y2="21.56" xlink:href="#linear-gradient-4"/><radialGradient id="radial-gradient-50" cx="6.61" cy="20.85" r="1.93" xlink:href="#radial-gradient-48"/><linearGradient id="linear-gradient-6" x1="6.55" y1="19.89" x2="6.99" y2="21.51" xlink:href="#linear-gradient-4"/><radialGradient id="radial-gradient-51" cx="6.47" cy="18.51" r="2.11" xlink:href="#radial-gradient-48"/><linearGradient id="linear-gradient-7" x1="6.31" y1="18.01" x2="6.92" y2="19.75" xlink:href="#linear-gradient-4"/><radialGradient id="radial-gradient-52" cx="0.34" cy="19.75" r="6.36" xlink:href="#radial-gradient"/><radialGradient id="radial-gradient-53" cx="0.34" cy="19.75" r="6.36" xlink:href="#radial-gradient-2"/><linearGradient id="linear-gradient-8" x1="0.23" y1="20.22" x2="3.73" y2="20.78" xlink:href="#radial-gradient-34"/><radialGradient id="radial-gradient-54" cx="0.48" cy="22.89" r="3.79" xlink:href="#radial-gradient-34"/><linearGradient id="linear-gradient-9" x1="489.12" y1="-411.78" x2="489.55" y2="-409.74" gradientTransform="translate(-464.05 460.84) rotate(-3.22)" gradientUnits="userSpaceOnUse"><stop offset="0" stop-color="#9ed184"/><stop offset="0.29" stop-color="#5e7c4f"/><stop offset="0.55" stop-color="#2b3924"/><stop offset="0.74" stop-color="#0c100a"/><stop offset="0.83"/><stop offset="1"/></linearGradient><radialGradient id="radial-gradient-55" cx="1951.5" cy="-1456.44" r="1.22" gradientTransform="translate(-1603.62 1856.27) rotate(-12.01)" xlink:href="#radial-gradient-35"/><radialGradient id="radial-gradient-56" cx="1951.5" cy="-1456.44" r="1.22" gradientTransform="translate(-1603.62 1856.27) rotate(-12.01)" xlink:href="#radial-gradient-36"/><linearGradient id="linear-gradient-10" x1="1951.5" y1="-1456.31" x2="1952.41" y2="-1456.31" gradientTransform="translate(-1603.62 1856.27) rotate(-12.01)" xlink:href="#linear-gradient"/><radialGradient id="radial-gradient-57" cx="-1755.18" cy="2093.27" r="1.16" gradientTransform="translate(2194.68 -1601.69) rotate(13.47)" xlink:href="#radial-gradient-35"/><radialGradient id="radial-gradient-58" cx="-1755.18" cy="2093.27" r="1.16" gradientTransform="translate(2194.68 -1601.69) rotate(13.47)" xlink:href="#radial-gradient-36"/><linearGradient id="linear-gradient-11" x1="-1755.18" y1="2093.4" x2="-1754.31" y2="2093.4" gradientTransform="translate(2194.68 -1601.69) rotate(13.47)" xlink:href="#linear-gradient"/><radialGradient id="radial-gradient-59" cx="8958.86" cy="-3137.62" r="1.16" gradientTransform="translate(-3664.7 8779.79) rotate(-47.96)" xlink:href="#radial-gradient-35"/><radialGradient id="radial-gradient-60" cx="8958.86" cy="-3137.62" r="1.16" gradientTransform="translate(-3664.7 8779.79) rotate(-47.96)" xlink:href="#radial-gradient-36"/><linearGradient id="linear-gradient-12" x1="8958.85" y1="-3137.5" x2="8959.72" y2="-3137.5" gradientTransform="translate(-3664.7 8779.79) rotate(-47.96)" xlink:href="#linear-gradient"/><linearGradient id="linear-gradient-13" x1="0.43" y1="20.22" x2="2.54" y2="20.59" gradientUnits="userSpaceOnUse"><stop offset="0" stop-color="#bce496"/><stop offset="0.04" stop-color="#b2d88e"/><stop offset="0.33" stop-color="#677c52"/><stop offset="0.57" stop-color="#2f3926"/><stop offset="0.74" stop-color="#0d100a"/><stop offset="0.83"/><stop offset="1"/></linearGradient><radialGradient id="radial-gradient-61" cx="14.22" cy="20.66" r="6.12" xlink:href="#radial-gradient-32"/><radialGradient id="radial-gradient-62" cx="14.22" cy="20.66" r="6.12" xlink:href="#radial-gradient-2"/><radialGradient id="radial-gradient-63" cx="14.76" cy="19.61" r="3.07" xlink:href="#radial-gradient-34"/><linearGradient id="linear-gradient-14" x1="14.68" y1="19.45" x2="16.18" y2="18.82" xlink:href="#linear-gradient-13"/><radialGradient id="radial-gradient-64" cx="14.7" cy="23.66" r="3.57" xlink:href="#radial-gradient-34"/><linearGradient id="linear-gradient-15" x1="15.43" y1="22.89" x2="15.48" y2="24.46" gradientTransform="matrix(1, 0, 0, 1, 0, 0)" xlink:href="#linear-gradient-9"/><radialGradient id="radial-gradient-65" cx="15.3" cy="22.08" r="3.87" xlink:href="#radial-gradient-34"/><linearGradient id="linear-gradient-16" x1="14.89" y1="21.68" x2="16.7" y2="22.13" xlink:href="#linear-gradient-13"/><radialGradient id="radial-gradient-66" cx="-1399.23" cy="1690.7" r="1.22" gradientTransform="matrix(0.98, 0.18, -0.18, 0.98, 1698.56, -1382.97)" xlink:href="#radial-gradient-35"/><radialGradient id="radial-gradient-67" cx="-1399.23" cy="1690.7" r="1.22" gradientTransform="matrix(0.98, 0.18, -0.18, 0.98, 1698.56, -1382.97)" xlink:href="#radial-gradient-36"/><linearGradient id="linear-gradient-17" x1="-1399.24" y1="1690.83" x2="-1398.33" y2="1690.83" gradientTransform="matrix(0.98, 0.18, -0.18, 0.98, 1698.56, -1382.97)" xlink:href="#linear-gradient"/><radialGradient id="radial-gradient-68" cx="2363.3" cy="-1770.78" r="1.14" gradientTransform="translate(-1836.11 2324.39) rotate(-14.28)" xlink:href="#radial-gradient-35"/><radialGradient id="radial-gradient-69" cx="2363.3" cy="-1770.78" r="1.14" gradientTransform="translate(-1836.11 2324.39) rotate(-14.28)" xlink:href="#radial-gradient-36"/><linearGradient id="linear-gradient-18" x1="2363.29" y1="-1770.65" x2="2364.15" y2="-1770.65" gradientTransform="translate(-1836.11 2324.39) rotate(-14.28)" xlink:href="#linear-gradient"/><radialGradient id="radial-gradient-70" cx="-3521.15" cy="7376.57" r="1.14" gradientTransform="translate(7474.37 -3315.14) rotate(40.37)" xlink:href="#radial-gradient-35"/><radialGradient id="radial-gradient-71" cx="-3521.15" cy="7376.57" r="1.14" gradientTransform="translate(7474.37 -3315.14) rotate(40.37)" xlink:href="#radial-gradient-36"/><linearGradient id="linear-gradient-19" x1="-3521.16" y1="7376.69" x2="-3520.3" y2="7376.69" gradientTransform="translate(7474.37 -3315.14) rotate(40.37)" xlink:href="#linear-gradient"/><radialGradient id="radial-gradient-72" cx="10.61" cy="11.83" r="1.16" gradientUnits="userSpaceOnUse"><stop offset="0" stop-color="#c75b0e"/><stop offset="1" stop-color="#a2440f"/></radialGradient><radialGradient id="radial-gradient-73" cx="12.07" cy="12.68" r="1.44" xlink:href="#radial-gradient-72"/><radialGradient id="radial-gradient-74" cx="13.82" cy="14.65" r="1.49" xlink:href="#radial-gradient-72"/><radialGradient id="radial-gradient-75" cx="15.31" cy="16.33" r="1.35" xlink:href="#radial-gradient-72"/><radialGradient id="radial-gradient-76" cx="17.2" cy="17.12" r="1.17" xlink:href="#radial-gradient-72"/><radialGradient id="radial-gradient-77" cx="18.93" cy="16.48" r="1.44" xlink:href="#radial-gradient-72"/><radialGradient id="radial-gradient-78" cx="19.9" cy="14.62" r="1.54" xlink:href="#radial-gradient-72"/><radialGradient id="radial-gradient-79" cx="10.61" cy="11.83" r="1.16" gradientUnits="userSpaceOnUse"><stop offset="0" stop-color="#d87f25"/><stop offset="1" stop-color="#c14e0c"/></radialGradient><radialGradient id="radial-gradient-80" cx="13.82" cy="14.65" r="1.49" xlink:href="#radial-gradient-79"/><radialGradient id="radial-gradient-81" cx="13.82" cy="14.65" r="1.49" gradientUnits="userSpaceOnUse"><stop offset="0" stop-color="#915619"/><stop offset="0.23" stop-color="#57330f"/><stop offset="0.45" stop-color="#281807"/><stop offset="0.61" stop-color="#0b0602"/><stop offset="0.7"/><stop offset="1"/></radialGradient><radialGradient id="radial-gradient-82" cx="15.31" cy="16.33" r="1.35" xlink:href="#radial-gradient-79"/><radialGradient id="radial-gradient-83" cx="15.31" cy="16.33" r="1.35" xlink:href="#radial-gradient-81"/><radialGradient id="radial-gradient-84" cx="17.2" cy="17.12" r="1.17" xlink:href="#radial-gradient-79"/><radialGradient id="radial-gradient-85" cx="17.2" cy="17.12" r="1.17" xlink:href="#radial-gradient-81"/><radialGradient id="radial-gradient-86" cx="19.9" cy="14.62" r="1.54" xlink:href="#radial-gradient-79"/><radialGradient id="radial-gradient-87" cx="19.9" cy="14.62" r="1.54" xlink:href="#radial-gradient-81"/><radialGradient id="radial-gradient-88" cx="18.93" cy="16.48" r="1.44" xlink:href="#radial-gradient-79"/><radialGradient id="radial-gradient-89" cx="18.93" cy="16.48" r="1.44" xlink:href="#radial-gradient-81"/><radialGradient id="radial-gradient-90" cx="12.07" cy="12.68" r="1.44" xlink:href="#radial-gradient-79"/><radialGradient id="radial-gradient-91" cx="12.07" cy="12.68" r="1.44" xlink:href="#radial-gradient-81"/><radialGradient id="radial-gradient-92" cx="1.74" cy="17.25" r="0.92" xlink:href="#radial-gradient-72"/><radialGradient id="radial-gradient-93" cx="3.24" cy="16.91" r="1.13" xlink:href="#radial-gradient-72"/><radialGradient id="radial-gradient-94" cx="5.8" cy="13.62" r="1.54" xlink:href="#radial-gradient-72"/><radialGradient id="radial-gradient-95" cx="7.49" cy="12.26" r="1.13" xlink:href="#radial-gradient-72"/><radialGradient id="radial-gradient-96" cx="4.51" cy="15.58" r="1.29" xlink:href="#radial-gradient-72"/><radialGradient id="radial-gradient-97" cx="3.24" cy="16.91" r="1.13" xlink:href="#radial-gradient-79"/><radialGradient id="radial-gradient-98" cx="3.24" cy="16.91" r="1.13" gradientUnits="userSpaceOnUse"><stop offset="0" stop-color="#b2691f"/><stop offset="0.7"/><stop offset="1"/></radialGradient><radialGradient id="radial-gradient-99" cx="4.51" cy="15.58" r="1.29" xlink:href="#radial-gradient-79"/><radialGradient id="radial-gradient-100" cx="4.51" cy="15.58" r="1.29" xlink:href="#radial-gradient-98"/><radialGradient id="radial-gradient-101" cx="5.8" cy="13.62" r="1.54" xlink:href="#radial-gradient-79"/><radialGradient id="radial-gradient-102" cx="5.8" cy="13.62" r="1.54" xlink:href="#radial-gradient-98"/><radialGradient id="radial-gradient-103" cx="7.49" cy="12.26" r="1.13" xlink:href="#radial-gradient-79"/><radialGradient id="radial-gradient-104" cx="1.74" cy="17.25" r="0.92" xlink:href="#radial-gradient-79"/><radialGradient id="radial-gradient-105" cx="1.74" cy="17.25" r="0.92" xlink:href="#radial-gradient-98"/><radialGradient id="radial-gradient-106" cx="5.49" cy="14.81" r="7.29" xlink:href="#radial-gradient"/><radialGradient id="radial-gradient-107" cx="5.49" cy="14.81" r="7.29" xlink:href="#radial-gradient-2"/><radialGradient id="radial-gradient-108" cx="5.83" cy="5.53" r="9.9" xlink:href="#radial-gradient"/><radialGradient id="radial-gradient-109" cx="5.83" cy="5.53" r="9.9" xlink:href="#radial-gradient-2"/><radialGradient id="radial-gradient-110" cx="4.85" cy="0.67" r="2.22" xlink:href="#radial-gradient-34"/><linearGradient id="linear-gradient-20" x1="4.75" y1="0.81" x2="4.93" y2="2.29" gradientUnits="userSpaceOnUse"><stop offset="0" stop-color="#5f5f5f"/><stop offset="0.29" stop-color="#393939"/><stop offset="0.65" stop-color="#101010"/><stop offset="0.83"/><stop offset="1"/></linearGradient><radialGradient id="radial-gradient-111" cx="7.11" cy="0.39" r="4.16" xlink:href="#radial-gradient-34"/><radialGradient id="radial-gradient-112" cx="10.39" cy="-0.16" r="5.79" xlink:href="#radial-gradient-34"/><linearGradient id="linear-gradient-21" x1="401.2" y1="-378.57" x2="401.31" y2="-375.98" gradientTransform="translate(-372.21 397.36) rotate(-2.73)" xlink:href="#linear-gradient-20"/><radialGradient id="radial-gradient-113" cx="5.83" cy="5.53" r="9.9" xlink:href="#radial-gradient"/><radialGradient id="radial-gradient-114" cx="17514.36" cy="1882.35" r="4.39" gradientTransform="matrix(-0.98, -0.22, -0.22, 0.98, 17511.96, 1967.7)" gradientUnits="userSpaceOnUse"><stop offset="0" stop-color="#fff"/><stop offset="0.22" stop-color="#d1e6ca"/><stop offset="0.6" stop-color="#84be72"/><stop offset="0.87" stop-color="#55a53b"/><stop offset="1" stop-color="#429b26"/></radialGradient><radialGradient id="radial-gradient-115" cx="16443.59" cy="522.34" r="2.6" gradientTransform="matrix(-1, -0.06, -0.06, 1, 16448.91, 477.19)" gradientUnits="userSpaceOnUse"><stop offset="0.54" stop-color="#e7e7e7"/><stop offset="0.66" stop-color="#e4e4e5"/><stop offset="0.74" stop-color="#dcdcdd"/><stop offset="0.8" stop-color="#cdcdd1"/><stop offset="0.86" stop-color="#b8b8bf"/><stop offset="0.91" stop-color="#9d9da8"/><stop offset="0.94" stop-color="#8c8c9a"/><stop offset="1" stop-color="#c5c5c5"/></radialGradient><radialGradient id="radial-gradient-116" cx="12097.38" cy="4530.66" r="0.12" gradientTransform="matrix(-2.12, -0.13, -0.13, 2.18, 26234.11, -8339.72)" gradientUnits="userSpaceOnUse"><stop offset="0.21" stop-color="#fff"/><stop offset="0.36" stop-color="#aeaeae"/><stop offset="0.52" stop-color="#646464"/><stop offset="0.64" stop-color="#2e2e2e"/><stop offset="0.74" stop-color="#0d0d0d"/><stop offset="0.79"/><stop offset="0.98"/></radialGradient><radialGradient id="radial-gradient-117" cx="-1850.6" cy="2944.63" r="1.64" gradientTransform="matrix(0.96, 0.29, -0.3, 1.02, 2666.12, -2471.12)" gradientUnits="userSpaceOnUse"><stop offset="0" stop-color="#31b2d1"/><stop offset="0.13" stop-color="#2aa3c9"/><stop offset="0.32" stop-color="#1b85ba"/><stop offset="0.52" stop-color="#1b6bae"/><stop offset="0.93" stop-color="#1c298f"/><stop offset="1" stop-color="#1c1d89"/></radialGradient><radialGradient id="radial-gradient-118" cx="3476.39" cy="5487.31" r="0.09" gradientTransform="matrix(2.03, 0.6, -0.62, 2.1, -3656.36, -13604.41)" gradientUnits="userSpaceOnUse"><stop offset="0" stop-color="#fff"/><stop offset="0.22" stop-color="#b3b3b3"/><stop offset="0.62" stop-color="#333"/><stop offset="0.79"/><stop offset="1"/></radialGradient><linearGradient id="linear-gradient-22" x1="-1397.68" y1="1823.31" x2="-1397.3" y2="1823.77" gradientTransform="translate(1748.99 -1491.77) rotate(11.93)" gradientUnits="userSpaceOnUse"><stop offset="0" stop-color="#b9b9b9"/><stop offset="0.04" stop-color="#adadad"/><stop offset="0.33" stop-color="#646464"/><stop offset="0.57" stop-color="#2e2e2e"/><stop offset="0.75" stop-color="#0d0d0d"/><stop offset="0.85"/><stop offset="0.98"/></linearGradient><radialGradient id="radial-gradient-120" cx="3.46" cy="4.63" r="2.45" xlink:href="#radial-gradient-34"/><radialGradient id="radial-gradient-121" cx="5.83" cy="5.53" r="9.9" xlink:href="#radial-gradient-2"/><radialGradient id="radial-gradient-122" cx="6.08" cy="4.55" r="4.99" xlink:href="#radial-gradient-34"/><linearGradient id="linear-gradient-23" x1="-646.95" y1="-519.96" x2="-646.52" y2="-517.22" gradientTransform="matrix(0.92, 0, 0, 0.94, 604.29, 492.08)" gradientUnits="userSpaceOnUse"><stop offset="0" stop-color="#a5d688"/><stop offset="0.31" stop-color="#607c4f"/><stop offset="0.56" stop-color="#2c3924"/><stop offset="0.74" stop-color="#0c100a"/><stop offset="0.83"/><stop offset="1"/></linearGradient><radialGradient id="radial-gradient-123" cx="8.23" cy="10.1" r="2.17" gradientUnits="userSpaceOnUse"><stop offset="0" stop-color="#150c0c"/><stop offset="0.28" stop-color="#200a0a"/><stop offset="0.56" stop-color="#300707"/><stop offset="0.68" stop-color="#3b0807"/><stop offset="1" stop-color="#540a06"/></radialGradient><radialGradient id="radial-gradient-124" cx="8.32" cy="10.08" r="3.12" gradientUnits="userSpaceOnUse"><stop offset="0" stop-color="#130c0c"/><stop offset="0.59" stop-color="#6a0a09"/><stop offset="0.72" stop-color="#7c0c08"/><stop offset="0.87" stop-color="#890e06"/><stop offset="1" stop-color="#8e0f06"/></radialGradient><radialGradient id="radial-gradient-125" cx="8.32" cy="10.08" r="3.12" xlink:href="#radial-gradient-124"/><linearGradient id="linear-gradient-24" x1="7.68" y1="11.91" x2="8.17" y2="10.35" gradientUnits="userSpaceOnUse"><stop offset="0" stop-color="#f59e9f"/><stop offset="1" stop-color="#f17171"/></linearGradient><linearGradient id="linear-gradient-25" x1="7.61" y1="11.89" x2="8.1" y2="10.32" gradientUnits="userSpaceOnUse"><stop offset="0" stop-color="#f0b8b8"/><stop offset="1" stop-color="#f79899"/></linearGradient><radialGradient id="radial-gradient-126" cx="6.54" cy="10.73" r="1.66" gradientUnits="userSpaceOnUse"><stop offset="0" stop-color="#f0b8b8"/><stop offset="0.02" stop-color="#e6b0b0"/><stop offset="0.12" stop-color="#aa8282"/><stop offset="0.23" stop-color="#765a5a"/><stop offset="0.33" stop-color="#4c3a3a"/><stop offset="0.43" stop-color="#2b2121"/><stop offset="0.53" stop-color="#130f0f"/><stop offset="0.62" stop-color="#050404"/><stop offset="0.69"/><stop offset="1"/></radialGradient><radialGradient id="radial-gradient-127" cx="7.6" cy="11.09" r="2.03" xlink:href="#radial-gradient-126"/><linearGradient id="linear-gradient-26" x1="1687.24" y1="-666.16" x2="1688.14" y2="-660.44" gradientTransform="matrix(1.23, -0.11, 0.02, 1.01, -2057.1, 859.8)" xlink:href="#linear-gradient-23"/><radialGradient id="radial-gradient-128" cx="1934.45" cy="-1585.13" r="5.48" gradientTransform="translate(-1534.26 1967.7) rotate(-12.54)" xlink:href="#radial-gradient-114"/><radialGradient id="radial-gradient-129" cx="508.27" cy="-443.06" r="3.23" gradientTransform="translate(-471.22 477.19) rotate(-3.47)" xlink:href="#radial-gradient-115"/><radialGradient id="radial-gradient-130" cx="4590.65" cy="4089.37" r="0.15" gradientTransform="matrix(2.12, -0.13, 0.13, 2.18, -10256.41, -8339.72)" xlink:href="#radial-gradient-116"/><radialGradient id="radial-gradient-131" cx="102.79" cy="442.72" r="2.04" gradientTransform="matrix(1, -0.01, 0.01, 1.06, -96.55, -465.37)" xlink:href="#radial-gradient-117"/><radialGradient id="radial-gradient-132" cx="4395.45" cy="4271.98" r="0.11" gradientTransform="matrix(2.12, -0.02, 0.02, 2.19, -9412.37, -9248.27)" xlink:href="#radial-gradient-118"/><linearGradient id="linear-gradient-27" x1="759.31" y1="-671.89" x2="759.78" y2="-671.32" gradientTransform="matrix(1, -0.09, 0.09, 1, -685.27, 740.31)" xlink:href="#linear-gradient-22"/><radialGradient id="radial-gradient-133" cx="5.83" cy="5.53" r="9.9" xlink:href="#radial-gradient-2"/><radialGradient id="radial-gradient-134" cx="11.97" cy="4.65" r="2.73" gradientUnits="userSpaceOnUse"><stop offset="0" stop-color="#91ca1f"/><stop offset="0.1" stop-color="#74a119"/><stop offset="0.23" stop-color="#517111"/><stop offset="0.36" stop-color="#34480b"/><stop offset="0.49" stop-color="#1d2906"/><stop offset="0.61" stop-color="#0d1203"/><stop offset="0.73" stop-color="#030501"/><stop offset="0.83"/><stop offset="1"/></radialGradient><linearGradient id="linear-gradient-28" x1="12.04" y1="4.67" x2="12.69" y2="5.92" gradientTransform="matrix(1, 0, 0, 1, 0, 0)" xlink:href="#linear-gradient-23"/><radialGradient id="radial-gradient-135" cx="9.85" cy="15.68" r="2.89" xlink:href="#radial-gradient-44"/><radialGradient id="radial-gradient-136" cx="9.85" cy="15.68" r="2.89" xlink:href="#radial-gradient-48"/><linearGradient id="linear-gradient-29" x1="13255.5" y1="-2137.58" x2="13256.06" y2="-2136.69" gradientTransform="matrix(-0.95, 0.32, 0.32, 0.95, 13264.23, -2134.7)" xlink:href="#linear-gradient-4"/><radialGradient id="radial-gradient-137" cx="6.6" cy="16.11" r="2.8" xlink:href="#radial-gradient-44"/><radialGradient id="radial-gradient-138" cx="6.6" cy="16.11" r="2.8" xlink:href="#radial-gradient-48"/><linearGradient id="linear-gradient-30" x1="6.04" y1="16.85" x2="6.6" y2="17.74" xlink:href="#linear-gradient-4"/><symbol id="welcome-turtee" data-name="welcome-turtee" viewBox="0 0 22.52 26.37"><path class="cls-1" d="M20.41,14.63a3.79,3.79,0,0,1-.9,2.18c.81.32,3.17-1.5,2.6-3.11C22,13.27,21.59,14.63,20.41,14.63Z"/><path class="cls-2" d="M22.05,13.62c-.19-.07-.59,1-1.64,1a4.09,4.09,0,0,1-.3,1.24C21.31,16,22.08,14.77,22.05,13.62Z"/><path class="cls-3" d="M19.72,16.86h0a.73.73,0,0,1-.22,0h0l0,0a3.92,3.92,0,0,0,.91-2.18h0a1.79,1.79,0,0,0,1.36-.78c.11-.14.19-.23.26-.23s.07,0,.09.1a2,2,0,0,1-.37,1.81A3.08,3.08,0,0,1,19.72,16.86Zm-.18-.06a.52.52,0,0,0,.18,0,3,3,0,0,0,2-1.35,1.91,1.91,0,0,0,.37-1.77c0-.07-.05-.07-.06-.07s-.13.09-.24.21a1.75,1.75,0,0,1-1.36.79A3.83,3.83,0,0,1,19.54,16.8Z"/><path class="cls-4" d="M4.7,12.11h0C3.92,12,2.87,13.9,3.2,14.4A13.47,13.47,0,0,1,5,15.6a5.94,5.94,0,0,1,.72-1.12,5.26,5.26,0,0,1,.42-.61A5,5,0,0,0,4.7,12.11Z"/><path class="cls-5" d="M4.5,12.12a1.54,1.54,0,0,1,.51.39,5.19,5.19,0,0,1,.45.73A4.29,4.29,0,0,1,5,14.33c-.19.19-.74.4-1,.25a7.12,7.12,0,0,0-.9-.52A2.77,2.77,0,0,1,4.5,12.12Z"/><path class="cls-6" d="M4.5,12.12a1.54,1.54,0,0,1,.51.39,5.19,5.19,0,0,1,.45.73A4.29,4.29,0,0,1,5,14.33c-.19.19-.74.4-1,.25a7.12,7.12,0,0,0-.9-.52A2.77,2.77,0,0,1,4.5,12.12Z"/><path class="cls-7" d="M8.28,10.39c-2.28-.21-3.67,1-3.58,1.72a5,5,0,0,1,1.43,1.76,2.29,2.29,0,0,1,.72-.67C7.47,12.35,8.53,12,8.28,10.39Z"/><path class="cls-8" d="M4.88,11.53a5.72,5.72,0,0,1,.58.72c.06.14.87.18.93.17a3.31,3.31,0,0,0,.9-.51c.07-.15-1.22-1.25-1.52-1.09A2.39,2.39,0,0,0,4.88,11.53Z"/><path class="cls-9" d="M4.88,11.53a5.72,5.72,0,0,1,.58.72c.06.14.87.18.93.17a3.31,3.31,0,0,0,.9-.51c.07-.15-1.22-1.25-1.52-1.09A2.39,2.39,0,0,0,4.88,11.53Z"/><path class="cls-10" d="M1.48,17.09c2.3.7,2.9-.37,3.51-1.49a14.82,14.82,0,0,0-1.8-1.2C1.89,14.53,1.48,17.09,1.48,17.09Z"/><path class="cls-11" d="M2.7,14.58a3.68,3.68,0,0,1,1,.6,1.94,1.94,0,0,1,0,.87,2,2,0,0,1-.76.58,2.63,2.63,0,0,1-.77.1,2.93,2.93,0,0,1-.55-.37A3.47,3.47,0,0,1,2.7,14.58Z"/><path class="cls-12" d="M2.7,14.58a3.68,3.68,0,0,1,1,.6,1.94,1.94,0,0,1,0,.87,2,2,0,0,1-.76.58,2.63,2.63,0,0,1-.77.1,2.93,2.93,0,0,1-.55-.37A3.47,3.47,0,0,1,2.7,14.58Z"/><path class="cls-13" d="M8.39,10.4h0Z"/><path class="cls-14" d="M16.47,10.67c0-.94-.72-1.54-1.91-1.63-2.17-1.33-5.22.56-6.16,1.35.16-.1,2.14-1.12,2.1-1.13.25,1.6,2.52,1,4.09,2.42.17.27.33.52.49.75A2.11,2.11,0,0,1,16.47,10.67Z"/><path class="cls-15" d="M14.39,9a1.81,1.81,0,0,0-.51.76,5.56,5.56,0,0,0,.54.56,7.09,7.09,0,0,0,.94.49,5.67,5.67,0,0,0,1.1-.33C16.37,9.65,15.71,9.09,14.39,9Z"/><path class="cls-16" d="M14.39,9a1.81,1.81,0,0,0-.51.76,5.56,5.56,0,0,0,.54.56,7.09,7.09,0,0,0,.94.49,5.67,5.67,0,0,0,1.1-.33C16.37,9.65,15.71,9.09,14.39,9Z"/><path class="cls-17" d="M16.47,10.67h0a2.11,2.11,0,0,0-1.39,1.76,20.89,20.89,0,0,0,2,2.67,9.2,9.2,0,0,0,1.42-2C18.44,10.88,16.91,10.69,16.47,10.67Z"/><path class="cls-18" d="M16.88,10.73c-.1.1-.6.27-.65.37s-.31.46-.25.58.84.91.9,1a8.49,8.49,0,0,0,1,.52,2.49,2.49,0,0,0,.59-.58A2,2,0,0,0,16.88,10.73Z"/><path class="cls-19" d="M16.88,10.73c-.1.1-.6.27-.65.37s-.31.46-.25.58.84.91.9,1a8.49,8.49,0,0,0,1,.52,2.49,2.49,0,0,0,.59-.58A2,2,0,0,0,16.88,10.73Z"/><path class="cls-20" d="M20,13.57a2,2,0,0,1-1.52-.45v0a9.44,9.44,0,0,1-1.42,2c1.32,1.42,1.57.58,2.46,1.13A2.37,2.37,0,0,0,20,13.57Z"/><path class="cls-21" d="M18.65,13.25A6.91,6.91,0,0,0,18,14.61a6.61,6.61,0,0,1,.55.37,2,2,0,0,0,.86.11c.08-.06.46-.26.45-.51a3.65,3.65,0,0,0-.11-.54c0-.08,0-.35.05-.44A2.19,2.19,0,0,1,18.65,13.25Z"/><path class="cls-22" d="M18.65,13.25A6.91,6.91,0,0,0,18,14.61a6.61,6.61,0,0,1,.55.37,2,2,0,0,0,.86.11c.08-.06.46-.26.45-.51a3.65,3.65,0,0,0-.11-.54c0-.08,0-.35.05-.44A2.19,2.19,0,0,1,18.65,13.25Z"/><path class="cls-23" d="M1.51,16.9a.24.24,0,0,1,0,.09l.15,0Z"/><path class="cls-24" d="M9.78,11.75a3.83,3.83,0,0,1,1.46.32,24.53,24.53,0,0,1,2-2C12.83,9.76,9.77,10.79,9.78,11.75Z"/><path class="cls-25" d="M15.27,11.83a2.51,2.51,0,0,0-2-1.71h0a24.53,24.53,0,0,0-2,2,6.09,6.09,0,0,1,1.91,1.36A2.94,2.94,0,0,0,15.27,11.83Z"/><path class="cls-26" d="M13.73,10.23a5.33,5.33,0,0,0-1.1.7c-.09.17-.45.51-.4.63s.2.56.35.61a9.76,9.76,0,0,0,1.06.3,4.38,4.38,0,0,0,.88-.23c.06-.05.62-.55.66-.6A2.85,2.85,0,0,0,13.73,10.23Z"/><path class="cls-27" d="M13.73,10.23a5.33,5.33,0,0,0-1.1.7c-.09.17-.45.51-.4.63s.2.56.35.61a9.76,9.76,0,0,0,1.06.3,4.38,4.38,0,0,0,.88-.23c.06-.05.62-.55.66-.6A2.85,2.85,0,0,0,13.73,10.23Z"/><path class="cls-28" d="M17.44,14.62a2.73,2.73,0,0,0-2.16-2.76,3.06,3.06,0,0,1-2.13,1.57A10.71,10.71,0,0,1,15,16.11l.47.25A5.16,5.16,0,0,0,17.44,14.62Z"/><path class="cls-29" d="M15.78,12c-.23.22-.81.57-.82.62s-.66.87-.64,1a4.19,4.19,0,0,0,.43.9,7.86,7.86,0,0,0,1.3.47,9.67,9.67,0,0,0,1.34-.59A2.64,2.64,0,0,0,15.78,12Z"/><path class="cls-30" d="M15.78,12c-.23.22-.81.57-.82.62s-.66.87-.64,1a4.19,4.19,0,0,0,.43.9,7.86,7.86,0,0,0,1.3.47,9.67,9.67,0,0,0,1.34-.59A2.64,2.64,0,0,0,15.78,12Z"/><path class="cls-31" d="M17.45,14.68v-.06a5.23,5.23,0,0,1-2,1.74c1.34.68,3.45,1.58,4.47-.91A2.94,2.94,0,0,1,17.45,14.68Z"/><path class="cls-32" d="M17.69,14.89a6.18,6.18,0,0,0-.71.58,3.31,3.31,0,0,0-.44.76,4.89,4.89,0,0,0,1,.39,4.56,4.56,0,0,0,.79-.22s.83-.81.88-.92A3,3,0,0,1,17.69,14.89Z"/><path class="cls-33" d="M17.69,14.89a6.18,6.18,0,0,0-.71.58,3.31,3.31,0,0,0-.44.76,4.89,4.89,0,0,0,1,.39,4.56,4.56,0,0,0,.79-.22s.83-.81.88-.92A3,3,0,0,1,17.69,14.89Z"/><path class="cls-23" d="M19.8,15.5a.21.21,0,0,1-.08.2c-.15.16-.34.26-.49.42a5.23,5.23,0,0,1-.45.49,2.52,2.52,0,0,1-1.1.54,4.43,4.43,0,0,1-1.31.05,2.4,2.4,0,0,1-1.13-.5l-.14.06.06.1c1.24.65,3.63,1.4,4.78-1.41Z"/><path class="cls-34" d="M19.37,15.14s-.71,0-.83-.14a1.63,1.63,0,0,0-.24-.16c-.23-.14-.33-.21-.32-.28a2.56,2.56,0,0,1,.28-.7c.15-.24.35-.6.35-.61l.06,0s-.19.37-.35.61a2.11,2.11,0,0,0-.26.67,1,1,0,0,0,.28.21,1,1,0,0,1,.25.17,2,2,0,0,0,.78.11,1,1,0,0,0,.43-.35.75.75,0,0,0,0-.51,1.42,1.42,0,0,1,0-.59h.08a1.32,1.32,0,0,0,0,.56.93.93,0,0,1,0,.57,1,1,0,0,1-.5.4Z"/><path class="cls-34" d="M19,14.92c-.14,0-.3,0-.32-.06l-.06-.08c-.17-.24-.25-.38-.23-.44a2,2,0,0,1,.19-.53,2.63,2.63,0,0,0,.28-.44l.07,0a4.44,4.44,0,0,1-.3.46,1.61,1.61,0,0,0-.17.49,1.57,1.57,0,0,0,.22.38l.06.08a1.85,1.85,0,0,0,.54,0,2,2,0,0,0,.35-.45l0-.06a2.55,2.55,0,0,0-.05-.35h0l.05-.37h.07l-.05.36c.07.37.06.38,0,.4l0,.06c-.24.35-.34.47-.41.48Z"/><path class="cls-34" d="M19,14.58h0a.86.86,0,0,1-.34-.22.07.07,0,0,1,0-.06,3.82,3.82,0,0,1,.14-.48l.26-.39.07,0-.27.39s-.1.33-.13.45a.7.7,0,0,0,.29.19,1.2,1.2,0,0,0,.39-.15.93.93,0,0,0,.1-.35s0,0,0-.09,0-.27,0-.33h.06a1.11,1.11,0,0,1,0,.33.78.78,0,0,0,0,.09.79.79,0,0,1-.12.41A1.32,1.32,0,0,1,19,14.58Z"/><path class="cls-34" d="M18.94,14.4s-.07,0-.08,0h0c-.07-.15-.14-.31-.07-.39l.34-.48.06,0s-.28.4-.35.48,0,.1.09.31v0a1,1,0,0,0,.34-.11c.05,0,.07-.18.05-.25s0-.38,0-.42h.08c0,.1,0,.37,0,.41s0,.28-.09.32A1,1,0,0,1,18.94,14.4Z"/><path class="cls-34" d="M4.25,14.68A.33.33,0,0,1,4,14.6a5.71,5.71,0,0,0-.89-.49l0-.07a5.33,5.33,0,0,1,.92.51.31.31,0,0,0,.24,0A1,1,0,0,0,5,14.27a2.49,2.49,0,0,0,.43-1.06A1.39,1.39,0,0,0,5.25,13,2,2,0,0,1,5,12.59c0-.14-.38-.36-.5-.44l0-.06s.46.29.53.47a2.52,2.52,0,0,0,.24.37l.18.25a2.46,2.46,0,0,1-.44,1.14,1.18,1.18,0,0,1-.75.36Z"/><path class="cls-34" d="M4.28,14.33a2.82,2.82,0,0,1-.61-.2,3.51,3.51,0,0,1-.5-.3l0-.06s.33.22.49.3a3.13,3.13,0,0,0,.58.19,2.57,2.57,0,0,0,.57-.4.88.88,0,0,1,.07-.12c.09-.12.25-.35.21-.43a1.1,1.1,0,0,0-.39-.48l-.31-.19a2.08,2.08,0,0,0-.38-.23l0-.06s.15.06.41.23a3,3,0,0,0,.29.18,1.16,1.16,0,0,1,.43.52c0,.11-.08.3-.22.51l-.07.1A2,2,0,0,1,4.28,14.33Z"/><path class="cls-34" d="M4.24,14a1,1,0,0,1-.56-.17l-.4-.35.05-.05s.27.22.4.35a.93.93,0,0,0,.51.15,1.84,1.84,0,0,0,.48-.41,1.48,1.48,0,0,0-.23-.62,3,3,0,0,0-.62-.32l0-.06a3.19,3.19,0,0,1,.64.32,1.42,1.42,0,0,1,.25.72C4.75,13.64,4.35,14,4.24,14Z"/><path class="cls-34" d="M4.18,13.69h0a.88.88,0,0,1-.42-.13,1.23,1.23,0,0,1-.34-.35l0-.05a1.65,1.65,0,0,0,.34.34,1,1,0,0,0,.39.12h0a1,1,0,0,0,.3-.22,1,1,0,0,0-.18-.35,3,3,0,0,0-.58-.27l0-.07a2.5,2.5,0,0,1,.61.29c0,.07.24.36.18.44S4.27,13.69,4.18,13.69Z"/><path class="cls-34" d="M2.26,16.77a2.66,2.66,0,0,1-.62-.38l0-.06a3.16,3.16,0,0,0,.6.36h0c.09,0,.57-.07.69-.09A2.05,2.05,0,0,0,3.7,16a1.45,1.45,0,0,0,0-.85,3.2,3.2,0,0,0-1-.55l0-.07a3,3,0,0,1,1,.58,1.41,1.41,0,0,1,0,.91,2,2,0,0,1-.8.62c-.12,0-.61.1-.71.1Z"/><path class="cls-34" d="M2.45,16.45a3,3,0,0,1-.72-.32l0-.06a3.19,3.19,0,0,0,.68.31l.1,0a2.54,2.54,0,0,0,.56-.14,1.3,1.3,0,0,0,.36-.74,1.68,1.68,0,0,0-1.05-.61h0V14.8h0a1.65,1.65,0,0,1,1.11.66,1.24,1.24,0,0,1-.4.83,2.6,2.6,0,0,1-.58.14l-.1,0Z"/><path class="cls-34" d="M2.39,16.05l-.15,0-.38-.21,0-.06.38.2a1.13,1.13,0,0,0,.32,0,.72.72,0,0,1,.15,0,1.22,1.22,0,0,0,.35-.4,1,1,0,0,0-.31-.33,1.92,1.92,0,0,0-.52-.15h0V15h0a2,2,0,0,1,.56.15c.1.07.34.31.34.4a1.22,1.22,0,0,1-.3.4c-.07.06-.1.07-.12.07H2.39Z"/><path class="cls-34" d="M2.54,15.76H2.33A.92.92,0,0,1,2,15.54l0,0a1,1,0,0,0,.32.19h.31a.54.54,0,0,0,0-.19.35.35,0,0,1,0-.06,1,1,0,0,0-.54-.17v-.08a.93.93,0,0,1,.6.21.08.08,0,0,1,0,0,.23.23,0,0,1,0,.07c0,.17,0,.24-.07.25Z"/><path class="cls-34" d="M6.3,12.45c-.26,0-.79-.07-.87-.22a8.44,8.44,0,0,0-.58-.68l.06-.05a8.56,8.56,0,0,1,.58.69,1.55,1.55,0,0,0,.89.18,3,3,0,0,0,1-.57,7.83,7.83,0,0,0-.81-1.27l0-.06a7.59,7.59,0,0,1,.85,1.33c0,.16-.92.62-1.06.65Z"/><path class="cls-34" d="M6.51,12a3.19,3.19,0,0,1-.92-.18,2,2,0,0,1-.51-.48l.06,0a2.35,2.35,0,0,0,.48.46,3.34,3.34,0,0,0,.86.17c0-.18-.28-1.06-.52-1.15l0-.07c.3.11.59,1.14.57,1.25s0,0,0,0Z"/><path class="cls-34" d="M15.39,10.86l-.09,0-.56-.29-.31-.16c-.08-.05-.56-.49-.58-.63s.16-.32.46-.69A1.09,1.09,0,0,0,14.4,9l.06,0s0,0-.09.12a2.89,2.89,0,0,0-.45.63,2.43,2.43,0,0,0,.54.57l.32.17.56.29a3.55,3.55,0,0,0,1.11-.31v.08A4.54,4.54,0,0,1,15.39,10.86Z"/><path class="cls-34" d="M15.57,10.47a2.19,2.19,0,0,1-.49-.05,4.19,4.19,0,0,1-.58-.37c-.13-.1-.06-.52-.06-.54s.51-.36.65-.41l.06.05c-.25.09-.63.3-.64.38s0,.41,0,.46a4.76,4.76,0,0,0,.57.36,2,2,0,0,0,.69,0c.12-.07.54-.26.55-.26l0,.06s-.42.19-.54.26A.64.64,0,0,1,15.57,10.47Z"/><path class="cls-34" d="M15.55,10.18a1.42,1.42,0,0,1-.31,0,1,1,0,0,1-.5-.38.15.15,0,0,1,0-.15,1.1,1.1,0,0,1,.72-.39h0l.07.06h-.08a1,1,0,0,0-.66.35.27.27,0,0,0,0,.08.92.92,0,0,0,.46.34,1.72,1.72,0,0,0,.64,0l.37-.17,0,.06s-.33.16-.4.18A1.54,1.54,0,0,1,15.55,10.18Z"/><path class="cls-34" d="M15.53,10h-.15a.67.67,0,0,1-.32-.17.06.06,0,0,1,0-.06,1.84,1.84,0,0,1,.24-.3,1.53,1.53,0,0,1,.39-.12l.05.05a2.23,2.23,0,0,0-.39.13,1.09,1.09,0,0,0-.22.27.7.7,0,0,0,.26.13,1.88,1.88,0,0,0,.42,0s.24-.2.25-.26l.06,0c0,.1-.25.28-.27.3A1.22,1.22,0,0,1,15.53,10Z"/><path class="cls-34" d="M11.48,11.13a2.17,2.17,0,0,1-.65-.16c-.12-.05-.09-.48-.08-.67h.08a1.25,1.25,0,0,0,0,.59,1.66,1.66,0,0,0,.68.15,1.68,1.68,0,0,0,.71-.37,7.33,7.33,0,0,0,.58-.74l.06,0a6.48,6.48,0,0,1-.59.76,1.67,1.67,0,0,1-.75.38Z"/><path class="cls-34" d="M13.63,12.5h-.05a6.94,6.94,0,0,1-1.09-.32,4.82,4.82,0,0,1-.3-.66,2.5,2.5,0,0,1,.54-.72c.14-.11.81-.51,1-.59l.05.06a10.6,10.6,0,0,0-1,.59,3.25,3.25,0,0,0-.51.65,5.07,5.07,0,0,0,.29.62,8.3,8.3,0,0,0,1,.3,2.94,2.94,0,0,0,.85-.18,8.12,8.12,0,0,0,.74-.65l0,.07a9.79,9.79,0,0,1-.75.65A3.25,3.25,0,0,1,13.63,12.5Z"/><path class="cls-34" d="M14.16,12.07a4.59,4.59,0,0,1-.89-.08s-.56-.34-.58-.48a0,0,0,0,1,0,0l.2-.26c.13-.16.28-.35.33-.4a4.7,4.7,0,0,1,.84-.42l0,.06a5.47,5.47,0,0,0-.84.41l-.32.4-.2.25a2.22,2.22,0,0,0,.54.43,6,6,0,0,0,.89.06,4.07,4.07,0,0,0,.62-.6l.16-.17,0,.06a1.29,1.29,0,0,0-.15.16c-.39.41-.59.62-.68.63Z"/><path class="cls-34" d="M14,11.79l-.38,0h0L13,11.51l0,0a3.1,3.1,0,0,1,.36-.53c.09-.06.81-.42.84-.44l0,.06-.84.44a4.42,4.42,0,0,0-.32.47l.45.23a2.88,2.88,0,0,0,.59,0,2.7,2.7,0,0,0,.64-.64l0,0c0,.06-.49.61-.66.66A.86.86,0,0,1,14,11.79Z"/><path class="cls-34" d="M14,11.61c-.08,0-.42-.07-.43-.17a1.2,1.2,0,0,1,.06-.32,1.74,1.74,0,0,1,.36-.3,2.77,2.77,0,0,0,.39-.21l.05.06c-.13.08-.38.21-.43.23a1.53,1.53,0,0,0-.31.26,1.08,1.08,0,0,0,0,.27.85.85,0,0,0,.36.11,1.41,1.41,0,0,0,.5-.31c0-.06.08-.32.1-.42l.07,0a4,4,0,0,1-.1.42A1.34,1.34,0,0,1,14,11.61Z"/><path class="cls-34" d="M17.88,13.21h0a5.79,5.79,0,0,1-.93-.47,5.39,5.39,0,0,1-1-1.12,1.37,1.37,0,0,1,.35-.61c.15-.07.57-.29.57-.3l.07.05-.6.32c-.13.06-.29.44-.32.55a7.84,7.84,0,0,0,1,1.06,5.26,5.26,0,0,0,.89.44l.53-.52.05.05Z"/><path class="cls-34" d="M17.76,12.74a4.84,4.84,0,0,1-.83-.31h0l-.48-.75h0a4.2,4.2,0,0,1,.16-.51,3,3,0,0,1,.63-.33l.07.05a4.45,4.45,0,0,0-.64.32,4.29,4.29,0,0,0-.14.47l.45.7a4.68,4.68,0,0,0,.79.3,3,3,0,0,0,.58-.48s0,.05,0,.05a2.51,2.51,0,0,1-.61.5Z"/><path class="cls-34" d="M17.62,12.37h0A2.81,2.81,0,0,1,17,12c0-.06-.12-.56,0-.64l.59-.28.05.05-.6.3c-.06,0,0,.38,0,.55a5.06,5.06,0,0,0,.6.37c.05,0,.37-.19.64-.35l0,.07C17.74,12.35,17.65,12.37,17.62,12.37Z"/><path class="cls-34" d="M17.52,12.07h-.05c-.41-.31-.36-.38-.35-.4a1.73,1.73,0,0,1,.29-.35l.41-.09,0,.06-.42.1a2.42,2.42,0,0,0-.24.31,1.33,1.33,0,0,0,.32.31,1.28,1.28,0,0,0,.35-.08h0a1.51,1.51,0,0,0,.26-.24l.05.05a1.18,1.18,0,0,1-.29.26h0A1.84,1.84,0,0,1,17.52,12.07Z"/><path class="cls-34" d="M16,15h0a5.37,5.37,0,0,1-1.26-.51l-.12-.24c-.27-.52-.33-.68-.3-.74s.63-.93.71-1,.73-.53.76-.55l.06,0-.77.56c-.07.06-.64.89-.69,1a3.42,3.42,0,0,0,.3.67l.12.25A5.4,5.4,0,0,0,16,15a5.72,5.72,0,0,0,1.4-.58v.07A6.27,6.27,0,0,1,16,15Z"/><path class="cls-34" d="M16,14.61s-.34-.08-.53-.13c-.49-.14-.5-.18-.5-.2s-.07-.68-.08-.76h0a5,5,0,0,1,.52-.78l.72-.55.06,0-.74.57a5.43,5.43,0,0,0-.49.75c0,.25.05.65.07.72a5.57,5.57,0,0,0,1,.29,4.73,4.73,0,0,0,.81-.2,4.57,4.57,0,0,0,.54-.43l0,.08a4.7,4.7,0,0,1-.54.42A4.58,4.58,0,0,1,16,14.61Z"/><path class="cls-34" d="M15.88,14.31h0c-.15-.1-.65-.44-.58-.61a3.83,3.83,0,0,1,.42-.74c.11-.13.64-.58.66-.6l.06.05s-.56.47-.66.59a4.62,4.62,0,0,0-.41.72c0,.08.25.33.54.52l.77-.17.47-.72,0,.07-.46.72Z"/><path class="cls-34" d="M16.39,13.88a1.9,1.9,0,0,1-.69-.28,0,0,0,0,1,0,0l.09-.15a2.06,2.06,0,0,1,.28-.43l.55-.41.05.06-.56.41a3,3,0,0,0-.25.4l-.09.15a2.83,2.83,0,0,0,.61.22h0a1.64,1.64,0,0,0,.37-.27s.15-.27.25-.46l0,0a4,4,0,0,1-.24.46s-.32.29-.42.3Z"/><path class="cls-34" d="M17.48,16.65h0l-.25-.1c-.62-.24-.69-.27-.7-.31h0v0s.38-.68.44-.76.63-.52.7-.57l.05.05c-.25.2-.65.52-.69.57s-.35.59-.42.72c.09.05.45.19.65.26l.25.1a3.9,3.9,0,0,0,.77-.2,8.39,8.39,0,0,0,.91-.9l.08,0a11.86,11.86,0,0,1-1,.94A4.46,4.46,0,0,1,17.48,16.65Z"/><path class="cls-34" d="M17.66,16.34h0a3.5,3.5,0,0,1-.57-.3v0h0l.07-.18a3.74,3.74,0,0,1,.16-.39,4.85,4.85,0,0,1,.54-.43l.06,0a6.6,6.6,0,0,0-.54.44l-.15.37-.06.17a3.68,3.68,0,0,0,.5.24h0a3.66,3.66,0,0,0,.53-.17s.59-.6.64-.67l.09,0c0,.06-.64.67-.69.71A2.71,2.71,0,0,1,17.66,16.34Z"/><path class="cls-34" d="M17.57,16.11h0c-.08-.08-.26-.27-.19-.36s.56-.58.62-.64l.06,0c-.15.15-.58.57-.62.64s.06.14.17.25l.59-.13.31-.56.08,0-.34.6Z"/><path class="cls-34" d="M17.64,15.89v-.24c0-.08.31-.34.48-.48l.06,0a2.65,2.65,0,0,0-.46.46.33.33,0,0,0,0,.14l.44-.1a2.85,2.85,0,0,0,.19-.41l.07,0c-.11.28-.19.43-.23.44s-.43.1-.5.12Z"/><path class="cls-34" d="M16.49,17.62c-1.83,0-4.5-.8-7.91-2.37a6.22,6.22,0,0,1-4.83,2.16,9.3,9.3,0,0,1-2.27-.31h0v0c0-.1.46-2.56,1.7-2.7a1.54,1.54,0,0,1,.25-1.2c.27-.5.75-1.09,1.2-1.09h.06a1,1,0,0,1,.3-.73,3.72,3.72,0,0,1,2.77-1c.21,0,.42,0,.63,0a7.91,7.91,0,0,1,4.45-1.82A3.22,3.22,0,0,1,14.56,9a2.5,2.5,0,0,1,1.42.5,1.47,1.47,0,0,1,.51,1.14c.49,0,2,.26,2,2.45a2.11,2.11,0,0,0,1.25.47.78.78,0,0,0,.24,0h0a2.41,2.41,0,0,1-.49,2.68,3.4,3.4,0,0,1-3,1.38ZM8.57,15.2h0c3.41,1.58,6.07,2.38,7.9,2.38h0a3.36,3.36,0,0,0,3-1.37A2.37,2.37,0,0,0,20,13.59a.88.88,0,0,1-.24,0,2.13,2.13,0,0,1-1.28-.49h0c0-2.19-1.53-2.41-2-2.43h0v0c0-.93-.7-1.52-1.9-1.62h0a3.28,3.28,0,0,0-1.72-.46A8,8,0,0,0,8.4,10.41h0a4.68,4.68,0,0,0-.64,0,3.66,3.66,0,0,0-2.74,1,1,1,0,0,0-.3.72v0h-.1c-.41,0-.88.53-1.16,1.06s-.38,1-.25,1.2l0,0h0c-1.18.09-1.65,2.43-1.69,2.65a9,9,0,0,0,2.24.3,6.18,6.18,0,0,0,4.81-2.16Z"/><path class="cls-34" d="M13.34,17.08h-.05v0A4,4,0,0,0,15,16.62a7.76,7.76,0,0,0,3.43-3.51h0a7.73,7.73,0,0,1-3.44,3.53A4.2,4.2,0,0,1,13.34,17.08Z"/><path class="cls-34" d="M10.23,16v0a4.8,4.8,0,0,0,2.94-2.51h0l.07,0a3,3,0,0,0,2-1.56,1.88,1.88,0,0,1,1.21-1.17v0a1.93,1.93,0,0,0-1.17,1.15h0a2.94,2.94,0,0,1-2.05,1.57l-.06,0A4.86,4.86,0,0,1,10.23,16Z"/><path class="cls-34" d="M6.29,17a10.5,10.5,0,0,0-3.1-2.57l0,0A10.26,10.26,0,0,1,6.32,17Z"/><path class="cls-34" d="M7.23,16.44c-.92-3.22-2.53-4.3-2.54-4.31l0,0s1.63,1.09,2.56,4.33Z"/><path class="cls-34" d="M9,15.4l0,0c1.6-3.46,5.58-6.33,5.62-6.36l0,0S10.56,12,9,15.4Z"/><path class="cls-34" d="M19.52,15.52a3.1,3.1,0,0,1-2.1-.82h0c0-.08,0-.17-.05-.27a2.59,2.59,0,0,0-2.09-2.56h0a2.74,2.74,0,0,0-2-1.73h0a2.19,2.19,0,0,0-1.65,0,7.52,7.52,0,0,0-5.12,4.3l0,0a6.72,6.72,0,0,1,2.3-2.95A7.91,7.91,0,0,1,11.57,10a2.18,2.18,0,0,1,1.68.05,2.74,2.74,0,0,1,2.05,1.74,2.67,2.67,0,0,1,2.11,2.59c0,.1,0,.19,0,.27a3.05,3.05,0,0,0,2.52.76v0A2.34,2.34,0,0,1,19.52,15.52Z"/><path class="cls-35" d="M4.1,18s3.56-3.64,11.2-.23c-.16-1.27-2.93-5.78-6.72-5.27C6,12.87,4.5,16,4.1,18Z"/><path d="M4.07,18.07l0-.06a9.15,9.15,0,0,1,1.41-3.4A4.56,4.56,0,0,1,8.57,12.5a4.26,4.26,0,0,1,.61,0,6.09,6.09,0,0,1,4.32,2.2,7.41,7.41,0,0,1,1.82,3.11v0l0,0a15.09,15.09,0,0,0-6.07-1.45A7.41,7.41,0,0,0,4.12,18Zm5.11-5.58c-.2,0-.4,0-.6,0C5.85,12.9,4.49,16.21,4.13,18a5.42,5.42,0,0,1,1.22-.81,8.62,8.62,0,0,1,3.87-.85,15.09,15.09,0,0,1,6.06,1.45,7.47,7.47,0,0,0-1.81-3.06A6,6,0,0,0,9.18,12.49Z"/><path class="cls-34" d="M8.59,16.36l0,0a6.42,6.42,0,0,0,2.29-3.53h0A6.36,6.36,0,0,1,8.59,16.36Z"/><path class="cls-34" d="M9.74,16.35v0a11,11,0,0,0,3.18-2.22l0,0A11.2,11.2,0,0,1,9.74,16.35Z"/><path class="cls-34" d="M12.26,16.59A7,7,0,0,1,11,16.48v0a5.55,5.55,0,0,0,3.52-.38l0,0A4.81,4.81,0,0,1,12.26,16.59Z"/><path class="cls-34" d="M7.86,16.43A10.78,10.78,0,0,1,5.25,15l0,0a11,11,0,0,0,2.6,1.4Z"/><path class="cls-36" d="M19.28,16.87A6.16,6.16,0,0,1,22,23a2,2,0,0,1-3,.37,8.66,8.66,0,0,0-1.67-5.55C17.55,17.69,19.28,16.87,19.28,16.87Z"/><path class="cls-37" d="M21.48,22.92a4.49,4.49,0,0,0-.85-3.83A3.4,3.4,0,0,0,18.17,18c-.27-.06-.55-.17-.85-.21A8.66,8.66,0,0,1,19,23.33a1.57,1.57,0,0,0,.21.17C19.89,23.74,21.22,23.67,21.48,22.92Z"/><path class="cls-38" d="M21.48,22.92a4.49,4.49,0,0,0-.85-3.83A3.4,3.4,0,0,0,18.17,18c-.27-.06-.55-.17-.85-.21A8.66,8.66,0,0,1,19,23.33a1.57,1.57,0,0,0,.21.17C19.89,23.74,21.22,23.67,21.48,22.92Z"/><path class="cls-39" d="M20.63,19.42a.62.62,0,0,0,.59.64.56.56,0,0,0,.46-.25,5.86,5.86,0,0,0-.53-1A.63.63,0,0,0,20.63,19.42Z"/><path class="cls-40" d="M20.69,19.16a.55.55,0,0,0-.06.26.6.6,0,0,0,.54.63A5.32,5.32,0,0,0,20.69,19.16Z"/><path class="cls-3" d="M20.31,23.87A2,2,0,0,1,19,23.35h0c0-.21,0-.44,0-.68a7.81,7.81,0,0,0-1.62-4.87l0,0h0c.23-.09,1.94-.9,2-.91h0a6.9,6.9,0,0,1,1.63,1.57A5.71,5.71,0,0,1,22,23C21.94,23.32,21.18,23.87,20.31,23.87ZM19,23.32a1.91,1.91,0,0,0,1.31.51A1.8,1.8,0,0,0,22,23a5.69,5.69,0,0,0-1.08-4.51,6.9,6.9,0,0,0-1.61-1.55c-.14.06-1.65.78-1.93.89A8,8,0,0,1,19,22.66C19,22.9,19,23.12,19,23.32Z"/><path class="cls-41" d="M22,22.63c.24.08.56.85.41,1s-.93,0-1.07-.19S21.82,22.56,22,22.63Z"/><path class="cls-42" d="M21.89,22.76c.24.08.64.8.56.9s-.93,0-1.07-.19S21.67,22.68,21.89,22.76Z"/><path class="cls-43" d="M21.85,22.8c.24.08.65.72.57.82s-.87,0-1-.23S21.68,22.74,21.85,22.8Z"/><path class="cls-44" d="M22.48,23.67h0a.45.45,0,0,1-.35.08,1.24,1.24,0,0,1-.78-.27c-.08-.12,0-.33.16-.55s.4-.38.54-.34a1.12,1.12,0,0,1,.43.66C22.51,23.37,22.55,23.58,22.48,23.67ZM21.56,23c-.15.19-.21.38-.15.47a1.19,1.19,0,0,0,.72.25.43.43,0,0,0,.3-.06h0l0,0a.46.46,0,0,0,0-.35,1.16,1.16,0,0,0-.39-.62C21.93,22.63,21.73,22.77,21.56,23Z"/><path class="cls-45" d="M20.61,23.52c.06.25-.39.93-.63.91s-.52-.77-.43-1S20.55,23.3,20.61,23.52Z"/><path class="cls-46" d="M20.42,23.46c.07.25-.31,1-.44,1s-.52-.77-.43-1S20.37,23.24,20.42,23.46Z"/><path class="cls-47" d="M20.37,23.45c.06.25-.25.95-.37.93s-.47-.74-.37-1S20.33,23.28,20.37,23.45Z"/><path class="cls-44" d="M20,24.46h0c-.11,0-.2-.14-.27-.24a1.24,1.24,0,0,1-.19-.8c.06-.13.26-.2.55-.17s.53.12.57.26a1.09,1.09,0,0,1-.31.72C20.25,24.32,20.11,24.47,20,24.46Zm.08-1.14c-.25,0-.44,0-.48.12a1.19,1.19,0,0,0,.19.74c.08.13.16.21.22.22v0a.47.47,0,0,0,.29-.21,1.1,1.1,0,0,0,.3-.66C20.55,23.43,20.32,23.34,20.06,23.32Z"/><path class="cls-39" d="M19.59,18.14a.21.21,0,1,1-.41,0,.21.21,0,0,1,.21-.21A.2.2,0,0,1,19.59,18.14Z"/><path class="cls-40" d="M19.39,18.35a.2.2,0,0,0,.13-.06l-.33-.1A.2.2,0,0,0,19.39,18.35Z"/><path class="cls-39" d="M20.46,18.66c.05.23,0,.46-.18.49s-.33-.12-.39-.36,0-.46.18-.5S20.4,18.42,20.46,18.66Z"/><path class="cls-40" d="M19.91,18.46a.52.52,0,0,0,0,.33c.06.24.23.4.39.36s.17-.12.19-.27A1.83,1.83,0,0,0,19.91,18.46Z"/><path class="cls-40" d="M20.72,20.44c0,.22-.12.39-.27.39s-.28-.17-.28-.39.13-.38.28-.38S20.72,20.23,20.72,20.44Z"/><path class="cls-39" d="M21.7,20.77c.05.26-.06.5-.24.53s-.37-.15-.42-.41a.44.44,0,0,1,.24-.54C21.46,20.32,21.65,20.5,21.7,20.77Z"/><path class="cls-40" d="M21.3,20.35c-.21,0-.31.28-.26.54s.24.45.42.41a.16.16,0,0,0,.11-.05A4.86,4.86,0,0,0,21.3,20.35Z"/><path class="cls-40" d="M21.32,21.87a.25.25,0,1,1-.25-.29A.27.27,0,0,1,21.32,21.87Z"/><path class="cls-3" d="M18.85,21.23h0c0-.06.32-1.55.75-1.89a3,3,0,0,0-.35.65A7,7,0,0,0,18.85,21.23Z"/><path d="M2.78,17.87c-.25-.12-.32-.63-.32-.65h0s.07.51.31.62Z"/><path class="cls-48" d="M4,23.94A2.19,2.19,0,0,0,5.9,23c.24-.31-1.06-2.35-2.14-3.61A6.86,6.86,0,0,0,4,23.94Z"/><path class="cls-49" d="M5.36,22.81c-.18-1-1.12-1.69-1.79-2.44A6.67,6.67,0,0,0,4,23.91C4.77,23.72,5.51,23.62,5.36,22.81Z"/><path class="cls-50" d="M5.36,22.81c-.18-1-1.12-1.69-1.79-2.44A6.67,6.67,0,0,0,4,23.91C4.77,23.72,5.51,23.62,5.36,22.81Z"/><path class="cls-3" d="M4.1,24H4a6.93,6.93,0,0,1-.24-4.53v0l0,0c1,1.19,2.4,3.29,2.14,3.63A2.2,2.2,0,0,1,4.1,24Zm-.08,0H4.1A2.18,2.18,0,0,0,5.89,23c.22-.29-1-2.28-2.1-3.6A7,7,0,0,0,4,23.93Z"/><path class="cls-51" d="M5.65,22.75c.2,0,.59.53.51.69s-.7.19-.84.07S5.47,22.74,5.65,22.75Z"/><path class="cls-52" d="M5.56,22.87c.2,0,.64.48.6.57s-.7.19-.84.07S5.38,22.86,5.56,22.87Z"/><path class="cls-53" d="M5.54,22.91c.2,0,.63.42.59.51s-.66.15-.8,0S5.4,22.9,5.54,22.91Z"/><path class="cls-44" d="M6.18,23.45h0c0,.08-.15.12-.24.14a.92.92,0,0,1-.64-.07c-.08-.07-.08-.24,0-.44s.23-.36.34-.36.34.22.45.42S6.22,23.36,6.18,23.45Zm-.82-.35c-.08.18-.09.33,0,.39a1,1,0,0,0,.6.05c.11,0,.19-.06.21-.11h0a.39.39,0,0,0-.08-.27c-.12-.2-.31-.38-.41-.39S5.44,22.92,5.36,23.1Z"/><path class="cls-54" d="M8.64,19.35a8,8,0,0,1-.26-2.92h0c-1.13.11-2.46,1-4.46,2.61a4.13,4.13,0,0,0,.18.71C5.56,20.23,7.57,20.41,8.64,19.35Z"/><path class="cls-55" d="M8.65,19.34c-1.09,1.07-3.09.89-4.55.41.43,1.2,1.75,3.36,5.64,1.62A4.7,4.7,0,0,1,8.65,19.34Z"/><path class="cls-56" d="M15.73,18.71l-.27-.85a64.26,64.26,0,0,0-7.08-1.43,7.9,7.9,0,0,0,.23,2.86C9.45,20.22,13.46,20.15,15.73,18.71Z"/><path class="cls-57" d="M15.73,18.71c-.84.77-5.42,2-7.12.58a4.92,4.92,0,0,0,1.13,2.08h0c1.57.49,4.2,1.3,6.49-1.15C16,19.54,15.85,19.06,15.73,18.71Z"/><path class="cls-58" d="M9,18.22c-.23.5-.16.81.35,1.06a8.25,8.25,0,0,0,3.18.18c.65-.07.64-.7.47-1C12.72,17.8,9.36,17.55,9,18.22Z"/><path class="cls-59" d="M9.32,18.32c-.2.43-.15.7.3.91a7.17,7.17,0,0,0,2.74.16c.56-.06.55-.61.4-.9C12.48,18,9.59,17.74,9.32,18.32Z"/><path class="cls-60" d="M10.3,21.07c1.1.64,3.62.45,3.42-.52-.11-.56-2.91-.58-3.52-.34C9.79,20.38,9.89,20.83,10.3,21.07Z"/><path class="cls-61" d="M10.63,21c.86.51,2.83.36,2.68-.39-.09-.45-2.28-.46-2.75-.27S10.32,20.86,10.63,21Z"/><path class="cls-62" d="M5.21,20.68c-.33.56,1.78.94,2.82.67a.5.5,0,0,0,.23-.87A4.38,4.38,0,0,0,5.21,20.68Z"/><path class="cls-63" d="M5.45,20.71c-.28.48,1.51.79,2.39.57a.42.42,0,0,0,.2-.74A3.73,3.73,0,0,0,5.45,20.71Z"/><path class="cls-64" d="M6.9,18c-1,.21-1.62.5-1.65,1.23s2,.66,2.74,0C8.36,18.9,7.87,17.79,6.9,18Z"/><path class="cls-65" d="M6.86,18.17c-.84.18-1.34.42-1.37,1s1.67.55,2.28,0C8.07,18.92,7.67,18,6.86,18.17Z"/><path class="cls-66" d="M7.14,22h0a3,3,0,0,1-2.68-1.5A4.65,4.65,0,0,1,3.9,19h0c2.16-1.78,3.41-2.51,4.47-2.62a61.4,61.4,0,0,1,7.08,1.44h0l.78,2.37h0a4.88,4.88,0,0,1-3.73,1.69,9.09,9.09,0,0,1-2.77-.53A6.39,6.39,0,0,1,7.14,22Zm-3.2-3a4.49,4.49,0,0,0,.55,1.48A3,3,0,0,0,7.14,22a6.52,6.52,0,0,0,2.59-.65h0a9.4,9.4,0,0,0,2.77.53,4.9,4.9,0,0,0,3.7-1.67l-.77-2.34a61.33,61.33,0,0,0-7.06-1.43C7.34,16.55,6.09,17.28,3.94,19.05Z"/><path class="cls-66" d="M9.73,21.39a4.38,4.38,0,0,1-1.09-2,8.42,8.42,0,0,1-.28-2.92h0a8.28,8.28,0,0,0,.27,2.91h0a4.54,4.54,0,0,0,1.08,2Z"/><path class="cls-66" d="M6.33,20.15a4.63,4.63,0,0,1-.54,0,7.1,7.1,0,0,1-1.69-.36v0a7.91,7.91,0,0,0,1.68.36,3.67,3.67,0,0,0,2.85-.75v0l0,0a4.65,4.65,0,0,0,2.89.55,9.24,9.24,0,0,0,4.17-1.18l0,0a9.21,9.21,0,0,1-4.19,1.18,4.71,4.71,0,0,1-2.91-.55A3.31,3.31,0,0,1,6.33,20.15Z"/><path class="cls-67" d="M3.58,21.15s1,2.6.72,3.41-2.68,1.52-4,.53c-.67-.51-.1-1.58-.1-1.58-.17-.46,0-4.65,2.18-5.75,1.23-.62,2.24-.45,2.06.83A12.2,12.2,0,0,1,3.58,21.15Z"/><path class="cls-68" d="M2.54,20.58s1.26,2.85,1,3.66a2.18,2.18,0,0,1-3.19.85c-.67-.51-.1-1.58-.1-1.58-.17-.46,0-4.65,2.18-5.75,1.23-.62,1.42-.21,1.24.79A3.54,3.54,0,0,1,2.54,20.58Z"/><path class="cls-69" d="M3.66,18.55c.18-1,0-1.41-1.24-.79C.29,18.84.08,22.89.23,23.48a3.44,3.44,0,0,1,3.17-.42,19,19,0,0,0-1-2.49A3.44,3.44,0,0,0,3.66,18.55Z"/><path class="cls-70" d="M.23,23.48a0,0,0,0,1,0,0s-.57,1.07.1,1.58a2.18,2.18,0,0,0,3.19-.85,2.42,2.42,0,0,0-.13-1.18A3.43,3.43,0,0,0,.23,23.48Z"/><path class="cls-71" d="M2.69,23.38c.05.3-.44.64-1.08.75s-1.22,0-1.27-.34.43-.64,1.08-.75S2.63,23.08,2.69,23.38Z"/><path class="cls-40" d="M1,20.93a.54.54,0,0,0-.24-.71.29.29,0,0,0-.16,0c-.12.37-.22.75-.3,1.11l.09.05C.66,21.44.93,21.25,1,20.93Z"/><path class="cls-3" d="M2,25.59a2.67,2.67,0,0,1-1.62-.48c-.64-.5-.16-1.51-.11-1.6a7.68,7.68,0,0,1,.21-2.64,4.61,4.61,0,0,1,2-3.12,2.82,2.82,0,0,1,1.22-.35.83.83,0,0,1,.68.26,1.14,1.14,0,0,1,.18.94,6.15,6.15,0,0,1-.65,1.95,2.94,2.94,0,0,0-.24.6c.06.16,1,2.62.72,3.42C4.14,25.11,3,25.59,2,25.59Zm1.68-8.16a2.75,2.75,0,0,0-1.2.35,4.57,4.57,0,0,0-2,3.1A7.1,7.1,0,0,0,.26,23.5h0s-.56,1.06.09,1.56a2.67,2.67,0,0,0,1.6.47c1.07,0,2.16-.46,2.34-1,.26-.8-.71-3.37-.72-3.4h0a3.45,3.45,0,0,1,.25-.62,6.62,6.62,0,0,0,.65-1.94,1.08,1.08,0,0,0-.18-.91A.83.83,0,0,0,3.63,17.43Z"/><path class="cls-3" d="M.24,23.54l0,0a1,1,0,0,1,.42-.29A2.38,2.38,0,0,0,.24,23.54Z"/><path class="cls-3" d="M3.57,21.16a3.31,3.31,0,0,0-.52-.48,1.56,1.56,0,0,1,.55.46Z"/><path class="cls-72" d="M3.15,25.05c.16.26-.12,1.21-.39,1.27s-.88-.7-.85-1S3,24.82,3.15,25.05Z"/><path class="cls-73" d="M2.92,25.05a1.72,1.72,0,0,1-.16,1.27c-.28.05-.88-.7-.85-1S2.77,24.82,2.92,25.05Z"/><path class="cls-74" d="M2.85,25.06c.16.26,0,1.17-.09,1.2s-.8-.68-.77-1S2.74,24.88,2.85,25.06Z"/><path class="cls-44" d="M2.77,26.35h0c-.13,0-.29-.08-.4-.18a1.45,1.45,0,0,1-.5-.85c0-.17.23-.31.56-.38s.66-.06.75.09a1.3,1.3,0,0,1-.1.94C3,26.1,2.92,26.32,2.77,26.35ZM2.45,25c-.29.06-.49.19-.5.32a1.3,1.3,0,0,0,.48.78.5.5,0,0,0,.32.17v0c.08,0,.18-.15.26-.34a1.32,1.32,0,0,0,.11-.87C3.06,25,2.76,25,2.45,25Z"/><path class="cls-75" d="M1.42,25.19c0,.29-.6,1-.86.94s-.47-1-.33-1.21S1.39,24.93,1.42,25.19Z"/><path class="cls-76" d="M1.22,25.1c0,.29-.52,1.06-.66,1s-.47-1-.33-1.21S1.19,24.84,1.22,25.1Z"/><path class="cls-77" d="M1.15,25.08c0,.29-.43,1-.57,1s-.4-.92-.26-1.16S1.13,24.88,1.15,25.08Z"/><path class="cls-44" d="M.55,26.16h0c-.12,0-.21-.19-.26-.32a1.37,1.37,0,0,1-.09-.93c.08-.15.32-.18.65-.11s.58.23.6.39-.22.55-.47.77C.88,26.05.69,26.2.55,26.16Zm.28-1.29c-.28-.06-.5,0-.57.07a1.35,1.35,0,0,0,.1.87c.06.16.14.26.21.28v0c.08,0,.21-.05.36-.18a1.21,1.21,0,0,0,.45-.71C1.37,25.09,1.12,24.94.83,24.87Z"/><path class="cls-78" d="M4.36,24c.27.11.59,1,.41,1.2s-1.07,0-1.22-.29S4.12,23.94,4.36,24Z"/><path class="cls-79" d="M4.18,24.17c.27.11.68,1,.59,1.07s-1.07,0-1.22-.29S3.94,24.07,4.18,24.17Z"/><path class="cls-80" d="M4.13,24.22c.27.11.7.87.6,1s-1-.09-1.13-.33S4,24.14,4.13,24.22Z"/><path class="cls-44" d="M4.79,25.26h0a.48.48,0,0,1-.4.08A1.36,1.36,0,0,1,3.52,25c-.08-.14,0-.37.22-.62s.48-.41.63-.34.38.45.45.78C4.85,24.92,4.89,25.16,4.79,25.26Zm-1-.86c-.2.22-.28.43-.22.53a1.39,1.39,0,0,0,.81.34c.18,0,.3,0,.35-.06l0,0,0,0a.51.51,0,0,0,0-.4,1.21,1.21,0,0,0-.41-.74C4.24,24,4,24.18,3.8,24.4Z"/><path class="cls-40" d="M1.93,19.83c-.13.24-.37.37-.54.28a.45.45,0,0,1-.07-.6c.13-.24.37-.37.53-.28S2.05,19.58,1.93,19.83Z"/><path class="cls-40" d="M2,21c0,.19-.16.32-.29.29s-.22-.19-.19-.37.17-.32.3-.3A.32.32,0,0,1,2,21Z"/><path class="cls-40" d="M1.43,22c0,.23-.21.39-.38.36s-.28-.23-.24-.46.2-.39.38-.36S1.47,21.8,1.43,22Z"/><path class="cls-40" d="M.72,22.61c0,.16-.08.28-.17.28s-.16-.12-.16-.28.07-.28.16-.28S.72,22.46.72,22.61Z"/><path class="cls-81" d="M2.35,17.81C.72,18.83.27,21.49.27,22.54s1.06.48,1.07-.41A6.54,6.54,0,0,1,2.73,18C2.82,17.86,2.56,17.69,2.35,17.81Z"/><path class="cls-82" d="M15.94,21a7.45,7.45,0,0,0-1,2.17c-.05.11-1.31.46-.56,1.68a4.12,4.12,0,0,0,4.09.35c.37-.17,2.62-4-1.1-7.71-.69-.62-2.37-.88-2.43.33A10.5,10.5,0,0,0,15.94,21Z"/><path class="cls-83" d="M15.94,21a7.45,7.45,0,0,0-1,2.17c-.05.11-1.24.47-.6,1.49.28.33,1.25,1.12,3.33.27.37-.17,1.8-4.21-.91-7.34-.7-.62-1.76-1-1.82.23A10.5,10.5,0,0,0,15.94,21Z"/><path class="cls-84" d="M18.21,20.68a7,7,0,0,0-1.5-3.13c-.7-.62-1.76-1-1.82.23a10.5,10.5,0,0,0,1,3.18A3.7,3.7,0,0,1,18.21,20.68Z"/><path class="cls-85" d="M15,17.72a7.6,7.6,0,0,0,1,3c.59-.25,1-.19.79-.46a10.35,10.35,0,0,1-1.08-2.67C15.59,17.29,15,17.08,15,17.72Z"/><path class="cls-86" d="M14.29,24.62c.28.33,1.25,1.12,3.33.27a1,1,0,0,0,.27-.42,4.92,4.92,0,0,0-3-1.32C14.7,23.29,13.69,23.66,14.29,24.62Z"/><path class="cls-87" d="M16.44,24c-.05.25-.52.38-1.07.28s-.94-.38-.9-.64.53-.37,1.07-.28S16.49,23.77,16.44,24Z"/><path class="cls-88" d="M18.21,20.68a3.81,3.81,0,0,0-2.3.32,8.07,8.07,0,0,0-1,2.13,0,0,0,0,1,0,0,4.92,4.92,0,0,1,3,1.32A6.64,6.64,0,0,0,18.21,20.68Z"/><path class="cls-89" d="M16,21.05a5,5,0,0,0-.88,1.86c-.05.33.93.41,1,0a9,9,0,0,1,.7-2.05C16.9,20.77,16.33,20.77,16,21.05Z"/><path class="cls-39" d="M19.38,21.32a.57.57,0,0,0-.18,0,.75.75,0,0,0,0,1.47.45.45,0,0,0,.2,0A5.51,5.51,0,0,0,19.38,21.32Z"/><path class="cls-3" d="M16.62,25.54h0a3.53,3.53,0,0,1-2.3-.72,1.18,1.18,0,0,1-.22-.92,1.25,1.25,0,0,1,.65-.7.42.42,0,0,0,.13-.08,7.41,7.41,0,0,1,1-2.16,10.48,10.48,0,0,1-1.05-3.19.9.9,0,0,1,1-.86,2.35,2.35,0,0,1,1.44.53,6.21,6.21,0,0,1,2,5.64,3.67,3.67,0,0,1-.94,2.1A4.7,4.7,0,0,1,16.62,25.54ZM15.89,17a.86.86,0,0,0-1,.83A10,10,0,0,0,16,21h0a7.67,7.67,0,0,0-1.05,2.17s-.05.05-.14.09a1.23,1.23,0,0,0-.64.68,1.19,1.19,0,0,0,.22.89,3.53,3.53,0,0,0,2.27.7,4.83,4.83,0,0,0,1.79-.35,3.88,3.88,0,0,0,.92-2.08,6.15,6.15,0,0,0-2-5.6A2.29,2.29,0,0,0,15.89,17Z"/><path class="cls-3" d="M16,21l0,0a2,2,0,0,1,1.1-.26,4.33,4.33,0,0,0-.68.12A2.08,2.08,0,0,0,16,21Z"/><path class="cls-90" d="M16.58,25.31c.05.3-.57,1.08-.85,1s-.54-1-.41-1.24S16.53,25,16.58,25.31Z"/><path class="cls-91" d="M16.36,25.22c.06.3-.48,1.14-.63,1.11s-.54-1-.41-1.24S16.32,25,16.36,25.22Z"/><path class="cls-92" d="M16.3,25.2c0,.31-.4,1.11-.55,1.08s-.47-.94-.33-1.19S16.26,25,16.3,25.2Z"/><path class="cls-44" d="M15.73,26.37h0c-.13,0-.23-.19-.3-.32a1.5,1.5,0,0,1-.14-1c.08-.15.33-.2.67-.14s.63.2.66.37a1.37,1.37,0,0,1-.46.84C16.06,26.24,15.87,26.4,15.73,26.37ZM16,25c-.3-.06-.53,0-.59.1a1.4,1.4,0,0,0,.14.91c.08.16.17.26.24.27v0c.08,0,.22-.06.37-.21a1.22,1.22,0,0,0,.43-.76C16.52,25.2,16.25,25.07,16,25Z"/><path class="cls-93" d="M18.48,25c.16.23-.06,1.14-.32,1.2s-.85-.62-.83-.9S18.34,24.75,18.48,25Z"/><path class="cls-94" d="M18.26,25a1.53,1.53,0,0,1-.1,1.2c-.25.06-.85-.62-.83-.9S18.12,24.76,18.26,25Z"/><path class="cls-95" d="M18.2,25c.16.24.1,1.09,0,1.13s-.77-.61-.75-.89S18.09,24.82,18.2,25Z"/><path class="cls-44" d="M18.17,26.2h0c-.12,0-.27-.07-.37-.15a1.39,1.39,0,0,1-.51-.78c0-.16.2-.3.52-.38s.61-.08.7.06a1.2,1.2,0,0,1-.06.88C18.41,26,18.31,26.17,18.17,26.2ZM17.82,25c-.27.07-.45.19-.46.32a1.41,1.41,0,0,0,.48.71c.13.11.25.16.31.14v0c.07,0,.16-.14.23-.32a1.15,1.15,0,0,0,.06-.82C18.39,24.9,18.11,24.88,17.82,25Z"/><path class="cls-96" d="M14.85,24.9c-.1.27-1,.61-1.16.44s0-1.06.25-1.2S14.94,24.66,14.85,24.9Z"/><path class="cls-97" d="M14.72,24.73c-.1.27-.92.7-1,.61s0-1.06.25-1.2S14.81,24.49,14.72,24.73Z"/><path class="cls-98" d="M14.67,24.68c-.1.27-.83.71-.94.62s0-1,.29-1.12S14.74,24.5,14.67,24.68Z"/><path class="cls-44" d="M13.67,25.36h0c-.1-.08-.1-.26-.09-.39a1.32,1.32,0,0,1,.34-.86c.13-.09.36,0,.61.19s.41.46.36.61a1.21,1.21,0,0,1-.76.47C14,25.41,13.77,25.46,13.67,25.36Zm.81-1c-.21-.18-.42-.26-.52-.19a1.22,1.22,0,0,0-.31.8.49.49,0,0,0,.06.34l0,0,0,0a.52.52,0,0,0,.4,0,1.21,1.21,0,0,0,.71-.42C14.86,24.79,14.71,24.55,14.48,24.36Z"/><path class="cls-39" d="M18.79,20.67c0,.18-.17.31-.29.29s-.21-.19-.17-.38.16-.31.29-.28S18.82,20.49,18.79,20.67Z"/><path class="cls-40" d="M18.12,21.71c-.11.24-.32.37-.48.3a.43.43,0,0,1-.1-.56c.11-.24.33-.37.49-.3A.42.42,0,0,1,18.12,21.71Z"/><path class="cls-40" d="M18.3,23a.43.43,0,0,1-.47.37.48.48,0,0,1,.2-.91A.43.43,0,0,1,18.3,23Z"/><path class="cls-40" d="M17.63,24.24a.22.22,0,1,1,0-.34A.24.24,0,0,1,17.63,24.24Z"/><path class="cls-40" d="M19.2,23.34a.24.24,0,0,1-.22.26.23.23,0,0,1-.2-.27c0-.15.1-.27.21-.26A.24.24,0,0,1,19.2,23.34Z"/><path class="cls-99" d="M11.36,12h0c.05-.26-.58-.86-1.49-.45a3.12,3.12,0,0,0-1.37,0c0,.38.1.76.16,1.14.58-.29,1.84.18,2.23.2v0A1.48,1.48,0,0,1,11.36,12Z"/><path class="cls-100" d="M13.35,13.53h0a2.09,2.09,0,0,0-2-1.56,1.48,1.48,0,0,0-.46.93,4,4,0,0,0,1.73,1.39h0A1.12,1.12,0,0,0,13.35,13.53Z"/><path class="cls-101" d="M14.92,15.71a3.32,3.32,0,0,0-1.57-2.18,1.12,1.12,0,0,1-.72.76,2.87,2.87,0,0,0,1.55,1.94h0A1.09,1.09,0,0,0,14.92,15.71Z"/><path class="cls-102" d="M16.41,16.86h0a3.72,3.72,0,0,0-1.48-1.13v0a1.09,1.09,0,0,1-.73.53,2.2,2.2,0,0,0,2,1.3A1.06,1.06,0,0,0,16.41,16.86Z"/><path class="cls-103" d="M18.08,17.12h0a2.43,2.43,0,0,0-1.66-.27,1.06,1.06,0,0,1-.19.68h0a2,2,0,0,0,2.17.24A.93.93,0,0,0,18.08,17.12Z"/><path class="cls-104" d="M19.56,15.67a9.53,9.53,0,0,0-1.48,1.45.93.93,0,0,1,.32.66h0A1.81,1.81,0,0,0,20,16.4h0A1.06,1.06,0,0,0,19.56,15.67Z"/><path class="cls-105" d="M20.53,13.88c-.19-.6-.75-.53-.63-.32.52.55-.16,1.85-.33,2.11h0a1.06,1.06,0,0,1,.45.73A2.36,2.36,0,0,0,20.53,13.88Z"/><path class="cls-106" d="M11.36,12h0c0-.19-.3-.56-.83-.59a.93.93,0,0,0-.5.73c0,.37.58.71.94.49A1.21,1.21,0,0,1,11.36,12Z"/><path class="cls-107" d="M14.92,15.71a3.32,3.32,0,0,0-1.57-2.18,1.06,1.06,0,0,1-.42.61c-.12.9.8,1.64,1.43,2v0A1,1,0,0,0,14.92,15.71Z"/><path class="cls-108" d="M14.92,15.71a3.32,3.32,0,0,0-1.57-2.18,1.06,1.06,0,0,1-.42.61c-.12.9.8,1.64,1.43,2v0A1,1,0,0,0,14.92,15.71Z"/><path class="cls-109" d="M16.41,16.86h0a3.72,3.72,0,0,0-1.48-1.13v0a1,1,0,0,1-.56.48,2.13,2.13,0,0,0,2,1.19h0A1.27,1.27,0,0,0,16.41,16.86Z"/><path class="cls-110" d="M16.41,16.86h0a3.72,3.72,0,0,0-1.48-1.13v0a1,1,0,0,1-.56.48,2.13,2.13,0,0,0,2,1.19h0A1.27,1.27,0,0,0,16.41,16.86Z"/><path class="cls-111" d="M18.08,17.12h0a2.43,2.43,0,0,0-1.66-.27,1.27,1.27,0,0,1-.09.52,1.63,1.63,0,0,0,2,.2h0A.93.93,0,0,0,18.08,17.12Z"/><path class="cls-112" d="M18.08,17.12h0a2.43,2.43,0,0,0-1.66-.27,1.27,1.27,0,0,1-.09.52,1.63,1.63,0,0,0,2,.2h0A.93.93,0,0,0,18.08,17.12Z"/><path class="cls-113" d="M20.46,13.9c-.19-.67-.68-.55-.56-.34.52.55-.16,1.85-.33,2.11h0a.84.84,0,0,1,.37.46v0C20.69,15.62,20.58,14.34,20.46,13.9Z"/><path class="cls-114" d="M20.46,13.9c-.19-.67-.68-.55-.56-.34.52.55-.16,1.85-.33,2.11h0a.84.84,0,0,1,.37.46v0C20.69,15.62,20.58,14.34,20.46,13.9Z"/><path class="cls-115" d="M19.56,15.67a9.53,9.53,0,0,0-1.48,1.45.93.93,0,0,1,.29.46c.91,0,1.33-.75,1.56-1.45A.84.84,0,0,0,19.56,15.67Z"/><path class="cls-116" d="M19.56,15.67a9.53,9.53,0,0,0-1.48,1.45.93.93,0,0,1,.29.46c.91,0,1.33-.75,1.56-1.45A.84.84,0,0,0,19.56,15.67Z"/><path class="cls-117" d="M13.35,13.53h0a2.09,2.09,0,0,0-2-1.56,1.21,1.21,0,0,0-.39.63h0c.07.59,1.1,1.3,1.95,1.48a.22.22,0,0,0,0,.08A1.06,1.06,0,0,0,13.35,13.53Z"/><path class="cls-118" d="M13.35,13.53h0a2.09,2.09,0,0,0-2-1.56,1.21,1.21,0,0,0-.39.63h0c.07.59,1.1,1.3,1.95,1.48a.22.22,0,0,0,0,.08A1.06,1.06,0,0,0,13.35,13.53Z"/><path d="M9.48,12.61a1.06,1.06,0,0,1,.34-1.12l0,0a1,1,0,0,0-.32,1.08Z"/><path class="cls-119" d="M17.5,18a1.8,1.8,0,0,1-1.28-.47,2.19,2.19,0,0,1-2-1.31,2.81,2.81,0,0,1-1.55-1.95,3.88,3.88,0,0,1-1.74-1.4,4.48,4.48,0,0,1-.52-.1,5.27,5.27,0,0,0-1.2-.19,1.13,1.13,0,0,0-.49.09h0v0l0-.24c0-.3-.1-.61-.13-.91v0h0a3.36,3.36,0,0,1,1.38,0,1.5,1.5,0,0,1,.6-.14,1.05,1.05,0,0,1,.8.34.39.39,0,0,1,.11.26h.07a2.06,2.06,0,0,1,1.9,1.55,3.42,3.42,0,0,1,1.58,2.21,3.64,3.64,0,0,1,1.48,1.12,4.06,4.06,0,0,1,.51,0,2.25,2.25,0,0,1,1.14.31l.29-.31a6,6,0,0,1,1.21-1.15c.16-.25.84-1.53.32-2.08h0a.11.11,0,0,1,0-.11.17.17,0,0,1,.15-.07.59.59,0,0,1,.52.48A2.29,2.29,0,0,1,20,16.41a1.8,1.8,0,0,1-1.6,1.38A1.66,1.66,0,0,1,17.5,18ZM9.16,12.56a6.1,6.1,0,0,1,1.21.19,3.21,3.21,0,0,0,.52.1h0a3.8,3.8,0,0,0,1.73,1.4h0a2.8,2.8,0,0,0,1.54,1.94h0a2.17,2.17,0,0,0,2,1.3h0A1.78,1.78,0,0,0,17.5,18a1.71,1.71,0,0,0,.9-.22h0A1.8,1.8,0,0,0,20,16.4h0a2.3,2.3,0,0,0,.53-2.51.57.57,0,0,0-.49-.45.14.14,0,0,0-.12.05s0,0,0,.07c.54.57-.17,1.89-.33,2.13h0a5.84,5.84,0,0,0-1.2,1.14l-.29.31h0a2.3,2.3,0,0,0-1.14-.31,3.93,3.93,0,0,0-.52,0h0a3.59,3.59,0,0,0-1.47-1.12h0a3.37,3.37,0,0,0-1.58-2.19h0A2,2,0,0,0,11.44,12h-.1v0a.32.32,0,0,0-.09-.24,1,1,0,0,0-.78-.33,1.43,1.43,0,0,0-.59.13h0a3.39,3.39,0,0,0-1.35,0c0,.3.08.6.12.9a1.3,1.3,0,0,1,0,.21A1.11,1.11,0,0,1,9.16,12.56Z"/><path class="cls-120" d="M2.49,17.2h0c-1-.12-.77-.77-1-.6-.92,1.23.74,1.67,1.33,1.24A.75.75,0,0,1,2.49,17.2Z"/><path class="cls-121" d="M4,16.56H4a2.25,2.25,0,0,0-1.53.64.75.75,0,0,0,.3.65h0a1.9,1.9,0,0,0,1.76-1A1.11,1.11,0,0,1,4,16.56Z"/><path class="cls-122" d="M6.79,12.71c-1.15.2-1.63,1.6-1.66,2.12a1.55,1.55,0,0,0,.58.43,3.91,3.91,0,0,0,1.61-2A1.06,1.06,0,0,0,6.79,12.71Z"/><path class="cls-123" d="M8.58,12.72l.08-.05c-.06-.38-.12-.76-.16-1.14a2.91,2.91,0,0,0-1.71,1.18h0a1.06,1.06,0,0,1,.53.59h0A2.41,2.41,0,0,0,8.58,12.72Z"/><path class="cls-124" d="M5.13,14.83v0A2.69,2.69,0,0,0,4,16.56a1.11,1.11,0,0,0,.53.34h0c.86-.15,1.1-1.12,1.16-1.63h0A1.55,1.55,0,0,1,5.13,14.83Z"/><path class="cls-125" d="M4,16.56H4a2.25,2.25,0,0,0-1.53.64.91.91,0,0,0,.1.43l0,0a1.51,1.51,0,0,0,1.65-.82h0A1.44,1.44,0,0,1,4,16.56Z"/><path class="cls-126" d="M4,16.56H4a2.25,2.25,0,0,0-1.53.64.91.91,0,0,0,.1.43l0,0a1.51,1.51,0,0,0,1.65-.82h0A1.44,1.44,0,0,1,4,16.56Z"/><path class="cls-127" d="M5.13,14.83v0A2.69,2.69,0,0,0,4,16.56a1.44,1.44,0,0,0,.27.22c.84-.17,1.07-1.13,1.12-1.63l0,0A1.3,1.3,0,0,1,5.13,14.83Z"/><path class="cls-128" d="M5.13,14.83v0A2.69,2.69,0,0,0,4,16.56a1.44,1.44,0,0,0,.27.22c.84-.17,1.07-1.13,1.12-1.63l0,0A1.3,1.3,0,0,1,5.13,14.83Z"/><path class="cls-129" d="M6.79,12.71c-1.15.2-1.63,1.6-1.66,2.12a1.3,1.3,0,0,0,.33.29A3.44,3.44,0,0,0,7.11,13h0A.94.94,0,0,0,6.79,12.71Z"/><path class="cls-130" d="M6.79,12.71c-1.15.2-1.63,1.6-1.66,2.12a1.3,1.3,0,0,0,.33.29A3.44,3.44,0,0,0,7.11,13h0A.94.94,0,0,0,6.79,12.71Z"/><path class="cls-131" d="M8.5,11.53a2.91,2.91,0,0,0-1.71,1.18h0a.94.94,0,0,1,.34.26,2.16,2.16,0,0,0,1.34-.44s.16.16.19.14C8.6,12.29,8.54,11.91,8.5,11.53Z"/><path class="cls-132" d="M2.48,17.21c-1-.12-.77-.77-1-.6-.91,1.21.69,1.51,1.13,1a.91.91,0,0,1-.1-.43Z"/><path class="cls-133" d="M2.48,17.21c-1-.12-.77-.77-1-.6-.91,1.21.69,1.51,1.13,1a.91.91,0,0,1-.1-.43Z"/><path class="cls-119" d="M2.2,18a1.1,1.1,0,0,1-1-.48c-.09-.18-.13-.49.21-.95h0l.08,0c.06,0,.08.05.12.12a.92.92,0,0,0,.82.5A2.26,2.26,0,0,1,4,16.55a2.73,2.73,0,0,1,1.1-1.72c0-.49.49-1.93,1.67-2.14a3,3,0,0,1,1.71-1.18h0v0c0,.31.08.62.12.92l0,.23h0l-.08.05a2.73,2.73,0,0,1-1.22.57h0a4,4,0,0,1-1.61,2c-.05.44-.27,1.46-1.17,1.63a1.9,1.9,0,0,1-1.76,1A1.09,1.09,0,0,1,2.2,18Zm-.73-1.4a.88.88,0,0,0-.21.91A1.07,1.07,0,0,0,2.2,18a.93.93,0,0,0,.58-.16h0a1.83,1.83,0,0,0,1.74-.95h0c.89-.16,1.09-1.18,1.14-1.61h0a3.88,3.88,0,0,0,1.6-2h.07a2.64,2.64,0,0,0,1.2-.56l.07-.05,0-.22c0-.29-.09-.59-.13-.89a2.86,2.86,0,0,0-1.67,1.17h0c-1.18.2-1.63,1.64-1.66,2.12h0A2.75,2.75,0,0,0,4,16.57H4a2.19,2.19,0,0,0-1.53.65h0a1,1,0,0,1-.85-.52C1.57,16.6,1.55,16.58,1.47,16.63Z"/><path class="cls-134" d="M14.89,17.78a.82.82,0,0,1,.2-.54l-.18-.11L14.76,17C9.12,16,9.52,12.46,9.51,11.79a2,2,0,0,1-2.38-.11c1.1,4-1.76,5.3-2.9,5.64l-.2.16a.83.83,0,0,1,.46.94,13,13,0,0,1,3.59-2c1.27-.29,5.51,1.13,6.82,1.59A1.62,1.62,0,0,1,14.89,17.78Z"/><path class="cls-135" d="M8.74,12.76a1.22,1.22,0,0,1-1.43-.19,4,4,0,0,1-3.08,4.75l-.2.16a.83.83,0,0,1,.46.94,13,13,0,0,1,3.59-2,7.85,7.85,0,0,1,2.82.37A6.53,6.53,0,0,1,8.74,12.76Z"/><path class="cls-3" d="M4.47,18.46v0c0-.48-.12-.79-.45-.92H4l.23-.19c1.23-.36,4-1.64,2.88-5.62l0-.06,0,0a2,2,0,0,0,1.26.47h0a2,2,0,0,0,1.1-.35l0,0v.18c0,2.69,1.72,4.39,5.23,5.06h0l.15.11.18.11h0v0a.87.87,0,0,0-.19.53,1.7,1.7,0,0,0,0,.21v0h0c-1.09-.38-4.78-1.63-6.4-1.63a2.27,2.27,0,0,0-.41,0,12.81,12.81,0,0,0-3.59,2Zm-.4-1a.85.85,0,0,1,.44.91,12.48,12.48,0,0,1,3.57-2,1.71,1.71,0,0,1,.42,0c1.61,0,5.26,1.22,6.38,1.62a1.48,1.48,0,0,1,0-.2.92.92,0,0,1,.19-.53.86.86,0,0,1-.16-.1L14.75,17c-2.26-.43-3.82-1.29-4.63-2.57a4.38,4.38,0,0,1-.63-2.52v-.12a2,2,0,0,1-1.09.34h0a2.1,2.1,0,0,1-1.24-.43,4.43,4.43,0,0,1-.62,4.17,4.81,4.81,0,0,1-2.3,1.43Z"/><path class="cls-119" d="M10.91,12.87h0a1.68,1.68,0,0,1,.48-.92l0,0A1.61,1.61,0,0,0,10.91,12.87Z"/><path class="cls-119" d="M12.64,14.3v0a1,1,0,0,0,.69-.74h0A1.08,1.08,0,0,1,12.64,14.3Z"/><path class="cls-119" d="M14.19,16.25v0s.56-.14.72-.49l0,0C14.77,16.1,14.21,16.24,14.19,16.25Z"/><path class="cls-119" d="M16.24,17.55l0,0a1.09,1.09,0,0,0,.17-.65h0A1.1,1.1,0,0,1,16.24,17.55Z"/><path class="cls-119" d="M18.43,17.78h0a.8.8,0,0,0-.33-.63l0,0A.84.84,0,0,1,18.43,17.78Z"/><path class="cls-119" d="M20,16.41a1.16,1.16,0,0,0-.42-.73l0,0a1.2,1.2,0,0,1,.44.75Z"/><path class="cls-119" d="M2.78,17.87c-.25-.12-.32-.63-.32-.65h0s.07.51.31.62Z"/><path class="cls-119" d="M4.55,16.91c-.23,0-.53-.32-.54-.33l0,0s.3.31.52.32Z"/><path class="cls-119" d="M5.7,15.28a2.13,2.13,0,0,1-.59-.42l0,0a1.81,1.81,0,0,0,.57.42Z"/><path class="cls-119" d="M7.3,13.29a1,1,0,0,0-.51-.56v0a1.13,1.13,0,0,1,.54.59Z"/><path class="cls-136" d="M13.68,3c-.35-.28-.37-.3-.46-.58C12-1.47,9.39.53,9.39.53A4.5,4.5,0,0,0,5.93,1C4.24-.09,3.75,2.43,3.28,3.37S1.23,5.17,1.46,7c.41,3.05,4.18,4.37,4.85,4.74a2.17,2.17,0,0,0,3.53,0c1.83-.64,5.23-2.14,5.62-4.08A4.13,4.13,0,0,0,13.68,3Z"/><path class="cls-137" d="M13.56,3.18A1.19,1.19,0,0,1,13,2.45C12-1.49,9.39.53,9.39.53A4.5,4.5,0,0,0,5.93,1C4.24-.09,3.75,2.43,3.28,3.37S1.23,5.17,1.46,7c.41,3.05,3.59,4,4.36,4,2.28,2.88,3.9.63,4.68,0,1.6-.37,3.62-1.64,4.09-3.44C15.23,5,14.36,3.83,13.56,3.18Z"/><path class="cls-138" d="M5.93,1a1.12,1.12,0,0,0-1.75.4c-.63,1.05-.81,1.74-.42,1.86s1.41-.7,1.47-1.06A2.09,2.09,0,0,1,5.93,1Z"/><path class="cls-139" d="M3.79,2.2C4.21,1.09,4.76.76,5.12.77A1.36,1.36,0,0,1,5.9,1c-.06,0-.1.08-.18.17C5,.88,4.36,1.23,3.79,2.2Z"/><path class="cls-140" d="M9.39.53C7.24,2.31,9,5,7.19,5.12c-2.46.19-2.16-1.95-2-2.81.23-1.18.89-1.57,2-1.82A4.28,4.28,0,0,1,9.39.53Z"/><path class="cls-141" d="M13.08,3.1a3.64,3.64,0,0,1-2.8,2.84c-1,0-2.41-.57-2-3.31A2.88,2.88,0,0,1,10.9,0C12.31,0,13.08,1.89,13.08,3.1Z"/><path class="cls-142" d="M8.43,1.87A2.64,2.64,0,0,1,11,.07c.58,0,1.51.51,1.9,2.13C11.9.32,9.91,0,8.43,1.87Z"/><path class="cls-143" d="M3.42,7.94A5.56,5.56,0,0,0,8,9.61a5.72,5.72,0,0,0,3.71-2A6.85,6.85,0,0,1,7.83,9.35,6.2,6.2,0,0,1,3.42,7.94Z"/><path class="cls-40" d="M1.88,7.48a.45.45,0,0,0-.28.1,4,4,0,0,0,.29.7.42.42,0,0,0,.43-.41A.41.41,0,0,0,1.88,7.48Z"/><path class="cls-40" d="M1.62,6.18a.26.26,0,0,0-.15,0,3,3,0,0,0,0,.73,1.42,1.42,0,0,0,0,.2.22.22,0,0,0,.14,0,.46.46,0,0,0,.41-.5A.46.46,0,0,0,1.62,6.18Z"/><path class="cls-40" d="M2,5.05a4.68,4.68,0,0,0-.3.54.26.26,0,0,0,.23.12.33.33,0,0,0,.31-.34C2.18,5.19,2.11,5.06,2,5.05Z"/><path class="cls-144" d="M6.91.57A3.62,3.62,0,0,0,6.2.85.38.38,0,0,0,6.2,1a.42.42,0,0,0,.53.26A.41.41,0,0,0,7.06.78.32.32,0,0,0,6.91.57Z"/><path class="cls-144" d="M7.75.4a.19.19,0,0,0,0,.1A.46.46,0,0,0,8.14,1,.47.47,0,0,0,8.66.6.42.42,0,0,0,8.61.38,4.92,4.92,0,0,0,7.75.4Z"/><path class="cls-145" d="M14.44,8.16c-.24.41-.25.85,0,1a3.37,3.37,0,0,0,1-1.44l-.06,0C15.11,7.54,14.7,7.75,14.44,8.16Z"/><path class="cls-145" d="M15,6.44c-.05.4.14.75.43.78h.09a4.91,4.91,0,0,0,0-1.43A.67.67,0,0,0,15,6.44Z"/><path class="cls-145" d="M15,4.57a.58.58,0,0,0-.38.71.59.59,0,0,0,.66.48.56.56,0,0,0,.26-.17,3.8,3.8,0,0,0-.38-1A.45.45,0,0,0,15,4.57Z"/><path class="cls-40" d="M14.57,5.28a.63.63,0,0,0,.24.38,6.89,6.89,0,0,0-.15-.89A.64.64,0,0,0,14.57,5.28Z"/><path class="cls-3" d="M13.76,3.05l-.07,0c-.34-.28-.36-.3-.45-.58A4.14,4.14,0,0,0,12.14.47,1.85,1.85,0,0,0,10.86,0,2.91,2.91,0,0,0,9.39.51,3.77,3.77,0,0,0,8.2.35,4.78,4.78,0,0,0,5.93,1,1.47,1.47,0,0,0,5.14.71c-.84,0-1.26,1.11-1.6,2-.1.25-.19.48-.27.66a5,5,0,0,1-.61.79A3.46,3.46,0,0,0,1.44,7c.36,2.65,3.23,4,4.45,4.55l.41.2a2.38,2.38,0,0,0,1.8.88h0a2.24,2.24,0,0,0,1.75-.94c1.22-.42,5.2-2,5.63-4.08a4.26,4.26,0,0,0-.35-3A5.21,5.21,0,0,0,13.76,3.05Zm1.68,4.51C15,9.66,11,11.2,9.83,11.62h0a2.27,2.27,0,0,1-1.73.93h0a2.39,2.39,0,0,1-1.78-.88h0l-.41-.2C4.69,10.91,1.83,9.59,1.48,7a3.44,3.44,0,0,1,1.2-2.78,4,4,0,0,0,.62-.8,5.35,5.35,0,0,0,.27-.65c.34-.87.75-2,1.57-2A1.37,1.37,0,0,1,5.92,1h0A4.59,4.59,0,0,1,8.2.39,3.81,3.81,0,0,1,9.39.55h0A2.78,2.78,0,0,1,10.87,0c1,0,1.85.81,2.34,2.39.08.29.11.32.46.59l.07.06A4.06,4.06,0,0,1,15.44,7.56Z"/><path class="cls-3" d="M6.29,11.7l0,0a8.09,8.09,0,0,1-.56-.86A3.72,3.72,0,0,0,6.29,11.7Z"/><path class="cls-3" d="M9.83,11.62l0,0a2,2,0,0,1,.17-.2,3.82,3.82,0,0,0,.47-.57l-.49.54A2.45,2.45,0,0,0,9.83,11.62Z"/><path class="cls-3" d="M5.64,1.28A3.22,3.22,0,0,1,5.94,1l0,0A1.36,1.36,0,0,0,5.64,1.28Z"/><path class="cls-3" d="M8.51,1.65A4.6,4.6,0,0,1,9.4.55l0,0A3.08,3.08,0,0,0,8.51,1.65Z"/><path class="cls-146" d="M5.45,1.84c.66.18.67,1.6.47,2.44-.28,1.25-1.16,1.32-1.75,1a1.86,1.86,0,0,0-1-.33C3.08,3.23,4,1.45,5.45,1.84Z"/><path class="cls-147" d="M5.21,2.31c.63.25.83,1.2.63,2.05-.29,1.26-1.07,1.26-1.7,1a1.42,1.42,0,0,1-.59-1.9C3.86,2.67,4.61,2.09,5.21,2.31Z"/><path class="cls-148" d="M4.94,2.67a.24.24,0,0,0,.23.26.25.25,0,0,0,.27-.23.26.26,0,0,0-.24-.27A.24.24,0,0,0,4.94,2.67Z"/><path d="M3.56,3.4c-.37.95-.07,1.75.57,2a1.29,1.29,0,0,0,1.07,0,1.49,1.49,0,0,0,.66-1.06c.19-.81.07-1.92-.6-2.17S3.89,2.54,3.56,3.4Zm0,.08c.32-.83,1.07-1.36,1.63-1.15s.81,1.23.62,2a1.44,1.44,0,0,1-.64,1,1.22,1.22,0,0,1-1,0A1.41,1.41,0,0,1,3.57,3.48Z"/><path class="cls-149" d="M5,3c-.46,0-.9.46-1,1.09s.23,1.16.68,1.19.9-.46,1-1.08S5.49,3.06,5,3Z"/><path d="M5,3.54c-.31,0-.6.29-.65.7s.16.77.47.79.6-.29.65-.7S5.27,3.57,5,3.54Z"/><path class="cls-150" d="M5.38,4a.19.19,0,0,1-.25.13A.19.19,0,1,1,5.38,4Z"/><path class="cls-151" d="M4.62,3.26c-.24.15-.37.39-.29.54s.35.14.59,0,.38-.39.29-.54S4.86,3.11,4.62,3.26Z"/><path class="cls-137" d="M2.56,5.05l2.29,1A1.76,1.76,0,0,0,2.56,5.05Z"/><path class="cls-152" d="M4.52,5.55a2,2,0,0,0-.91,2.28c-1.19.07-2.08-.78-1.87-1.67A1.49,1.49,0,0,1,3.2,4.92,1.48,1.48,0,0,1,4.52,5.55Z"/><path class="cls-3" d="M3.92,5a1.67,1.67,0,0,0-1.37,0,1.83,1.83,0,0,1,1.34,0,1.9,1.9,0,0,1,1,1A1.79,1.79,0,0,0,3.92,5Z"/><path class="cls-153" d="M3.71,6.55,9.29,4.79C4.87,3.75,3.71,6.55,3.71,6.55Z"/><path class="cls-154" d="M11.47,6.87c0,1.23-2,2.39-4,2.39s-3.93-.7-3.93-1.92C3.51,6,5.27,4.49,7.64,4.56S11.47,5.65,11.47,6.87Z"/><path class="cls-155" d="M8.58,5.18c.08.47-.71,1-1.76,1.16s-2-.07-2-.55.71-1,1.76-1.16S8.51,4.71,8.58,5.18Z"/><path class="cls-3" d="M4.84,5.26A3.28,3.28,0,0,0,3.7,6.54a4.39,4.39,0,0,1,.51-.68,3.47,3.47,0,0,1,.65-.57,4.85,4.85,0,0,1,3.35-.67l1.09.15A5.46,5.46,0,0,0,4.84,5.26Z"/><path class="cls-3" d="M11.66,7.71a5.52,5.52,0,0,1-4,1.92A5.46,5.46,0,0,1,3.44,7.92l0,0a5,5,0,0,0,1.15.94,5.15,5.15,0,0,0,2.77.8l.3,0a5.52,5.52,0,0,0,4.05-1.92l.07-.08,0,0Z"/><path class="cls-3" d="M3.32,8,3.09,8h0a.93.93,0,0,0,.59-.23l-.21.11Z"/><path class="cls-3" d="M11.57,7.57c-.3-.12-.52-.23-.52-.23a2.8,2.8,0,0,0,1.44.46h.16s-.32,0-.48,0A2.49,2.49,0,0,1,11.57,7.57Z"/><path class="cls-156" d="M8.56,9.52a5.17,5.17,0,0,1-3.22-.26,5.86,5.86,0,0,1,.88,1.19C6.49,11,7,12,8,11.92s1.73-1.16,2.29-2.06A8.86,8.86,0,0,1,12.1,7.75c-.14,0-.33-.09-.36-.09A5.38,5.38,0,0,1,8.56,9.52Z"/><path class="cls-157" d="M5.34,9.26a5.86,5.86,0,0,1,.88,1.19c.08.15.21.43.33.63A1.46,1.46,0,0,1,7.47,9.7l.36-.07A4.83,4.83,0,0,1,5.34,9.26Z"/><path class="cls-158" d="M8.56,9.52l-.41.07a1.5,1.5,0,0,1,1.61,1.15c.2-.28.39-.59.57-.88A8.86,8.86,0,0,1,12.1,7.75c-.14,0-.33-.09-.36-.09A5.38,5.38,0,0,1,8.56,9.52Z"/><path class="cls-159" d="M8,10.63a1.23,1.23,0,0,0-1.65,0A1.85,1.85,0,0,0,8,11.92a2.48,2.48,0,0,0,1.8-1.29A1.52,1.52,0,0,0,8,10.63Z"/><path class="cls-160" d="M7.8,10.88A.69.69,0,0,0,6.5,11a1.69,1.69,0,0,0,1.54,1c.9-.07,1.46-.89,1.21-1.25S8.09,10.47,7.8,10.88Z"/><path class="cls-161" d="M6.52,11a1.74,1.74,0,0,0,1.08.88,2.07,2.07,0,0,1,.2-1A.67.67,0,0,0,6.52,11Z"/><path class="cls-162" d="M9.19,10.7c-.23-.33-1-.17-1.28.14a1.23,1.23,0,0,0-.22,1.05,1,1,0,0,0,.35,0C8.94,11.85,9.43,11.07,9.19,10.7Z"/><path class="cls-163" d="M8.94,10.29a1.8,1.8,0,0,0-1,.32,1.24,1.24,0,0,0-.82-.31,1.44,1.44,0,0,0-.84.33h0v0C6.53,11.08,7,12,8,11.94H8a2.59,2.59,0,0,0,1.82-1.3v0h0A1.37,1.37,0,0,0,8.94,10.29ZM8,11.9H8c-.94,0-1.39-.84-1.61-1.26a1.33,1.33,0,0,1,.8-.31,1.17,1.17,0,0,1,.8.31H8a1.85,1.85,0,0,1,1-.33,1.41,1.41,0,0,1,.88.31A2.49,2.49,0,0,1,8,11.9Z"/><path class="cls-163" d="M7.71,11.24A1.61,1.61,0,0,1,8,10.65l0,0A1.74,1.74,0,0,0,7.71,11.24Z"/><path class="cls-3" d="M11.75,7.64h0A5.35,5.35,0,0,1,8.55,9.5a6.61,6.61,0,0,1-1.21.14,4.78,4.78,0,0,1-2-.39l-.08,0,.06.07a5.58,5.58,0,0,1,.88,1.18l0,.1c.27.52.72,1.4,1.7,1.38H8c1.08-.07,1.71-1.1,2.26-2l0-.07a8.71,8.71,0,0,1,1.77-2.1l.06,0H12.1A2.57,2.57,0,0,1,11.75,7.64ZM10.31,9.85l0,.07c-.55.9-1.17,1.91-2.23,2s-1.47-.83-1.75-1.36l0-.1a6,6,0,0,0-.82-1.13,4.62,4.62,0,0,0,1.92.36,6.76,6.76,0,0,0,1.22-.13,5.37,5.37,0,0,0,3.19-1.86,2.83,2.83,0,0,0,.3.08A9.33,9.33,0,0,0,10.31,9.85Z"/><path class="cls-164" d="M4.7,6c-.14.06-.18.3-.08.54s.29.39.43.33.18-.3.09-.54S4.84,5.91,4.7,6Z"/><path class="cls-165" d="M4.58,6.39s0,.08,0,.12c.1.24.29.39.43.33s.13-.38.13-.38C5.1,6.89,4.7,6.62,4.58,6.39Z"/><path class="cls-166" d="M4.76,5.94H4.69a.28.28,0,0,0-.14.22.74.74,0,0,0,0,.35A.51.51,0,0,0,5,6.87h.07a.28.28,0,0,0,.14-.22.59.59,0,0,0,0-.34A.48.48,0,0,0,4.76,5.94Zm.41.7a.27.27,0,0,1-.12.19H5c-.13,0-.28-.14-.36-.34a.64.64,0,0,1,0-.33A.22.22,0,0,1,4.71,6h0c.13,0,.28.14.36.34A.65.65,0,0,1,5.17,6.64Z"/><path class="cls-164" d="M8.49,5.82c.15.06.19.31.09.57s-.31.41-.46.35S7.93,6.42,8,6.17,8.34,5.76,8.49,5.82Z"/><path class="cls-165" d="M8.62,6.27s0,.08,0,.12c-.1.25-.31.41-.46.35S8,6.33,8,6.33C8.07,6.79,8.49,6.51,8.62,6.27Z"/><path class="cls-166" d="M8,6.16A.72.72,0,0,0,8,6.53a.3.3,0,0,0,.15.23h.07c.16,0,.32-.15.41-.37A.72.72,0,0,0,8.65,6,.27.27,0,0,0,8.5,5.8H8.43C8.27,5.78,8.11,5.94,8,6.16Zm0,0c.08-.2.24-.35.38-.35h.06a.24.24,0,0,1,.12.2.63.63,0,0,1,0,.35c-.08.21-.24.36-.38.36l-.06,0A.22.22,0,0,1,8,6.52.65.65,0,0,1,8.05,6.17Z"/><path class="cls-40" d="M2.55,5.92a.24.24,0,0,0-.25.25.25.25,0,0,0,.26.24.26.26,0,0,0,.25-.25A.25.25,0,0,0,2.55,5.92Z"/><path class="cls-40" d="M2.53,7a.22.22,0,0,0-.22.19.21.21,0,0,0,.23.19c.12,0,.22-.09.21-.19A.2.2,0,0,0,2.53,7Z"/><path class="cls-144" d="M6.64,3.24a.17.17,0,0,0-.17.18.17.17,0,0,0,.18.17.18.18,0,1,0,0-.35Z"/><path class="cls-144" d="M7.38,2.2a.23.23,0,0,0-.24.21.23.23,0,0,0,.25.21.22.22,0,0,0,.23-.21A.22.22,0,0,0,7.38,2.2Z"/><path class="cls-144" d="M6.82,1.68c-.17,0-.31.11-.31.23s.14.22.32.22.31-.1.31-.23A.3.3,0,0,0,6.82,1.68Z"/><path class="cls-144" d="M8,1.15a.3.3,0,0,0-.3.28A.3.3,0,0,0,8,1.7a.29.29,0,0,0,.3-.28A.29.29,0,0,0,8,1.15Z"/><path class="cls-167" d="M9.32.53c-1.32,1-1.48,4-2.18,4s-.47-2.71-1.41-3.3A3.11,3.11,0,0,1,7.26.5,4.1,4.1,0,0,1,9.32.53Z"/><path class="cls-40" d="M14.37,5.9a.3.3,0,0,0-.29.32.31.31,0,0,0,.3.32.31.31,0,0,0,.29-.33A.31.31,0,0,0,14.37,5.9Z"/><path class="cls-40" d="M13.67,6.48a.24.24,0,0,0-.23.25.23.23,0,0,0,.23.24.24.24,0,0,0,.23-.25A.24.24,0,0,0,13.67,6.48Z"/><path class="cls-168" d="M10,1c-.83.22-.83,2-.59,3,.36,1.56,1.44,1.65,2.18,1.22a2.68,2.68,0,0,1,1.32-.44C13,2.36,11.85.55,10,1Z"/><path class="cls-169" d="M10.3,1.62c-.78.3-1,1.49-.79,2.54.37,1.57,1.34,1.58,2.12,1.27a1.76,1.76,0,0,0,.73-2.36C12,2.06,11,1.34,10.3,1.62Z"/><path class="cls-170" d="M10.67,2.06a.32.32,0,1,1-.33-.3A.31.31,0,0,1,10.67,2.06Z"/><path d="M10.24,1.46c-.84.32-1,1.7-.75,2.7a1.86,1.86,0,0,0,.82,1.32,1.58,1.58,0,0,0,1.33,0c.8-.31,1.17-1.31.71-2.49S11,1.19,10.24,1.46Zm1.38,4a1.49,1.49,0,0,1-1.29,0,1.84,1.84,0,0,1-.8-1.28c-.22-1,0-2.19.78-2.51s1.63.39,2,1.44A1.74,1.74,0,0,1,11.62,5.41Z"/><path class="cls-171" d="M10.85,2.43a1.37,1.37,0,0,0-.76,1.64c.13.78.69,1.3,1.24,1.17a1.38,1.38,0,0,0,.77-1.65C12,2.81,11.41,2.29,10.85,2.43Z"/><path d="M11,3.05a.9.9,0,0,0-.51,1.07c.09.51.47.85.84.76a.88.88,0,0,0,.52-1.07C11.72,3.31,11.34,3,11,3.05Z"/><path class="cls-172" d="M11.63,3.47a.25.25,0,0,1-.25.25.24.24,0,0,1-.24-.24.24.24,0,0,1,.24-.25A.26.26,0,0,1,11.63,3.47Z"/><path class="cls-173" d="M10.45,2.84c-.24.27-.3.61-.15.75s.46,0,.7-.23.3-.6.15-.74S10.68,2.58,10.45,2.84Z"/><path class="cls-174" d="M11.09,6.27l2.44-1.4A2,2,0,0,0,11.09,6.27Z"/><path class="cls-175" d="M14.42,5.44a1.71,1.71,0,0,1-.87,2.13c-.81.38-2.21.1-2.47-.45A2,2,0,0,1,12.15,5,1.92,1.92,0,0,1,14.42,5.44Z"/><path class="cls-176" d="M13.22,5.09c.09.21-.18.55-.61.74s-.85.17-.95,0,.17-.55.6-.74S13.12,4.87,13.22,5.09Z"/><path class="cls-3" d="M12,5a2,2,0,0,0-.92,1.29A2.16,2.16,0,0,1,12,5a2.14,2.14,0,0,1,1.5-.17A1.89,1.89,0,0,0,12,5Z"/><path class="cls-177" d="M14.89,17.78a1.5,1.5,0,0,1,0-.24,2.25,2.25,0,0,0-.38-.08,10.22,10.22,0,0,1-3-.93C8.71,15,8.38,16,8.38,16.43c0,.79,1.23.24,2.77.77a12.8,12.8,0,0,0,3.76.82A1.15,1.15,0,0,1,14.89,17.78Z"/><path class="cls-178" d="M14.9,17.88a1.87,1.87,0,0,1,0-.34,2.25,2.25,0,0,0-.38-.08,10.22,10.22,0,0,1-3-.93c-2.79-1.48-3.07-.61-3.11-.27-.05.54,1.25.16,2.78.72A13.45,13.45,0,0,0,14.9,17.88Z"/><path class="cls-179" d="M9,15.84c.79-.17,2.17.83,3.6,1.2.17,0,.15.24,0,.22-.54-.07-2.23-1-3.68-1C8.59,16.3,8.57,15.92,9,15.84Z"/><path class="cls-66" d="M14.93,18h0a12.53,12.53,0,0,1-3.76-.81,5.9,5.9,0,0,0-1.76-.28c-.62,0-1,0-1-.51a.71.71,0,0,1,.81-.75,5.66,5.66,0,0,1,2.36.83,10,10,0,0,0,3,.93,2.49,2.49,0,0,1,.38.08h0v0a.79.79,0,0,0,0,.23,2,2,0,0,0,0,.23ZM9.17,15.72c-.67,0-.77.45-.77.71,0,.43.37.45,1,.48a5.65,5.65,0,0,1,1.77.28,12.92,12.92,0,0,0,3.73.81,1,1,0,0,1,0-.23,1.7,1.7,0,0,1,0-.22,2.56,2.56,0,0,0-.36-.07,9.86,9.86,0,0,1-3-.94A5.7,5.7,0,0,0,9.17,15.72Z"/><path class="cls-180" d="M7.71,15.86c-.88,0-2.2,1.84-3.22,2.32a1.92,1.92,0,0,1,0,.41,5,5,0,0,1-.13.63c.49-.44,2-1.55,2.27-1.72a7,7,0,0,1,1.63-.64C8.51,16.69,8.69,15.86,7.71,15.86Z"/><path class="cls-181" d="M8,16.63c.3-.06.56-.65,0-.75l-.23,0c-.88,0-2.2,1.84-3.22,2.32a1.92,1.92,0,0,1,0,.41c0,.09,0,.17-.05.25S6.56,16.91,8,16.63Z"/><path class="cls-182" d="M7.66,15.94c-.81.1-1.8,1.47-3,2.28-.15.08-.07.27.07.21.49-.24,1.8-1.64,3.18-2.08C8.16,16.26,8.05,15.89,7.66,15.94Z"/><path class="cls-66" d="M4.31,19.28l0-.06a5,5,0,0,0,.13-.63,1.43,1.43,0,0,0,0-.41v0h0A6.61,6.61,0,0,0,5.91,17c.67-.61,1.3-1.2,1.8-1.2h0c.53,0,.69.26.73.41a.6.6,0,0,1-.2.62,1.41,1.41,0,0,1-.39.14,3.81,3.81,0,0,0-1.23.5c-.28.19-1.79,1.29-2.27,1.73Zm.2-1.09a1.46,1.46,0,0,1,0,.41,4.08,4.08,0,0,1-.11.57c.55-.48,2-1.53,2.23-1.69A4.16,4.16,0,0,1,7.85,17a1.6,1.6,0,0,0,.39-.13.57.57,0,0,0,.17-.58c-.07-.25-.31-.38-.69-.38h0c-.49,0-1.14.61-1.78,1.19A6.66,6.66,0,0,1,4.51,18.19Z"/></symbol></defs><g id="Layer_2" data-name="Layer 2"><g id="Layer_1-2" data-name="Layer 1"><g id="turtee-assets"><use width="22.52" height="26.37" xlink:href="#welcome-turtee"/></g></g></g></svg>