<svg xmlns="http://www.w3.org/2000/svg" xmlns:xlink="http://www.w3.org/1999/xlink" viewBox="0 0 18.06 28.93"><defs><style>.cls-1{isolation:isolate;}.cls-2{fill:url(#radial-gradient);}.cls-3{fill:url(#radial-gradient-2);}.cls-101,.cls-104,.cls-107,.cls-11,.cls-110,.cls-114,.cls-116,.cls-120,.cls-121,.cls-125,.cls-128,.cls-131,.cls-134,.cls-137,.cls-14,.cls-140,.cls-143,.cls-146,.cls-149,.cls-152,.cls-155,.cls-158,.cls-16,.cls-161,.cls-164,.cls-165,.cls-17,.cls-18,.cls-22,.cls-32,.cls-38,.cls-39,.cls-4,.cls-40,.cls-41,.cls-42,.cls-43,.cls-49,.cls-50,.cls-53,.cls-54,.cls-58,.cls-60,.cls-61,.cls-63,.cls-64,.cls-67,.cls-69,.cls-70,.cls-73,.cls-74,.cls-75,.cls-76,.cls-8,.cls-83,.cls-86,.cls-89,.cls-92,.cls-95,.cls-98{mix-blend-mode:screen;}.cls-4{fill:url(#linear-gradient);}.cls-5{fill:#d0a074;}.cls-6{fill:url(#radial-gradient-3);}.cls-7{fill:url(#radial-gradient-4);}.cls-8{fill:url(#linear-gradient-2);}.cls-9{fill:url(#radial-gradient-5);}.cls-10{fill:url(#radial-gradient-6);}.cls-11{fill:url(#linear-gradient-3);}.cls-12{fill:url(#radial-gradient-7);}.cls-13{fill:url(#radial-gradient-8);}.cls-14{fill:url(#linear-gradient-4);}.cls-15{fill:#2c7722;}.cls-16{fill:url(#radial-gradient-9);}.cls-17{fill:url(#linear-gradient-5);}.cls-18{fill:url(#linear-gradient-6);}.cls-19{fill:#244d16;}.cls-20{fill:url(#radial-gradient-10);}.cls-21{fill:url(#radial-gradient-11);}.cls-22{fill:url(#linear-gradient-7);}.cls-23{fill:url(#radial-gradient-12);}.cls-24{fill:url(#radial-gradient-13);}.cls-25{fill:url(#radial-gradient-14);}.cls-26{fill:#863609;}.cls-27{fill:url(#radial-gradient-15);}.cls-28{fill:url(#radial-gradient-16);}.cls-29{fill:url(#radial-gradient-17);}.cls-30{fill:url(#radial-gradient-18);}.cls-31{fill:url(#radial-gradient-19);}.cls-32{fill:url(#radial-gradient-20);}.cls-33{fill:#160d0c;}.cls-34{fill:url(#radial-gradient-21);}.cls-35{fill:url(#radial-gradient-22);}.cls-36{fill:url(#radial-gradient-23);}.cls-37{fill:url(#radial-gradient-24);}.cls-38{fill:url(#radial-gradient-25);}.cls-39{fill:url(#linear-gradient-8);}.cls-40{fill:url(#radial-gradient-26);}.cls-41{fill:url(#linear-gradient-9);}.cls-42{fill:url(#radial-gradient-27);}.cls-43{opacity:0.7;fill:url(#linear-gradient-10);}.cls-44{fill:url(#radial-gradient-28);}.cls-45{fill:url(#radial-gradient-29);}.cls-46{fill:url(#radial-gradient-30);}.cls-47{fill:url(#linear-gradient-11);}.cls-48{fill:url(#linear-gradient-12);}.cls-49{fill:url(#radial-gradient-31);}.cls-50{fill:url(#radial-gradient-32);}.cls-51{fill:#df4a4b;}.cls-52{fill:url(#radial-gradient-33);}.cls-53{fill:url(#radial-gradient-34);}.cls-54{fill:url(#linear-gradient-13);}.cls-55,.cls-65{mix-blend-mode:multiply;}.cls-55{fill:url(#radial-gradient-35);}.cls-56{fill:#fff;}.cls-57{fill:url(#radial-gradient-36);}.cls-58,.cls-67{opacity:0.6;}.cls-58{fill:url(#radial-gradient-37);}.cls-59{fill:url(#radial-gradient-38);}.cls-60,.cls-69{opacity:0.5;}.cls-60{fill:url(#radial-gradient-39);}.cls-61{fill:url(#linear-gradient-14);}.cls-62{fill:url(#radial-gradient-40);}.cls-63{fill:url(#radial-gradient-41);}.cls-64{fill:url(#linear-gradient-15);}.cls-65{fill:url(#radial-gradient-42);}.cls-66{fill:url(#radial-gradient-43);}.cls-67{fill:url(#radial-gradient-44);}.cls-68{fill:url(#radial-gradient-45);}.cls-69{fill:url(#radial-gradient-46);}.cls-70{fill:url(#linear-gradient-16);}.cls-71{fill:url(#radial-gradient-47);}.cls-72{fill:url(#radial-gradient-48);}.cls-73{fill:url(#radial-gradient-49);}.cls-74{fill:url(#linear-gradient-17);}.cls-75{fill:url(#radial-gradient-50);}.cls-76{fill:url(#linear-gradient-18);}.cls-77{fill:#14511b;}.cls-78{fill:#307a22;}.cls-79{fill:#26621e;}.cls-80{fill:#2d7521;}.cls-81{fill:url(#radial-gradient-51);}.cls-82{fill:url(#radial-gradient-52);}.cls-83{fill:url(#radial-gradient-53);}.cls-84{fill:url(#radial-gradient-54);}.cls-85{fill:url(#radial-gradient-55);}.cls-86{fill:url(#radial-gradient-56);}.cls-87{fill:url(#radial-gradient-57);}.cls-88{fill:url(#radial-gradient-58);}.cls-89{fill:url(#radial-gradient-59);}.cls-90{fill:url(#radial-gradient-60);}.cls-91{fill:url(#radial-gradient-61);}.cls-92{fill:url(#radial-gradient-62);}.cls-93{fill:url(#radial-gradient-63);}.cls-94{fill:url(#radial-gradient-64);}.cls-95{fill:url(#radial-gradient-65);}.cls-96{fill:url(#radial-gradient-66);}.cls-97{fill:url(#radial-gradient-67);}.cls-98{fill:url(#radial-gradient-68);}.cls-99{fill:url(#radial-gradient-69);}.cls-100{fill:url(#radial-gradient-70);}.cls-101{fill:url(#radial-gradient-71);}.cls-102{fill:url(#radial-gradient-72);}.cls-103{fill:url(#radial-gradient-73);}.cls-104{fill:url(#radial-gradient-74);}.cls-105{fill:url(#radial-gradient-75);}.cls-106{fill:url(#radial-gradient-76);}.cls-107{fill:url(#radial-gradient-77);}.cls-108{fill:url(#radial-gradient-78);}.cls-109{fill:url(#radial-gradient-79);}.cls-110{fill:url(#radial-gradient-80);}.cls-111{fill:url(#radial-gradient-81);}.cls-112{fill:url(#radial-gradient-82);}.cls-113{fill:url(#radial-gradient-83);}.cls-114{fill:url(#linear-gradient-19);}.cls-115{fill:url(#radial-gradient-84);}.cls-116{fill:url(#linear-gradient-20);}.cls-117{fill:#965e11;}.cls-118{fill:url(#radial-gradient-85);}.cls-119{fill:url(#radial-gradient-86);}.cls-120{fill:url(#linear-gradient-21);}.cls-121{fill:url(#linear-gradient-22);}.cls-122{fill:#25621e;}.cls-123{fill:url(#radial-gradient-87);}.cls-124{fill:url(#radial-gradient-88);}.cls-125{fill:url(#linear-gradient-23);}.cls-126{fill:url(#radial-gradient-89);}.cls-127{fill:url(#radial-gradient-90);}.cls-128{fill:url(#linear-gradient-24);}.cls-129{fill:url(#radial-gradient-91);}.cls-130{fill:url(#radial-gradient-92);}.cls-131{fill:url(#linear-gradient-25);}.cls-132{fill:url(#radial-gradient-93);}.cls-133{fill:url(#radial-gradient-94);}.cls-134{fill:url(#radial-gradient-95);}.cls-135{fill:url(#radial-gradient-96);}.cls-136{fill:url(#radial-gradient-97);}.cls-137{fill:url(#radial-gradient-98);}.cls-138{fill:url(#radial-gradient-99);}.cls-139{fill:url(#radial-gradient-100);}.cls-140{fill:url(#radial-gradient-101);}.cls-141{fill:url(#radial-gradient-102);}.cls-142{fill:url(#radial-gradient-103);}.cls-143{fill:url(#radial-gradient-104);}.cls-144{fill:url(#radial-gradient-105);}.cls-145{fill:url(#radial-gradient-106);}.cls-146{fill:url(#radial-gradient-107);}.cls-147{fill:url(#radial-gradient-108);}.cls-148{fill:url(#radial-gradient-109);}.cls-149{fill:url(#radial-gradient-110);}.cls-150{fill:url(#radial-gradient-111);}.cls-151{fill:url(#radial-gradient-112);}.cls-152{fill:url(#radial-gradient-113);}.cls-153{fill:url(#radial-gradient-114);}.cls-154{fill:url(#radial-gradient-115);}.cls-155{fill:url(#radial-gradient-116);}.cls-156{fill:url(#radial-gradient-117);}.cls-157{fill:url(#radial-gradient-118);}.cls-158{fill:url(#radial-gradient-119);}.cls-159{fill:url(#radial-gradient-120);}.cls-160{fill:url(#radial-gradient-121);}.cls-161{fill:url(#linear-gradient-26);}.cls-162{fill:url(#radial-gradient-122);}.cls-163{fill:url(#radial-gradient-123);}.cls-164{fill:url(#radial-gradient-124);}.cls-165{fill:url(#linear-gradient-27);}</style><radialGradient id="radial-gradient" cx="-91.38" cy="-454.93" r="0.77" gradientTransform="matrix(0.42, 0.91, -0.91, 0.42, -375.53, 292.85)" gradientUnits="userSpaceOnUse"><stop offset="0" stop-color="#f2e6d5"/><stop offset="1" stop-color="#e4c097"/></radialGradient><radialGradient id="radial-gradient-2" cx="-91.38" cy="-454.93" r="0.77" gradientTransform="matrix(0.42, 0.91, -0.91, 0.42, -375.53, 292.85)" gradientUnits="userSpaceOnUse"><stop offset="0" stop-color="#f4ede0"/><stop offset="0.36" stop-color="#f0e2cd"/><stop offset="1" stop-color="#e6c7a2"/></radialGradient><linearGradient id="linear-gradient" x1="-91.38" y1="-454.85" x2="-90.8" y2="-454.85" gradientTransform="matrix(0.42, 0.91, -0.91, 0.42, -375.53, 292.85)" gradientUnits="userSpaceOnUse"><stop offset="0" stop-color="#fff"/><stop offset="0.1" stop-color="#e5e5e5"/><stop offset="0.33" stop-color="#a3a3a3"/><stop offset="0.65" stop-color="#3a3a3a"/><stop offset="0.82"/><stop offset="1"/></linearGradient><radialGradient id="radial-gradient-3" cx="-230.45" cy="-342.13" r="0.77" gradientTransform="translate(-410.68 47.83) rotate(119.95)" xlink:href="#radial-gradient"/><radialGradient id="radial-gradient-4" cx="-230.45" cy="-342.13" r="0.77" gradientTransform="translate(-410.68 47.83) rotate(119.95)" xlink:href="#radial-gradient-2"/><linearGradient id="linear-gradient-2" x1="-230.45" y1="-342.04" x2="-229.87" y2="-342.04" gradientTransform="translate(-410.68 47.83) rotate(119.95)" xlink:href="#linear-gradient"/><radialGradient id="radial-gradient-5" cx="-247.59" cy="-240.05" r="0.77" gradientTransform="translate(-313.42 -120.79) rotate(159.66)" xlink:href="#radial-gradient"/><radialGradient id="radial-gradient-6" cx="-247.59" cy="-240.05" r="0.77" gradientTransform="translate(-313.42 -120.79) rotate(159.66)" xlink:href="#radial-gradient-2"/><linearGradient id="linear-gradient-3" x1="-247.6" y1="-239.96" x2="-247.02" y2="-239.96" gradientTransform="translate(-313.42 -120.79) rotate(159.66)" xlink:href="#linear-gradient"/><radialGradient id="radial-gradient-7" cx="1.79" cy="18.53" r="4.87" gradientUnits="userSpaceOnUse"><stop offset="0" stop-color="#48a528"/><stop offset="0.54" stop-color="#3b8f25"/><stop offset="1" stop-color="#2e7922"/></radialGradient><radialGradient id="radial-gradient-8" cx="1.79" cy="18.53" r="4.87" gradientUnits="userSpaceOnUse"><stop offset="0" stop-color="#5bb224"/><stop offset="0.88" stop-color="#459e26"/><stop offset="1" stop-color="#429b26"/></radialGradient><linearGradient id="linear-gradient-4" x1="3.77" y1="18.14" x2="5.16" y2="20.22" gradientUnits="userSpaceOnUse"><stop offset="0" stop-color="#91ca1f"/><stop offset="0.05" stop-color="#86bb1d"/><stop offset="0.34" stop-color="#4d6c11"/><stop offset="0.57" stop-color="#243208"/><stop offset="0.74" stop-color="#0a0e02"/><stop offset="0.83"/><stop offset="1"/></linearGradient><radialGradient id="radial-gradient-9" cx="1.31" cy="18.48" r="3.73" xlink:href="#linear-gradient-4"/><linearGradient id="linear-gradient-5" x1="1.5" y1="18.26" x2="2.19" y2="20.19" gradientUnits="userSpaceOnUse"><stop offset="0" stop-color="#bce496"/><stop offset="0.04" stop-color="#b2d88e"/><stop offset="0.33" stop-color="#677c52"/><stop offset="0.57" stop-color="#2f3926"/><stop offset="0.74" stop-color="#0d100a"/><stop offset="0.83"/><stop offset="1"/></linearGradient><linearGradient id="linear-gradient-6" x1="4.77" y1="18.35" x2="5.3" y2="19.15" xlink:href="#linear-gradient-5"/><radialGradient id="radial-gradient-10" cx="-167.11" cy="-163.91" r="0.77" gradientTransform="translate(-61.05 -206.13) rotate(-150.44)" xlink:href="#radial-gradient"/><radialGradient id="radial-gradient-11" cx="-167.11" cy="-163.91" r="0.77" gradientTransform="translate(-61.05 -206.13) rotate(-150.44)" xlink:href="#radial-gradient-2"/><linearGradient id="linear-gradient-7" x1="-167.12" y1="-163.82" x2="-166.54" y2="-163.82" gradientTransform="translate(-61.05 -206.13) rotate(-150.44)" xlink:href="#linear-gradient"/><radialGradient id="radial-gradient-12" cx="17.76" cy="24.82" r="4.19" xlink:href="#radial-gradient-7"/><radialGradient id="radial-gradient-13" cx="17.76" cy="24.82" r="4.19" xlink:href="#radial-gradient-8"/><radialGradient id="radial-gradient-14" cx="17.15" cy="25.37" r="1.31" gradientUnits="userSpaceOnUse"><stop offset="0" stop-color="#c75b0e"/><stop offset="1" stop-color="#a9480f"/></radialGradient><radialGradient id="radial-gradient-15" cx="16.04" cy="27.29" r="1.51" xlink:href="#radial-gradient-14"/><radialGradient id="radial-gradient-16" cx="14.23" cy="27.66" r="1.3" xlink:href="#radial-gradient-14"/><radialGradient id="radial-gradient-17" cx="13.01" cy="27.6" r="1.24" xlink:href="#radial-gradient-14"/><radialGradient id="radial-gradient-18" cx="16.68" cy="17.09" r="1.4" gradientUnits="userSpaceOnUse"><stop offset="0" stop-color="#66270b"/><stop offset="1" stop-color="#260707"/></radialGradient><radialGradient id="radial-gradient-19" cx="16.59" cy="17.15" r="1.16" gradientUnits="userSpaceOnUse"><stop offset="0" stop-color="#74300b"/><stop offset="1" stop-color="#491b07"/></radialGradient><radialGradient id="radial-gradient-20" cx="16.59" cy="17.15" r="1.16" gradientUnits="userSpaceOnUse"><stop offset="0" stop-color="#602a0c"/><stop offset="0.77"/><stop offset="1"/></radialGradient><radialGradient id="radial-gradient-21" cx="5.79" cy="12.01" r="2.95" xlink:href="#radial-gradient-7"/><radialGradient id="radial-gradient-22" cx="5.79" cy="12.01" r="2.95" xlink:href="#radial-gradient-8"/><radialGradient id="radial-gradient-23" cx="2.73" cy="4.58" r="9.44" gradientTransform="translate(0.05 0.07) rotate(0.07)" gradientUnits="userSpaceOnUse"><stop offset="0.12" stop-color="#48a528"/><stop offset="0.46" stop-color="#46a228"/><stop offset="0.68" stop-color="#419a26"/><stop offset="0.86" stop-color="#398b24"/><stop offset="1" stop-color="#2e7922"/></radialGradient><radialGradient id="radial-gradient-24" cx="2.73" cy="4.63" r="9.47" gradientTransform="translate(0.05 0.07) rotate(0.07)" xlink:href="#radial-gradient-8"/><radialGradient id="radial-gradient-25" cx="-8.6" cy="4.44" r="2.28" gradientTransform="translate(9.9 -0.5) rotate(-2.66)" xlink:href="#linear-gradient-4"/><linearGradient id="linear-gradient-8" x1="-8.54" y1="4.72" x2="-7.84" y2="5.09" gradientTransform="translate(9.9 -0.5) rotate(-2.66)" gradientUnits="userSpaceOnUse"><stop offset="0" stop-color="#5f5f5f"/><stop offset="0.13" stop-color="#4b4b4b"/><stop offset="0.44" stop-color="#222"/><stop offset="0.69" stop-color="#090909"/><stop offset="0.83"/><stop offset="1"/></linearGradient><radialGradient id="radial-gradient-26" cx="-6.66" cy="0.81" r="1.91" gradientTransform="translate(9.9 -0.5) rotate(-2.66)" xlink:href="#linear-gradient-4"/><linearGradient id="linear-gradient-9" x1="-6.51" y1="1.04" x2="-5.85" y2="1.83" gradientTransform="translate(9.9 -0.5) rotate(-2.66)" gradientUnits="userSpaceOnUse"><stop offset="0" stop-color="#5f5f5f"/><stop offset="0.29" stop-color="#393939"/><stop offset="0.65" stop-color="#101010"/><stop offset="0.83"/><stop offset="1"/></linearGradient><radialGradient id="radial-gradient-27" cx="-4.82" cy="9.72" r="2.57" gradientTransform="translate(9.9 -0.5) rotate(-2.66)" xlink:href="#linear-gradient-4"/><linearGradient id="linear-gradient-10" x1="1.24" y1="31.9" x2="3.81" y2="31.36" gradientTransform="matrix(0.91, 0, 0, 0.85, 3.58, -16.09)" gradientUnits="userSpaceOnUse"><stop offset="0" stop-color="#4c4c4c"/><stop offset="0.69" stop-color="#181818"/><stop offset="1"/></linearGradient><radialGradient id="radial-gradient-28" cx="5.91" cy="9.07" r="1.93" gradientTransform="translate(0.05 0.07) rotate(0.07)" gradientUnits="userSpaceOnUse"><stop offset="0" stop-color="#150c0c"/><stop offset="0.28" stop-color="#200a0a"/><stop offset="0.56" stop-color="#300707"/><stop offset="0.68" stop-color="#3b0807"/><stop offset="1" stop-color="#540a06"/></radialGradient><radialGradient id="radial-gradient-29" cx="5.84" cy="9.14" r="2.1" gradientTransform="translate(0.05 0.07) rotate(0.07)" gradientUnits="userSpaceOnUse"><stop offset="0" stop-color="#130c0c"/><stop offset="0.59" stop-color="#6a0a09"/><stop offset="0.72" stop-color="#7c0c08"/><stop offset="0.87" stop-color="#890e06"/><stop offset="1" stop-color="#8e0f06"/></radialGradient><radialGradient id="radial-gradient-30" cx="5.83" cy="9.14" r="2.1" xlink:href="#radial-gradient-29"/><linearGradient id="linear-gradient-11" x1="5.58" y1="10.75" x2="5.98" y2="9.41" gradientTransform="translate(0.05 0.07) rotate(0.07)" gradientUnits="userSpaceOnUse"><stop offset="0" stop-color="#f59e9f"/><stop offset="1" stop-color="#f17171"/></linearGradient><linearGradient id="linear-gradient-12" x1="5.54" y1="10.73" x2="5.94" y2="9.39" gradientTransform="translate(0.05 0.07) rotate(0.07)" gradientUnits="userSpaceOnUse"><stop offset="0" stop-color="#f0b8b8"/><stop offset="1" stop-color="#f79899"/></linearGradient><radialGradient id="radial-gradient-31" cx="-5.47" cy="10.37" r="0.91" gradientTransform="translate(9.9 -0.5) rotate(-2.66)" gradientUnits="userSpaceOnUse"><stop offset="0" stop-color="#f0b8b8"/><stop offset="0.02" stop-color="#e6b0b0"/><stop offset="0.12" stop-color="#aa8282"/><stop offset="0.23" stop-color="#765a5a"/><stop offset="0.33" stop-color="#4c3a3a"/><stop offset="0.43" stop-color="#2b2121"/><stop offset="0.53" stop-color="#130f0f"/><stop offset="0.62" stop-color="#050404"/><stop offset="0.69"/><stop offset="1"/></radialGradient><radialGradient id="radial-gradient-32" cx="-4.82" cy="10.35" r="1.25" xlink:href="#radial-gradient-31"/><radialGradient id="radial-gradient-33" cx="2.73" cy="4.58" r="9.44" gradientTransform="translate(0.05 0.07) rotate(0.07)" xlink:href="#radial-gradient-8"/><radialGradient id="radial-gradient-34" cx="-2.42" cy="0.23" r="4.59" gradientTransform="translate(9.9 -0.5) rotate(-2.66)" gradientUnits="userSpaceOnUse"><stop offset="0" stop-color="#91ca1f"/><stop offset="0" stop-color="#90c91f"/><stop offset="0.12" stop-color="#6a9417"/><stop offset="0.24" stop-color="#4a6710"/><stop offset="0.36" stop-color="#2f420a"/><stop offset="0.48" stop-color="#1a2506"/><stop offset="0.6" stop-color="#0c1003"/><stop offset="0.72" stop-color="#030401"/><stop offset="0.83"/><stop offset="1"/></radialGradient><linearGradient id="linear-gradient-13" x1="-2.03" y1="0.86" x2="-1.94" y2="3.19" xlink:href="#linear-gradient-9"/><radialGradient id="radial-gradient-35" cx="-2.72" cy="1.52" r="4.88" gradientTransform="translate(9.9 -0.5) rotate(-2.66)" gradientUnits="userSpaceOnUse"><stop offset="0" stop-color="#fff"/><stop offset="0.22" stop-color="#d1e6ca"/><stop offset="0.6" stop-color="#84be72"/><stop offset="0.87" stop-color="#55a53b"/><stop offset="1" stop-color="#429b26"/></radialGradient><radialGradient id="radial-gradient-36" cx="35.94" cy="38.77" r="2.88" gradientTransform="translate(-25.23 -37.93) rotate(6.41)" gradientUnits="userSpaceOnUse"><stop offset="0.54" stop-color="#e7e7e7"/><stop offset="0.66" stop-color="#e4e4e5"/><stop offset="0.74" stop-color="#dcdcdd"/><stop offset="0.8" stop-color="#cdcdd1"/><stop offset="0.86" stop-color="#b8b8bf"/><stop offset="0.91" stop-color="#9d9da8"/><stop offset="0.94" stop-color="#8c8c9a"/><stop offset="1" stop-color="#c5c5c5"/></radialGradient><radialGradient id="radial-gradient-37" cx="52.44" cy="-137.72" r="0.13" gradientTransform="matrix(2.11, 0.24, -0.24, 2.17, -136.72, 289.93)" gradientUnits="userSpaceOnUse"><stop offset="0.21" stop-color="#fff"/><stop offset="0.36" stop-color="#aeaeae"/><stop offset="0.52" stop-color="#646464"/><stop offset="0.64" stop-color="#2e2e2e"/><stop offset="0.74" stop-color="#0d0d0d"/><stop offset="0.79"/><stop offset="0.98"/></radialGradient><radialGradient id="radial-gradient-38" cx="39.1" cy="23.84" r="1.81" gradientTransform="matrix(0.99, 0.11, -0.12, 1.06, -27.95, -24.42)" gradientUnits="userSpaceOnUse"><stop offset="0" stop-color="#31b2d1"/><stop offset="0.13" stop-color="#2aa3c9"/><stop offset="0.32" stop-color="#1b85ba"/><stop offset="0.52" stop-color="#1b6bae"/><stop offset="0.93" stop-color="#1c298f"/><stop offset="1" stop-color="#1c1d89"/></radialGradient><radialGradient id="radial-gradient-39" cx="52.78" cy="-137.16" r="0.1" gradientTransform="matrix(2.11, 0.24, -0.24, 2.17, -136.72, 289.93)" gradientUnits="userSpaceOnUse"><stop offset="0" stop-color="#fff"/><stop offset="0.22" stop-color="#b3b3b3"/><stop offset="0.62" stop-color="#333"/><stop offset="0.79"/><stop offset="1"/></radialGradient><linearGradient id="linear-gradient-14" x1="15.89" y1="32.94" x2="16.31" y2="33.44" gradientTransform="matrix(1, 0.03, -0.03, 1, -7.44, -29.84)" gradientUnits="userSpaceOnUse"><stop offset="0" stop-color="#b9b9b9"/><stop offset="0.04" stop-color="#adadad"/><stop offset="0.33" stop-color="#646464"/><stop offset="0.57" stop-color="#2e2e2e"/><stop offset="0.75" stop-color="#0d0d0d"/><stop offset="0.85"/><stop offset="0.98"/></linearGradient><radialGradient id="radial-gradient-40" cx="-7.31" cy="4.83" r="9.43" gradientTransform="translate(9.9 -0.5) rotate(-2.66)" xlink:href="#radial-gradient-8"/><radialGradient id="radial-gradient-41" cx="-2.34" cy="5.84" r="2.31" xlink:href="#radial-gradient-34"/><linearGradient id="linear-gradient-15" x1="10.27" y1="6.71" x2="10.72" y2="7.8" gradientTransform="translate(-2.07 -1.1) rotate(1.04)" xlink:href="#linear-gradient-8"/><radialGradient id="radial-gradient-42" cx="-6.14" cy="1.23" r="3.65" xlink:href="#radial-gradient-35"/><radialGradient id="radial-gradient-43" cx="108.53" cy="36.16" r="2.32" gradientTransform="matrix(0.92, 0.39, -0.39, 0.92, -83.56, -72.5)" xlink:href="#radial-gradient-36"/><radialGradient id="radial-gradient-44" cx="85.36" cy="-139.26" r="0.1" gradientTransform="matrix(1.95, 0.84, -0.86, 2.01, -283.35, 211.22)" xlink:href="#radial-gradient-37"/><radialGradient id="radial-gradient-45" cx="110.23" cy="20.89" r="1.46" gradientTransform="matrix(0.92, 0.39, -0.42, 0.98, -89.42, -59.69)" xlink:href="#radial-gradient-38"/><radialGradient id="radial-gradient-46" cx="50.5" cy="-137.23" r="0.1" xlink:href="#radial-gradient-39"/><linearGradient id="linear-gradient-16" x1="86.83" y1="37.44" x2="87.16" y2="37.84" gradientTransform="translate(-67.38 -60.32) rotate(18.6)" xlink:href="#linear-gradient-14"/><radialGradient id="radial-gradient-47" cx="2.73" cy="4.58" r="9.44" xlink:href="#radial-gradient-23"/><radialGradient id="radial-gradient-48" cx="2.73" cy="4.58" r="9.44" gradientTransform="translate(0.05 0.07) rotate(0.07)" xlink:href="#radial-gradient-8"/><radialGradient id="radial-gradient-49" cx="-9.12" cy="6.27" r="6.29" gradientTransform="translate(9.9 -0.5) rotate(-2.66)" xlink:href="#linear-gradient-4"/><linearGradient id="linear-gradient-17" x1="14.3" y1="-7.68" x2="17.46" y2="-7.68" gradientTransform="translate(-13.28 12.5) rotate(3.8)" xlink:href="#linear-gradient-9"/><radialGradient id="radial-gradient-50" cx="-6.6" cy="1.25" r="3.81" gradientTransform="translate(9.9 -0.5) rotate(-2.66)" xlink:href="#linear-gradient-4"/><linearGradient id="linear-gradient-18" x1="-6.22" y1="1.6" x2="-4.14" y2="3.14" xlink:href="#linear-gradient-9"/><radialGradient id="radial-gradient-51" cx="14.68" cy="15.56" r="1.68" xlink:href="#radial-gradient-18"/><radialGradient id="radial-gradient-52" cx="14.67" cy="15.53" r="1.15" xlink:href="#radial-gradient-19"/><radialGradient id="radial-gradient-53" cx="14.67" cy="15.53" r="1.15" xlink:href="#radial-gradient-20"/><radialGradient id="radial-gradient-54" cx="15.05" cy="17.49" r="1.68" xlink:href="#radial-gradient-18"/><radialGradient id="radial-gradient-55" cx="15.02" cy="17.46" r="1.18" xlink:href="#radial-gradient-19"/><radialGradient id="radial-gradient-56" cx="15.02" cy="17.46" r="1.18" xlink:href="#radial-gradient-20"/><radialGradient id="radial-gradient-57" cx="16.26" cy="19.29" r="1.6" xlink:href="#radial-gradient-18"/><radialGradient id="radial-gradient-58" cx="16.19" cy="19.29" r="1.11" xlink:href="#radial-gradient-19"/><radialGradient id="radial-gradient-59" cx="16.19" cy="19.29" r="1.11" xlink:href="#radial-gradient-20"/><radialGradient id="radial-gradient-60" cx="15.98" cy="22.34" r="1.77" xlink:href="#radial-gradient-18"/><radialGradient id="radial-gradient-61" cx="15.96" cy="22.28" r="1.24" xlink:href="#radial-gradient-19"/><radialGradient id="radial-gradient-62" cx="15.96" cy="22.28" r="1.24" xlink:href="#radial-gradient-20"/><radialGradient id="radial-gradient-63" cx="14.41" cy="25.11" r="2.03" gradientUnits="userSpaceOnUse"><stop offset="0" stop-color="#5f230a"/><stop offset="1" stop-color="#260707"/></radialGradient><radialGradient id="radial-gradient-64" cx="14.31" cy="24.98" r="1.56" xlink:href="#radial-gradient-19"/><radialGradient id="radial-gradient-65" cx="14.31" cy="24.98" r="1.56" xlink:href="#radial-gradient-20"/><radialGradient id="radial-gradient-66" cx="13.89" cy="20.98" r="2.11" xlink:href="#radial-gradient-18"/><radialGradient id="radial-gradient-67" cx="13.72" cy="20.77" r="1.68" xlink:href="#radial-gradient-19"/><radialGradient id="radial-gradient-68" cx="13.72" cy="20.77" r="1.68" xlink:href="#radial-gradient-20"/><radialGradient id="radial-gradient-69" cx="11.28" cy="22.95" r="2.45" xlink:href="#radial-gradient-18"/><radialGradient id="radial-gradient-70" cx="11.27" cy="22.83" r="1.83" xlink:href="#radial-gradient-19"/><radialGradient id="radial-gradient-71" cx="11.27" cy="22.83" r="1.83" xlink:href="#radial-gradient-20"/><radialGradient id="radial-gradient-72" cx="12.1" cy="14.99" r="2.15" xlink:href="#radial-gradient-18"/><radialGradient id="radial-gradient-73" cx="12.05" cy="15.04" r="1.54" xlink:href="#radial-gradient-19"/><radialGradient id="radial-gradient-74" cx="12.05" cy="15.04" r="1.54" xlink:href="#radial-gradient-20"/><radialGradient id="radial-gradient-75" cx="12.17" cy="18.1" r="2.36" xlink:href="#radial-gradient-18"/><radialGradient id="radial-gradient-76" cx="12.23" cy="18.02" r="1.78" xlink:href="#radial-gradient-19"/><radialGradient id="radial-gradient-77" cx="12.23" cy="18.02" r="1.78" xlink:href="#radial-gradient-20"/><radialGradient id="radial-gradient-78" cx="9.2" cy="14.68" r="2.91" xlink:href="#radial-gradient-18"/><radialGradient id="radial-gradient-79" cx="9.34" cy="14.74" r="2.32" xlink:href="#radial-gradient-19"/><radialGradient id="radial-gradient-80" cx="9.34" cy="14.74" r="2.32" xlink:href="#radial-gradient-20"/><radialGradient id="radial-gradient-81" cx="5.39" cy="13.93" r="1.39" gradientUnits="userSpaceOnUse"><stop offset="0" stop-color="#f8c950"/><stop offset="1" stop-color="#f8a12a"/></radialGradient><radialGradient id="radial-gradient-82" cx="5.15" cy="15.51" r="1.43" xlink:href="#radial-gradient-81"/><radialGradient id="radial-gradient-83" cx="5.39" cy="13.93" r="1.39" gradientUnits="userSpaceOnUse"><stop offset="0" stop-color="#f6e86d"/><stop offset="0.59" stop-color="#f7ce54"/><stop offset="1" stop-color="#f7b941"/></radialGradient><linearGradient id="linear-gradient-19" x1="5.54" y1="13.33" x2="6.31" y2="13.33" gradientUnits="userSpaceOnUse"><stop offset="0" stop-color="#717171"/><stop offset="0.36" stop-color="#393939"/><stop offset="0.67" stop-color="#101010"/><stop offset="0.83"/><stop offset="1"/></linearGradient><radialGradient id="radial-gradient-84" cx="5.15" cy="15.51" r="1.43" xlink:href="#radial-gradient-83"/><linearGradient id="linear-gradient-20" x1="5.49" y1="16.35" x2="6.15" y2="16.35" xlink:href="#linear-gradient-19"/><radialGradient id="radial-gradient-85" cx="3.98" cy="22.11" r="5.41" xlink:href="#radial-gradient-7"/><radialGradient id="radial-gradient-86" cx="3.98" cy="22.11" r="5.41" xlink:href="#radial-gradient-8"/><linearGradient id="linear-gradient-21" x1="3.99" y1="21.7" x2="7.06" y2="22.68" xlink:href="#linear-gradient-4"/><linearGradient id="linear-gradient-22" x1="4.74" y1="21.65" x2="6.81" y2="22.53" gradientUnits="userSpaceOnUse"><stop offset="0" stop-color="#91c37a"/><stop offset="0.27" stop-color="#5c7c4d"/><stop offset="0.54" stop-color="#2b3924"/><stop offset="0.73" stop-color="#0c100a"/><stop offset="0.83"/><stop offset="1"/></linearGradient><radialGradient id="radial-gradient-87" cx="-154.01" cy="-323.02" r="0.77" gradientTransform="translate(-277.94 245.61) rotate(77.31)" xlink:href="#radial-gradient"/><radialGradient id="radial-gradient-88" cx="-154.01" cy="-323.02" r="0.77" gradientTransform="translate(-277.94 245.61) rotate(77.31)" xlink:href="#radial-gradient-2"/><linearGradient id="linear-gradient-23" x1="-154.02" y1="-322.94" x2="-153.44" y2="-322.94" gradientTransform="translate(-277.94 245.61) rotate(77.31)" xlink:href="#linear-gradient"/><radialGradient id="radial-gradient-89" cx="1.05" cy="-456.47" r="0.77" gradientTransform="translate(-241.92 410.22) rotate(32.48)" xlink:href="#radial-gradient"/><radialGradient id="radial-gradient-90" cx="1.05" cy="-456.47" r="0.77" gradientTransform="translate(-241.92 410.22) rotate(32.48)" xlink:href="#radial-gradient-2"/><linearGradient id="linear-gradient-24" x1="1.05" y1="-456.39" x2="1.63" y2="-456.39" gradientTransform="translate(-241.92 410.22) rotate(32.48)" xlink:href="#linear-gradient"/><radialGradient id="radial-gradient-91" cx="173.84" cy="-484.55" r="0.77" gradientTransform="matrix(1, -0.09, 0.09, 1, -123.81, 524.54)" xlink:href="#radial-gradient"/><radialGradient id="radial-gradient-92" cx="173.84" cy="-484.55" r="0.77" gradientTransform="matrix(1, -0.09, 0.09, 1, -123.81, 524.54)" xlink:href="#radial-gradient-2"/><linearGradient id="linear-gradient-25" x1="173.84" y1="-484.47" x2="174.42" y2="-484.47" gradientTransform="matrix(1, -0.09, 0.09, 1, -123.81, 524.54)" xlink:href="#linear-gradient"/><radialGradient id="radial-gradient-93" cx="8.69" cy="19.09" r="2.59" xlink:href="#radial-gradient-18"/><radialGradient id="radial-gradient-94" cx="8.7" cy="19.06" r="2.09" xlink:href="#radial-gradient-19"/><radialGradient id="radial-gradient-95" cx="8.7" cy="19.06" r="2.09" xlink:href="#radial-gradient-20"/><radialGradient id="radial-gradient-96" cx="5.75" cy="12.79" r="1.77" xlink:href="#radial-gradient-14"/><radialGradient id="radial-gradient-97" cx="5.75" cy="12.79" r="1.77" gradientUnits="userSpaceOnUse"><stop offset="0" stop-color="#d87f25"/><stop offset="1" stop-color="#c14e0c"/></radialGradient><radialGradient id="radial-gradient-98" cx="5.75" cy="12.79" r="1.77" gradientUnits="userSpaceOnUse"><stop offset="0" stop-color="#d87f25"/><stop offset="0.02" stop-color="#cf7a24"/><stop offset="0.17" stop-color="#915519"/><stop offset="0.31" stop-color="#5d3710"/><stop offset="0.44" stop-color="#351f09"/><stop offset="0.55" stop-color="#180e04"/><stop offset="0.66" stop-color="#060401"/><stop offset="0.73"/><stop offset="1"/></radialGradient><radialGradient id="radial-gradient-99" cx="6.96" cy="22.73" r="1.66" xlink:href="#radial-gradient-14"/><radialGradient id="radial-gradient-100" cx="6.96" cy="22.73" r="1.66" xlink:href="#radial-gradient-97"/><radialGradient id="radial-gradient-101" cx="6.97" cy="22.99" r="1.66" xlink:href="#radial-gradient-98"/><radialGradient id="radial-gradient-102" cx="6.25" cy="21.06" r="1.6" xlink:href="#radial-gradient-14"/><radialGradient id="radial-gradient-103" cx="6.25" cy="21.06" r="1.6" xlink:href="#radial-gradient-97"/><radialGradient id="radial-gradient-104" cx="6.25" cy="21.06" r="1.6" xlink:href="#radial-gradient-98"/><radialGradient id="radial-gradient-105" cx="5.86" cy="18.79" r="1.51" xlink:href="#radial-gradient-14"/><radialGradient id="radial-gradient-106" cx="5.86" cy="18.79" r="1.51" xlink:href="#radial-gradient-97"/><radialGradient id="radial-gradient-107" cx="5.86" cy="18.79" r="1.51" xlink:href="#radial-gradient-98"/><radialGradient id="radial-gradient-108" cx="6.04" cy="16.44" r="1.37" xlink:href="#radial-gradient-14"/><radialGradient id="radial-gradient-109" cx="6.04" cy="16.44" r="1.37" xlink:href="#radial-gradient-97"/><radialGradient id="radial-gradient-110" cx="6.04" cy="16.44" r="1.37" xlink:href="#radial-gradient-98"/><radialGradient id="radial-gradient-111" cx="6.62" cy="14.31" r="1.25" xlink:href="#radial-gradient-14"/><radialGradient id="radial-gradient-112" cx="6.62" cy="14.31" r="1.25" xlink:href="#radial-gradient-97"/><radialGradient id="radial-gradient-113" cx="6.62" cy="14.31" r="1.25" xlink:href="#radial-gradient-98"/><radialGradient id="radial-gradient-114" cx="7.35" cy="12.63" r="1.27" xlink:href="#radial-gradient-14"/><radialGradient id="radial-gradient-115" cx="7.35" cy="12.63" r="1.27" xlink:href="#radial-gradient-97"/><radialGradient id="radial-gradient-116" cx="7.35" cy="12.63" r="1.27" xlink:href="#radial-gradient-98"/><radialGradient id="radial-gradient-117" cx="8.4" cy="11.44" r="1.04" xlink:href="#radial-gradient-14"/><radialGradient id="radial-gradient-118" cx="8.4" cy="11.44" r="1.04" xlink:href="#radial-gradient-97"/><radialGradient id="radial-gradient-119" cx="8.4" cy="11.44" r="1.04" xlink:href="#radial-gradient-98"/><radialGradient id="radial-gradient-120" cx="-156.77" cy="-199.48" r="0.77" gradientTransform="translate(-186.42 190.91) rotate(88.03)" xlink:href="#radial-gradient"/><radialGradient id="radial-gradient-121" cx="-156.77" cy="-199.48" r="0.77" gradientTransform="translate(-186.42 190.91) rotate(88.03)" xlink:href="#radial-gradient-2"/><linearGradient id="linear-gradient-26" x1="-156.78" y1="-199.4" x2="-156.2" y2="-199.4" gradientTransform="translate(-186.42 190.91) rotate(88.03)" xlink:href="#linear-gradient"/><radialGradient id="radial-gradient-122" cx="6.13" cy="23.93" r="6.58" xlink:href="#radial-gradient-7"/><radialGradient id="radial-gradient-123" cx="6.13" cy="23.93" r="6.58" xlink:href="#radial-gradient-8"/><radialGradient id="radial-gradient-124" cx="6.05" cy="24.63" r="6.46" xlink:href="#linear-gradient-4"/><linearGradient id="linear-gradient-27" x1="6.54" y1="23.96" x2="9.73" y2="25.91" xlink:href="#linear-gradient-22"/></defs><g class="cls-1"><g id="Layer_2" data-name="Layer 2"><g id="Layer_1-2" data-name="Layer 1"><g id="turtee-assets"><g id="walk-end-turtee"><path class="cls-2" d="M.87,21.39c-.14.13-.76.09-.84-.07s.31-.64.5-.66S1,21.26.87,21.39Z"/><path class="cls-3" d="M.84,21.24a1.08,1.08,0,0,1-.81.08c-.07-.16.31-.64.5-.66S1,21.12.84,21.24Z"/><path class="cls-4" d="M.82,21.2c-.14.14-.71.2-.75.11s.31-.59.5-.61S.92,21.11.82,21.2Z"/><path class="cls-5" d="M0,21.33H0a.39.39,0,0,1,.06-.27c.11-.19.32-.41.45-.43s.23.1.32.3.13.4.05.47a.81.81,0,0,1-.6.07C.2,21.46.05,21.42,0,21.33ZM.8,21c-.08-.18-.19-.28-.27-.27s-.31.21-.42.4a.33.33,0,0,0,0,.23h0c0,.05.11.09.24.11a.76.76,0,0,0,.55-.05C.91,21.32.88,21.13.8,21Z"/><path class="cls-6" d="M.61,19.75c-.19,0-.52-.57-.43-.72s.7-.12.83,0S.78,19.78.61,19.75Z"/><path class="cls-7" d="M.71,19.64c-.19,0-.58-.53-.53-.61s.7-.12.83,0S.88,19.67.71,19.64Z"/><path class="cls-8" d="M.73,19.61c-.19,0-.57-.48-.52-.56s.66-.08.78.06S.86,19.63.73,19.61Z"/><path class="cls-5" d="M.16,19h0a.34.34,0,0,1,.25-.11A.92.92,0,0,1,1,19c.08.08.06.24-.05.43s-.26.33-.36.32S.3,19.53.2,19.33.11,19.1.16,19Zm.77.42c.09-.17.12-.31.06-.38A1,1,0,0,0,.42,19C.3,19,.22,19,.2,19h0c0,.05,0,.15,0,.27a.83.83,0,0,0,.37.42C.69,19.74.83,19.61.93,19.44Z"/><path class="cls-9" d="M1.51,18.7c-.13-.15,0-.77.13-.83s.61.36.63.54S1.62,18.83,1.51,18.7Z"/><path class="cls-10" d="M1.66,18.68a1,1,0,0,1,0-.81c.17-.06.61.36.63.54S1.77,18.81,1.66,18.68Z"/><path class="cls-11" d="M1.7,18.67c-.13-.15-.14-.73-.05-.76s.56.35.56.54S1.78,18.77,1.7,18.67Z"/><path class="cls-5" d="M1.63,17.85h0c.08,0,.19,0,.26.08a.91.91,0,0,1,.4.48c0,.11-.11.22-.32.3s-.41.09-.48,0a.85.85,0,0,1,0-.6C1.49,18,1.54,17.88,1.63,17.85Zm.32.81c.18-.06.3-.16.29-.24A.91.91,0,0,0,1.87,18c-.1-.06-.18-.09-.22-.07v0s-.1.1-.13.23a.79.79,0,0,0,0,.56C1.58,18.74,1.77,18.73,2,18.66Z"/><path class="cls-12" d="M6,17.11a4.12,4.12,0,0,1-2.41,2,1.94,1.94,0,0,0-1.48-.71A1.74,1.74,0,0,0,.47,20.1a1.72,1.72,0,0,0,1.3,1.82,3.47,3.47,0,0,0,2.7-.31A7.77,7.77,0,0,0,6.16,19l.21-1.52Z"/><path class="cls-13" d="M6,17.11a4.48,4.48,0,0,1-2.4,2,1.45,1.45,0,0,1,.17.48,1.66,1.66,0,0,0-.5-.79,2.09,2.09,0,0,0-1.16-.39,1.79,1.79,0,0,0-1.3,2.89,2.91,2.91,0,0,0,2.77.29c1.52-.4,2.15-1.89,2.18-3.38a1.37,1.37,0,0,1,.48-.9Z"/><path class="cls-14" d="M6,17.11a4,4,0,0,1-2.41,2,2,2,0,0,1,.14.33,1.8,1.8,0,0,1-.64,2.26l.49-.12c1.52-.4,2.15-1.89,2.18-3.38a1.37,1.37,0,0,1,.48-.9Z"/><path class="cls-15" d="M4.74,19.56a.31.31,0,1,1-.31-.3A.3.3,0,0,1,4.74,19.56Z"/><path class="cls-15" d="M5.41,19.31a.3.3,0,0,1-.32.27.29.29,0,0,1-.31-.27.32.32,0,0,1,.63,0Z"/><path class="cls-16" d="M3.31,18.83a2.09,2.09,0,0,0-1.16-.39,1.79,1.79,0,0,0-1.3,2.89,2.56,2.56,0,0,0,2.28.41C3.9,21.47,4.34,19.78,3.31,18.83Z"/><path class="cls-17" d="M3.85,19.78a1.69,1.69,0,0,0-2.42-1.1A1.86,1.86,0,0,0,.6,20.82,1.74,1.74,0,0,1,3.85,19.78Z"/><path class="cls-15" d="M4.61,19.05a.33.33,0,0,0,.36-.3.29.29,0,0,0-.12-.23,5.06,5.06,0,0,1-.57.35A.37.37,0,0,0,4.61,19.05Z"/><path class="cls-18" d="M5.91,17.29A3.72,3.72,0,0,1,3.6,19.17a1.09,1.09,0,0,1,.25.61A3.4,3.4,0,0,0,6,17.48.21.21,0,0,0,5.91,17.29Z"/><path class="cls-19" d="M2.8,22.09h0a4,4,0,0,1-1-.14A1.76,1.76,0,0,1,.44,20.09a1.9,1.9,0,0,1,.5-1.15,1.62,1.62,0,0,1,1.18-.53h0a2,2,0,0,1,1.48.71A4.14,4.14,0,0,0,6,17.1l0,0,.37.36L6.19,19a7.68,7.68,0,0,1-1.7,2.68A3.15,3.15,0,0,1,2.8,22.09Zm-.68-3.62A1.73,1.73,0,0,0,.5,20.1a1.71,1.71,0,0,0,1.28,1.8,4.32,4.32,0,0,0,1,.13,3,3,0,0,0,1.65-.45,7.58,7.58,0,0,0,1.68-2.64l.21-1.49-.29-.29a4.24,4.24,0,0,1-2.41,2h0l0,0a1.91,1.91,0,0,0-1.45-.7Z"/><path class="cls-20" d="M2.68,18.71c0-.2.57-.53.72-.44s.12.7,0,.83S2.65,18.88,2.68,18.71Z"/><path class="cls-21" d="M2.79,18.8c0-.19.53-.58.61-.53s.12.7,0,.83S2.76,19,2.79,18.8Z"/><path class="cls-22" d="M2.83,18.83c0-.19.46-.58.55-.53s.09.66,0,.78S2.8,19,2.83,18.83Z"/><path class="cls-5" d="M3.41,18.25h0a.34.34,0,0,1,.11.25,1,1,0,0,1-.12.62c-.07.07-.24.05-.43-.06s-.33-.25-.31-.36.24-.31.44-.4S3.33,18.2,3.41,18.25ZM3,19c.16.09.31.12.37.06a.83.83,0,0,0,.1-.57c0-.12,0-.2-.08-.22v0c-.05,0-.15,0-.27.05a.83.83,0,0,0-.42.37C2.69,18.78,2.82,18.92,3,19Z"/><path class="cls-19" d="M3.81,19.62a1.45,1.45,0,0,0-.21-.45l0,0A1.18,1.18,0,0,1,3.81,19.62Z"/><path class="cls-19" d="M1.94,20.22A1,1,0,0,1,2,19.71a1.24,1.24,0,0,1,.42-.51,1.34,1.34,0,0,0-.43,1Z"/><path class="cls-19" d="M1.56,20.85a1.12,1.12,0,0,1,.33-.59A.48.48,0,0,1,2,20.17.8.8,0,0,1,2.44,20,1.39,1.39,0,0,0,1.56,20.85Z"/><path class="cls-23" d="M12.55,27a3.84,3.84,0,0,0,2.32,1,3.78,3.78,0,0,0,3.07-1.23c.26-.55-.08-.53-.4-.28a1.87,1.87,0,0,1-1.55.22C15.59,26.68,12.55,27,12.55,27Z"/><path class="cls-24" d="M17.54,26.46a2.09,2.09,0,0,1-1.22.3,1.83,1.83,0,0,1-1.45.45c-.08.15-.3.17-.43.21a2.78,2.78,0,0,0,.61.1,3.15,3.15,0,0,0,2.71-.88C18,26.25,17.86,26.21,17.54,26.46Z"/><path class="cls-19" d="M15,28h-.16a3.85,3.85,0,0,1-2.34-1l0-.05h.06c.13,0,3.06-.3,3.45-.3h0a1,1,0,0,0,.45.09,2,2,0,0,0,1.08-.31.74.74,0,0,1,.38-.17.15.15,0,0,1,.13.07c.05.08,0,.22-.07.42A3.75,3.75,0,0,1,15,28Zm-2.41-1a3.82,3.82,0,0,0,2.25.94H15a3.68,3.68,0,0,0,2.88-1.21c.12-.24.1-.34.08-.37a.1.1,0,0,0-.08,0,.66.66,0,0,0-.35.16,2.08,2.08,0,0,1-1.11.32,1.06,1.06,0,0,1-.47-.09C15.6,26.71,13.07,27,12.62,27Z"/><path class="cls-25" d="M16.18,24.73a1.57,1.57,0,0,1,.47.7.75.75,0,0,1-.29.93c-.28.13-.62-.6-.62-.6Z"/><path class="cls-26" d="M16.29,26.41c-.28,0-.57-.61-.58-.63v0l.47-1.08,0,0a1.65,1.65,0,0,1,.48.72.78.78,0,0,1-.31,1Zm-.52-.65c.09.18.33.59.52.59h.05a.73.73,0,0,0,.28-.9,1.51,1.51,0,0,0-.43-.66Z"/><path class="cls-27" d="M14.78,26.3s-.13.86.33.84a1.66,1.66,0,0,0,1.42-.79c.1-.16-.37-.54-.58-.51A10.62,10.62,0,0,0,14.78,26.3Z"/><path class="cls-26" d="M15.09,27.17a.3.3,0,0,1-.23-.11c-.19-.22-.11-.74-.11-.76v0h0A11.32,11.32,0,0,1,16,25.81h0a.87.87,0,0,1,.57.39.17.17,0,0,1,0,.18,1.72,1.72,0,0,1-1.45.8Zm-.28-.85c0,.09-.06.52.1.7a.24.24,0,0,0,.2.09,1.64,1.64,0,0,0,1.39-.77h0a.13.13,0,0,0,0-.12.74.74,0,0,0-.54-.35A9.34,9.34,0,0,0,14.81,26.32Z"/><path class="cls-28" d="M13.44,26.44s-.3.72.21.83,1.25-.12,1.28-.41a2.14,2.14,0,0,0-.08-.67Z"/><path class="cls-26" d="M13.94,27.33h0a1.29,1.29,0,0,1-.29,0,.41.41,0,0,1-.28-.19,1,1,0,0,1,0-.68h0l1.45-.26v0a2,2,0,0,1,.08.68C14.94,27.13,14.4,27.33,13.94,27.33Zm-.48-.86a.86.86,0,0,0,0,.61.31.31,0,0,0,.23.16,1.2,1.2,0,0,0,.28,0c.47,0,.94-.2,1-.42a2,2,0,0,0-.07-.62Z"/><path class="cls-29" d="M12.43,27s.92.34,1.19-.05a.62.62,0,0,0,.08-.69H12.35Z"/><path class="cls-26" d="M13.14,27.21h0a2.29,2.29,0,0,1-.72-.14h0l-.09-.8h1.4v0a.64.64,0,0,1-.08.72A.61.61,0,0,1,13.14,27.21ZM12.46,27a2.22,2.22,0,0,0,.68.13h0A.55.55,0,0,0,13.6,27a.63.63,0,0,0,.09-.65h-1.3Z"/><path class="cls-30" d="M15.85,15.59a2.64,2.64,0,0,1,1.48,1.3c.37.92.14,2.06-.38,2.26s-1.66-1.36-1.66-1.36Z"/><path class="cls-31" d="M16.39,16.14c-.13,0-.21.2-.29.43a2.71,2.71,0,0,0,.27,1.17v0a.54.54,0,0,0,.46.39h.08c.15,0,.17-.49.17-.95S16.48,16.21,16.39,16.14Z"/><path class="cls-32" d="M16.39,16.14c-.13,0-.21.2-.29.43a2.71,2.71,0,0,0,.27,1.17v0a.54.54,0,0,0,.46.39h.08c.15,0,.17-.49.17-.95S16.48,16.21,16.39,16.14Z"/><path class="cls-33" d="M16.85,19.2c-.56,0-1.54-1.34-1.59-1.39h0l.56-2.25h0a2.77,2.77,0,0,1,1.5,1.32,2.57,2.57,0,0,1,0,1.83.82.82,0,0,1-.42.47Zm-1.53-1.42c.1.13,1,1.36,1.53,1.36l.09,0a.76.76,0,0,0,.39-.43,2.51,2.51,0,0,0,0-1.79,2.6,2.6,0,0,0-1.43-1.27Z"/><path class="cls-33" d="M16.84,18.22a.58.58,0,0,1-.51-.43v0A2.65,2.65,0,0,1,16,16.55c.09-.25.18-.43.35-.47h0s.74.55.73,1.12,0,1-.22,1Zm-.45-2.08c-.13,0-.21.2-.29.43a2.71,2.71,0,0,0,.27,1.17v0a.54.54,0,0,0,.46.39h.08c.15,0,.17-.49.17-.95S16.48,16.21,16.39,16.14Z"/><path class="cls-33" d="M16.61,17.92s-.08,0-.1-.09a4,4,0,0,0-.15-.38,2.54,2.54,0,0,1-.22-.66s0-.05,0-.07a.43.43,0,0,1,.23-.38h0a.69.69,0,0,1,.35.4c0,.07,0,.14.08.23a.89.89,0,0,1,.1.58C16.88,17.72,16.72,17.92,16.61,17.92ZM16.4,16.4a.39.39,0,0,0-.18.33s0,.05,0,.07a3,3,0,0,0,.22.63c.07.17.13.31.15.38s0,.05,0,.05.21-.15.28-.33a.92.92,0,0,0-.1-.54,1.44,1.44,0,0,1-.09-.24A.68.68,0,0,0,16.4,16.4Z"/><path class="cls-33" d="M16.62,17.55q-.11,0-.3-.54a.37.37,0,0,1,0-.3.17.17,0,0,1,.11-.06c.17,0,.35.25.37.55s0,.28-.12.34h0Zm-.21-.84h0l-.06,0a.4.4,0,0,0,0,.25,1.57,1.57,0,0,0,.25.5h0c.06,0,.1-.08.09-.28S16.53,16.71,16.41,16.71Z"/><path class="cls-33" d="M16.58,17.27h0a.1.1,0,0,1-.07,0,.4.4,0,0,1-.08-.18v0c0-.05,0-.12.05-.14h0s.12.08.13.17a.28.28,0,0,1,0,.2ZM16.5,17a.17.17,0,0,0,0,.07v0s.06.16.09.16h0s0-.06,0-.15A.23.23,0,0,0,16.5,17Z"/><path class="cls-34" d="M10.09,13.87c-.14-.54-.38-1-.48-1.59a2.42,2.42,0,0,1-.59-.5,2.14,2.14,0,0,1-.25-1.37,7.08,7.08,0,0,0-2.09.52,2.49,2.49,0,0,1,.18,1.13,3.63,3.63,0,0,0,1.2,3.14,5,5,0,0,1,2.17-1A.87.87,0,0,1,10.09,13.87Z"/><path class="cls-35" d="M8.38,12.11a2.4,2.4,0,0,0,0-1.3,3.5,3.5,0,0,1-1.59.48,4.15,4.15,0,0,1,0,.55A2.6,2.6,0,0,1,7.37,13l.1-.15C7.69,12.54,8.15,12.41,8.38,12.11Z"/><path class="cls-19" d="M6.9,12.06A2.62,2.62,0,0,0,6.74,11a6.93,6.93,0,0,1,2-.5A2.15,2.15,0,0,0,9,11.8a2.34,2.34,0,0,0,.64.53s0,0,0-.06v0a2.2,2.2,0,0,1-.55-.48,1.93,1.93,0,0,1-.25-1.34v0H8.77a7,7,0,0,0-2.11.53h0l0,0a2.75,2.75,0,0,1,.17,1.12,4.31,4.31,0,0,0,0,.63,3.08,3.08,0,0,0,.2.8A5.09,5.09,0,0,1,6.9,12.06Z"/><path class="cls-36" d="M9,1.21A3.32,3.32,0,0,0,4.72.57C3.87.49,2.83.19,3,2.49c-.24.57-.56,1.53-.64,1.59S1,4.24,1.65,5.64a21.06,21.06,0,0,0,2,3.72c.54.64.65,1.26,1.19,1.65a1.61,1.61,0,0,0,1.84,0,6.25,6.25,0,0,1,2.05-.54,5,5,0,0,0,2.93-1,2.9,2.9,0,0,0,.65-4A4.17,4.17,0,0,0,9,1.21Z"/><path class="cls-37" d="M10.08,1.85A1.37,1.37,0,0,1,10,2.4a4.51,4.51,0,0,0-.2-.86A5.82,5.82,0,0,0,9,1.21,3.32,3.32,0,0,0,4.72.57C3.87.49,2.83.19,3,2.49c-.24.57-.56,1.53-.64,1.59S1,4.24,1.65,5.64A15,15,0,0,0,3.76,9.22c.39.58.59,1.47,1.11,1.79,1.52.77,2.06-.93,2.64-.64,0,0-.14.16-.11.15C8,10.27,10.3,9.91,11.17,9a3.06,3.06,0,0,0,.45-4A3,3,0,0,0,10.08,1.85Z"/><path class="cls-38" d="M1.62,5.57c-.16-.4-.25-.8-.1-1S1.88,4.11,2.76,4A1,1,0,0,1,3,5.27C2.68,5.79,1.84,6,1.62,5.57Z"/><path class="cls-39" d="M2.19,4.29c.18.09.21.38.07.65s-.38.43-.55.34a.49.49,0,0,1-.11-.66C1.73,4.35,2,4.21,2.19,4.29Z"/><path class="cls-40" d="M4.79.61C4.25.54,3.7.42,3.31.79a3,3,0,0,0-.18,2.5A5.26,5.26,0,0,1,4.79.61Z"/><path class="cls-41" d="M3.08,2.45A1.86,1.86,0,0,1,3.39.8c.2-.2.76-.37,1.73-.11C3.85.68,3.07,1.05,3.08,2.45Z"/><path class="cls-42" d="M8.91,7.52C7.58,8.1,8.3,10,6.69,11a1.55,1.55,0,0,1-2-.07,6.15,6.15,0,0,1-.84-1.24A7.15,7.15,0,0,0,7.4,7.44,5,5,0,0,0,8.91,7.52Z"/><path class="cls-43" d="M7,10.17a1.72,1.72,0,0,1-2.45.32A1.34,1.34,0,0,0,7,10.17Z"/><path class="cls-44" d="M7.88,7.45a2.66,2.66,0,0,1-.45-.1A5.92,5.92,0,0,1,4.36,9.54c.18.76.56,1.29,1.32,1.27S7,9.55,7.21,8.79A1.91,1.91,0,0,1,8.44,7.47,3,3,0,0,1,7.88,7.45Z"/><path class="cls-15" d="M6.53,0a.27.27,0,0,0,0,.12.34.34,0,0,0,.36.3.33.33,0,0,0,.35-.3h0A2.93,2.93,0,0,0,6.53,0Z"/><path class="cls-15" d="M5.53.18a3.29,3.29,0,0,0-.74.35.36.36,0,0,0,0,.1c0,.13.31.22.48.17a.51.51,0,0,0,.3-.53A.35.35,0,0,0,5.53.18Z"/><path class="cls-19" d="M5.74,11.32h0a1.53,1.53,0,0,1-.9-.28,2.5,2.5,0,0,1-.67-.86,5.13,5.13,0,0,0-.52-.8A13.94,13.94,0,0,1,2,6.53l-.42-.87a1.27,1.27,0,0,1-.14-1.07,1,1,0,0,1,.72-.51l.08,0a5.33,5.33,0,0,0,.32-.77c.1-.28.21-.56.31-.8A2.31,2.31,0,0,1,3.27.75,1,1,0,0,1,4,.47a4,4,0,0,1,.5,0l.18,0A3.14,3.14,0,0,1,6.4,0,3.88,3.88,0,0,1,9,1.18a4.17,4.17,0,0,1,3.09,2.51,4.43,4.43,0,0,1,.32,1.82,2.57,2.57,0,0,1,.46,2.15A3.48,3.48,0,0,1,11.71,9.5a5,5,0,0,1-3,1,6.34,6.34,0,0,0-2,.53A1.69,1.69,0,0,1,5.74,11.32ZM4,.55A.93.93,0,0,0,3.32.8,2.33,2.33,0,0,0,3,2.49H3l-.31.8a4.08,4.08,0,0,1-.34.81l-.11,0a1,1,0,0,0-.67.46,1.22,1.22,0,0,0,.14,1l.42.88a14.51,14.51,0,0,0,1.6,2.83,5.3,5.3,0,0,1,.53.81,2.37,2.37,0,0,0,.65.84,1.43,1.43,0,0,0,.85.26h0a1.59,1.59,0,0,0,.94-.3,6.18,6.18,0,0,1,2.07-.55,5,5,0,0,0,2.91-1,2.87,2.87,0,0,0,.64-3.9h0A4.36,4.36,0,0,0,12,3.72,4.14,4.14,0,0,0,8.94,1.25h0A3.81,3.81,0,0,0,6.4.08,3.05,3.05,0,0,0,4.75.6h0l-.2,0A4,4,0,0,0,4,.55Z"/><path class="cls-45" d="M7.88,7.45a2.66,2.66,0,0,1-.45-.1A6.67,6.67,0,0,1,6,8.72a.76.76,0,0,1,.92.82c.1-.23.22-.56.28-.75A1.91,1.91,0,0,1,8.44,7.47,3,3,0,0,1,7.88,7.45Z"/><path class="cls-46" d="M5.16,10.72a1.49,1.49,0,0,1,.27-1.63,4.52,4.52,0,0,1-1.07.45A1.57,1.57,0,0,0,5.16,10.72Z"/><path class="cls-47" d="M5.91,9.55c-.75-.21-1,.56-1.12.91a1.12,1.12,0,0,0,.89.35c.57,0,1-.68,1.28-1.33A.74.74,0,0,0,5.91,9.55Z"/><path class="cls-48" d="M5.69,9.91c-.07-.55-.74-.13-.8.62a.83.83,0,0,0,.79.28,1.17,1.17,0,0,0,1-1.19C6.56,9.28,5.93,9.38,5.69,9.91Z"/><path class="cls-49" d="M5.73,9.91c-.06-.25-.24-.33-.37-.24a.86.86,0,0,0-.42.89.81.81,0,0,0,.62.19C5.66,10.7,5.62,10.22,5.73,9.91Z"/><path class="cls-50" d="M6.51,9.48c-.29-.11-.71.17-.84.51s-.18.81,0,.79a1.06,1.06,0,0,0,.81-.6C6.65,9.87,6.65,9.54,6.51,9.48Z"/><path class="cls-51" d="M5.64,10.85h0a1.13,1.13,0,0,1-.88-.37h0v0c.08-.29.31-1,.91-1l.24,0a.82.82,0,0,1,.58-.26.84.84,0,0,1,.5.19l0,0,0,0c-.38.89-.82,1.35-1.31,1.36Zm-.8-.4a1,1,0,0,0,.8.32h0c.45,0,.86-.44,1.23-1.28a.69.69,0,0,0-1,.09l0,0h0l-.24,0C5.13,9.56,4.91,10.16,4.84,10.45Z"/><path class="cls-51" d="M6,9.43l0,.06a1.26,1.26,0,0,0-.38.54A.93.93,0,0,1,6,9.43Z"/><path class="cls-19" d="M5.64,10.85c-.68,0-1.11-.42-1.32-1.3v0h0A5.94,5.94,0,0,0,7.4,7.33l0,0h0a3.79,3.79,0,0,0,.44.11,2.19,2.19,0,0,0,.36,0h.2v.08h0A1.87,1.87,0,0,0,7.25,8.8c-.43,1.33-1,2-1.57,2ZM4.41,9.57c.2.81.61,1.2,1.23,1.2h0c.56,0,1.08-.7,1.49-2a2.26,2.26,0,0,1,1-1.26,1.51,1.51,0,0,1-.3,0,3.13,3.13,0,0,1-.44-.11A6.25,6.25,0,0,1,4.41,9.57Z"/><path class="cls-52" d="M10,2.4S9.75.73,8.56.43C7.14.07,6.42,1.64,6.42,1.64Z"/><path class="cls-53" d="M8.57.42A1.92,1.92,0,0,0,6.42,1.6C6.05,2.37,5,4.66,6.31,5.06,8.14,5.62,10.09,3.65,10,2.4,9.94,2.12,9.79.71,8.57.42Z"/><path class="cls-54" d="M6.18,2.07C6.75.94,7.52.38,8.4.46,9,.52,9.72,1.09,10,2.62,8.89.61,7.45.59,6.18,2.07Z"/><path class="cls-55" d="M7.23,2c-.76.07-1,1.62-1,2.57.08,1.42,1,1.66,1.73,1.39a2.68,2.68,0,0,1,1.3-.18C9.64,3.55,8.93,1.81,7.23,2Z"/><path class="cls-56" d="M7.41,2.51c-.74.15-1.14,1.15-1.08,2.1C6.41,6.05,7.26,6.2,8,6.06a1.59,1.59,0,0,0,1-2C8.81,3.15,8.1,2.38,7.41,2.51Z"/><path class="cls-57" d="M7.41,2.51c-.74.15-1.14,1.15-1.08,2.1C6.41,6.05,7.26,6.2,8,6.06a1.59,1.59,0,0,0,1-2C8.81,3.15,8.1,2.38,7.41,2.51Z"/><path class="cls-58" d="M7.84,3a.27.27,0,0,1-.31.25.28.28,0,0,1-.24-.31.28.28,0,0,1,.31-.25A.28.28,0,0,1,7.84,3Z"/><path class="cls-59" d="M7.79,3.27a1.23,1.23,0,0,0-.86,1.37c0,.7.47,1.22,1,1.17s.88-.68.85-1.38S8.29,3.21,7.79,3.27Z"/><path d="M7.82,3.84a.78.78,0,0,0-.57.88c0,.46.32.8.66.77a.8.8,0,0,0,.57-.89C8.45,4.14,8.16,3.8,7.82,3.84Z"/><path class="cls-60" d="M8.36,4.28a.23.23,0,0,1-.24.19.22.22,0,0,1-.2-.24A.21.21,0,0,1,8.16,4,.22.22,0,0,1,8.36,4.28Z"/><path class="cls-61" d="M7.38,3.6c-.23.21-.33.5-.21.64s.41.09.64-.13.34-.5.22-.64S7.62,3.38,7.38,3.6Z"/><path d="M7.38,2.36C6.6,2.52,6.25,3.7,6.31,4.62a1.64,1.64,0,0,0,.51,1.27A1.42,1.42,0,0,0,8,6.08c.74-.15,1.22-1,1-2.08S8.06,2.23,7.38,2.36ZM8,6a1.4,1.4,0,0,1-1.14-.18,1.62,1.62,0,0,1-.5-1.25c0-.89.3-1.93,1.06-2.08S8.78,3.12,9,4.1A1.57,1.57,0,0,1,8,6Z"/><path class="cls-62" d="M7,6.59l2.58-.73A1.85,1.85,0,0,0,7,6.59Z"/><path class="cls-63" d="M9.75,6.05c.09.27-.07.94-1.13,1.26A1.47,1.47,0,0,1,6.9,6.9c-.08-.27.45-1,1.16-1.19S9.67,5.77,9.75,6.05Z"/><path class="cls-64" d="M9.39,6c.09.29-.32.67-.93.86S7.3,7,7.21,6.69,7.5,6,8.1,5.77,9.31,5.72,9.39,6Z"/><path class="cls-19" d="M8.07,5.65a1.94,1.94,0,0,0-1.15,1,2.13,2.13,0,0,1,1.17-.94,2.14,2.14,0,0,1,1.45.15A1.86,1.86,0,0,0,8.07,5.65Z"/><path class="cls-65" d="M3.87,1.71c-.6-.17-1.31.62-1.52,1.35A1.1,1.1,0,0,0,3.14,4.5c.58.17,1.05.25,1.22-.88C4.47,2.87,4.18,1.8,3.87,1.71Z"/><path class="cls-56" d="M3.42,2.14c-.6-.06-1.15.62-1.33,1.37C1.82,4.64,2.44,5,3,5A1.27,1.27,0,0,0,4.27,3.72C4.35,3,4,2.19,3.42,2.14Z"/><path class="cls-66" d="M3.42,2.14c-.6-.06-1.15.62-1.33,1.37C1.82,4.64,2.44,5,3,5A1.27,1.27,0,0,0,4.27,3.72C4.35,3,4,2.19,3.42,2.14Z"/><path class="cls-67" d="M3.37,2.57a.25.25,0,0,1-.3.12A.24.24,0,0,1,3,2.39a.22.22,0,0,1,.3-.12A.23.23,0,0,1,3.37,2.57Z"/><path class="cls-68" d="M3.34,2.69c-.4-.08-.84.31-1,.86s.08,1,.49,1.12.84-.31,1-.86S3.75,2.76,3.34,2.69Z"/><path d="M3.24,3.13c-.27,0-.56.2-.65.56a.57.57,0,0,0,.33.74.64.64,0,0,0,.65-.55C3.65,3.52,3.5,3.18,3.24,3.13Z"/><path class="cls-69" d="M3.56,3.57a.22.22,0,1,1-.19-.24A.22.22,0,0,1,3.56,3.57Z"/><path class="cls-70" d="M3,2.85c-.24.11-.38.31-.32.44s.3.17.53.06.37-.31.31-.45S3.19,2.74,3,2.85Z"/><path d="M3.43,2C2.79,2,2.25,2.78,2.08,3.5a1.34,1.34,0,0,0,.1,1.11A1.13,1.13,0,0,0,3,5c.61.06,1.17-.47,1.26-1.37S4,2.07,3.43,2ZM3.05,5a1.09,1.09,0,0,1-.84-.4,1.31,1.31,0,0,1-.1-1.08c.17-.7.68-1.42,1.31-1.36s.91.78.83,1.57A1.25,1.25,0,0,1,3.05,5Z"/><path class="cls-71" d="M3.88,1.59A10.2,10.2,0,0,0,2.76,4.64,2.25,2.25,0,0,0,1,6.46c-.28,0-.5.39-.1,1.11C1.1,8,1.2,9.49,2.42,9.69a5.32,5.32,0,0,0,5-2.33Z"/><path class="cls-72" d="M2.77,4.62A2.31,2.31,0,0,0,1,6.44c-.28,0-.5.39-.1,1.11.16.3.26,1.26.83,1.79a3.52,3.52,0,0,0,2.15.09A8.49,8.49,0,0,0,7.43,7.35L4.68,2.15l-.79-.57A10.09,10.09,0,0,0,2.77,4.62Z"/><path class="cls-73" d="M2.81,4.6A2.33,2.33,0,0,0,1,6.42c-.28,0-.5.4-.1,1.11.17.3.27,1.25.86,1.78A3.64,3.64,0,0,0,4,9.32c2.18-.59,3.2-1.93,3.3-2.58L4.44,1.92,3.9,1.5A11.08,11.08,0,0,0,2.81,4.6Z"/><path class="cls-74" d="M4,4.87A2.2,2.2,0,0,0,1.3,6.58c-.09.42.75.42,1-.34A1.81,1.81,0,0,1,4,4.87Z"/><path class="cls-75" d="M7.89.42A3,3,0,0,0,5.26.32C3.93.88,3.11,3,2.73,4.63c.77-.23,2.83.83,3-1.06C5.88,2.39,6.6.7,7.89.42Z"/><path class="cls-76" d="M7.06.14C4.53-.3,3.42,1.93,3,4.11c-.12.56.84.34.94-.36C4.22,1.51,5.36.22,7.06.14Z"/><path class="cls-19" d="M3.05,9.78a4.89,4.89,0,0,1-.64,0C1.45,9.57,1.17,8.62,1,8a2.25,2.25,0,0,0-.14-.42,1.07,1.07,0,0,1-.14-1A.29.29,0,0,1,1,6.42,2.33,2.33,0,0,1,2.72,4.61a8.47,8.47,0,0,1,.56-1.92,5.82,5.82,0,0,1,.61-1.11A11,11,0,0,0,2.8,4.64v0h0A2.22,2.22,0,0,0,1,6.47v0H1a.21.21,0,0,0-.2.1c-.1.15-.12.48.14,1A2.15,2.15,0,0,1,1.07,8c.18.61.44,1.53,1.35,1.68a5.22,5.22,0,0,0,5-2.31l.06,0a6.2,6.2,0,0,1-2.7,2.08A4.91,4.91,0,0,1,3.05,9.78Z"/><path class="cls-77" d="M1,6.78a.54.54,0,0,0,0,.37c0,.2.12.37.22.33s.05-.31,0-.38S1,6.75,1,6.78Z"/><path class="cls-78" d="M.94,7.15c0,.2.12.37.22.33s0-.39,0-.4C1.1,7.5.94,7.15.94,7.15Z"/><path class="cls-19" d="M1.13,7.53h0C1,7.53.92,7.24.9,7.15a.58.58,0,0,1,0-.4s0,0,0,0,.23.21.26.35.05.38-.06.43ZM1,6.82a.59.59,0,0,0,0,.32c0,.2.11.31.15.31h0s.05-.13,0-.33A.76.76,0,0,0,1,6.82Z"/><path class="cls-77" d="M3.68,7c-.34-.24-.7.59-.63.66a.58.58,0,0,0,.54-.11C3.74,7.4,3.85,7.11,3.68,7Z"/><path class="cls-78" d="M3.68,7h0c.08.28-.24.62-.58.68a.59.59,0,0,0,.51-.12C3.74,7.4,3.85,7.11,3.68,7Z"/><path class="cls-19" d="M3.2,7.72h0a.37.37,0,0,1-.18,0c0-.06,0-.21,0-.29s.29-.49.49-.49A.25.25,0,0,1,3.71,7a.26.26,0,0,1,.1.19.57.57,0,0,1-.19.42A.65.65,0,0,1,3.2,7.72Zm-.12-.1a.22.22,0,0,0,.12,0,.61.61,0,0,0,.37-.13.51.51,0,0,0,.16-.35A.21.21,0,0,0,3.66,7a.25.25,0,0,0-.11,0,.42.42,0,0,0-.28.21A.92.92,0,0,0,3.08,7.62Z"/><path class="cls-15" d="M6.11.42c-.07,0-.35.27-.3.46s.29.17.47.1.31-.29.27-.4A.47.47,0,0,0,6.11.42Z"/><path class="cls-15" d="M5,1.13a.24.24,0,0,0-.2.26.23.23,0,0,0,.2.25.23.23,0,0,0,.2-.25A.24.24,0,0,0,5,1.13Z"/><path class="cls-15" d="M5.74,1.13c-.08,0-.37.31-.34.4s.22.18.27.19.24-.18.25-.25S5.82,1.14,5.74,1.13Z"/><path class="cls-15" d="M5.3,1.83A.68.68,0,0,0,5,2c0,.06.07.24.1.29s.31,0,.33,0S5.39,1.85,5.3,1.83Z"/><path class="cls-79" d="M12.05,6.53c-.14.09-.22.89.1.92s.45-.36.45-.55S12.16,6.45,12.05,6.53Z"/><path class="cls-80" d="M12.05,6.53c-.13.08-.22.76,0,.89a2.91,2.91,0,0,0,.11-.88A.15.15,0,0,0,12.05,6.53Z"/><path class="cls-80" d="M11.1,7.27c-.1,0-.39.45-.34.56a1.11,1.11,0,0,0,.58.33c.14,0,.35-.42.31-.56S11.29,7.23,11.1,7.27Z"/><path class="cls-80" d="M10.54,6.91c-.06,0-.23.24-.23.39s.29.1.33.06S10.65,6.93,10.54,6.91Z"/><path class="cls-80" d="M10.5,8.05c-.05,0-.12.53,0,.6s.36-.13.36-.23S10.59,8,10.5,8.05Z"/><path class="cls-79" d="M11.17,8.56c-.08,0-.24.3-.21.43a.29.29,0,0,0,.27.18c.09,0,.22-.25.22-.38S11.24,8.54,11.17,8.56Z"/><path class="cls-80" d="M11.17,8.56c-.08,0-.24.3-.21.43a.29.29,0,0,0,.09.11,1.79,1.79,0,0,0,.35-.39C11.34,8.63,11.22,8.55,11.17,8.56Z"/><path class="cls-79" d="M12.13,7.83c-.1,0-.48.29-.46.54s.41.18.48,0S12.26,7.87,12.13,7.83Z"/><path class="cls-78" d="M11.84,8a.51.51,0,0,0-.17.32C11.74,8.22,11.78,8.12,11.84,8Z"/><path class="cls-19" d="M6.63,11.07l0-.07a1.9,1.9,0,0,0,.33-.29L7,10.62a1,1,0,0,1,.51-.25,1.68,1.68,0,0,0-.45.3L7,10.76A1.54,1.54,0,0,1,6.63,11.07Z"/><path class="cls-19" d="M12.37,5.63A2.49,2.49,0,0,0,11.52,5a2.11,2.11,0,0,1,.91.57Z"/><path class="cls-19" d="M4.2,1.18A2.34,2.34,0,0,1,4.74.51l0,.07A4.13,4.13,0,0,0,4.2,1.18Z"/><path class="cls-19" d="M10,2.4h0c-.1-.47-.4-1.87-1.68-2A2,2,0,0,0,6.42,1.64,1.7,1.7,0,0,1,6.9.86a1.75,1.75,0,0,1,2.9.68A3.19,3.19,0,0,1,10,2.4Z"/><path class="cls-19" d="M3.67,4.76a2.91,2.91,0,0,0-1,0V4.63A2.35,2.35,0,0,1,3.67,4.76Z"/><path class="cls-19" d="M8.16,7.54a2,2,0,0,1-.75-.15A1.1,1.1,0,0,1,6.93,7a1.91,1.91,0,0,0,1.92.31A1,1,0,0,1,8.16,7.54Z"/><path class="cls-19" d="M1.18,6.64A.25.25,0,0,0,.9,6.51l0-.08C1.09,6.39,1.18,6.64,1.18,6.64Z"/><path class="cls-81" d="M13.05,14.26a3,3,0,0,1,1.49.17c.75.3,1.4.84,1.48,1.45a.87.87,0,0,1-.9,1c-.58,0-2.33-.24-2.33-.24Z"/><path class="cls-82" d="M13.9,14.61c-.1.08-.08.43-.07.64a1.43,1.43,0,0,1,0,.21,3,3,0,0,0,.09.8c0,.12.41.13.72.14a2.72,2.72,0,0,1,.48.05h.05c.17,0,.24-.34.3-.59,0-.07,0-.14,0-.19.06-.22-.26-.45-.57-.67l-.16-.11A2,2,0,0,0,13.9,14.61Z"/><path class="cls-83" d="M13.9,14.61c-.1.08-.08.43-.07.64a1.43,1.43,0,0,1,0,.21,3,3,0,0,0,.09.8c0,.12.41.13.72.14a2.72,2.72,0,0,1,.48.05h.05c.17,0,.24-.34.3-.59,0-.07,0-.14,0-.19.06-.22-.26-.45-.57-.67l-.16-.11A2,2,0,0,0,13.9,14.61Z"/><path class="cls-33" d="M15.12,17h0c-.58,0-2.32-.24-2.33-.24h0L13,14.23h0a1.43,1.43,0,0,1,.39,0,3,3,0,0,1,1.11.2c.67.27,1.41.8,1.5,1.48a.94.94,0,0,1-.21.77A1,1,0,0,1,15.12,17Zm-2.3-.3c.24,0,1.77.24,2.3.24h0a.89.89,0,0,0,.68-.28.92.92,0,0,0,.19-.73c-.09-.65-.81-1.16-1.46-1.42a2.87,2.87,0,0,0-1.09-.2l-.36,0Z"/><path class="cls-84" d="M13.14,16.61a15.69,15.69,0,0,1,2.3,0A1.23,1.23,0,0,1,16,18.24c-.34.7-2.3,1.11-2.3,1.11Z"/><path class="cls-85" d="M14.85,16.77a1.51,1.51,0,0,0-.41.06s-.21.06-.27.17a.17.17,0,0,0,0,.1l.05.15c.08.29.3,1.06.46,1.06h0a2.45,2.45,0,0,0,1-.37.81.81,0,0,0,.08-.72,1.39,1.39,0,0,0-.54-.4A1,1,0,0,0,14.85,16.77Z"/><path class="cls-86" d="M14.85,16.77a1.51,1.51,0,0,0-.41.06s-.21.06-.27.17a.17.17,0,0,0,0,.1l.05.15c.08.29.3,1.06.46,1.06h0a2.45,2.45,0,0,0,1-.37.81.81,0,0,0,.08-.72,1.39,1.39,0,0,0-.54-.4A1,1,0,0,0,14.85,16.77Z"/><path class="cls-33" d="M13.7,19.39l-.6-2.8h0s.83,0,1.5,0a3.52,3.52,0,0,1,.81.06,1,1,0,0,1,.59.57,1.26,1.26,0,0,1,0,1.09c-.34.71-2.25,1.11-2.33,1.13Zm-.52-2.75.57,2.67c.25,0,1.95-.45,2.25-1.08a1.24,1.24,0,0,0,0-1.05,1,1,0,0,0-.56-.54,4.17,4.17,0,0,0-.79-.05C14.05,16.59,13.34,16.63,13.18,16.64Z"/><path class="cls-87" d="M14,19.18s1.53-1.26,2.33-1a1.5,1.5,0,0,1,1.11,1.3,2.44,2.44,0,0,1-.57,1.74C16.54,21.41,14,19.18,14,19.18Z"/><path class="cls-88" d="M16.07,18.43c-.37.12-1,.37-.92.53a1.24,1.24,0,0,0,.65.8,2.33,2.33,0,0,1,.34.2.82.82,0,0,0,.43.21h0a.33.33,0,0,0,.16-.05c.22-.14.45-.36.33-.63a.73.73,0,0,1,0-.12A1.31,1.31,0,0,0,16.07,18.43Z"/><path class="cls-89" d="M16.07,18.43c-.37.12-1,.37-.92.53a1.24,1.24,0,0,0,.65.8,2.33,2.33,0,0,1,.34.2.82.82,0,0,0,.43.21h0a.33.33,0,0,0,.16-.05c.22-.14.45-.36.33-.63a.73.73,0,0,1,0-.12A1.31,1.31,0,0,0,16.07,18.43Z"/><path class="cls-33" d="M16.8,21.26c-.47,0-2.74-2-2.84-2.06l0,0,0,0a4.58,4.58,0,0,1,2.11-1.05.61.61,0,0,1,.24,0,1.51,1.51,0,0,1,1.14,1.32,2.39,2.39,0,0,1-.59,1.78ZM14,19.18a12.86,12.86,0,0,0,2.77,2h0a2.29,2.29,0,0,0,.56-1.71,1.45,1.45,0,0,0-1.09-1.27.59.59,0,0,0-.23,0A4.49,4.49,0,0,0,14,19.18Z"/><path class="cls-33" d="M16.57,20.23h0a.92.92,0,0,1-.46-.22,2.33,2.33,0,0,0-.34-.2,1.31,1.31,0,0,1-.68-.84c-.05-.27.87-.57,1-.6h0a1.39,1.39,0,0,1,1,1s0,.08,0,.12c.12.24,0,.48-.35.7A.33.33,0,0,1,16.57,20.23Zm-.5-1.8c-.37.12-1,.37-.92.53a1.24,1.24,0,0,0,.65.8,2.33,2.33,0,0,1,.34.2.82.82,0,0,0,.43.21h0a.33.33,0,0,0,.16-.05c.22-.14.45-.36.33-.63a.73.73,0,0,1,0-.12A1.31,1.31,0,0,0,16.07,18.43Z"/><path class="cls-33" d="M16.46,20h0a1.47,1.47,0,0,1-.64-.32l-.13-.09a.61.61,0,0,1-.2-.72c0-.18.57-.25.63-.26h0c.43,0,.6.5.71.77l0,.12c.1.2-.08.32-.23.43l-.06,0A.24.24,0,0,1,16.46,20Zm-.34-1.33c-.21,0-.55.11-.58.22-.07.31,0,.52.18.65l.14.09a1.43,1.43,0,0,0,.6.31h0l.08,0,.06,0c.18-.13.29-.21.22-.36a.73.73,0,0,1-.05-.12C16.67,19.11,16.51,18.68,16.12,18.64Z"/><path class="cls-33" d="M16.36,19.67h0a.73.73,0,0,1-.39-.23l-.11-.08c-.17-.13,0-.44,0-.46h0l.11,0c.27,0,.53.31.58.37a.23.23,0,0,1,.05.21.3.3,0,0,1-.19.21Zm-.46-.73c0,.06-.12.28,0,.37l.11.09c.11.09.25.21.35.21h0a.23.23,0,0,0,.15-.17.18.18,0,0,0,0-.15c-.05-.06-.3-.35-.54-.35Z"/><path class="cls-33" d="M16.28,19.46h0a.42.42,0,0,1-.26-.29.12.12,0,0,1,.09-.12h0a.31.31,0,0,1,.26.18.22.22,0,0,1,0,.19A.11.11,0,0,1,16.28,19.46Zm-.19-.35s0,0,0,.06a.37.37,0,0,0,.21.23h0a.15.15,0,0,0,0-.13A.26.26,0,0,0,16.09,19.11Z"/><path class="cls-90" d="M15.29,20.31a1.69,1.69,0,0,1,1.41.29c.65.5.49,1.46.39,2.1s-.82,2-1.25,2-2.74-.62-2.23-1.51Z"/><path class="cls-91" d="M15.86,20.88a8.16,8.16,0,0,0-.72,1.6v.07c0,.34-.07.62.4.78a1,1,0,0,0,.28.05.8.8,0,0,0,.7-.51c.22-.49.41-1.14.24-1.38-.3-.42-.57-.65-.76-.65A.2.2,0,0,0,15.86,20.88Z"/><path class="cls-92" d="M15.86,20.88a8.16,8.16,0,0,0-.72,1.6v.07c0,.34-.07.62.4.78a1,1,0,0,0,.28.05.8.8,0,0,0,.7-.51c.22-.49.41-1.14.24-1.38-.3-.42-.57-.65-.76-.65A.2.2,0,0,0,15.86,20.88Z"/><path class="cls-33" d="M15.84,24.71c-.34,0-1.9-.39-2.26-1a.49.49,0,0,1,0-.53c.51-.89,1.67-2.87,1.67-2.87h0a1.7,1.7,0,0,1,.41-.05,1.67,1.67,0,0,1,1,.34c.67.52.5,1.53.4,2.14s-.82,2-1.28,2Zm-.53-4.37-1.67,2.85a.44.44,0,0,0,0,.47c.34.6,1.88,1,2.2,1v0c.4,0,1.11-1.31,1.22-1.95s.26-1.58-.38-2.08a1.61,1.61,0,0,0-1-.33A1.53,1.53,0,0,0,15.31,20.34Z"/><path class="cls-33" d="M15.81,23.44h0a1,1,0,0,1-.3-.05c-.52-.18-.48-.51-.44-.85v-.07a9,9,0,0,1,.73-1.63h0a.34.34,0,0,1,.17,0c.27,0,.59.36.81.67s-.15,1.26-.23,1.44A.87.87,0,0,1,15.81,23.44Zm0-2.56a8.16,8.16,0,0,0-.72,1.6v.07c0,.34-.07.62.4.78a1,1,0,0,0,.28.05.8.8,0,0,0,.7-.51c.22-.49.41-1.14.24-1.38-.3-.42-.57-.65-.76-.65A.2.2,0,0,0,15.86,20.88Z"/><path class="cls-33" d="M15.82,23.16h0a.6.6,0,0,1-.53-.36c-.19-.43.5-1.41.53-1.45a.16.16,0,0,1,.14-.08,1.23,1.23,0,0,1,.55.29l.09.07c.23.17,0,.68-.27,1.17A.57.57,0,0,1,15.82,23.16ZM16,21.33a.11.11,0,0,0-.09.05s-.7,1-.52,1.39a.49.49,0,0,0,.93,0c.22-.45.47-.95.28-1.09l-.09-.07A1.13,1.13,0,0,0,16,21.33Z"/><path class="cls-33" d="M15.87,22.94h0c-.16,0-.32-.21-.38-.4s.39-.89.45-1H16c.16,0,.41.33.45.48a1.58,1.58,0,0,1-.46.87A.2.2,0,0,1,15.87,22.94ZM16,21.62c-.14.21-.48.74-.43.91s.19.35.32.35l.07,0a1.57,1.57,0,0,0,.44-.8c0-.15-.27-.44-.39-.44Z"/><path class="cls-33" d="M15.92,22.56c-.1,0-.21-.07-.21-.15s.1-.48.24-.51h0s.24.05.27.12a0,0,0,0,1,0,0s0,0,0,.08-.08.35-.19.4Zm0-.6c-.09,0-.2.36-.19.44s.07.1.15.1a.11.11,0,0,0,.08,0c.09,0,.14-.24.16-.35a.46.46,0,0,1,0-.09A.48.48,0,0,0,16,22Z"/><path class="cls-93" d="M13.1,23.74a2.2,2.2,0,0,1,1.82-.2c1,.35,1.4.66,1.38,1.08s0,1.35-.58,1.6-2.78.57-3.41.12-.25-1.3-.15-1.5A6.52,6.52,0,0,1,13.1,23.74Z"/><path class="cls-94" d="M13.86,23.84a3.41,3.41,0,0,0-1,1.55c-.05.28.57.6,1.15.71l.23,0a2.06,2.06,0,0,0,1.51-.67,1.11,1.11,0,0,0-.28-1.27A4.12,4.12,0,0,0,13.86,23.84Z"/><path class="cls-95" d="M13.86,23.84a3.41,3.41,0,0,0-1,1.55c-.05.28.57.6,1.15.71l.23,0a2.06,2.06,0,0,0,1.51-.67,1.11,1.11,0,0,0-.28-1.27A4.12,4.12,0,0,0,13.86,23.84Z"/><path class="cls-33" d="M13.48,26.6a2.31,2.31,0,0,1-1.18-.23c-.67-.47-.26-1.37-.17-1.55a7,7,0,0,1,.95-1.1,2.35,2.35,0,0,1,1.17-.32,2,2,0,0,1,.68.11c1,.35,1.42.67,1.41,1.11v0c0,.44,0,1.36-.6,1.61A7,7,0,0,1,13.48,26.6Zm.77-3.14a2.34,2.34,0,0,0-1.14.31,6.82,6.82,0,0,0-.92,1.08c-.09.17-.48,1,.14,1.47a2.2,2.2,0,0,0,1.15.22,7.22,7.22,0,0,0,2.22-.34c.54-.24.56-1.13.57-1.56v0c0-.41-.38-.71-1.36-1.05A1.87,1.87,0,0,0,14.25,23.46Z"/><path class="cls-33" d="M14.2,26.18l-.24,0c-.62-.12-1.25-.46-1.2-.78s.7-1.47,1.09-1.59h0a4.07,4.07,0,0,1,1.61.36,1.17,1.17,0,0,1,.29,1.35A2.12,2.12,0,0,1,14.2,26.18Zm-.34-2.34a3.41,3.41,0,0,0-1,1.55c-.05.28.57.6,1.15.71l.23,0a2.06,2.06,0,0,0,1.51-.67,1.11,1.11,0,0,0-.28-1.27A4.12,4.12,0,0,0,13.86,23.84Z"/><path class="cls-33" d="M14.33,25.79c-.4,0-1.05-.08-1.11-.3a1.63,1.63,0,0,1,.23-1,.66.66,0,0,1,.4-.33h0a3.86,3.86,0,0,1,1,.13c.24.1.77.35.68.7a1,1,0,0,1-.85.77A1.94,1.94,0,0,1,14.33,25.79Zm-.47-1.56a.57.57,0,0,0-.36.3,1.61,1.61,0,0,0-.22.94c0,.16.58.26,1.05.26a1.83,1.83,0,0,0,.35,0,1,1,0,0,0,.8-.72c.08-.32-.47-.56-.64-.63A4,4,0,0,0,13.86,24.23Z"/><path class="cls-33" d="M14.47,25.46h-.14c-.44,0-.83-.1-.83-.27s.09-.59.35-.65h0a.69.69,0,0,1,.28-.05,1.29,1.29,0,0,1,.37.06c.52.13.75.28.71.46A1,1,0,0,1,14.47,25.46Zm-.32-.93a.57.57,0,0,0-.26,0h0c-.22.05-.3.43-.3.59s.52.18.77.21h.14a1,1,0,0,0,.7-.42c0-.14-.2-.28-.66-.39A1.29,1.29,0,0,0,14.15,24.53Z"/><path class="cls-33" d="M14.28,25.16h-.07a.39.39,0,0,1-.33-.22.11.11,0,0,1,0-.12.48.48,0,0,1,.32-.13l.13,0,.17,0c.07,0,.12,0,.15.06s0,.06,0,.12S14.46,25.16,14.28,25.16Zm0-.42a.44.44,0,0,0-.28.12h0s0,0,0,.06a.33.33,0,0,0,.28.17c.18,0,.4,0,.43-.18s0-.07,0-.08l-.11,0-.18,0Z"/><path class="cls-96" d="M13.91,19a1.24,1.24,0,0,1,.9.2,1.47,1.47,0,0,1,.8,1.55c-.18.77-1.22,2.71-2.26,3.08s-2.9-3.29-2.9-3.29Z"/><path class="cls-97" d="M14.17,19.49a1.52,1.52,0,0,0-.89.32c-.33.22-1.17.84-1.13,1.09a3.73,3.73,0,0,0,1.53,1.49.27.27,0,0,0,.13,0c.36,0,.72-.42.84-.72a4.44,4.44,0,0,1,.22-.43,1.85,1.85,0,0,0,.33-.84c0-.3-.56-.76-.71-.86A.72.72,0,0,0,14.17,19.49Z"/><path class="cls-98" d="M14.17,19.49a1.52,1.52,0,0,0-.89.32c-.33.22-1.17.84-1.13,1.09a3.73,3.73,0,0,0,1.53,1.49.27.27,0,0,0,.13,0c.36,0,.72-.42.84-.72a4.44,4.44,0,0,1,.22-.43,1.85,1.85,0,0,0,.33-.84c0-.3-.56-.76-.71-.86A.72.72,0,0,0,14.17,19.49Z"/><path class="cls-33" d="M13.19,23.87c-1.06,0-2.69-3.2-2.76-3.34l0,0L13.9,19a1,1,0,0,1,.2,0,1.29,1.29,0,0,1,.73.22,1.52,1.52,0,0,1,.81,1.58c-.18.77-1.23,2.73-2.28,3.11A.47.47,0,0,1,13.19,23.87ZM10.5,20.53c.16.32,1.72,3.28,2.69,3.28l.15,0c1-.38,2.07-2.32,2.24-3.07a1.45,1.45,0,0,0-.79-1.52A1.21,1.21,0,0,0,14.1,19a1,1,0,0,0-.18,0Z"/><path class="cls-33" d="M13.81,22.47h0a.39.39,0,0,1-.15,0,3.76,3.76,0,0,1-1.57-1.54c-.05-.34,1-1.07,1.16-1.15a1.52,1.52,0,0,1,.92-.33.72.72,0,0,1,.35.08c.13.08.69.56.74.9a1.72,1.72,0,0,1-.33.88c-.09.16-.17.31-.22.42C14.58,22,14.2,22.47,13.81,22.47Zm.36-3a1.52,1.52,0,0,0-.89.32c-.33.22-1.17.84-1.13,1.09a3.73,3.73,0,0,0,1.53,1.49.27.27,0,0,0,.13,0c.36,0,.72-.42.84-.72a4.44,4.44,0,0,1,.22-.43,1.85,1.85,0,0,0,.33-.84c0-.3-.56-.76-.71-.86A.72.72,0,0,0,14.17,19.49Z"/><path class="cls-33" d="M13.65,22h0c-.36,0-.87-.53-1-.69s-.06-.63.18-.89a4.16,4.16,0,0,1,1-.71l.1,0a1.33,1.33,0,0,1,.77.55c.16.24,0,.72-.21,1.07a1.6,1.6,0,0,1-.56.54l-.14.1A.34.34,0,0,1,13.65,22ZM14,19.76a.08.08,0,0,0-.07,0h0a3.68,3.68,0,0,0-1,.69c-.22.24-.35.63-.19.81s.62.67,1,.67h0a.2.2,0,0,0,.13,0l.14-.1a1.52,1.52,0,0,0,.55-.52c.2-.33.35-.79.21-1A1.3,1.3,0,0,0,14,19.76Z"/><path class="cls-33" d="M13.48,21.71h0a.17.17,0,0,1-.1,0c-.28-.15-.64-.66-.57-.88s1-.82,1.15-.88h0c.15,0,.3.11.41.37s.15.6,0,.73l-.09.1C14.09,21.33,13.73,21.71,13.48,21.71ZM14,20a4.78,4.78,0,0,0-1.12.85c-.06.2.28.67.54.81l.07,0c.23,0,.57-.37.78-.59l.1-.09a.78.78,0,0,0,0-.66c-.09-.21-.21-.34-.31-.34Z"/><path class="cls-33" d="M13.6,21.45h-.07c-.29-.1-.5-.6-.51-.62v0h0a2.06,2.06,0,0,1,.92-.62h0a.13.13,0,0,1,.11.07,1,1,0,0,1,.16.57C14.2,20.92,13.9,21.45,13.6,21.45Zm-.51-.64c0,.09.22.49.46.57h0c.25,0,.55-.5.56-.59a1,1,0,0,0-.14-.53s0,0-.07,0A2.17,2.17,0,0,0,13.09,20.81Z"/><path class="cls-33" d="M13.53,21.17a.12.12,0,0,1-.08,0c-.1-.13.07-.43.11-.48s.12-.18.23-.18l.06,0a.26.26,0,0,1,.12.17.25.25,0,0,1-.07.21h0C13.75,21,13.63,21.17,13.53,21.17Zm.26-.64c-.06,0-.16.12-.18.15s-.17.33-.11.41l0,0c.08,0,.23-.17.32-.27h0a.18.18,0,0,0,.06-.16.2.2,0,0,0-.09-.13Z"/><path class="cls-99" d="M10.2,21c1.18-.43,2.32.47,3,1.75s-1.45,3.49-1.45,3.49L7.78,23A6.07,6.07,0,0,1,10.2,21Z"/><path class="cls-100" d="M10.89,21.44c-.72,0-1.26.87-1.26.88h0a.28.28,0,0,0-.06.28c.18.69,2.25,1.79,2.6,1.92h.05c.35,0,.71-1.21.73-1.58s-1.16-1.4-1.93-1.5Z"/><path class="cls-101" d="M10.89,21.44c-.72,0-1.26.87-1.26.88h0a.28.28,0,0,0-.06.28c.18.69,2.25,1.79,2.6,1.92h.05c.35,0,.71-1.21.73-1.58s-1.16-1.4-1.93-1.5Z"/><path class="cls-33" d="M11.77,26.23,7.74,23l0,0a6.21,6.21,0,0,1,2.43-2.06,1.87,1.87,0,0,1,.61-.11,3.07,3.07,0,0,1,2.44,1.88c.3.53.14,1.31-.46,2.25a7.59,7.59,0,0,1-1,1.27ZM7.82,23l3.95,3.15c.21-.22,2.07-2.25,1.42-3.43a3,3,0,0,0-2.39-1.85,1.7,1.7,0,0,0-.58.11A6,6,0,0,0,7.82,23Z"/><path class="cls-33" d="M12.21,24.59l-.07,0c-.37-.12-2.45-1.23-2.64-2a.33.33,0,0,1,.08-.33c0-.06.57-.9,1.31-.9H11c.82.11,2,1.19,2,1.56S12.63,24.59,12.21,24.59Zm-1.32-3.15c-.72,0-1.26.87-1.26.88h0a.28.28,0,0,0-.06.28c.18.69,2.25,1.79,2.6,1.92h.05c.35,0,.71-1.21.73-1.58s-1.16-1.4-1.93-1.5Z"/><path class="cls-33" d="M12.05,24a3.05,3.05,0,0,1-1.5-.55.39.39,0,0,0-.1-.08c-.31-.25-.62-.5-.64-.77a.41.41,0,0,1,.12-.28s.54-.51,1-.51a.32.32,0,0,1,.14,0c.33.12,1.46.7,1.53,1.07a1.2,1.2,0,0,1-.24,1A.37.37,0,0,1,12.05,24Zm-1.17-2.13c-.38,0-.9.49-.9.49a.33.33,0,0,0-.11.24c0,.24.34.49.62.72l.1.08a3,3,0,0,0,1.46.54.3.3,0,0,0,.22-.06,1.17,1.17,0,0,0,.22-1c-.06-.31-1.08-.87-1.49-1Z"/><path class="cls-33" d="M11.94,23.74h0a3.6,3.6,0,0,1-1.56-.85c-.22-.27-.22-.47,0-.68a.68.68,0,0,1,.49-.18,1,1,0,0,1,.37.07c.55.2,1.15.62,1.14.89S12.25,23.74,11.94,23.74Zm-1.11-1.66a.7.7,0,0,0-.45.16c-.16.16-.22.32,0,.6a3.58,3.58,0,0,0,1.52.83h0c.23,0,.33-.43.34-.7s-.51-.61-1.1-.83A.91.91,0,0,0,10.83,22.08Z"/><path class="cls-33" d="M11.89,23.46c-.14,0-1.22-.34-1.41-.7a.22.22,0,0,1,0-.22.48.48,0,0,1,.4-.24l.13,0a2,2,0,0,1,1,.56.57.57,0,0,1,0,.48.16.16,0,0,1-.13.1Zm-1-1.1a.37.37,0,0,0-.34.21h0a.14.14,0,0,0,0,.15c.16.32,1.2.67,1.35.67h0s.06,0,.09-.07a.55.55,0,0,0,0-.42,2,2,0,0,0-1-.53Z"/><path class="cls-33" d="M11.55,23.15h0a1.73,1.73,0,0,1-.64-.26,0,0,0,0,1,0,0,.06.06,0,0,0,0,0c0-.09,0-.23.14-.22s.47,0,.57.17a.37.37,0,0,1,.05.33A.13.13,0,0,1,11.55,23.15Zm-.6-.29a1.83,1.83,0,0,0,.6.23h0a0,0,0,0,0,0,0,.29.29,0,0,0,0-.26c-.07-.12-.4-.15-.52-.15h0s-.07.1-.08.17Z"/><path class="cls-33" d="M14.67,18.38h0c-.19,0-.37-.58-.52-1.11l0-.15a.14.14,0,0,1,0-.14.53.53,0,0,1,.3-.21,1.65,1.65,0,0,1,.43-.06.86.86,0,0,1,.34.06,1.46,1.46,0,0,1,.58.42.87.87,0,0,1-.1.79,2.46,2.46,0,0,1-1,.39Zm.18-1.61a1.51,1.51,0,0,0-.41.06s-.21.06-.27.17a.17.17,0,0,0,0,.1l.05.15c.08.29.3,1.06.46,1.06h0a2.45,2.45,0,0,0,1-.37.81.81,0,0,0,.08-.72,1.39,1.39,0,0,0-.54-.4A1,1,0,0,0,14.85,16.77Z"/><path class="cls-33" d="M14.76,18.17h0c-.28,0-.42-1-.44-1.08h0a.65.65,0,0,1,.44-.18l.11,0h0a1.25,1.25,0,0,1,.5.2.71.71,0,0,1,.11.69c-.09.24-.52.38-.75.42Zm-.38-1.08c.06.4.21,1,.38,1h0c.29-.05.63-.19.7-.38a.68.68,0,0,0-.08-.62,1.29,1.29,0,0,0-.47-.19h0l-.1,0A.74.74,0,0,0,14.38,17.09Z"/><path class="cls-33" d="M14.86,18a.17.17,0,0,1-.16-.08c0-.1-.24-.68-.1-.78h0a1,1,0,0,1,.32-.05.35.35,0,0,1,.16,0l0,0c.14.06.3.13.3.33s-.07.4-.21.44l-.08,0A.94.94,0,0,1,14.86,18Zm-.23-.81c-.07.07,0,.54.13.7s0,.05.1.05a.82.82,0,0,0,.26-.06l.08,0c.11,0,.17-.16.17-.38s-.13-.22-.26-.28l0,0-.14,0A1.25,1.25,0,0,0,14.63,17.14Z"/><path class="cls-33" d="M15,17.7s-.08,0-.15-.07a.28.28,0,0,1-.07-.3c0-.06,0-.09.1-.09s.26,0,.28.09,0,0,0,0,.11.2,0,.28l0,0A.28.28,0,0,1,15,17.7Zm-.13-.4s0,0,0,.05a.23.23,0,0,0,.05.23c.06,0,.09.06.11.06l.09,0,0,0c.07,0,.06-.1,0-.2l0,0a.61.61,0,0,0-.24-.05Z"/><path class="cls-102" d="M10.67,13.38a3.29,3.29,0,0,1,2.5.76c1,1,0,2.82,0,2.82l-3.55.48Z"/><path class="cls-103" d="M11.92,13.81c-.26,0-.45.09-.48.17a7.18,7.18,0,0,0-.16,2.18s.17.08.45.08a2.25,2.25,0,0,0,1.27-.3c.24-.28,0-1.42,0-1.5A1.23,1.23,0,0,0,11.92,13.81Z"/><path class="cls-104" d="M11.92,13.81c-.26,0-.45.09-.48.17a7.18,7.18,0,0,0-.16,2.18s.17.08.45.08a2.25,2.25,0,0,0,1.27-.3c.24-.28,0-1.42,0-1.5A1.23,1.23,0,0,0,11.92,13.81Z"/><path class="cls-33" d="M9.58,17.48v0l1.06-4.09h0a2.47,2.47,0,0,1,.34,0,3.08,3.08,0,0,1,2.18.79,1.89,1.89,0,0,1,.37,1.79A4.63,4.63,0,0,1,13.2,17v0ZM10.7,13.4l-1,4,3.49-.48c.09-.17.89-1.88,0-2.77A3.06,3.06,0,0,0,11,13.39Z"/><path class="cls-33" d="M11.73,16.3a1,1,0,0,1-.5-.09A6.69,6.69,0,0,1,11.38,14c0-.11.28-.2.54-.2a1.29,1.29,0,0,1,1.13.67h0c0,.05.27,1.25,0,1.56A2.29,2.29,0,0,1,11.73,16.3Zm.19-2.49c-.26,0-.45.09-.48.17a7.18,7.18,0,0,0-.16,2.18s.17.08.45.08a2.25,2.25,0,0,0,1.27-.3c.24-.28,0-1.42,0-1.5A1.23,1.23,0,0,0,11.92,13.81Z"/><path class="cls-33" d="M11.82,16.05a.67.67,0,0,1-.35-.07,3.18,3.18,0,0,1,0-1.47c.05-.28.13-.45.23-.49h0A2.66,2.66,0,0,1,12,14a.87.87,0,0,1,.86.42,1.3,1.3,0,0,1-.22,1.43A1.45,1.45,0,0,1,11.82,16.05Zm-.13-2c-.08,0-.15.19-.19.44a3.31,3.31,0,0,0,0,1.42.67.67,0,0,0,.31.05,1.47,1.47,0,0,0,.76-.18,1.25,1.25,0,0,0,.2-1.37.82.82,0,0,0-.8-.38A2.8,2.8,0,0,0,11.69,14.08Z"/><path class="cls-33" d="M11.8,15.87l-.1,0c-.2-.1-.18-1.26,0-1.64h.25a1.1,1.1,0,0,1,.61.14,1,1,0,0,1,.19.57,1.05,1.05,0,0,1-.11.63A1.64,1.64,0,0,1,11.8,15.87Zm-.07-1.62a2.46,2.46,0,0,0,0,1.54l.07,0a1.5,1.5,0,0,0,.79-.34,1.11,1.11,0,0,0,.09-.58.87.87,0,0,0-.17-.52,1,1,0,0,0-.57-.12Z"/><path class="cls-33" d="M12,15.63a.29.29,0,0,1-.14,0c-.05,0-.08-.1-.1-.22a1.68,1.68,0,0,1,.09-1h0a1,1,0,0,1,.2,0,.4.4,0,0,1,.34.13,1.52,1.52,0,0,1,.06.91A.69.69,0,0,1,12,15.63Zm-.11-1.17a1.66,1.66,0,0,0-.07.91c0,.14.06.17.07.18l.11,0a.59.59,0,0,0,.42-.19,1.46,1.46,0,0,0-.06-.84.36.36,0,0,0-.29-.09Z"/><path class="cls-33" d="M12,15.35c-.15,0-.16-.21-.17-.3V15c0-.13,0-.34.11-.37H12c.12,0,.15,0,.17,0a.9.9,0,0,1,.09.42.32.32,0,0,1-.26.26Zm0-.66c-.09,0-.07.2-.06.3v0c0,.13,0,.25.12.25s.19-.14.21-.21a.78.78,0,0,0-.08-.37s0,0-.12,0Z"/><path class="cls-105" d="M9.19,17.27a8.23,8.23,0,0,1,3-.89,1.66,1.66,0,0,1,2,1.46,1.2,1.2,0,0,1-.41,1.47A9.3,9.3,0,0,1,10.43,21Z"/><path class="cls-106" d="M12.27,16.71c-.63,0-1.4.23-1.56.6s.69,2.09.9,2.38a.25.25,0,0,0,.2.06,2.89,2.89,0,0,0,1.31-.47A1.39,1.39,0,0,0,13.77,18a1.42,1.42,0,0,0-.86-1.22A1.64,1.64,0,0,0,12.27,16.71Z"/><path class="cls-107" d="M12.27,16.71c-.63,0-1.4.23-1.56.6s.69,2.09.9,2.38a.25.25,0,0,0,.2.06,2.89,2.89,0,0,0,1.31-.47A1.39,1.39,0,0,0,13.77,18a1.42,1.42,0,0,0-.86-1.22A1.64,1.64,0,0,0,12.27,16.71Z"/><path class="cls-33" d="M10.41,21,9.15,17.25h0a8.44,8.44,0,0,1,3-.89h.28a1.65,1.65,0,0,1,1.79,1.49c.18.74.06,1.16-.43,1.5A9.34,9.34,0,0,1,10.43,21ZM9.22,17.28,10.45,21a9.64,9.64,0,0,0,3.33-1.67c.46-.32.57-.73.4-1.43a1.59,1.59,0,0,0-1.73-1.45h-.28A8.52,8.52,0,0,0,9.22,17.28Z"/><path class="cls-33" d="M11.81,19.81a.29.29,0,0,1-.25-.09c-.18-.24-1.07-2-.9-2.43s.94-.64,1.61-.64a1.61,1.61,0,0,1,.67.12A1.48,1.48,0,0,1,13.83,18a1.42,1.42,0,0,1-.67,1.3A3.07,3.07,0,0,1,11.81,19.81Zm.46-3.1c-.63,0-1.4.23-1.56.6s.69,2.09.9,2.38a.25.25,0,0,0,.2.06,2.89,2.89,0,0,0,1.31-.47A1.39,1.39,0,0,0,13.77,18a1.42,1.42,0,0,0-.86-1.22A1.64,1.64,0,0,0,12.27,16.71Z"/><path class="cls-33" d="M12.21,19.29c-.37,0-.79-.46-.91-.7s-.4-.9-.29-1.2a.18.18,0,0,1,.1-.11,4,4,0,0,1,1.35-.39.52.52,0,0,1,.35.1,1.59,1.59,0,0,1,.59,1.35,1.84,1.84,0,0,1-1.14.95ZM12.46,17a4,4,0,0,0-1.33.39.11.11,0,0,0-.06.07,2.35,2.35,0,0,0,.28,1.15c.12.23.52.67.86.67h0a1.77,1.77,0,0,0,1.09-.91A1.54,1.54,0,0,0,12.77,17,.52.52,0,0,0,12.46,17Z"/><path class="cls-33" d="M12.15,18.88a.46.46,0,0,1-.21-.05c-.23-.14-.77-.92-.7-1.13a.87.87,0,0,1,.84-.51l.14,0a.66.66,0,0,1,.6.34,1.4,1.4,0,0,1,.15.92.44.44,0,0,1-.21.25A1.41,1.41,0,0,1,12.15,18.88Zm.07-1.65a.38.38,0,0,0-.13,0h0a.81.81,0,0,0-.78.46c-.06.18.44.93.67,1.07a.34.34,0,0,0,.18,0,1.44,1.44,0,0,0,.59-.19.38.38,0,0,0,.17-.22,1.33,1.33,0,0,0-.15-.87A.58.58,0,0,0,12.22,17.23Z"/><path class="cls-33" d="M12.28,18.6h-.07a1.35,1.35,0,0,1-.66-.82.25.25,0,0,1,.17-.27,1.59,1.59,0,0,1,.4-.07.41.41,0,0,1,.27.08,1.09,1.09,0,0,1,.33.77A.45.45,0,0,1,12.28,18.6Zm-.16-1.11a1.35,1.35,0,0,0-.38.07.18.18,0,0,0-.13.2,1.34,1.34,0,0,0,.61.77h.06a.39.39,0,0,0,.38-.27,1.13,1.13,0,0,0-.31-.72A.35.35,0,0,0,12.12,17.49Z"/><path class="cls-33" d="M12.3,18.27h-.07a.84.84,0,0,1-.44-.28.11.11,0,0,1,0-.07.4.4,0,0,1,.31-.24h0s.4.2.41.36a.29.29,0,0,1-.06.19A.21.21,0,0,1,12.3,18.27Zm-.22-.54a.35.35,0,0,0-.25.19.66.66,0,0,0,.41.28c.08,0,.14,0,.17,0a.2.2,0,0,0,0-.14C12.44,17.94,12.22,17.8,12.08,17.73Z"/><path class="cls-108" d="M9.2,11.81a3.18,3.18,0,0,1,1.23.94,3,3,0,0,1,.64,2.54A4.28,4.28,0,0,1,9.84,17.6a25.56,25.56,0,0,1-3.07-.7S6.71,12.87,9.2,11.81Z"/><path class="cls-109" d="M7.67,15.83a.46.46,0,0,0,.15.33,2.66,2.66,0,0,0,1.64.49h0a1.33,1.33,0,0,0,.35,0,2.16,2.16,0,0,0,.69-1,2.59,2.59,0,0,0,.25-1.54c-.24-.86-.94-1.54-1.36-1.54a.32.32,0,0,0-.14,0C8.45,12.92,8,13.93,7.67,15.83Z"/><path class="cls-110" d="M7.67,15.83a.46.46,0,0,0,.15.33,2.66,2.66,0,0,0,1.64.49h0a1.33,1.33,0,0,0,.35,0,2.16,2.16,0,0,0,.69-1,2.59,2.59,0,0,0,.25-1.54c-.24-.86-.94-1.54-1.36-1.54a.32.32,0,0,0-.14,0C8.45,12.92,8,13.93,7.67,15.83Z"/><path class="cls-33" d="M9.79,17.63c-.45,0-2.93-.68-3-.7h0v0A8.73,8.73,0,0,1,7,14.74a4.23,4.23,0,0,1,2.17-3h0a3.17,3.17,0,0,1,1.25,1,3,3,0,0,1,.64,2.57,4.26,4.26,0,0,1-1.25,2.33Zm-3-.76a29.38,29.38,0,0,0,3,.7h0A4.29,4.29,0,0,0,11,15.29a3,3,0,0,0-.63-2.52,3.28,3.28,0,0,0-1.2-.93,4.16,4.16,0,0,0-2.13,2.92A9,9,0,0,0,6.8,16.87Z"/><path class="cls-33" d="M9.46,16.71h0a2.8,2.8,0,0,1-1.69-.5.54.54,0,0,1-.16-.38h0c.3-1.93.79-3,1.61-3.34a.47.47,0,0,1,.17,0c.45,0,1.17.69,1.42,1.58a2.84,2.84,0,0,1-.25,1.58,2.22,2.22,0,0,1-.73,1.05A1.52,1.52,0,0,1,9.46,16.71Zm-1.79-.88a.46.46,0,0,0,.15.33,2.66,2.66,0,0,0,1.64.49h0a1.33,1.33,0,0,0,.35,0,2.16,2.16,0,0,0,.69-1,2.59,2.59,0,0,0,.25-1.54c-.24-.86-.94-1.54-1.36-1.54a.32.32,0,0,0-.14,0C8.45,12.92,8,13.93,7.67,15.83Z"/><path class="cls-33" d="M9.45,16.3h0a1.69,1.69,0,0,1-1.09-.36.76.76,0,0,1-.21-.54,3.61,3.61,0,0,1,1.07-2.58.31.31,0,0,1,.21-.07c.45,0,.91.73,1,1.13a3.25,3.25,0,0,1-.18,1.31,3.31,3.31,0,0,1-.44,1A1,1,0,0,1,9.45,16.3Zm0-3.49a.32.32,0,0,0-.18.06,3.62,3.62,0,0,0-1,2.53.66.66,0,0,0,.2.49,1.51,1.51,0,0,0,1,.35h0a.89.89,0,0,0,.35,0,4.74,4.74,0,0,0,.6-2.3C10.27,13.46,9.81,12.81,9.43,12.81Z"/><path class="cls-33" d="M9.3,16h0a.86.86,0,0,1-.76-.58c-.12-.41.63-1.9.67-2v0h.1a1.1,1.1,0,0,1,.84.57A2.05,2.05,0,0,1,10,15a2.24,2.24,0,0,1-.47.95A.46.46,0,0,1,9.3,16Zm-.05-2.5c-.08.16-.76,1.54-.65,1.9a.81.81,0,0,0,.7.54h0a.38.38,0,0,0,.19,0A3.35,3.35,0,0,0,10.1,14a1,1,0,0,0-.79-.53Z"/><path class="cls-33" d="M9.31,15.61h0a.44.44,0,0,1-.4-.3,3.83,3.83,0,0,1,.3-1.3h0a.38.38,0,0,1,.19-.06c.26,0,.4.32.44.49a1.79,1.79,0,0,1-.28,1.08A.36.36,0,0,1,9.31,15.61ZM9.26,14A4,4,0,0,0,9,15.29a.36.36,0,0,0,.34.25h0a.33.33,0,0,0,.22-.08,1.83,1.83,0,0,0,.26-1c0-.16-.16-.45-.38-.45A.3.3,0,0,0,9.26,14Z"/><path class="cls-33" d="M9.36,15.26a.31.31,0,0,1-.24-.13.25.25,0,0,1,0-.18c.11-.36.21-.56.3-.59h0s.27.1.31.2a.06.06,0,0,1,0,.07,1.84,1.84,0,0,1-.06.18c-.05.2-.12.43-.25.45Zm0-.84s-.13.13-.25.55a.19.19,0,0,0,0,.13.25.25,0,0,0,.21.1c.08,0,.15-.25.2-.41a1.08,1.08,0,0,1,.06-.19v0A.53.53,0,0,0,9.38,14.42Z"/><path class="cls-111" d="M6.84,15.06s0-.06,0-.09c-.22-1.24-.2-3.13-.72-3.09A3.17,3.17,0,0,1,6,13.14,6.3,6.3,0,0,0,5.44,15C5.8,14.62,6.44,14.79,6.84,15.06Z"/><path class="cls-112" d="M5.44,15A5.08,5.08,0,0,0,6,17.66c.32.15,1-1.38.85-2.6C6.44,14.79,5.8,14.62,5.44,15Z"/><path class="cls-113" d="M6.13,14.78c0-.7.16-1.44.14-2.12a1.17,1.17,0,0,0,0-.74.2.2,0,0,0-.13,0A3.17,3.17,0,0,1,6,13.14,6.17,6.17,0,0,0,5.45,15,.8.8,0,0,1,6.13,14.78Z"/><path class="cls-114" d="M6.09,14.71c0-.7.2-1.37.18-2.05a1.17,1.17,0,0,0,0-.74.2.2,0,0,0-.13,0,2.79,2.79,0,0,1,0,1.32,4.27,4.27,0,0,0-.51,1.58A.81.81,0,0,1,6.09,14.71Z"/><path class="cls-115" d="M6.21,15.34a2.61,2.61,0,0,1-.08-.56.8.8,0,0,0-.68.2,4.72,4.72,0,0,0,.64,2.84A5,5,0,0,1,5.9,16.1C5.9,15.8,6.27,15.56,6.21,15.34Z"/><path class="cls-116" d="M6.14,15.36a1.83,1.83,0,0,1,0-.47.79.79,0,0,0-.6.18,5.55,5.55,0,0,0,.58,2.75,4.52,4.52,0,0,1-.23-1.74C5.86,15.78,6.2,15.58,6.14,15.36Z"/><path class="cls-117" d="M5.47,15l0,0c.25-.39.81-.2.84-.2l0,.06S5.7,14.69,5.47,15Z"/><path class="cls-117" d="M6,17.7H6a4.86,4.86,0,0,1-.11-4.32c0-.09.07-.16.09-.22a3.07,3.07,0,0,0,.13-1.24v0h.06c.38,0,.48.9.58,1.94,0,.4.09.81.15,1.17a3.82,3.82,0,0,1-.58,2.59A.33.33,0,0,1,6,17.7Zm0-.07H6a.32.32,0,0,0,.19-.13A3.75,3.75,0,0,0,6.79,15c-.06-.36-.1-.77-.15-1.18-.09-.91-.19-1.85-.51-1.88A3.28,3.28,0,0,1,6,13.15c0,.06,0,.13-.09.22A4.75,4.75,0,0,0,6,17.63Z"/><path class="cls-118" d="M6.1,18.76a4.44,4.44,0,0,0-.59,1.74,5.19,5.19,0,0,1-1.09,2.65c-.4.33-1,1-.85,1.5s.51,1.31,2,1.56c.22,0,1.28.07,1.68-.61s1.25-2.57.79-3.54S6.1,18.76,6.1,18.76Z"/><path class="cls-119" d="M6.57,25.61c-.06-.73-.21-1.83.7-2.07-.51-.18-.24-.88-.45-1a2.36,2.36,0,0,1-.67-2.19,1.68,1.68,0,0,1,.41-.82l-.46-.73a4.44,4.44,0,0,0-.59,1.74,5.19,5.19,0,0,1-1.09,2.65c-.4.33-1,1-.85,1.5a1.21,1.21,0,0,0,.05.18A3,3,0,0,0,6.57,25.61Z"/><path class="cls-120" d="M6.57,25.61c-.06-.73-.21-1.83.7-2.07-.51-.18-.24-.88-.45-1a2.36,2.36,0,0,1-.67-2.19,1.68,1.68,0,0,1,.41-.82l-.46-.73a4.44,4.44,0,0,0-.59,1.74,5.19,5.19,0,0,1-1.09,2.65c-.4.33-1,1-.85,1.5a1.21,1.21,0,0,0,.05.18A3,3,0,0,0,6.57,25.61Z"/><path class="cls-15" d="M5.65,21.82a.54.54,0,0,0-.3-.52,8.7,8.7,0,0,1-.35.94.34.34,0,0,0,.24.11A.48.48,0,0,0,5.65,21.82Z"/><path class="cls-15" d="M5.53,23.37a.37.37,0,0,1-.37.37.36.36,0,0,1-.36-.37A.37.37,0,0,1,5.16,23,.38.38,0,0,1,5.53,23.37Z"/><path class="cls-15" d="M6,22.7a.34.34,0,1,1-.67,0,.34.34,0,1,1,.67,0Z"/><path class="cls-121" d="M4.86,24.28c1.39-1.93.67-3.68,1.3-5.33l-.06-.19a5.06,5.06,0,0,0-.59,1.74c-.38,2.8-1.47,2.73-1.8,3.67C3.48,24.8,4.23,25.16,4.86,24.28Z"/><path class="cls-19" d="M5.85,26.25H5.58c-1.46-.24-1.92-1-2-1.59s.48-1.21.86-1.52A5.24,5.24,0,0,0,5.48,20.5a4.69,4.69,0,0,1,.59-1.76l0,0,0,0s1.51,2.34,2,3.3S7.66,25,7.29,25.61A1.66,1.66,0,0,1,5.85,26.25Zm.25-7.44a4.61,4.61,0,0,0-.56,1.7,5.4,5.4,0,0,1-1.1,2.67c-.37.3-1,.94-.84,1.46s.57,1.31,2,1.54h.26a1.6,1.6,0,0,0,1.38-.61c.38-.65,1.25-2.54.79-3.51S6.3,19.13,6.1,18.81Z"/><path class="cls-15" d="M6.71,23.07a.3.3,0,0,1-.3.3.3.3,0,0,1,0-.6A.3.3,0,0,1,6.71,23.07Z"/><path class="cls-122" d="M6.56,22a.35.35,0,1,1-.69,0,.35.35,0,1,1,.69,0Z"/><path class="cls-15" d="M6.24,21.64h0a.37.37,0,0,0-.35.4.36.36,0,0,0,.35.39.36.36,0,0,0,.31-.22A1.4,1.4,0,0,1,6.24,21.64Z"/><path class="cls-123" d="M3.74,25.07c-.17.1-.77-.07-.81-.24s.44-.56.62-.55S3.88,25,3.74,25.07Z"/><path class="cls-124" d="M3.74,24.92a1.06,1.06,0,0,1-.81-.09c0-.18.44-.56.62-.55S3.88,24.83,3.74,24.92Z"/><path class="cls-125" d="M3.73,24.88c-.16.1-.74,0-.76-.05s.42-.51.61-.49S3.84,24.81,3.73,24.88Z"/><path class="cls-5" d="M2.91,24.84h0A.34.34,0,0,1,3,24.58a.92.92,0,0,1,.53-.32c.11,0,.21.14.25.35s0,.42,0,.48a.82.82,0,0,1-.6-.06C3.07,25,2.93,24.93,2.91,24.84Zm.85-.22c0-.18-.13-.31-.21-.31a.86.86,0,0,0-.49.31.26.26,0,0,0-.1.2H3c0,.05.09.11.21.16a.81.81,0,0,0,.55.06C3.79,25,3.8,24.82,3.76,24.62Z"/><path class="cls-126" d="M4.84,25.93c0,.19-.59.5-.74.4s-.09-.71.05-.83S4.87,25.76,4.84,25.93Z"/><path class="cls-127" d="M4.73,25.83c0,.19-.55.55-.63.5s-.09-.71.05-.83S4.77,25.66,4.73,25.83Z"/><path class="cls-128" d="M4.7,25.8c0,.19-.5.55-.58.5s0-.66.09-.78S4.73,25.67,4.7,25.8Z"/><path class="cls-5" d="M4.09,26.35h0A.37.37,0,0,1,4,26.09a.87.87,0,0,1,.15-.61c.08-.07.24,0,.42.08s.32.27.3.37-.26.3-.46.39S4.17,26.4,4.09,26.35Zm.45-.75c-.16-.1-.31-.13-.37-.08a.87.87,0,0,0-.13.57.29.29,0,0,0,.07.22v0s.15,0,.27,0,.41-.25.43-.35S4.71,25.71,4.54,25.6Z"/><path class="cls-129" d="M6.44,26.05c.08.17-.17.75-.34.77s-.5-.51-.46-.69S6.36,25.89,6.44,26.05Z"/><path class="cls-130" d="M6.29,26a1.05,1.05,0,0,1-.19.79c-.18,0-.5-.51-.46-.69S6.22,25.87,6.29,26Z"/><path class="cls-131" d="M6.25,26c.08.18-.06.74-.15.75s-.45-.49-.41-.67S6.19,25.91,6.25,26Z"/><path class="cls-5" d="M6.1,26.84h0c-.08,0-.17-.07-.23-.14a.9.9,0,0,1-.26-.58c0-.1.17-.18.39-.2s.41,0,.46.12a.8.8,0,0,1-.13.58C6.28,26.7,6.19,26.83,6.1,26.84ZM6,26c-.19,0-.32.08-.34.16a.91.91,0,0,0,.24.53c.08.09.15.14.2.13v0c.05,0,.12-.07.19-.19a.85.85,0,0,0,.13-.54C6.39,26,6.2,26,6,26Z"/><path class="cls-132" d="M6.86,16.82a6.15,6.15,0,0,1,2.82.38c1,.55,1.37,2.23,1.33,3S9.17,22.48,7.92,22.7C7.5,22.44,5.81,18.72,6.86,16.82Z"/><path class="cls-133" d="M7.35,17.14c-.26.12-.18.69-.15.94,0,0,0,.05,0,.07,0,.43.56,3.27,1.3,3.46l.12,0a2.93,2.93,0,0,0,1.75-1.24c.35-.55-.22-1.94-.58-2.61S8,17.14,7.5,17.14Z"/><path class="cls-134" d="M7.35,17.14c-.26.12-.18.69-.15.94,0,0,0,.05,0,.07,0,.43.56,3.27,1.3,3.46l.12,0a2.93,2.93,0,0,0,1.75-1.24c.35-.55-.22-1.94-.58-2.61S8,17.14,7.5,17.14Z"/><path class="cls-33" d="M7.91,22.73h0a6,6,0,0,1-1.09-2.34,5.13,5.13,0,0,1,0-3.58v0h0s.26,0,.64,0a5.14,5.14,0,0,1,2.2.4c1,.56,1.38,2.26,1.34,3A2.66,2.66,0,0,1,9.93,21.7a4.84,4.84,0,0,1-2,1Zm-1-5.88a5.13,5.13,0,0,0,0,3.52,6.31,6.31,0,0,0,1.06,2.3c1.21-.23,3-1.67,3.05-2.45s-.3-2.45-1.31-3a5,5,0,0,0-2.17-.4C7.18,16.83,6.94,16.84,6.88,16.85Z"/><path class="cls-33" d="M8.63,21.69l-.13,0c-.85-.22-1.35-3.48-1.35-3.51s0,0,0-.07c0-.29-.12-.88.19-1H7.5c.46,0,2,.05,2.35.68s1,2.09.58,2.67A3,3,0,0,1,8.63,21.69ZM7.35,17.14c-.26.12-.18.69-.15.94,0,0,0,.05,0,.07,0,.43.56,3.27,1.3,3.46l.12,0a2.93,2.93,0,0,0,1.75-1.24c.35-.55-.22-1.94-.58-2.61S8,17.14,7.5,17.14Z"/><path class="cls-33" d="M8.61,21.25a.21.21,0,0,1-.12,0,7.83,7.83,0,0,1-1-2.94v0c0-.27-.06-.63.07-.77a.18.18,0,0,1,.14-.06h0c.36,0,1.52,0,1.75.36a5.25,5.25,0,0,1,.73,2.32A2.69,2.69,0,0,1,8.61,21.25Zm-1-3.77a.12.12,0,0,0-.09,0c-.11.13-.08.48-.06.72v.05a8,8,0,0,0,1,2.89l.09,0a2.65,2.65,0,0,0,1.49-1.12,5.28,5.28,0,0,0-.72-2.26c-.17-.25-1-.33-1.7-.33Z"/><path class="cls-33" d="M8.78,20.84a.29.29,0,0,1-.25-.14A5.78,5.78,0,0,1,7.69,18c0-.17.38-.29.69-.29a.88.88,0,0,1,.61.21,3,3,0,0,1,.71,2C9.6,20.24,9.13,20.84,8.78,20.84Zm-.4-3.1c-.33,0-.61.12-.63.23a5.8,5.8,0,0,0,.83,2.7.24.24,0,0,0,.2.11c.3,0,.76-.54.86-.93a3,3,0,0,0-.7-1.93A.79.79,0,0,0,8.38,17.74Z"/><path class="cls-33" d="M8.74,20.44h0A3.63,3.63,0,0,1,8,18.92c-.13-.49-.11-.79,0-.91h0a1.4,1.4,0,0,1,.43-.09.43.43,0,0,1,.36.15c.19.26.66,1.14.52,1.55S9,20.44,8.74,20.44Zm-.62-2.38c-.1.08-.13.29-.08.61a4.58,4.58,0,0,0,.7,1.71h0c.15,0,.47-.38.6-.77a2.52,2.52,0,0,0-.51-1.51A.39.39,0,0,0,8.52,18,1.18,1.18,0,0,0,8.12,18.06Z"/><path class="cls-33" d="M8.71,19.9H8.64c-.11,0-.25-.45-.44-1.13l0-.17a.29.29,0,0,1,0-.25.45.45,0,0,1,.36-.19c.2,0,.39.44.41.49a4.4,4.4,0,0,1,.21,1s0,.07,0,.11A.65.65,0,0,1,8.71,19.9Zm-.15-1.69h0a.4.4,0,0,0-.31.17.2.2,0,0,0,0,.19l0,.17a4,4,0,0,0,.39,1.09h.06a.63.63,0,0,0,.38-.14.11.11,0,0,0,0-.07,4.45,4.45,0,0,0-.2-1C8.84,18.49,8.68,18.21,8.56,18.21Z"/><path class="cls-33" d="M8.76,19.49c-.13,0-.25-.2-.29-.35a.51.51,0,0,0,0-.09.48.48,0,0,1,0-.37.2.2,0,0,1,.14-.11h0c.06,0,.21,0,.23.46,0,0,0,.09,0,.14a.45.45,0,0,1,0,.29.09.09,0,0,1-.06,0Zm-.17-.86a.19.19,0,0,0-.11.08.41.41,0,0,0,0,.32.44.44,0,0,1,0,.1c0,.15.16.31.24.3h0s0-.16,0-.26a.69.69,0,0,1,0-.13c0-.3-.1-.41-.17-.41Z"/><path class="cls-135" d="M6.68,15.6s-.56-.24-.43-1.29A5.82,5.82,0,0,0,6,11.88a.37.37,0,0,1,.6-.41,4.36,4.36,0,0,1,.24,3A2.83,2.83,0,0,1,6.68,15.6Z"/><path class="cls-136" d="M6.49,14.5c.38-1.23.47-2.69,0-3.1a.37.37,0,0,0-.48.48,5.82,5.82,0,0,1,.26,2.43,1.42,1.42,0,0,0,.18,1A3.1,3.1,0,0,1,6.49,14.5Z"/><path class="cls-137" d="M6.49,14.5c.38-1.23.47-2.69,0-3.1a.37.37,0,0,0-.48.48,5.82,5.82,0,0,1,.26,2.43,1.42,1.42,0,0,0,.18,1A3.1,3.1,0,0,1,6.49,14.5Z"/><path class="cls-26" d="M6.7,15.64h0s-.58-.27-.45-1.33A5.62,5.62,0,0,0,6,11.89.45.45,0,0,1,6,11.5a.4.4,0,0,1,.31-.16.45.45,0,0,1,.28.11A2.66,2.66,0,0,1,7,12.74a3.85,3.85,0,0,1-.12,1.7,2.87,2.87,0,0,1-.15,1.17ZM6.33,11.4a.31.31,0,0,0-.26.14.35.35,0,0,0-.05.33,5.76,5.76,0,0,1,.26,2.44c-.11.88.27,1.18.38,1.25a2.77,2.77,0,0,0,.14-1.13h0a4.36,4.36,0,0,0-.23-2.93A.36.36,0,0,0,6.33,11.4Z"/><path class="cls-138" d="M7,22s.07,1.28.85,1.61.69-.28.69-.28-.35-1.49-1-1.55A1,1,0,0,0,7,22Z"/><path class="cls-139" d="M7,22l0,0s.06,1.2.78,1.57C8.28,23.43,7.78,22.12,7,22Z"/><path class="cls-140" d="M7,22l0,0s.06,1.2.78,1.57C8.28,23.43,7.78,22.12,7,22Z"/><path class="cls-26" d="M8.25,23.77h0a1,1,0,0,1-.4-.1C7.06,23.34,7,22.09,7,22v0H7a1.14,1.14,0,0,1,.59-.22h0c.63.06,1,1.51,1,1.58a.39.39,0,0,1-.08.3A.29.29,0,0,1,8.25,23.77ZM7,22.05c0,.14.12,1.27.83,1.57.29.12.49.12.59,0a.36.36,0,0,0,.06-.25s-.35-1.46-.93-1.53A1.13,1.13,0,0,0,7,22.05Z"/><path class="cls-141" d="M6.34,19.86a2.33,2.33,0,0,0,.12,1.58c.37.9.68.82,1,.73s.46-.4.23-.93-.61-1.36-.86-1.36S6.34,19.86,6.34,19.86Z"/><path class="cls-142" d="M7.29,21.7a2.83,2.83,0,0,0-.85-1.83h-.1a2.33,2.33,0,0,0,.12,1.58,1.34,1.34,0,0,0,.51.73C7.1,22.19,7.33,22.06,7.29,21.7Z"/><path class="cls-143" d="M7.29,21.7a2.83,2.83,0,0,0-.85-1.83h-.1a2.33,2.33,0,0,0,.12,1.58,1.34,1.34,0,0,0,.51.73C7.1,22.19,7.33,22.06,7.29,21.7Z"/><path class="cls-26" d="M7.17,22.25h0c-.28,0-.51-.25-.74-.8a2.4,2.4,0,0,1-.12-1.6v0h0l.46,0c.2,0,.48.43.89,1.38a.89.89,0,0,1,.06.7.52.52,0,0,1-.31.27A.86.86,0,0,1,7.17,22.25Zm-.81-2.36a2.33,2.33,0,0,0,.13,1.54c.28.67.51.76.68.76a.79.79,0,0,0,.25-.05.42.42,0,0,0,.27-.23.8.8,0,0,0-.05-.65q-.58-1.35-.84-1.35Z"/><path class="cls-144" d="M6.17,17.52a2.25,2.25,0,0,0-.25,1.32c.07.81.25,1.26.67,1.24s.58-.52.59-.93S7,17.72,6.54,17.64A2.12,2.12,0,0,1,6.17,17.52Z"/><path class="cls-145" d="M6.31,17.57l-.14-.05a2.25,2.25,0,0,0-.25,1.32c.07.79.24,1.23.63,1.24A3.55,3.55,0,0,0,6.31,17.57Z"/><path class="cls-146" d="M6.31,17.57l-.14-.05a2.25,2.25,0,0,0-.25,1.32c.07.79.24,1.23.63,1.24A3.55,3.55,0,0,0,6.31,17.57Z"/><path class="cls-26" d="M6.56,20.11h0c-.39,0-.6-.39-.67-1.27a2.37,2.37,0,0,1,.25-1.34l0,0h0a2.12,2.12,0,0,0,.37.12c.5.08.66,1.09.66,1.54s-.2,1-.62,1Zm-.38-2.55A2.3,2.3,0,0,0,6,18.84c.07.84.26,1.21.61,1.21h0c.39,0,.56-.48.57-.9S7,17.74,6.54,17.67A2.31,2.31,0,0,1,6.18,17.56Z"/><path class="cls-147" d="M6.62,15.11a2.66,2.66,0,0,0-.56,1.45c-.2,1.11.09,1.29.5,1.28s.61-1.42.62-1.76,0-.84-.26-.87A.55.55,0,0,1,6.62,15.11Z"/><path class="cls-148" d="M6.8,15.19a.48.48,0,0,1-.18-.08,2.66,2.66,0,0,0-.56,1.45c-.14.79,0,1.11.18,1.22A2.89,2.89,0,0,0,6.8,15.19Z"/><path class="cls-149" d="M6.8,15.19a.48.48,0,0,1-.18-.08,2.66,2.66,0,0,0-.56,1.45c-.14.79,0,1.11.18,1.22A2.89,2.89,0,0,0,6.8,15.19Z"/><path class="cls-26" d="M6.54,17.87a.53.53,0,0,1-.44-.16c-.16-.19-.18-.56-.07-1.15a2.67,2.67,0,0,1,.57-1.47l0,0,0,0a.49.49,0,0,0,.29.08c.3.05.28.54.28.9h0c0,.32-.2,1.78-.65,1.79Zm.08-2.72a3,3,0,0,0-.53,1.42c-.11.57-.08.93.06,1.1a.45.45,0,0,0,.39.14h0c.38,0,.58-1.38.59-1.73h0c0-.32,0-.8-.23-.83A.66.66,0,0,1,6.62,15.15Z"/><path class="cls-150" d="M7.13,13.46a3.7,3.7,0,0,0-.51,1.06c-.12.49-.06.91.25.88s.51-.42.57-.66a2.1,2.1,0,0,0,.07-.94A2.71,2.71,0,0,0,7.13,13.46Z"/><path class="cls-151" d="M7,15.19a1.94,1.94,0,0,0,.31-1.62l-.15-.11a3.7,3.7,0,0,0-.51,1.06c-.11.43-.07.81.16.87A1.8,1.8,0,0,0,7,15.19Z"/><path class="cls-152" d="M7,15.19a1.94,1.94,0,0,0,.31-1.62l-.15-.11a3.7,3.7,0,0,0-.51,1.06c-.11.43-.07.81.16.87A1.8,1.8,0,0,0,7,15.19Z"/><path class="cls-26" d="M6.85,15.43h0a.26.26,0,0,1-.22-.1,1,1,0,0,1,0-.82,3.63,3.63,0,0,1,.52-1.07l0,0,0,0a2.24,2.24,0,0,1,.38.34c.13.17,0,.94-.06,1-.06.22-.25.65-.59.68Zm.29-1.93a3.8,3.8,0,0,0-.49,1,.93.93,0,0,0,0,.76.21.21,0,0,0,.17.08h0c.31,0,.49-.43.54-.64a2.06,2.06,0,0,0,.07-.92A2.39,2.39,0,0,0,7.14,13.5Z"/><path class="cls-153" d="M8.19,12.11a2.47,2.47,0,0,0-1,1.2.41.41,0,0,0,.49.55,1.6,1.6,0,0,0,.82-1.32A.74.74,0,0,0,8.19,12.11Z"/><path class="cls-154" d="M8.38,12.35a.6.6,0,0,0-.19-.24,2.47,2.47,0,0,0-1,1.2.4.4,0,0,0,.15.5,1.12,1.12,0,0,0,.26-.08A1.83,1.83,0,0,0,8.38,12.35Z"/><path class="cls-155" d="M8.38,12.35a.6.6,0,0,0-.19-.24,2.47,2.47,0,0,0-1,1.2.4.4,0,0,0,.15.5,1.12,1.12,0,0,0,.26-.08A1.83,1.83,0,0,0,8.38,12.35Z"/><path class="cls-26" d="M7.53,13.91h0a.47.47,0,0,1-.38-.2.43.43,0,0,1,0-.42,2.57,2.57,0,0,1,1.07-1.21h0a.83.83,0,0,1,.27.46h0a1.65,1.65,0,0,1-.84,1.34A.2.2,0,0,1,7.53,13.91Zm.66-1.77a2.48,2.48,0,0,0-1,1.17.41.41,0,0,0,0,.37.42.42,0,0,0,.33.17h.09a1.6,1.6,0,0,0,.8-1.29A.85.85,0,0,0,8.19,12.14Z"/><path class="cls-156" d="M9.54,11.58s.08.4-.25.46a1.34,1.34,0,0,0-.76.52c-.1.15-.35,0-.41-.24s.09-.49.49-.8.65-.48.8-.28A.69.69,0,0,1,9.54,11.58Z"/><path class="cls-157" d="M8.68,12.18A.38.38,0,0,1,9.05,12a.44.44,0,0,0,.43-.58.83.83,0,0,0-.07-.13c-.15-.2-.4,0-.8.28s-.54.6-.49.8a.55.55,0,0,0,.08.15C8.47,12.57,8.56,12.46,8.68,12.18Z"/><path class="cls-158" d="M8.68,12.18A.38.38,0,0,1,9.05,12a.44.44,0,0,0,.43-.58.83.83,0,0,0-.07-.13c-.15-.2-.4,0-.8.28s-.54.6-.49.8a.55.55,0,0,0,.08.15C8.47,12.57,8.56,12.46,8.68,12.18Z"/><path class="cls-26" d="M8.43,12.65c-.13,0-.29-.16-.34-.32s.12-.53.5-.84a1.38,1.38,0,0,1,.65-.37.22.22,0,0,1,.19.1.74.74,0,0,1,.14.36.51.51,0,0,1-.06.35.34.34,0,0,1-.22.14,1.29,1.29,0,0,0-.73.51A.17.17,0,0,1,8.43,12.65Zm.81-1.47a1.46,1.46,0,0,0-.61.36c-.36.28-.53.57-.48.77s.18.27.28.27a.1.1,0,0,0,.08,0A1.36,1.36,0,0,1,9.28,12a.33.33,0,0,0,.18-.11.51.51,0,0,0,0-.31h0a.73.73,0,0,0-.13-.33A.15.15,0,0,0,9.24,11.18Z"/><path class="cls-33" d="M15.17,16.52h-.06a2.49,2.49,0,0,0-.47-.05c-.38,0-.74,0-.78-.18a3.23,3.23,0,0,1-.09-.83v-.19c0-.26,0-.62.1-.7h0a2,2,0,0,1,.93.29L15,15c.32.23.66.47.59.74a.8.8,0,0,0,0,.18C15.47,16.16,15.39,16.52,15.17,16.52ZM13.9,14.61c-.1.08-.08.43-.07.64a1.43,1.43,0,0,1,0,.21,3,3,0,0,0,.09.8c0,.12.41.13.72.14a2.72,2.72,0,0,1,.48.05h.05c.17,0,.24-.34.3-.59,0-.07,0-.14,0-.19.06-.22-.26-.45-.57-.67l-.16-.11A2,2,0,0,0,13.9,14.61Z"/><path class="cls-33" d="M14.84,16.27h-.09l-.23,0c-.23,0-.5,0-.54-.23a5.07,5.07,0,0,1,0-.88c0-.19,0-.3.13-.34h0a1.26,1.26,0,0,1,.51.1l.16.09a.75.75,0,0,1,.42.32l0,.06a.58.58,0,0,1,.08.58A.49.49,0,0,1,14.84,16.27Zm-.74-1.41s-.08.08-.09.28A5,5,0,0,0,14,16c0,.16.26.17.48.18l.24,0a.44.44,0,0,0,.49-.29c.09-.19,0-.33-.09-.52l0-.06a.81.81,0,0,0-.4-.3L14.57,15A1.15,1.15,0,0,0,14.1,14.86Z"/><path class="cls-33" d="M14.63,16.14l-.12,0c-.08-.05-.35-.21-.41-.4-.12-.37,0-.58.18-.65s.37,0,.6.18.35.55.26.69A.74.74,0,0,1,14.63,16.14Zm-.21-1a.2.2,0,0,0-.11,0c-.15.06-.26.24-.15.57a.83.83,0,0,0,.38.36l.09,0a.67.67,0,0,0,.46-.18c.07-.1-.06-.45-.25-.6A.7.7,0,0,0,14.42,15.1Z"/><path class="cls-33" d="M14.69,15.94a.33.33,0,0,1-.21-.08.54.54,0,0,1-.21-.44.23.23,0,0,1,.17-.18h.09a.38.38,0,0,1,.3.19v0c.06.08.16.21.13.32a.12.12,0,0,1-.07.1A.43.43,0,0,1,14.69,15.94Zm-.16-.65h-.08a.15.15,0,0,0-.12.13.46.46,0,0,0,.18.38.27.27,0,0,0,.36,0s0,0,0-.06-.07-.21-.12-.28v0A.3.3,0,0,0,14.53,15.29Z"/><path class="cls-159" d="M7.79,28.11c-.18.08-.74-.2-.75-.38s.53-.47.71-.42S8,28.05,7.79,28.11Z"/><path class="cls-160" d="M7.81,28A1.08,1.08,0,0,1,7,27.73c0-.18.53-.47.71-.42S8,27.9,7.81,28Z"/><path class="cls-161" d="M7.82,27.92c-.18.07-.74-.09-.74-.19s.51-.42.69-.37S7.94,27.88,7.82,27.92Z"/><path class="cls-5" d="M7,27.73H7c0-.08.08-.17.15-.23a1,1,0,0,1,.59-.22c.1,0,.17.18.18.4s0,.41-.14.46A.85.85,0,0,1,7.22,28C7.15,27.92,7,27.83,7,27.73Zm.87-.05c0-.19-.06-.33-.14-.35a.93.93,0,0,0-.55.21c-.08.07-.14.14-.13.19h0c0,.05.07.13.18.2a.82.82,0,0,0,.53.16C7.85,28.06,7.9,27.88,7.89,27.68Z"/><path class="cls-162" d="M7.85,27.08A1.22,1.22,0,0,0,8,28.27c.41.51,2.16.84,3.6.49a1.49,1.49,0,0,0,1.24-2A6,6,0,0,0,10,23.47c-1-.41-2.69-.3-3,1.08A3.19,3.19,0,0,0,7.85,27.08Z"/><path class="cls-163" d="M12,27.78a1.41,1.41,0,0,0,0-1.31,7.3,7.3,0,0,0-2.2-3,.51.51,0,0,0-.16-.09c-1-.26-2.36,0-2.61,1.19a3.19,3.19,0,0,0,.85,2.53,1.3,1.3,0,0,0,0,1C8.31,28.79,11,28.89,12,27.78Z"/><path class="cls-164" d="M12,27.78a1.41,1.41,0,0,0,0-1.31,7.3,7.3,0,0,0-2.2-3,.51.51,0,0,0-.16-.09c-1-.26-2.36,0-2.61,1.19a3.19,3.19,0,0,0,.85,2.53,1.3,1.3,0,0,0,0,1C8.31,28.79,11,28.89,12,27.78Z"/><path class="cls-15" d="M8.78,26.44s-.43-.35-.63-.22-.31.31-.16.5.32.32.51.23S9,26.66,8.78,26.44Z"/><path class="cls-15" d="M7.87,25.38s-.39.17-.37.41.2.49.35.43.34-.23.33-.38S8.09,25.36,7.87,25.38Z"/><path class="cls-15" d="M7.66,24.69A.65.65,0,0,0,7.2,24a1.61,1.61,0,0,0-.2.52,2.38,2.38,0,0,0,0,.84A.85.85,0,0,0,7.66,24.69Z"/><path class="cls-165" d="M9.39,23.38c-1.77-.33-2.35.7-2.4,1.46a2.85,2.85,0,0,0,1.94,2.82c-1.15-1.18-1.43-1.87-1.3-2.86A1.75,1.75,0,0,1,9.39,23.38Z"/><path class="cls-19" d="M10.28,28.93h0a3.55,3.55,0,0,1-2.35-.64,1.23,1.23,0,0,1-.11-1.2A3.2,3.2,0,0,1,7,24.54a1.73,1.73,0,0,1,1.89-1.31,3.17,3.17,0,0,1,1.11.21,6,6,0,0,1,2.86,3.37,1.51,1.51,0,0,1-1.26,2A5.32,5.32,0,0,1,10.28,28.93ZM8.86,23.29A1.67,1.67,0,0,0,7,24.55a3.14,3.14,0,0,0,.85,2.51v0A1.19,1.19,0,0,0,8,28.25a3.46,3.46,0,0,0,2.3.62h0a5.15,5.15,0,0,0,1.27-.14,1.46,1.46,0,0,0,1.22-1.92,4.8,4.8,0,0,0-.88-1.64,4.86,4.86,0,0,0-2-1.67A3,3,0,0,0,8.86,23.29Z"/><path class="cls-19" d="M7.83,27.1l0,0a3.43,3.43,0,0,0,1,.59A3,3,0,0,1,7.83,27.1Z"/><path class="cls-15" d="M8.62,25.48s-.26.25,0,.45A.34.34,0,0,0,9,26C9.17,25.86,9,25.25,8.62,25.48Z"/><path class="cls-15" d="M8.16,24.49a.38.38,0,0,1,.3.38.35.35,0,0,1-.48.28C7.76,25,7.75,24.47,8.16,24.49Z"/><path class="cls-33" d="M14.62,15.71c-.06,0-.16,0-.17-.07a.24.24,0,0,1,0-.18.21.21,0,0,1,.12-.05h0s.16.12.14.22S14.71,15.71,14.62,15.71Zm-.11-.09a.18.18,0,0,0,.11,0c.06,0,.09,0,.09,0s-.06-.12-.11-.16h0l-.06,0A.15.15,0,0,0,14.51,15.62Z"/></g></g></g></g></g></svg>