<svg xmlns="http://www.w3.org/2000/svg" xmlns:xlink="http://www.w3.org/1999/xlink" viewBox="0 0 19.98 28.3"><defs><style>.cls-1{isolation:isolate;}.cls-2{fill:url(#radial-gradient);}.cls-3{fill:url(#radial-gradient-2);}.cls-100,.cls-102,.cls-104,.cls-106,.cls-108,.cls-110,.cls-112,.cls-116,.cls-122,.cls-126,.cls-13,.cls-130,.cls-133,.cls-136,.cls-137,.cls-140,.cls-143,.cls-146,.cls-153,.cls-155,.cls-157,.cls-159,.cls-160,.cls-163,.cls-166,.cls-169,.cls-172,.cls-175,.cls-178,.cls-181,.cls-182,.cls-24,.cls-26,.cls-28,.cls-30,.cls-32,.cls-34,.cls-38,.cls-4,.cls-42,.cls-43,.cls-44,.cls-45,.cls-46,.cls-47,.cls-52,.cls-54,.cls-55,.cls-57,.cls-58,.cls-61,.cls-62,.cls-63,.cls-64,.cls-70,.cls-71,.cls-80,.cls-82,.cls-83,.cls-85,.cls-86,.cls-98{mix-blend-mode:screen;}.cls-4{fill:url(#radial-gradient-3);}.cls-5{fill:url(#radial-gradient-4);}.cls-6{fill:url(#radial-gradient-5);}.cls-7{fill:url(#radial-gradient-6);}.cls-8{fill:url(#radial-gradient-7);}.cls-9{fill:url(#radial-gradient-8);}.cls-10{fill:url(#radial-gradient-9);}.cls-11{fill:url(#radial-gradient-10);}.cls-12{fill:url(#radial-gradient-11);}.cls-13{fill:url(#radial-gradient-12);}.cls-14{fill:#4c1f11;}.cls-15{fill:#200908;}.cls-16{fill:url(#radial-gradient-13);}.cls-17{fill:url(#radial-gradient-14);}.cls-18{fill:url(#radial-gradient-15);}.cls-19{fill:url(#radial-gradient-16);}.cls-20{fill:url(#radial-gradient-17);}.cls-21{fill:url(#radial-gradient-18);}.cls-22{fill:url(#radial-gradient-19);}.cls-23{fill:url(#radial-gradient-20);}.cls-24{fill:url(#radial-gradient-21);}.cls-25{fill:url(#radial-gradient-22);}.cls-26{fill:url(#radial-gradient-23);}.cls-27{fill:url(#radial-gradient-24);}.cls-28{fill:url(#radial-gradient-25);}.cls-29{fill:url(#radial-gradient-26);}.cls-30{fill:url(#radial-gradient-27);}.cls-31{fill:url(#radial-gradient-28);}.cls-32{fill:url(#radial-gradient-29);}.cls-33{fill:url(#radial-gradient-30);}.cls-34{fill:url(#radial-gradient-31);}.cls-35{fill:#863609;}.cls-36{fill:url(#radial-gradient-32);}.cls-37{fill:url(#radial-gradient-33);}.cls-38{fill:url(#radial-gradient-34);}.cls-39{fill:#244d16;}.cls-40{fill:url(#radial-gradient-35);}.cls-41{fill:url(#radial-gradient-36);}.cls-42{fill:url(#radial-gradient-37);}.cls-43{opacity:0.7;fill:url(#linear-gradient);}.cls-44{fill:url(#radial-gradient-38);}.cls-45{fill:url(#linear-gradient-2);}.cls-46{fill:url(#radial-gradient-39);}.cls-47{fill:url(#linear-gradient-3);}.cls-48{fill:#2a6e20;}.cls-49,.cls-78{mix-blend-mode:multiply;}.cls-49{fill:url(#radial-gradient-40);}.cls-50{fill:#fff;}.cls-51{fill:url(#radial-gradient-41);}.cls-52,.cls-80{opacity:0.6;}.cls-52{fill:url(#radial-gradient-42);}.cls-53{fill:url(#radial-gradient-43);}.cls-54,.cls-82{opacity:0.5;}.cls-54{fill:url(#radial-gradient-44);}.cls-55{fill:url(#linear-gradient-4);}.cls-56{fill:url(#radial-gradient-45);}.cls-57{fill:url(#radial-gradient-46);}.cls-58{fill:url(#linear-gradient-5);}.cls-59{fill:url(#radial-gradient-47);}.cls-60{fill:url(#radial-gradient-48);}.cls-61{fill:url(#radial-gradient-49);}.cls-62{fill:url(#linear-gradient-6);}.cls-63{fill:url(#radial-gradient-50);}.cls-64{fill:url(#linear-gradient-7);}.cls-65{fill:url(#radial-gradient-51);}.cls-66{fill:url(#radial-gradient-52);}.cls-67{fill:url(#radial-gradient-53);}.cls-68{fill:url(#linear-gradient-8);}.cls-69{fill:url(#linear-gradient-9);}.cls-70{fill:url(#radial-gradient-54);}.cls-71{fill:url(#radial-gradient-55);}.cls-72{fill:#df4a4b;}.cls-73{fill:#14511b;}.cls-74{fill:#307a22;}.cls-75{fill:#154316;}.cls-76{fill:#26621e;}.cls-77{fill:#2d7521;}.cls-78{fill:url(#radial-gradient-56);}.cls-79{fill:url(#radial-gradient-57);}.cls-80{fill:url(#radial-gradient-58);}.cls-81{fill:url(#radial-gradient-59);}.cls-82{fill:url(#radial-gradient-60);}.cls-83{fill:url(#linear-gradient-10);}.cls-84{fill:url(#radial-gradient-61);}.cls-85{fill:url(#radial-gradient-62);}.cls-86{fill:url(#linear-gradient-11);}.cls-87{fill:url(#radial-gradient-63);}.cls-88{fill:url(#radial-gradient-64);}.cls-89{fill:url(#radial-gradient-65);}.cls-90{fill:url(#radial-gradient-66);}.cls-91{fill:url(#radial-gradient-67);}.cls-92{fill:url(#radial-gradient-68);}.cls-93{fill:url(#radial-gradient-69);}.cls-94{fill:url(#radial-gradient-70);}.cls-95{fill:url(#radial-gradient-71);}.cls-96{fill:url(#radial-gradient-72);}.cls-97{fill:url(#radial-gradient-73);}.cls-98{fill:url(#linear-gradient-12);}.cls-99{fill:url(#radial-gradient-74);}.cls-100{fill:url(#linear-gradient-13);}.cls-101{fill:url(#radial-gradient-75);}.cls-102{fill:url(#linear-gradient-14);}.cls-103{fill:url(#radial-gradient-76);}.cls-104{fill:url(#linear-gradient-15);}.cls-105{fill:url(#radial-gradient-77);}.cls-106{fill:url(#linear-gradient-16);}.cls-107{fill:url(#radial-gradient-78);}.cls-108{fill:url(#linear-gradient-17);}.cls-109{fill:url(#radial-gradient-79);}.cls-110{fill:url(#linear-gradient-18);}.cls-111{fill:url(#radial-gradient-80);}.cls-112{fill:url(#linear-gradient-19);}.cls-113{fill:#965e11;}.cls-114{fill:url(#radial-gradient-81);}.cls-115{fill:url(#radial-gradient-82);}.cls-116{fill:url(#radial-gradient-83);}.cls-117{fill:url(#radial-gradient-84);}.cls-118{fill:#ec7e24;}.cls-119{fill:url(#radial-gradient-85);}.cls-120{fill:#5bb224;}.cls-121{fill:url(#radial-gradient-86);}.cls-122{fill:url(#radial-gradient-87);}.cls-123{fill:#28691f;}.cls-124{fill:url(#radial-gradient-88);}.cls-125{fill:url(#radial-gradient-89);}.cls-126{fill:url(#linear-gradient-20);}.cls-127{fill:#bba173;}.cls-128{fill:url(#radial-gradient-90);}.cls-129{fill:url(#radial-gradient-91);}.cls-130{fill:url(#linear-gradient-21);}.cls-131{fill:url(#radial-gradient-92);}.cls-132{fill:url(#radial-gradient-93);}.cls-133{fill:url(#linear-gradient-22);}.cls-134{fill:url(#radial-gradient-94);}.cls-135{fill:url(#radial-gradient-95);}.cls-136{fill:url(#radial-gradient-96);}.cls-137{fill:url(#linear-gradient-23);}.cls-138{fill:url(#radial-gradient-97);}.cls-139{fill:url(#radial-gradient-98);}.cls-140{fill:url(#linear-gradient-24);}.cls-141{fill:url(#radial-gradient-99);}.cls-142{fill:url(#radial-gradient-100);}.cls-143{fill:url(#linear-gradient-25);}.cls-144{fill:url(#radial-gradient-101);}.cls-145{fill:url(#radial-gradient-102);}.cls-146{fill:url(#radial-gradient-103);}.cls-147{fill:url(#radial-gradient-104);}.cls-148{fill:url(#radial-gradient-105);}.cls-149{fill:url(#radial-gradient-106);}.cls-150{fill:url(#radial-gradient-107);}.cls-151{fill:#f09d62;}.cls-152{fill:url(#radial-gradient-108);}.cls-153{fill:url(#radial-gradient-109);}.cls-154{fill:url(#radial-gradient-110);}.cls-155{fill:url(#radial-gradient-111);}.cls-156{fill:url(#radial-gradient-112);}.cls-157{fill:url(#radial-gradient-113);}.cls-158{fill:url(#radial-gradient-114);}.cls-159{fill:url(#radial-gradient-115);}.cls-160{fill:url(#linear-gradient-26);}.cls-161{fill:url(#radial-gradient-116);}.cls-162{fill:url(#radial-gradient-117);}.cls-163{fill:url(#linear-gradient-27);}.cls-164{fill:url(#radial-gradient-118);}.cls-165{fill:url(#radial-gradient-119);}.cls-166{fill:url(#linear-gradient-28);}.cls-167{fill:url(#radial-gradient-120);}.cls-168{fill:url(#radial-gradient-121);}.cls-169{fill:url(#linear-gradient-29);}.cls-170{fill:url(#linear-gradient-30);}.cls-171{fill:url(#linear-gradient-31);}.cls-172{fill:url(#linear-gradient-32);}.cls-173{fill:url(#radial-gradient-122);}.cls-174{fill:url(#radial-gradient-123);}.cls-175{fill:url(#linear-gradient-33);}.cls-176{fill:url(#radial-gradient-124);}.cls-177{fill:url(#radial-gradient-125);}.cls-178{fill:url(#linear-gradient-34);}.cls-179{fill:url(#radial-gradient-126);}.cls-180{fill:url(#radial-gradient-127);}.cls-181{fill:url(#linear-gradient-35);}.cls-182{fill:url(#linear-gradient-36);}</style><radialGradient id="radial-gradient" cx="18.34" cy="19.3" r="3.22" gradientUnits="userSpaceOnUse"><stop offset="0" stop-color="#701709"/><stop offset="1" stop-color="#260707"/></radialGradient><radialGradient id="radial-gradient-2" cx="18.15" cy="19.25" r="1.48" gradientUnits="userSpaceOnUse"><stop offset="0" stop-color="#74300b"/><stop offset="1" stop-color="#491b07"/></radialGradient><radialGradient id="radial-gradient-3" cx="18.15" cy="19.25" r="1.48" gradientUnits="userSpaceOnUse"><stop offset="0" stop-color="#602a0c"/><stop offset="0.77"/><stop offset="1"/></radialGradient><radialGradient id="radial-gradient-4" cx="12.21" cy="27.12" r="2.42" xlink:href="#radial-gradient"/><radialGradient id="radial-gradient-5" cx="11.83" cy="27.21" r="1.43" xlink:href="#radial-gradient-2"/><radialGradient id="radial-gradient-6" cx="14.33" cy="26.35" r="2.64" xlink:href="#radial-gradient"/><radialGradient id="radial-gradient-7" cx="14.37" cy="26.29" r="1.48" xlink:href="#radial-gradient-2"/><radialGradient id="radial-gradient-8" cx="17.75" cy="24.23" r="4.75" xlink:href="#radial-gradient"/><radialGradient id="radial-gradient-9" cx="16.01" cy="24" r="1.32" xlink:href="#radial-gradient-2"/><radialGradient id="radial-gradient-10" cx="18.45" cy="21.71" r="3.99" xlink:href="#radial-gradient"/><radialGradient id="radial-gradient-11" cx="18.39" cy="21.8" r="1.89" xlink:href="#radial-gradient-2"/><radialGradient id="radial-gradient-12" cx="18.39" cy="21.8" r="1.89" xlink:href="#radial-gradient-3"/><radialGradient id="radial-gradient-13" cx="13.76" cy="18.32" r="2.78" gradientUnits="userSpaceOnUse"><stop offset="0" stop-color="#110d0c"/><stop offset="0.16" stop-color="#1c0d0b"/><stop offset="0.45" stop-color="#3a0d08"/><stop offset="0.61" stop-color="#4e0d06"/><stop offset="1" stop-color="#871f06"/></radialGradient><radialGradient id="radial-gradient-14" cx="11.43" cy="16.77" r="0.69" gradientUnits="userSpaceOnUse"><stop offset="0" stop-color="#c75b0e"/><stop offset="1" stop-color="#a2440f"/></radialGradient><radialGradient id="radial-gradient-15" cx="12.59" cy="16.03" r="0.9" xlink:href="#radial-gradient-14"/><radialGradient id="radial-gradient-16" cx="15.55" cy="15.22" r="1.07" xlink:href="#radial-gradient-14"/><radialGradient id="radial-gradient-17" cx="17.18" cy="16.92" r="1.2" xlink:href="#radial-gradient-14"/><radialGradient id="radial-gradient-18" cx="16.26" cy="20.17" r="1.17" xlink:href="#radial-gradient-14"/><radialGradient id="radial-gradient-19" cx="16.63" cy="18.77" r="1.09" xlink:href="#radial-gradient-14"/><radialGradient id="radial-gradient-20" cx="11.43" cy="16.77" r="0.69" gradientUnits="userSpaceOnUse"><stop offset="0" stop-color="#d87f25"/><stop offset="1" stop-color="#c14e0c"/></radialGradient><radialGradient id="radial-gradient-21" cx="11.33" cy="16.63" r="0.87" gradientUnits="userSpaceOnUse"><stop offset="0" stop-color="#d87f25"/><stop offset="0.02" stop-color="#cf7a24"/><stop offset="0.17" stop-color="#915519"/><stop offset="0.31" stop-color="#5d3710"/><stop offset="0.44" stop-color="#351f09"/><stop offset="0.55" stop-color="#180e04"/><stop offset="0.66" stop-color="#060401"/><stop offset="0.73"/><stop offset="1"/></radialGradient><radialGradient id="radial-gradient-22" cx="15.55" cy="15.22" r="1.07" xlink:href="#radial-gradient-20"/><radialGradient id="radial-gradient-23" cx="15.64" cy="14.97" r="1.37" xlink:href="#radial-gradient-21"/><radialGradient id="radial-gradient-24" cx="17.18" cy="16.92" r="1.2" xlink:href="#radial-gradient-20"/><radialGradient id="radial-gradient-25" cx="17.31" cy="16.87" r="1.36" xlink:href="#radial-gradient-21"/><radialGradient id="radial-gradient-26" cx="16.26" cy="20.17" r="1.17" xlink:href="#radial-gradient-20"/><radialGradient id="radial-gradient-27" cx="16.42" cy="20.23" r="1.17" xlink:href="#radial-gradient-21"/><radialGradient id="radial-gradient-28" cx="16.63" cy="18.77" r="1.09" xlink:href="#radial-gradient-20"/><radialGradient id="radial-gradient-29" cx="16.74" cy="18.79" r="1.25" xlink:href="#radial-gradient-21"/><radialGradient id="radial-gradient-30" cx="12.59" cy="16.03" r="0.9" xlink:href="#radial-gradient-20"/><radialGradient id="radial-gradient-31" cx="12.54" cy="15.83" r="1.14" xlink:href="#radial-gradient-21"/><radialGradient id="radial-gradient-32" cx="15.97" cy="15.76" r="4.25" gradientUnits="userSpaceOnUse"><stop offset="0" stop-color="#48a528"/><stop offset="0.54" stop-color="#3b8f25"/><stop offset="1" stop-color="#2e7922"/></radialGradient><radialGradient id="radial-gradient-33" cx="15.97" cy="15.76" r="4.25" gradientUnits="userSpaceOnUse"><stop offset="0" stop-color="#5bb224"/><stop offset="0.88" stop-color="#459e26"/><stop offset="1" stop-color="#429b26"/></radialGradient><radialGradient id="radial-gradient-34" cx="15.97" cy="16.17" r="4.25" gradientUnits="userSpaceOnUse"><stop offset="0" stop-color="#91ca1f"/><stop offset="0.05" stop-color="#86bb1d"/><stop offset="0.34" stop-color="#4d6c11"/><stop offset="0.57" stop-color="#243208"/><stop offset="0.74" stop-color="#0a0e02"/><stop offset="0.83"/><stop offset="1"/></radialGradient><radialGradient id="radial-gradient-35" cx="799.43" cy="-236.57" r="12.01" gradientTransform="matrix(-0.95, 0.32, 0.32, 0.95, 849.2, -28.59)" gradientUnits="userSpaceOnUse"><stop offset="0.12" stop-color="#48a528"/><stop offset="0.46" stop-color="#46a228"/><stop offset="0.68" stop-color="#419a26"/><stop offset="0.86" stop-color="#398b24"/><stop offset="1" stop-color="#2e7922"/></radialGradient><radialGradient id="radial-gradient-36" cx="799.43" cy="-236.47" r="12.08" gradientTransform="matrix(-0.95, 0.32, 0.32, 0.95, 849.2, -28.59)" xlink:href="#radial-gradient-33"/><radialGradient id="radial-gradient-37" cx="802.55" cy="-230.5" r="3.27" gradientTransform="matrix(-0.95, 0.32, 0.32, 0.95, 849.2, -28.59)" xlink:href="#radial-gradient-34"/><linearGradient id="linear-gradient" x1="878.21" y1="-298.96" x2="881.46" y2="-299.64" gradientTransform="matrix(-0.85, 0.34, 0.31, 0.79, 855.32, -48.48)" gradientUnits="userSpaceOnUse"><stop offset="0" stop-color="#4c4c4c"/><stop offset="0.69" stop-color="#181818"/><stop offset="1"/></linearGradient><radialGradient id="radial-gradient-38" cx="800.18" cy="-241.72" r="2.4" gradientTransform="matrix(-0.95, 0.32, 0.32, 0.95, 849.2, -28.59)" xlink:href="#radial-gradient-34"/><linearGradient id="linear-gradient-2" x1="800.31" y1="-241.46" x2="801.14" y2="-240.45" gradientTransform="matrix(-0.95, 0.32, 0.32, 0.95, 849.2, -28.59)" gradientUnits="userSpaceOnUse"><stop offset="0" stop-color="#5f5f5f"/><stop offset="0.29" stop-color="#393939"/><stop offset="0.65" stop-color="#101010"/><stop offset="0.83"/><stop offset="1"/></linearGradient><radialGradient id="radial-gradient-39" cx="797.72" cy="-237.09" r="2.88" gradientTransform="matrix(-0.95, 0.32, 0.32, 0.95, 849.2, -28.59)" xlink:href="#radial-gradient-34"/><linearGradient id="linear-gradient-3" x1="797.73" y1="-236.77" x2="798.61" y2="-236.31" gradientTransform="matrix(-0.95, 0.32, 0.32, 0.95, 849.2, -28.59)" gradientUnits="userSpaceOnUse"><stop offset="0" stop-color="#5f5f5f"/><stop offset="0.13" stop-color="#4b4b4b"/><stop offset="0.44" stop-color="#222"/><stop offset="0.69" stop-color="#090909"/><stop offset="0.83"/><stop offset="1"/></linearGradient><radialGradient id="radial-gradient-40" cx="800.91" cy="-241.2" r="4.62" gradientTransform="matrix(-0.95, 0.32, 0.32, 0.95, 849.2, -28.59)" gradientUnits="userSpaceOnUse"><stop offset="0" stop-color="#fff"/><stop offset="0.22" stop-color="#d1e6ca"/><stop offset="0.6" stop-color="#84be72"/><stop offset="0.87" stop-color="#55a53b"/><stop offset="1" stop-color="#429b26"/></radialGradient><radialGradient id="radial-gradient-41" cx="735.5" cy="-565.02" r="2.94" gradientTransform="matrix(-0.71, 0.7, 0.7, 0.71, 937, -111.71)" gradientUnits="userSpaceOnUse"><stop offset="0.54" stop-color="#e7e7e7"/><stop offset="0.66" stop-color="#e4e4e5"/><stop offset="0.74" stop-color="#dcdcdd"/><stop offset="0.8" stop-color="#cdcdd1"/><stop offset="0.86" stop-color="#b8b8bf"/><stop offset="0.91" stop-color="#9d9da8"/><stop offset="0.94" stop-color="#8c8c9a"/><stop offset="1" stop-color="#c5c5c5"/></radialGradient><radialGradient id="radial-gradient-42" cx="347.22" cy="-430.29" r="0.13" gradientTransform="matrix(-1.51, 1.49, 1.54, 1.56, 1200.58, 154.64)" gradientUnits="userSpaceOnUse"><stop offset="0.21" stop-color="#fff"/><stop offset="0.36" stop-color="#aeaeae"/><stop offset="0.52" stop-color="#646464"/><stop offset="0.64" stop-color="#2e2e2e"/><stop offset="0.74" stop-color="#0d0d0d"/><stop offset="0.79"/><stop offset="0.98"/></radialGradient><radialGradient id="radial-gradient-43" cx="736.01" cy="-546.09" r="1.85" gradientTransform="matrix(-0.71, 0.7, 0.75, 0.76, 946.58, -99.44)" gradientUnits="userSpaceOnUse"><stop offset="0" stop-color="#31b2d1"/><stop offset="0.13" stop-color="#2aa3c9"/><stop offset="0.32" stop-color="#1b85ba"/><stop offset="0.52" stop-color="#1b6bae"/><stop offset="0.93" stop-color="#1c298f"/><stop offset="1" stop-color="#1c1d89"/></radialGradient><radialGradient id="radial-gradient-44" cx="375.41" cy="-326.72" r="0.13" gradientTransform="matrix(-1.88, 0.99, 1.02, 1.93, 1053.49, 263.31)" gradientUnits="userSpaceOnUse"><stop offset="0" stop-color="#fff"/><stop offset="0.22" stop-color="#b3b3b3"/><stop offset="0.62" stop-color="#333"/><stop offset="0.79"/><stop offset="1"/></radialGradient><linearGradient id="linear-gradient-4" x1="756.81" y1="-508.36" x2="757.24" y2="-507.85" gradientTransform="matrix(-0.77, 0.64, 0.64, 0.77, 921.66, -95.15)" gradientUnits="userSpaceOnUse"><stop offset="0" stop-color="#b9b9b9"/><stop offset="0.04" stop-color="#adadad"/><stop offset="0.33" stop-color="#646464"/><stop offset="0.57" stop-color="#2e2e2e"/><stop offset="0.75" stop-color="#0d0d0d"/><stop offset="0.85"/><stop offset="0.98"/></linearGradient><radialGradient id="radial-gradient-45" cx="799.43" cy="-236.57" r="12.01" gradientTransform="matrix(-0.95, 0.32, 0.32, 0.95, 849.2, -28.59)" xlink:href="#radial-gradient-33"/><radialGradient id="radial-gradient-46" cx="805.37" cy="-242.37" r="5.87" gradientTransform="matrix(-0.95, 0.32, 0.32, 0.95, 849.2, -28.59)" gradientUnits="userSpaceOnUse"><stop offset="0" stop-color="#91ca1f"/><stop offset="0" stop-color="#90c91f"/><stop offset="0.12" stop-color="#6a9417"/><stop offset="0.24" stop-color="#4a6710"/><stop offset="0.36" stop-color="#2f420a"/><stop offset="0.48" stop-color="#1a2506"/><stop offset="0.6" stop-color="#0c1003"/><stop offset="0.72" stop-color="#030401"/><stop offset="0.83"/><stop offset="1"/></radialGradient><linearGradient id="linear-gradient-5" x1="806.31" y1="-241.76" x2="806.42" y2="-238.84" xlink:href="#linear-gradient-2"/><radialGradient id="radial-gradient-47" cx="799.43" cy="-236.55" r="11.99" gradientTransform="matrix(-0.95, 0.32, 0.32, 0.95, 849.2, -28.59)" xlink:href="#radial-gradient-32"/><radialGradient id="radial-gradient-48" cx="799.43" cy="-236.56" r="11.99" gradientTransform="matrix(-0.95, 0.32, 0.32, 0.95, 849.2, -28.59)" xlink:href="#radial-gradient-33"/><radialGradient id="radial-gradient-49" cx="797.05" cy="-234.77" r="7.96" gradientTransform="matrix(-0.95, 0.32, 0.32, 0.95, 849.2, -28.59)" xlink:href="#radial-gradient-34"/><linearGradient id="linear-gradient-6" x1="797.44" y1="-235.23" x2="801.41" y2="-235.23" xlink:href="#linear-gradient-2"/><radialGradient id="radial-gradient-50" cx="800.34" cy="-241.16" r="4.79" gradientTransform="matrix(-0.95, 0.32, 0.32, 0.95, 849.2, -28.59)" xlink:href="#radial-gradient-34"/><linearGradient id="linear-gradient-7" x1="800.77" y1="-240.74" x2="803.4" y2="-238.79" xlink:href="#linear-gradient-2"/><radialGradient id="radial-gradient-51" cx="803.31" cy="-230.69" r="3.93" gradientTransform="matrix(-0.95, 0.32, 0.32, 0.95, 849.2, -28.59)" gradientUnits="userSpaceOnUse"><stop offset="0" stop-color="#150c0c"/><stop offset="0.28" stop-color="#200a0a"/><stop offset="0.56" stop-color="#300707"/><stop offset="0.68" stop-color="#3b0807"/><stop offset="1" stop-color="#540a06"/></radialGradient><radialGradient id="radial-gradient-52" cx="803.14" cy="-230.89" r="2.44" gradientTransform="matrix(-0.95, 0.32, 0.32, 0.95, 849.2, -28.59)" gradientUnits="userSpaceOnUse"><stop offset="0" stop-color="#130c0c"/><stop offset="0.59" stop-color="#6a0a09"/><stop offset="0.72" stop-color="#7c0c08"/><stop offset="0.87" stop-color="#890e06"/><stop offset="1" stop-color="#8e0f06"/></radialGradient><radialGradient id="radial-gradient-53" cx="803.14" cy="-230.89" r="2.44" xlink:href="#radial-gradient-52"/><linearGradient id="linear-gradient-8" x1="801.62" y1="-229.65" x2="804.48" y2="-229.65" gradientTransform="matrix(-0.95, 0.32, 0.32, 0.95, 849.2, -28.59)" gradientUnits="userSpaceOnUse"><stop offset="0" stop-color="#f59e9f"/><stop offset="1" stop-color="#f17171"/></linearGradient><linearGradient id="linear-gradient-9" x1="801.76" y1="-229.57" x2="804.06" y2="-229.57" gradientTransform="matrix(-0.95, 0.32, 0.32, 0.95, 849.2, -28.59)" gradientUnits="userSpaceOnUse"><stop offset="0" stop-color="#f0b8b8"/><stop offset="1" stop-color="#f79899"/></linearGradient><radialGradient id="radial-gradient-54" cx="801.84" cy="-229.64" r="1.15" gradientTransform="matrix(-0.95, 0.32, 0.32, 0.95, 849.2, -28.59)" gradientUnits="userSpaceOnUse"><stop offset="0" stop-color="#f0b8b8"/><stop offset="0.02" stop-color="#e6b0b0"/><stop offset="0.12" stop-color="#aa8282"/><stop offset="0.23" stop-color="#765a5a"/><stop offset="0.33" stop-color="#4c3a3a"/><stop offset="0.43" stop-color="#2b2121"/><stop offset="0.53" stop-color="#130f0f"/><stop offset="0.62" stop-color="#050404"/><stop offset="0.69"/><stop offset="1"/></radialGradient><radialGradient id="radial-gradient-55" cx="802.66" cy="-229.67" r="1.58" xlink:href="#radial-gradient-54"/><radialGradient id="radial-gradient-56" cx="805.27" cy="-240.91" r="6.18" xlink:href="#radial-gradient-40"/><radialGradient id="radial-gradient-57" cx="798.23" cy="-338.4" r="3.64" gradientTransform="matrix(-0.88, 0.47, 0.47, 0.88, 876.09, -67.67)" xlink:href="#radial-gradient-41"/><radialGradient id="radial-gradient-58" cx="377.88" cy="-327.38" r="0.16" gradientTransform="matrix(-1.88, 0.99, 1.02, 1.93, 1053.49, 263.31)" xlink:href="#radial-gradient-42"/><radialGradient id="radial-gradient-59" cx="801.96" cy="-333.12" r="2.29" gradientTransform="matrix(-0.88, 0.47, 0.5, 0.94, 884.15, -54.37)" xlink:href="#radial-gradient-43"/><radialGradient id="radial-gradient-60" cx="378.31" cy="-326.67" r="0.13" xlink:href="#radial-gradient-44"/><linearGradient id="linear-gradient-10" x1="803.34" y1="-276.36" x2="803.87" y2="-275.73" gradientTransform="matrix(-0.92, 0.39, 0.39, 0.92, 857.4, -58.04)" xlink:href="#linear-gradient-4"/><radialGradient id="radial-gradient-61" cx="799.43" cy="-236.57" r="12.01" gradientTransform="matrix(-0.95, 0.32, 0.32, 0.95, 849.2, -28.59)" xlink:href="#radial-gradient-33"/><radialGradient id="radial-gradient-62" cx="805.74" cy="-235.43" r="2.92" xlink:href="#radial-gradient-46"/><linearGradient id="linear-gradient-11" x1="805.88" y1="-234.98" x2="806.45" y2="-233.6" xlink:href="#linear-gradient-3"/><radialGradient id="radial-gradient-63" cx="10.92" cy="17.37" r="1.17" gradientUnits="userSpaceOnUse"><stop offset="0" stop-color="#f8c950"/><stop offset="1" stop-color="#f8a12a"/></radialGradient><radialGradient id="radial-gradient-64" cx="13.45" cy="18.03" r="2.22" xlink:href="#radial-gradient-63"/><radialGradient id="radial-gradient-65" cx="11.66" cy="19.92" r="2.5" xlink:href="#radial-gradient-63"/><radialGradient id="radial-gradient-66" cx="9.37" cy="19.38" r="1.86" xlink:href="#radial-gradient-63"/><radialGradient id="radial-gradient-67" cx="8.65" cy="21.17" r="1.31" xlink:href="#radial-gradient-63"/><radialGradient id="radial-gradient-68" cx="10.78" cy="21.58" r="2.85" xlink:href="#radial-gradient-63"/><radialGradient id="radial-gradient-69" cx="9.22" cy="23.73" r="2.69" xlink:href="#radial-gradient-63"/><radialGradient id="radial-gradient-70" cx="10.51" cy="24.72" r="1.44" xlink:href="#radial-gradient-63"/><radialGradient id="radial-gradient-71" cx="10.42" cy="18.14" r="1.44" xlink:href="#radial-gradient-63"/><radialGradient id="radial-gradient-72" cx="12.94" cy="18.56" r="2.11" xlink:href="#radial-gradient-63"/><radialGradient id="radial-gradient-73" cx="9.37" cy="19.38" r="1.86" gradientUnits="userSpaceOnUse"><stop offset="0" stop-color="#f6e86d"/><stop offset="0.59" stop-color="#f7ce54"/><stop offset="1" stop-color="#f7b941"/></radialGradient><linearGradient id="linear-gradient-12" x1="9.74" y1="18.89" x2="9.4" y2="20.08" gradientUnits="userSpaceOnUse"><stop offset="0" stop-color="#717171"/><stop offset="0.36" stop-color="#393939"/><stop offset="0.67" stop-color="#101010"/><stop offset="0.83"/><stop offset="1"/></linearGradient><radialGradient id="radial-gradient-74" cx="10.92" cy="17.37" r="1.17" xlink:href="#radial-gradient-73"/><linearGradient id="linear-gradient-13" x1="11.08" y1="17.27" x2="10.92" y2="17.75" xlink:href="#linear-gradient-12"/><radialGradient id="radial-gradient-75" cx="8.65" cy="21.17" r="1.31" xlink:href="#radial-gradient-73"/><linearGradient id="linear-gradient-14" x1="8.83" y1="20.65" x2="8.62" y2="21.76" xlink:href="#linear-gradient-12"/><radialGradient id="radial-gradient-76" cx="10.78" cy="21.58" r="2.85" xlink:href="#radial-gradient-73"/><linearGradient id="linear-gradient-15" x1="11.47" y1="21.37" x2="11.17" y2="22.92" xlink:href="#linear-gradient-12"/><radialGradient id="radial-gradient-77" cx="11.66" cy="19.92" r="2.5" xlink:href="#radial-gradient-73"/><linearGradient id="linear-gradient-16" x1="11.98" y1="19.4" x2="11.68" y2="20.76" xlink:href="#linear-gradient-12"/><radialGradient id="radial-gradient-78" cx="12.94" cy="18.56" r="2.11" xlink:href="#radial-gradient-73"/><linearGradient id="linear-gradient-17" x1="12.98" y1="18.33" x2="12.87" y2="19.18" xlink:href="#linear-gradient-12"/><radialGradient id="radial-gradient-79" cx="13.45" cy="18.03" r="2.22" xlink:href="#radial-gradient-73"/><linearGradient id="linear-gradient-18" x1="13.55" y1="17.79" x2="13.49" y2="18.18" xlink:href="#linear-gradient-12"/><radialGradient id="radial-gradient-80" cx="10.42" cy="18.14" r="1.44" xlink:href="#radial-gradient-73"/><linearGradient id="linear-gradient-19" x1="10.79" y1="17.77" x2="10.37" y2="18.71" xlink:href="#linear-gradient-12"/><radialGradient id="radial-gradient-81" cx="15.16" cy="19.29" r="2.23" xlink:href="#radial-gradient-14"/><radialGradient id="radial-gradient-82" cx="15.16" cy="19.29" r="2.23" xlink:href="#radial-gradient-20"/><radialGradient id="radial-gradient-83" cx="15.39" cy="18.96" r="2.23" xlink:href="#radial-gradient-21"/><radialGradient id="radial-gradient-84" cx="11.16" cy="24.77" r="3.57" xlink:href="#radial-gradient-14"/><radialGradient id="radial-gradient-85" cx="3.73" cy="22.32" r="5.16" gradientUnits="userSpaceOnUse"><stop offset="0" stop-color="#48a528"/><stop offset="0.29" stop-color="#45a027"/><stop offset="0.62" stop-color="#3d9225"/><stop offset="0.97" stop-color="#2f7b22"/><stop offset="1" stop-color="#2e7922"/></radialGradient><radialGradient id="radial-gradient-86" cx="3.73" cy="22.32" r="5.16" xlink:href="#radial-gradient-33"/><radialGradient id="radial-gradient-87" cx="3.16" cy="22.42" r="5.38" gradientUnits="userSpaceOnUse"><stop offset="0" stop-color="#476116"/><stop offset="0.35" stop-color="#24310b"/><stop offset="0.67" stop-color="#0a0e03"/><stop offset="0.83"/><stop offset="1"/></radialGradient><radialGradient id="radial-gradient-88" cx="3.55" cy="-481.14" r="0.84" gradientTransform="translate(-244.3 439.46) rotate(30.24)" gradientUnits="userSpaceOnUse"><stop offset="0" stop-color="#f2e6d5"/><stop offset="1" stop-color="#e4c097"/></radialGradient><radialGradient id="radial-gradient-89" cx="3.55" cy="-481.14" r="0.84" gradientTransform="translate(-244.3 439.46) rotate(30.24)" gradientUnits="userSpaceOnUse"><stop offset="0" stop-color="#f4ede0"/><stop offset="0.36" stop-color="#f0e2cd"/><stop offset="1" stop-color="#e6c7a2"/></radialGradient><linearGradient id="linear-gradient-20" x1="3.55" y1="-481.05" x2="4.18" y2="-481.05" gradientTransform="translate(-244.3 439.46) rotate(30.24)" gradientUnits="userSpaceOnUse"><stop offset="0" stop-color="#fff"/><stop offset="0.1" stop-color="#e5e5e5"/><stop offset="0.33" stop-color="#a3a3a3"/><stop offset="0.65" stop-color="#3a3a3a"/><stop offset="0.82"/><stop offset="1"/></linearGradient><radialGradient id="radial-gradient-90" cx="142.4" cy="-428.52" r="0.84" gradientTransform="translate(-167.04 444.74) rotate(3.67)" xlink:href="#radial-gradient-88"/><radialGradient id="radial-gradient-91" cx="142.4" cy="-428.52" r="0.84" gradientTransform="translate(-167.04 444.74) rotate(3.67)" xlink:href="#radial-gradient-89"/><linearGradient id="linear-gradient-21" x1="142.39" y1="-428.43" x2="143.02" y2="-428.43" gradientTransform="translate(-167.04 444.74) rotate(3.67)" xlink:href="#linear-gradient-20"/><radialGradient id="radial-gradient-92" cx="-110.87" cy="-499.47" r="0.74" gradientTransform="translate(-309.59 431.94) rotate(49.78)" xlink:href="#radial-gradient-88"/><radialGradient id="radial-gradient-93" cx="-110.87" cy="-499.47" r="0.74" gradientTransform="translate(-309.59 431.94) rotate(49.78)" xlink:href="#radial-gradient-89"/><linearGradient id="linear-gradient-22" x1="-110.87" y1="-499.39" x2="-110.31" y2="-499.39" gradientTransform="translate(-309.59 431.94) rotate(49.78)" xlink:href="#linear-gradient-20"/><radialGradient id="radial-gradient-94" cx="7.49" cy="19.46" r="4.95" gradientUnits="userSpaceOnUse"><stop offset="0" stop-color="#48a528"/><stop offset="0.28" stop-color="#459f27"/><stop offset="0.65" stop-color="#3b8f25"/><stop offset="1" stop-color="#2e7922"/></radialGradient><radialGradient id="radial-gradient-95" cx="7.49" cy="19.46" r="4.95" xlink:href="#radial-gradient-33"/><radialGradient id="radial-gradient-96" cx="8.23" cy="20.32" r="3.53" xlink:href="#radial-gradient-34"/><linearGradient id="linear-gradient-23" x1="7.55" y1="18.86" x2="5.9" y2="21.58" gradientUnits="userSpaceOnUse"><stop offset="0" stop-color="#9bcf82"/><stop offset="0.29" stop-color="#5d7c4e"/><stop offset="0.55" stop-color="#2b3924"/><stop offset="0.74" stop-color="#0c100a"/><stop offset="0.83"/><stop offset="1"/></linearGradient><radialGradient id="radial-gradient-97" cx="277.09" cy="-262.76" r="0.83" gradientTransform="matrix(0.08, -1, 1, 0.08, 246.77, 318.81)" xlink:href="#radial-gradient-88"/><radialGradient id="radial-gradient-98" cx="277.09" cy="-262.76" r="0.83" gradientTransform="matrix(0.08, -1, 1, 0.08, 246.77, 318.81)" xlink:href="#radial-gradient-89"/><linearGradient id="linear-gradient-24" x1="277.08" y1="-262.67" x2="277.7" y2="-262.67" gradientTransform="matrix(0.08, -1, 1, 0.08, 246.77, 318.81)" xlink:href="#linear-gradient-20"/><radialGradient id="radial-gradient-99" cx="289.91" cy="-353.78" r="0.83" gradientTransform="matrix(0.59, -0.81, 0.81, 0.59, 124.2, 464.55)" xlink:href="#radial-gradient-88"/><radialGradient id="radial-gradient-100" cx="289.91" cy="-353.78" r="0.83" gradientTransform="matrix(0.59, -0.81, 0.81, 0.59, 124.2, 464.55)" xlink:href="#radial-gradient-89"/><linearGradient id="linear-gradient-25" x1="289.91" y1="-353.69" x2="290.53" y2="-353.69" gradientTransform="matrix(0.59, -0.81, 0.81, 0.59, 124.2, 464.55)" xlink:href="#linear-gradient-20"/><radialGradient id="radial-gradient-101" cx="6.83" cy="23.79" r="5.55" xlink:href="#radial-gradient-85"/><radialGradient id="radial-gradient-102" cx="6.83" cy="23.79" r="5.55" xlink:href="#radial-gradient-33"/><radialGradient id="radial-gradient-103" cx="8.4" cy="22.14" r="5.49" xlink:href="#radial-gradient-34"/><radialGradient id="radial-gradient-104" cx="10.38" cy="26.85" r="0.93" xlink:href="#radial-gradient-14"/><radialGradient id="radial-gradient-105" cx="11.81" cy="26.08" r="1.14" xlink:href="#radial-gradient-14"/><radialGradient id="radial-gradient-106" cx="13.4" cy="25.1" r="1.19" xlink:href="#radial-gradient-14"/><radialGradient id="radial-gradient-107" cx="14.76" cy="23.62" r="1.08" xlink:href="#radial-gradient-14"/><radialGradient id="radial-gradient-108" cx="14.76" cy="23.62" r="1.08" xlink:href="#radial-gradient-20"/><radialGradient id="radial-gradient-109" cx="14.9" cy="23.71" r="1.08" xlink:href="#radial-gradient-21"/><radialGradient id="radial-gradient-110" cx="10.38" cy="26.84" r="0.93" xlink:href="#radial-gradient-20"/><radialGradient id="radial-gradient-111" cx="10.49" cy="26.99" r="1.12" xlink:href="#radial-gradient-21"/><radialGradient id="radial-gradient-112" cx="11.81" cy="26.08" r="1.14" xlink:href="#radial-gradient-20"/><radialGradient id="radial-gradient-113" cx="11.91" cy="26.16" r="1.14" xlink:href="#radial-gradient-21"/><radialGradient id="radial-gradient-114" cx="13.4" cy="25.1" r="1.19" xlink:href="#radial-gradient-20"/><radialGradient id="radial-gradient-115" cx="13.52" cy="25.22" r="1.19" xlink:href="#radial-gradient-21"/><linearGradient id="linear-gradient-26" x1="8.97" y1="22.44" x2="8.19" y2="24.36" xlink:href="#linear-gradient-23"/><radialGradient id="radial-gradient-116" cx="42.29" cy="-434.41" r="1.01" gradientTransform="matrix(0.91, 0.41, -0.41, 0.91, -210.44, 407.2)" xlink:href="#radial-gradient-88"/><radialGradient id="radial-gradient-117" cx="42.29" cy="-434.41" r="1.01" gradientTransform="matrix(0.91, 0.41, -0.41, 0.91, -210.44, 407.2)" xlink:href="#radial-gradient-89"/><linearGradient id="linear-gradient-27" x1="42.29" y1="-434.3" x2="43.04" y2="-434.3" gradientTransform="matrix(0.91, 0.41, -0.41, 0.91, -210.44, 407.2)" xlink:href="#linear-gradient-20"/><radialGradient id="radial-gradient-118" cx="195.36" cy="-396.66" r="1.01" gradientTransform="translate(-147.12 442.45) rotate(-5.95)" xlink:href="#radial-gradient-88"/><radialGradient id="radial-gradient-119" cx="195.36" cy="-396.66" r="1.01" gradientTransform="translate(-147.12 442.45) rotate(-5.95)" xlink:href="#radial-gradient-89"/><linearGradient id="linear-gradient-28" x1="195.35" y1="-396.55" x2="196.11" y2="-396.55" gradientTransform="translate(-147.12 442.45) rotate(-5.95)" xlink:href="#linear-gradient-20"/><radialGradient id="radial-gradient-120" cx="-62.92" cy="-466.53" r="0.91" gradientTransform="matrix(0.74, 0.68, -0.68, 0.74, -266.38, 412.35)" xlink:href="#radial-gradient-88"/><radialGradient id="radial-gradient-121" cx="-62.92" cy="-466.53" r="0.91" gradientTransform="matrix(0.74, 0.68, -0.68, 0.74, -266.38, 412.35)" xlink:href="#radial-gradient-89"/><linearGradient id="linear-gradient-29" x1="-62.93" y1="-466.43" x2="-62.24" y2="-466.43" gradientTransform="matrix(0.74, 0.68, -0.68, 0.74, -266.38, 412.35)" xlink:href="#linear-gradient-20"/><linearGradient id="linear-gradient-30" x1="18.02" y1="22.63" x2="14.21" y2="24.09" gradientUnits="userSpaceOnUse"><stop offset="0" stop-color="#48a528"/><stop offset="0.29" stop-color="#449e27"/><stop offset="0.7" stop-color="#398b24"/><stop offset="1" stop-color="#2e7922"/></linearGradient><linearGradient id="linear-gradient-31" x1="18" y1="22.58" x2="14.19" y2="24.04" xlink:href="#radial-gradient-33"/><linearGradient id="linear-gradient-32" x1="18.05" y1="22.46" x2="15.19" y2="23.7" xlink:href="#radial-gradient-34"/><radialGradient id="radial-gradient-122" cx="241.85" cy="-412.81" r="0.9" gradientTransform="translate(-135.59 480.56) rotate(-11.77)" xlink:href="#radial-gradient-88"/><radialGradient id="radial-gradient-123" cx="241.85" cy="-412.81" r="0.9" gradientTransform="translate(-135.59 480.56) rotate(-11.77)" xlink:href="#radial-gradient-89"/><linearGradient id="linear-gradient-33" x1="241.84" y1="-412.71" x2="242.52" y2="-412.71" gradientTransform="translate(-135.59 480.56) rotate(-11.77)" xlink:href="#linear-gradient-20"/><radialGradient id="radial-gradient-124" cx="476.13" cy="-416.18" r="0.9" gradientTransform="matrix(0.57, -0.82, 0.82, 0.57, 92.62, 654.67)" xlink:href="#radial-gradient-88"/><radialGradient id="radial-gradient-125" cx="476.13" cy="-416.18" r="0.9" gradientTransform="matrix(0.57, -0.82, 0.82, 0.57, 92.62, 654.67)" xlink:href="#radial-gradient-89"/><linearGradient id="linear-gradient-34" x1="476.12" y1="-416.08" x2="476.8" y2="-416.08" gradientTransform="matrix(0.57, -0.82, 0.82, 0.57, 92.62, 654.67)" xlink:href="#linear-gradient-20"/><radialGradient id="radial-gradient-126" cx="107.18" cy="-357.95" r="0.9" gradientTransform="matrix(0.91, 0.42, -0.42, 0.91, -231.33, 307.35)" xlink:href="#radial-gradient-88"/><radialGradient id="radial-gradient-127" cx="107.18" cy="-357.95" r="0.9" gradientTransform="matrix(0.91, 0.42, -0.42, 0.91, -231.33, 307.35)" xlink:href="#radial-gradient-89"/><linearGradient id="linear-gradient-35" x1="107.17" y1="-357.85" x2="107.85" y2="-357.85" gradientTransform="matrix(0.91, 0.42, -0.42, 0.91, -231.33, 307.35)" xlink:href="#linear-gradient-20"/><linearGradient id="linear-gradient-36" x1="18.07" y1="22.39" x2="15.18" y2="23.34" xlink:href="#linear-gradient-23"/></defs><g class="cls-1"><g id="Layer_2" data-name="Layer 2"><g id="Layer_1-2" data-name="Layer 1"><g id="turtee-assets"><g id="seated-turtee"><path class="cls-2" d="M18.19,20.59h0a1.91,1.91,0,0,0-.31-1.85,4,4,0,0,1-.82-2c-.08.25-.51,1.4-1,2.65A2.58,2.58,0,0,1,18.19,20.59Z"/><path class="cls-3" d="M17.77,18.61c-.16-.07-.41-.18-.49,0a2.42,2.42,0,0,0-.09.57c0,.09.16.57,1.08,1.12A1.86,1.86,0,0,0,17.77,18.61Z"/><path class="cls-4" d="M17.77,18.61c-.16-.07-.41-.18-.49,0a2.42,2.42,0,0,0-.09.57c0,.09.16.57,1.08,1.12A1.86,1.86,0,0,0,17.77,18.61Z"/><path class="cls-5" d="M12.07,25.08A10.52,10.52,0,0,0,9.61,27s1.91-.09,2.47-.09c.3,0,.78-.17.76-.5A2.08,2.08,0,0,0,12.07,25.08Z"/><path class="cls-6" d="M12.6,26.76a.87.87,0,0,0-.39-.61,1.35,1.35,0,0,0-.5-.17,1.25,1.25,0,0,0-.54.1c-.19.11-.39.19-.42.29a.8.8,0,0,0,0,.57C11.69,26.85,12.25,27,12.6,26.76Z"/><path class="cls-7" d="M13.45,24a16,16,0,0,1-1.38,1,2.08,2.08,0,0,1,.77,1.32.29.29,0,0,0,0-.09c.16.12,1.34.32,2.39-1.17h0A2.44,2.44,0,0,0,13.45,24Z"/><path class="cls-8" d="M14.86,25.54c-.09-.18-.25-.57-.51-.56s-.44-.09-.65.1-.51.29-.54.42a2.17,2.17,0,0,0,0,.51.85.85,0,0,0,.23.39A2.4,2.4,0,0,0,14.86,25.54Z"/><path class="cls-9" d="M17.76,23.45a11.64,11.64,0,0,0-2.7-1.82,12.16,12.16,0,0,1-.88,1.65,3.93,3.93,0,0,1-.73.76,2.44,2.44,0,0,1,1.8,1.09A5.3,5.3,0,0,0,17.76,23.45Z"/><path class="cls-10" d="M16,23.45a.83.83,0,0,0-1.1.05c-.24.34-.2.4,0,.87.16.17.36,0,.54.13S16,23.45,16,23.45Z"/><path class="cls-11" d="M18.19,20.59A2.54,2.54,0,0,0,16,19.35c-.31.76-.65,1.57-1,2.28a11.64,11.64,0,0,1,2.7,1.82A3.3,3.3,0,0,0,18.19,20.59Z"/><path class="cls-12" d="M18.25,20.85c-.17-.14-.32-.33-.42-.33s-.48-.12-.56-.07-.3.23-.3.3a1.14,1.14,0,0,0,0,.76c.15.32.4,1.27,1.1,1.36A3.38,3.38,0,0,0,18.25,20.85Z"/><path class="cls-13" d="M18.25,20.85c-.17-.14-.32-.33-.42-.33s-.48-.12-.56-.07-.3.23-.3.3a1.14,1.14,0,0,0,0,.76c.15.32.4,1.27,1.1,1.36A3.38,3.38,0,0,0,18.25,20.85Z"/><path class="cls-14" d="M9.61,27h.11a2.54,2.54,0,0,1,.38-.34c.14-.11.17-.3.34-.4a.21.21,0,0,1,.11,0l0-.05a.24.24,0,0,1,.22-.12.49.49,0,0,1,.11-.14c.11-.11.14-.05.15.07.41-.21.74-.62,1.22-.61a.28.28,0,0,1,.1-.09.23.23,0,0,1,.16-.14.44.44,0,0,1,.22,0,2.13,2.13,0,0,0,.82-.81.34.34,0,0,1,.17-.34.27.27,0,0,1,0-.23C12.54,24.94,10,26.23,9.61,27Z"/><path class="cls-15" d="M11.92,26.51a1.08,1.08,0,0,0-.36,0c-.2.05-.22.08-.23.09s0,.21.08.29l.07,0a.49.49,0,0,1-.08-.22,1.52,1.52,0,0,1,.47-.1,1.61,1.61,0,0,1,.12.33l.08,0A1.47,1.47,0,0,0,11.92,26.51Z"/><path class="cls-15" d="M12,26.28a.8.8,0,0,0-.47-.05,1,1,0,0,0-.4.17.51.51,0,0,0-.12.34.7.7,0,0,0,.16.2l.08,0a.76.76,0,0,1-.16-.2.48.48,0,0,1,.1-.27,1.23,1.23,0,0,1,.35-.15,1,1,0,0,1,.42,0,1.26,1.26,0,0,1,.4.54l.07,0A1.2,1.2,0,0,0,12,26.28Z"/><path class="cls-15" d="M12.17,26.09,12.05,26a.94.94,0,0,0-.6-.08h-.09a1.14,1.14,0,0,0-.44.2l-.1.06c-.12.06-.16.31-.16.39a1.91,1.91,0,0,0,.07.34l.08,0a1.07,1.07,0,0,1-.07-.32.45.45,0,0,1,.12-.32l.1-.06a1.12,1.12,0,0,1,.4-.19h.1a.93.93,0,0,1,.55.06.47.47,0,0,0,.12.07.77.77,0,0,1,.45.61l.07,0A.86.86,0,0,0,12.17,26.09Z"/><path class="cls-15" d="M14.09,25.53a.55.55,0,0,0-.26.21c0,.06,0,.1,0,.14a1.45,1.45,0,0,0,.21.33l.06-.05a1.86,1.86,0,0,1-.2-.3.11.11,0,0,1,0-.08.45.45,0,0,1,.21-.17.2.2,0,0,1,.2.07,2.36,2.36,0,0,1,.16.24l.07,0-.17-.25A.3.3,0,0,0,14.09,25.53Z"/><path class="cls-15" d="M13.92,25.25h0c-.08,0-.36.21-.39.34a.85.85,0,0,0,0,.22,1.07,1.07,0,0,1,0,.18c0,.11.15.29.21.34l0-.06c-.1-.09-.2-.22-.19-.25a.54.54,0,0,0,0-.22,1.33,1.33,0,0,1,0-.2c0-.08.25-.24.34-.27l0,0a.36.36,0,0,1,.44.05c.19.21.3.36.3.36l.06,0a4,4,0,0,0-.31-.38A.42.42,0,0,0,13.92,25.25Z"/><path class="cls-15" d="M14.11,24.92H14a.6.6,0,0,0-.37.16.66.66,0,0,1-.13.08,1,1,0,0,0-.37.29.51.51,0,0,0,0,.37,1,1,0,0,1,0,.16,1.08,1.08,0,0,0,.2.43l.06-.05a1,1,0,0,1-.18-.38,1.11,1.11,0,0,0,0-.17.49.49,0,0,1,0-.32.84.84,0,0,1,.34-.25.65.65,0,0,0,.15-.1A.47.47,0,0,1,14,25h.1c.19,0,.38,0,.49.16a3.73,3.73,0,0,1,.23.42l.07,0a3.47,3.47,0,0,0-.24-.43A.59.59,0,0,0,14.11,24.92Z"/><path class="cls-15" d="M15.39,23.25h0a.69.69,0,0,0-.7.55,2,2,0,0,0,.15.59,4.46,4.46,0,0,0,1.2.45l0-.08a4.76,4.76,0,0,1-1.15-.4,1.86,1.86,0,0,1-.14-.55.6.6,0,0,1,.62-.48h0a2.78,2.78,0,0,1,1.48.87l.08,0A2.94,2.94,0,0,0,15.39,23.25Z"/><path class="cls-15" d="M18,21.36a.23.23,0,0,0-.16.1.43.43,0,0,0,0,.4,1.51,1.51,0,0,0,.47.36l0-.07a1.27,1.27,0,0,1-.43-.33.33.33,0,0,1,0-.32s.06-.05.11-.06a.14.14,0,0,1,.13,0,.67.67,0,0,0,.21.07v-.07a.53.53,0,0,1-.18-.07A.27.27,0,0,0,18,21.36Z"/><path class="cls-15" d="M17.62,20.94c-.11,0-.19.18-.28.41s.06.37.19.57.1.15.13.21a1.66,1.66,0,0,0,.51.48l0-.07a1.39,1.39,0,0,1-.48-.44l-.13-.22c-.12-.18-.24-.37-.19-.5s.15-.33.24-.37.58.09.66.26l0-.07C18.23,21,17.74,20.9,17.62,20.94Z"/><path class="cls-15" d="M17.83,20.49l-.18,0c-.15,0-.33-.09-.43,0l-.06,0c-.1.08-.18.13-.21.27a1.31,1.31,0,0,0,0,.77,1.38,1.38,0,0,1,.06.16c.12.39.36,1.09,1.08,1.21v-.08c-.68-.1-.9-.78-1-1.15a1.07,1.07,0,0,0-.06-.17,1.3,1.3,0,0,1,0-.72c0-.11.09-.15.19-.22l.06-.05c.07-.05.23,0,.36,0l.2,0c.09,0,.32.2.42.33l0-.06C18.22,20.79,18,20.49,17.83,20.49Z"/><path class="cls-15" d="M18,19.44a.18.18,0,0,1,0-.18v0h0a.39.39,0,0,1,.21,0l0-.06a.24.24,0,0,0-.22,0,.1.1,0,0,0-.06.07h0a.24.24,0,0,0,0,.24c.08.11.34.13.37.13v-.08A.54.54,0,0,1,18,19.44Z"/><path class="cls-15" d="M17.74,19.58a1,1,0,0,1-.11-.6c0-.08.06-.09.14-.08h0a.94.94,0,0,1,.26.09v-.07s-.09-.08-.25-.09h0c-.05,0-.21,0-.23.15a1.15,1.15,0,0,0,.12.65c.12.2.6.32.62.32l0-.07C18.18,19.83,17.82,19.72,17.74,19.58Z"/><path class="cls-15" d="M17.24,19.11l0-.21c0-.16,0-.31.1-.34s.32.05.4.09l0,0s-.3-.18-.45-.12-.13.23-.15.41a1.2,1.2,0,0,1,0,.2.7.7,0,0,0,.26.56c.14.15.79.66.82.68l.05-.06s-.67-.53-.81-.67S17.21,19.25,17.24,19.11Z"/><path class="cls-15" d="M17.89,18.72a3.87,3.87,0,0,1-.81-2l0-.08,0,.08a45.32,45.32,0,0,1-2.87,6.58,11.48,11.48,0,0,1-2.61,2.13A7.71,7.71,0,0,0,9.6,27v0s1.92-.09,2.47-.09a1,1,0,0,0,.71-.29.35.35,0,0,0,.06-.28,1.11,1.11,0,0,0,.38.06,2.5,2.5,0,0,0,2-1.25l.1,0a5.75,5.75,0,0,0,2-1.18,3.25,3.25,0,0,0,.85-3.35A2,2,0,0,0,17.89,18.72Zm-2.58,6.37-.11,0h0a2.47,2.47,0,0,1-2,1.24.9.9,0,0,1-.4-.07l0,0v.06a.3.3,0,0,1,0,.29.93.93,0,0,1-.68.27c-.51,0-2.17.08-2.43.09a8,8,0,0,1,1.93-1.54,11.31,11.31,0,0,0,2.62-2.14,43.43,43.43,0,0,0,2.85-6.51,3.94,3.94,0,0,0,.81,2,1.86,1.86,0,0,1,.31,1.83h0C18.71,22.68,17.74,24.19,15.31,25.09Z"/><path class="cls-15" d="M16,19.33v0a2.58,2.58,0,0,1,2.13,1.23l0,0A2.64,2.64,0,0,0,16,19.33Z"/><path class="cls-15" d="M13.48,24v0s1.44.3,1.71,1.11h0C15,24.31,13.54,24,13.48,24Z"/><path class="cls-15" d="M12.09,25.05l0,0a2.19,2.19,0,0,1,.73,1.24h0A2.22,2.22,0,0,0,12.09,25.05Z"/><path class="cls-16" d="M15.57,15.79c-2.17-.68-4.44,1.75-4.44,1.75a35.92,35.92,0,0,1,4.27,1.29C16.47,18.18,16.89,16.33,15.57,15.79Z"/><path d="M15.58,15.77a2.74,2.74,0,0,0-.81-.12c-1.88,0-3.64,1.86-3.66,1.88l0,0h0a35.59,35.59,0,0,1,4.27,1.29h0a2.19,2.19,0,0,0,1-1.94A1.28,1.28,0,0,0,15.58,15.77Zm-.18,3a34.88,34.88,0,0,0-4.24-1.28c.22-.22,1.86-1.84,3.61-1.84a2.63,2.63,0,0,1,.8.12,1.24,1.24,0,0,1,.8,1.1A2.15,2.15,0,0,1,15.4,18.81Z"/><path class="cls-15" d="M11.9,16.85a4.84,4.84,0,0,1,.54,1h0a5,5,0,0,0-.54-1.05Z"/><path class="cls-15" d="M13.87,18.28l0,0a10.17,10.17,0,0,1,2.26-2l0,0A10.22,10.22,0,0,0,13.87,18.28Z"/><path class="cls-17" d="M11,17a2,2,0,0,1,.29.19l.34.25a1,1,0,0,0,.45-.31,1.06,1.06,0,0,0-.22-.48A1.12,1.12,0,0,0,11,17Z"/><path class="cls-18" d="M11.91,16.64h0a1.06,1.06,0,0,1,.22.48h0a2.58,2.58,0,0,0,1.7-1.17h0c0-.1-.06-.2-.08-.3C12.9,15.7,12,16.12,11.91,16.64Z"/><path class="cls-19" d="M16.86,16.05c-.15-.57-.88-1.44-3-.4h-.06c0,.1.05.2.08.3a6.52,6.52,0,0,0,2.21.39h0A.86.86,0,0,1,16.86,16.05Z"/><path class="cls-20" d="M16.8,18.19v0c.13-.24.79-1.55.06-2.11h0a.86.86,0,0,0-.8.29,3.87,3.87,0,0,0,.09,1.27h0A1.15,1.15,0,0,1,16.8,18.19Z"/><path class="cls-21" d="M15.57,19.24a4.69,4.69,0,0,0-.68,1,3.6,3.6,0,0,1,.88,1,2.41,2.41,0,0,0,.49-1.8A1.37,1.37,0,0,1,15.57,19.24Z"/><path class="cls-22" d="M16.8,18.19a1.15,1.15,0,0,0-.65-.58,1.66,1.66,0,0,0-.58,1.63h0a1.37,1.37,0,0,0,.69.22h0A2.54,2.54,0,0,0,16.8,18.19Z"/><path class="cls-23" d="M11,17a2,2,0,0,1,.29.19l.19.13a.62.62,0,0,0,.54-.39.66.66,0,0,0-.16-.28A1.12,1.12,0,0,0,11,17Z"/><path class="cls-24" d="M11,17a2,2,0,0,1,.29.19l.19.13a.62.62,0,0,0,.54-.39.66.66,0,0,0-.16-.28A1.12,1.12,0,0,0,11,17Z"/><path class="cls-25" d="M16.86,16.05c-.15-.57-.88-1.44-3-.4h-.06s0,0,0,.06a6,6,0,0,0,2.41.49A1,1,0,0,1,16.86,16.05Z"/><path class="cls-26" d="M16.86,16.05c-.15-.57-.88-1.44-3-.4h-.06s0,0,0,.06a6,6,0,0,0,2.41.49A1,1,0,0,1,16.86,16.05Z"/><path class="cls-27" d="M16.8,18.19v0c.13-.24.79-1.55.06-2.11h0a1,1,0,0,0-.67.15h.06a2.75,2.75,0,0,0,.14,1.52A1.33,1.33,0,0,1,16.8,18.19Z"/><path class="cls-28" d="M16.8,18.19v0c.13-.24.79-1.55.06-2.11h0a1,1,0,0,0-.67.15h.06a2.75,2.75,0,0,0,.14,1.52A1.33,1.33,0,0,1,16.8,18.19Z"/><path class="cls-29" d="M15.94,19.41a3.55,3.55,0,0,0-.6,1.14c.36.26.19.33.43.71a2.41,2.41,0,0,0,.49-1.8A1.25,1.25,0,0,1,15.94,19.41Z"/><path class="cls-30" d="M15.94,19.41a3.55,3.55,0,0,0-.6,1.14c.36.26.19.33.43.71a2.41,2.41,0,0,0,.49-1.8A1.25,1.25,0,0,1,15.94,19.41Z"/><path class="cls-31" d="M16.8,18.19a1.33,1.33,0,0,0-.41-.47v0c-.28.07-.61.58-.46,1.66h0a1.25,1.25,0,0,0,.32.05h0A2.54,2.54,0,0,0,16.8,18.19Z"/><path class="cls-32" d="M16.8,18.19a1.33,1.33,0,0,0-.41-.47v0c-.28.07-.61.58-.46,1.66h0a1.25,1.25,0,0,0,.32.05h0A2.54,2.54,0,0,0,16.8,18.19Z"/><path class="cls-33" d="M11.91,16.64h0a.66.66,0,0,1,.16.28v0a2.23,2.23,0,0,0,1.69-1.2h0s0,0,0-.06C12.9,15.7,12,16.12,11.91,16.64Z"/><path class="cls-34" d="M11.91,16.64h0a.66.66,0,0,1,.16.28v0a2.23,2.23,0,0,0,1.69-1.2h0s0,0,0-.06C12.9,15.7,12,16.12,11.91,16.64Z"/><path class="cls-35" d="M16.88,16.05a1.26,1.26,0,0,0-1.33-.9,4.17,4.17,0,0,0-1.73.48c-.82,0-1.78.44-1.92,1h-.05A1.19,1.19,0,0,0,11,17v0h0a1.59,1.59,0,0,1,.29.18l.34.26h0a1,1,0,0,0,.46-.32A2.58,2.58,0,0,0,13.84,16a6.33,6.33,0,0,0,2.06.4H16v.09a3.75,3.75,0,0,0,.08,1.15,1.72,1.72,0,0,0-.57,1.63,5,5,0,0,0-.68,1v0h0a3.45,3.45,0,0,1,.87,1l0,0v0a2.43,2.43,0,0,0,.5-1.81,2.51,2.51,0,0,0,.54-1.29C17,17.91,17.61,16.61,16.88,16.05Zm-.09,2.11h0a2.52,2.52,0,0,1-.53,1.28h0a2.35,2.35,0,0,1-.47,1.76,3.61,3.61,0,0,0-.86-.95,4.68,4.68,0,0,1,.68-1h0a1.7,1.7,0,0,1,.57-1.61h0a3.42,3.42,0,0,1-.09-1.15v-.13H15.9a6.56,6.56,0,0,1-2.07-.4h0v0a2.54,2.54,0,0,1-1.69,1.16h0a.93.93,0,0,1-.44.31l-.33-.25L11.07,17a1.18,1.18,0,0,1,.78-.33h.08v0c.11-.49,1-.93,1.9-1h0a4.25,4.25,0,0,1,1.72-.47,1.2,1.2,0,0,1,1.29.87h0C17.57,16.62,16.92,17.91,16.79,18.16Z"/><path class="cls-35" d="M15.58,19.22l0,0a1.83,1.83,0,0,0,.66.23h.05v0A1.71,1.71,0,0,1,15.58,19.22Z"/><path class="cls-35" d="M16.15,17.59v0a1.25,1.25,0,0,1,.65.55l0,0A1.33,1.33,0,0,0,16.15,17.59Z"/><path class="cls-35" d="M16,16.32l0,0a.86.86,0,0,1,.79-.27v0A.94.94,0,0,0,16,16.32Z"/><path class="cls-35" d="M11.9,16.65a1.63,1.63,0,0,1,.21.47h0a1.5,1.5,0,0,0-.22-.48Z"/><path class="cls-36" d="M9.9,13.59c3.91,1.4,2.69,4.33,2.69,4.33s1.11.09,1.53.19c.91-1.41.78-4.06,1.45-5.76C14,11.42,10.13,12.89,9.9,13.59Z"/><path class="cls-37" d="M12.72,14.63A3.31,3.31,0,0,1,13,18a9.56,9.56,0,0,1,1.12.15,12,12,0,0,0,1-4A3,3,0,0,1,12.72,14.63Z"/><path class="cls-38" d="M12.72,14.63A3.31,3.31,0,0,1,13,18a9.56,9.56,0,0,1,1.12.15,12,12,0,0,0,1-4A3,3,0,0,1,12.72,14.63Z"/><path class="cls-39" d="M14.2,12a8.15,8.15,0,0,0-2.76.57c-.86.33-1.47.71-1.56,1v0h0A4.17,4.17,0,0,1,12.5,15.7a3.08,3.08,0,0,1,.07,2.22v0h0a15.14,15.14,0,0,1,1.52.19h0a8.61,8.61,0,0,0,.89-3.2,12.77,12.77,0,0,1,.57-2.57h0A2.74,2.74,0,0,0,14.2,12ZM15,14.92a8.76,8.76,0,0,1-.87,3.17,12,12,0,0,0-1.49-.18,3.14,3.14,0,0,0-.08-2.23,4.26,4.26,0,0,0-2.62-2.1c.22-.54,2.52-1.51,4.28-1.51a2.65,2.65,0,0,1,1.35.29A12.67,12.67,0,0,0,15,14.92Z"/><path class="cls-39" d="M12.88,17.94l0,0a2.48,2.48,0,0,0,.39-1.12,2.44,2.44,0,0,0-.09-.94A2.74,2.74,0,0,1,12.88,17.94Z"/><path class="cls-39" d="M13.49,18l0,0A6.36,6.36,0,0,0,14,16.76a3.12,3.12,0,0,0,.12-1.17A5.21,5.21,0,0,1,13.49,18Z"/><path class="cls-40" d="M7.26,3.28A4.35,4.35,0,0,1,12.07.54c1-.49,2.12-1.33,3,1.43.56.56,1.38,1.53,1.51,1.57s1.68-.43,1.5,1.53a26.49,26.49,0,0,1-.74,5.32c-.37,1-.22,1.79-.69,2.5a2.13,2.13,0,0,1-2.24.81,8,8,0,0,0-2.73.33,6.54,6.54,0,0,1-4,.23,3.58,3.58,0,0,1-2.6-4.33A5.23,5.23,0,0,1,7.26,3.28Z"/><path class="cls-41" d="M6.18,4.56a2,2,0,0,0,.24.6A4.66,4.66,0,0,1,6.42,4a6.37,6.37,0,0,1,.84-.76A4.35,4.35,0,0,1,12.07.54c1-.49,2.12-1.33,3,1.43.56.56,1.38,1.53,1.51,1.57s1.68-.43,1.5,1.53-.21,4.07-.77,5.31c-.2.37-.21,2-.75,2.59-1.47,1.56-2.6.27-3.34.32,0,0,.19.21.14.21-.88,0-3.75.59-5.24-.08A4,4,0,0,1,5.75,9,3.78,3.78,0,0,1,6.18,4.56Z"/><path class="cls-42" d="M10.33,10.51c1.84.08,1.94,2.85,4.28,3.2a1.94,1.94,0,0,0,2.22-1.09,8.38,8.38,0,0,0,.41-1.9,9.16,9.16,0,0,1-5.17-1A5.75,5.75,0,0,1,10.33,10.51Z"/><path class="cls-43" d="M13.76,12.93a2.16,2.16,0,0,0,3-.76A1.69,1.69,0,0,1,13.76,12.93Z"/><path class="cls-44" d="M12.07.55A2.17,2.17,0,0,1,13.92.12a3.73,3.73,0,0,1,1.34,2.81A6.71,6.71,0,0,0,12.07.55Z"/><path class="cls-45" d="M15,1.9A2.34,2.34,0,0,0,13.86.1C13.53,0,12.8,0,11.77.78,13.25.17,14.35.25,15,1.9Z"/><path class="cls-46" d="M18.12,5c0-.55-.07-1.06-.35-1.24s-.64-.37-1.72-.09a1.23,1.23,0,0,0,.3,1.6C17,5.73,18.05,5.59,18.12,5Z"/><path class="cls-47" d="M16.9,3.69c-.16.18-.06.53.22.79s.65.33.81.14a.62.62,0,0,0-.17-.82A.66.66,0,0,0,16.9,3.69Z"/><path class="cls-48" d="M9.74.89a.43.43,0,0,1-.3.52.42.42,0,0,1-.56-.18h0A3.49,3.49,0,0,1,9.65.77.27.27,0,0,1,9.74.89Z"/><path class="cls-48" d="M10.93.46a4.71,4.71,0,0,1,1,.06.35.35,0,0,1,0,.14c0,.16-.28.4-.5.42A.64.64,0,0,1,10.89.6.29.29,0,0,1,10.93.46Z"/><path class="cls-48" d="M10.33,1c.09,0,.55.16.57.4s-.28.34-.52.34-.51-.19-.52-.34A.65.65,0,0,1,10.33,1Z"/><path class="cls-48" d="M12,1.32a.29.29,0,0,1,.36.2.3.3,0,0,1-.12.4.29.29,0,0,1-.36-.21A.29.29,0,0,1,12,1.32Z"/><path class="cls-48" d="M11.11,1.68c.09-.05.58.18.59.31s-.19.32-.25.35-.37-.1-.42-.18S11,1.73,11.11,1.68Z"/><path class="cls-48" d="M12,2.29a.91.91,0,0,1,.48,0c.06.06,0,.33,0,.39s-.35.18-.42.11S11.86,2.36,12,2.29Z"/><path class="cls-39" d="M5.11,9.93a3.08,3.08,0,0,0,.42,2.73,4.38,4.38,0,0,0,2.19,1.63,6.67,6.67,0,0,0,4-.24,8.21,8.21,0,0,1,2.71-.33,2.16,2.16,0,0,0,1.33-.09h0a2,2,0,0,0,1-.73,3.29,3.29,0,0,0,.41-1.32,5.41,5.41,0,0,1,.27-1.19A18,18,0,0,0,18,6.29c0-.4.07-.82.11-1.22a1.62,1.62,0,0,0-.32-1.31,1.37,1.37,0,0,0-1.08-.25h-.12a6.05,6.05,0,0,1-.75-.77L15.13,2A3,3,0,0,0,13.91.09a1.31,1.31,0,0,0-1,0c-.19.08-.39.18-.58.28l-.22.11A4.06,4.06,0,0,0,9.79.68,5.06,5.06,0,0,0,7.24,3.26,5.35,5.35,0,0,0,4.65,7.65,5.43,5.43,0,0,0,5.11,9.93Zm0,0h0A5.28,5.28,0,0,1,4.7,7.65,5.34,5.34,0,0,1,7.27,3.3h0A5,5,0,0,1,9.81.73,4,4,0,0,1,12.07.57h0l.22-.12a5,5,0,0,1,.58-.27,1.19,1.19,0,0,1,1,0c.47.21.86.81,1.2,1.84h0c.23.22.49.52.75.8a6.49,6.49,0,0,0,.77.78s.06,0,.14,0a1.29,1.29,0,0,1,1,.24,1.48,1.48,0,0,1,.3,1.26c0,.41-.07.83-.11,1.23a17.52,17.52,0,0,1-.63,4.09,5.61,5.61,0,0,0-.27,1.2,3,3,0,0,1-.41,1.29,1.92,1.92,0,0,1-.91.71h0a2.15,2.15,0,0,1-1.3.1,8,8,0,0,0-2.74.32,6.59,6.59,0,0,1-4,.24A3.58,3.58,0,0,1,5.16,9.93Z"/><path class="cls-49" d="M13.6,1.47c.63-.48,1.83.12,2.42.88a1.4,1.4,0,0,1-.26,2.06c-.62.47-1.13.78-1.85-.47C13.43,3.1,13.28,1.71,13.6,1.47Z"/><path class="cls-50" d="M14.33,1.76c.68-.35,1.63.2,2.19,1,.84,1.2.26,1.86-.42,2.21a1.62,1.62,0,0,1-2-1C13.61,3.15,13.69,2.08,14.33,1.76Z"/><path class="cls-51" d="M14.33,1.76c.68-.35,1.63.2,2.19,1,.84,1.2.26,1.86-.42,2.21a1.62,1.62,0,0,1-2-1C13.61,3.15,13.69,2.08,14.33,1.76Z"/><path class="cls-52" d="M14.59,2.24a.28.28,0,0,0,.4,0,.28.28,0,0,0,0-.4.28.28,0,0,0-.4,0A.3.3,0,0,0,14.59,2.24Z"/><path class="cls-53" d="M14.67,2.37a1.26,1.26,0,0,1,1.55.56c.42.59.4,1.28,0,1.55a1.27,1.27,0,0,1-1.56-.56C14.21,3.34,14.23,2.64,14.67,2.37Z"/><path d="M15,2.84a.82.82,0,0,1,1,.36.72.72,0,0,1,0,1,.79.79,0,0,1-1-.36A.72.72,0,0,1,15,2.84Z"/><path class="cls-54" d="M14.83,3.52a.27.27,0,1,0,.11-.38A.28.28,0,0,0,14.83,3.52Z"/><path class="cls-55" d="M15.2,2.38c.32,0,.58.19.58.38s-.27.33-.6.31-.58-.19-.57-.38S14.88,2.36,15.2,2.38Z"/><path d="M14,4c.52,1,1.42,1.39,2.11,1a1.46,1.46,0,0,0,.82-.89,1.65,1.65,0,0,0-.39-1.35C16,2,15,1.25,14.26,1.62S13.53,3,14,4Zm.08.06c-.46-.9-.34-1.93.26-2.23s1.64.24,2.17,1a1.7,1.7,0,0,1,.38,1.32,1.44,1.44,0,0,1-.8.86A1.6,1.6,0,0,1,14.08,4Z"/><path class="cls-56" d="M7.36,2.17c1.56-1.09,3.26.32,3.26.32L6.42,5.18S6.07,3.08,7.36,2.17Z"/><path class="cls-57" d="M7.36,2.17c1.44-1,3,.15,3.26.32.91.59,2.93,3,1.55,4.1-1.9,1.5-5.67.18-5.75-1.41C6.4,4.92,6.06,3.07,7.36,2.17Z"/><path class="cls-58" d="M11,2.8A3,3,0,0,0,7.54,2c-.71.36-1.39,1.47-1.07,3.29C6.81,2.47,8.77,1.64,11,2.8Z"/><path class="cls-39" d="M7.35,2.15c1.55-1.09,3.25.32,3.27.34s-.53-.3-.75-.41a2.46,2.46,0,0,0-2.49.11,2.74,2.74,0,0,0-1,2.27v.72S6.05,3.06,7.35,2.15Z"/><path class="cls-59" d="M16.29,4.4a2.92,2.92,0,0,1,3,1.31c.32-.17.78.22.63,1.25-.08.56.5,2.41-.88,3.21a7,7,0,0,1-7.1-.39l1.92-3.86-.27-4.66A13.73,13.73,0,0,1,16.29,4.4Z"/><path class="cls-60" d="M16.29,4.4a2.92,2.92,0,0,1,3,1.31c.32-.17.78.22.63,1.25a6,6,0,0,1-.19,2.49,4.62,4.62,0,0,1-2.56,1.11,10.84,10.84,0,0,1-5.23-.79L13.13,2l.44-.73A13.73,13.73,0,0,1,16.29,4.4Z"/><path class="cls-61" d="M16.29,4.4a2.92,2.92,0,0,1,3,1.31c.32-.17.78.22.63,1.25a6,6,0,0,1-.19,2.49,4.5,4.5,0,0,1-2.59,1C14.27,10.8,12.46,9.69,12,9l1.09-7,.44-.73A13.73,13.73,0,0,1,16.29,4.4Z"/><path class="cls-62" d="M15.22,4.75c1.47-.35,3.25.17,3.86,1.39.25.49-.77.77-1.3-.1A2.88,2.88,0,0,0,15.22,4.75Z"/><path class="cls-63" d="M8.27,1.81A4,4,0,0,1,11.4.48C13.22.53,15,2.32,16.29,4.4c-1,.08-2.94,2.06-4-.08C11.55,3,9.92,1.55,8.27,1.81Z"/><path class="cls-64" d="M9.15,1.06c2.77-1.69,5.11.42,6.66,2.78.39.6-.83.79-1.27,0C13.13,1.36,11.18.37,9.15,1.06Z"/><path class="cls-39" d="M19,10.15c1-.61.94-1.82.88-2.62a2.94,2.94,0,0,1,0-.57c.1-.68-.07-1.07-.27-1.2a.31.31,0,0,0-.32,0h0v0a2.91,2.91,0,0,0-2.95-1.3h0a12.65,12.65,0,0,0-2.15-2.66c-.32-.31-.55-.49-.55-.49a11.52,11.52,0,0,1,2.74,3.11,3,3,0,0,1,3,1.3.37.37,0,0,1,.35,0A1.29,1.29,0,0,1,19.92,7a2.83,2.83,0,0,0,0,.56c.07.81.17,2.05-.91,2.67a4.42,4.42,0,0,1-.75.36,6.13,6.13,0,0,1-2.17.42A8,8,0,0,1,11.9,9.8l0-.05C15.53,11.85,18.26,10.59,19,10.15Z"/><path class="cls-39" d="M11.88,9.77c.29-.24.48-.43.48-.43a3,3,0,0,1-1.34,1,3.48,3.48,0,0,1-.69.19l.62-.22A3.31,3.31,0,0,0,11.88,9.77Z"/><path class="cls-65" d="M11.41,10.11a3.44,3.44,0,0,0,.49-.33,7.81,7.81,0,0,0,4.72,1.14c.13,1-.08,1.78-1,2.11s-2.14-.88-2.78-1.66a2.49,2.49,0,0,0-2.09-1A3.22,3.22,0,0,0,11.41,10.11Z"/><path class="cls-66" d="M11.41,10.11a3.44,3.44,0,0,0,.49-.33,8.9,8.9,0,0,0,2.35,1,1,1,0,0,0-.73,1.39c-.23-.22-.52-.55-.69-.75a2.49,2.49,0,0,0-2.09-1A3.22,3.22,0,0,0,11.41,10.11Z"/><path class="cls-67" d="M16.2,12.68a1.84,1.84,0,0,0-1.08-1.79,5.85,5.85,0,0,0,1.5,0A2,2,0,0,1,16.2,12.68Z"/><path class="cls-68" d="M14.75,11.66c.82-.6,1.51.17,1.77.54a1.43,1.43,0,0,1-.91.83c-.7.26-1.52-.33-2.16-1A1,1,0,0,1,14.75,11.66Z"/><path class="cls-69" d="M15.09,12c-.08-1,1.24-.22,1.33.41a1.23,1.23,0,0,1-.81.64,1.5,1.5,0,0,1-1.71-1C13.91,11.64,14.67,11.51,15.09,12Z"/><path class="cls-70" d="M15.11,12c0-.32.15-.5.34-.46.62.14.93.66.9.85a1,1,0,0,1-.64.52C15.57,12.9,15.39,12.31,15.11,12Z"/><path class="cls-71" d="M14,11.85a1,1,0,0,1,1.22.21c.31.33.59.87.37.93a1.34,1.34,0,0,1-1.23-.33C14,12.37,13.86,12,14,11.85Z"/><path class="cls-72" d="M13.43,12.05h0v0c.87.86,1.6,1.19,2.19,1l.05,0h0a1.46,1.46,0,0,0,.87-.83h0c-.22-.31-.8-1-1.52-.71a1.22,1.22,0,0,0-.27.15,1,1,0,0,0-.81,0A1,1,0,0,0,13.43,12.05Zm.05,0a1.07,1.07,0,0,1,.48-.42,1,1,0,0,1,.78,0h0a.91.91,0,0,1,.27-.15c.67-.26,1.23.37,1.45.68a1.41,1.41,0,0,1-.84.78h0l-.05,0C15,13.21,14.33,12.89,13.48,12.06Z"/><path class="cls-72" d="M15.23,12.13a2.18,2.18,0,0,0-.49-.45l0,0A1.61,1.61,0,0,1,15.23,12.13Z"/><path class="cls-39" d="M10.73,10.37v.05h0a2.5,2.5,0,0,1,2.06,1c1.12,1.36,2.09,1.94,2.81,1.68l.05,0c.8-.31,1.12-1,1-2.13v0h0a7.74,7.74,0,0,1-4.7-1.13h0a3.85,3.85,0,0,1-.49.33,4.14,4.14,0,0,1-.43.2l-.23.08Zm.25,0,.44-.2a5,5,0,0,0,.49-.33A8,8,0,0,0,16.6,11c.14,1.1-.19,1.77-1,2.06s-1.65-.32-2.75-1.66A2.77,2.77,0,0,0,11,10.34Z"/><path class="cls-73" d="M19.52,6.09s.14.15.19.4,0,.47-.11.47-.19-.33-.21-.42S19.46,6.07,19.52,6.09Z"/><path class="cls-74" d="M19.64,6.26c.16.38.09.7,0,.7s-.21-.43-.21-.43.11.26.19.26S19.64,6.26,19.64,6.26Z"/><path class="cls-75" d="M19.37,6.55c0,.16.09.43.23.43h0c.13-.05.13-.29.09-.5s-.15-.41-.2-.42h0A.63.63,0,0,0,19.37,6.55Zm.05,0a.61.61,0,0,1,.1-.43.78.78,0,0,1,.16.38c.05.23,0,.41-.05.44h0C19.51,6.93,19.45,6.72,19.42,6.54Z"/><path class="cls-73" d="M16.27,7.6c.31-.44,1.12.36,1.08.48a.78.78,0,0,1-.72.13C16.39,8.12,16.12,7.82,16.27,7.6Z"/><path class="cls-74" d="M16.27,7.6l0,0c0,.36.58.62,1,.53a.86.86,0,0,1-.69.1C16.39,8.12,16.12,7.82,16.27,7.6Z"/><path class="cls-75" d="M16.22,7.84a.7.7,0,0,0,.4.39.87.87,0,0,0,.57,0c.08,0,.17-.08.18-.12s-.13-.24-.18-.29c-.22-.21-.55-.42-.79-.33a.29.29,0,0,0-.15.12A.27.27,0,0,0,16.22,7.84Zm.05,0a.2.2,0,0,1,0-.21.25.25,0,0,1,.12-.11c.19-.07.47.09.67.27s.24.27.23.29a.42.42,0,0,1-.15.09.88.88,0,0,1-.53,0A.69.69,0,0,1,16.27,7.83Z"/><path class="cls-39" d="M16.29,4.37v0a3.14,3.14,0,0,0-.49.12A1.66,1.66,0,0,1,16.29,4.37Z"/><path class="cls-39" d="M12.82.82a4.63,4.63,0,0,0-.75-.25v0A2.64,2.64,0,0,1,12.82.82Z"/><path class="cls-39" d="M5.42,9.29h0Z"/><path class="cls-39" d="M5.42,9.29a3.65,3.65,0,0,0-.26.64h0A2.54,2.54,0,0,1,5.42,9.29Z"/><path class="cls-76" d="M6,11c.2,0,.67.94.29,1.13-.22.11-.7-.22-.8-.44S5.77,10.94,6,11Z"/><path class="cls-77" d="M6,11a1.14,1.14,0,0,1,.42,1,4.75,4.75,0,0,1-.52-1A.15.15,0,0,1,6,11Z"/><path class="cls-77" d="M7.43,11.41c.13,0,.68.35.67.5a1.44,1.44,0,0,1-.56.65c-.16.07-.61-.33-.63-.51S7.18,11.44,7.43,11.41Z"/><path class="cls-77" d="M7.94,10.72c.06,0,.39.17.46.35s-.3.25-.37.22S7.82,10.79,7.94,10.72Z"/><path class="cls-77" d="M8.51,12c.07,0,.39.56.31.7s-.51,0-.55-.1S8.39,12,8.51,12Z"/><path class="cls-76" d="M7.94,13c.1,0,.42.24.44.41a.38.38,0,0,1-.24.34c-.1,0-.37-.19-.43-.35S7.85,13,7.94,13Z"/><path class="cls-77" d="M7.94,13c.1,0,.42.24.44.41a.24.24,0,0,1,0,.14,1.69,1.69,0,0,1-.62-.29C7.77,13.08,7.87,13,7.94,13Z"/><path class="cls-76" d="M6.44,12.54a.85.85,0,0,1,.81.43c0,.16-.42.4-.57.27S6.31,12.65,6.44,12.54Z"/><path class="cls-39" d="M14.51,13.69v.05a1.41,1.41,0,0,1-.36-.11,3.75,3.75,0,0,0-.77-.26,2.5,2.5,0,0,1,.79.21A1.43,1.43,0,0,0,14.51,13.69Z"/><path class="cls-39" d="M19.26,5.68l0,.05c-.13,0-.16.23-.16.23A.3.3,0,0,1,19.26,5.68Z"/><path class="cls-78" d="M9.69,3.23c.93-.27,2,1.43,2.34,2.57.57,1.7-.43,2.42-1.39,2.44A3.4,3.4,0,0,0,9,8.62C7.6,6.22,7.64,3.84,9.69,3.23Z"/><path class="cls-50" d="M9.75,4c.93-.17,1.86.82,2.24,2,.57,1.72-.36,2.29-1.29,2.46A2,2,0,0,1,8.61,6.56C8.4,5.37,8.87,4.13,9.75,4Z"/><path class="cls-79" d="M9.75,4c.93-.17,1.86.82,2.24,2,.57,1.72-.36,2.29-1.29,2.46A2,2,0,0,1,8.61,6.56C8.4,5.37,8.87,4.13,9.75,4Z"/><path class="cls-80" d="M9.45,4.72a.35.35,0,0,0,.48.15.36.36,0,0,0-.33-.63A.36.36,0,0,0,9.45,4.72Z"/><path class="cls-81" d="M9.65,5c.62-.17,1.36.38,1.64,1.22s0,1.65-.61,1.82S9.33,7.7,9,6.86,9,5.2,9.65,5Z"/><path d="M9.88,5.72c.41-.12.9.23,1.08.78a.89.89,0,0,1-.43,1.2,1,1,0,0,1-1.08-.78C9.27,6.37,9.46,5.83,9.88,5.72Z"/><path class="cls-82" d="M9.45,6.48a.27.27,0,0,0,.37.12.28.28,0,0,0,.11-.37.27.27,0,0,0-.37-.12A.28.28,0,0,0,9.45,6.48Z"/><path class="cls-83" d="M10.28,5.24c.37.13.62.43.54.65s-.44.29-.81.15-.62-.43-.55-.65S9.9,5.1,10.28,5.24Z"/><path d="M8.57,6.46c.25,1.4,1.19,2.15,2.13,2A1.79,1.79,0,0,0,12,7.68a2.11,2.11,0,0,0,0-1.74C11.65,4.83,10.7,3.6,9.71,3.78S8.34,5.19,8.57,6.46Zm.07.1C8.42,5.32,8.92,4.15,9.75,4s1.86.87,2.21,2a2.06,2.06,0,0,1,0,1.7,1.74,1.74,0,0,1-1.26.74A2,2,0,0,1,8.64,6.56Z"/><path class="cls-84" d="M12.16,8.56,8.78,8.9A2.36,2.36,0,0,1,12.16,8.56Z"/><path class="cls-85" d="M8.63,9.23c0,.36.52,1.07,1.92,1,1.2-.1,1.86-.91,1.83-1.27s-1-.94-1.92-.87S8.61,8.87,8.63,9.23Z"/><path class="cls-86" d="M9.13,8.88c0,.38.66.68,1.46.68S12,9.23,12,8.85s-.63-.76-1.43-.75S9.13,8.5,9.13,8.88Z"/><path class="cls-39" d="M10.42,8a2.5,2.5,0,0,1,1.81.66,2.72,2.72,0,0,0-1.8-.57,2.65,2.65,0,0,0-1.65.85A2.4,2.4,0,0,1,10.42,8Z"/><path class="cls-87" d="M12.12,17.74l-.06,0c-.42-.24-.79-.75-1.46-.86a.6.6,0,0,0-.7.68,2.69,2.69,0,0,1,2,.76C11.88,18.07,11.91,17.81,12.12,17.74Z"/><path class="cls-88" d="M15.57,18.32c-1.29-1-3-.47-3.45-.58-.21.07-.24.33-.24.55l0,0A4.38,4.38,0,0,1,15.8,19.4.77.77,0,0,0,15.57,18.32Z"/><path class="cls-89" d="M14,19.62a5.14,5.14,0,0,0-3-.44h0a2,2,0,0,0-1.27,1.44h0a6.45,6.45,0,0,0,4.82.1c.14-.1.3-.23.47-.37A2.75,2.75,0,0,0,14,19.62Z"/><path class="cls-90" d="M10.91,19.18a3.1,3.1,0,0,0-1.82-.57h0c-.25.09-.79.1-1,1.43h0a3,3,0,0,0,1.56.58A2,2,0,0,1,10.91,19.18Z"/><path class="cls-91" d="M9.63,20.63h0A2.91,2.91,0,0,1,8.08,20a3,3,0,0,0-.59,2.19,4.69,4.69,0,0,0,1.45.49A2.9,2.9,0,0,1,9.63,20.63Z"/><path class="cls-92" d="M14.48,20.72a6.68,6.68,0,0,1-4.85-.09,2.9,2.9,0,0,0-.69,2.09l.1,0a7.76,7.76,0,0,0,5.53,0C15.16,22.36,14.83,21.12,14.48,20.72Z"/><path class="cls-93" d="M14.65,22.75a7.22,7.22,0,0,1-5.56-.05c-.53-.22-1.13-.16-1.6-.47A2.26,2.26,0,0,0,9,23.73l.1.13c1.55,0,2.53.71,3.84.73A3.14,3.14,0,0,0,14.65,22.75Z"/><path class="cls-94" d="M12.75,24.57l.2-.06c-.76.23-2-.57-3.86-.65C10,24.92,11.82,25.74,12.75,24.57Z"/><path class="cls-95" d="M11.89,18.31a2.54,2.54,0,0,0-2-.78v0a1.28,1.28,0,0,0-.81,1.06,3.17,3.17,0,0,1,1.82.57A1.41,1.41,0,0,1,11.89,18.31Z"/><path class="cls-96" d="M11.9,18.32h0a1.41,1.41,0,0,0-1,.87h0a5,5,0,0,1,3,.44,3.11,3.11,0,0,1,1,.73,3.59,3.59,0,0,0,.85-1A4.38,4.38,0,0,0,11.9,18.32Z"/><path class="cls-97" d="M9.25,18.83a.94.94,0,0,0-.55.71c-.07.36.64.73,1,.62.09,0,.22-.31.41-.55s.49-.37.47-.45C10.46,18.9,9.55,18.74,9.25,18.83Z"/><path class="cls-98" d="M9.31,19a.73.73,0,0,0-.43.56c-.05.28.5.57.75.48a5.11,5.11,0,0,0,.31-.42c.15-.18.39-.3.37-.35C10.26,19,9.54,18.9,9.31,19Z"/><path class="cls-99" d="M10.35,17.06c-.36.18.14.34.71.54.33.12.76.57.78.29S10.6,17,10.35,17.06Z"/><path class="cls-100" d="M10.56,17.17c-.25.11.09.22.46.35s.51.38.52.19S10.72,17.09,10.56,17.17Z"/><path class="cls-101" d="M8.48,20.7a.84.84,0,0,0-.23.92.55.55,0,0,0,.66.14c.1-.1.12-.3.18-.45s.25-.35.22-.52C9.23,20.45,8.61,20.56,8.48,20.7Z"/><path class="cls-102" d="M8.51,20.85a.67.67,0,0,0-.19.76c0,.13.43.24.55.12A1,1,0,0,0,9,21.35c.07-.19.21-.29.19-.43S8.62,20.73,8.51,20.85Z"/><path class="cls-103" d="M13.23,21.1c-2.17.46-3.34-.38-3.58-.17a1.27,1.27,0,0,0-.19,1.27c.27.66,2.92.79,3.58.55C13.5,22.58,13.88,21,13.23,21.1Z"/><path class="cls-104" d="M12.73,21.37c-1.65.35-2.54-.3-2.72-.13a1,1,0,0,0-.15,1c.21.51,2.22.61,2.73.42C12.94,22.49,13.23,21.26,12.73,21.37Z"/><path class="cls-105" d="M11,19.22a.89.89,0,0,0-.74,1.17,5,5,0,0,0,2.7.34c.31-.12.66-.85.43-1.12A4,4,0,0,0,11,19.22Z"/><path class="cls-106" d="M11.17,19.41a.71.71,0,0,0-.59.94,4,4,0,0,0,2.17.27c.25-.09.54-.68.35-.89A3.21,3.21,0,0,0,11.17,19.41Z"/><path class="cls-107" d="M13.83,18.36a5,5,0,0,0-2.07.05c-.28.15-.31.49-.16.55a12.59,12.59,0,0,0,2.56.21C14.63,18.74,14,18.41,13.83,18.36Z"/><path class="cls-108" d="M13.59,18.46a3.7,3.7,0,0,0-1.52,0c-.21.11-.23.36-.12.4a9.61,9.61,0,0,0,1.88.16C14.18,18.74,13.73,18.5,13.59,18.46Z"/><path class="cls-109" d="M12.19,18c0,.26.67,0,1.24.11s1.09.25,1.31.24.11-.16,0-.24C14.26,17.61,12.23,17.74,12.19,18Z"/><path class="cls-110" d="M12.67,18c0,.17.42,0,.79.07s.69.16.83.15.07-.1,0-.15A2,2,0,0,0,12.67,18Z"/><path class="cls-111" d="M10.17,17.7c-.3,0-.6.36-.5.59a1.59,1.59,0,0,0,1.26.42c.24,0,.71-.33.62-.5C11.36,17.86,10.39,17.7,10.17,17.7Z"/><path class="cls-112" d="M10.27,17.8c-.22,0-.45.27-.37.44s.69.37.95.32.54-.25.47-.38S10.44,17.79,10.27,17.8Z"/><path class="cls-113" d="M12.9,23.21A7.23,7.23,0,0,1,9,22.6l0,0a7.31,7.31,0,0,0,3.05.68,8.2,8.2,0,0,0,.92-.06,6.51,6.51,0,0,0,1.67-.45l0,0A6,6,0,0,1,12.9,23.21Z"/><path class="cls-113" d="M9,22.66l0,0a5.72,5.72,0,0,0,3.81,1.9v0A5.71,5.71,0,0,1,9,22.66Z"/><path class="cls-113" d="M9.66,20.62h0A2.88,2.88,0,0,1,8.1,20l0,0a2.91,2.91,0,0,0,1.57.61,5.61,5.61,0,0,0,2.38.49,7.67,7.67,0,0,0,2.47-.41l0,0A7,7,0,0,1,9.66,20.62Z"/><path class="cls-113" d="M10.93,19.16c-.42-.48-1.78-.56-1.84-.56v0s1.42.09,1.81.57h0A5.08,5.08,0,0,1,15,20.32l0,0A5.14,5.14,0,0,0,10.93,19.16Z"/><path class="cls-113" d="M15.59,18.31a3.26,3.26,0,0,0-2.09-.64c-.28,0-.54,0-.77,0l-.42,0a.57.57,0,0,1-.24,0,3.56,3.56,0,0,1-.41-.3,2.18,2.18,0,0,0-1.05-.57.59.59,0,0,0-.56.18.65.65,0,0,0-.17.53,1.26,1.26,0,0,0-.8,1.06l-.07,0c-.28.07-.75.2-.94,1.41a2.87,2.87,0,0,0-.58,2.28A2.3,2.3,0,0,0,9,23.74a3.54,3.54,0,0,0,2.55,1.42,1.51,1.51,0,0,0,1.23-.57,2.5,2.5,0,0,0,1.83-1.79A1.27,1.27,0,0,0,15,21.62a1.24,1.24,0,0,0-.45-.9c.53-.42,1.42-1.11,1.42-1.77A.81.81,0,0,0,15.59,18.31Zm-1.1,2.38-.05,0h0a1.17,1.17,0,0,1,.46.88,1.22,1.22,0,0,1-.37,1.15h0a2.42,2.42,0,0,1-1.81,1.77h0a1.47,1.47,0,0,1-1.2.56A3.49,3.49,0,0,1,9,23.72H9A2.29,2.29,0,0,1,7.53,22.3a2.85,2.85,0,0,1,.57-2.25h0c.19-1.19.65-1.31.92-1.38l.08,0h0a1.27,1.27,0,0,1,.79-1.05h0a.7.7,0,0,1,.15-.52.59.59,0,0,1,.42-.17h.11a2.18,2.18,0,0,1,1,.56,3.56,3.56,0,0,0,.41.3.54.54,0,0,0,.26,0l.43,0c.22,0,.48,0,.76,0a3.2,3.2,0,0,1,2.06.63.77.77,0,0,1,.35.61C15.9,19.59,15,20.28,14.49,20.69Z"/><path class="cls-113" d="M11.87,18.3a1.67,1.67,0,0,0-.88.62.35.35,0,0,0-.09.25,1.93,1.93,0,0,0-1.27,1.46c-1,.7-.67,3-.66,3.1H9s-.29-2.39.65-3.07h0a1.85,1.85,0,0,1,1.25-1.45h0v0a.34.34,0,0,1,.08-.24,1.59,1.59,0,0,1,.88-.6h0v0c0-.36.05-.53.22-.56v0C11.94,17.76,11.86,17.94,11.87,18.3Z"/><path class="cls-113" d="M12.21,18.27l-.31,0a2.44,2.44,0,0,0-2-.77v0a2.4,2.4,0,0,1,2,.76h0l.32,0a4.39,4.39,0,0,1,3.57,1.08A4,4,0,0,0,12.21,18.27Z"/><path class="cls-114" d="M14,19.69a1.38,1.38,0,0,0,.34,2.1,10.06,10.06,0,0,0,1.21-2C15.19,18.85,14.41,19.15,14,19.69Z"/><path class="cls-115" d="M14,19.7l0,0a1.33,1.33,0,0,0,.71,1.57,6,6,0,0,0,.87-1.51C15.19,18.85,14.42,19.16,14,19.7Z"/><path class="cls-116" d="M14,19.7l0,0a1.33,1.33,0,0,0,.71,1.57,6,6,0,0,0,.87-1.51C15.19,18.85,14.42,19.16,14,19.7Z"/><path class="cls-35" d="M14.88,19.16a1.23,1.23,0,0,0-.91.58,1.49,1.49,0,0,0-.27,1.18,1.47,1.47,0,0,0,.61.85l0,0v0a2.25,2.25,0,0,1,.37-1.66.77.77,0,0,1,.58-.24,1.58,1.58,0,0,1,.28,0h0v0C15.42,19.29,15.11,19.16,14.88,19.16Zm.41.65a.85.85,0,0,0-.61.25,2.31,2.31,0,0,0-.38,1.66,1.33,1.33,0,0,1-.3-2,1.21,1.21,0,0,1,.88-.56c.3,0,.53.22.66.64A.85.85,0,0,0,15.29,19.81Z"/><path class="cls-117" d="M10.89,24c.38,1-.69,2.24-2.51,1.82,0,0,.79,1.53,2.56.2C11.58,25.43,12.28,24.44,10.89,24Z"/><path class="cls-118" d="M10.89,24a1.25,1.25,0,0,1-.39,1.39,2.31,2.31,0,0,0,.55.53C11.65,25.32,12.2,24.41,10.89,24Z"/><path class="cls-35" d="M10.9,24h0l0,0a1.22,1.22,0,0,1-.17,1.11,2,2,0,0,1-1.64.76,2.68,2.68,0,0,1-.68-.08h0l0,0a1.44,1.44,0,0,0,1.22.75A2.28,2.28,0,0,0,11,26c.26-.23.86-.82.75-1.36C11.64,24.35,11.37,24.12,10.9,24Zm0,2a2.3,2.3,0,0,1-1.34.54,1.41,1.41,0,0,1-1.17-.69,2.94,2.94,0,0,0,.65.07,2,2,0,0,0,1.68-.78A1.25,1.25,0,0,0,10.93,24c.43.15.68.37.73.64C11.77,25.17,11.18,25.76,10.93,26Z"/><path class="cls-119" d="M3,21.36c-1.16.26-2.44,2-2.53,3.49.06.12.62,1.4,3.68,1.32.18-.46,1-3,3-3.33C7.12,22.84,6.09,20.67,3,21.36Z"/><path class="cls-120" d="M4.46,22.61s0,0,0-.06A.13.13,0,0,0,4.46,22.61Z"/><path class="cls-121" d="M4.57,21.37a6,6,0,0,0-1.24.14C2,21.78.85,23.49,1,24.38a2.1,2.1,0,0,0,2.33,1.41c.31-.89.37-1.92,1.09-2.52.2-.17,0-.67,0-.66.19.25.54,0,1-.13A1.31,1.31,0,0,1,4.57,21.37Z"/><path class="cls-122" d="M4.57,21.37a6,6,0,0,0-1.24.14C2,21.78.85,23.49,1,24.38a2.1,2.1,0,0,0,2.33,1.41c.31-.89.37-1.92,1.09-2.52.2-.17,0-.67,0-.66.19.25.54,0,1-.13A1.31,1.31,0,0,1,4.57,21.37Z"/><path class="cls-123" d="M2.51,21.65l-.07,0A4.12,4.12,0,0,0,1.12,23a.42.42,0,0,0,.11.15.88.88,0,0,0,1.17-.29A.86.86,0,0,0,2.51,21.65Z"/><path class="cls-74" d="M1.31,23.19a.91.91,0,0,0,1.09-.34.94.94,0,0,0,.22-1.06A4.17,4.17,0,0,0,1.31,23.19Z"/><path class="cls-39" d="M4.16,21.21A5.35,5.35,0,0,0,3,21.34c-1.16.26-2.45,2-2.54,3.51h0c.09.22.69,1.33,3.41,1.33h.29v0l.05-.12c.71-1.91,1.68-3,2.89-3.19h0l0,0A3.25,3.25,0,0,0,4.16,21.21Zm.9,3.08A7.87,7.87,0,0,0,4.19,26a.76.76,0,0,0,0,.11H3.88C1.2,26.15.6,25.07.5,24.84.6,23.38,1.86,21.63,3,21.38a5.3,5.3,0,0,1,1.15-.14,3.25,3.25,0,0,1,2.93,1.59A3.17,3.17,0,0,0,5.06,24.29Z"/><path class="cls-74" d="M3.24,22.82c-.14-.12-.38-.06-.55.14a.4.4,0,0,0,0,.56.41.41,0,0,0,.55-.13A.41.41,0,0,0,3.24,22.82Z"/><path class="cls-74" d="M3.54,21.71a.31.31,0,0,0-.44.05.31.31,0,0,0,0,.44.33.33,0,0,0,.44-.05A.31.31,0,0,0,3.54,21.71Z"/><path class="cls-124" d="M1.94,25.8c0,.21-.62.56-.78.46s-.13-.76,0-.89S2,25.61,1.94,25.8Z"/><path class="cls-125" d="M1.82,25.69c0,.21-.58.63-.66.57s-.13-.76,0-.89S1.86,25.51,1.82,25.69Z"/><path class="cls-126" d="M1.78,25.67c0,.2-.51.62-.6.57s-.09-.72.06-.85S1.81,25.52,1.78,25.67Z"/><path class="cls-127" d="M1.15,26.28A.36.36,0,0,1,1,26a1,1,0,0,1,.14-.66c.1-.09.32,0,.48.08s.33.26.31.37-.27.34-.49.44-.24.09-.32,0Zm.48-.82c-.15-.09-.35-.16-.44-.08a1,1,0,0,0-.12.62c0,.13.05.22.1.25h0c.05,0,.15,0,.29-.05s.44-.28.46-.4S1.81,25.57,1.63,25.46Z"/><path class="cls-128" d="M3.37,26c.06.2-.3.78-.49.77s-.46-.63-.38-.82S3.32,25.85,3.37,26Z"/><path class="cls-129" d="M3.22,26a1.18,1.18,0,0,1-.34.82c-.2,0-.46-.63-.38-.82S3.16,25.8,3.22,26Z"/><path class="cls-130" d="M3.17,26c.06.2-.18.78-.28.78s-.4-.6-.33-.79S3.13,25.84,3.17,26Z"/><path class="cls-127" d="M2.87,26.81c-.08,0-.16-.11-.22-.19A1,1,0,0,1,2.48,26c0-.13.27-.16.46-.14s.42.08.45.19a1,1,0,0,1-.24.61c-.06.07-.18.19-.27.18Zm.07-.94c-.17,0-.38,0-.43.12a1,1,0,0,0,.17.61c.07.11.14.17.2.18h0q.09,0,.24-.18A.86.86,0,0,0,3.35,26C3.33,26,3.15,25.89,2.94,25.87Z"/><path class="cls-131" d="M.84,25.19c-.09.17-.69.29-.79.16s.12-.67.28-.74S.92,25.05.84,25.19Z"/><path class="cls-132" d="M.77,25.07c-.09.16-.67.35-.72.28s.12-.67.28-.74S.86,24.92.77,25.07Z"/><path class="cls-133" d="M.75,25c-.1.16-.62.36-.67.29s.13-.62.3-.69S.81,24.93.75,25Z"/><path class="cls-127" d="M0,25.36c0-.06,0-.18,0-.26a.92.92,0,0,1,.3-.51c.12-.05.28.08.38.21s.2.32.15.4a.79.79,0,0,1-.53.22c-.08,0-.23,0-.29-.06Zm.65-.54c-.1-.12-.24-.24-.34-.2a.86.86,0,0,0-.29.49.33.33,0,0,0,0,.23h0s.13.06.26.05a.87.87,0,0,0,.51-.2C.86,25.13.79,25,.68,24.82Z"/><path class="cls-39" d="M4.13,22.12A4.19,4.19,0,0,1,5,24.36h0A3.57,3.57,0,0,0,4.13,22.12Z"/><path class="cls-134" d="M7.64,17.72c-.67.2-3.5.93-2.95,3.58.15.73.83,1.26,2.06,1.13A1.87,1.87,0,0,0,8.08,20c.13-.6.24-1.27,1-1.43a1.25,1.25,0,0,1,.81-1.06A3.85,3.85,0,0,0,7.64,17.72Z"/><path class="cls-135" d="M7.78,17.86a4.56,4.56,0,0,0-2,1,1.77,1.77,0,0,0-.51,2.34c.55.87,1.88,1.32,2.59.45A2.07,2.07,0,0,0,8.08,20a1.29,1.29,0,0,0,0-.19,2.56,2.56,0,0,0-1.9-.65c.84-.26,1.8.43,2.19-.15a1,1,0,0,1,.68-.44,1.25,1.25,0,0,1,.81-1.06A4.63,4.63,0,0,0,7.78,17.86Z"/><path class="cls-136" d="M5.24,19.52a1.51,1.51,0,0,0,0,1.67c.55.87,1.88,1.32,2.59.45A2.07,2.07,0,0,0,8.08,20a1.29,1.29,0,0,0,0-.19,2.56,2.56,0,0,0-1.9-.65A2.13,2.13,0,0,0,5.24,19.52Z"/><path class="cls-137" d="M8.11,20.71c-.16.51-.77,1.46-1.54,1.22a2.51,2.51,0,0,1-1.28-2.21c.12-.39.93-.59,1.7-.35S8.26,20.21,8.11,20.71Z"/><path class="cls-123" d="M8.39,17.55c-.23,0-.48.1-.75.17l-.24.07a.33.33,0,0,0,0,.22c0,.23.35.36.67.29s.52-.32.47-.55A.39.39,0,0,0,8.39,17.55Z"/><path class="cls-74" d="M8.49,17.67A10.32,10.32,0,0,0,7.37,18a.53.53,0,0,0,.68.32c.31-.07.52-.32.47-.55A.26.26,0,0,0,8.49,17.67Z"/><path class="cls-39" d="M9.23,17.44a5.58,5.58,0,0,0-1.6.27l-.06,0a5.52,5.52,0,0,0-1.94.9,2.53,2.53,0,0,0-1,2.68,1.57,1.57,0,0,0,1.72,1.16h0a2.17,2.17,0,0,0,.36,0,1.57,1.57,0,0,0,1-.66A2,2,0,0,0,8.1,20l0-.06c.12-.59.24-1.2,1-1.35h0a1.24,1.24,0,0,1,.79-1.05l0,0,0,0A2,2,0,0,0,9.23,17.44ZM9.08,18.6c-.76.15-.89.8-1,1.37l0,.07h0a2,2,0,0,1-.32,1.73,1.48,1.48,0,0,1-1,.64,2.17,2.17,0,0,1-.36,0h0A1.52,1.52,0,0,1,4.71,21.3a2.48,2.48,0,0,1,.94-2.64,5.77,5.77,0,0,1,1.93-.9l.07,0a5.71,5.71,0,0,1,1.58-.26,2.45,2.45,0,0,1,.61.07A1.26,1.26,0,0,0,9.08,18.6Z"/><path class="cls-39" d="M6.22,19.2a2.76,2.76,0,0,1,1.87.64l0,0a3.22,3.22,0,0,0-.7-.43A2.17,2.17,0,0,0,6.22,19.2Z"/><path class="cls-138" d="M8,19.85c.2-.05.77.32.75.51s-.63.43-.81.36S7.81,19.9,8,19.85Z"/><path class="cls-139" d="M7.94,20c.21-.05.81.26.8.36s-.63.43-.81.36S7.76,20.05,7.94,20Z"/><path class="cls-140" d="M7.94,20.05c.2-.05.77.2.76.3s-.6.38-.78.3S7.8,20.09,7.94,20.05Z"/><path class="cls-127" d="M8.76,20.36c0,.09-.11.16-.2.22a1.06,1.06,0,0,1-.64.16c-.13-.06-.15-.28-.13-.47s.09-.41.2-.44a1,1,0,0,1,.59.26c.07.06.19.17.18.27Zm-.94-.09c0,.17,0,.39.11.43a1,1,0,0,0,.61-.16c.11-.06.18-.13.18-.18h0c0-.06-.05-.15-.17-.24A.86.86,0,0,0,8,19.87C7.92,19.89,7.85,20.07,7.82,20.27Z"/><path class="cls-141" d="M7.81,21.49c.2.06.49.67.38.82s-.77.05-.89-.11S7.63,21.44,7.81,21.49Z"/><path class="cls-142" d="M7.69,21.6c.2.06.56.63.5.71s-.77.05-.89-.11S7.51,21.55,7.69,21.6Z"/><path class="cls-143" d="M7.66,21.64c.2.05.56.56.5.64s-.71,0-.83-.14S7.52,21.6,7.66,21.64Z"/><path class="cls-127" d="M8.2,22.32a.37.37,0,0,1-.28.09.93.93,0,0,1-.63-.2c-.09-.11,0-.31.12-.46s.29-.3.4-.27.3.3.38.52.07.25,0,.32Zm-.76-.55c-.1.13-.19.32-.12.42a1,1,0,0,0,.6.18.34.34,0,0,0,.25-.07h0c0-.05,0-.15,0-.29a.91.91,0,0,0-.35-.5C7.73,21.49,7.57,21.6,7.44,21.77Z"/><path class="cls-74" d="M7,18.25c-.22.05-.36.22-.32.38a.36.36,0,0,0,.45.21c.22-.05.36-.22.33-.38A.37.37,0,0,0,7,18.25Z"/><path class="cls-144" d="M6.66,22.2c-3,.36-3.15,4.15-3,4.41a3.43,3.43,0,0,0,4.05.45c.35-.25.28-1.35.28-1.35,2.29,1.19,3.66-.5,3.38-1.27A5.41,5.41,0,0,0,6.66,22.2Z"/><path class="cls-145" d="M11.36,24.44a5.41,5.41,0,0,0-4.7-2.24,3.06,3.06,0,0,0-1.42.54,4.91,4.91,0,0,0-1.08,3.43c.08.31.13.58.48.73.89.35,2.32.52,3.05-.12S8,24.26,7.4,23.87c.57.23.53,1,.89,1.48s1.76.57,2.68.2A1.15,1.15,0,0,0,11.36,24.44Z"/><path class="cls-146" d="M11.36,24.44a5.41,5.41,0,0,0-4.7-2.24,3.06,3.06,0,0,0-1.42.54,4.91,4.91,0,0,0-1.08,3.43c.08.31.13.58.48.73.89.35,2.32.52,3.05-.12S8,24.26,7.4,23.87c.57.23.53,1,.89,1.48s1.76.57,2.68.2A1.15,1.15,0,0,0,11.36,24.44Z"/><path class="cls-123" d="M5.29,22.71h0a3.27,3.27,0,0,0-1,1,.55.55,0,0,0,.23.29.7.7,0,0,0,.89-.38A.69.69,0,0,0,5.29,22.71Z"/><path class="cls-74" d="M5.29,22.71h0A4.42,4.42,0,0,0,4.51,24a.69.69,0,0,0,.94-.35A.69.69,0,0,0,5.29,22.71Z"/><path class="cls-39" d="M7.18,22.15a4.53,4.53,0,0,0-.52,0A3.12,3.12,0,0,0,4.19,24a4.79,4.79,0,0,0-.56,2.67h0A3.21,3.21,0,0,0,6,27.54a2.92,2.92,0,0,0,1.7-.47c.32-.23.3-1.14.29-1.33a3.24,3.24,0,0,0,1.5.4,2,2,0,0,0,1.68-.82,1,1,0,0,0,.2-.89A5.63,5.63,0,0,0,7.18,22.15Zm4,3.15a2,2,0,0,1-1.65.8A3.3,3.3,0,0,1,8,25.69l0,0v0S8,26.8,7.69,27A2.92,2.92,0,0,1,6,27.51a3.21,3.21,0,0,1-2.35-.91A4.92,4.92,0,0,1,4.22,24a3.1,3.1,0,0,1,2.44-1.75,4.53,4.53,0,0,1,.52,0,5,5,0,0,1,3,1.08,5,5,0,0,1,1.17,1.18A1,1,0,0,1,11.15,25.3Z"/><path class="cls-147" d="M10.63,25.71a5.08,5.08,0,0,0-1.16.83c-.15.19-.12.48.27.44a1.88,1.88,0,0,0,1-.89h0a.84.84,0,0,1-.14-.39Z"/><path class="cls-148" d="M12.08,25h0a1.74,1.74,0,0,0-1.44.74.84.84,0,0,0,.14.39,4,4,0,0,0,1.69-.65A.85.85,0,0,1,12.08,25Z"/><path class="cls-149" d="M13.87,24.2a.81.81,0,0,1-.33-.25h0a2,2,0,0,0-1.45,1,.85.85,0,0,0,.39.48h0A2.23,2.23,0,0,0,13.87,24.2Z"/><path class="cls-150" d="M14.89,20.28c-.15.31.39,1.17.28,1.64a3.79,3.79,0,0,0-1.63,2,.81.81,0,0,0,.33.25v0A3.46,3.46,0,0,0,15.26,22l.51-.69A3.6,3.6,0,0,0,14.89,20.28Z"/><path class="cls-151" d="M14.89,20.28c-.14.29.43,1.16.39,1.65.16-.22.33-.44.49-.67A3.6,3.6,0,0,0,14.89,20.28Z"/><path class="cls-151" d="M15.24,22l0,0a.22.22,0,0,0,0-.08l0,0Z"/><path class="cls-152" d="M15.24,22h0l0,0h0l0,0,0,0,0,0,0,0,0,0,0,0,0,0,0,0,0,0,0,0,0,0,0,0,0,0,0,0,0,0,0,0,0,0,0,0,0,0,0,0,0,0,0,0,0,.05,0,0,0,0,0,0,0,0,0,0,0,0,0,0,0,.05,0,0,0,0,0,0,0,.05v0l-.05.05v0l0,0,0,0,0,0,0,0,0,0,0,0,0,.05v0l0,0v0l0,.05v0l0,0v0l0,0v0l0,0v0s0,0,0,0v0a.06.06,0,0,0,0,0h0v0a.58.58,0,0,0,.26.18v0A3.4,3.4,0,0,0,15.24,22Z"/><path class="cls-153" d="M15.24,22h0l0,0h0l0,0,0,0,0,0,0,0,0,0,0,0,0,0,0,0,0,0,0,0,0,0,0,0,0,0,0,0,0,0,0,0,0,0,0,0,0,0,0,0,0,0,0,0,0,.05,0,0,0,0,0,0,0,0,0,0,0,0,0,0,0,.05,0,0,0,0,0,0,0,.05v0l-.05.05v0l0,0,0,0,0,0,0,0,0,0,0,0,0,.05v0l0,0v0l0,.05v0l0,0v0l0,0v0l0,0v0s0,0,0,0v0a.06.06,0,0,0,0,0h0v0a.58.58,0,0,0,.26.18v0A3.4,3.4,0,0,0,15.24,22Z"/><path class="cls-154" d="M9.6,26.58c-.14.16-.27.36,0,.39a.52.52,0,0,0,.19,0,1.88,1.88,0,0,0,1-.89h0a.66.66,0,0,1-.11-.24A3.7,3.7,0,0,0,9.6,26.58Z"/><path class="cls-155" d="M9.6,26.58c-.14.16-.27.36,0,.39a.52.52,0,0,0,.19,0,1.88,1.88,0,0,0,1-.89h0a.66.66,0,0,1-.11-.24A3.7,3.7,0,0,0,9.6,26.58Z"/><path class="cls-156" d="M12.16,25.13v0a1.57,1.57,0,0,0-1.48.7h0a.66.66,0,0,0,.11.24,4,4,0,0,0,1.69-.65A.84.84,0,0,1,12.16,25.13Z"/><path class="cls-157" d="M12.16,25.13v0a1.57,1.57,0,0,0-1.48.7h0a.66.66,0,0,0,.11.24,4,4,0,0,0,1.69-.65A.84.84,0,0,1,12.16,25.13Z"/><path class="cls-158" d="M13.87,24.2a.58.58,0,0,1-.26-.18h0a2.31,2.31,0,0,0-1.45,1.1.84.84,0,0,0,.31.31h0A2.23,2.23,0,0,0,13.87,24.2Z"/><path class="cls-159" d="M13.87,24.2a.58.58,0,0,1-.26-.18h0a2.31,2.31,0,0,0-1.45,1.1.84.84,0,0,0,.31.31h0A2.23,2.23,0,0,0,13.87,24.2Z"/><path class="cls-118" d="M14.89,20.28c-.14.29.43,1.16.39,1.65.16-.22.33-.44.49-.67A3.6,3.6,0,0,0,14.89,20.28Z"/><path class="cls-118" d="M15.24,22l0,0a.22.22,0,0,0,0-.08l0,0A.19.19,0,0,1,15.24,22Z"/><path class="cls-35" d="M14.9,20.26h0v0c-.08.16,0,.45.12.77a2,2,0,0,1,.16.87,3.94,3.94,0,0,0-1.63,2,2.1,2.1,0,0,0-1.45,1,1.78,1.78,0,0,0-1.46.76,4.76,4.76,0,0,0-1.15.83.27.27,0,0,0,.22.48h.06a1.85,1.85,0,0,0,1-.89h0a4.23,4.23,0,0,0,1.69-.65,2.28,2.28,0,0,0,1.4-1.26A3.53,3.53,0,0,0,15.28,22l.18-.24.32-.45h0A3.43,3.43,0,0,0,14.9,20.26Zm.52,1.44-.17.24h0a3.44,3.44,0,0,1-1.37,2.21h0a2.23,2.23,0,0,1-1.39,1.24h0a3.81,3.81,0,0,1-1.66.65h-.05a1.83,1.83,0,0,1-1,.88.3.3,0,0,1-.32-.12.28.28,0,0,1,.07-.29,4.85,4.85,0,0,1,1.15-.82h0A1.74,1.74,0,0,1,12.08,25h0a2,2,0,0,1,1.44-1h0v0a3.86,3.86,0,0,1,1.63-2h0A2.12,2.12,0,0,0,15,21a1.39,1.39,0,0,1-.13-.71,3.42,3.42,0,0,1,.84,1C15.64,21.41,15.53,21.56,15.42,21.7Z"/><path class="cls-35" d="M10.61,25.71a.75.75,0,0,0,.14.39l0,0a.74.74,0,0,1-.14-.37Z"/><path class="cls-35" d="M12.1,25h0a.79.79,0,0,0,.41.5v0A.74.74,0,0,1,12.1,25Z"/><path class="cls-35" d="M13.55,23.94l0,0a.62.62,0,0,0,.35.24v0A.55.55,0,0,1,13.55,23.94Z"/><path class="cls-39" d="M7.49,23.94A3.06,3.06,0,0,1,8,25.71H8C8,24.36,7.49,23.94,7.49,23.94Z"/><path class="cls-74" d="M6.65,22.56A.51.51,0,0,0,6,22.8a.5.5,0,0,0,.16.69.49.49,0,0,0,.66-.24A.49.49,0,0,0,6.65,22.56Z"/><path class="cls-160" d="M6.52,22.28A5,5,0,0,1,11,24.2c.38.53-.75.85-1.56,0a4.44,4.44,0,0,0-2.65-1.29C5.83,22.86,5.64,22.46,6.52,22.28Z"/><path class="cls-74" d="M6,23.93a.4.4,0,0,0-.42.67A.41.41,0,0,0,6,23.93Z"/><path class="cls-74" d="M5,24.45a.43.43,0,0,0-.46.72A.39.39,0,0,0,5.1,25,.4.4,0,0,0,5,24.45Z"/><path class="cls-161" d="M5.38,27.4c0,.26-.66.76-.87.66s-.25-.89-.1-1.07S5.4,27.18,5.38,27.4Z"/><path class="cls-162" d="M5.23,27.29c0,.25-.61.82-.72.77s-.25-.89-.1-1.07S5.24,27.07,5.23,27.29Z"/><path class="cls-163" d="M5.18,27.26c0,.26-.54.82-.65.77s-.2-.85,0-1S5.19,27.09,5.18,27.26Z"/><path class="cls-127" d="M4.49,28.08c-.09,0-.14-.19-.16-.31A1.14,1.14,0,0,1,4.4,27c.11-.13.37-.07.58,0s.43.27.42.41-.28.43-.52.58-.28.14-.38.09ZM5,27c-.18-.08-.43-.15-.53,0a1.18,1.18,0,0,0-.06.76c0,.15.08.25.14.28v0c.07,0,.19,0,.34-.09s.5-.4.51-.55S5.19,27.15,5,27Z"/><path class="cls-164" d="M7.05,27.27c.11.23-.2,1-.43,1S6,27.63,6,27.39,7,27.07,7.05,27.27Z"/><path class="cls-165" d="M6.86,27.25a1.4,1.4,0,0,1-.24,1c-.23,0-.66-.65-.62-.89S6.76,27.05,6.86,27.25Z"/><path class="cls-166" d="M6.8,27.25c.11.23,0,1-.18,1s-.59-.64-.54-.87S6.73,27.1,6.8,27.25Z"/><path class="cls-127" d="M6.62,28.3c-.1,0-.22-.09-.3-.18A1.2,1.2,0,0,1,6,27.39c0-.17.29-.25.53-.27s.5,0,.56.14A1.08,1.08,0,0,1,6.9,28c-.05.1-.16.26-.28.27Zm-.11-1.13c-.21,0-.45.09-.48.23a1.13,1.13,0,0,0,.32.69.44.44,0,0,0,.27.17v0c.07,0,.16-.1.24-.25A1,1,0,0,0,7,27.28C7,27.2,6.76,27.15,6.51,27.17Z"/><path class="cls-167" d="M4.18,27c-.08.22-.79.46-.94.31s0-.83.24-.94S4.26,26.77,4.18,27Z"/><path class="cls-168" d="M4.08,26.82c-.08.21-.76.53-.84.45s0-.83.24-.94S4.16,26.63,4.08,26.82Z"/><path class="cls-169" d="M4.05,26.78c-.09.22-.69.55-.78.47s.08-.78.27-.89S4.11,26.64,4.05,26.78Z"/><path class="cls-127" d="M3.23,27.29A.43.43,0,0,1,3.17,27a1,1,0,0,1,.3-.66c.13-.08.34.05.49.19s.29.36.24.47-.36.29-.62.35c-.1,0-.28,0-.35,0Zm.7-.76c-.13-.13-.33-.25-.44-.19a1.12,1.12,0,0,0-.28.64.42.42,0,0,0,0,.28h0a.41.41,0,0,0,.31,0,1.09,1.09,0,0,0,.6-.32C4.2,26.88,4.1,26.69,3.93,26.53Z"/><path class="cls-170" d="M15.1,19.7c-.8-.16-1.58,1.17,0,3.66a.54.54,0,0,0,0,.37s-.64,2.45.52,3a2.43,2.43,0,0,0,3.15-.67C19.18,25.26,17.33,20.14,15.1,19.7Z"/><path class="cls-171" d="M15.1,19.7a.59.59,0,0,0-.5.11c-.68.39-.21,2.31,1.09,3.17-.29.2-.29.32.12.33,0,0-.56,2.72.56,3.35a2,2,0,0,0,2.41-.6C19.18,25.26,17.33,20.11,15.1,19.7Z"/><path class="cls-172" d="M15.1,19.7a.59.59,0,0,0-.5.11c-.68.39-.09,2.28,1.21,3.14-.28.2-.28.34.13.35,0,0-.65,2.62.47,3.26a1.9,1.9,0,0,0,2.37-.5C19.18,25.26,17.33,20.11,15.1,19.7Z"/><path class="cls-74" d="M16.31,20.39a.53.53,0,0,0-.12,0,.55.55,0,0,0-.22.74.55.55,0,0,0,.67.37.48.48,0,0,0,.27-.47A5.59,5.59,0,0,0,16.31,20.39Z"/><path class="cls-74" d="M17.47,22.61a.54.54,0,0,0-.21.73.55.55,0,0,0,.67.38.45.45,0,0,0,.26-.39q-.14-.33-.3-.66A.43.43,0,0,0,17.47,22.61Z"/><path class="cls-39" d="M15.11,19.68H15a.72.72,0,0,0-.63.42c-.15.26-.53,1.27.71,3.27a.7.7,0,0,0,0,.37c0,.15-.6,2.48.53,3A3,3,0,0,0,16.9,27h0a2.13,2.13,0,0,0,1.9-1c.21-.43-.2-2-.89-3.41C17.07,21,16.05,19.87,15.11,19.68Zm3.65,6.37A2.07,2.07,0,0,1,16.9,27h0a3,3,0,0,1-1.26-.28c-1.14-.55-.51-3-.51-3h0a.55.55,0,0,1,0-.35h0c-1.24-2-.86-3-.72-3.24a.69.69,0,0,1,.6-.4h.13c.93.19,1.94,1.26,2.77,3C18.56,24.09,19,25.63,18.76,26.05Z"/><path class="cls-39" d="M15.1,23.72l0,0a1.34,1.34,0,0,1,.74-.44A1.12,1.12,0,0,0,15.1,23.72Z"/><path class="cls-39" d="M15.06,23.35l0,0a.76.76,0,0,1,.6-.39A.75.75,0,0,0,15.06,23.35Z"/><path class="cls-173" d="M17.77,26.67c.12.19-.09.9-.29.94s-.65-.52-.63-.74S17.66,26.49,17.77,26.67Z"/><path class="cls-174" d="M17.6,26.67a1.24,1.24,0,0,1-.12.94c-.21,0-.65-.52-.63-.74S17.49,26.49,17.6,26.67Z"/><path class="cls-175" d="M17.55,26.67c.12.2,0,.87-.07.9s-.59-.51-.57-.73S17.47,26.54,17.55,26.67Z"/><path class="cls-127" d="M17.48,27.63a.47.47,0,0,1-.29-.14,1.07,1.07,0,0,1-.36-.62c0-.15.24-.25.44-.29s.46,0,.52.08a1,1,0,0,1-.08.7c0,.09-.12.25-.23.27Zm-.2-1c-.18,0-.4.12-.41.25a1.07,1.07,0,0,0,.35.59.39.39,0,0,0,.25.13v0c.07,0,.14-.11.2-.25s.16-.55.08-.66S17.5,26.58,17.28,26.62Z"/><path class="cls-176" d="M18.85,25.79c.22.05.56.71.44.88s-.83.07-1-.1S18.65,25.74,18.85,25.79Z"/><path class="cls-177" d="M18.72,25.91c.22.05.63.67.57.76s-.83.07-1-.1S18.53,25.86,18.72,25.91Z"/><path class="cls-178" d="M18.69,26c.22.05.63.6.57.69s-.78,0-.91-.13S18.54,25.91,18.69,26Z"/><path class="cls-127" d="M19.3,26.68c-.05.08-.19.1-.3.1a1,1,0,0,1-.69-.19c-.1-.12,0-.35.12-.52s.31-.33.42-.3.34.32.43.56.09.26,0,.35Zm-.84-.58c-.1.15-.2.36-.12.46a1.06,1.06,0,0,0,.66.18c.14,0,.24,0,.27-.08h0c0-.06,0-.17,0-.32s-.26-.5-.4-.53S18.6,25.91,18.46,26.1Z"/><path class="cls-179" d="M16.07,26.67c0,.23-.6.67-.79.58s-.22-.8-.07-1S16.09,26.47,16.07,26.67Z"/><path class="cls-180" d="M15.93,26.57c0,.22-.55.73-.65.68s-.22-.8-.07-1S16,26.36,15.93,26.57Z"/><path class="cls-181" d="M15.89,26.54c0,.23-.49.72-.59.68s-.17-.76,0-.92S15.9,26.39,15.89,26.54Z"/><path class="cls-127" d="M15.27,27.27c-.09,0-.13-.18-.15-.28a1.09,1.09,0,0,1,.07-.72c.1-.11.34-.06.53,0s.38.24.37.36-.26.39-.48.52-.25.13-.34.08Zm.43-.93c-.17-.08-.39-.14-.48,0a1.07,1.07,0,0,0-.06.68c0,.13.07.23.13.25v0c.05,0,.17,0,.3-.08s.45-.35.46-.48S15.9,26.44,15.7,26.34Z"/><path class="cls-74" d="M16.84,21.76c-.18,0-.3.23-.27.47s.19.41.37.39.29-.23.26-.47S17,21.74,16.84,21.76Z"/><path class="cls-74" d="M15.9,21.77a.24.24,0,0,0-.07.32.2.2,0,1,0,.35-.16C16.12,21.8,16,21.73,15.9,21.77Z"/><path class="cls-182" d="M15.59,20c1.83,1,3,4.16,3.1,5.17s-1.59,1.16-1.86-.08-.2-3.06-1.34-4.48C15.05,20,15,19.65,15.59,20Z"/></g></g></g></g></g></svg>