<svg xmlns="http://www.w3.org/2000/svg" xmlns:xlink="http://www.w3.org/1999/xlink" viewBox="0 0 36.55 22.01"><defs><style>.cls-1{isolation:isolate;}.cls-2{fill:url(#radial-gradient);}.cls-3{fill:url(#radial-gradient-2);}.cls-10,.cls-100,.cls-101,.cls-104,.cls-107,.cls-110,.cls-123,.cls-125,.cls-127,.cls-129,.cls-131,.cls-133,.cls-135,.cls-137,.cls-139,.cls-14,.cls-141,.cls-143,.cls-147,.cls-148,.cls-149,.cls-150,.cls-152,.cls-153,.cls-158,.cls-159,.cls-162,.cls-163,.cls-168,.cls-173,.cls-175,.cls-176,.cls-178,.cls-179,.cls-20,.cls-22,.cls-24,.cls-26,.cls-32,.cls-34,.cls-36,.cls-38,.cls-4,.cls-45,.cls-47,.cls-49,.cls-5,.cls-51,.cls-56,.cls-57,.cls-60,.cls-63,.cls-66,.cls-69,.cls-83,.cls-86,.cls-87,.cls-91,.cls-94,.cls-97{mix-blend-mode:screen;}.cls-4{fill:url(#radial-gradient-3);}.cls-5{fill:url(#linear-gradient);}.cls-6{fill:#296b20;}.cls-7{fill:#244d16;}.cls-8{fill:url(#radial-gradient-4);}.cls-9{fill:url(#radial-gradient-5);}.cls-10{fill:url(#linear-gradient-2);}.cls-11{fill:#d0a074;}.cls-12{fill:url(#radial-gradient-6);}.cls-13{fill:url(#radial-gradient-7);}.cls-14{fill:url(#linear-gradient-3);}.cls-15{fill:url(#radial-gradient-8);}.cls-16{fill:url(#radial-gradient-9);}.cls-17{fill:url(#radial-gradient-10);}.cls-18{fill:url(#radial-gradient-11);}.cls-19{fill:url(#radial-gradient-12);}.cls-20{fill:url(#radial-gradient-13);}.cls-21{fill:url(#radial-gradient-14);}.cls-22{fill:url(#radial-gradient-15);}.cls-23{fill:url(#radial-gradient-16);}.cls-24{fill:url(#radial-gradient-17);}.cls-25{fill:url(#radial-gradient-18);}.cls-26{fill:url(#radial-gradient-19);}.cls-27{fill:url(#radial-gradient-20);}.cls-28{fill:url(#radial-gradient-21);}.cls-29{fill:url(#radial-gradient-22);}.cls-30{fill:url(#radial-gradient-23);}.cls-31{fill:url(#radial-gradient-24);}.cls-32{fill:url(#radial-gradient-25);}.cls-33{fill:url(#radial-gradient-26);}.cls-34{fill:url(#radial-gradient-27);}.cls-35{fill:url(#radial-gradient-28);}.cls-36{fill:url(#radial-gradient-29);}.cls-37{fill:url(#radial-gradient-30);}.cls-38{fill:url(#radial-gradient-31);}.cls-39{fill:#3d180f;}.cls-40{fill:url(#radial-gradient-32);}.cls-41{fill:url(#radial-gradient-33);}.cls-42{fill:url(#radial-gradient-34);}.cls-43{fill:url(#radial-gradient-35);}.cls-44{fill:url(#radial-gradient-36);}.cls-45{fill:url(#radial-gradient-37);}.cls-46{fill:url(#radial-gradient-38);}.cls-47{fill:url(#radial-gradient-39);}.cls-48{fill:url(#radial-gradient-40);}.cls-49{fill:url(#radial-gradient-41);}.cls-50{fill:url(#radial-gradient-42);}.cls-51{fill:url(#radial-gradient-43);}.cls-52{fill:#4c1f11;}.cls-53{fill:#200908;}.cls-54{fill:url(#radial-gradient-44);}.cls-55{fill:url(#radial-gradient-45);}.cls-56{fill:url(#radial-gradient-46);}.cls-57{fill:url(#linear-gradient-4);}.cls-58{fill:url(#radial-gradient-47);}.cls-59{fill:url(#radial-gradient-48);}.cls-60{fill:url(#linear-gradient-5);}.cls-61{fill:url(#radial-gradient-49);}.cls-62{fill:url(#radial-gradient-50);}.cls-63{fill:url(#linear-gradient-6);}.cls-64{fill:url(#radial-gradient-51);}.cls-65{fill:url(#radial-gradient-52);}.cls-66{fill:url(#linear-gradient-7);}.cls-67{fill:url(#radial-gradient-53);}.cls-68{fill:url(#radial-gradient-54);}.cls-69{fill:url(#radial-gradient-55);}.cls-70{fill:url(#radial-gradient-56);}.cls-71{fill:url(#radial-gradient-57);}.cls-72{fill:url(#radial-gradient-58);}.cls-73{fill:url(#radial-gradient-59);}.cls-74{fill:url(#radial-gradient-60);}.cls-75{fill:url(#radial-gradient-61);}.cls-76{fill:url(#radial-gradient-62);}.cls-77{fill:url(#radial-gradient-63);}.cls-78{fill:url(#radial-gradient-64);}.cls-79{fill:url(#radial-gradient-65);}.cls-80{fill:#965e11;}.cls-81{fill:url(#radial-gradient-66);}.cls-82{fill:url(#radial-gradient-67);}.cls-83{fill:url(#radial-gradient-68);}.cls-84{fill:url(#radial-gradient-69);}.cls-85{fill:url(#radial-gradient-70);}.cls-86{fill:url(#radial-gradient-71);}.cls-87{fill:url(#linear-gradient-8);}.cls-88{fill:#28691f;}.cls-89{fill:url(#radial-gradient-72);}.cls-90{fill:url(#radial-gradient-73);}.cls-91{fill:url(#linear-gradient-9);}.cls-92{fill:url(#radial-gradient-74);}.cls-93{fill:url(#radial-gradient-75);}.cls-94{fill:url(#linear-gradient-10);}.cls-95{fill:url(#radial-gradient-76);}.cls-96{fill:url(#radial-gradient-77);}.cls-97{fill:url(#linear-gradient-11);}.cls-98{fill:url(#radial-gradient-78);}.cls-99{fill:url(#radial-gradient-79);}.cls-100{fill:url(#radial-gradient-80);}.cls-101{fill:url(#linear-gradient-12);}.cls-102{fill:url(#radial-gradient-81);}.cls-103{fill:url(#radial-gradient-82);}.cls-104{fill:url(#linear-gradient-13);}.cls-105{fill:url(#radial-gradient-83);}.cls-106{fill:url(#radial-gradient-84);}.cls-107{fill:url(#linear-gradient-14);}.cls-108{fill:url(#radial-gradient-85);}.cls-109{fill:url(#radial-gradient-86);}.cls-110{fill:url(#linear-gradient-15);}.cls-111{fill:url(#radial-gradient-87);}.cls-112{fill:url(#radial-gradient-88);}.cls-113{fill:url(#radial-gradient-89);}.cls-114{fill:url(#radial-gradient-90);}.cls-115{fill:url(#radial-gradient-91);}.cls-116{fill:url(#radial-gradient-92);}.cls-117{fill:url(#radial-gradient-93);}.cls-118{fill:url(#radial-gradient-94);}.cls-119{fill:url(#radial-gradient-95);}.cls-120{fill:url(#radial-gradient-96);}.cls-121{fill:url(#radial-gradient-97);}.cls-122{fill:url(#radial-gradient-98);}.cls-123{fill:url(#radial-gradient-99);}.cls-124{fill:url(#radial-gradient-100);}.cls-125{fill:url(#radial-gradient-101);}.cls-126{fill:url(#radial-gradient-102);}.cls-127{fill:url(#radial-gradient-103);}.cls-128{fill:url(#radial-gradient-104);}.cls-129{fill:url(#radial-gradient-105);}.cls-130{fill:url(#radial-gradient-106);}.cls-131{fill:url(#radial-gradient-107);}.cls-132{fill:url(#radial-gradient-108);}.cls-133{fill:url(#radial-gradient-109);}.cls-134{fill:url(#radial-gradient-110);}.cls-135{fill:url(#radial-gradient-111);}.cls-136{fill:url(#radial-gradient-112);}.cls-137{fill:url(#radial-gradient-113);}.cls-138{fill:url(#radial-gradient-114);}.cls-139{fill:url(#radial-gradient-115);}.cls-140{fill:url(#radial-gradient-116);}.cls-141{fill:url(#radial-gradient-117);}.cls-142{fill:url(#radial-gradient-118);}.cls-143{fill:url(#radial-gradient-119);}.cls-144{fill:#863609;}.cls-145{fill:url(#radial-gradient-120);}.cls-146{fill:url(#radial-gradient-121);}.cls-147{fill:url(#radial-gradient-122);}.cls-148{fill:url(#linear-gradient-16);}.cls-149{fill:url(#radial-gradient-123);}.cls-150{opacity:0.7;fill:url(#linear-gradient-17);}.cls-151{fill:url(#radial-gradient-124);}.cls-152{fill:url(#radial-gradient-125);}.cls-153{fill:url(#linear-gradient-18);}.cls-154{fill:url(#radial-gradient-126);}.cls-155{fill:url(#radial-gradient-127);}.cls-156{fill:url(#linear-gradient-19);}.cls-157{fill:url(#linear-gradient-20);}.cls-158{fill:url(#radial-gradient-128);}.cls-159{fill:url(#radial-gradient-129);}.cls-160{fill:#df4a4b;}.cls-161{fill:url(#radial-gradient-130);}.cls-162{fill:url(#radial-gradient-131);}.cls-163{fill:url(#linear-gradient-21);}.cls-164{fill:#afdc53;}.cls-165{fill:#14511b;}.cls-166{fill:#307a22;}.cls-167{fill:#154316;}.cls-168{fill:url(#linear-gradient-22);}.cls-169{fill:#1f5319;}.cls-170{mix-blend-mode:multiply;fill:url(#radial-gradient-132);}.cls-171{fill:#fff;}.cls-172{fill:url(#radial-gradient-133);}.cls-173{opacity:0.6;fill:url(#radial-gradient-134);}.cls-174{fill:url(#radial-gradient-135);}.cls-175{opacity:0.5;fill:url(#radial-gradient-136);}.cls-176{fill:url(#linear-gradient-23);}.cls-177{fill:url(#radial-gradient-137);}.cls-178{fill:url(#radial-gradient-138);}.cls-179{fill:url(#linear-gradient-24);}</style><radialGradient id="radial-gradient" cx="19.38" cy="16.98" r="5.89" gradientUnits="userSpaceOnUse"><stop offset="0" stop-color="#48a528"/><stop offset="0.54" stop-color="#3b8f25"/><stop offset="1" stop-color="#2e7922"/></radialGradient><radialGradient id="radial-gradient-2" cx="19.38" cy="16.98" r="5.89" gradientUnits="userSpaceOnUse"><stop offset="0" stop-color="#5bb224"/><stop offset="0.88" stop-color="#459e26"/><stop offset="1" stop-color="#429b26"/></radialGradient><radialGradient id="radial-gradient-3" cx="18.52" cy="17.53" r="4.58" gradientUnits="userSpaceOnUse"><stop offset="0" stop-color="#91ca1f"/><stop offset="0.05" stop-color="#86bb1d"/><stop offset="0.34" stop-color="#4d6c11"/><stop offset="0.57" stop-color="#243208"/><stop offset="0.74" stop-color="#0a0e02"/><stop offset="0.83"/><stop offset="1"/></radialGradient><linearGradient id="linear-gradient" x1="60.35" y1="18.29" x2="60.45" y2="19.88" gradientTransform="translate(-43.95 16.09) rotate(-15.04)" gradientUnits="userSpaceOnUse"><stop offset="0" stop-color="#9bcf82"/><stop offset="0.29" stop-color="#5d7c4e"/><stop offset="0.55" stop-color="#2b3924"/><stop offset="0.74" stop-color="#0c100a"/><stop offset="0.83"/><stop offset="1"/></linearGradient><radialGradient id="radial-gradient-4" cx="58.9" cy="-502.46" r="1.02" gradientTransform="matrix(0.69, 0.72, -0.72, 0.69, -385.17, 326.61)" gradientUnits="userSpaceOnUse"><stop offset="0" stop-color="#f2e6d5"/><stop offset="1" stop-color="#e4c097"/></radialGradient><radialGradient id="radial-gradient-5" cx="58.9" cy="-502.46" r="1.02" gradientTransform="matrix(0.69, 0.72, -0.72, 0.69, -385.17, 326.61)" gradientUnits="userSpaceOnUse"><stop offset="0" stop-color="#f4ede0"/><stop offset="0.36" stop-color="#f0e2cd"/><stop offset="1" stop-color="#e6c7a2"/></radialGradient><linearGradient id="linear-gradient-2" x1="58.89" y1="-502.35" x2="59.66" y2="-502.35" gradientTransform="matrix(0.69, 0.72, -0.72, 0.69, -385.17, 326.61)" gradientUnits="userSpaceOnUse"><stop offset="0" stop-color="#fff"/><stop offset="0.1" stop-color="#e5e5e5"/><stop offset="0.33" stop-color="#a3a3a3"/><stop offset="0.65" stop-color="#3a3a3a"/><stop offset="0.82"/><stop offset="1"/></linearGradient><radialGradient id="radial-gradient-6" cx="-4.99" cy="-393.04" r="0.94" gradientTransform="translate(-375.88 7.95) rotate(92.3)" xlink:href="#radial-gradient-4"/><radialGradient id="radial-gradient-7" cx="-4.99" cy="-393.04" r="0.94" gradientTransform="translate(-375.88 7.95) rotate(92.3)" xlink:href="#radial-gradient-5"/><linearGradient id="linear-gradient-3" x1="-5" y1="-392.94" x2="-4.29" y2="-392.94" gradientTransform="translate(-375.88 7.95) rotate(92.3)" xlink:href="#linear-gradient-2"/><radialGradient id="radial-gradient-8" cx="16.93" cy="6.24" r="1.83" gradientUnits="userSpaceOnUse"><stop offset="0" stop-color="#701709"/><stop offset="1" stop-color="#260707"/></radialGradient><radialGradient id="radial-gradient-9" cx="19.43" cy="6.28" r="2.29" xlink:href="#radial-gradient-8"/><radialGradient id="radial-gradient-10" cx="22.54" cy="6.61" r="2.14" xlink:href="#radial-gradient-8"/><radialGradient id="radial-gradient-11" cx="24.69" cy="7.16" r="1.25" xlink:href="#radial-gradient-8"/><radialGradient id="radial-gradient-12" cx="24.48" cy="7.03" r="0.86" gradientUnits="userSpaceOnUse"><stop offset="0" stop-color="#74300b"/><stop offset="1" stop-color="#491b07"/></radialGradient><radialGradient id="radial-gradient-13" cx="24.48" cy="7.03" r="0.86" gradientUnits="userSpaceOnUse"><stop offset="0" stop-color="#602a0c"/><stop offset="0.77"/><stop offset="1"/></radialGradient><radialGradient id="radial-gradient-14" cx="22.23" cy="6.37" r="1.69" xlink:href="#radial-gradient-12"/><radialGradient id="radial-gradient-15" cx="22.23" cy="6.37" r="1.69" xlink:href="#radial-gradient-13"/><radialGradient id="radial-gradient-16" cx="16.95" cy="6.19" r="1.63" xlink:href="#radial-gradient-12"/><radialGradient id="radial-gradient-17" cx="16.95" cy="6.19" r="1.63" xlink:href="#radial-gradient-13"/><radialGradient id="radial-gradient-18" cx="19.27" cy="6.27" r="1.57" xlink:href="#radial-gradient-12"/><radialGradient id="radial-gradient-19" cx="19.27" cy="6.27" r="1.57" xlink:href="#radial-gradient-13"/><radialGradient id="radial-gradient-20" cx="15.67" cy="7.76" r="2.93" xlink:href="#radial-gradient-8"/><radialGradient id="radial-gradient-21" cx="19.08" cy="7.88" r="3.42" xlink:href="#radial-gradient-8"/><radialGradient id="radial-gradient-22" cx="23.17" cy="8.38" r="2.88" xlink:href="#radial-gradient-8"/><radialGradient id="radial-gradient-23" cx="26.02" cy="8.83" r="2.18" xlink:href="#radial-gradient-8"/><radialGradient id="radial-gradient-24" cx="25.48" cy="8.5" r="1.42" xlink:href="#radial-gradient-12"/><radialGradient id="radial-gradient-25" cx="25.48" cy="8.5" r="1.42" xlink:href="#radial-gradient-13"/><radialGradient id="radial-gradient-26" cx="22.85" cy="8.3" r="1.8" xlink:href="#radial-gradient-12"/><radialGradient id="radial-gradient-27" cx="22.85" cy="8.3" r="1.8" xlink:href="#radial-gradient-13"/><radialGradient id="radial-gradient-28" cx="19.05" cy="8.06" r="2" xlink:href="#radial-gradient-12"/><radialGradient id="radial-gradient-29" cx="19.05" cy="8.06" r="2" xlink:href="#radial-gradient-13"/><radialGradient id="radial-gradient-30" cx="15.77" cy="7.51" r="1.74" xlink:href="#radial-gradient-12"/><radialGradient id="radial-gradient-31" cx="15.77" cy="7.51" r="1.74" xlink:href="#radial-gradient-13"/><radialGradient id="radial-gradient-32" cx="18.45" cy="11.84" r="4.17" xlink:href="#radial-gradient-8"/><radialGradient id="radial-gradient-33" cx="23.74" cy="12.5" r="3.82" xlink:href="#radial-gradient-8"/><radialGradient id="radial-gradient-34" cx="27.02" cy="11.76" r="2.73" xlink:href="#radial-gradient-8"/><radialGradient id="radial-gradient-35" cx="14.09" cy="10.33" r="3.4" xlink:href="#radial-gradient-8"/><radialGradient id="radial-gradient-36" cx="26.58" cy="11.2" r="1.39" xlink:href="#radial-gradient-12"/><radialGradient id="radial-gradient-37" cx="26.58" cy="11.2" r="1.39" xlink:href="#radial-gradient-13"/><radialGradient id="radial-gradient-38" cx="23.33" cy="11.37" r="2.46" xlink:href="#radial-gradient-12"/><radialGradient id="radial-gradient-39" cx="23.33" cy="11.37" r="2.46" xlink:href="#radial-gradient-13"/><radialGradient id="radial-gradient-40" cx="18.67" cy="11.63" r="2.47" xlink:href="#radial-gradient-12"/><radialGradient id="radial-gradient-41" cx="18.67" cy="11.63" r="2.47" xlink:href="#radial-gradient-13"/><radialGradient id="radial-gradient-42" cx="14.28" cy="9.81" r="2.11" xlink:href="#radial-gradient-12"/><radialGradient id="radial-gradient-43" cx="14.28" cy="9.81" r="2.11" xlink:href="#radial-gradient-13"/><radialGradient id="radial-gradient-44" cx="10.03" cy="18.68" r="5.89" xlink:href="#radial-gradient"/><radialGradient id="radial-gradient-45" cx="10.03" cy="18.68" r="5.89" xlink:href="#radial-gradient-2"/><radialGradient id="radial-gradient-46" cx="10.03" cy="19.15" r="4.85" xlink:href="#radial-gradient-3"/><linearGradient id="linear-gradient-4" x1="11.07" y1="18.87" x2="12.42" y2="18.26" gradientTransform="matrix(1, 0, 0, 1, 0, 0)" xlink:href="#linear-gradient"/><radialGradient id="radial-gradient-47" cx="230.76" cy="-509.24" r="1.02" gradientTransform="matrix(0.96, -0.27, 0.27, 0.96, -70.3, 574.23)" xlink:href="#radial-gradient-4"/><radialGradient id="radial-gradient-48" cx="230.76" cy="-509.24" r="1.02" gradientTransform="matrix(0.96, -0.27, 0.27, 0.96, -70.3, 574.23)" xlink:href="#radial-gradient-5"/><linearGradient id="linear-gradient-5" x1="230.75" y1="-509.13" x2="231.52" y2="-509.13" gradientTransform="matrix(0.96, -0.27, 0.27, 0.96, -70.3, 574.23)" xlink:href="#linear-gradient-2"/><radialGradient id="radial-gradient-49" cx="295.81" cy="-445.73" r="1.02" gradientTransform="translate(107.43 547.65) rotate(-43.53)" xlink:href="#radial-gradient-4"/><radialGradient id="radial-gradient-50" cx="295.81" cy="-445.73" r="1.02" gradientTransform="translate(107.43 547.65) rotate(-43.53)" xlink:href="#radial-gradient-5"/><linearGradient id="linear-gradient-6" x1="295.8" y1="-445.62" x2="296.57" y2="-445.62" gradientTransform="translate(107.43 547.65) rotate(-43.53)" xlink:href="#linear-gradient-2"/><radialGradient id="radial-gradient-51" cx="72.9" cy="-577.46" r="0.92" gradientTransform="translate(-326.88 494.29) rotate(28.42)" xlink:href="#radial-gradient-4"/><radialGradient id="radial-gradient-52" cx="72.9" cy="-577.46" r="0.92" gradientTransform="translate(-326.88 494.29) rotate(28.42)" xlink:href="#radial-gradient-5"/><linearGradient id="linear-gradient-7" x1="72.9" y1="-577.36" x2="73.59" y2="-577.36" gradientTransform="translate(-326.88 494.29) rotate(28.42)" xlink:href="#linear-gradient-2"/><radialGradient id="radial-gradient-53" cx="6.48" cy="12.61" r="3.87" xlink:href="#radial-gradient"/><radialGradient id="radial-gradient-54" cx="6.48" cy="12.61" r="3.87" xlink:href="#radial-gradient-2"/><radialGradient id="radial-gradient-55" cx="6.48" cy="12.61" r="3.87" xlink:href="#radial-gradient-3"/><radialGradient id="radial-gradient-56" cx="10.52" cy="13" r="1.96" gradientUnits="userSpaceOnUse"><stop offset="0" stop-color="#f8c950"/><stop offset="1" stop-color="#f8a12a"/></radialGradient><radialGradient id="radial-gradient-57" cx="16.3" cy="16.95" r="1.62" xlink:href="#radial-gradient-56"/><radialGradient id="radial-gradient-58" cx="23.57" cy="17.52" r="1.57" xlink:href="#radial-gradient-56"/><radialGradient id="radial-gradient-59" cx="19.88" cy="17.61" r="1.77" xlink:href="#radial-gradient-56"/><radialGradient id="radial-gradient-60" cx="13.65" cy="15.79" r="1.79" xlink:href="#radial-gradient-56"/><radialGradient id="radial-gradient-61" cx="13.65" cy="15.79" r="1.79" gradientUnits="userSpaceOnUse"><stop offset="0" stop-color="#f6e86d"/><stop offset="0.59" stop-color="#f7ce54"/><stop offset="1" stop-color="#f7b941"/></radialGradient><radialGradient id="radial-gradient-62" cx="10.52" cy="13" r="1.96" xlink:href="#radial-gradient-61"/><radialGradient id="radial-gradient-63" cx="16.3" cy="16.95" r="1.62" xlink:href="#radial-gradient-61"/><radialGradient id="radial-gradient-64" cx="19.88" cy="17.61" r="1.77" xlink:href="#radial-gradient-61"/><radialGradient id="radial-gradient-65" cx="23.57" cy="17.52" r="1.57" xlink:href="#radial-gradient-61"/><radialGradient id="radial-gradient-66" cx="29.04" cy="11.33" r="5.05" xlink:href="#radial-gradient"/><radialGradient id="radial-gradient-67" cx="29.04" cy="11.33" r="5.05" xlink:href="#radial-gradient-2"/><radialGradient id="radial-gradient-68" cx="29.42" cy="12.09" r="3.27" xlink:href="#radial-gradient-3"/><radialGradient id="radial-gradient-69" cx="31.74" cy="13.3" r="9.58" xlink:href="#radial-gradient"/><radialGradient id="radial-gradient-70" cx="31.74" cy="13.3" r="9.58" xlink:href="#radial-gradient-2"/><radialGradient id="radial-gradient-71" cx="31.19" cy="13.34" r="7.45" xlink:href="#radial-gradient-3"/><linearGradient id="linear-gradient-8" x1="31.7" y1="14.77" x2="31.87" y2="16.54" gradientTransform="matrix(1, 0, 0, 1, 0, 0)" xlink:href="#linear-gradient"/><radialGradient id="radial-gradient-72" cx="87.14" cy="-877.02" r="1.02" gradientTransform="matrix(0.55, 0.84, 0.84, -0.55, 722.49, -536.24)" xlink:href="#radial-gradient-4"/><radialGradient id="radial-gradient-73" cx="87.14" cy="-877.02" r="1.02" gradientTransform="matrix(0.55, 0.84, 0.84, -0.55, 722.49, -536.24)" xlink:href="#radial-gradient-5"/><linearGradient id="linear-gradient-9" x1="87.14" y1="-876.91" x2="87.91" y2="-876.91" gradientTransform="matrix(0.55, 0.84, 0.84, -0.55, 722.49, -536.24)" xlink:href="#linear-gradient-2"/><radialGradient id="radial-gradient-74" cx="261.04" cy="-1003.4" r="1.02" gradientTransform="matrix(-0.06, 1, 1, 0.06, 1053.59, -180.15)" xlink:href="#radial-gradient-4"/><radialGradient id="radial-gradient-75" cx="261.04" cy="-1003.4" r="1.02" gradientTransform="matrix(-0.06, 1, 1, 0.06, 1053.59, -180.15)" xlink:href="#radial-gradient-5"/><linearGradient id="linear-gradient-10" x1="261.03" y1="-1003.29" x2="261.8" y2="-1003.29" gradientTransform="matrix(-0.06, 1, 1, 0.06, 1053.59, -180.15)" xlink:href="#linear-gradient-2"/><radialGradient id="radial-gradient-76" cx="563.22" cy="-1003.67" r="1.02" gradientTransform="matrix(-0.82, 0.58, 0.58, 0.82, 1075.14, 512.84)" xlink:href="#radial-gradient-4"/><radialGradient id="radial-gradient-77" cx="563.22" cy="-1003.67" r="1.02" gradientTransform="matrix(-0.82, 0.58, 0.58, 0.82, 1075.14, 512.84)" xlink:href="#radial-gradient-5"/><linearGradient id="linear-gradient-11" x1="563.21" y1="-1003.56" x2="563.98" y2="-1003.56" gradientTransform="matrix(-0.82, 0.58, 0.58, 0.82, 1075.14, 512.84)" xlink:href="#linear-gradient-2"/><radialGradient id="radial-gradient-78" cx="7.07" cy="14.91" r="8.37" xlink:href="#radial-gradient"/><radialGradient id="radial-gradient-79" cx="7.07" cy="14.91" r="8.37" xlink:href="#radial-gradient-2"/><radialGradient id="radial-gradient-80" cx="7.02" cy="15.2" r="5.96" xlink:href="#radial-gradient-3"/><linearGradient id="linear-gradient-12" x1="23.8" y1="49.57" x2="25.46" y2="51.44" gradientTransform="translate(-25.67 -29.3) rotate(-11.43)" xlink:href="#linear-gradient"/><radialGradient id="radial-gradient-81" cx="-167.57" cy="-583.97" r="1.02" gradientTransform="matrix(0.23, 0.97, -0.97, 0.23, -525.67, 313.63)" xlink:href="#radial-gradient-4"/><radialGradient id="radial-gradient-82" cx="-167.57" cy="-583.97" r="1.02" gradientTransform="matrix(0.23, 0.97, -0.97, 0.23, -525.67, 313.63)" xlink:href="#radial-gradient-5"/><linearGradient id="linear-gradient-13" x1="-167.57" y1="-583.87" x2="-166.81" y2="-583.87" gradientTransform="matrix(0.23, 0.97, -0.97, 0.23, -525.67, 313.63)" xlink:href="#linear-gradient-2"/><radialGradient id="radial-gradient-83" cx="4.69" cy="-602" r="1.02" gradientTransform="translate(-392.76 470.91) rotate(41)" xlink:href="#radial-gradient-4"/><radialGradient id="radial-gradient-84" cx="4.69" cy="-602" r="1.02" gradientTransform="translate(-392.76 470.91) rotate(41)" xlink:href="#radial-gradient-5"/><linearGradient id="linear-gradient-14" x1="4.68" y1="-601.89" x2="5.45" y2="-601.89" gradientTransform="translate(-392.76 470.91) rotate(41)" xlink:href="#linear-gradient-2"/><radialGradient id="radial-gradient-85" cx="147.91" cy="-548.29" r="1.02" gradientTransform="matrix(0.99, 0.13, -0.13, 0.99, -209.89, 545.32)" xlink:href="#radial-gradient-4"/><radialGradient id="radial-gradient-86" cx="147.91" cy="-548.29" r="1.02" gradientTransform="matrix(0.99, 0.13, -0.13, 0.99, -209.89, 545.32)" xlink:href="#radial-gradient-5"/><linearGradient id="linear-gradient-15" x1="147.9" y1="-548.18" x2="148.67" y2="-548.18" gradientTransform="matrix(0.99, 0.13, -0.13, 0.99, -209.89, 545.32)" xlink:href="#linear-gradient-2"/><radialGradient id="radial-gradient-87" cx="9.77" cy="10.01" r="0.7" gradientUnits="userSpaceOnUse"><stop offset="0" stop-color="#c75b0e"/><stop offset="1" stop-color="#a2440f"/></radialGradient><radialGradient id="radial-gradient-88" cx="13.39" cy="13.54" r="1" xlink:href="#radial-gradient-87"/><radialGradient id="radial-gradient-89" cx="17.12" cy="15.59" r="0.93" xlink:href="#radial-gradient-87"/><radialGradient id="radial-gradient-90" cx="19.51" cy="16.18" r="1" xlink:href="#radial-gradient-87"/><radialGradient id="radial-gradient-91" cx="22.07" cy="16.27" r="1.01" xlink:href="#radial-gradient-87"/><radialGradient id="radial-gradient-92" cx="28.64" cy="13.92" r="0.93" xlink:href="#radial-gradient-87"/><radialGradient id="radial-gradient-93" cx="27.05" cy="15.19" r="0.98" xlink:href="#radial-gradient-87"/><radialGradient id="radial-gradient-94" cx="24.75" cy="16.07" r="1.12" xlink:href="#radial-gradient-87"/><radialGradient id="radial-gradient-95" cx="15.13" cy="14.79" r="0.97" xlink:href="#radial-gradient-87"/><radialGradient id="radial-gradient-96" cx="12.12" cy="12.19" r="0.8" xlink:href="#radial-gradient-87"/><radialGradient id="radial-gradient-97" cx="10.89" cy="11.05" r="0.83" xlink:href="#radial-gradient-87"/><radialGradient id="radial-gradient-98" cx="9.77" cy="9.93" r="0.67" gradientUnits="userSpaceOnUse"><stop offset="0" stop-color="#d87f25"/><stop offset="1" stop-color="#c14e0c"/></radialGradient><radialGradient id="radial-gradient-99" cx="10" cy="9.56" r="0.88" gradientUnits="userSpaceOnUse"><stop offset="0" stop-color="#b96d21"/><stop offset="0.05" stop-color="#a7621e"/><stop offset="0.2" stop-color="#744515"/><stop offset="0.35" stop-color="#4b2c0d"/><stop offset="0.49" stop-color="#2a1908"/><stop offset="0.63" stop-color="#130b03"/><stop offset="0.75" stop-color="#050301"/><stop offset="0.87"/><stop offset="1"/></radialGradient><radialGradient id="radial-gradient-100" cx="10.96" cy="10.96" r="0.75" xlink:href="#radial-gradient-98"/><radialGradient id="radial-gradient-101" cx="11.25" cy="10.6" r="1.02" xlink:href="#radial-gradient-99"/><radialGradient id="radial-gradient-102" cx="12.16" cy="12.09" r="0.73" xlink:href="#radial-gradient-98"/><radialGradient id="radial-gradient-103" cx="12.44" cy="11.82" r="0.89" xlink:href="#radial-gradient-99"/><radialGradient id="radial-gradient-104" cx="13.46" cy="13.44" r="0.92" xlink:href="#radial-gradient-98"/><radialGradient id="radial-gradient-105" cx="13.71" cy="13.08" r="1.14" xlink:href="#radial-gradient-99"/><radialGradient id="radial-gradient-106" cx="15.16" cy="14.68" r="0.9" xlink:href="#radial-gradient-98"/><radialGradient id="radial-gradient-107" cx="15.31" cy="14.27" r="1.19" xlink:href="#radial-gradient-99"/><radialGradient id="radial-gradient-108" cx="17.18" cy="15.5" r="0.86" xlink:href="#radial-gradient-98"/><radialGradient id="radial-gradient-109" cx="17.21" cy="15.25" r="1.07" xlink:href="#radial-gradient-99"/><radialGradient id="radial-gradient-110" cx="19.53" cy="16.07" r="0.96" xlink:href="#radial-gradient-98"/><radialGradient id="radial-gradient-111" cx="19.5" cy="15.71" r="1.23" xlink:href="#radial-gradient-99"/><radialGradient id="radial-gradient-112" cx="24.72" cy="15.93" r="1.07" xlink:href="#radial-gradient-98"/><radialGradient id="radial-gradient-113" cx="24.59" cy="15.55" r="1.34" xlink:href="#radial-gradient-99"/><radialGradient id="radial-gradient-114" cx="27" cy="15.07" r="0.9" xlink:href="#radial-gradient-98"/><radialGradient id="radial-gradient-115" cx="26.69" cy="14.78" r="1.17" xlink:href="#radial-gradient-99"/><radialGradient id="radial-gradient-116" cx="28.6" cy="13.8" r="0.85" xlink:href="#radial-gradient-98"/><radialGradient id="radial-gradient-117" cx="28.49" cy="13.59" r="1.07" xlink:href="#radial-gradient-99"/><radialGradient id="radial-gradient-118" cx="22.08" cy="16.16" r="0.97" xlink:href="#radial-gradient-98"/><radialGradient id="radial-gradient-119" cx="22.02" cy="15.77" r="1.29" xlink:href="#radial-gradient-99"/><radialGradient id="radial-gradient-120" cx="2.39" cy="2.71" r="10.13" xlink:href="#radial-gradient"/><radialGradient id="radial-gradient-121" cx="2.39" cy="2.76" r="10.24" xlink:href="#radial-gradient-2"/><radialGradient id="radial-gradient-122" cx="1.07" cy="4.48" r="5.18" xlink:href="#radial-gradient-3"/><linearGradient id="linear-gradient-16" x1="0.55" y1="4.98" x2="2.04" y2="5.98" gradientUnits="userSpaceOnUse"><stop offset="0" stop-color="#5f5f5f"/><stop offset="0.29" stop-color="#393939"/><stop offset="0.65" stop-color="#101010"/><stop offset="0.83"/><stop offset="1"/></linearGradient><radialGradient id="radial-gradient-123" cx="4.65" cy="8.8" r="2.17" gradientUnits="userSpaceOnUse"><stop offset="0" stop-color="#5bb224"/><stop offset="0.28" stop-color="#376c16"/><stop offset="0.54" stop-color="#19310a"/><stop offset="0.73" stop-color="#070e03"/><stop offset="0.83"/><stop offset="1"/></radialGradient><linearGradient id="linear-gradient-17" x1="21.88" y1="19.64" x2="23.8" y2="19.23" gradientTransform="matrix(0.91, 0.12, -0.11, 0.84, -13.75, -9.02)" gradientUnits="userSpaceOnUse"><stop offset="0" stop-color="#4c4c4c"/><stop offset="0.69" stop-color="#181818"/><stop offset="1"/></linearGradient><radialGradient id="radial-gradient-124" cx="2.39" cy="2.71" r="10.13" xlink:href="#radial-gradient-2"/><radialGradient id="radial-gradient-125" cx="2.9" cy="0.87" r="1.68" xlink:href="#radial-gradient-3"/><linearGradient id="linear-gradient-18" x1="-104.45" y1="23.03" x2="-103.92" y2="24.13" gradientTransform="translate(93.57 -56.01) rotate(-19.62)" xlink:href="#linear-gradient-16"/><radialGradient id="radial-gradient-126" cx="4.93" cy="8.38" r="1.43" gradientUnits="userSpaceOnUse"><stop offset="0" stop-color="#150c0c"/><stop offset="0.28" stop-color="#200a0a"/><stop offset="0.56" stop-color="#300707"/><stop offset="0.68" stop-color="#3b0807"/><stop offset="1" stop-color="#540a06"/></radialGradient><radialGradient id="radial-gradient-127" cx="4.93" cy="8.38" r="1.43" gradientUnits="userSpaceOnUse"><stop offset="0" stop-color="#130c0c"/><stop offset="0.59" stop-color="#6a0a09"/><stop offset="0.72" stop-color="#7c0c08"/><stop offset="0.87" stop-color="#890e06"/><stop offset="1" stop-color="#8e0f06"/></radialGradient><linearGradient id="linear-gradient-19" x1="4.83" y1="9.95" x2="4.97" y2="8.51" gradientUnits="userSpaceOnUse"><stop offset="0" stop-color="#f59e9f"/><stop offset="1" stop-color="#f17171"/></linearGradient><linearGradient id="linear-gradient-20" x1="4.86" y1="9.95" x2="5" y2="8.52" gradientUnits="userSpaceOnUse"><stop offset="0" stop-color="#f0b8b8"/><stop offset="1" stop-color="#f79899"/></linearGradient><radialGradient id="radial-gradient-128" cx="4.17" cy="9.33" r="0.93" gradientUnits="userSpaceOnUse"><stop offset="0" stop-color="#f0b8b8"/><stop offset="0.02" stop-color="#e6b0b0"/><stop offset="0.12" stop-color="#aa8282"/><stop offset="0.23" stop-color="#765a5a"/><stop offset="0.33" stop-color="#4c3a3a"/><stop offset="0.43" stop-color="#2b2121"/><stop offset="0.53" stop-color="#130f0f"/><stop offset="0.62" stop-color="#050404"/><stop offset="0.69"/><stop offset="1"/></radialGradient><radialGradient id="radial-gradient-129" cx="4.79" cy="9.13" r="1.16" xlink:href="#radial-gradient-128"/><radialGradient id="radial-gradient-130" cx="2.39" cy="2.71" r="10.13" xlink:href="#radial-gradient-2"/><radialGradient id="radial-gradient-131" cx="5.81" cy="0.08" r="2.76" xlink:href="#radial-gradient-3"/><linearGradient id="linear-gradient-21" x1="5.25" y1="0.19" x2="6.49" y2="1.52" xlink:href="#linear-gradient-16"/><linearGradient id="linear-gradient-22" x1="13.85" y1="-20.86" x2="15.02" y2="-20.35" gradientTransform="translate(-12.91 21.77) rotate(4.7)" xlink:href="#linear-gradient-16"/><radialGradient id="radial-gradient-132" cx="-39.8" cy="-9.01" r="4.62" gradientTransform="translate(45.95 2.21) rotate(-10.84)" gradientUnits="userSpaceOnUse"><stop offset="0" stop-color="#fff"/><stop offset="0.22" stop-color="#d1e6ca"/><stop offset="0.6" stop-color="#84be72"/><stop offset="0.87" stop-color="#55a53b"/><stop offset="1" stop-color="#429b26"/></radialGradient><radialGradient id="radial-gradient-133" cx="-2.53" cy="29.88" r="2.73" gradientTransform="translate(6.23 -25.71) rotate(-1.76)" gradientUnits="userSpaceOnUse"><stop offset="0.54" stop-color="#e7e7e7"/><stop offset="0.66" stop-color="#e4e4e5"/><stop offset="0.74" stop-color="#dcdcdd"/><stop offset="0.8" stop-color="#cdcdd1"/><stop offset="0.86" stop-color="#b8b8bf"/><stop offset="0.91" stop-color="#9d9da8"/><stop offset="0.94" stop-color="#8c8c9a"/><stop offset="1" stop-color="#c5c5c5"/></radialGradient><radialGradient id="radial-gradient-134" cx="21.26" cy="-143.89" r="0.12" gradientTransform="matrix(2.12, -0.07, 0.07, 2.19, -29.73, 318.54)" gradientUnits="userSpaceOnUse"><stop offset="0.21" stop-color="#fff"/><stop offset="0.36" stop-color="#aeaeae"/><stop offset="0.52" stop-color="#646464"/><stop offset="0.64" stop-color="#2e2e2e"/><stop offset="0.74" stop-color="#0d0d0d"/><stop offset="0.79"/><stop offset="0.98"/></radialGradient><radialGradient id="radial-gradient-135" cx="0.55" cy="16.4" r="1.72" gradientTransform="matrix(1, -0.03, 0.03, 1.06, 5.4, -12.9)" gradientUnits="userSpaceOnUse"><stop offset="0" stop-color="#31b2d1"/><stop offset="0.13" stop-color="#2aa3c9"/><stop offset="0.32" stop-color="#1b85ba"/><stop offset="0.52" stop-color="#1b6bae"/><stop offset="0.93" stop-color="#1c298f"/><stop offset="1" stop-color="#1c1d89"/></radialGradient><radialGradient id="radial-gradient-136" cx="21.58" cy="-143.35" r="0.1" gradientTransform="matrix(2.12, -0.07, 0.07, 2.19, -29.73, 318.54)" gradientUnits="userSpaceOnUse"><stop offset="0" stop-color="#fff"/><stop offset="0.22" stop-color="#b3b3b3"/><stop offset="0.62" stop-color="#333"/><stop offset="0.79"/><stop offset="1"/></radialGradient><linearGradient id="linear-gradient-23" x1="-23.1" y1="23.82" x2="-22.7" y2="24.3" gradientTransform="matrix(0.99, -0.11, 0.11, 0.99, 25.96, -23.12)" gradientUnits="userSpaceOnUse"><stop offset="0" stop-color="#b9b9b9"/><stop offset="0.04" stop-color="#adadad"/><stop offset="0.33" stop-color="#646464"/><stop offset="0.57" stop-color="#2e2e2e"/><stop offset="0.75" stop-color="#0d0d0d"/><stop offset="0.85"/><stop offset="0.98"/></linearGradient><radialGradient id="radial-gradient-137" cx="2.39" cy="2.71" r="10.13" xlink:href="#radial-gradient-2"/><radialGradient id="radial-gradient-138" cx="6.18" cy="4.84" r="2.24" gradientUnits="userSpaceOnUse"><stop offset="0" stop-color="#7bc120"/><stop offset="0.17" stop-color="#568716"/><stop offset="0.33" stop-color="#37570e"/><stop offset="0.48" stop-color="#1f3108"/><stop offset="0.62" stop-color="#0e1604"/><stop offset="0.74" stop-color="#040601"/><stop offset="0.83"/><stop offset="1"/></radialGradient><linearGradient id="linear-gradient-24" x1="9.26" y1="-4.56" x2="9.81" y2="-3.24" gradientTransform="translate(-3.24 9) rotate(2.48)" xlink:href="#linear-gradient-16"/></defs><g class="cls-1"><g id="Layer_2" data-name="Layer 2"><g id="Layer_1-2" data-name="Layer 1"><g id="turtee-assets"><g id="walk-turtee"><path class="cls-2" d="M21.49,17.59s-4,.11-4.38,1.5c-.19.8,1.33,2.81,3.67,2.73,1,0,2.61-2.28,2.58-3.91A11.82,11.82,0,0,0,21.49,17.59Z"/><path class="cls-3" d="M17.11,19.09a.75.75,0,0,0,0,.22A3.29,3.29,0,0,0,20.94,21c1.36-.53,1.28-2,1.49-3.26-.5-.08-.94-.12-.94-.12S17.48,17.7,17.11,19.09Z"/><path class="cls-4" d="M17.11,19.09a.75.75,0,0,0,0,.22A3.29,3.29,0,0,0,20.94,21c1.36-.53,1.28-2,1.49-3.26-.5-.08-.94-.12-.94-.12S17.48,17.7,17.11,19.09Z"/><path class="cls-5" d="M20.93,18c.12.45-.55,1.23-1.5,1.48s-1.82-.1-1.94-.56.64-.75,1.59-1S20.81,17.58,20.93,18Z"/><path class="cls-6" d="M22.08,19.94a.64.64,0,0,0,.35.57,6,6,0,0,0,.62-1.14.6.6,0,0,0-.3-.07A.66.66,0,0,0,22.08,19.94Z"/><path class="cls-7" d="M23.37,17.89a11.52,11.52,0,0,0-1.88-.32c-.16,0-4,.13-4.41,1.51a1.73,1.73,0,0,0,.49,1.28,4,4,0,0,0,3.08,1.49h.13a2.73,2.73,0,0,0,1.7-1.37,4.71,4.71,0,0,0,.9-2.57v0Zm-.93,2.56c-.55.82-1.19,1.34-1.66,1.35h-.13a3.89,3.89,0,0,1-3-1.47,1.68,1.68,0,0,1-.48-1.24c.37-1.35,4.33-1.47,4.36-1.47a12.33,12.33,0,0,1,1.85.31A4.81,4.81,0,0,1,22.44,20.45Z"/><path class="cls-6" d="M21.24,19.8a.36.36,0,0,0-.34.39.35.35,0,1,0,.69,0A.36.36,0,0,0,21.24,19.8Z"/><path class="cls-8" d="M18.41,20.94c-.11.23-.91.45-1.07.28s.1-.93.32-1S18.51,20.73,18.41,20.94Z"/><path class="cls-9" d="M18.31,20.77c-.12.23-.89.54-1,.45s.1-.93.32-1S18.41,20.57,18.31,20.77Z"/><path class="cls-10" d="M18.27,20.73c-.12.23-.81.56-.9.47s.14-.87.36-1S18.35,20.57,18.27,20.73Z"/><path class="cls-11" d="M17.31,21.24h0a.48.48,0,0,1,0-.36,1.21,1.21,0,0,1,.38-.73c.12-.07.32,0,.52.23s.33.44.27.57a1.14,1.14,0,0,1-.72.35A.53.53,0,0,1,17.31,21.24Zm.82-.82c-.18-.18-.36-.26-.45-.21a1.11,1.11,0,0,0-.35.68.46.46,0,0,0,0,.31l0,0,0,0a.45.45,0,0,0,.35,0,1,1,0,0,0,.67-.31C18.42,20.84,18.31,20.61,18.13,20.42Z"/><path class="cls-12" d="M17.27,19.69c-.23.07-.88-.32-.87-.54s.68-.52.9-.44S17.47,19.62,17.27,19.69Z"/><path class="cls-13" d="M17.31,19.51c-.22.08-.92-.24-.91-.36s.68-.52.9-.44S17.51,19.45,17.31,19.51Z"/><path class="cls-14" d="M17.32,19.46c-.23.07-.88-.18-.88-.3s.66-.46.87-.38S17.47,19.41,17.32,19.46Z"/><path class="cls-11" d="M16.37,19.15h0c0-.1.12-.19.21-.25a1.08,1.08,0,0,1,.73-.22c.12,0,.19.23.18.49s-.09.5-.21.54a1,1,0,0,1-.69-.25C16.51,19.4,16.36,19.27,16.37,19.15Zm1.06,0c0-.23-.05-.4-.14-.43a1,1,0,0,0-.68.2c-.11.08-.18.16-.18.22h0c0,.06.07.16.2.25a1,1,0,0,0,.63.25C17.34,19.63,17.42,19.41,17.43,19.17Z"/><path class="cls-15" d="M18.14,6.41a1.68,1.68,0,0,0-2.62.66,1.51,1.51,0,0,1,1.78.66h0a4.27,4.27,0,0,1,.88-1.34Z"/><path class="cls-16" d="M18.18,6.39a4.27,4.27,0,0,0-.88,1.34,4.05,4.05,0,0,1,3.86.6,4.63,4.63,0,0,0-.3-1.54A2.2,2.2,0,0,0,18.18,6.39Z"/><path class="cls-17" d="M23.54,6.88a2,2,0,0,0-2.66-.07l0,0a4.63,4.63,0,0,1,.3,1.54l0,0c.55-.26,1.83-1.08,3.1-.19a4.09,4.09,0,0,0-.73-1.3Z"/><path class="cls-18" d="M25.13,8.07a1.24,1.24,0,0,0-1.56-1.2,4.09,4.09,0,0,1,.73,1.3h0A1.09,1.09,0,0,1,25.13,8.07Z"/><path class="cls-19" d="M24,6.83a.25.25,0,0,0-.07.23c0,.13.2.5.42.57a.75.75,0,0,0,.65,0A1.16,1.16,0,0,0,24,6.83Z"/><path class="cls-20" d="M24,6.83a.25.25,0,0,0-.07.23c0,.13.2.5.42.57a.75.75,0,0,0,.65,0A1.16,1.16,0,0,0,24,6.83Z"/><path class="cls-21" d="M21,6.75s.19.7.43.82a2.59,2.59,0,0,0,1.67,0c.27-.08.35-.26.38-.68a1.85,1.85,0,0,0-1.24-.53A1.79,1.79,0,0,0,21,6.75Z"/><path class="cls-22" d="M21,6.75s.19.7.43.82a2.59,2.59,0,0,0,1.67,0c.27-.08.35-.26.38-.68a1.85,1.85,0,0,0-1.24-.53A1.79,1.79,0,0,0,21,6.75Z"/><path class="cls-23" d="M16,6.45s-.14.25,0,.31a1.65,1.65,0,0,0,.87.18,1.11,1.11,0,0,0,1.05-.65A1.42,1.42,0,0,0,17.13,6,1.6,1.6,0,0,0,16,6.45Z"/><path class="cls-24" d="M16,6.45s-.14.25,0,.31a1.65,1.65,0,0,0,.87.18,1.11,1.11,0,0,0,1.05-.65A1.42,1.42,0,0,0,17.13,6,1.6,1.6,0,0,0,16,6.45Z"/><path class="cls-25" d="M18.22,6.35c0,.19-.07.46,0,.52a2.93,2.93,0,0,0,.75.38c.2,0,.91,0,1-.13a1.2,1.2,0,0,0,.27-.77A2.24,2.24,0,0,0,18.22,6.35Z"/><path class="cls-26" d="M18.22,6.35c0,.19-.07.46,0,.52a2.93,2.93,0,0,0,.75.38c.2,0,.91,0,1-.13a1.2,1.2,0,0,0,.27-.77A2.24,2.24,0,0,0,18.22,6.35Z"/><path class="cls-27" d="M17.3,7.73a1.53,1.53,0,0,0-1.78-.66A2.6,2.6,0,0,0,13.8,9.14a2.66,2.66,0,0,1,1.14.11,2.38,2.38,0,0,1,1.32,1.23c.4-.91.65-1.88,1.09-2.77Z"/><path class="cls-28" d="M21.18,8.33a4,4,0,0,0-3.83-.62c-.44.89-.69,1.86-1.09,2.77l0,0c1.68-.28,3.73-.34,4.95,1A13.45,13.45,0,0,0,21.18,8.33Z"/><path class="cls-29" d="M24.33,8.16l0,0a2.71,2.71,0,0,0-3.1.18l0,0a16.58,16.58,0,0,1,.05,3.17h0a4.4,4.4,0,0,1,4-.28h0A4.6,4.6,0,0,0,24.33,8.16Z"/><path class="cls-30" d="M25.13,8.07a1.19,1.19,0,0,0-.8.09,4.6,4.6,0,0,1,.87,3.05,1.21,1.21,0,0,1,1.47-.14A2.68,2.68,0,0,0,25.13,8.07Z"/><path class="cls-31" d="M24.31,8.17A1.1,1.1,0,0,1,25.05,8a2.57,2.57,0,0,1,.86.55,2.48,2.48,0,0,1,.71,1.23,1.63,1.63,0,0,1-.85.12A5.58,5.58,0,0,1,25,9.48s-.17-.44-.3-.68S24.31,8.17,24.31,8.17Z"/><path class="cls-32" d="M24.31,8.17A1.1,1.1,0,0,1,25.05,8a2.57,2.57,0,0,1,.86.55,2.48,2.48,0,0,1,.71,1.23,1.63,1.63,0,0,1-.85.12A5.58,5.58,0,0,1,25,9.48s-.17-.44-.3-.68S24.31,8.17,24.31,8.17Z"/><path class="cls-33" d="M21.36,8.28a2.9,2.9,0,0,1,2.88-.15,2,2,0,0,1,.07,1.34c-.15.43-.14.52-1.16.57a1.59,1.59,0,0,1-1-.26,1.79,1.79,0,0,1-.66-.8A3.54,3.54,0,0,1,21.36,8.28Z"/><path class="cls-34" d="M21.36,8.28a2.9,2.9,0,0,1,2.88-.15,2,2,0,0,1,.07,1.34c-.15.43-.14.52-1.16.57a1.59,1.59,0,0,1-1-.26,1.79,1.79,0,0,1-.66-.8A3.54,3.54,0,0,1,21.36,8.28Z"/><path class="cls-35" d="M17.39,7.73a2.63,2.63,0,0,0-.17.81,1.27,1.27,0,0,0,.48.9,3.53,3.53,0,0,0,2.43.35c.35-.07.58-.29.77-.86a2.4,2.4,0,0,0,.1-.75,3.25,3.25,0,0,0-1.63-.63A4.11,4.11,0,0,0,17.39,7.73Z"/><path class="cls-36" d="M17.39,7.73a2.63,2.63,0,0,0-.17.81,1.27,1.27,0,0,0,.48.9,3.53,3.53,0,0,0,2.43.35c.35-.07.58-.29.77-.86a2.4,2.4,0,0,0,.1-.75,3.25,3.25,0,0,0-1.63-.63A4.11,4.11,0,0,0,17.39,7.73Z"/><path class="cls-37" d="M14.35,7.89a2.53,2.53,0,0,0,.12.64,1,1,0,0,0,.92.48,2.41,2.41,0,0,0,1.06-.23A4,4,0,0,0,17,8.36l.27-.65a1.39,1.39,0,0,0-.94-.66,1.93,1.93,0,0,0-1.49.32A1.75,1.75,0,0,0,14.35,7.89Z"/><path class="cls-38" d="M14.35,7.89a2.53,2.53,0,0,0,.12.64,1,1,0,0,0,.92.48,2.41,2.41,0,0,0,1.06-.23A4,4,0,0,0,17,8.36l.27-.65a1.39,1.39,0,0,0-.94-.66,1.93,1.93,0,0,0-1.49.32A1.75,1.75,0,0,0,14.35,7.89Z"/><path class="cls-39" d="M13.79,9.17h0Z"/><path class="cls-40" d="M21.21,11.47c-1.3-1.32-3.39-1.23-4.93-.94-.42,1-.94,2.54-1.51,3.76l0,0c1.51,1.57,4.71,1.85,6.31,1.76a1.35,1.35,0,0,0,0-.29C21.16,14.38,21.17,12.92,21.21,11.47Z"/><path class="cls-41" d="M25.17,11.23a4.43,4.43,0,0,0-3.93.27l0,0c0,1.45-.14,2.86-.05,4.31a1.35,1.35,0,0,1,0,.29h0c2.88.6,4.94-.11,5.66-1.23h0a25.93,25.93,0,0,0-1.61-3.62Z"/><path class="cls-42" d="M29.12,13.44a1.75,1.75,0,0,1-1.33-.81,3.3,3.3,0,0,0-1.13-1.55,1.2,1.2,0,0,0-1.47.14,25.93,25.93,0,0,1,1.61,3.62A4.22,4.22,0,0,0,29.12,13.44Z"/><path class="cls-43" d="M16.27,10.53a2.25,2.25,0,0,0-1.39-1.3,2.27,2.27,0,0,0-1.09-.07h0c-1.06.17-2.66,1.91-2.66,1.91.39,1,2.07,2.44,3.64,3.21.57-1.22,1.1-2.75,1.51-3.76Z"/><path class="cls-44" d="M25.18,11.24l.55,1.11.71.47a1.38,1.38,0,0,0,.74,0s.48-.46.48-.46l-.31-.55a3.22,3.22,0,0,0-.57-.64,1.07,1.07,0,0,0-.72-.28A1.18,1.18,0,0,0,25.18,11.24Z"/><path class="cls-45" d="M25.18,11.24l.55,1.11.71.47a1.38,1.38,0,0,0,.74,0s.48-.46.48-.46l-.31-.55a3.22,3.22,0,0,0-.57-.64,1.07,1.07,0,0,0-.72-.28A1.18,1.18,0,0,0,25.18,11.24Z"/><path class="cls-46" d="M21.26,11.52a5.52,5.52,0,0,1,1.14-.46,3.75,3.75,0,0,1,2.55.07.87.87,0,0,1,.24.12,1.18,1.18,0,0,1,.14.44c0,.26.1,1.09.1,1.09a1.73,1.73,0,0,1-.37.92,3.44,3.44,0,0,1-1.63.42,3.74,3.74,0,0,1-1.61-.79,1.48,1.48,0,0,1-.42-.92C21.36,12.1,21.26,11.52,21.26,11.52Z"/><path class="cls-47" d="M21.26,11.52a5.52,5.52,0,0,1,1.14-.46,3.75,3.75,0,0,1,2.55.07.87.87,0,0,1,.24.12,1.18,1.18,0,0,1,.14.44c0,.26.1,1.09.1,1.09a1.73,1.73,0,0,1-.37.92,3.44,3.44,0,0,1-1.63.42,3.74,3.74,0,0,1-1.61-.79,1.48,1.48,0,0,1-.42-.92C21.36,12.1,21.26,11.52,21.26,11.52Z"/><path class="cls-48" d="M16.39,10.54a6.06,6.06,0,0,1,1.18-.17,5.73,5.73,0,0,1,2.56.37,3.9,3.9,0,0,1,1.12.76A5.22,5.22,0,0,1,21,12.76c-.19.52-.18.66-.78,1a3,3,0,0,1-1.92.38c-.9-.09-1.45-.19-1.65-.69S16.1,12,16.1,12A7.69,7.69,0,0,1,16.39,10.54Z"/><path class="cls-49" d="M16.39,10.54a6.06,6.06,0,0,1,1.18-.17,5.73,5.73,0,0,1,2.56.37,3.9,3.9,0,0,1,1.12.76A5.22,5.22,0,0,1,21,12.76c-.19.52-.18.66-.78,1a3,3,0,0,1-1.92.38c-.9-.09-1.45-.19-1.65-.69S16.1,12,16.1,12A7.69,7.69,0,0,1,16.39,10.54Z"/><path class="cls-50" d="M12.43,9.89a5.88,5.88,0,0,1,.92-.58A2.06,2.06,0,0,1,15,9.26a2.21,2.21,0,0,1,1.32,1.27.92.92,0,0,1-.12.29,4.23,4.23,0,0,1-1.12,1,3.22,3.22,0,0,1-2,0,2.23,2.23,0,0,1-.8-1A6.88,6.88,0,0,1,12.43,9.89Z"/><path class="cls-51" d="M12.43,9.89a5.88,5.88,0,0,1,.92-.58A2.06,2.06,0,0,1,15,9.26a2.21,2.21,0,0,1,1.32,1.27.92.92,0,0,1-.12.29,4.23,4.23,0,0,1-1.12,1,3.22,3.22,0,0,1-2,0,2.23,2.23,0,0,1-.8-1A6.88,6.88,0,0,1,12.43,9.89Z"/><path class="cls-39" d="M15.35,13c.49-1.16.91-2.46.91-2.46C16,11.44,15.62,12.28,15.35,13Z"/><path class="cls-52" d="M21.27,11.54s0,0,0,.06l0,.14C21.28,11.61,21.28,11.53,21.27,11.54Z"/><path class="cls-52" d="M16.2,10.71h0Z"/><path class="cls-52" d="M16.2,10.71c-.27.83-.59,1.61-.85,2.29C15.73,12.09,16.07,11.1,16.2,10.71Z"/><path class="cls-52" d="M16.21,10.71l.05-.17A1.09,1.09,0,0,0,16.21,10.71Z"/><path class="cls-53" d="M17.06,6.21a.36.36,0,0,1-.16.12.39.39,0,0,1-.21-.11h0a.77.77,0,0,1,.06-.15h-.07c-.09.13-.11.19-.06.23h0a.57.57,0,0,0,.26.12h0a.4.4,0,0,0,.23-.14A.43.43,0,0,0,17.26,6h-.09A.34.34,0,0,1,17.06,6.21Z"/><path class="cls-53" d="M17.4,6.38h0c0,.07-.15.1-.28.13a1,1,0,0,0-.28.09c-.19.08-.41-.11-.49-.18l0,0s0-.13.08-.21h-.08s-.16.2-.06.29h0a.77.77,0,0,0,.45.22.27.27,0,0,0,.15,0,1.12,1.12,0,0,1,.26-.08c.15,0,.29-.06.35-.17h0a.73.73,0,0,0,.12-.35h-.09A.58.58,0,0,1,17.4,6.38Z"/><path class="cls-53" d="M17.49,6.74a1.74,1.74,0,0,1-.82.17A1.56,1.56,0,0,1,16,6.68a1,1,0,0,1,.08-.28l-.09,0a.64.64,0,0,0-.08.3,1.42,1.42,0,0,0,.75.28,1.83,1.83,0,0,0,.87-.19A1,1,0,0,0,18,6.28l-.09,0A1,1,0,0,1,17.49,6.74Z"/><path class="cls-53" d="M19.48,6.14a.36.36,0,0,1,0,.31s-.16.06-.4.06a.6.6,0,0,1-.3-.15.62.62,0,0,1,.05-.18l-.09,0a.36.36,0,0,0,0,.25.57.57,0,0,0,.38.2c.21,0,.42,0,.48-.09a.48.48,0,0,0,0-.41Z"/><path class="cls-53" d="M19.84,6.19a1.22,1.22,0,0,1,0,.27.93.93,0,0,1-.25.28,1.93,1.93,0,0,1-.66,0h-.11a.43.43,0,0,1-.35-.3.44.44,0,0,1,.07-.22h-.08a.39.39,0,0,0-.09.24.52.52,0,0,0,.44.38h.45a.73.73,0,0,0,.39-.07.83.83,0,0,0,.28-.33,1.44,1.44,0,0,0,0-.3Z"/><path class="cls-53" d="M20.25,6.34a1.13,1.13,0,0,1-.24.74,2,2,0,0,1-1,.11,1.41,1.41,0,0,1-.74-.39,1.68,1.68,0,0,1,0-.45l-.1,0a1.68,1.68,0,0,0,0,.46,1.43,1.43,0,0,0,.82.45l.28,0a1.71,1.71,0,0,0,.79-.15,1.21,1.21,0,0,0,.28-.81Z"/><path class="cls-53" d="M22.58,6.36h-.09a1.49,1.49,0,0,0,0,.17.76.76,0,0,1,0,.14s-.08.07-.28.09a.76.76,0,0,1-.45-.12.45.45,0,0,1,.06-.26l-.08,0s-.11.21-.06.31.34.19.49.19h.05c.24,0,.37-.09.37-.18a1,1,0,0,0,0-.15A1.25,1.25,0,0,1,22.58,6.36Z"/><path class="cls-53" d="M22.84,6.47a.46.46,0,0,1-.2.5A1.46,1.46,0,0,1,22,7a1.15,1.15,0,0,1-.43-.23.75.75,0,0,1,.06-.34l-.09,0c0,.1-.11.34,0,.42A1.29,1.29,0,0,0,22,7.1l.27,0a1.15,1.15,0,0,0,.45-.07.55.55,0,0,0,.26-.6Z"/><path class="cls-53" d="M23.17,6.63a1.12,1.12,0,0,1,0,.35c0,.07-.12.13-.22.18l-.17.11a1.52,1.52,0,0,1-.85.08,1.33,1.33,0,0,1-.57-.41,1,1,0,0,1,0-.37h-.09a1,1,0,0,0,0,.43,1.4,1.4,0,0,0,.63.45,1.52,1.52,0,0,0,.32,0,1.2,1.2,0,0,0,.61-.11.62.62,0,0,1,.16-.1c.11-.07.23-.14.26-.24a1.39,1.39,0,0,0,.05-.37Z"/><path class="cls-53" d="M23.4,6.78a.83.83,0,0,1-.11.61,2.58,2.58,0,0,1-.81.25,2.51,2.51,0,0,1-1-.08c-.31-.11-.48-.84-.48-.85l-.08,0s.17.77.53.89a2.74,2.74,0,0,0,.74.1l.27,0a2.3,2.3,0,0,0,.87-.28.77.77,0,0,0,.13-.63Z"/><polygon class="cls-53" points="24.3 6.89 24.33 6.93 24.33 6.93 24.3 6.89"/><path class="cls-53" d="M24.69,7.27a.8.8,0,0,1-.38-.21.09.09,0,0,1,0-.13l-.07-.07a.19.19,0,0,0,0,.26.8.8,0,0,0,.45.24.33.33,0,0,0,.19,0l-.06-.08A.23.23,0,0,1,24.69,7.27Z"/><path class="cls-53" d="M24.05,6.85Z"/><path class="cls-53" d="M24.49,7.64a.78.78,0,0,1-.32-.23l-.05,0A.72.72,0,0,1,24,7.11L24,7s.06-.15.08-.16l-.07,0a.2.2,0,0,0-.1.23l0,.08a.67.67,0,0,0,.15.29l0,0a.77.77,0,0,0,.36.26h.11A1.76,1.76,0,0,0,25,7.63l0-.09A1.06,1.06,0,0,1,24.49,7.64Z"/><path class="cls-53" d="M16.46,7.09a.49.49,0,0,1-.22.55h0a.87.87,0,0,1-.57,0,.33.33,0,0,1-.18-.36s.13-.18.23-.25h-.09c-.05,0-.23.15-.24.25a.42.42,0,0,0,.25.46,1.19,1.19,0,0,0,.32,0,.58.58,0,0,0,.34-.08h0a.56.56,0,0,0,.25-.64Z"/><path class="cls-53" d="M16.4,7.84,15.53,8a.93.93,0,0,1-.37-.28,1.05,1.05,0,0,1,0-.47h-.08a.9.9,0,0,0,0,.49c.07.17.39.32.43.34h0l.9-.11A1,1,0,0,0,17,7.32l-.09,0A.94.94,0,0,1,16.4,7.84Z"/><path class="cls-53" d="M16.79,8.06a3.29,3.29,0,0,1-.71.31,1.76,1.76,0,0,1-.83,0A1,1,0,0,0,15,8.17,1.36,1.36,0,0,1,14.72,8a1.51,1.51,0,0,1,0-.47l-.09,0a1.28,1.28,0,0,0,0,.48.79.79,0,0,0,.32.22.93.93,0,0,1,.22.14,1.12,1.12,0,0,0,.56.1,1.73,1.73,0,0,0,.36,0,3.59,3.59,0,0,0,.74-.32,1.36,1.36,0,0,0,.33-.63l-.07,0A1.73,1.73,0,0,1,16.79,8.06Z"/><path class="cls-53" d="M16,8.92a2.06,2.06,0,0,1-1.08-.06,1,1,0,0,1-.4-.38,3.72,3.72,0,0,1-.08-.63l-.08.06a2.55,2.55,0,0,0,.08.61,1,1,0,0,0,.45.43,2.5,2.5,0,0,0,.71.11A1.58,1.58,0,0,0,16,9a2.16,2.16,0,0,0,1-.63V8.31A2.38,2.38,0,0,1,16,8.92Z"/><path class="cls-53" d="M19.54,7.6a.76.76,0,0,1,0,.45,1.33,1.33,0,0,1-.56.11l-.06,0A1.1,1.1,0,0,1,18.55,8a1.25,1.25,0,0,1,0-.45h-.1a1.41,1.41,0,0,0,.07.52,1.06,1.06,0,0,0,.4.19l.06,0H19a1.6,1.6,0,0,0,.53-.12c.16-.08.07-.56.06-.56Z"/><path class="cls-53" d="M20,7.71a.86.86,0,0,1,0,.45.84.84,0,0,0,0,.1,1.11,1.11,0,0,1-.41.35,2.34,2.34,0,0,1-.82,0,2.61,2.61,0,0,1-.6-.52.9.9,0,0,1,.07-.47l-.09,0c0,.1-.14.44-.06.55a2.5,2.5,0,0,0,.65.56,1.85,1.85,0,0,0,.57.07l.3,0c.13,0,.49-.33.49-.43l0-.09a1,1,0,0,0,0-.49Z"/><path class="cls-53" d="M20.46,7.88a1.08,1.08,0,0,1-.2.86l0,.06a.77.77,0,0,1-.62.35A3.45,3.45,0,0,1,18.31,9a2,2,0,0,1-.54-.69,1.5,1.5,0,0,1,0-.7l-.1,0a1.79,1.79,0,0,0,0,.77,2.08,2.08,0,0,0,.56.71,2.35,2.35,0,0,0,1.08.16h.29a.82.82,0,0,0,.69-.4l0-.05a1.13,1.13,0,0,0,.22-.9Z"/><path class="cls-53" d="M20.57,9.47l-.07.11c-.09.16-.65.25-1.37.24a3.21,3.21,0,0,1-1.34-.38,1.43,1.43,0,0,1-.4-.48l-.09-.14c-.14-.21,0-.87.13-1.1l-.09,0s-.31.89-.12,1.19a.51.51,0,0,1,.09.13,1.75,1.75,0,0,0,.43.51,3.27,3.27,0,0,0,1.39.39h.12c.35,0,1.18,0,1.33-.28l.07-.11A2,2,0,0,0,21,8.21l-.1,0A2.12,2.12,0,0,1,20.57,9.47Z"/><path class="cls-53" d="M23,7.8c.05,0,0,.22,0,.32a.77.77,0,0,1-.27.06,1,1,0,0,1-.33-.1,1.74,1.74,0,0,1-.1-.19l-.08,0a1.81,1.81,0,0,0,.1.2s0,.07.39.14h0A1.83,1.83,0,0,0,23,8.21h0v0s.12-.31,0-.42Z"/><path class="cls-53" d="M23.49,7.86c.13.12.08.45,0,.57s-.28.34-.41.35a2.72,2.72,0,0,1-.73,0l-.05-.06A2.06,2.06,0,0,1,22,8.34.77.77,0,0,1,22,8L22,8a.8.8,0,0,0,0,.39,2,2,0,0,0,.29.38l.05.06c.05.06.29.07.5.07h.31c.19,0,.4-.26.48-.39a.61.61,0,0,0,0-.65Z"/><path class="cls-53" d="M23.83,8a1,1,0,0,1,.1.56h0s-.19.29-.34.51a2.23,2.23,0,0,1-.94.15,1.7,1.7,0,0,1-.85-.54,1.16,1.16,0,0,1-.05-.52h-.1c0,.05,0,.46.08.59a1.69,1.69,0,0,0,.91.57l.17,0a2.55,2.55,0,0,0,.83-.18h0A2.88,2.88,0,0,0,24,8.53v0a.85.85,0,0,0-.1-.55Z"/><path class="cls-53" d="M24.15,8.11a1.81,1.81,0,0,1-.06,1.72,3,3,0,0,1-1.62.1,2.34,2.34,0,0,1-.73-.58l-.15-.15a2.67,2.67,0,0,1-.17-.93h-.09c0,.15.06.9.2,1l.14.14a2.29,2.29,0,0,0,.77.6,2.4,2.4,0,0,0,.67.07,2.06,2.06,0,0,0,1.05-.19,1.76,1.76,0,0,0,.09-1.77Z"/><path class="cls-53" d="M25.61,8.55a.48.48,0,0,1-.36,0A1.41,1.41,0,0,1,25,8.22l0-.17-.09,0-.06.22,0,0a1.36,1.36,0,0,0,.31.33.5.5,0,0,0,.29.07l.15,0a.73.73,0,0,0,.19-.11l-.06-.07A.61.61,0,0,1,25.61,8.55Z"/><path class="cls-53" d="M25.51,9A1.08,1.08,0,0,1,25,8.66l-.12-.13A.92.92,0,0,1,24.7,8l-.09,0a1.06,1.06,0,0,0,.21.54l.11.12a1.07,1.07,0,0,0,.56.4l.14,0A1.6,1.6,0,0,0,26.22,9l0-.09A1.26,1.26,0,0,1,25.51,9Z"/><path class="cls-53" d="M25.33,9.29c-.33-.08-.54-.51-.66-.73a.61.61,0,0,0-.09-.17.45.45,0,0,1-.06-.29h-.1a.65.65,0,0,0,.09.36.39.39,0,0,1,.08.14c.12.24.35.69.71.78a2.53,2.53,0,0,0,.61.06l.42,0h.13v-.1h-.14A3.43,3.43,0,0,1,25.33,9.29Z"/><path class="cls-53" d="M25.87,9.9A2.88,2.88,0,0,1,25,9.45v.1a2.68,2.68,0,0,0,.85.45,4.58,4.58,0,0,0,.76-.13l0-.09A6,6,0,0,1,25.87,9.9Z"/><path class="cls-53" d="M14.92,9.65h-.38c-.1,0-.25-.12-.25-.18a.62.62,0,0,1,.11-.32l-.08,0a.72.72,0,0,0-.13.36c0,.14.27.24.32.26H15l.2-.41-.09,0Z"/><path class="cls-53" d="M15.44,10.15a2.24,2.24,0,0,1-.63.35,3.31,3.31,0,0,1-1.09-.22c-.19-.09-.2-.53-.2-.67v0a1.8,1.8,0,0,1,.37-.4l-.08,0c-.12.1-.39.33-.38.44v0c0,.17,0,.62.26.74a3.06,3.06,0,0,0,1.05.23h.09a2.21,2.21,0,0,0,.68-.37h0a1.68,1.68,0,0,0,.2-.5l-.08,0A1.93,1.93,0,0,1,15.44,10.15Z"/><path class="cls-53" d="M15.23,11a2.1,2.1,0,0,1-.89.19h-.07a3.85,3.85,0,0,1-1.1-.35l0-.06a3.14,3.14,0,0,1-.3-.64A1.5,1.5,0,0,1,13,9.5H13a1.36,1.36,0,0,0-.21.66,2.82,2.82,0,0,0,.31.68.15.15,0,0,1,0,.06,3.39,3.39,0,0,0,1.16.39h.09a2.36,2.36,0,0,0,.93-.21,4,4,0,0,0,.92-.77l-.08-.06A3.84,3.84,0,0,1,15.23,11Z"/><path class="cls-53" d="M15.11,11.72a4.47,4.47,0,0,1-1.8.14c-.39-.06-1-.87-1-1a7.14,7.14,0,0,1,.2-1l-.08,0a7.17,7.17,0,0,0-.22,1c0,.19.67,1,1.09,1.08a4.64,4.64,0,0,0,.61,0,3.55,3.55,0,0,0,1.25-.18,4,4,0,0,0,1-1v-.1A4.57,4.57,0,0,1,15.11,11.72Z"/><path class="cls-53" d="M19.07,10.85c0,.06-.13.09-.3.09a.86.86,0,0,1-.53-.15.66.66,0,0,1,0-.43H18.1a.78.78,0,0,0,.06.5,1,1,0,0,0,.61.19c.22,0,.35-.06.39-.17a3.34,3.34,0,0,0,.06-.41h-.09A3.91,3.91,0,0,1,19.07,10.85Z"/><path class="cls-53" d="M19.8,10.59l-.09,0s.06.22.08.3a.59.59,0,0,1-.07.35.26.26,0,0,1-.16.13,3.16,3.16,0,0,1-1,.07,1,1,0,0,1-.53-.32L17.94,11a.61.61,0,0,1-.19-.29l0-.05a.88.88,0,0,1,0-.32l-.09,0a.91.91,0,0,0,0,.38s0,0,0,0a.77.77,0,0,0,.23.33.56.56,0,0,1,.11.11,1,1,0,0,0,.59.34h.25a3.72,3.72,0,0,0,.74-.08.34.34,0,0,0,.22-.17.68.68,0,0,0,.08-.43Z"/><path class="cls-53" d="M20.09,11.73c-.1.16-.65.27-1.05.35a2.63,2.63,0,0,1-1.38-.26,1.77,1.77,0,0,1-.44-.84,1.86,1.86,0,0,1,.07-.57l-.09,0a2.17,2.17,0,0,0-.08.62,1.86,1.86,0,0,0,.5.9,3.07,3.07,0,0,0,1.19.3l.25,0c.58-.12,1-.22,1.11-.4a2.35,2.35,0,0,0,.23-.92h-.09A2.15,2.15,0,0,1,20.09,11.73Z"/><path class="cls-53" d="M20.9,11.24a2.31,2.31,0,0,1-.25.82l-.08.18a1.73,1.73,0,0,1-1.14.76,4.4,4.4,0,0,1-1.83-.08,4.7,4.7,0,0,1-.94-1.24,3.57,3.57,0,0,1,.18-1.22l-.09,0c0,.11-.29,1.08-.17,1.29a4.38,4.38,0,0,0,1,1.27,2.26,2.26,0,0,0,1,.15,8.76,8.76,0,0,0,.88-.05,1.88,1.88,0,0,0,1.22-.82c0-.06.05-.12.08-.19a2,2,0,0,0,.24-.84Z"/><path class="cls-53" d="M21.11,12.11a3,3,0,0,1-.48,1.29,4.84,4.84,0,0,1-1.46.66A6.22,6.22,0,0,1,17,13.79c-.22-.11-.39-.61-.54-1a4.31,4.31,0,0,0-.24-.61c-.21-.4.25-1.59.26-1.6l-.09,0s-.48,1.24-.25,1.68c.07.15.15.37.23.6.16.48.33,1,.58,1.11a6.35,6.35,0,0,0,1.94.29l.32,0a5.08,5.08,0,0,0,1.5-.68,3,3,0,0,0,.52-1.34c0-.11,0-.17,0-.24l0-.13C21.19,11.84,21.14,12,21.11,12.11Z"/><path class="cls-53" d="M23.5,11.17a1.62,1.62,0,0,1-.27.06,2.38,2.38,0,0,1-.35-.08.46.46,0,0,1-.11-.18l-.09,0a.5.5,0,0,0,.14.22,1.31,1.31,0,0,0,.4.1h0c.32,0,.34-.08.35-.1a2,2,0,0,0,0-.33h-.09C23.52,11,23.51,11.13,23.5,11.17Z"/><path class="cls-53" d="M24,11.29a1.11,1.11,0,0,1-.38.31.93.93,0,0,1-.39.05H23.1a1.45,1.45,0,0,1-.47-.21l-.08,0c-.06,0-.07-.22-.05-.34h-.09c0,.06,0,.36.1.44l.07,0a1.39,1.39,0,0,0,.51.22h.18a1,1,0,0,0,.44-.06s.38-.22.42-.36a3,3,0,0,0,.06-.4H24.1A2,2,0,0,1,24,11.29Z"/><path class="cls-53" d="M24.48,11a2,2,0,0,1-.14.94c-.08.23-.74.38-.9.38A2,2,0,0,1,22.39,12a1.83,1.83,0,0,1-.31-.81l-.1,0a1.91,1.91,0,0,0,.35.85,2,2,0,0,0,1.11.37c.12,0,.88-.13,1-.44a2.08,2.08,0,0,0,.14-1Z"/><path class="cls-53" d="M24.78,11.09a1.66,1.66,0,0,1,.08,1.18.29.29,0,0,0,0,.09,1,1,0,0,1-.65.7A2.09,2.09,0,0,1,23,13l-.38-.21a4.26,4.26,0,0,1-.71-.43,3.47,3.47,0,0,1-.28-1l-.1,0a4.38,4.38,0,0,0,.31,1,4.43,4.43,0,0,0,.74.45l.37.2a1.5,1.5,0,0,0,.73.15,2.89,2.89,0,0,0,.53,0,1.1,1.1,0,0,0,.72-.78.45.45,0,0,1,0-.08,1.58,1.58,0,0,0-.08-1.21Z"/><path class="cls-53" d="M25.36,11.55l-.09-.08s.06,1,.11,1.29a1.3,1.3,0,0,1-.2.66,1.54,1.54,0,0,0-.09.19,3.1,3.1,0,0,1-1.52.47,2.83,2.83,0,0,1-1.2-.42l-.26-.14c-.26-.11-.6-.74-.64-.82l-.17-1.19h-.07l.15,1.21h0s.37.74.68.87l.25.13a3.14,3.14,0,0,0,1.21.43h0c.45,0,1.5-.29,1.6-.53a1.5,1.5,0,0,1,.09-.18,1.28,1.28,0,0,0,.2-.71C25.43,12.47,25.36,11.56,25.36,11.55Z"/><path class="cls-53" d="M26.51,11.15h-.23l-.22-.06a.73.73,0,0,1,0-.2H26c0,.24,0,.27,0,.28a.86.86,0,0,0,.28.08h0c.26,0,.29,0,.3,0l.1-.13L26.6,11Z"/><path class="cls-53" d="M26.84,11.52a1.81,1.81,0,0,1-.59.14,6.26,6.26,0,0,1-.55-.34,1,1,0,0,1,.07-.37l-.09,0c-.06.18-.11.4,0,.47a5.65,5.65,0,0,0,.58.36h.05a1.65,1.65,0,0,0,.62-.16,2,2,0,0,0,.18-.16L27,11.36Z"/><path class="cls-53" d="M27,12h0a1.5,1.5,0,0,1-.67.21c-.24,0-.5-.32-.67-.54a1.07,1.07,0,0,0-.15-.18c-.1-.09-.07-.39-.05-.49l-.09,0s-.08.4.08.54l.14.17c.18.23.45.58.74.58a1.47,1.47,0,0,0,.72-.23.53.53,0,0,0,.26-.39l-.08-.06A.53.53,0,0,1,27,12Z"/><path class="cls-53" d="M27.16,12.78a1.21,1.21,0,0,1-.73,0l-.7-.47v.11l.65.44a.65.65,0,0,0,.33.07,2.87,2.87,0,0,0,.49-.06h0l.49-.46-.07-.07Z"/><path class="cls-53" d="M15,10a1.74,1.74,0,0,1-.81-.07A.71.71,0,0,1,14,9.48a.78.78,0,0,1,.21-.33l-.1,0s-.21.24-.2.37a.76.76,0,0,0,.23.56,1,1,0,0,0,.54.11l.34,0a.9.9,0,0,0,.48-.64h-.08C15.37,9.7,15,10,15,10Z"/><path class="cls-53" d="M27.81,12.62a3.37,3.37,0,0,0-1.12-1.55,2.69,2.69,0,0,0-1.53-3,1.25,1.25,0,0,0-1.27-1.25,1.34,1.34,0,0,0-.35,0,2,2,0,0,0-1.36-.55,2,2,0,0,0-1.3.48,2,2,0,0,0-1.61-.69,2,2,0,0,0-1.12.29,1.64,1.64,0,0,0-1-.4A1.88,1.88,0,0,0,15.5,7.05a2.67,2.67,0,0,0-1.73,2.09c-1,.19-2.59,1.86-2.66,1.93h0a8.26,8.26,0,0,0,3.69,3.24c1.27,1.31,3.81,1.78,5.78,1.78h.55a9,9,0,0,0,1.77.18,4.91,4.91,0,0,0,3.91-1.42,4.15,4.15,0,0,0,2.33-1.41l0,0h0A1.72,1.72,0,0,1,27.81,12.62Zm-1,2.2h0c-.54.83-2,1.41-3.88,1.41a8.94,8.94,0,0,1-1.76-.19h0l-.55,0c-2,0-4.49-.47-5.75-1.78h0a8.28,8.28,0,0,1-3.66-3.2c.14-.15,1.64-1.74,2.63-1.9h0v0A2.66,2.66,0,0,1,15.52,7.1h0a1.83,1.83,0,0,1,1.57-1,1.55,1.55,0,0,1,1,.4h0a2,2,0,0,1,1.11-.3,2,2,0,0,1,1.59.7l0,0,0,0a1.91,1.91,0,0,1,2.62.06h0a1.22,1.22,0,0,1,1.56,1.17v0h0a2.67,2.67,0,0,1,1.51,3h0a3.33,3.33,0,0,1,1.12,1.54,1.78,1.78,0,0,0,1.31.82A4.31,4.31,0,0,1,26.79,14.82Z"/><path class="cls-53" d="M17.3,7.66a14.15,14.15,0,0,0-.64,1.71c-.13.38-.26.78-.4,1.15-.73,1.94-1.46,3.76-1.47,3.78l0,0s.74-1.84,1.47-3.78c.15-.38.28-.77.41-1.16a13,13,0,0,1,.64-1.7,3.72,3.72,0,0,1,.81-1.25l0,0A4.13,4.13,0,0,0,17.3,7.66Z"/><path class="cls-53" d="M20.9,6.8l0,0a5.44,5.44,0,0,1,.31,1.53,20.06,20.06,0,0,1,0,3.15c-.09,2.08-.11,4.54-.11,4.56h.05s0-2.48.1-4.55a20.43,20.43,0,0,0,0-3.17A5.38,5.38,0,0,0,20.9,6.8Z"/><path class="cls-53" d="M25.2,11.23a4,4,0,0,0-.88-3.06,4,4,0,0,0-.76-1.31l0,0a3.67,3.67,0,0,1,.76,1.3h0a3.93,3.93,0,0,1,.87,3h0c.11.24.25.52.4.83a18.94,18.94,0,0,1,1.21,2.78h.05a19.17,19.17,0,0,0-1.22-2.79Z"/><path class="cls-53" d="M24.3,8.15a2.81,2.81,0,0,0-3,.15l-.06,0a4.28,4.28,0,0,0-3.89-.63,1.62,1.62,0,0,0-1.8-.65l0,0a1.53,1.53,0,0,1,1.75.64h0c.25-.08,2.44-.7,3.88.62h0l.09,0a2.78,2.78,0,0,1,3-.14h0a1,1,0,0,1,.81-.11l0,0A1.07,1.07,0,0,0,24.3,8.15Z"/><path class="cls-53" d="M25.17,11.2a4.37,4.37,0,0,0-3.91.29c-1.57-1.55-3.94-1.16-5-1a2.27,2.27,0,0,0-2.52-1.37v0a2.2,2.2,0,0,1,2.47,1.35v0h0c1-.18,3.38-.58,4.95,1h0a4.31,4.31,0,0,1,3.9-.29h0a1.18,1.18,0,0,1,1.46-.15l0,0A1.22,1.22,0,0,0,25.17,11.2Z"/><path class="cls-54" d="M12.41,14.31c-1.28.8-2.06,1.19-2.06,1.19s.86,4.53,2.2,5.76a3.17,3.17,0,0,0,3.54-3.91C14.74,16.18,13.27,15.54,12.41,14.31Z"/><path class="cls-55" d="M10.49,16.19c.3,1.31,1,4.14,2.06,5.07a.85.85,0,0,0,.38.07c.8-.17,1.57-.34,1.69-1.16C15,18,12.5,16.64,10.49,16.19Z"/><path class="cls-56" d="M10.49,16.19c.3,1.31,1,4.14,2.06,5.07a.85.85,0,0,0,.38.07c.8-.17,1.57-.34,1.69-1.16C15,18,12.5,16.64,10.49,16.19Z"/><path class="cls-6" d="M11.28,17.59a.48.48,0,0,0-.37.21c.13.44.27.89.44,1.33a.74.74,0,0,0,.47-.77C11.82,17.94,11.58,17.59,11.28,17.59Z"/><path class="cls-6" d="M12.29,17.42a.38.38,0,1,0,.34.38A.36.36,0,0,0,12.29,17.42Z"/><path class="cls-6" d="M12.43,18.43a.52.52,0,1,0,.48.52A.49.49,0,0,0,12.43,18.43Z"/><path class="cls-57" d="M10.7,16.35a11.33,11.33,0,0,0,1.53,4.4c.39.5.84-.34.4-1.06A29.51,29.51,0,0,1,10.7,16.35Z"/><path class="cls-7" d="M16.11,17.34h0a18.91,18.91,0,0,0-1.55-1.16,8.28,8.28,0,0,1-2.14-1.87v0h0c-1.26.79-2.05,1.19-2.06,1.19h0v0s.88,4.55,2.21,5.77h0a1,1,0,0,0,.43.07h0a3.51,3.51,0,0,0,2.52-1.17,3.35,3.35,0,0,0,.64-2.83Zm-.67,2.81A3.47,3.47,0,0,1,13,21.31h0a1,1,0,0,1-.4-.07c-1.27-1.17-2.13-5.42-2.19-5.72.12-.06.88-.46,2-1.18a8.23,8.23,0,0,0,2.13,1.87,17.08,17.08,0,0,1,1.54,1.15A3.27,3.27,0,0,1,15.44,20.15Z"/><path class="cls-58" d="M14.13,20.89c.15.21,0,1-.26,1.08s-.77-.53-.77-.78S14,20.7,14.13,20.89Z"/><path class="cls-59" d="M13.94,20.9A1.4,1.4,0,0,1,13.87,22c-.23.06-.77-.53-.77-.78S13.8,20.72,13.94,20.9Z"/><path class="cls-60" d="M13.88,20.91c.15.21.11,1,0,1s-.71-.52-.69-.77S13.78,20.77,13.88,20.91Z"/><path class="cls-11" d="M13.88,22h0c-.1,0-.24-.06-.34-.13a1.28,1.28,0,0,1-.47-.68c0-.14.17-.28.45-.36s.55-.08.64,0a1.1,1.1,0,0,1,0,.79C14.09,21.77,14,22,13.88,22Zm-.34-1.1c-.24.06-.4.18-.4.29a1.14,1.14,0,0,0,.44.63.44.44,0,0,0,.28.12v0c.07,0,.15-.13.2-.3a1,1,0,0,0,0-.73C14.05,20.83,13.79,20.82,13.54,20.9Z"/><path class="cls-61" d="M15.44,19.89c.23.11.45.91.27,1.07s-.93-.11-1-.33S15.23,19.79,15.44,19.89Z"/><path class="cls-62" d="M15.27,20c.23.11.53.89.44,1s-.93-.11-1-.33S15.07,19.89,15.27,20Z"/><path class="cls-63" d="M15.23,20c.23.11.55.81.46.89s-.87-.14-1-.36S15.07,20,15.23,20Z"/><path class="cls-11" d="M15.74,21h0a.48.48,0,0,1-.36,0,1.17,1.17,0,0,1-.74-.39c-.06-.12,0-.32.24-.52s.44-.33.57-.26a1.06,1.06,0,0,1,.34.71C15.81,20.69,15.83,20.9,15.74,21Zm-.82-.82c-.18.17-.27.35-.22.45a1.2,1.2,0,0,0,.69.34.39.39,0,0,0,.3,0l0,0,0,0a.46.46,0,0,0,0-.36,1.07,1.07,0,0,0-.31-.66C15.34,19.87,15.11,20,14.92,20.17Z"/><path class="cls-64" d="M13,21.32c0,.23-.66.64-.84.53s-.17-.83,0-1S13,21.11,13,21.32Z"/><path class="cls-65" d="M12.82,21.2c0,.23-.62.71-.71.65s-.17-.83,0-1S12.85,21,12.82,21.2Z"/><path class="cls-66" d="M12.77,21.18c0,.22-.54.69-.64.64s-.12-.78,0-.93S12.8,21,12.77,21.18Z"/><path class="cls-11" d="M12.09,21.88h0a.42.42,0,0,1-.13-.3,1,1,0,0,1,.12-.73c.09-.09.28-.07.51,0s.41.29.39.42-.28.37-.52.49A.49.49,0,0,1,12.09,21.88Zm.48-.93c-.2-.1-.38-.13-.45-.06a1.09,1.09,0,0,0-.11.68.37.37,0,0,0,.11.26v0c.06,0,.17,0,.31-.07s.47-.33.49-.45S12.77,21.07,12.57,21Z"/><path class="cls-67" d="M9.33,10.16a2.48,2.48,0,0,1-.58-1.84l-2.37,1s1.93,4.37,6.26,3.52A10,10,0,0,0,9.33,10.16Z"/><path class="cls-68" d="M8.84,9.93c-.21-.28-1.73.05-1.84.44-.06.21,1,1.16,1.46,1.54a3,3,0,0,0,1.9.75c.17-.05.53-.55.26-.8A10.61,10.61,0,0,1,8.84,9.93Z"/><path class="cls-69" d="M8.84,9.93c-.21-.28-1.73.05-1.84.44-.06.21,1,1.16,1.46,1.54a3,3,0,0,0,1.9.75c.17-.05.53-.55.26-.8A10.61,10.61,0,0,1,8.84,9.93Z"/><path class="cls-7" d="M12.31,12.49a8.69,8.69,0,0,0-3-2.35,2.45,2.45,0,0,1-.57-1.82h0a2.52,2.52,0,0,0,.59,1.86h0a8.63,8.63,0,0,1,2.95,2.34c.13.15.23.27.32.36A5.2,5.2,0,0,1,7.9,11.43,7.24,7.24,0,0,1,6.4,9.36h0a7.1,7.1,0,0,0,1.51,2.09A5.24,5.24,0,0,0,11.56,13a5.37,5.37,0,0,0,1.09-.11h0l0,0A3.6,3.6,0,0,1,12.31,12.49Z"/><path class="cls-7" d="M9.35,10.15l0,0a1.34,1.34,0,0,0,.46.49A2.74,2.74,0,0,1,9.35,10.15Z"/><path class="cls-7" d="M9.56,11.56a2.75,2.75,0,0,0,2,.82,3,3,0,0,0,.59-.06v0A3.12,3.12,0,0,1,9.56,11.56Z"/><path class="cls-70" d="M12.71,13.18a12.11,12.11,0,0,1-1.77-2S8.49,12.51,9,13a26.74,26.74,0,0,1,2.23,1.81A4,4,0,0,0,12.71,13.18Z"/><path class="cls-71" d="M18.14,16a12.19,12.19,0,0,1-2.83-1,2.86,2.86,0,0,1-.71,2.1c.21.44,1.16,1.3,3.15,1A3.41,3.41,0,0,0,18.14,16Z"/><path class="cls-72" d="M25.82,16a37.47,37.47,0,0,1-4,.35,4.1,4.1,0,0,1,0,2.06,5,5,0,0,0,4.33-1.18C27,17,26.46,15.85,25.82,16Z"/><path class="cls-73" d="M21.85,16.32A10.94,10.94,0,0,1,20,16.27c-.41-.07-1-.14-1.83-.32a4,4,0,0,1-.39,2.12,5.1,5.1,0,0,0,4.1.31A3.89,3.89,0,0,0,21.85,16.32Z"/><path class="cls-74" d="M15.31,15a11,11,0,0,1-2.6-1.78,4,4,0,0,1-1.5,1.6,2.07,2.07,0,0,1,.39.5c.42.77,2,2.06,2.94,1.8A2.64,2.64,0,0,0,15.31,15Z"/><path class="cls-75" d="M13.25,15.15c-.07,0-.32.28-.27.49a1.5,1.5,0,0,0,1.33.87.57.57,0,0,0,.34-.93A1.58,1.58,0,0,0,13.25,15.15Z"/><path class="cls-76" d="M10.09,12.26c-.07,0-.32.28-.26.5a1.51,1.51,0,0,0,1.33.87.57.57,0,0,0,.33-.93A1.55,1.55,0,0,0,10.09,12.26Z"/><path class="cls-77" d="M16.75,16.54s-.9-.39-1.16,0,0,.54.26.69c.47.32,1.13.48,1.41.28C17.73,17.15,17.22,16.69,16.75,16.54Z"/><path class="cls-78" d="M20.07,17c-.34,0-1.4-.11-1.48.37-.11.64,1.75,1,2.61.63a.43.43,0,0,0,.16-.65C21.17,17.16,20.21,17,20.07,17Z"/><path class="cls-79" d="M23.55,17c-.46,0-1,.1-1,.5,0,.67,2,.47,2,0S23.76,17,23.55,17Z"/><path class="cls-80" d="M25.91,15.93h-.1a35.73,35.73,0,0,1-4.65.37A7.66,7.66,0,0,1,20,16.24l-.27,0A11.88,11.88,0,0,1,11,11.12v0h0c-.08.05-2,1.12-2,1.68A.21.21,0,0,0,9,13c.13.12.36.28.61.47a8,8,0,0,1,2,1.83,3.93,3.93,0,0,0,2.68,1.84,1.15,1.15,0,0,0,.33,0,2.52,2.52,0,0,0,2.35,1.07,5.49,5.49,0,0,0,.8-.06,6.61,6.61,0,0,0,2.62.61,3.38,3.38,0,0,0,1.5-.31,6.19,6.19,0,0,0,1,.08,4.46,4.46,0,0,0,3.3-1.26.5.5,0,0,0,.44-.57A.82.82,0,0,0,25.91,15.93Zm.27,1.25h0a4.42,4.42,0,0,1-3.27,1.25,7.43,7.43,0,0,1-1-.07h0a3.43,3.43,0,0,1-1.48.3,6.35,6.35,0,0,1-2.6-.61h0a5.49,5.49,0,0,1-.8.06,2.48,2.48,0,0,1-2.32-1.06v0h0a1.14,1.14,0,0,1-.33.05,4,4,0,0,1-2.64-1.82,8.11,8.11,0,0,0-2-1.85c-.26-.19-.48-.35-.61-.47a.2.2,0,0,1-.06-.15c.06-.52,1.8-1.52,2-1.64a11.92,11.92,0,0,0,8.75,5.09l.28,0a7.58,7.58,0,0,0,1.19.07A37.85,37.85,0,0,0,25.82,16h.09a.77.77,0,0,1,.67.68A.46.46,0,0,1,26.18,17.18Z"/><path class="cls-80" d="M14.58,17l0,0A2.66,2.66,0,0,0,15.35,15h0A2.65,2.65,0,0,1,14.58,17Z"/><path class="cls-80" d="M18.12,16a4.05,4.05,0,0,1-.39,2.1l0,0a4.1,4.1,0,0,0,.4-2.13Z"/><path class="cls-80" d="M21.8,16.33a3.81,3.81,0,0,1,0,2l0,0a4,4,0,0,0,0-2.07Z"/><path class="cls-81" d="M31.11,11.71c-.26,0-.42,1.6-4.5,3.78,0,0,1.45,1.19,1.51,1.18C29.73,16.2,32.31,11.52,31.11,11.71Z"/><path class="cls-82" d="M31.11,11.71c-.26,0-.42,1.6-4.5,3.78a7.63,7.63,0,0,0,.83.74C29.56,15.8,32,11.52,31.11,11.71Z"/><path class="cls-83" d="M31.11,11.71c-.26,0-.42,1.6-4.5,3.78a7.63,7.63,0,0,0,.83.74C29.56,15.8,32,11.52,31.11,11.71Z"/><path class="cls-7" d="M31.11,11.68c-.07,0-.13.1-.23.27-.3.5-1.12,1.83-4.28,3.52h0l0,0a18.18,18.18,0,0,0,1.53,1.19h0c1.37-.4,3.44-3.83,3.31-4.76A.26.26,0,0,0,31.11,11.68Zm-3,5c-.09,0-.91-.69-1.47-1.15,3.14-1.68,4-3,4.27-3.52.09-.14.15-.23.19-.24s.26,0,.28.2C31.52,12.85,29.47,16.24,28.12,16.64Z"/><path class="cls-84" d="M34.77,15.23c-1.43-1.21-5.36.3-6.36,1.31a9.36,9.36,0,0,0-1.52-1l-2,.9c1.78,4.69,6.83,3.93,7.89,3.68,1.75,1.21,2.94-.71,3-1.89A3.61,3.61,0,0,0,34.77,15.23Z"/><path class="cls-85" d="M34.77,15.23c-1.43-1.21-5.36.3-6.36,1.31a9.36,9.36,0,0,0-1.52-1l-2,.9c1.73,4.24,6.41,3,7.46,2.77,1.75,1.22,2.93-.06,3.13-1.32A2.72,2.72,0,0,0,34.77,15.23Z"/><path class="cls-86" d="M34.77,15.23c-1.43-1.21-5.36.3-6.36,1.31a9.36,9.36,0,0,0-1.52-1l-2,.9c1.73,4.24,6.41,3,7.46,2.77,1.75,1.22,2.93-.06,3.13-1.32A2.72,2.72,0,0,0,34.77,15.23Z"/><path class="cls-87" d="M28.49,16.53c1.1-1,5.37-2.73,6.63-.88.31.46-.6.48-1.13.28C32.34,15.29,30.45,15.7,28.49,16.53Z"/><path class="cls-88" d="M27.73,18.69a.75.75,0,0,0-.73.51,5.56,5.56,0,0,0,1.31.66.66.66,0,0,0,.17-.45A.74.74,0,0,0,27.73,18.69Z"/><path class="cls-6" d="M27.73,18.69a.75.75,0,0,0-.59.27,6.76,6.76,0,0,0,1.34.45A.74.74,0,0,0,27.73,18.69Z"/><path class="cls-88" d="M30.87,19.47a.63.63,0,0,0-.65.61.57.57,0,0,0,0,.18,10.07,10.07,0,0,0,1.23,0,.57.57,0,0,0,0-.18A.63.63,0,0,0,30.87,19.47Z"/><path class="cls-7" d="M34.78,15.22a2.32,2.32,0,0,0-1.57-.46,8.57,8.57,0,0,0-4.8,1.75,9.42,9.42,0,0,0-1.51-1h0l-2,.91v0a5.7,5.7,0,0,0,2.73,3.17,7.14,7.14,0,0,0,3.28.72,8.68,8.68,0,0,0,1.89-.2,1.94,1.94,0,0,0,1.1.39h0c1.13,0,1.88-1.36,1.89-2.3A3.54,3.54,0,0,0,34.78,15.22Zm.92,3c0,.92-.74,2.25-1.84,2.25h0a1.94,1.94,0,0,1-1.08-.38h0a9.2,9.2,0,0,1-1.89.2,5.91,5.91,0,0,1-6-3.85l2-.88a8.45,8.45,0,0,1,1.5,1l0,0v0a8.48,8.48,0,0,1,4.79-1.75,2.36,2.36,0,0,1,1.54.44A3.51,3.51,0,0,1,35.7,18.19Z"/><path class="cls-7" d="M28.42,16.53l0,0a6.72,6.72,0,0,1,.61.6A2.65,2.65,0,0,0,28.42,16.53Z"/><path class="cls-7" d="M32.34,19.46a1.4,1.4,0,0,0,.42.64l0,0A1.84,1.84,0,0,1,32.34,19.46Z"/><path class="cls-6" d="M29.47,18.58a.52.52,0,0,0-.55.48.51.51,0,0,0,.55.47.52.52,0,0,0,.55-.47A.52.52,0,0,0,29.47,18.58Z"/><path class="cls-6" d="M30.9,18.33a.46.46,0,0,0-.5.39.51.51,0,1,0,.5-.39Z"/><path class="cls-6" d="M29.91,17.54c-.24,0-.44.14-.44.31s.2.32.44.32.45-.14.45-.32S30.16,17.54,29.91,17.54Z"/><path class="cls-6" d="M28.56,17.85a.4.4,0,1,0,0,.8.4.4,0,1,0,0-.8Z"/><path class="cls-89" d="M35.3,16.19c.25-.06.65-.79.52-1s-.94-.11-1.09.08S35.07,16.24,35.3,16.19Z"/><path class="cls-90" d="M35.16,16.05c.25-.05.72-.74.66-.84s-.94-.11-1.09.08S34.94,16.11,35.16,16.05Z"/><path class="cls-91" d="M35.12,16c.25-.06.73-.66.66-.77s-.87-.06-1,.13S35,16.05,35.12,16Z"/><path class="cls-11" d="M35.8,15.61c-.11.27-.32.57-.5.61s-.35-.17-.49-.39-.2-.45-.11-.56a1.18,1.18,0,0,1,.8-.2.43.43,0,0,1,.34.12h0A.52.52,0,0,1,35.8,15.61Zm-.51.55a1,1,0,0,0,.45-.58c.07-.16.09-.29,0-.35l0,0,0,0c0-.06-.14-.09-.29-.1a1.19,1.19,0,0,0-.75.18c-.07.09,0,.28.11.49S35.2,16.18,35.29,16.16Z"/><path class="cls-92" d="M35.52,18.52c.23.11,1-.24,1-.48s-.69-.64-.92-.58S35.31,18.43,35.52,18.52Z"/><path class="cls-93" d="M35.49,18.33c.23.1,1-.16,1-.29s-.69-.64-.92-.58S35.28,18.24,35.49,18.33Z"/><path class="cls-94" d="M35.49,18.27c.23.1,1-.1,1-.22s-.66-.58-.9-.51S35.33,18.2,35.49,18.27Z"/><path class="cls-11" d="M36.27,18.36a1.1,1.1,0,0,1-.77.19c-.13-.06-.18-.35-.16-.61s.11-.48.25-.51a1.23,1.23,0,0,1,.76.31c.1.08.21.2.2.31h0C36.54,18.17,36.37,18.29,36.27,18.36Zm-.74.13a1,1,0,0,0,.71-.19c.15-.09.24-.19.25-.26h0c0-.06-.06-.15-.18-.25a1.18,1.18,0,0,0-.71-.3c-.1,0-.18.21-.2.46S35.44,18.45,35.53,18.49Z"/><path class="cls-95" d="M34.22,20.26c.07.24.82.61,1,.47s.07-.93-.13-1.08S34.16,20,34.22,20.26Z"/><path class="cls-96" d="M34.36,20.11c.06.25.77.7.87.62s.07-.93-.13-1.08S34.29,19.89,34.36,20.11Z"/><path class="cls-97" d="M34.4,20.08c.07.24.69.69.79.62s0-.88-.16-1S34.35,19.91,34.4,20.08Z"/><path class="cls-11" d="M34.83,20.74c-.28-.1-.59-.3-.64-.48s.16-.36.37-.51.45-.22.56-.13a1.26,1.26,0,0,1,.24.79c0,.13,0,.29-.11.35h0C35.14,20.83,34.94,20.78,34.83,20.74Zm-.58-.49a1.11,1.11,0,0,0,.6.43.47.47,0,0,0,.36,0l0,0,0,0a.41.41,0,0,0,.08-.3,1.23,1.23,0,0,0-.21-.74c-.09-.06-.28,0-.48.13S34.23,20.15,34.25,20.25Z"/><path class="cls-98" d="M12.67,13a8.65,8.65,0,0,0-7.61,5c.16,1.68,1.24,2.44,3.57,2.75s2.36-3.57,2.25-4.46a13.29,13.29,0,0,0,3-2A3.46,3.46,0,0,1,12.67,13Z"/><path class="cls-99" d="M13.17,13.84c-.63-.39-.09-.25-.5-.87a8.65,8.65,0,0,0-7.61,5,2.77,2.77,0,0,0,.15.66,2.5,2.5,0,0,0,2.67,1.72c2-.17,2.09-3.06,2-4A8.22,8.22,0,0,0,13.17,13.84Z"/><path class="cls-100" d="M13.17,13.84c-.63-.39-.09-.25-.5-.87a8.65,8.65,0,0,0-7.61,5,2.77,2.77,0,0,0,.15.66,2.5,2.5,0,0,0,2.67,1.72c2-.17,2.09-3.06,2-4A8.22,8.22,0,0,0,13.17,13.84Z"/><path class="cls-6" d="M9.85,13.5A8.47,8.47,0,0,0,8.66,14a.6.6,0,0,0,0,.35.72.72,0,0,0,1,.31.72.72,0,0,0,.51-.87A.67.67,0,0,0,9.85,13.5Z"/><path class="cls-6" d="M8.09,15.05a.4.4,0,0,0-.17.52.45.45,0,0,0,.72-.49A.41.41,0,0,0,8.09,15.05Z"/><path class="cls-6" d="M9.17,15.42A.45.45,0,0,0,9,16a.46.46,0,0,0,.64,0,.47.47,0,0,0,.2-.61A.46.46,0,0,0,9.17,15.42Z"/><path class="cls-6" d="M10.43,14.36a.47.47,0,0,0-.2.61.46.46,0,0,0,.64,0,.45.45,0,0,0,.2-.61A.46.46,0,0,0,10.43,14.36Z"/><path class="cls-101" d="M11.62,13.09a8.72,8.72,0,0,0-6.13,4.17c-.36.89,1.26.65,1.85-.31A7.64,7.64,0,0,1,11.62,13.09Z"/><path class="cls-7" d="M12.82,13.16l-.13-.2h0A8.13,8.13,0,0,0,7,15.24,6.85,6.85,0,0,0,5,18c.15,1.65,1.19,2.45,3.59,2.78h.26a1.52,1.52,0,0,0,1.17-.53c.95-1.07.91-3.4.85-3.95a13.64,13.64,0,0,0,3-2l0,0,0,0A3,3,0,0,1,12.82,13.16Zm-2,3.08h0c.06.53.12,2.87-.83,3.94a1.48,1.48,0,0,1-1.4.5C6.26,20.38,5.24,19.59,5.09,18a7,7,0,0,1,2-2.7A8.2,8.2,0,0,1,12.61,13h.05l.12.19a3.06,3.06,0,0,0,1.05,1.13A13.19,13.19,0,0,1,10.87,16.24Z"/><path class="cls-7" d="M10.13,16.4a4.42,4.42,0,0,0,.76-.12l0,0A4.52,4.52,0,0,1,10.13,16.4Z"/><path class="cls-102" d="M5.44,18.67c-.22.14-1-.07-1.07-.3s.57-.75.81-.73S5.63,18.55,5.44,18.67Z"/><path class="cls-103" d="M5.43,18.48a1.4,1.4,0,0,1-1.06-.11c-.06-.23.57-.75.81-.73S5.62,18.35,5.43,18.48Z"/><path class="cls-104" d="M5.42,18.42c-.21.14-1,.07-1-.05s.56-.68.81-.66S5.57,18.33,5.42,18.42Z"/><path class="cls-11" d="M4.34,18.38h0c0-.1.06-.23.14-.33a1.28,1.28,0,0,1,.7-.44c.15,0,.27.19.34.47s.05.55-.07.63a1.08,1.08,0,0,1-.79-.07C4.55,18.59,4.36,18.5,4.34,18.38Zm1.12-.29c-.06-.25-.17-.41-.28-.42a1.21,1.21,0,0,0-.65.41.42.42,0,0,0-.13.28h0c0,.07.12.15.29.21a1,1,0,0,0,.73.08C5.5,18.59,5.51,18.34,5.46,18.09Z"/><path class="cls-105" d="M6.63,20.09c-.09.24-.87.53-1,.38s0-.94.24-1.07S6.71,19.87,6.63,20.09Z"/><path class="cls-106" d="M6.51,19.93c-.09.24-.83.62-.93.54s0-.94.24-1.07S6.59,19.72,6.51,19.93Z"/><path class="cls-107" d="M6.47,19.89c-.09.24-.76.63-.85.55s.06-.88.27-1S6.53,19.73,6.47,19.89Z"/><path class="cls-11" d="M5.56,20.49h0c-.08-.07-.08-.23-.07-.35a1.22,1.22,0,0,1,.31-.77c.12-.08.32,0,.54.18s.37.42.32.55-.4.34-.68.41A.55.55,0,0,1,5.56,20.49Zm.74-.89c-.19-.16-.37-.23-.47-.17a1.18,1.18,0,0,0-.28.71c0,.15,0,.26.06.3l0,0,0,0s.18,0,.35,0a1.13,1.13,0,0,0,.64-.37C6.63,20,6.5,19.77,6.3,19.6Z"/><path class="cls-108" d="M8.8,20.64c.06.25-.43.92-.66.89s-.5-.8-.4-1S8.75,20.41,8.8,20.64Z"/><path class="cls-109" d="M8.62,20.57a1.42,1.42,0,0,1-.48,1c-.24,0-.5-.8-.4-1S8.57,20.35,8.62,20.57Z"/><path class="cls-110" d="M8.56,20.56c.06.25-.28.94-.41.92s-.43-.76-.33-1S8.52,20.39,8.56,20.56Z"/><path class="cls-11" d="M8.14,21.56h0c-.1,0-.2-.15-.25-.26a1.23,1.23,0,0,1-.17-.81c.06-.13.27-.18.56-.14s.53.14.56.28a1.06,1.06,0,0,1-.34.71C8.41,21.43,8.26,21.58,8.14,21.56Zm.12-1.15c-.25,0-.44,0-.49.11a1.17,1.17,0,0,0,.16.75c.07.14.15.22.21.23v0a.51.51,0,0,0,.29-.2,1,1,0,0,0,.33-.66C8.75,20.55,8.52,20.44,8.26,20.41Z"/><path class="cls-111" d="M10.59,10.2h0a1.27,1.27,0,0,0-1.64-.64,1.5,1.5,0,0,0,.16.32,2.24,2.24,0,0,0,.23.29,2.49,2.49,0,0,0,.75.39h0A1,1,0,0,1,10.59,10.2Z"/><path class="cls-112" d="M14.39,13.94a2.82,2.82,0,0,0-1.45-1.39v0a.75.75,0,0,0-.54.44h0a2.44,2.44,0,0,0,1.65,1.57h0A1,1,0,0,1,14.39,13.94Z"/><path class="cls-113" d="M18.24,15.71h0a4,4,0,0,0-2-.77v0a1,1,0,0,1-.22.71,3,3,0,0,0,2.22.62h0A1.41,1.41,0,0,0,18.24,15.71Z"/><path class="cls-114" d="M20.79,16h0a4.39,4.39,0,0,0-2.54-.26,1.41,1.41,0,0,1,0,.54,2.63,2.63,0,0,0,2.53.28h0A1,1,0,0,0,20.79,16Z"/><path class="cls-115" d="M23.28,16a3.38,3.38,0,0,0-2.49,0,1,1,0,0,1,0,.58,3.33,3.33,0,0,0,2.59,0h0A.88.88,0,0,0,23.28,16Z"/><path class="cls-116" d="M29.25,13a.31.31,0,0,0-.43.42,3.65,3.65,0,0,0-1.11.86.9.9,0,0,1,.4.55h0a2.78,2.78,0,0,0,1.39-1.06A.55.55,0,0,0,29.25,13Z"/><path class="cls-117" d="M27.71,14.3h0A2.11,2.11,0,0,0,26,15.57a1,1,0,0,1,.22.5,3.39,3.39,0,0,0,1.9-1.22A.9.9,0,0,0,27.71,14.3Z"/><path class="cls-118" d="M26,15.58a3.47,3.47,0,0,0-2.69.39h0a.89.89,0,0,1,.07.6,3.51,3.51,0,0,0,2.82-.5h0a1,1,0,0,0-.22-.5Z"/><path class="cls-119" d="M16.2,14.92a3,3,0,0,0-1.81-1h0a1,1,0,0,0-.33.61A2.86,2.86,0,0,0,16,15.63h0A1,1,0,0,0,16.2,14.92Z"/><path class="cls-120" d="M12.94,12.53a2,2,0,0,0-1.24-1.12h0a.77.77,0,0,0-.38.5h0c.12.24.64.95,1.08,1.07A.75.75,0,0,1,12.94,12.53Z"/><path class="cls-121" d="M11.69,11.4a1.59,1.59,0,0,0-1.1-1.2,1,1,0,0,0-.51.36,1.42,1.42,0,0,0,1.23,1.34A.77.77,0,0,1,11.69,11.4Z"/><path class="cls-122" d="M10.58,10.19A1.25,1.25,0,0,0,9,9.56a2.87,2.87,0,0,0,1.28.83,1,1,0,0,1,.36-.19Z"/><path class="cls-123" d="M10.58,10.19A1.25,1.25,0,0,0,9,9.56a2.87,2.87,0,0,0,1.28.83,1,1,0,0,1,.36-.19Z"/><path class="cls-124" d="M11.69,11.4a1.59,1.59,0,0,0-1.1-1.2,1,1,0,0,0-.36.19h0a1.33,1.33,0,0,0,1.14,1.34A.66.66,0,0,1,11.69,11.4Z"/><path class="cls-125" d="M11.69,11.4a1.59,1.59,0,0,0-1.1-1.2,1,1,0,0,0-.36.19h0a1.33,1.33,0,0,0,1.14,1.34A.66.66,0,0,1,11.69,11.4Z"/><path class="cls-126" d="M12.94,12.53a2,2,0,0,0-1.24-1.12h0a.66.66,0,0,0-.31.33h0c.11.23.66,1,1.14,1h0A.69.69,0,0,1,12.94,12.53Z"/><path class="cls-127" d="M12.94,12.53a2,2,0,0,0-1.24-1.12h0a.66.66,0,0,0-.31.33h0c.11.23.66,1,1.14,1h0A.69.69,0,0,1,12.94,12.53Z"/><path class="cls-128" d="M14.39,13.94a2.82,2.82,0,0,0-1.45-1.39v0a.69.69,0,0,0-.41.24,2.48,2.48,0,0,0,1.59,1.57A.8.8,0,0,1,14.39,13.94Z"/><path class="cls-129" d="M14.39,13.94a2.82,2.82,0,0,0-1.45-1.39v0a.69.69,0,0,0-.41.24,2.48,2.48,0,0,0,1.59,1.57A.8.8,0,0,1,14.39,13.94Z"/><path class="cls-130" d="M16.2,14.92a3,3,0,0,0-1.81-1h0a.8.8,0,0,0-.27.4h0a2.93,2.93,0,0,0,2,1.07v0A1.13,1.13,0,0,0,16.2,14.92Z"/><path class="cls-131" d="M16.2,14.92a3,3,0,0,0-1.81-1h0a.8.8,0,0,0-.27.4h0a2.93,2.93,0,0,0,2,1.07v0A1.13,1.13,0,0,0,16.2,14.92Z"/><path class="cls-132" d="M18.24,15.71h0a4,4,0,0,0-2-.77v0a1.13,1.13,0,0,1-.09.51,2.78,2.78,0,0,0,2.14.62A1.9,1.9,0,0,0,18.24,15.71Z"/><path class="cls-133" d="M18.24,15.71h0a4,4,0,0,0-2-.77v0a1.13,1.13,0,0,1-.09.51,2.78,2.78,0,0,0,2.14.62A1.9,1.9,0,0,0,18.24,15.71Z"/><path class="cls-134" d="M20.79,16h0a4.39,4.39,0,0,0-2.54-.26,1.9,1.9,0,0,1,0,.34h0a3,3,0,0,0,2.53.31h0A.78.78,0,0,0,20.79,16Z"/><path class="cls-135" d="M20.79,16h0a4.39,4.39,0,0,0-2.54-.26,1.9,1.9,0,0,1,0,.34h0a3,3,0,0,0,2.53.31h0A.78.78,0,0,0,20.79,16Z"/><path class="cls-136" d="M26,15.58a3.47,3.47,0,0,0-2.69.39h0a1.17,1.17,0,0,1,.09.32,3.55,3.55,0,0,0,2.77-.45.92.92,0,0,0-.16-.27Z"/><path class="cls-137" d="M26,15.58a3.47,3.47,0,0,0-2.69.39h0a1.17,1.17,0,0,1,.09.32,3.55,3.55,0,0,0,2.77-.45.92.92,0,0,0-.16-.27Z"/><path class="cls-138" d="M27.71,14.3h0A2.11,2.11,0,0,0,26,15.57a.92.92,0,0,1,.16.27h0A3.22,3.22,0,0,0,28,14.62.86.86,0,0,0,27.71,14.3Z"/><path class="cls-139" d="M27.71,14.3h0A2.11,2.11,0,0,0,26,15.57a.92.92,0,0,1,.16.27h0A3.22,3.22,0,0,0,28,14.62.86.86,0,0,0,27.71,14.3Z"/><path class="cls-140" d="M29.25,13a.31.31,0,0,0-.43.42,3.65,3.65,0,0,0-1.11.86.86.86,0,0,1,.31.32h0a2.4,2.4,0,0,0,1.31-.93C29.46,13.5,29.63,13.18,29.25,13Z"/><path class="cls-141" d="M29.25,13a.31.31,0,0,0-.43.42,3.65,3.65,0,0,0-1.11.86.86.86,0,0,1,.31.32h0a2.4,2.4,0,0,0,1.31-.93C29.46,13.5,29.63,13.18,29.25,13Z"/><path class="cls-142" d="M20.79,16a.78.78,0,0,1,0,.4,3.1,3.1,0,0,0,2.53-.08h.05a1,1,0,0,0-.1-.33A3.38,3.38,0,0,0,20.79,16Z"/><path class="cls-143" d="M20.79,16a.78.78,0,0,1,0,.4,3.1,3.1,0,0,0,2.53-.08h.05a1,1,0,0,0-.1-.33A3.38,3.38,0,0,0,20.79,16Z"/><path class="cls-144" d="M29.26,13a.39.39,0,0,0-.18,0,.34.34,0,0,0-.31.19.31.31,0,0,0,0,.28,3.74,3.74,0,0,0-1.09.86A2.15,2.15,0,0,0,26,15.56a2.35,2.35,0,0,0-.82-.13,3.66,3.66,0,0,0-1.87.51,2.49,2.49,0,0,0-1.16-.24,3.61,3.61,0,0,0-1.34.24,3.28,3.28,0,0,0-1.61-.33,5.91,5.91,0,0,0-.92.07,4.29,4.29,0,0,0-2-.77,3,3,0,0,0-1.81-1A2.86,2.86,0,0,0,13,12.53a2,2,0,0,0-1.24-1.14,1.62,1.62,0,0,0-1.12-1.21,1.19,1.19,0,0,0-1.13-.74,1.83,1.83,0,0,0-.54.09h0v0a1.5,1.5,0,0,0,.16.32,2.22,2.22,0,0,0,.24.3,2.51,2.51,0,0,0,.74.39,1.44,1.44,0,0,0,1.24,1.36c.14.25.65.94,1.09,1.06A2.47,2.47,0,0,0,14,14.56a2.78,2.78,0,0,0,1.86,1.08H16a2.66,2.66,0,0,0,1.9.63h.33a2,2,0,0,0,1.41.48,3.66,3.66,0,0,0,1.14-.19,3.42,3.42,0,0,0,1.37.28,2.86,2.86,0,0,0,1.24-.25,3.56,3.56,0,0,0,.86.11,3.62,3.62,0,0,0,2-.6,3.52,3.52,0,0,0,1.95-1.24,2.76,2.76,0,0,0,1.39-1.07.67.67,0,0,0,0-.49A.5.5,0,0,0,29.26,13Zm.23.77a2.71,2.71,0,0,1-1.38,1.05h0a3.41,3.41,0,0,1-1.92,1.22h0a3.51,3.51,0,0,1-2,.6,3.55,3.55,0,0,1-.86-.1h0a2.75,2.75,0,0,1-1.22.24,3.25,3.25,0,0,1-1.36-.28h0a3.66,3.66,0,0,1-1.14.19,2,2,0,0,1-1.38-.47h-.36A2.58,2.58,0,0,1,16,15.61h0l-.08,0a2.73,2.73,0,0,1-1.83-1.06h0A2.43,2.43,0,0,1,12.43,13h0c-.43-.11-1-.84-1.07-1.06h0a1.43,1.43,0,0,1-1.21-1.33v0h0a2.32,2.32,0,0,1-.74-.39,1.91,1.91,0,0,1-.23-.28A2,2,0,0,1,9,9.57a1.63,1.63,0,0,1,.5-.08,1.14,1.14,0,0,1,1.09.71h0a1.57,1.57,0,0,1,1.1,1.2h0a1.92,1.92,0,0,1,1.23,1.11h0A2.86,2.86,0,0,1,14.37,14v0h0a2.89,2.89,0,0,1,1.8,1h0a4,4,0,0,1,2,.76h0a5.84,5.84,0,0,1,.93-.07,3.25,3.25,0,0,1,1.6.33h0a3.48,3.48,0,0,1,1.33-.25,2.49,2.49,0,0,1,1.16.25h0a3.61,3.61,0,0,1,1.85-.5,2.31,2.31,0,0,1,.82.13h0v0a2.14,2.14,0,0,1,1.7-1.26h0a3.67,3.67,0,0,1,1.11-.86h0l0,0a.24.24,0,0,1,0-.25.3.3,0,0,1,.27-.17.47.47,0,0,1,.16,0,.44.44,0,0,1,.27.28A.62.62,0,0,1,29.49,13.77Z"/><path class="cls-144" d="M10.06,10.53l0,0a1,1,0,0,1,.49-.34v-.05A1.11,1.11,0,0,0,10.06,10.53Z"/><path class="cls-144" d="M11.3,11.9h0a.54.54,0,0,1,.37-.47l0,0A.6.6,0,0,0,11.3,11.9Z"/><path class="cls-144" d="M12.38,13l0,0a.55.55,0,0,1,.51-.41v-.05A.62.62,0,0,0,12.38,13Z"/><path class="cls-144" d="M14,14.54h.05a1,1,0,0,1,.33-.59l0,0A1,1,0,0,0,14,14.54Z"/><path class="cls-144" d="M16,15.61l0,0a1.12,1.12,0,0,0,.24-.7h0A1.2,1.2,0,0,1,16,15.61Z"/><path class="cls-144" d="M18.22,15.71a1.07,1.07,0,0,1,0,.53h0a.93.93,0,0,0,0-.55Z"/><path class="cls-144" d="M20.76,16a.85.85,0,0,1,0,.55l0,0a.82.82,0,0,0,0-.58Z"/><path class="cls-144" d="M23.27,16a1.08,1.08,0,0,1,.05.59h.05a1.15,1.15,0,0,0-.06-.61Z"/><path class="cls-144" d="M26,15.57l0,0a.6.6,0,0,1,.2.47h0A.63.63,0,0,0,26,15.57Z"/><path class="cls-144" d="M27.71,14.29l0,0a.78.78,0,0,1,.41.52h0A.82.82,0,0,0,27.71,14.29Z"/><path class="cls-144" d="M28.83,13.46a1.63,1.63,0,0,1,.3-.13.79.79,0,0,0-.32.09Z"/><path class="cls-145" d="M5.93.54A4.28,4.28,0,0,0,1.7,4.22,2.13,2.13,0,0,0,.1,5.78a3.08,3.08,0,0,0,.92,3,2.58,2.58,0,0,0,2.18,0,1.22,1.22,0,0,1,.35.51c.17.37.29.87.71,1.08A1.62,1.62,0,0,0,6,9.9c.61-.52,2.13.13,3.83-.7a3.07,3.07,0,0,0,1.7-4.08C11.42,3.88,10.67.35,5.93.54Z"/><path class="cls-146" d="M7.88.89a1.15,1.15,0,0,1,0,.56A1.54,1.54,0,0,0,7.56.7,5.89,5.89,0,0,0,5.93.54,4.28,4.28,0,0,0,1.7,4.22,2.13,2.13,0,0,0,.1,5.78,3.15,3.15,0,0,0,.94,8.69a2.33,2.33,0,0,0,1.69,0,6.37,6.37,0,0,0,3.08-2.1A4,4,0,0,1,3.23,8.72c.19.16.45.94.67,1.23.36.5,1.51.92,2.37-.7a5.92,5.92,0,0,0,3.38-.56c1.29-.63,1.88-2.18,1.12-4.18A3.8,3.8,0,0,0,7.88.89Z"/><path class="cls-147" d="M5.86,2.63C4.68,2.61,4,2,4.39.85A3.77,3.77,0,0,0,1.71,4.22,2.16,2.16,0,0,0,.13,5.8,2.53,2.53,0,0,0,.85,8.39a2.68,2.68,0,0,0,1.77.18A6.1,6.1,0,0,0,5.18,6.93,10.3,10.3,0,0,0,5.86,2.63Z"/><path class="cls-148" d="M2.36,4.3A2,2,0,0,0,.08,6.43c0,.4.53.13.62-.42A1.9,1.9,0,0,1,2.36,4.3Z"/><path class="cls-149" d="M3.24,8.71c.56.59.63,1.81,1.67,1.68a1.78,1.78,0,0,0,1.22-1c.22-.68,0-1.62.19-2.67a1.27,1.27,0,0,1-.56-.17A4.1,4.1,0,0,1,3.24,8.71Z"/><path class="cls-150" d="M5.77,9.62s-1.09.86-1.84.12C4.36,10.57,5.31,10.25,5.77,9.62Z"/><path class="cls-151" d="M2.92.83a1.23,1.23,0,0,0-.51,1.52A4.18,4.18,0,0,1,4.55.8l0,0A1.23,1.23,0,0,0,2.92.83Z"/><path class="cls-152" d="M2.91.86a1.23,1.23,0,0,0-.49,1.52A4.1,4.1,0,0,1,4.54.82l0,0A1.24,1.24,0,0,0,2.91.86Z"/><path class="cls-153" d="M4.25.63a1.47,1.47,0,0,0-1.83.94c-.06.28.3.22.46-.15A1.3,1.3,0,0,1,4.25.63Z"/><path class="cls-7" d="M4.53.75A.88.88,0,0,0,3.79.48a1.66,1.66,0,0,0-.88.34,1.26,1.26,0,0,0-.52,1.54l0,0v0A4.19,4.19,0,0,1,4.55.82h0v0ZM2.41,2.31A1.22,1.22,0,0,1,2.93.85,1.62,1.62,0,0,1,3.8.52a.86.86,0,0,1,.7.25l0,0A4.24,4.24,0,0,0,2.41,2.31Z"/><path class="cls-6" d="M4,1a4.26,4.26,0,0,0-.81.49.43.43,0,0,0,0,.05c.09.16.35.18.59.06s.37-.36.29-.51A.24.24,0,0,0,4,1Z"/><path class="cls-6" d="M2.89,1.78a2.91,2.91,0,0,0-.33.37.35.35,0,0,0,0,.08s.29,0,.36,0a.38.38,0,0,0,0-.37A.19.19,0,0,0,2.89,1.78Z"/><path class="cls-7" d="M5.93.52h0a5,5,0,0,0-2.36.74,4,4,0,0,0-1.84,3s-.08,0-.14.06A1.94,1.94,0,0,0,.08,5.78a3.12,3.12,0,0,0,.93,3A1.54,1.54,0,0,0,2,9a5.8,5.8,0,0,0,1.21-.24,1.1,1.1,0,0,1,.34.5,1.33,1.33,0,0,1,.1.24,1.54,1.54,0,0,0,.62.85,1.36,1.36,0,0,0,.61.11A1.84,1.84,0,0,0,6,9.92a1.3,1.3,0,0,1,.78-.23H8a4.7,4.7,0,0,0,1.9-.45,3.09,3.09,0,0,0,1.71-4.1C11.42,3.67,10.55.34,5.93.52ZM9.85,9.19A4.75,4.75,0,0,1,8,9.63c-.23,0-.44,0-.65,0h-.5a1.3,1.3,0,0,0-.8.23,1.81,1.81,0,0,1-1.16.53,1.14,1.14,0,0,1-.59-.12,1.38,1.38,0,0,1-.6-.83,2.44,2.44,0,0,1-.1-.24,1.55,1.55,0,0,0-.36-.52h0A4.82,4.82,0,0,1,2,9,1.53,1.53,0,0,1,1,8.74a3.09,3.09,0,0,1-.91-3A1.92,1.92,0,0,1,1.56,4.3c.11,0,.16,0,.16-.08A4,4,0,0,1,3.55,1.29,5,5,0,0,1,5.9.56h0c4.59-.18,5.45,3.13,5.61,4.57h0A3.05,3.05,0,0,1,9.85,9.19Z"/><path class="cls-7" d="M3.19,8.71v0A4.28,4.28,0,0,0,5.74,6.62h0A4.25,4.25,0,0,1,3.19,8.71Z"/><path class="cls-7" d="M5.65,6.55a3.2,3.2,0,0,1-.31-.22,1.46,1.46,0,0,0,1.29.47l-.37-.06A1.57,1.57,0,0,1,5.65,6.55Z"/><path class="cls-7" d="M6,10a1.12,1.12,0,0,0,.27-.59,1.44,1.44,0,0,1-.3.56Z"/><path class="cls-154" d="M3.64,8.56A1.28,1.28,0,0,1,4,9.18c.12.44.32.83,1,.71s.93-.68.94-1.61a2.55,2.55,0,0,1,.36-1.52,2.67,2.67,0,0,1-.49-.14A4.1,4.1,0,0,1,3.64,8.56Z"/><path class="cls-155" d="M3.64,8.56A1.28,1.28,0,0,1,4,9.18a.89.89,0,0,0,.51.7A1.39,1.39,0,0,1,4.69,8c.87-.45,1,.55,1.14.76a3.38,3.38,0,0,0,0-.47,2.55,2.55,0,0,1,.36-1.52,2.67,2.67,0,0,1-.49-.14A4.1,4.1,0,0,1,3.64,8.56Z"/><path class="cls-156" d="M4.87,8.83A.73.73,0,0,0,4,9.35a.72.72,0,0,0,.92.54c.65-.12.93-.68.94-1.61v0A1,1,0,0,0,4.87,8.83Z"/><path class="cls-157" d="M5.73,8.53c-.19-.29-.8,0-.91.58-.2-.42-.68-.14-.72.45.07.21.26.43.82.33A1.12,1.12,0,0,0,5.73,8.53Z"/><path class="cls-158" d="M4.82,9.13c-.07-.26-.39-.23-.53-.05a.58.58,0,0,0-.11.58c.09.22.58.27.58.17A2.72,2.72,0,0,1,4.82,9.13Z"/><path class="cls-159" d="M5.56,8.49c-.39-.14-.65.32-.73.55s-.08.82.06.82a.86.86,0,0,0,.67-.44C5.7,9.17,5.79,8.57,5.56,8.49Z"/><path class="cls-160" d="M5.69,8.23a1,1,0,0,0-.83.58A.77.77,0,0,0,4,9.35H4a.73.73,0,0,0,.77.57h0l.17,0c.64-.12,1-.65,1-1.63v0H5.69Zm.15,0c0,1-.31,1.48-.92,1.6l-.17,0h0A.69.69,0,0,1,4,9.35a.73.73,0,0,1,.63-.52l.21,0h0a.92.92,0,0,1,.8-.57h.15Z"/><path class="cls-7" d="M5.74,6.6h0v0A4,4,0,0,1,3.63,8.54h0l0,0a1.26,1.26,0,0,1,.31.62c.11.38.28.77.82.74l.17,0c.64-.12,1-.65,1-1.63a2.65,2.65,0,0,1,.35-1.51l0,0h0A2,2,0,0,1,5.74,6.6Zm.1,1.68c0,1-.31,1.48-.92,1.6l-.17,0c-.51,0-.68-.35-.78-.72a1.33,1.33,0,0,0-.3-.61A4.14,4.14,0,0,0,5.74,6.64a1.69,1.69,0,0,0,.45.13A2.65,2.65,0,0,0,5.84,8.28Z"/><path class="cls-160" d="M4.79,9.21a2.71,2.71,0,0,1,.1-.37h0A1.53,1.53,0,0,0,4.79,9.21Z"/><path class="cls-7" d="M11,4.55a3.83,3.83,0,0,1,.51.58h0A1.92,1.92,0,0,0,11,4.55Z"/><path class="cls-161" d="M6,0a1.71,1.71,0,0,0-1.7,1.69l3.62-.26A1.7,1.7,0,0,0,6,0Z"/><path class="cls-162" d="M7.85,1.47A1.68,1.68,0,0,0,6,.05,1.6,1.6,0,0,0,4.35,1.74C4.43,3.06,8,3.06,7.85,1.47Z"/><path class="cls-163" d="M7.41.57a1.84,1.84,0,0,0-3,.52c-.1.39.32.26.7-.15A2.19,2.19,0,0,1,7.41.57Z"/><path class="cls-7" d="M6,0A1.73,1.73,0,0,0,4.25,1.72a2,2,0,0,1,.14-.62A1.83,1.83,0,0,1,6,0,1.83,1.83,0,0,1,7.64.79a1.81,1.81,0,0,1,.27.66A1.71,1.71,0,0,0,6,0Z"/><path class="cls-164" d="M1.45,5.28c.15,0,.25.17.24.36S1.54,6,1.4,6a.3.3,0,0,1-.23-.36A.3.3,0,0,1,1.45,5.28Z"/><path class="cls-165" d="M1.45,5.28c.15,0,.25.17.24.36S1.54,6,1.4,6a.3.3,0,0,1-.23-.36A.3.3,0,0,1,1.45,5.28Z"/><path class="cls-166" d="M1.47,5.28c-.31.16-.21.64.06.65A.19.19,0,0,1,1.4,6a.3.3,0,0,1-.23-.36A.3.3,0,0,1,1.47,5.28Z"/><path class="cls-167" d="M1.15,5.6A.33.33,0,0,0,1.36,6h0a.25.25,0,0,0,.21-.09.47.47,0,0,0,.1-.25.35.35,0,0,0-.21-.37h0C1.3,5.25,1.17,5.4,1.15,5.6Zm.3-.3h0a.31.31,0,0,1,.18.33.37.37,0,0,1-.09.22.19.19,0,0,1-.18.08h0a.31.31,0,0,1-.18-.34C1.2,5.43,1.32,5.29,1.45,5.3Z"/><path class="cls-6" d="M3.38,2a.63.63,0,0,0-.3.39c0,.09.18.21.35.19a.36.36,0,0,0,.29-.27A.61.61,0,0,0,3.38,2Z"/><path class="cls-6" d="M2.41,2.57a.69.69,0,0,0,0,.47c0,.07.39-.14.37-.28S2.44,2.55,2.41,2.57Z"/><path class="cls-6" d="M3,3.05a.57.57,0,0,0,0,.39.35.35,0,0,0,.29,0,.5.5,0,0,0,.06-.34A.36.36,0,0,0,3,3.05Z"/><path class="cls-6" d="M2.3,3.22s-.07.17-.06.29a.21.21,0,0,0,.23.16c.13-.07.1-.17.1-.23S2.39,3.19,2.3,3.22Z"/><path class="cls-168" d="M4.42.92A3.62,3.62,0,0,0,1.86,3.71c-.07.4.6.25.68-.21A3.47,3.47,0,0,1,4.42.92Z"/><path class="cls-6" d="M10.3,6a1,1,0,0,0-.33.66c0,.12.26.45.47.44s.43-.29.32-.78A.58.58,0,0,0,10.3,6Z"/><path class="cls-169" d="M11.35,6.62c-.1,0-.21.09-.26.26s0,.33.11.35.21-.09.25-.26S11.45,6.64,11.35,6.62Z"/><path class="cls-6" d="M9.44,5.87a.32.32,0,0,0-.09.23.56.56,0,0,0,.35.19c.08,0,.16-.27.12-.32A.93.93,0,0,0,9.44,5.87Z"/><path class="cls-6" d="M9.33,6.56c-.14,0-.24.33-.22.42a.26.26,0,0,0,.29.2c.14,0,.23-.24.22-.42S9.41,6.54,9.33,6.56Z"/><path class="cls-6" d="M8.53,6.8s-.13.17-.12.27.17.15.21.15S8.79,7,8.79,7,8.56,6.79,8.53,6.8Z"/><path class="cls-6" d="M8.85,7.41a.5.5,0,0,0-.18.41A.29.29,0,0,0,8.91,8c.13,0,.23-.32.21-.41A.45.45,0,0,0,8.85,7.41Z"/><path class="cls-6" d="M9.93,7.8a.51.51,0,0,0-.45.06.58.58,0,0,0-.12.39c0,.1.55.1.62,0A.47.47,0,0,0,9.93,7.8Z"/><path class="cls-169" d="M10.62,7.27a.86.86,0,0,0-.35.5.28.28,0,0,0,.18.22c.18,0,.49-.21.48-.31S10.76,7.28,10.62,7.27Z"/><path class="cls-6" d="M10.62,7.27a.86.86,0,0,0-.35.5.28.28,0,0,0,.18.22h.08a1.6,1.6,0,0,0,.32-.53A.34.34,0,0,0,10.62,7.27Z"/><path class="cls-170" d="M5.27,1.6c-.71.16-.75,1.65-.58,2.54C5,5.46,5.87,5.56,6.5,5.21a1.23,1.23,0,0,1,1-.2C7.86,2.7,6.84,1.23,5.27,1.6Z"/><path class="cls-171" d="M5.51,2.1c-.67.23-.91,1.23-.73,2.12.27,1.33,1.08,1.36,1.75,1.13a1.51,1.51,0,0,0,.68-2C6.91,2.51,6.14,1.88,5.51,2.1Z"/><path class="cls-172" d="M5.51,2.1c-.67.23-.91,1.23-.73,2.12.27,1.33,1.08,1.36,1.75,1.13a1.51,1.51,0,0,0,.68-2C6.91,2.51,6.14,1.88,5.51,2.1Z"/><path class="cls-173" d="M6,2.48a.27.27,0,0,1-.53,0,.27.27,0,0,1,.25-.28A.28.28,0,0,1,6,2.48Z"/><path class="cls-174" d="M6,2.76a1.16,1.16,0,0,0-.61,1.4c.12.65.6,1.08,1.07,1A1.17,1.17,0,0,0,7,3.72C6.91,3.07,6.43,2.64,6,2.76Z"/><path d="M6.07,3.29a.73.73,0,0,0-.41.9c.08.43.41.71.72.63a.74.74,0,0,0,.41-.91C6.71,3.49,6.38,3.21,6.07,3.29Z"/><path class="cls-175" d="M6.63,3.63a.2.2,0,0,1-.2.21.22.22,0,0,1-.21-.2.21.21,0,0,1,.2-.21A.19.19,0,0,1,6.63,3.63Z"/><path class="cls-176" d="M5.63,3.12c-.19.23-.24.51-.11.63s.39,0,.58-.2.25-.52.12-.63S5.83,2.89,5.63,3.12Z"/><path d="M5.46,2c-.71.25-.88,1.41-.7,2.26a1.57,1.57,0,0,0,.65,1.13,1.37,1.37,0,0,0,1.13,0c.68-.24,1-1.08.66-2.09S6.08,1.75,5.46,2ZM6.53,5.33a1.28,1.28,0,0,1-1.09,0,1.5,1.5,0,0,1-.64-1.1c-.17-.83,0-1.85.72-2.09s1.36.37,1.67,1.26A1.49,1.49,0,0,1,6.53,5.33Z"/><path class="cls-177" d="M5.09,6l2.68-.9A2,2,0,0,0,5.09,6Z"/><path class="cls-178" d="M5.12,6.11a1.78,1.78,0,0,1,2.69-1c.77.44.13,1.28-.74,1.56S5,6.49,5.12,6.11Z"/><path class="cls-179" d="M7.55,5.31c.08.28-.34.64-.92.81s-1.13.07-1.21-.21.31-.77.9-.93S7.47,5,7.55,5.31Z"/><path class="cls-7" d="M6.23,4.91A2,2,0,0,0,5.08,6,2.13,2.13,0,0,1,6.25,5a2.11,2.11,0,0,1,1.5.12A1.88,1.88,0,0,0,6.23,4.91Z"/></g></g></g></g></g></svg>