<svg xmlns="http://www.w3.org/2000/svg" xmlns:xlink="http://www.w3.org/1999/xlink" viewBox="0 0 170.09 175.55"><defs><style>.cls-1,.cls-2,.cls-3,.cls-4,.cls-5{stroke:#000;}.cls-1{fill:url(#linear-gradient);}.cls-2{fill:url(#linear-gradient-2);}.cls-3{fill:#109dc5;}.cls-4{fill:url(#linear-gradient-3);}.cls-5{font-size:24px;fill:#18a8cb;stroke-miterlimit:10;font-family:MyriadPro-Regular, Myriad Pro;}.cls-6{letter-spacing:0.01em;}.cls-7{letter-spacing:-0.09em;}.cls-8{fill:none;stroke:url(#linear-gradient-4);}</style><linearGradient id="linear-gradient" x1="24.36" y1="77.95" x2="143.11" y2="77.95" gradientUnits="userSpaceOnUse"><stop offset="0" stop-color="#21a7cb"/><stop offset="0.24" stop-color="#2aabcd"/><stop offset="0.52" stop-color="#fff"/><stop offset="0.86" stop-color="#21a7cb"/></linearGradient><linearGradient id="linear-gradient-2" x1="70.73" y1="102.62" x2="93.66" y2="102.62" xlink:href="#linear-gradient"/><linearGradient id="linear-gradient-3" x1="80.05" y1="50.04" x2="91.43" y2="51.78" xlink:href="#linear-gradient"/><linearGradient id="linear-gradient-4" x1="0" y1="87.77" x2="170.09" y2="87.77" xlink:href="#linear-gradient"/></defs><g id="Layer_2" data-name="Layer 2"><g id="Guides"><polygon class="cls-1" points="114.06 129.01 54.69 129.75 24.36 78.69 53.41 26.9 112.79 26.16 143.11 77.22 114.06 129.01"/><g id="MaaLTECH"><g id="MaaLTECH-2" data-name="MaaLTECH"><path class="cls-2" d="M92.27,109.22c-15.11,40-24.59-9.48-20.64-19.42,1.47-.36,4.66,14,8.31,13.61,4.48-.45,3.71-22.49,7.17-22.78C90,80.4,96.5,95.29,92.27,109.22Z"/><path class="cls-3" d="M94.85,50.93c-.07,21.39-17.36,21.38-17.42,0S94.78,29.55,94.85,50.93Z"/><path class="cls-4" d="M91.3,50.93c.12,16.25-11,16.25-10.86,0C80.32,34.68,91.42,34.68,91.3,50.93Z"/><text class="cls-5" transform="translate(33.59 148.53) scale(0.99 1)"><tspan class="cls-6">M</tspan><tspan x="19.44" y="0">aa</tspan><tspan class="cls-7" x="42.58" y="0">L</tspan><tspan x="51.79" y="0">TECH</tspan></text></g></g><ellipse class="cls-8" cx="85.05" cy="87.77" rx="84.55" ry="87.27"/></g></g></svg>