<svg xmlns="http://www.w3.org/2000/svg" xmlns:xlink="http://www.w3.org/1999/xlink" viewBox="0 0 21.68 28.89"><defs><style>.cls-1{isolation:isolate;}.cls-2{fill:url(#radial-gradient);}.cls-3{fill:url(#radial-gradient-2);}.cls-103,.cls-106,.cls-109,.cls-112,.cls-115,.cls-118,.cls-12,.cls-121,.cls-124,.cls-127,.cls-128,.cls-129,.cls-130,.cls-131,.cls-132,.cls-138,.cls-139,.cls-142,.cls-143,.cls-147,.cls-149,.cls-15,.cls-150,.cls-152,.cls-153,.cls-156,.cls-158,.cls-159,.cls-162,.cls-163,.cls-164,.cls-165,.cls-17,.cls-171,.cls-172,.cls-173,.cls-174,.cls-177,.cls-180,.cls-183,.cls-20,.cls-22,.cls-24,.cls-32,.cls-34,.cls-36,.cls-38,.cls-4,.cls-44,.cls-47,.cls-51,.cls-54,.cls-57,.cls-58,.cls-59,.cls-61,.cls-64,.cls-65,.cls-69,.cls-72,.cls-75,.cls-80,.cls-83,.cls-86,.cls-9,.cls-90,.cls-91,.cls-92,.cls-96,.cls-99{mix-blend-mode:screen;}.cls-4{fill:url(#radial-gradient-3);}.cls-5{fill:#200908;}.cls-6{fill:url(#radial-gradient-4);}.cls-7{fill:url(#radial-gradient-5);}.cls-8{fill:url(#radial-gradient-6);}.cls-9{fill:url(#radial-gradient-7);}.cls-10{fill:url(#radial-gradient-8);}.cls-11{fill:url(#radial-gradient-9);}.cls-12{fill:url(#radial-gradient-10);}.cls-13{fill:#863609;}.cls-14{fill:url(#radial-gradient-11);}.cls-15{fill:url(#radial-gradient-12);}.cls-16{fill:url(#radial-gradient-13);}.cls-17{fill:url(#radial-gradient-14);}.cls-18{fill:url(#radial-gradient-15);}.cls-19{fill:url(#radial-gradient-16);}.cls-20{fill:url(#radial-gradient-17);}.cls-21{fill:url(#radial-gradient-18);}.cls-22{fill:url(#radial-gradient-19);}.cls-23{fill:url(#radial-gradient-20);}.cls-24{fill:url(#radial-gradient-21);}.cls-25{fill:#a16826;}.cls-26{fill:#d68b32;}.cls-27{fill:#f2aa68;}.cls-28{fill:url(#radial-gradient-22);}.cls-29{fill:url(#radial-gradient-23);}.cls-30{fill:#244d16;}.cls-31{fill:url(#radial-gradient-24);}.cls-32{fill:url(#radial-gradient-25);}.cls-33{fill:url(#radial-gradient-26);}.cls-34{fill:url(#radial-gradient-27);}.cls-35{fill:url(#radial-gradient-28);}.cls-36{fill:url(#radial-gradient-29);}.cls-37{fill:url(#radial-gradient-30);}.cls-38{fill:url(#radial-gradient-31);}.cls-39{fill:url(#radial-gradient-32);}.cls-40{fill:url(#radial-gradient-33);}.cls-41{fill:url(#radial-gradient-34);}.cls-42{fill:url(#radial-gradient-35);}.cls-43{fill:url(#radial-gradient-36);}.cls-44{fill:url(#radial-gradient-37);}.cls-45{fill:url(#radial-gradient-38);}.cls-46{fill:url(#radial-gradient-39);}.cls-47{fill:url(#linear-gradient);}.cls-48{fill:#d0a074;}.cls-49{fill:url(#radial-gradient-40);}.cls-50{fill:url(#radial-gradient-41);}.cls-51{fill:url(#linear-gradient-2);}.cls-52{fill:url(#radial-gradient-42);}.cls-53{fill:url(#radial-gradient-43);}.cls-54{fill:url(#linear-gradient-3);}.cls-55{fill:url(#radial-gradient-44);}.cls-56{fill:url(#radial-gradient-45);}.cls-57{fill:url(#linear-gradient-4);}.cls-58{fill:url(#radial-gradient-46);}.cls-59{fill:url(#linear-gradient-5);}.cls-60{fill:#2d7521;}.cls-61{fill:url(#linear-gradient-6);}.cls-62{fill:url(#radial-gradient-47);}.cls-63{fill:url(#radial-gradient-48);}.cls-64{fill:url(#radial-gradient-49);}.cls-65{fill:url(#linear-gradient-7);}.cls-66{fill:#225d1d;}.cls-67{fill:url(#radial-gradient-50);}.cls-68{fill:url(#radial-gradient-51);}.cls-69{fill:url(#linear-gradient-8);}.cls-70{fill:url(#radial-gradient-52);}.cls-71{fill:url(#radial-gradient-53);}.cls-72{fill:url(#linear-gradient-9);}.cls-73{fill:url(#radial-gradient-54);}.cls-74{fill:url(#radial-gradient-55);}.cls-75{fill:url(#linear-gradient-10);}.cls-76{fill:url(#radial-gradient-56);}.cls-77{fill:url(#radial-gradient-57);}.cls-78{fill:url(#radial-gradient-58);}.cls-79{fill:url(#radial-gradient-59);}.cls-80{fill:url(#linear-gradient-11);}.cls-81{fill:url(#radial-gradient-60);}.cls-82{fill:url(#radial-gradient-61);}.cls-83{fill:url(#linear-gradient-12);}.cls-84{fill:url(#radial-gradient-62);}.cls-85{fill:url(#radial-gradient-63);}.cls-86{fill:url(#linear-gradient-13);}.cls-87{fill:url(#radial-gradient-64);}.cls-88{fill:#87c229;}.cls-89{fill:url(#radial-gradient-65);}.cls-90{fill:url(#radial-gradient-66);}.cls-91{fill:url(#linear-gradient-14);}.cls-92{fill:url(#radial-gradient-67);}.cls-93{fill:#307d23;}.cls-94{fill:url(#radial-gradient-68);}.cls-95{fill:url(#radial-gradient-69);}.cls-96{fill:url(#linear-gradient-15);}.cls-97{fill:url(#radial-gradient-70);}.cls-98{fill:url(#radial-gradient-71);}.cls-99{fill:url(#linear-gradient-16);}.cls-100{fill:#965e11;}.cls-101{fill:url(#radial-gradient-72);}.cls-102{fill:url(#radial-gradient-73);}.cls-103{fill:url(#linear-gradient-17);}.cls-104{fill:url(#radial-gradient-74);}.cls-105{fill:url(#radial-gradient-75);}.cls-106{fill:url(#linear-gradient-18);}.cls-107{fill:url(#radial-gradient-76);}.cls-108{fill:url(#radial-gradient-77);}.cls-109{fill:url(#linear-gradient-19);}.cls-110{fill:url(#radial-gradient-78);}.cls-111{fill:url(#radial-gradient-79);}.cls-112{fill:url(#linear-gradient-20);}.cls-113{fill:url(#radial-gradient-80);}.cls-114{fill:url(#radial-gradient-81);}.cls-115{fill:url(#linear-gradient-21);}.cls-116{fill:url(#radial-gradient-82);}.cls-117{fill:url(#radial-gradient-83);}.cls-118{fill:url(#linear-gradient-22);}.cls-119{fill:url(#radial-gradient-84);}.cls-120{fill:url(#radial-gradient-85);}.cls-121{fill:url(#linear-gradient-23);}.cls-122{fill:url(#radial-gradient-86);}.cls-123{fill:url(#radial-gradient-87);}.cls-124{fill:url(#linear-gradient-24);}.cls-125{fill:url(#radial-gradient-88);}.cls-126{fill:url(#radial-gradient-89);}.cls-127{fill:url(#radial-gradient-90);}.cls-128{fill:url(#linear-gradient-25);}.cls-129{fill:url(#radial-gradient-91);}.cls-130{fill:url(#linear-gradient-26);}.cls-131{fill:url(#radial-gradient-92);}.cls-132{opacity:0.7;fill:url(#linear-gradient-27);}.cls-133{fill:url(#radial-gradient-93);}.cls-134{fill:url(#radial-gradient-94);}.cls-135{fill:url(#radial-gradient-95);}.cls-136{fill:url(#linear-gradient-28);}.cls-137{fill:url(#linear-gradient-29);}.cls-138{fill:url(#radial-gradient-96);}.cls-139{fill:url(#radial-gradient-97);}.cls-140{fill:#df4a4b;}.cls-141{fill:url(#radial-gradient-98);}.cls-142{fill:url(#radial-gradient-99);}.cls-143{fill:url(#linear-gradient-30);}.cls-144,.cls-154{mix-blend-mode:multiply;}.cls-144{fill:url(#radial-gradient-100);}.cls-145{fill:#fff;}.cls-146{fill:url(#radial-gradient-101);}.cls-147,.cls-156{opacity:0.6;}.cls-147{fill:url(#radial-gradient-102);}.cls-148{fill:url(#radial-gradient-103);}.cls-149,.cls-158{opacity:0.5;}.cls-149{fill:url(#radial-gradient-104);}.cls-150{fill:url(#linear-gradient-31);}.cls-151{fill:url(#radial-gradient-105);}.cls-152{fill:url(#radial-gradient-106);}.cls-153{fill:url(#linear-gradient-32);}.cls-154{fill:url(#radial-gradient-107);}.cls-155{fill:url(#radial-gradient-108);}.cls-156{fill:url(#radial-gradient-109);}.cls-157{fill:url(#radial-gradient-110);}.cls-158{fill:url(#radial-gradient-111);}.cls-159{fill:url(#linear-gradient-33);}.cls-160{fill:url(#radial-gradient-112);}.cls-161{fill:url(#radial-gradient-113);}.cls-162{fill:url(#radial-gradient-114);}.cls-163{fill:url(#linear-gradient-34);}.cls-164{fill:url(#radial-gradient-115);}.cls-165{fill:url(#linear-gradient-35);}.cls-166{fill:#14511b;}.cls-167{fill:#307a22;}.cls-168{fill:#26621e;}.cls-169{fill:url(#radial-gradient-116);}.cls-170{fill:url(#radial-gradient-117);}.cls-171{fill:url(#radial-gradient-118);}.cls-172{fill:url(#linear-gradient-36);}.cls-173{fill:url(#radial-gradient-119);}.cls-174{fill:url(#linear-gradient-37);}.cls-175{fill:url(#radial-gradient-120);}.cls-176{fill:url(#radial-gradient-121);}.cls-177{fill:url(#linear-gradient-38);}.cls-178{fill:url(#radial-gradient-122);}.cls-179{fill:url(#radial-gradient-123);}.cls-180{fill:url(#linear-gradient-39);}.cls-181{fill:url(#radial-gradient-124);}.cls-182{fill:url(#radial-gradient-125);}.cls-183{fill:url(#linear-gradient-40);}</style><radialGradient id="radial-gradient" cx="1.96" cy="15.64" r="1.86" gradientUnits="userSpaceOnUse"><stop offset="0" stop-color="#701709"/><stop offset="1" stop-color="#260707"/></radialGradient><radialGradient id="radial-gradient-2" cx="1.67" cy="15.73" r="0.92" gradientUnits="userSpaceOnUse"><stop offset="0" stop-color="#74300b"/><stop offset="1" stop-color="#491b07"/></radialGradient><radialGradient id="radial-gradient-3" cx="1.67" cy="15.73" r="0.92" gradientUnits="userSpaceOnUse"><stop offset="0" stop-color="#602a0c"/><stop offset="0.77"/><stop offset="1"/></radialGradient><radialGradient id="radial-gradient-4" cx="3.75" cy="12" r="1.1" xlink:href="#radial-gradient"/><radialGradient id="radial-gradient-5" cx="2.83" cy="13.59" r="1.86" xlink:href="#radial-gradient"/><radialGradient id="radial-gradient-6" cx="2.84" cy="13.56" r="1.2" xlink:href="#radial-gradient-2"/><radialGradient id="radial-gradient-7" cx="2.84" cy="13.56" r="1.2" xlink:href="#radial-gradient-3"/><radialGradient id="radial-gradient-8" cx="8.24" cy="13.79" r="4.81" gradientUnits="userSpaceOnUse"><stop offset="0" stop-color="#170b0b"/><stop offset="0.55" stop-color="#2e0606"/><stop offset="0.66" stop-color="#380906"/><stop offset="0.84" stop-color="#530f08"/><stop offset="1" stop-color="#701709"/></radialGradient><radialGradient id="radial-gradient-9" cx="3.46" cy="13.51" r="0.84" gradientUnits="userSpaceOnUse"><stop offset="0" stop-color="#d87f25"/><stop offset="1" stop-color="#c14e0c"/></radialGradient><radialGradient id="radial-gradient-10" cx="3.39" cy="14.04" r="0.84" gradientUnits="userSpaceOnUse"><stop offset="0" stop-color="#a4611e"/><stop offset="0.14" stop-color="#784716"/><stop offset="0.31" stop-color="#4d2e0e"/><stop offset="0.47" stop-color="#2c1a08"/><stop offset="0.62" stop-color="#140c04"/><stop offset="0.75" stop-color="#050301"/><stop offset="0.87"/><stop offset="1"/></radialGradient><radialGradient id="radial-gradient-11" cx="4.05" cy="12.03" r="1.16" xlink:href="#radial-gradient-9"/><radialGradient id="radial-gradient-12" cx="4.05" cy="12.03" r="1.16" xlink:href="#radial-gradient-10"/><radialGradient id="radial-gradient-13" cx="5.22" cy="10.05" r="1.15" xlink:href="#radial-gradient-9"/><radialGradient id="radial-gradient-14" cx="5.22" cy="10.05" r="1.15" xlink:href="#radial-gradient-10"/><radialGradient id="radial-gradient-15" cx="6.78" cy="8.49" r="1.38" xlink:href="#radial-gradient-9"/><radialGradient id="radial-gradient-16" cx="12.82" cy="13.13" r="0.98" xlink:href="#radial-gradient-9"/><radialGradient id="radial-gradient-17" cx="12.82" cy="13.13" r="0.98" xlink:href="#radial-gradient-10"/><radialGradient id="radial-gradient-18" cx="12.44" cy="11.49" r="1.11" xlink:href="#radial-gradient-9"/><radialGradient id="radial-gradient-19" cx="12.44" cy="11.49" r="1.11" xlink:href="#radial-gradient-10"/><radialGradient id="radial-gradient-20" cx="11.44" cy="9.9" r="1.23" xlink:href="#radial-gradient-9"/><radialGradient id="radial-gradient-21" cx="11.44" cy="9.9" r="1.23" xlink:href="#radial-gradient-10"/><radialGradient id="radial-gradient-22" cx="10.77" cy="10.87" r="4.15" gradientUnits="userSpaceOnUse"><stop offset="0" stop-color="#48a528"/><stop offset="0.54" stop-color="#3b8f25"/><stop offset="1" stop-color="#2e7922"/></radialGradient><radialGradient id="radial-gradient-23" cx="10.77" cy="10.87" r="4.15" gradientUnits="userSpaceOnUse"><stop offset="0" stop-color="#5bb224"/><stop offset="0.88" stop-color="#459e26"/><stop offset="1" stop-color="#429b26"/></radialGradient><radialGradient id="radial-gradient-24" cx="14.15" cy="15.96" r="0.93" xlink:href="#radial-gradient-9"/><radialGradient id="radial-gradient-25" cx="14.15" cy="15.96" r="0.93" xlink:href="#radial-gradient-10"/><radialGradient id="radial-gradient-26" cx="14.39" cy="17.75" r="0.99" xlink:href="#radial-gradient-9"/><radialGradient id="radial-gradient-27" cx="14.39" cy="17.75" r="0.99" xlink:href="#radial-gradient-10"/><radialGradient id="radial-gradient-28" cx="14.51" cy="19.65" r="1.01" xlink:href="#radial-gradient-9"/><radialGradient id="radial-gradient-29" cx="14.51" cy="19.65" r="1.01" xlink:href="#radial-gradient-10"/><radialGradient id="radial-gradient-30" cx="14.12" cy="21.34" r="0.98" xlink:href="#radial-gradient-9"/><radialGradient id="radial-gradient-31" cx="14.12" cy="21.34" r="0.98" xlink:href="#radial-gradient-10"/><radialGradient id="radial-gradient-32" cx="5.85" cy="25.08" r="0.78" xlink:href="#radial-gradient-9"/><radialGradient id="radial-gradient-33" cx="7.46" cy="25.49" r="0.95" xlink:href="#radial-gradient-9"/><radialGradient id="radial-gradient-34" cx="9.56" cy="25.78" r="1.11" xlink:href="#radial-gradient-9"/><radialGradient id="radial-gradient-35" cx="11.39" cy="24.9" r="1.34" xlink:href="#radial-gradient-9"/><radialGradient id="radial-gradient-36" cx="13.51" cy="23.13" r="1.41" xlink:href="#radial-gradient-9"/><radialGradient id="radial-gradient-37" cx="13.51" cy="23.13" r="1.41" xlink:href="#radial-gradient-10"/><radialGradient id="radial-gradient-38" cx="543.89" cy="-238.77" r="1.01" gradientTransform="translate(550.34 292.88) rotate(-129.39)" gradientUnits="userSpaceOnUse"><stop offset="0" stop-color="#f2e6d5"/><stop offset="1" stop-color="#e4c097"/></radialGradient><radialGradient id="radial-gradient-39" cx="543.89" cy="-238.77" r="1.01" gradientTransform="translate(550.34 292.88) rotate(-129.39)" gradientUnits="userSpaceOnUse"><stop offset="0" stop-color="#f4ede0"/><stop offset="0.36" stop-color="#f0e2cd"/><stop offset="1" stop-color="#e6c7a2"/></radialGradient><linearGradient id="linear-gradient" x1="543.88" y1="-238.66" x2="544.64" y2="-238.66" gradientTransform="translate(550.34 292.88) rotate(-129.39)" gradientUnits="userSpaceOnUse"><stop offset="0" stop-color="#fff"/><stop offset="0.1" stop-color="#e5e5e5"/><stop offset="0.33" stop-color="#a3a3a3"/><stop offset="0.65" stop-color="#3a3a3a"/><stop offset="0.82"/><stop offset="1"/></linearGradient><radialGradient id="radial-gradient-40" cx="463.8" cy="-54.36" r="1.01" gradientTransform="translate(486 6.2) rotate(-175.37)" xlink:href="#radial-gradient-38"/><radialGradient id="radial-gradient-41" cx="463.8" cy="-54.36" r="1.01" gradientTransform="translate(486 6.2) rotate(-175.37)" xlink:href="#radial-gradient-39"/><linearGradient id="linear-gradient-2" x1="463.79" y1="-54.25" x2="464.55" y2="-54.25" gradientTransform="translate(486 6.2) rotate(-175.37)" xlink:href="#linear-gradient"/><radialGradient id="radial-gradient-42" cx="491.81" cy="-477.57" r="1.01" gradientTransform="matrix(-0.03, -1, 1, -0.03, 514.35, 501.64)" xlink:href="#radial-gradient-38"/><radialGradient id="radial-gradient-43" cx="491.81" cy="-477.57" r="1.01" gradientTransform="matrix(-0.03, -1, 1, -0.03, 514.35, 501.64)" xlink:href="#radial-gradient-39"/><linearGradient id="linear-gradient-3" x1="491.8" y1="-477.47" x2="492.56" y2="-477.47" gradientTransform="matrix(-0.03, -1, 1, -0.03, 514.35, 501.64)" xlink:href="#linear-gradient"/><radialGradient id="radial-gradient-44" cx="17.31" cy="22.05" r="8.58" xlink:href="#radial-gradient-22"/><radialGradient id="radial-gradient-45" cx="17.31" cy="22.05" r="8.58" xlink:href="#radial-gradient-23"/><linearGradient id="linear-gradient-4" x1="15.48" y1="22.44" x2="13.54" y2="26.53" gradientUnits="userSpaceOnUse"><stop offset="0" stop-color="#91ca1f"/><stop offset="0.05" stop-color="#86bb1d"/><stop offset="0.34" stop-color="#4d6c11"/><stop offset="0.57" stop-color="#243208"/><stop offset="0.74" stop-color="#0a0e02"/><stop offset="0.83"/><stop offset="1"/></linearGradient><radialGradient id="radial-gradient-46" cx="19.23" cy="22.82" r="5.88" gradientUnits="userSpaceOnUse"><stop offset="0" stop-color="#6ea61e"/><stop offset="0.25" stop-color="#476b13"/><stop offset="0.52" stop-color="#213109"/><stop offset="0.73" stop-color="#090e02"/><stop offset="0.83"/><stop offset="1"/></radialGradient><linearGradient id="linear-gradient-5" x1="18.68" y1="22.83" x2="18.58" y2="25.92" gradientUnits="userSpaceOnUse"><stop offset="0" stop-color="#7da869"/><stop offset="0.19" stop-color="#5c7c4d"/><stop offset="0.5" stop-color="#2b3924"/><stop offset="0.72" stop-color="#0c100a"/><stop offset="0.83"/><stop offset="1"/></linearGradient><linearGradient id="linear-gradient-6" x1="36.37" y1="6.73" x2="41.66" y2="10.43" gradientTransform="matrix(-0.97, 0.23, 0.23, 0.97, 50.5, 6.68)" gradientUnits="userSpaceOnUse"><stop offset="0" stop-color="#9bcf82"/><stop offset="0.29" stop-color="#5d7c4e"/><stop offset="0.55" stop-color="#2b3924"/><stop offset="0.74" stop-color="#0c100a"/><stop offset="0.83"/><stop offset="1"/></linearGradient><radialGradient id="radial-gradient-47" cx="5.5" cy="21.94" r="7.41" xlink:href="#radial-gradient-22"/><radialGradient id="radial-gradient-48" cx="5.5" cy="21.94" r="7.41" xlink:href="#radial-gradient-23"/><radialGradient id="radial-gradient-49" cx="7" cy="26.2" r="6.22" gradientUnits="userSpaceOnUse"><stop offset="0" stop-color="#63931e"/><stop offset="0.19" stop-color="#486b16"/><stop offset="0.49" stop-color="#21310a"/><stop offset="0.71" stop-color="#090e03"/><stop offset="0.83"/><stop offset="1"/></radialGradient><linearGradient id="linear-gradient-7" x1="7.04" y1="26.85" x2="3.07" y2="25.52" xlink:href="#linear-gradient-5"/><radialGradient id="radial-gradient-50" cx="-227.56" cy="-466.8" r="1.06" gradientTransform="matrix(-0.89, -0.46, -0.46, 0.89, -415.11, 336.98)" xlink:href="#radial-gradient-38"/><radialGradient id="radial-gradient-51" cx="-227.56" cy="-466.8" r="1.06" gradientTransform="matrix(-0.89, -0.46, -0.46, 0.89, -415.11, 336.98)" xlink:href="#radial-gradient-39"/><linearGradient id="linear-gradient-8" x1="-227.57" y1="-466.69" x2="-226.77" y2="-466.69" gradientTransform="matrix(-0.89, -0.46, -0.46, 0.89, -415.11, 336.98)" xlink:href="#linear-gradient"/><radialGradient id="radial-gradient-52" cx="8.74" cy="-465.49" r="1.06" gradientTransform="matrix(-0.45, -0.89, -0.89, 0.45, -410.03, 245.59)" xlink:href="#radial-gradient-38"/><radialGradient id="radial-gradient-53" cx="8.74" cy="-465.49" r="1.06" gradientTransform="matrix(-0.45, -0.89, -0.89, 0.45, -410.03, 245.59)" xlink:href="#radial-gradient-39"/><linearGradient id="linear-gradient-9" x1="8.73" y1="-465.38" x2="9.52" y2="-465.38" gradientTransform="matrix(-0.45, -0.89, -0.89, 0.45, -410.03, 245.59)" xlink:href="#linear-gradient"/><radialGradient id="radial-gradient-54" cx="-394.46" cy="-468.09" r="1.06" gradientTransform="matrix(-1, 0.02, 0.02, 1, -380.54, 504.14)" xlink:href="#radial-gradient-38"/><radialGradient id="radial-gradient-55" cx="-394.46" cy="-468.09" r="1.06" gradientTransform="matrix(-1, 0.02, 0.02, 1, -380.54, 504.14)" xlink:href="#radial-gradient-39"/><linearGradient id="linear-gradient-10" x1="-394.47" y1="-467.98" x2="-393.67" y2="-467.98" gradientTransform="matrix(-1, 0.02, 0.02, 1, -380.54, 504.14)" xlink:href="#linear-gradient"/><radialGradient id="radial-gradient-56" cx="10.13" cy="25.45" r="2.51" xlink:href="#radial-gradient-22"/><radialGradient id="radial-gradient-57" cx="10.13" cy="25.45" r="2.51" xlink:href="#radial-gradient-23"/><radialGradient id="radial-gradient-58" cx="463.29" cy="-780.93" r="0.94" gradientTransform="translate(694.21 -598.79) rotate(-162.69)" xlink:href="#radial-gradient-38"/><radialGradient id="radial-gradient-59" cx="463.29" cy="-780.93" r="0.94" gradientTransform="translate(694.21 -598.79) rotate(-162.69)" xlink:href="#radial-gradient-39"/><linearGradient id="linear-gradient-11" x1="463.28" y1="-780.83" x2="463.99" y2="-780.83" gradientTransform="translate(694.21 -598.79) rotate(-162.69)" xlink:href="#linear-gradient"/><radialGradient id="radial-gradient-60" cx="554.03" cy="-672.98" r="0.94" gradientTransform="translate(188.77 -846.01) rotate(151.84)" xlink:href="#radial-gradient-38"/><radialGradient id="radial-gradient-61" cx="554.03" cy="-672.98" r="0.94" gradientTransform="translate(188.77 -846.01) rotate(151.84)" xlink:href="#radial-gradient-39"/><linearGradient id="linear-gradient-12" x1="554.02" y1="-672.88" x2="554.73" y2="-672.88" gradientTransform="translate(188.77 -846.01) rotate(151.84)" xlink:href="#linear-gradient"/><radialGradient id="radial-gradient-62" cx="322.53" cy="-866.03" r="0.94" gradientTransform="matrix(-0.53, -0.85, 0.85, -0.53, 926.41, -173.32)" xlink:href="#radial-gradient-38"/><radialGradient id="radial-gradient-63" cx="322.53" cy="-866.03" r="0.94" gradientTransform="matrix(-0.53, -0.85, 0.85, -0.53, 926.41, -173.32)" xlink:href="#radial-gradient-39"/><linearGradient id="linear-gradient-13" x1="322.53" y1="-865.93" x2="323.23" y2="-865.93" gradientTransform="matrix(-0.53, -0.85, 0.85, -0.53, 926.41, -173.32)" xlink:href="#linear-gradient"/><radialGradient id="radial-gradient-64" cx="20.19" cy="9.77" r="9.01" xlink:href="#radial-gradient-22"/><radialGradient id="radial-gradient-65" cx="20.19" cy="9.77" r="9.01" xlink:href="#radial-gradient-23"/><radialGradient id="radial-gradient-66" cx="19.61" cy="9.13" r="3.93" xlink:href="#linear-gradient-4"/><linearGradient id="linear-gradient-14" x1="19.33" y1="8.96" x2="18.2" y2="11.45" gradientTransform="matrix(1, 0, 0, 1, 0, 0)" xlink:href="#linear-gradient-6"/><radialGradient id="radial-gradient-67" cx="18.47" cy="14.98" r="4.56" gradientUnits="userSpaceOnUse"><stop offset="0" stop-color="#6a9e1e"/><stop offset="0.23" stop-color="#486b14"/><stop offset="0.51" stop-color="#213109"/><stop offset="0.72" stop-color="#090e03"/><stop offset="0.83"/><stop offset="1"/></radialGradient><radialGradient id="radial-gradient-68" cx="6.06" cy="23.24" r="1.94" gradientUnits="userSpaceOnUse"><stop offset="0" stop-color="#f8c950"/><stop offset="1" stop-color="#f8a12a"/></radialGradient><radialGradient id="radial-gradient-69" cx="6.66" cy="23.41" r="1.11" gradientUnits="userSpaceOnUse"><stop offset="0" stop-color="#f6e86d"/><stop offset="0.59" stop-color="#f7ce54"/><stop offset="1" stop-color="#f7b941"/></radialGradient><linearGradient id="linear-gradient-15" x1="6.54" y1="22.88" x2="6.52" y2="23.97" gradientUnits="userSpaceOnUse"><stop offset="0" stop-color="#717171"/><stop offset="0.36" stop-color="#393939"/><stop offset="0.67" stop-color="#101010"/><stop offset="0.83"/><stop offset="1"/></linearGradient><radialGradient id="radial-gradient-70" cx="10.33" cy="23.48" r="1.8" xlink:href="#radial-gradient-68"/><radialGradient id="radial-gradient-71" cx="10.11" cy="23.55" r="1.06" xlink:href="#radial-gradient-69"/><linearGradient id="linear-gradient-16" x1="10.23" y1="23.06" x2="10.19" y2="24.22" xlink:href="#linear-gradient-15"/><radialGradient id="radial-gradient-72" cx="10.95" cy="21.39" r="2.19" xlink:href="#radial-gradient-68"/><radialGradient id="radial-gradient-73" cx="10.73" cy="21.54" r="1.55" xlink:href="#radial-gradient-69"/><linearGradient id="linear-gradient-17" x1="10.67" y1="20.89" x2="10.67" y2="22.11" xlink:href="#linear-gradient-15"/><radialGradient id="radial-gradient-74" cx="6.52" cy="21.33" r="1.61" xlink:href="#radial-gradient-68"/><radialGradient id="radial-gradient-75" cx="6.43" cy="21.53" r="1.55" xlink:href="#radial-gradient-69"/><linearGradient id="linear-gradient-18" x1="6.13" y1="20.87" x2="6.13" y2="22.21" xlink:href="#linear-gradient-15"/><radialGradient id="radial-gradient-76" cx="5.99" cy="13.67" r="2.71" xlink:href="#radial-gradient-68"/><radialGradient id="radial-gradient-77" cx="5.88" cy="13.57" r="2.3" xlink:href="#radial-gradient-69"/><linearGradient id="linear-gradient-19" x1="5.74" y1="12.85" x2="5.85" y2="14.4" xlink:href="#linear-gradient-15"/><radialGradient id="radial-gradient-78" cx="10.52" cy="13.71" r="2.6" xlink:href="#radial-gradient-68"/><radialGradient id="radial-gradient-79" cx="10.45" cy="13.61" r="2.11" xlink:href="#radial-gradient-69"/><linearGradient id="linear-gradient-20" x1="10.35" y1="13.02" x2="10.41" y2="14.38" xlink:href="#linear-gradient-15"/><radialGradient id="radial-gradient-80" cx="6.01" cy="16.01" r="2.66" xlink:href="#radial-gradient-68"/><radialGradient id="radial-gradient-81" cx="5.88" cy="16.16" r="1.98" xlink:href="#radial-gradient-69"/><linearGradient id="linear-gradient-21" x1="5.73" y1="15.29" x2="5.85" y2="17.13" xlink:href="#linear-gradient-15"/><radialGradient id="radial-gradient-82" cx="10.85" cy="16.35" r="2.75" xlink:href="#radial-gradient-68"/><radialGradient id="radial-gradient-83" cx="10.98" cy="16.3" r="2.25" xlink:href="#radial-gradient-69"/><linearGradient id="linear-gradient-22" x1="10.91" y1="15.55" x2="10.98" y2="17.17" xlink:href="#linear-gradient-15"/><radialGradient id="radial-gradient-84" cx="6.35" cy="18.56" r="2.27" xlink:href="#radial-gradient-68"/><radialGradient id="radial-gradient-85" cx="6.13" cy="18.78" r="1.92" xlink:href="#radial-gradient-69"/><linearGradient id="linear-gradient-23" x1="5.97" y1="17.96" x2="6.1" y2="19.84" xlink:href="#linear-gradient-15"/><radialGradient id="radial-gradient-86" cx="10.95" cy="18.81" r="2.62" xlink:href="#radial-gradient-68"/><radialGradient id="radial-gradient-87" cx="10.78" cy="19.04" r="1.93" xlink:href="#radial-gradient-69"/><linearGradient id="linear-gradient-24" x1="10.66" y1="18.37" x2="10.68" y2="19.92" xlink:href="#linear-gradient-15"/><radialGradient id="radial-gradient-88" cx="-1277.37" cy="55.5" r="8.28" gradientTransform="matrix(-0.98, 0.21, 0.21, 0.98, -1247.51, 222.02)" gradientUnits="userSpaceOnUse"><stop offset="0.12" stop-color="#48a528"/><stop offset="0.46" stop-color="#46a228"/><stop offset="0.68" stop-color="#419a26"/><stop offset="0.86" stop-color="#398b24"/><stop offset="1" stop-color="#2e7922"/></radialGradient><radialGradient id="radial-gradient-89" cx="-1277.37" cy="55.54" r="8.3" gradientTransform="matrix(-0.98, 0.21, 0.21, 0.98, -1247.51, 222.02)" xlink:href="#radial-gradient-23"/><radialGradient id="radial-gradient-90" cx="-1288.88" cy="-2.37" r="2" gradientTransform="matrix(-0.99, 0.17, 0.17, 0.99, -1257.21, 220.2)" xlink:href="#linear-gradient-4"/><linearGradient id="linear-gradient-25" x1="-1288.83" y1="-2.13" x2="-1288.22" y2="-1.81" gradientTransform="matrix(-0.99, 0.17, 0.17, 0.99, -1257.21, 220.2)" gradientUnits="userSpaceOnUse"><stop offset="0" stop-color="#5f5f5f"/><stop offset="0.13" stop-color="#4b4b4b"/><stop offset="0.44" stop-color="#222"/><stop offset="0.69" stop-color="#090909"/><stop offset="0.83"/><stop offset="1"/></linearGradient><radialGradient id="radial-gradient-91" cx="-1287.19" cy="-5.56" r="1.67" gradientTransform="matrix(-0.99, 0.17, 0.17, 0.99, -1257.21, 220.2)" xlink:href="#linear-gradient-4"/><linearGradient id="linear-gradient-26" x1="-1287.05" y1="-5.36" x2="-1286.48" y2="-4.66" gradientTransform="matrix(-0.99, 0.17, 0.17, 0.99, -1257.21, 220.2)" gradientUnits="userSpaceOnUse"><stop offset="0" stop-color="#5f5f5f"/><stop offset="0.29" stop-color="#393939"/><stop offset="0.65" stop-color="#101010"/><stop offset="0.83"/><stop offset="1"/></linearGradient><radialGradient id="radial-gradient-92" cx="-1285.57" cy="2.26" r="2.26" gradientTransform="matrix(-0.99, 0.17, 0.17, 0.99, -1257.21, 220.2)" xlink:href="#linear-gradient-4"/><linearGradient id="linear-gradient-27" x1="-1394.54" y1="96.32" x2="-1392.29" y2="95.85" gradientTransform="matrix(-0.89, 0.2, 0.18, 0.83, -1248.41, 205.89)" gradientUnits="userSpaceOnUse"><stop offset="0" stop-color="#4c4c4c"/><stop offset="0.69" stop-color="#181818"/><stop offset="1"/></linearGradient><radialGradient id="radial-gradient-93" cx="-1274.59" cy="59.44" r="1.69" gradientTransform="matrix(-0.98, 0.21, 0.21, 0.98, -1247.51, 222.02)" gradientUnits="userSpaceOnUse"><stop offset="0" stop-color="#150c0c"/><stop offset="0.28" stop-color="#200a0a"/><stop offset="0.56" stop-color="#300707"/><stop offset="0.68" stop-color="#3b0807"/><stop offset="1" stop-color="#540a06"/></radialGradient><radialGradient id="radial-gradient-94" cx="-1274.65" cy="59.49" r="1.84" gradientTransform="matrix(-0.98, 0.21, 0.21, 0.98, -1247.51, 222.02)" gradientUnits="userSpaceOnUse"><stop offset="0" stop-color="#130c0c"/><stop offset="0.59" stop-color="#6a0a09"/><stop offset="0.72" stop-color="#7c0c08"/><stop offset="0.87" stop-color="#890e06"/><stop offset="1" stop-color="#8e0f06"/></radialGradient><radialGradient id="radial-gradient-95" cx="-1274.65" cy="59.49" r="1.84" xlink:href="#radial-gradient-94"/><linearGradient id="linear-gradient-28" x1="-1274.87" y1="60.9" x2="-1274.53" y2="59.73" gradientTransform="matrix(-0.98, 0.21, 0.21, 0.98, -1247.51, 222.02)" gradientUnits="userSpaceOnUse"><stop offset="0" stop-color="#f59e9f"/><stop offset="1" stop-color="#f17171"/></linearGradient><linearGradient id="linear-gradient-29" x1="-1274.91" y1="60.89" x2="-1274.56" y2="59.72" gradientTransform="matrix(-0.98, 0.21, 0.21, 0.98, -1247.51, 222.02)" gradientUnits="userSpaceOnUse"><stop offset="0" stop-color="#f0b8b8"/><stop offset="1" stop-color="#f79899"/></linearGradient><radialGradient id="radial-gradient-96" cx="-1286.14" cy="2.82" r="0.8" gradientTransform="matrix(-0.99, 0.17, 0.17, 0.99, -1257.21, 220.2)" gradientUnits="userSpaceOnUse"><stop offset="0" stop-color="#f0b8b8"/><stop offset="0.02" stop-color="#e6b0b0"/><stop offset="0.12" stop-color="#aa8282"/><stop offset="0.23" stop-color="#765a5a"/><stop offset="0.33" stop-color="#4c3a3a"/><stop offset="0.43" stop-color="#2b2121"/><stop offset="0.53" stop-color="#130f0f"/><stop offset="0.62" stop-color="#050404"/><stop offset="0.69"/><stop offset="1"/></radialGradient><radialGradient id="radial-gradient-97" cx="-1285.57" cy="2.8" r="1.1" xlink:href="#radial-gradient-96"/><radialGradient id="radial-gradient-98" cx="-1277.37" cy="55.5" r="8.28" gradientTransform="matrix(-0.98, 0.21, 0.21, 0.98, -1247.51, 222.02)" xlink:href="#radial-gradient-23"/><radialGradient id="radial-gradient-99" cx="-1283.46" cy="-6.06" r="4.02" gradientTransform="matrix(-0.99, 0.17, 0.17, 0.99, -1257.21, 220.2)" gradientUnits="userSpaceOnUse"><stop offset="0" stop-color="#91ca1f"/><stop offset="0" stop-color="#90c91f"/><stop offset="0.12" stop-color="#6a9417"/><stop offset="0.24" stop-color="#4a6710"/><stop offset="0.36" stop-color="#2f420a"/><stop offset="0.48" stop-color="#1a2506"/><stop offset="0.6" stop-color="#0c1003"/><stop offset="0.72" stop-color="#030401"/><stop offset="0.83"/><stop offset="1"/></radialGradient><linearGradient id="linear-gradient-30" x1="-1283.12" y1="-5.52" x2="-1283.04" y2="-3.47" xlink:href="#linear-gradient-26"/><radialGradient id="radial-gradient-100" cx="-1283.73" cy="-4.94" r="4.28" gradientTransform="matrix(-0.99, 0.17, 0.17, 0.99, -1257.21, 220.2)" gradientUnits="userSpaceOnUse"><stop offset="0" stop-color="#fff"/><stop offset="0.22" stop-color="#d1e6ca"/><stop offset="0.6" stop-color="#84be72"/><stop offset="0.87" stop-color="#55a53b"/><stop offset="1" stop-color="#429b26"/></radialGradient><radialGradient id="radial-gradient-101" cx="-1232.07" cy="223.97" r="2.52" gradientTransform="matrix(-0.95, 0.32, 0.32, 0.95, -1229.68, 186.29)" gradientUnits="userSpaceOnUse"><stop offset="0.54" stop-color="#e7e7e7"/><stop offset="0.66" stop-color="#e4e4e5"/><stop offset="0.74" stop-color="#dcdcdd"/><stop offset="0.8" stop-color="#cdcdd1"/><stop offset="0.86" stop-color="#b8b8bf"/><stop offset="0.91" stop-color="#9d9da8"/><stop offset="0.94" stop-color="#8c8c9a"/><stop offset="1" stop-color="#c5c5c5"/></radialGradient><radialGradient id="radial-gradient-102" cx="-579.73" cy="-52.92" r="0.11" gradientTransform="matrix(-2.01, 0.68, 0.7, 2.07, -1120.78, 506.65)" gradientUnits="userSpaceOnUse"><stop offset="0.21" stop-color="#fff"/><stop offset="0.36" stop-color="#aeaeae"/><stop offset="0.52" stop-color="#646464"/><stop offset="0.64" stop-color="#2e2e2e"/><stop offset="0.74" stop-color="#0d0d0d"/><stop offset="0.79"/><stop offset="0.98"/></radialGradient><radialGradient id="radial-gradient-103" cx="-1228.89" cy="198.77" r="1.59" gradientTransform="matrix(-0.95, 0.32, 0.34, 1.01, -1223.4, 199.21)" gradientUnits="userSpaceOnUse"><stop offset="0" stop-color="#31b2d1"/><stop offset="0.13" stop-color="#2aa3c9"/><stop offset="0.32" stop-color="#1b85ba"/><stop offset="0.52" stop-color="#1b6bae"/><stop offset="0.93" stop-color="#1c298f"/><stop offset="1" stop-color="#1c1d89"/></radialGradient><radialGradient id="radial-gradient-104" cx="-579.43" cy="-52.43" r="0.09" gradientTransform="matrix(-2.01, 0.68, 0.7, 2.07, -1120.78, 506.65)" gradientUnits="userSpaceOnUse"><stop offset="0" stop-color="#fff"/><stop offset="0.22" stop-color="#b3b3b3"/><stop offset="0.62" stop-color="#333"/><stop offset="0.79"/><stop offset="1"/></radialGradient><linearGradient id="linear-gradient-31" x1="-1262.83" y1="121.1" x2="-1262.46" y2="121.54" gradientTransform="matrix(-0.97, 0.24, 0.24, 0.97, -1246.26, 193.5)" gradientUnits="userSpaceOnUse"><stop offset="0" stop-color="#b9b9b9"/><stop offset="0.04" stop-color="#adadad"/><stop offset="0.33" stop-color="#646464"/><stop offset="0.57" stop-color="#2e2e2e"/><stop offset="0.75" stop-color="#0d0d0d"/><stop offset="0.85"/><stop offset="0.98"/></linearGradient><radialGradient id="radial-gradient-105" cx="-1287.75" cy="-2.04" r="8.27" gradientTransform="matrix(-0.99, 0.17, 0.17, 0.99, -1257.21, 220.2)" xlink:href="#radial-gradient-23"/><radialGradient id="radial-gradient-106" cx="-1283.4" cy="-1.15" r="2.02" xlink:href="#radial-gradient-99"/><linearGradient id="linear-gradient-32" x1="-1269.23" y1="78.02" x2="-1268.83" y2="78.98" gradientTransform="matrix(-0.97, 0.23, 0.23, 0.97, -1245.29, 221.46)" xlink:href="#linear-gradient-25"/><radialGradient id="radial-gradient-107" cx="-1286.73" cy="-5.2" r="3.2" xlink:href="#radial-gradient-100"/><radialGradient id="radial-gradient-108" cx="-1054.22" cy="559.45" r="2.04" gradientTransform="matrix(-0.81, 0.58, 0.58, 0.81, -1170.57, 157.93)" xlink:href="#radial-gradient-101"/><radialGradient id="radial-gradient-109" cx="-497" cy="100.3" r="0.09" gradientTransform="matrix(-1.73, 1.23, 1.27, 1.78, -975.13, 434.67)" xlink:href="#radial-gradient-102"/><radialGradient id="radial-gradient-110" cx="-1053.43" cy="514.12" r="1.28" gradientTransform="matrix(-0.81, 0.58, 0.62, 0.87, -1162.42, 169.18)" xlink:href="#radial-gradient-103"/><radialGradient id="radial-gradient-111" cx="-581.43" cy="-52.49" r="0.09" xlink:href="#radial-gradient-104"/><linearGradient id="linear-gradient-33" x1="-1113.86" y1="471.2" x2="-1113.57" y2="471.55" gradientTransform="matrix(-0.86, 0.51, 0.51, 0.86, -1186.05, 168.85)" xlink:href="#linear-gradient-31"/><radialGradient id="radial-gradient-112" cx="-1277.37" cy="55.5" r="8.28" xlink:href="#radial-gradient-88"/><radialGradient id="radial-gradient-113" cx="-1277.37" cy="55.5" r="8.28" gradientTransform="matrix(-0.98, 0.21, 0.21, 0.98, -1247.51, 222.02)" xlink:href="#radial-gradient-23"/><radialGradient id="radial-gradient-114" cx="-1289.34" cy="-0.77" r="5.52" gradientTransform="matrix(-0.99, 0.17, 0.17, 0.99, -1257.21, 220.2)" xlink:href="#linear-gradient-4"/><linearGradient id="linear-gradient-34" x1="-1259.99" y1="121.1" x2="-1257.22" y2="121.1" gradientTransform="matrix(-0.96, 0.28, 0.28, 0.96, -1230.85, 236.37)" xlink:href="#linear-gradient-26"/><radialGradient id="radial-gradient-115" cx="-1287.13" cy="-5.18" r="3.35" gradientTransform="matrix(-0.99, 0.17, 0.17, 0.99, -1257.21, 220.2)" xlink:href="#linear-gradient-4"/><linearGradient id="linear-gradient-35" x1="-1286.8" y1="-4.87" x2="-1284.98" y2="-3.51" xlink:href="#linear-gradient-26"/><radialGradient id="radial-gradient-116" cx="5.03" cy="17.07" r="8.1" xlink:href="#radial-gradient-22"/><radialGradient id="radial-gradient-117" cx="5.03" cy="17.07" r="8.1" xlink:href="#radial-gradient-23"/><radialGradient id="radial-gradient-118" cx="4.55" cy="15.48" r="3.2" xlink:href="#linear-gradient-4"/><linearGradient id="linear-gradient-36" x1="4.43" y1="15.86" x2="2.1" y2="15.17" gradientUnits="userSpaceOnUse"><stop offset="0" stop-color="#6d935b"/><stop offset="0.11" stop-color="#5c7c4c"/><stop offset="0.46" stop-color="#2a3923"/><stop offset="0.71" stop-color="#0c100a"/><stop offset="0.83"/><stop offset="1"/></linearGradient><radialGradient id="radial-gradient-119" cx="6.1" cy="18.56" r="5.75" xlink:href="#linear-gradient-4"/><linearGradient id="linear-gradient-37" x1="5.37" y1="18.08" x2="3.04" y2="19.76" gradientTransform="matrix(1, 0, 0, 1, 0, 0)" xlink:href="#linear-gradient-6"/><radialGradient id="radial-gradient-120" cx="-151" cy="-316.06" r="0.94" gradientTransform="matrix(-0.76, 0.65, 0.65, 0.76, 98.12, 359.72)" xlink:href="#radial-gradient-38"/><radialGradient id="radial-gradient-121" cx="-151" cy="-316.06" r="0.94" gradientTransform="matrix(-0.76, 0.65, 0.65, 0.76, 98.12, 359.72)" xlink:href="#radial-gradient-39"/><linearGradient id="linear-gradient-38" x1="-151" y1="-315.96" x2="-150.3" y2="-315.96" gradientTransform="matrix(-0.76, 0.65, 0.65, 0.76, 98.12, 359.72)" xlink:href="#linear-gradient"/><radialGradient id="radial-gradient-122" cx="-54.8" cy="-503.71" r="0.94" gradientTransform="matrix(-1, -0.09, -0.09, 1, -93.63, 519.91)" xlink:href="#radial-gradient-38"/><radialGradient id="radial-gradient-123" cx="-54.8" cy="-503.71" r="0.94" gradientTransform="matrix(-1, -0.09, -0.09, 1, -93.63, 519.91)" xlink:href="#radial-gradient-39"/><linearGradient id="linear-gradient-39" x1="-54.81" y1="-503.61" x2="-54.1" y2="-503.61" gradientTransform="matrix(-1, -0.09, -0.09, 1, -93.63, 519.91)" xlink:href="#linear-gradient"/><radialGradient id="radial-gradient-124" cx="-139.77" cy="-275.12" r="0.94" gradientTransform="matrix(-0.39, 0.92, 0.92, 0.39, 205.78, 256.05)" xlink:href="#radial-gradient-38"/><radialGradient id="radial-gradient-125" cx="-139.77" cy="-275.12" r="0.94" gradientTransform="matrix(-0.39, 0.92, 0.92, 0.39, 205.78, 256.05)" xlink:href="#radial-gradient-39"/><linearGradient id="linear-gradient-40" x1="-139.77" y1="-275.02" x2="-139.07" y2="-275.02" gradientTransform="matrix(-0.39, 0.92, 0.92, 0.39, 205.78, 256.05)" xlink:href="#linear-gradient"/></defs><g class="cls-1"><g id="Layer_2" data-name="Layer 2"><g id="Layer_1-2" data-name="Layer 1"><g id="turtee-assets"><g id="waving-turtee"><path class="cls-2" d="M1.26,17.49a4.11,4.11,0,0,1-.19-2.24c.29-1,.76-1.16.76-1.16l.67.72Z"/><path class="cls-3" d="M1.8,14.86H1.74a.69.69,0,0,0-.36.27,2.22,2.22,0,0,0-.11.79,4.44,4.44,0,0,0,.16.68c.1-.19.38-.71.49-1s.19-.51.12-.63A.26.26,0,0,0,1.8,14.86Z"/><path class="cls-4" d="M1.8,14.86H1.74a.69.69,0,0,0-.36.27,2.22,2.22,0,0,0-.11.79,4.44,4.44,0,0,0,.16.68c.1-.19.38-.71.49-1s.19-.51.12-.63A.26.26,0,0,0,1.8,14.86Z"/><path class="cls-5" d="M1.25,17.57l0-.07A4.11,4.11,0,0,1,1,15.24c.29-1,.75-1.17.77-1.18h0l.71.76Zm.57-3.44a1.81,1.81,0,0,0-.72,1.12,4.1,4.1,0,0,0,.16,2.16l1.2-2.59Z"/><path class="cls-5" d="M1.42,16.77l0-.07a6.49,6.49,0,0,1-.18-.77,2.17,2.17,0,0,1,.11-.82.75.75,0,0,1,.41-.3H1.8a.33.33,0,0,1,.3.16c.08.15,0,.32-.12.68s-.53,1.06-.53,1.06Zm.38-1.91H1.74a.69.69,0,0,0-.36.27,2.22,2.22,0,0,0-.11.79,4.44,4.44,0,0,0,.16.68c.1-.19.38-.71.49-1s.19-.51.12-.63A.26.26,0,0,0,1.8,14.86Z"/><path class="cls-5" d="M1.56,16.22l0,0a1.24,1.24,0,0,1-.2-.46,1.07,1.07,0,0,1,.21-.58A.63.63,0,0,1,1.88,15,.15.15,0,0,1,2,15c.08.1-.06.38-.09.43Zm.32-1.17a.59.59,0,0,0-.31.13,1,1,0,0,0-.19.54,1.37,1.37,0,0,0,.16.37l.29-.66c.06-.12.14-.32.1-.37Z"/><path class="cls-6" d="M2.79,12.36s.46-.75,1-.82-.05,1.33-.05,1.33Z"/><path class="cls-5" d="M3.7,12.91l-1-.54,0,0s.48-.76,1-.83a.17.17,0,0,1,.18.07c.19.28-.19,1.26-.2,1.3Zm-.87-.56.84.47c.11-.3.34-1,.2-1.2a.11.11,0,0,0-.12,0C3.33,11.63,2.92,12.21,2.83,12.35Z"/><path class="cls-7" d="M2.17,15s-.73-.69-.53-1.26a3.64,3.64,0,0,1,1-1.39c.19-.15.89-.29,1.06,0s-.28,1.2-.28,1.2Z"/><path class="cls-8" d="M3,12.61h0a2,2,0,0,0-.65.46,2.71,2.71,0,0,0-.36.77.61.61,0,0,0,.44.56h0c.25,0,.58-.53.69-.74l.28-.74C3.26,12.8,3,12.61,3,12.61Z"/><path class="cls-9" d="M3,12.61h0a2,2,0,0,0-.65.46,2.71,2.71,0,0,0-.36.77.61.61,0,0,0,.44.56h0c.25,0,.58-.53.69-.74l.28-.74C3.26,12.8,3,12.61,3,12.61Z"/><path class="cls-5" d="M2.18,15.06l0,0s-.75-.72-.54-1.3a3.59,3.59,0,0,1,1-1.41,1.29,1.29,0,0,1,.65-.17.52.52,0,0,1,.46.18c.18.3-.26,1.2-.28,1.24h0Zm1.09-2.84a1.25,1.25,0,0,0-.61.16,3.61,3.61,0,0,0-1,1.38c-.17.49.38,1.08.5,1.21L3.4,13.55c.12-.26.41-1,.28-1.18A.48.48,0,0,0,3.27,12.22Z"/><path class="cls-5" d="M2.42,14.48h0l-.07,0a.7.7,0,0,1-.49-.62,2.91,2.91,0,0,1,.38-.8,2,2,0,0,1,.67-.49H3c.15,0,.46.32.5.36h0l-.29.79S2.76,14.48,2.42,14.48ZM3,12.61h0a2,2,0,0,0-.65.46,2.71,2.71,0,0,0-.36.77.61.61,0,0,0,.44.56h0c.25,0,.58-.53.69-.74l.28-.74C3.26,12.8,3,12.61,3,12.61Z"/><path class="cls-5" d="M2.53,14.31h0A.54.54,0,0,1,2.14,14c-.08-.12,0-.25,0-.45l0-.15c.09-.33.61-.6.61-.6h.05c.14,0,.37.22.39.24h0v.48a1.56,1.56,0,0,1-.69.75Zm.34-1.42h0c-.13.06-.51.3-.58.56,0,0,0,.1,0,.15s-.09.3,0,.4.18.24.34.24h0a1.45,1.45,0,0,0,.64-.68v-.45C3.14,13,3,12.89,2.87,12.89Z"/><path class="cls-5" d="M2.74,14.12h0c-.16,0-.41-.18-.4-.37a1.55,1.55,0,0,1,.39-.64.11.11,0,0,1,.08,0,.72.72,0,0,1,.33.15h0v0C3.08,13.46,2.89,14.12,2.74,14.12Zm.06-1h0c-.09.09-.37.43-.37.6s.22.3.34.3v0a1.86,1.86,0,0,0,.33-.78A.57.57,0,0,0,2.8,13.14Z"/><path class="cls-5" d="M2.67,13.86h0c-.11,0-.09-.14-.07-.2v0a.92.92,0,0,1,.18-.27h0a.13.13,0,0,1,.09,0h.08a.12.12,0,0,1,.08.1.29.29,0,0,1,0,.27A.42.42,0,0,1,2.67,13.86Zm.11-.45a.54.54,0,0,0-.16.24v0c0,.07,0,.11,0,.12h0a.36.36,0,0,0,.23-.14.25.25,0,0,0,0-.21.09.09,0,0,0,0-.06H2.83S2.8,13.39,2.78,13.41Z"/><path class="cls-10" d="M4.32,13.06a4.07,4.07,0,0,1,.38-2.54C5.35,9.41,7.14,7.92,7.93,8S9,7.32,10.84,9.72c1.17,1.61,1.74,2.39,1.79,3s-3.17.64-4.07.64S4.32,13.06,4.32,13.06Z"/><path class="cls-5" d="M5.71,12.09c-.18-.51-1-1-1-1l0-.06s.87.5,1.06,1Z"/><path class="cls-5" d="M6.59,11.49H6.53a3.38,3.38,0,0,0-.46-1.94l.06,0A3.6,3.6,0,0,1,6.59,11.49Z"/><path class="cls-5" d="M9.87,11.48a4.12,4.12,0,0,1,.56-2.05l.05,0a4.26,4.26,0,0,0-.55,2Z"/><path class="cls-5" d="M10.66,12.14l-.06,0a3,3,0,0,1,1-1.2l0,.06A2.7,2.7,0,0,0,10.66,12.14Z"/><path d="M8.55,13.43c-.91,0-4.2-.34-4.24-.34h0v0a4,4,0,0,1,.38-2.56A7,7,0,0,1,6.19,8.83,3,3,0,0,1,7.93,8h.14A1.76,1.76,0,0,0,8.4,8a3.16,3.16,0,0,1,.32,0c.49,0,1,.3,2.15,1.77l.07.1c1.11,1.54,1.67,2.31,1.72,2.95a.28.28,0,0,1-.07.19c-.45.48-3,.49-3.93.49ZM4.34,13c.3,0,3.34.34,4.21.34h.11c.85,0,3.45,0,3.88-.48a.18.18,0,0,0,.06-.13c0-.63-.61-1.39-1.71-2.92l-.08-.1C9.66,8.21,9.13,8,8.72,8a3,3,0,0,0-.31,0,1.87,1.87,0,0,1-.34,0H7.85C7,8,5.34,9.49,4.72,10.54A4,4,0,0,0,4.34,13Z"/><path class="cls-11" d="M2.85,14.18a1.56,1.56,0,0,1,.72-1.5.74.74,0,0,1,.39.19,1.25,1.25,0,0,1-.32,1.26A1.24,1.24,0,0,1,2.85,14.18Z"/><path class="cls-12" d="M2.85,14.18a1.56,1.56,0,0,1,.72-1.5.74.74,0,0,1,.39.19,1.25,1.25,0,0,1-.32,1.26A1.24,1.24,0,0,1,2.85,14.18Z"/><path class="cls-13" d="M3.15,14.25a1.07,1.07,0,0,1-.31,0h0a1.62,1.62,0,0,1,.73-1.53h0a.74.74,0,0,1,.41.2H4a1.29,1.29,0,0,1-.33,1.29h0A1.43,1.43,0,0,1,3.15,14.25Zm-.27-.09a1.09,1.09,0,0,0,.27,0,1.27,1.27,0,0,0,.47-.09,1.24,1.24,0,0,0,.31-1.21.66.66,0,0,0-.36-.17A1.54,1.54,0,0,0,2.88,14.16Z"/><path class="cls-14" d="M4.53,10.63a1.48,1.48,0,0,0-.8.7c-.31.57-.51,1.43-.19,1.64a.66.66,0,0,0,.9-.33A2.71,2.71,0,0,0,4.53,10.63Z"/><path class="cls-15" d="M4.53,10.63a1.48,1.48,0,0,0-.8.7c-.31.57-.51,1.43-.19,1.64a.66.66,0,0,0,.9-.33A2.71,2.71,0,0,0,4.53,10.63Z"/><path class="cls-13" d="M3.82,13.09h0a.53.53,0,0,1-.3-.09c-.35-.23-.12-1.13.18-1.68a1.49,1.49,0,0,1,.82-.72h0l0,0a2.73,2.73,0,0,1-.09,2A.8.8,0,0,1,3.82,13.09Zm.7-2.42a1.42,1.42,0,0,0-.76.68c-.33.6-.49,1.4-.2,1.59a.42.42,0,0,0,.26.08.74.74,0,0,0,.6-.4A2.74,2.74,0,0,0,4.52,10.67Z"/><path class="cls-16" d="M5.86,9a1.31,1.31,0,0,0-1,.32c-.33.37-.79,1.44-.48,1.69s.73-.09,1.06-.48a2.4,2.4,0,0,0,.67-1.23C6.18,8.87,5.86,9,5.86,9Z"/><path class="cls-17" d="M5.86,9a1.31,1.31,0,0,0-1,.32c-.33.37-.79,1.44-.48,1.69s.73-.09,1.06-.48a2.4,2.4,0,0,0,.67-1.23C6.18,8.87,5.86,9,5.86,9Z"/><path class="cls-13" d="M4.66,11.1h0A.41.41,0,0,1,4.4,11a.34.34,0,0,1-.11-.24,2.65,2.65,0,0,1,.59-1.49A1.22,1.22,0,0,1,5.77,9H6A.21.21,0,0,1,6.11,9a.34.34,0,0,1,.07.28,2.53,2.53,0,0,1-.67,1.25C5.29,10.79,5,11.1,4.66,11.1ZM5.77,9a1.16,1.16,0,0,0-.84.31,2.62,2.62,0,0,0-.58,1.44.27.27,0,0,0,.09.2.35.35,0,0,0,.22.08h0c.22,0,.5-.2.8-.55a2.43,2.43,0,0,0,.66-1.21.33.33,0,0,0,0-.24A.21.21,0,0,0,6,9H5.77Z"/><path class="cls-18" d="M7.2,7.13a2,2,0,0,1-.35.7c-.27.37-1.31.92-1.13,1.29s.36.49.73.34A2.15,2.15,0,0,0,7.61,8.12,1.33,1.33,0,0,0,7.2,7.13Z"/><path class="cls-13" d="M6.18,9.56h0c-.2,0-.34-.13-.48-.43s.26-.58.65-.88a3.08,3.08,0,0,0,.48-.44,2,2,0,0,0,.34-.69v0l.05,0a1.42,1.42,0,0,1,.41,1A2.17,2.17,0,0,1,6.47,9.49.93.93,0,0,1,6.18,9.56Zm1-2.37a2,2,0,0,1-.34.66,3.21,3.21,0,0,1-.49.45c-.35.27-.74.59-.64.81s.26.38.43.38h0a.73.73,0,0,0,.26-.06A2.08,2.08,0,0,0,7.57,8.12,1.21,1.21,0,0,0,7.22,7.19Z"/><path class="cls-19" d="M12.3,12.14a4.27,4.27,0,0,0,0,1c.07.33.24.92.7.66s.12-1.5-.25-1.65A1.62,1.62,0,0,1,12.3,12.14Z"/><path class="cls-20" d="M12.3,12.14a4.27,4.27,0,0,0,0,1c.07.33.24.92.7.66s.12-1.5-.25-1.65A1.62,1.62,0,0,1,12.3,12.14Z"/><path class="cls-13" d="M12.75,13.94h0c-.35,0-.48-.56-.52-.74a4.52,4.52,0,0,1,0-1.07v0l0,0a1.62,1.62,0,0,0,.41.06h0c.24.1.45.63.48,1s-.06.57-.24.67A.49.49,0,0,1,12.75,13.94Zm-.42-1.76a4,4,0,0,0,0,1c0,.17.16.69.46.69a.38.38,0,0,0,.19-.06c.21-.12.22-.43.2-.61,0-.43-.23-.89-.43-1A3.82,3.82,0,0,1,12.33,12.18Z"/><path class="cls-21" d="M11.43,10.69A7.12,7.12,0,0,1,12,11.81c.12.39.14.75.52.7s.44-.18.32-.7-.57-1.31-1.05-1.29A1.89,1.89,0,0,0,11.43,10.69Z"/><path class="cls-22" d="M11.43,10.69A7.12,7.12,0,0,1,12,11.81c.12.39.14.75.52.7s.44-.18.32-.7-.57-1.31-1.05-1.29A1.89,1.89,0,0,0,11.43,10.69Z"/><path class="cls-13" d="M12.44,12.55h0c-.29,0-.36-.26-.44-.55,0-.06,0-.12-.05-.18a8.55,8.55,0,0,0-.54-1.12l0,0,0,0a1.36,1.36,0,0,1,.34-.17h0c.48,0,1,.78,1.07,1.31a.9.9,0,0,1,0,.6c-.06.08-.16.12-.35.14Zm-1-1.85A6.72,6.72,0,0,1,12,11.8c0,.06,0,.12.05.18.08.29.13.51.38.51h.06a.44.44,0,0,0,.3-.12c.06-.09.06-.24,0-.54-.11-.53-.56-1.29-1-1.27A2,2,0,0,0,11.48,10.7Z"/><path class="cls-23" d="M10.28,9.22a9.11,9.11,0,0,1,.6.87c.2.36.52,1,.82.84s.38-.32.3-.61-.91-1.66-1.37-1.57A2.81,2.81,0,0,1,10.28,9.22Z"/><path class="cls-24" d="M10.28,9.22a9.11,9.11,0,0,1,.6.87c.2.36.52,1,.82.84s.38-.32.3-.61-.91-1.66-1.37-1.57A2.81,2.81,0,0,1,10.28,9.22Z"/><path class="cls-13" d="M11.61,11h0c-.27,0-.53-.47-.72-.81l0-.07a10.05,10.05,0,0,0-.59-.86l0,0,0,0a2.61,2.61,0,0,0,.34-.46v0h.07C11.16,8.72,12,10,12,10.31a.51.51,0,0,1-.32.65ZM10.32,9.22a8.28,8.28,0,0,1,.58.85l0,.07c.18.31.43.78.67.78h0l.08,0c.28-.14.36-.29.28-.57s-.85-1.55-1.29-1.55h0A2.06,2.06,0,0,1,10.32,9.22Z"/><path class="cls-25" d="M8.91,8.1s.76,1.35,1.65,1.36a.47.47,0,0,0,.17-.85c-.41-.28-1.27-.7-1.48-1.48C9,7.28,8.91,8.1,8.91,8.1Z"/><path class="cls-26" d="M10.85,9.28a.44.44,0,0,0-.12-.67c-.41-.28-1.27-.7-1.48-1.48a.27.27,0,0,0-.1.11C8.91,8.1,10.12,9.54,10.85,9.28Z"/><path class="cls-27" d="M10.62,8.63a.56.56,0,0,1,.29.54.46.46,0,0,0-.18-.56c-.41-.28-1.27-.7-1.48-1.48,0,0,0,0-.05.1C9.38,8,10.32,8.42,10.62,8.63Z"/><path class="cls-13" d="M10.56,9.49h0c-.89,0-1.64-1.32-1.67-1.38h0s.12-.83.35-1l0,0v0a2.55,2.55,0,0,0,1.24,1.32l.23.15a.49.49,0,0,1,.21.55.48.48,0,0,1-.4.35ZM8.94,8.09c.07.12.8,1.33,1.61,1.34a.44.44,0,0,0,.17-.79l-.23-.15A2.68,2.68,0,0,1,9.23,7.18,2.56,2.56,0,0,0,8.94,8.09Z"/><path class="cls-28" d="M6.9,6.86a7.72,7.72,0,0,1,.71,2.28A2.58,2.58,0,0,1,7.12,11c-.42.7-1.75.93-1.42,1.57s3.81.63,4.78.16c.3-.08.09-.62-.38-1a4,4,0,0,1-1-2.22A5.48,5.48,0,0,1,9.43,7,9.73,9.73,0,0,0,6.9,6.86Z"/><path class="cls-29" d="M10.1,11.68a4,4,0,0,1-1-2.22A5.48,5.48,0,0,1,9.43,7a6.68,6.68,0,0,0-2.12-.11A3.77,3.77,0,0,1,7.93,10a2.87,2.87,0,0,1-1.49,2,1.8,1.8,0,0,1,1.74.75,2.26,2.26,0,0,1,2.34-.25l.1,0A1.31,1.31,0,0,0,10.1,11.68Z"/><path class="cls-30" d="M8.09,13.05h0c-1,0-2.22-.14-2.42-.52s.2-.64.62-.91a2.58,2.58,0,0,0,.81-.68l0-.08a2.52,2.52,0,0,0,.44-1.72,7.76,7.76,0,0,0-.71-2.27l0,0H6.9s.68,0,1.33,0a3,3,0,0,1,1.22.14l0,0V7a5,5,0,0,0-.32,2.5,4.33,4.33,0,0,0,1,2.2c.38.37.57.66.52.89a.19.19,0,0,1-.15.16A6.56,6.56,0,0,1,8.09,13.05ZM7,6.89a7.51,7.51,0,0,1,.69,2.24,2.58,2.58,0,0,1-.45,1.77l0,.07a2.51,2.51,0,0,1-.83.71c-.43.26-.77.48-.59.82s1.1.49,2.36.49a6.56,6.56,0,0,0,2.37-.33h0a.13.13,0,0,0,.11-.12c0-.18-.07-.39-.5-.82a4.59,4.59,0,0,1-1-2.25A5.07,5.07,0,0,1,9.39,7a3.41,3.41,0,0,0-1.16-.11C7.68,6.85,7.11,6.88,7,6.89Z"/><path class="cls-30" d="M8.89,12.5c-.29-.29-.16-1.14-.16-1.14s-.07.83.2,1.1Z"/><path class="cls-30" d="M7.22,12.38l0-.05a3.71,3.71,0,0,0,1-2.41A3.54,3.54,0,0,1,7.22,12.38Z"/><path class="cls-31" d="M14.25,16.68a.92.92,0,0,0-.11-.91,1.15,1.15,0,0,1-.1-.69c0-.24-.57-.49-1.08-.17-.25.15-.23.81-.25,1.8C13.2,16.76,13.85,17,14.25,16.68Z"/><path class="cls-32" d="M14.25,16.68a.92.92,0,0,0-.11-.91,1.15,1.15,0,0,1-.1-.69c0-.24-.57-.49-1.08-.17-.25.15-.23.81-.25,1.8C13.2,16.76,13.85,17,14.25,16.68Z"/><path class="cls-33" d="M14.39,18.66h0a2.36,2.36,0,0,0-.17-1.95l0,0c-.4.27-1.05.08-1.54,0a17.6,17.6,0,0,1-.09,1.81A3.86,3.86,0,0,0,14.39,18.66Z"/><path class="cls-34" d="M14.39,18.66h0a2.36,2.36,0,0,0-.17-1.95l0,0c-.4.27-1.05.08-1.54,0a17.6,17.6,0,0,1-.09,1.81A3.86,3.86,0,0,0,14.39,18.66Z"/><path class="cls-35" d="M14.16,20.37a1.82,1.82,0,0,0,.23-1.71,3.86,3.86,0,0,1-1.77-.14,13.07,13.07,0,0,1-.26,1.61A5.39,5.39,0,0,0,14.16,20.37Z"/><path class="cls-36" d="M14.16,20.37a1.82,1.82,0,0,0,.23-1.71,3.86,3.86,0,0,1-1.77-.14,13.07,13.07,0,0,1-.26,1.61A5.39,5.39,0,0,0,14.16,20.37Z"/><path class="cls-37" d="M14.16,20.37h0a5.39,5.39,0,0,1-1.8-.24c0,.17-.08.33-.13.5a2.43,2.43,0,0,1-.22.55,6.7,6.7,0,0,0,1.71.65A1.85,1.85,0,0,0,14.16,20.37Z"/><path class="cls-38" d="M14.16,20.37h0a5.39,5.39,0,0,1-1.8-.24c0,.17-.08.33-.13.5a2.43,2.43,0,0,1-.22.55,6.7,6.7,0,0,0,1.71.65A1.85,1.85,0,0,0,14.16,20.37Z"/><path class="cls-39" d="M6.77,23.54a14.07,14.07,0,0,1-1.54.11,9.56,9.56,0,0,1,.52,1.13c0,.16.86.29,1,.19h0A2.26,2.26,0,0,0,6.77,23.54Z"/><path class="cls-40" d="M8.29,23.29a14.09,14.09,0,0,1-1.52.25,2.26,2.26,0,0,1,0,1.43,3,3,0,0,0,1.51.3l.23.06A19.83,19.83,0,0,0,8.29,23.29Z"/><path class="cls-41" d="M9.56,22.93a12.08,12.08,0,0,1-1.27.36,19.83,19.83,0,0,1,.19,2A1.79,1.79,0,0,0,10.24,25h0A5.25,5.25,0,0,0,9.56,22.93Z"/><path class="cls-42" d="M12.19,24a9.62,9.62,0,0,1-1.26-1.75,6.2,6.2,0,0,1-1.37.66A5.25,5.25,0,0,1,10.25,25C10.66,25.12,11.49,24.58,12.19,24Z"/><path class="cls-43" d="M13.71,21.84h0A6.7,6.7,0,0,1,12,21.18a3.4,3.4,0,0,1-1.08,1.09A9.62,9.62,0,0,0,12.19,24a10.24,10.24,0,0,0,1.25-1.13C13.54,22.75,13.83,22.14,13.71,21.84Z"/><path class="cls-44" d="M13.71,21.84h0A6.7,6.7,0,0,1,12,21.18a3.4,3.4,0,0,1-1.08,1.09A9.62,9.62,0,0,0,12.19,24a10.24,10.24,0,0,0,1.25-1.13C13.54,22.75,13.83,22.14,13.71,21.84Z"/><path class="cls-13" d="M9.08,25.42a3.15,3.15,0,0,1-.84-.12H8.11A3.19,3.19,0,0,1,6.73,25a.47.47,0,0,1-.19,0c-.24,0-.82-.09-.82-.25a8.53,8.53,0,0,0-.52-1.12l0-.05h.05a17.13,17.13,0,0,0,3.19-.39c1.49-.35,3.36-1.09,3.78-2.61a15.81,15.81,0,0,0,.49-4.18c0-.85,0-1.41.25-1.56a1,1,0,0,1,.54-.15.79.79,0,0,1,.53.18.23.23,0,0,1,.07.17,1.16,1.16,0,0,0,.09.68c.16.24.3.7.1.94a2.52,2.52,0,0,1,.16,1.95,2,2,0,0,1-.23,1.73,1.88,1.88,0,0,1-.45,1.47,1.65,1.65,0,0,1-.28,1.06c-.1.16-2.17,2.12-3.07,2.12h-.15A1.53,1.53,0,0,1,9.08,25.42Zm-.83-.19h0a3,3,0,0,0,.82.12,1.37,1.37,0,0,0,1.13-.4v0h0l.15,0a4,4,0,0,0,1.8-1,12.47,12.47,0,0,0,1.22-1.09c.08-.13.38-.74.26-1v0l0,0a1.81,1.81,0,0,0,.44-1.44v0h0a1.83,1.83,0,0,0,.22-1.69h0a2.34,2.34,0,0,0-.16-1.92l0,0,0,0c.2-.2.08-.64-.09-.89a1.24,1.24,0,0,1-.1-.72A.11.11,0,0,0,14,15a.64.64,0,0,0-.48-.17.89.89,0,0,0-.5.15c-.21.13-.22.7-.23,1.5a15.57,15.57,0,0,1-.49,4.2,3.06,3.06,0,0,1-1.45,1.75,8.58,8.58,0,0,1-2.38.9,16,16,0,0,1-3.15.39,7.82,7.82,0,0,1,.5,1.1c0,.08.44.19.76.19a.44.44,0,0,0,.17,0l0,0,0,0a3,3,0,0,0,1.35.29h.14Z"/><path class="cls-45" d="M19.81,23.45c.13-.22.94-.38,1.08-.2s-.18.91-.4,1S19.7,23.64,19.81,23.45Z"/><path class="cls-46" d="M19.9,23.62a1.4,1.4,0,0,1,1-.37c.15.19-.18.91-.4,1S19.78,23.81,19.9,23.62Z"/><path class="cls-47" d="M19.93,23.67c.13-.22.84-.49.92-.39s-.2.84-.42.93S19.84,23.81,19.93,23.67Z"/><path class="cls-48" d="M20.91,23.23h0a.49.49,0,0,1,0,.36,1.18,1.18,0,0,1-.43.7c-.13.05-.32-.05-.5-.27s-.29-.46-.22-.59a1.07,1.07,0,0,1,.73-.28C20.63,23.14,20.84,23.14,20.91,23.23Zm-.86.75c.16.19.33.29.43.25a1.23,1.23,0,0,0,.39-.65.45.45,0,0,0,0-.31l0,0,0,0a.52.52,0,0,0-.35-.06,1,1,0,0,0-.68.26C19.79,23.55,19.89,23.78,20.05,24Z"/><path class="cls-49" d="M18.35,23.15c-.07-.24.38-.93.61-.91s.53.76.44,1S18.41,23.37,18.35,23.15Z"/><path class="cls-50" d="M18.53,23.21c-.07-.25.3-1,.43-1s.53.76.44,1S18.59,23.43,18.53,23.21Z"/><path class="cls-51" d="M18.59,23.22c-.07-.25.23-.94.35-.93s.47.73.38.95S18.63,23.38,18.59,23.22Z"/><path class="cls-48" d="M19,22.21h0c.11,0,.2.13.27.24a1.21,1.21,0,0,1,.2.79c-.05.13-.26.19-.54.17s-.53-.11-.57-.25a1,1,0,0,1,.3-.72C18.69,22.35,18.84,22.2,19,22.21Zm-.07,1.14c.25,0,.44,0,.48-.14a1.2,1.2,0,0,0-.2-.73c-.07-.13-.15-.2-.22-.21v0a.48.48,0,0,0-.28.21,1,1,0,0,0-.29.66C18.4,23.24,18.64,23.33,18.89,23.35Z"/><path class="cls-52" d="M20.67,24.78c.24-.1,1,.27,1,.5s-.7.61-.93.55S20.46,24.86,20.67,24.78Z"/><path class="cls-53" d="M20.64,25a1.39,1.39,0,0,1,1,.31c0,.23-.7.61-.93.55S20.43,25.05,20.64,25Z"/><path class="cls-54" d="M20.63,25c.24-.09,1,.13,1,.25s-.67.55-.9.48S20.47,25.09,20.63,25Z"/><path class="cls-48" d="M21.68,25.28h0c0,.11-.11.22-.21.29a1.14,1.14,0,0,1-.76.29c-.14,0-.23-.23-.24-.52s.06-.54.19-.59a1.08,1.08,0,0,1,.75.21C21.51,25,21.67,25.15,21.68,25.28Zm-1.14.06c0,.25.08.43.18.46a1.14,1.14,0,0,0,.71-.28c.12-.09.18-.18.18-.24h0c0-.07-.09-.17-.23-.26a1,1,0,0,0-.7-.21C20.59,24.84,20.53,25.08,20.54,25.34Z"/><path class="cls-55" d="M11.12,23.52a16.56,16.56,0,0,0,3.29,3.28c1.55,1,3.45,1.53,4.65,1.11a2.75,2.75,0,0,0,1.73-2.74c-.16-.92-.69-2.06-1.91-2.1s-2.75.72-3.59.57-2.93-1.2-3.42-1S11.12,23.52,11.12,23.52Z"/><path class="cls-56" d="M11.29,23.16a17.28,17.28,0,0,0,3.31,3.22,5.53,5.53,0,0,0,4.48.9c1.2-.43,1.86-1.19,1.71-2.11s-.69-2.06-1.91-2.1-2.75.72-3.59.57-2.93-1.2-3.42-1A.84.84,0,0,0,11.29,23.16Z"/><path class="cls-57" d="M18,23.15a9.89,9.89,0,0,1-2.66.49c-.83-.16-2.93-1.2-3.42-1a.84.84,0,0,0-.58.56,17.28,17.28,0,0,0,3.31,3.22,7.14,7.14,0,0,0,2.4,1C16.16,25.84,16.18,23.87,18,23.15Z"/><path class="cls-58" d="M20.79,25.17c-.16-.92-.69-2.06-1.91-2.1a2.37,2.37,0,0,0-.89.09c-1.92.87-1.75,2.71-1,4.21a4.08,4.08,0,0,0,2.08-.09C20.28,26.85,20.94,26.09,20.79,25.17Z"/><path class="cls-59" d="M16.5,25.59a2.22,2.22,0,0,1,2.27-2.48c1.33.05,1.64.89,1.93,1.84-.61-1-1.09-1.39-2.17-1.36A2.5,2.5,0,0,0,16.5,25.59Z"/><path class="cls-60" d="M15,24.32a.75.75,0,0,0,.77-.66,2.93,2.93,0,0,1-.53,0,5.22,5.22,0,0,1-.94-.34.72.72,0,0,0-.08.32A.75.75,0,0,0,15,24.32Z"/><path class="cls-60" d="M14.13,24.27a.45.45,0,0,1-.45.44.44.44,0,1,1,0-.88A.45.45,0,0,1,14.13,24.27Z"/><path class="cls-60" d="M15,25.06a.33.33,0,0,1-.35.29.3.3,0,1,1,0-.59A.33.33,0,0,1,15,25.06Z"/><ellipse class="cls-60" cx="15.62" cy="24.76" rx="0.47" ry="0.47"/><path class="cls-61" d="M12.79,22.8a15.24,15.24,0,0,0,2.76.94,16.93,16.93,0,0,0,2.2-.49,2.17,2.17,0,0,0-1.13,1.23,3.17,3.17,0,0,1-2-.19c-.52-.25-1-.64-1.78-1.06C12.47,23,12.29,22.66,12.79,22.8Z"/><path class="cls-30" d="M18.12,28.09h0a7.47,7.47,0,0,1-3.73-1.26,16.79,16.79,0,0,1-3.3-3.28v0s.28-.78.78-.94a.3.3,0,0,1,.14,0,7.6,7.6,0,0,1,1.86.57,11.36,11.36,0,0,0,1.44.48l.24,0h0A6.23,6.23,0,0,0,17,23.35,7.48,7.48,0,0,1,18.88,23c1.47,0,1.86,1.65,1.94,2.13a2.65,2.65,0,0,1-2.7,2.93Zm-7-4.57a16.6,16.6,0,0,0,3.27,3.25A7.42,7.42,0,0,0,18.12,28h0a2.58,2.58,0,0,0,2.63-2.84c-.08-.48-.46-2-1.87-2.08a7.34,7.34,0,0,0-1.9.32,6.28,6.28,0,0,1-1.44.27h0a1,1,0,0,1-.25,0,9.86,9.86,0,0,1-1.45-.49A8,8,0,0,0,12,22.62l-.12,0C11.45,22.77,11.2,23.4,11.16,23.52Z"/><path class="cls-30" d="M16.55,24.68v-.06a2.41,2.41,0,0,1,1.5-1.51l0,.06a2.34,2.34,0,0,0-1.46,1.47,2.61,2.61,0,0,0-.12,1A1.88,1.88,0,0,1,16.55,24.68Z"/><path class="cls-30" d="M18.39,25.73a1.5,1.5,0,0,0-.31-1.49,1.06,1.06,0,0,1,.38.55,1.43,1.43,0,0,1,.07.37A1,1,0,0,1,18.39,25.73Z"/><path class="cls-30" d="M19.66,26a1.93,1.93,0,0,0-1.16-.87v-.06a1.67,1.67,0,0,1,.66.3A1.53,1.53,0,0,1,19.66,26Z"/><path class="cls-62" d="M5.21,23.26A4.43,4.43,0,0,1,6.33,25.9a1.91,1.91,0,0,1-2.07,2c-1.5.1-3-.39-3.52-1.45A1.55,1.55,0,0,1,1.07,25a.6.6,0,0,0,.05-.69,3.86,3.86,0,0,1-.14-2c.2-.82,1-1.42,1.49-1.29A20.28,20.28,0,0,1,5.21,23.26Z"/><path class="cls-63" d="M5.86,24.19a1.86,1.86,0,0,1-1.6-1c-.22.12-.35.38-.63.19s-.29-.61-.6-.79a4.47,4.47,0,0,1-1-1.17,2.11,2.11,0,0,0-.46.66,3.25,3.25,0,0,0,.38,3.38,2.81,2.81,0,0,1-.75-.45,1.74,1.74,0,0,0,.58,2.4,4.77,4.77,0,0,0,2.51.47,1.91,1.91,0,0,0,2.07-2A3.07,3.07,0,0,0,5.86,24.19Z"/><path class="cls-64" d="M5.86,24.19a1.86,1.86,0,0,1-1.6-1c-.22.12-.35.38-.63.19s-.29-.61-.6-.79a4.47,4.47,0,0,1-1-1.17,2.11,2.11,0,0,0-.46.66,3.25,3.25,0,0,0,.38,3.38,2.81,2.81,0,0,1-.75-.45,1.74,1.74,0,0,0,.58,2.4,4.77,4.77,0,0,0,2.51.47,1.91,1.91,0,0,0,2.07-2A3.07,3.07,0,0,0,5.86,24.19Z"/><path class="cls-65" d="M6.2,25.82c0,1.52-1.06,2.35-2.86,1.88-.76-.19.48-2.32.48-3.24s.81-.22,1.69-.2C5.94,24.27,6.2,25,6.2,25.82Z"/><path class="cls-66" d="M1.88,23.65a.8.8,0,0,0-.73-.85.7.7,0,0,0-.25.05,4.09,4.09,0,0,0,.22,1.46.82.82,0,0,1,.06.19A.8.8,0,0,0,1.88,23.65Z"/><path class="cls-60" d="M1.88,23.65a.82.82,0,0,0-.58-.83,4.32,4.32,0,0,0,.08,1.64A.86.86,0,0,0,1.88,23.65Z"/><path class="cls-30" d="M3.9,28A3.43,3.43,0,0,1,.71,26.48h0A1.59,1.59,0,0,1,1,25c.15-.2.17-.33.05-.66A3.86,3.86,0,0,1,1,22.25a1.74,1.74,0,0,1,1.38-1.33l.15,0a20.16,20.16,0,0,1,2.75,2.29A4.48,4.48,0,0,1,6.36,25.9,1.94,1.94,0,0,1,4.26,28ZM.76,26.46A3.41,3.41,0,0,0,3.9,27.9h.36a1.89,1.89,0,0,0,2-2,4.4,4.4,0,0,0-1.11-2.62A19.81,19.81,0,0,0,2.46,21l-.13,0A1.67,1.67,0,0,0,1,22.26a4,4,0,0,0,.14,2,.64.64,0,0,1-.06.72A1.58,1.58,0,0,0,.76,26.46Z"/><path class="cls-30" d="M1.17,24.63h.06a1.42,1.42,0,0,0,.61.82A1.29,1.29,0,0,1,1.17,24.63Z"/><path class="cls-60" d="M3,24.4a.51.51,0,1,1-.5-.52A.51.51,0,0,1,3,24.4Z"/><path class="cls-60" d="M3,23.3a.48.48,0,0,1-.48.46A.47.47,0,0,1,2,23.3a.46.46,0,0,1,.47-.45A.47.47,0,0,1,3,23.3Z"/><path class="cls-67" d="M1.39,27.09c-.2.18-.19,1.05,0,1.15s.9-.38.94-.63S1.56,26.93,1.39,27.09Z"/><path class="cls-68" d="M1.58,27.15a1.44,1.44,0,0,0-.16,1.09c.22.12.9-.38.94-.63S1.76,27,1.58,27.15Z"/><path class="cls-69" d="M1.64,27.17c-.2.18-.32,1-.21,1s.83-.39.87-.64S1.77,27.05,1.64,27.17Z"/><path class="cls-48" d="M1.23,27.88a1.16,1.16,0,0,1,.13-.81c.11-.1.41,0,.65.09s.41.31.39.46a1.32,1.32,0,0,1-.62.59c-.12.06-.27.12-.37.06h0C1.29,28.21,1.24,28,1.23,27.88Zm.18-.76a1.06,1.06,0,0,0-.11.75c0,.18.07.31.13.34v0l0,0a.4.4,0,0,0,.31-.06,1.23,1.23,0,0,0,.58-.54c0-.11-.12-.27-.35-.39S1.48,27.05,1.41,27.12Z"/><path class="cls-70" d="M.69,25.75c-.26,0-.75.74-.64,1s1,.21,1.13,0S.93,25.72.69,25.75Z"/><path class="cls-71" d="M.82,25.91c-.26,0-.83.68-.77.8s1,.21,1.13,0S1.06,25.88.82,25.91Z"/><path class="cls-72" d="M.85,26c-.26,0-.82.6-.76.72s.9.16,1.07,0S1,25.94.85,26Z"/><path class="cls-48" d="M.11,26.3c.14-.27.4-.56.58-.58s.35.21.47.45.15.49.05.6a1.26,1.26,0,0,1-.85.12c-.13,0-.29-.07-.34-.17H0C0,26.61.05,26.41.11,26.3Zm.59-.51c-.14,0-.39.26-.53.54a.49.49,0,0,0-.09.36l0,0,0,0a.39.39,0,0,0,.29.13,1.21,1.21,0,0,0,.79-.1c.08-.08.06-.28-.06-.51S.8,25.77.7,25.79Z"/><path class="cls-73" d="M3.31,27.87c-.08.25.34,1,.58,1s.61-.76.53-1S3.39,27.64,3.31,27.87Z"/><path class="cls-74" d="M3.51,27.82a1.44,1.44,0,0,0,.38,1c.25,0,.61-.76.53-1S3.59,27.59,3.51,27.82Z"/><path class="cls-75" d="M3.57,27.81c-.09.26.18,1,.31,1s.54-.73.46-1S3.63,27.64,3.57,27.81Z"/><path class="cls-48" d="M3.55,28.63a1.12,1.12,0,0,1-.27-.78c.05-.14.35-.22.62-.22s.5.07.55.21a1.25,1.25,0,0,1-.26.82c-.07.11-.18.23-.3.23h0C3.76,28.9,3.62,28.73,3.55,28.63Zm-.21-.75a1.15,1.15,0,0,0,.26.71c.11.15.22.24.29.24v0c.07,0,.16-.08.25-.21a1.29,1.29,0,0,0,.25-.75c0-.11-.23-.18-.49-.17S3.38,27.78,3.34,27.88Z"/><path class="cls-76" d="M7.53,24.21a3.09,3.09,0,0,0,.41,1.88,1.5,1.5,0,0,0,1.75.6c.46-.13-.4-.46-.57-.67s-.53-.66.1-1.62C8.73,24.23,7.82,23.76,7.53,24.21Z"/><path class="cls-77" d="M9.53,26.73l.16,0c.46-.13-.4-.46-.57-.67s-.53-.66.1-1.62A3.84,3.84,0,0,0,7.86,24C7.77,24.75,7.85,26.63,9.53,26.73Z"/><path class="cls-30" d="M9.18,26.8a1.5,1.5,0,0,1-1.27-.69A3.25,3.25,0,0,1,7.5,24.2h0a.5.5,0,0,1,.44-.2,3,3,0,0,1,1,.28l.26.1h0l0,0c-.61.94-.26,1.37-.09,1.58a1.24,1.24,0,0,0,.31.23c.22.14.41.26.4.37s-.06.1-.16.12A1.57,1.57,0,0,1,9.18,26.8ZM7.56,24.22A3.13,3.13,0,0,0,8,26.08a1.4,1.4,0,0,0,1.21.66,1.8,1.8,0,0,0,.5-.08c.07,0,.11,0,.11-.07s-.2-.21-.36-.31A1.41,1.41,0,0,1,9.1,26c-.18-.22-.54-.67.07-1.62L9,24.33a3.34,3.34,0,0,0-1-.28A.43.43,0,0,0,7.56,24.22Z"/><path class="cls-78" d="M18.64,8.91c0-.24.53-.77.73-.71s.33.8.2,1S18.65,9.12,18.64,8.91Z"/><path class="cls-79" d="M18.79,9c0-.23.48-.82.58-.79s.33.8.2,1S18.8,9.2,18.79,9Z"/><path class="cls-80" d="M18.84,9c0-.23.41-.8.51-.77s.28.76.15.94S18.85,9.17,18.84,9Z"/><path class="cls-48" d="M19.38,8.18h0c.1,0,.16.16.2.27a1.14,1.14,0,0,1,0,.75c-.08.11-.27.13-.53.05s-.46-.21-.46-.34.2-.43.42-.6S19.27,8.14,19.38,8.18Zm-.29,1c.22.06.4.05.46,0a1.07,1.07,0,0,0,0-.7.39.39,0,0,0-.15-.24v0c-.06,0-.17,0-.3.13s-.4.42-.39.55S18.86,9.12,19.09,9.2Z"/><path class="cls-81" d="M17.31,9.46c-.18-.16-.18-.92,0-1s.79.32.84.54S17.47,9.6,17.31,9.46Z"/><path class="cls-82" d="M17.48,9.41a1.27,1.27,0,0,1-.15-1c.19-.11.79.32.84.54S17.64,9.55,17.48,9.41Z"/><path class="cls-83" d="M17.53,9.38c-.18-.15-.29-.85-.19-.9s.73.33.77.55S17.65,9.49,17.53,9.38Z"/><path class="cls-48" d="M17.31,8.41h0a.4.4,0,0,1,.33.05A1.19,1.19,0,0,1,18.2,9c0,.13-.1.28-.34.41s-.47.18-.57.09a1,1,0,0,1-.13-.72C17.17,8.65,17.21,8.46,17.31,8.41Zm.52.92c.21-.11.33-.24.31-.34a1.06,1.06,0,0,0-.52-.47.43.43,0,0,0-.28-.06v0c-.06,0-.1.15-.12.31a1,1,0,0,0,.11.66C17.39,9.49,17.62,9.45,17.83,9.33Z"/><path class="cls-84" d="M20,9.62c.15-.18.91-.23,1,0s-.27.82-.49.88S19.87,9.79,20,9.62Z"/><path class="cls-85" d="M20.06,9.79a1.31,1.31,0,0,1,1-.22c.12.19-.27.82-.49.88S19.93,10,20.06,9.79Z"/><path class="cls-86" d="M20.09,9.84c.14-.19.83-.35.89-.25s-.29.75-.5.81S20,10,20.09,9.84Z"/><path class="cls-48" d="M21,9.56h0a.43.43,0,0,1,0,.33,1.18,1.18,0,0,1-.48.59c-.13,0-.29-.08-.43-.31S19.9,9.71,20,9.6a1,1,0,0,1,.71-.17C20.79,9.43,21,9.46,21,9.56Zm-.88.58c.12.19.26.3.36.28A1.08,1.08,0,0,0,21,9.87a.37.37,0,0,0,0-.28l0,0,0,0c0-.06-.15-.09-.31-.1a1,1,0,0,0-.66.15C20,9.71,20,9.93,20.16,10.14Z"/><path class="cls-87" d="M12.4,14a5.13,5.13,0,0,1,2.68-1.16,9.68,9.68,0,0,1,1.35-2.2c.3-.37.61-1.38,1.34-1.66a2.32,2.32,0,0,1,2.17.48,1.86,1.86,0,0,1,.38,2c-.29.82-1.26,2.23-3.79,3.22a9.17,9.17,0,0,1-4.3.74Z"/><path class="cls-88" d="M17,10.87,17,11A.2.2,0,0,0,17,10.87Z"/><path class="cls-89" d="M19.94,9.44A2.32,2.32,0,0,0,17.77,9a1.35,1.35,0,0,0-.76.93,1.5,1.5,0,0,0-.07.88l0,0a.5.5,0,0,1,0,.13A.2.2,0,0,1,17,11l0-.08c-.12-.06-.15-.1-.17-.31-.25.44-1,1.25-1.06,1.34A4.31,4.31,0,0,0,15,13.48,1.35,1.35,0,0,1,15,13a6,6,0,0,0-2.21,1,1.63,1.63,0,0,1,.41.79,9.83,9.83,0,0,0,4.9-.85,5.09,5.09,0,0,0,2.24-2.46A1.86,1.86,0,0,0,19.94,9.44Z"/><path class="cls-90" d="M19.94,9.44A2.32,2.32,0,0,0,17.77,9a1.46,1.46,0,0,0-.76.93,1.29,1.29,0,0,0-.07.88l0,0a.3.3,0,0,1,0,.1A3.1,3.1,0,0,0,20.06,12a2.2,2.2,0,0,0,.26-.55A1.86,1.86,0,0,0,19.94,9.44Z"/><path class="cls-91" d="M20.28,10.77c-.24.57-1.1.75-1.93.41s-1.29-1.09-1.05-1.66,1.1-.76,1.93-.41S20.52,10.2,20.28,10.77Z"/><path class="cls-92" d="M16.82,10.52c-.3.49-1.05,1.29-1.08,1.38A4.31,4.31,0,0,0,15,13.48,1.35,1.35,0,0,1,15,13a6,6,0,0,0-2.21,1,1.63,1.63,0,0,1,.41.79,9.83,9.83,0,0,0,4.9-.85,6.48,6.48,0,0,0,2-1.91C19.49,12.29,17.28,11.88,16.82,10.52Z"/><path class="cls-66" d="M16.46,12.1a.87.87,0,0,0-.53-.8,7.31,7.31,0,0,0-.84,1.49.83.83,0,0,0,.51.18A.86.86,0,0,0,16.46,12.1Z"/><path class="cls-93" d="M16.14,11.42a6.84,6.84,0,0,0-.92,1.45.83.83,0,0,0,.38.1.86.86,0,0,0,.86-.87A.81.81,0,0,0,16.14,11.42Z"/><path class="cls-30" d="M12.8,15.44a3,3,0,0,1-.57,0h0L12.37,14h0a5.25,5.25,0,0,1,2.67-1.17A10.7,10.7,0,0,1,16.4,10.6a2.9,2.9,0,0,0,.28-.46,2.43,2.43,0,0,1,1.07-1.21,1.79,1.79,0,0,1,.62-.1A2.36,2.36,0,0,1,20,9.42a1.88,1.88,0,0,1,.39,2c-.22.61-1,2.16-3.81,3.24A10.42,10.42,0,0,1,12.8,15.44Zm-.53-.08c.07,0,.25,0,.53,0a10.48,10.48,0,0,0,3.72-.76c2.75-1.08,3.55-2.61,3.77-3.21a1.82,1.82,0,0,0-.37-1.94,2.32,2.32,0,0,0-1.55-.58,1.82,1.82,0,0,0-.59.1,2.36,2.36,0,0,0-1,1.18,3,3,0,0,1-.29.47,10.07,10.07,0,0,0-1.34,2.19v0h0A5.23,5.23,0,0,0,12.43,14Z"/><path class="cls-30" d="M15,13.48a1.94,1.94,0,0,1,0-.73l.06,0A2.65,2.65,0,0,0,15,13.48Z"/><path class="cls-93" d="M16.34,13.54a.5.5,0,0,1-1,0,.5.5,0,0,1,1,0Z"/><path class="cls-93" d="M17.11,13.65a.34.34,0,0,1-.32.36.35.35,0,0,1-.33-.36.36.36,0,0,1,.33-.37A.35.35,0,0,1,17.11,13.65Z"/><path class="cls-93" d="M17.5,12.76a.44.44,0,1,1-.44-.47A.45.45,0,0,1,17.5,12.76Z"/><path class="cls-30" d="M16.74,10h.07a1.46,1.46,0,0,0,.71,1.37A1.46,1.46,0,0,1,16.74,10Z"/><path class="cls-13" d="M13.83,16.85h0v-.06a.68.68,0,0,0,.38-.11l.05,0A.65.65,0,0,1,13.83,16.85Z"/><path class="cls-13" d="M14,18.77a1.9,1.9,0,0,1-.49-.06l0-.06a1.49,1.49,0,0,0,.89,0l0,.06A1,1,0,0,1,14,18.77Z"/><path class="cls-13" d="M14,20.41a1.73,1.73,0,0,1-.56-.09l0-.06a1.72,1.72,0,0,0,.72.08v.06Z"/><path class="cls-13" d="M13.71,21.88a1.39,1.39,0,0,1-.66-.23l0,0a1.28,1.28,0,0,0,.63.21Z"/><path class="cls-13" d="M10.27,25h-.06a1.8,1.8,0,0,0-.18-.66l.05,0A1.76,1.76,0,0,1,10.27,25Z"/><path class="cls-13" d="M6.76,25l0,0a2,2,0,0,0,0-.77h.06A1.65,1.65,0,0,1,6.76,25Z"/><path class="cls-94" d="M8.26,22.17a4,4,0,0,1-3.74-.05c-.12-.05-1.25-.92-.78,0A4.93,4.93,0,0,0,8.1,24.61c.1-.82.1-1.61.17-2.43Z"/><path class="cls-95" d="M7.8,23.76c.23-.27.16-.93-.18-.89a6.13,6.13,0,0,1-2-.16c-.27-.06-.7.14-.59.5C5.3,23.85,7.4,24.24,7.8,23.76Z"/><path class="cls-96" d="M7.55,23.7c.18-.22.13-.73-.14-.7a4.82,4.82,0,0,1-1.52-.12c-.21-.05-.55.1-.46.38C5.6,23.76,7.24,24.07,7.55,23.7Z"/><path class="cls-97" d="M8.26,22.17c0,.8-.06,1.62-.16,2.44A6.27,6.27,0,0,0,11.62,24a2,2,0,0,0,.94-1.6C11.59,22.92,8.85,22.83,8.26,22.17Z"/><path class="cls-98" d="M8.94,23.83c-.21-.3-.09-.95.25-.88a6.14,6.14,0,0,0,2,0c.28,0,.53.11.43.53C11.39,24.13,9.3,24.33,8.94,23.83Z"/><path class="cls-99" d="M9.23,23.77c-.16-.22-.07-.73.19-.67a4.84,4.84,0,0,0,1.52,0c.21,0,.41.09.33.41C11.13,24,9.51,24.16,9.23,23.77Z"/><path class="cls-100" d="M8.65,24.66c-1.13,0-3.87-.25-4.94-2.53a.51.51,0,0,1,0-.51c.08-.14.29-.21.61-.21s.4,0,.43,0l7.84.37v0A2,2,0,0,1,11.64,24,5.71,5.71,0,0,1,8.65,24.66ZM4.27,21.47c-.2,0-.47,0-.56.19a.46.46,0,0,0,.06.44c1.05,2.25,3.76,2.49,4.88,2.49a5.67,5.67,0,0,0,2.95-.66,2,2,0,0,0,.89-2.05l-7.8-.37h0A2.42,2.42,0,0,0,4.27,21.47Z"/><path class="cls-101" d="M13.43,19.61a5.79,5.79,0,0,1-5.07.4c0,.73-.1,1.43-.08,2.17.35.48,2.13.65,3.21.49A2.18,2.18,0,0,0,13.59,21,1.81,1.81,0,0,0,13.43,19.61Z"/><path class="cls-102" d="M8.91,21.86c-.3-.42-.13-1.34.35-1.23a8.75,8.75,0,0,0,2.75,0c.4-.06.81.09.78.76C12.7,22.46,9.41,22.57,8.91,21.86Z"/><path class="cls-103" d="M9.21,21.77c-.23-.33-.09-1,.28-1a6.41,6.41,0,0,0,2.14,0c.3,0,.62.08.6.59C12.16,22.24,9.61,22.32,9.21,21.77Z"/><path class="cls-104" d="M8.36,20h0a4.27,4.27,0,0,1-2.81-.11S4.62,21.3,4.71,22a3.23,3.23,0,0,0,3.55.17l0,0C8.26,21.44,8.35,20.74,8.36,20Z"/><path class="cls-105" d="M8,21.79c.29-.42.12-1.34-.36-1.23a8.75,8.75,0,0,1-2.75,0c-.39-.06-.81.09-.78.76C4.21,22.39,7.49,22.5,8,21.79Z"/><path class="cls-106" d="M7.64,21.78c.24-.34.1-1.08-.29-1a7.19,7.19,0,0,1-2.22,0c-.32-.05-.65.07-.63.61C4.57,22.27,7.23,22.35,7.64,21.78Z"/><path class="cls-100" d="M10.61,22.76c-.95,0-2.07-.17-2.36-.56a3.15,3.15,0,0,1-1.69.43A2.65,2.65,0,0,1,4.69,22h0a4.84,4.84,0,0,1,.83-2.12h0l7.78-.67v0a2.26,2.26,0,0,1,.3,1.75,2.18,2.18,0,0,1-2.13,1.74A5.89,5.89,0,0,1,10.61,22.76Zm-2.34-.65,0,0c.22.37,1.34.56,2.32.56a5.66,5.66,0,0,0,.87-.06A2.15,2.15,0,0,0,13.56,21a2.19,2.19,0,0,0-.28-1.69l-7.72.66a4.71,4.71,0,0,0-.82,2,2.62,2.62,0,0,0,1.82.6,3.07,3.07,0,0,0,1.68-.44Z"/><path class="cls-107" d="M4.26,12.48s-1,.39-1,2.83a6.28,6.28,0,0,1,5-.1h0c0-.77-.08-1.57-.15-2.34C6.73,11.63,4.26,12.48,4.26,12.48Z"/><path class="cls-108" d="M6.53,12.65c-.24,0-2.48-.05-2.47,1a.76.76,0,0,0,.7.84A10.72,10.72,0,0,1,7,14.43a.61.61,0,0,0,.75-.65C7.67,12.93,7.17,12.74,6.53,12.65Z"/><path class="cls-109" d="M6.34,12.86c-.2,0-2,0-2,.82a.62.62,0,0,0,.58.69,9.07,9.07,0,0,1,1.81,0,.49.49,0,0,0,.62-.53C7.28,13.09,6.87,12.93,6.34,12.86Z"/><path class="cls-110" d="M12.42,13.31a1.21,1.21,0,0,0-.73-1,4.41,4.41,0,0,0-3.51.58h0c.07.77.14,1.57.15,2.34,2.69-.69,4.11-.26,4.75.11C13.33,14.72,12.52,14,12.42,13.31Z"/><path class="cls-111" d="M9.72,12.76c.23,0,2.12-.2,2.34.64.12.47.26,1.08-.13,1.1a10.12,10.12,0,0,0-2.27,0c-.39.08-1-.08-.95-.55C8.68,13.07,9.09,12.87,9.72,12.76Z"/><path class="cls-112" d="M9.8,13c.19,0,1.74-.16,1.92.53.09.38.21.88-.1.9a9,9,0,0,0-1.87,0C9.43,14.5,9,14.36,9,14,9,13.28,9.29,13.11,9.8,13Z"/><path class="cls-100" d="M11.55,15.84c-.78,0-1.78-.09-2.65-.17-.7-.06-1.36-.12-1.78-.12H6.81a2.9,2.9,0,0,1-.45,0,5.38,5.38,0,0,1-2.92-.74.36.36,0,0,1-.11-.28c.14-1.84.89-2.11.92-2.12a6.42,6.42,0,0,1,1.82-.29,3.18,3.18,0,0,1,2.11.67,4.73,4.73,0,0,1,2.54-.73,2.71,2.71,0,0,1,1,.16,1.24,1.24,0,0,1,.74,1,2.3,2.3,0,0,0,.32.74c.27.49.58,1,.2,1.51C12.81,15.75,12.34,15.84,11.55,15.84Zm-4.43-.36c.42,0,1.08.06,1.78.13.88.08,1.87.17,2.65.17s1.22-.09,1.37-.27c.36-.44.07-.95-.21-1.44a2.58,2.58,0,0,1-.33-.76,1.17,1.17,0,0,0-.7-1,2.71,2.71,0,0,0-1-.16,4.68,4.68,0,0,0-2.52.73l0,0,0,0a3.1,3.1,0,0,0-2.09-.66,6.48,6.48,0,0,0-1.8.28s-.74.27-.88,2.07a.32.32,0,0,0,.1.22,5.28,5.28,0,0,0,2.87.73,2.76,2.76,0,0,0,.44,0Z"/><path class="cls-113" d="M8.32,15.23a5.55,5.55,0,0,0-4.47-.08,2.12,2.12,0,0,0-.3,2.68,6.86,6.86,0,0,1,4.85,0C8.41,16.93,8.33,16.08,8.32,15.23Z"/><path class="cls-114" d="M6.53,15.18c-.35,0-2-.11-2.36.66-.19.45-.19,1.34.19,1.32A15.37,15.37,0,0,1,7,17a.62.62,0,0,0,.71-.71C7.67,15.47,7.17,15.26,6.53,15.18Z"/><path class="cls-115" d="M6.38,15.38c-.31,0-1.77-.1-2,.57-.16.38-.17,1.15.17,1.14A13.19,13.19,0,0,1,6.78,17a.53.53,0,0,0,.61-.61C7.36,15.62,6.93,15.44,6.38,15.38Z"/><path class="cls-116" d="M13.43,15.6c-1.09-1.36-4.35-.64-5.09-.36h0c0,.85.08,1.7.08,2.54h0a7,7,0,0,1,5.12.42A2.19,2.19,0,0,0,13.43,15.6Z"/><path class="cls-117" d="M10.28,15.26c.17,0,2.32-.18,2.58.84.12.5.15,1.26-.24,1.24a16.7,16.7,0,0,0-2.76-.18A.67.67,0,0,1,9,16.5C8.9,15.61,9.64,15.23,10.28,15.26Z"/><path class="cls-118" d="M10.39,15.56c.13,0,1.86-.14,2.07.68.1.4.12,1-.19,1a12.44,12.44,0,0,0-2.21-.15.53.53,0,0,1-.66-.53C9.29,15.84,9.88,15.54,10.39,15.56Z"/><path class="cls-100" d="M13.12,18.69h0a35.16,35.16,0,0,0-6.21-.52,18,18,0,0,0-3,.21h0a2.9,2.9,0,0,1,0-3.24h0A5.49,5.49,0,0,1,6,14.68a5.25,5.25,0,0,1,2.31.53A8.83,8.83,0,0,1,11,14.8a3.33,3.33,0,0,1,2.48.78,1.91,1.91,0,0,1,.5,1.23A2.52,2.52,0,0,1,13.72,18c-.18.42-.44.74-.6.74ZM6.86,18.1a34.73,34.73,0,0,1,6.24.52h0c.1,0,.35-.25.55-.7a2.14,2.14,0,0,0-.27-2.3A3.34,3.34,0,0,0,11,14.86a8.78,8.78,0,0,0-2.62.41h0A5.2,5.2,0,0,0,6,14.75a5.77,5.77,0,0,0-2.16.42,2.41,2.41,0,0,0-.48,1.57,2.59,2.59,0,0,0,.47,1.57A17.77,17.77,0,0,1,6.86,18.1Z"/><path class="cls-119" d="M3.85,17.72A5.85,5.85,0,0,0,5.6,19.78,3.08,3.08,0,0,0,8.35,20c.05-.75,0-1.47.05-2.21A6.66,6.66,0,0,0,3.85,17.72Z"/><path class="cls-120" d="M6.87,17.77c-.37-.1-2.36-.13-2.55.8a.81.81,0,0,0,.39,1,4,4,0,0,0,2.44.19A.88.88,0,0,0,8,18.87C8,18.12,7.49,17.93,6.87,17.77Z"/><path class="cls-121" d="M6.64,18.06c-.29-.08-1.91-.1-2.07.65a.65.65,0,0,0,.32.8,3.19,3.19,0,0,0,2,.15A.73.73,0,0,0,7.53,19C7.54,18.35,7.15,18.19,6.64,18.06Z"/><path class="cls-122" d="M13.39,18.1a7.15,7.15,0,0,0-5-.32h0c0,.74,0,1.46-.05,2.21h0a5.81,5.81,0,0,0,5.08-.37C13.71,19.39,13.91,18.38,13.39,18.1Z"/><path class="cls-123" d="M10,18c.36-.09,2.36-.12,2.55.81a.8.8,0,0,1-.4,1A3.93,3.93,0,0,1,9.75,20a.9.9,0,0,1-.81-.88C8.93,18.38,9.41,18.18,10,18Z"/><path class="cls-124" d="M10.09,18.25c.29-.07,1.84-.1,2,.62a.63.63,0,0,1-.31.77,3.08,3.08,0,0,1-1.9.15.7.7,0,0,1-.63-.69C9.24,18.52,9.61,18.37,10.09,18.25Z"/><path class="cls-100" d="M10.4,20.45A5,5,0,0,1,8.35,20a2.49,2.49,0,0,1-1.13.23,3.18,3.18,0,0,1-1.64-.44,6,6,0,0,1-1.76-2.07v0l0,0a6.82,6.82,0,0,1,2.26-.38,6.31,6.31,0,0,1,2.3.43,5.49,5.49,0,0,1,2-.3,7,7,0,0,1,3,.63.72.72,0,0,1,.34.6,1.2,1.2,0,0,1-.3,1A6.11,6.11,0,0,1,10.4,20.45ZM8.35,20h0a4.82,4.82,0,0,0,2,.44,6,6,0,0,0,3-.81,1.18,1.18,0,0,0,.27-.9.67.67,0,0,0-.31-.55,6.9,6.9,0,0,0-3-.63,5.32,5.32,0,0,0-2,.3h0a6.06,6.06,0,0,0-2.29-.43,7,7,0,0,0-2.21.36,5.64,5.64,0,0,0,1.73,2,3,3,0,0,0,1.6.44A2.29,2.29,0,0,0,8.33,20Z"/><path class="cls-100" d="M8.14,24.59H8.07c.1-.6.3-5.3.3-6.8s-.22-4.88-.22-4.91h.06s.23,3.44.23,4.91S8.23,24,8.14,24.59Z"/><path class="cls-100" d="M8.22,13.59a6.26,6.26,0,0,0-2.31-.29,5.93,5.93,0,0,1,2.33.23Z"/><path class="cls-100" d="M8.25,13.64l0-.05A3.52,3.52,0,0,1,10,13.22,3.76,3.76,0,0,0,8.25,13.64Z"/><path class="cls-125" d="M6.27,1.58A2.9,2.9,0,0,1,9.78.25c.72-.23,1.55-.68,1.88,1.31.31.44.76,1.2.84,1.25s1.17-.12.85,1.21a18.55,18.55,0,0,1-1,3.56C12,8.23,12,8.79,11.6,9.22A1.42,1.42,0,0,1,10,9.53a5.26,5.26,0,0,0-1.86-.08,4.4,4.4,0,0,1-2.69-.28A2.52,2.52,0,0,1,4.18,5.91,3.64,3.64,0,0,1,6.27,1.58Z"/><path class="cls-126" d="M5.42,2.34a1.33,1.33,0,0,0,.2.45,3.26,3.26,0,0,1,0-.77,4.63,4.63,0,0,1,.63-.44A2.9,2.9,0,0,1,9.78.25c.72-.23,1.55-.68,1.88,1.31.31.44.76,1.2.84,1.25s1.17-.12.85,1.21a13.49,13.49,0,0,1-1.13,3.46C12,8.05,12,8.85,11.6,9.22c-1.17.94-1.94-.41-2.39-.06,0,0,.15.12.12.11-.58-.1-2.59,0-3.51-.62A2.68,2.68,0,0,1,4.69,5.3,2.66,2.66,0,0,1,5.42,2.34Z"/><path class="cls-127" d="M13.37,4c.07-.38.07-.74-.1-.89s-.4-.32-1.17-.25a.85.85,0,0,0,0,1.13C12.5,4.34,13.26,4.36,13.37,4Z"/><path class="cls-128" d="M12.64,3c-.13.11-.11.36.06.57s.41.3.54.19a.43.43,0,0,0,0-.58C13.05,2.93,12.77,2.86,12.64,3Z"/><path class="cls-129" d="M9.73.29c.45-.16.9-.37,1.3-.12a2.62,2.62,0,0,1,.62,2.11A4.67,4.67,0,0,0,9.73.29Z"/><path class="cls-130" d="M11.54,1.55A1.63,1.63,0,0,0,11,.19c-.21-.13-.71-.17-1.5.23C10.54.17,11.28.35,11.54,1.55Z"/><path class="cls-131" d="M7.48,7c1.26.25,1,2,2.55,2.55a1.35,1.35,0,0,0,1.66-.43,5.4,5.4,0,0,0,.5-1.22A6.3,6.3,0,0,1,8.76,6.63,4.28,4.28,0,0,1,7.48,7Z"/><path class="cls-132" d="M9.65,8.89a1.5,1.5,0,0,0,2.16-.19A1.18,1.18,0,0,1,9.65,8.89Z"/><path class="cls-133" d="M8.36,6.73a2.56,2.56,0,0,0,.36-.17,5.2,5.2,0,0,0,3,1.3c0,.69-.24,1.22-.89,1.34S9.53,8.36,9.18,7.75a1.68,1.68,0,0,0-1.3-.9A2.41,2.41,0,0,0,8.36,6.73Z"/><path class="cls-60" d="M8.13.13a.2.2,0,0,1,0,.09.29.29,0,0,1-.25.33A.3.3,0,0,1,7.57.36h0A2.13,2.13,0,0,1,8.13.13Z"/><path class="cls-60" d="M9,.06a2.63,2.63,0,0,1,.69.16.31.31,0,0,1,0,.1c0,.11-.23.24-.38.23A.45.45,0,0,1,9,.15.19.19,0,0,1,9,.06Z"/><path class="cls-30" d="M10,9.56a5.61,5.61,0,0,0-1.84-.08A4.37,4.37,0,0,1,5.45,9.2,3.09,3.09,0,0,1,4.14,7.83a2.25,2.25,0,0,1,0-1.93,3.86,3.86,0,0,1-.07-1.61A3.68,3.68,0,0,1,6.25,1.56a3.4,3.4,0,0,1,2-1.49A2.69,2.69,0,0,1,9.78.21l.15,0A3.38,3.38,0,0,1,10.35,0a.87.87,0,0,1,.71.1,2,2,0,0,1,.63,1.42c.13.18.27.4.42.62a6.4,6.4,0,0,0,.41.61h.07a.92.92,0,0,1,.72.3,1.16,1.16,0,0,1,.08,1c-.07.27-.14.55-.2.82a13.06,13.06,0,0,1-.85,2.75,5.15,5.15,0,0,0-.3.78,2.15,2.15,0,0,1-.41.86,1.32,1.32,0,0,1-.72.4h0A1.5,1.5,0,0,1,10,9.56ZM10,.23,9.79.28h0A2.61,2.61,0,0,0,8.25.14,3.41,3.41,0,0,0,6.3,1.6h0A3.62,3.62,0,0,0,4.14,4.3a3.77,3.77,0,0,0,.07,1.59v0h0A2.51,2.51,0,0,0,5.49,9.14a4.34,4.34,0,0,0,2.66.27A5.21,5.21,0,0,1,10,9.5a1.53,1.53,0,0,0,.87.08h0a1.27,1.27,0,0,0,.67-.38,2,2,0,0,0,.4-.84,5.19,5.19,0,0,1,.31-.8,12.06,12.06,0,0,0,.84-2.72c.06-.28.13-.56.2-.83a1.11,1.11,0,0,0-.07-.89.85.85,0,0,0-.66-.27h-.1a3.26,3.26,0,0,1-.44-.63c-.15-.22-.29-.45-.42-.63h0A2.09,2.09,0,0,0,11,.18.82.82,0,0,0,10.37.1,3.38,3.38,0,0,0,10,.23Z"/><path class="cls-134" d="M8.36,6.73a2.56,2.56,0,0,0,.36-.17,6,6,0,0,0,1.47.91.66.66,0,0,0-.63.87c-.13-.18-.29-.43-.38-.59a1.68,1.68,0,0,0-1.3-.9A2.41,2.41,0,0,0,8.36,6.73Z"/><path class="cls-135" d="M11.3,9a1.3,1.3,0,0,0-.54-1.34,3.85,3.85,0,0,0,1,.18A1.39,1.39,0,0,1,11.3,9Z"/><path class="cls-136" d="M10.43,8.16c.61-.32,1,.29,1.13.57a1,1,0,0,1-.69.47c-.5.1-1-.4-1.35-.91A.66.66,0,0,1,10.43,8.16Z"/><path class="cls-137" d="M10.69,8.43c0-.48.61-.25.8.38a.73.73,0,0,1-.62.39,1,1,0,0,1-1.06-.84C9.83,8.05,10.39,8,10.69,8.43Z"/><path class="cls-138" d="M10.65,8.44c0-.23.15-.33.28-.28.41.16.57.56.52.69a.73.73,0,0,1-.49.28C10.86,9.1,10.81,8.68,10.65,8.44Z"/><path class="cls-139" d="M9.91,8.22a.67.67,0,0,1,.81.27c.18.26.3.66.15.68a.94.94,0,0,1-.81-.36C9.86,8.57,9.79,8.29,9.91,8.22Z"/><path class="cls-140" d="M10.87,9.24q-.63.12-1.38-.93v0l0,0A.71.71,0,0,1,9.89,8a.78.78,0,0,1,.55.11l.19-.07c.52-.11.84.43,1,.67h0v0a1,1,0,0,1-.68.48h0Zm-.22-1.12-.2.07h0a.7.7,0,0,0-.5-.11.61.61,0,0,0-.34.22q.7,1,1.29.87h0a.9.9,0,0,0,.63-.43C11.4,8.5,11.1,8,10.65,8.12Z"/><path class="cls-140" d="M10.34,8.07l0,.07a1,1,0,0,1,.42.39A.8.8,0,0,0,10.34,8.07Z"/><path class="cls-30" d="M10.87,9.24c-.51.1-1.11-.41-1.72-1.47a1.68,1.68,0,0,0-1.26-.89h0V6.82h0l.17,0,.3-.08a3.21,3.21,0,0,0,.35-.18h0a5.25,5.25,0,0,0,3,1.3h0v0c0,.8-.31,1.24-.89,1.37ZM8.73,6.59a4,4,0,0,1-.36.18l-.25.07a2,2,0,0,1,1.09.89c.59,1,1.17,1.53,1.65,1.44h0c.54-.12.81-.53.84-1.26A5.49,5.49,0,0,1,8.73,6.59Z"/><path class="cls-141" d="M5.62,2.79S5.5,1.32,6.46.84c1.15-.58,2.07.64,2.07.64Z"/><path class="cls-142" d="M6.45.84a1.69,1.69,0,0,1,2.07.6C9,2,10.32,3.8,9.26,4.39a2.72,2.72,0,0,1-3.64-1.6C5.6,2.55,5.46,1.31,6.45.84Z"/><path class="cls-143" d="M8.81,1.8A2.06,2.06,0,0,0,6.6.84c-.52.16-1,.78-.93,2.14C6.21,1.06,7.45.77,8.81,1.8Z"/><path class="cls-144" d="M7.88,1.9c.67-.09,1.19,1.19,1.32,2C9.4,5.14,8.64,5.52,8,5.43a2.45,2.45,0,0,0-1.15.08C6.12,3.71,6.41,2.09,7.88,1.9Z"/><path class="cls-145" d="M7.84,2.41C8.49,2.4,9,3.18,9.16,4,9.35,5.26,8.66,5.54,8,5.56a1.38,1.38,0,0,1-1.22-1.5C6.76,3.22,7.22,2.42,7.84,2.41Z"/><path class="cls-146" d="M7.84,2.41C8.49,2.4,9,3.18,9.16,4,9.35,5.26,8.66,5.54,8,5.56a1.38,1.38,0,0,1-1.22-1.5C6.76,3.22,7.22,2.42,7.84,2.41Z"/><path class="cls-147" d="M7.55,2.89a.26.26,0,0,0,.32.16A.26.26,0,0,0,8,2.74a.25.25,0,0,0-.31-.16A.25.25,0,0,0,7.55,2.89Z"/><path class="cls-148" d="M7.66,3.13c.44,0,.88.41,1,1S8.47,5.28,8,5.32s-.89-.41-1-1S7.21,3.17,7.66,3.13Z"/><path d="M7.73,3.62c.3,0,.59.26.66.65S8.26,5,8,5.05s-.59-.26-.65-.65S7.44,3.65,7.73,3.62Z"/><path class="cls-149" d="M7.36,4.1a.19.19,0,0,0,.24.12A.19.19,0,0,0,7.72,4a.2.2,0,0,0-.25-.12A.19.19,0,0,0,7.36,4.1Z"/><path class="cls-150" d="M8.06,3.33c.24.14.38.37.3.51S8,4,7.79,3.86s-.38-.37-.3-.51S7.82,3.2,8.06,3.33Z"/><path d="M6.76,4c0,1,.57,1.61,1.24,1.6A1.24,1.24,0,0,0,9,5.2,1.48,1.48,0,0,0,9.18,4c-.13-.8-.64-1.75-1.35-1.73S6.74,3.09,6.76,4Zm0,.08c0-.87.46-1.62,1-1.63S9,3.23,9.14,4a1.43,1.43,0,0,1-.2,1.16A1.19,1.19,0,0,1,8,5.54,1.36,1.36,0,0,1,6.8,4.06Z"/><path class="cls-151" d="M9,5.82,6.63,5.68A1.63,1.63,0,0,1,9,5.82Z"/><path class="cls-152" d="M6.49,5.87c0,.26.23.8,1.2.87s1.38-.41,1.4-.66-.56-.75-1.22-.81S6.51,5.62,6.49,5.87Z"/><path class="cls-153" d="M6.79,5.78c0,.26.41.51,1,.56s1-.13,1-.39-.39-.57-.94-.62S6.81,5.52,6.79,5.78Z"/><path class="cls-30" d="M7.86,5.22A1.72,1.72,0,0,1,9,5.87a1.93,1.93,0,0,0-1.18-.59,1.8,1.8,0,0,0-1.22.4A1.68,1.68,0,0,1,7.86,5.22Z"/><path class="cls-154" d="M10.72,1.07c.49-.26,1.24.28,1.56.86a1,1,0,0,1-.41,1.39c-.47.25-.86.41-1.21-.53C10.42,2.17,10.48,1.2,10.72,1.07Z"/><path class="cls-145" d="M11.19,1.34c.5-.16,1.09.32,1.39.93.44.92,0,1.3-.54,1.47a1.12,1.12,0,0,1-1.29-.88C10.54,2.22,10.71,1.5,11.19,1.34Z"/><path class="cls-155" d="M11.19,1.34c.5-.16,1.09.32,1.39.93.44.92,0,1.3-.54,1.47a1.12,1.12,0,0,1-1.29-.88C10.54,2.22,10.71,1.5,11.19,1.34Z"/><path class="cls-156" d="M11.31,1.7a.21.21,0,0,0,.28.05.19.19,0,0,0,0-.28.18.18,0,0,0-.27,0A.19.19,0,0,0,11.31,1.7Z"/><path class="cls-157" d="M11.36,1.8a.87.87,0,0,1,1,.56c.21.44.12.91-.21,1.05a.87.87,0,0,1-1-.55C10.93,2.41,11,1.94,11.36,1.8Z"/><path d="M11.53,2.16a.57.57,0,0,1,.66.36.51.51,0,0,1-.15.7.57.57,0,0,1-.66-.36A.51.51,0,0,1,11.53,2.16Z"/><path class="cls-158" d="M11.33,2.6a.2.2,0,0,0,.25.12.19.19,0,0,0,.11-.24.19.19,0,0,0-.36.12Z"/><path class="cls-159" d="M11.72,1.87c.22,0,.37.19.35.32s-.22.19-.44.14-.38-.19-.36-.32S11.5,1.82,11.72,1.87Z"/><path d="M10.72,2.81c.24.76.82,1.11,1.33.94a1,1,0,0,0,.66-.52,1.14,1.14,0,0,0-.12-1c-.28-.59-.9-1.2-1.44-1S10.5,2.13,10.72,2.81Zm0,0c-.22-.67,0-1.36.42-1.5s1.1.35,1.38.92a1.13,1.13,0,0,1,.11.94.92.92,0,0,1-.64.5A1.09,1.09,0,0,1,10.77,2.86Z"/><path class="cls-160" d="M10.69,1a9,9,0,0,1,1.53,2.41A2,2,0,0,1,14.08,4.6c.23-.08.49.24.29.92-.11.38.09,1.71-.92,2.11A4.66,4.66,0,0,1,8.74,6.57Z"/><path class="cls-161" d="M12.21,3.36a2,2,0,0,1,1.85,1.22c.23-.07.5.25.3.93A4.12,4.12,0,0,1,14,7.2a3.06,3.06,0,0,1-1.82.48A7.36,7.36,0,0,1,8.72,6.56l1.39-5L10.68,1A8.85,8.85,0,0,1,12.21,3.36Z"/><path class="cls-162" d="M12.17,3.34a2,2,0,0,1,1.89,1.23c.24-.08.51.24.3.93A4,4,0,0,1,14,7.18a3.18,3.18,0,0,1-1.89.42c-2-.1-3.1-1-3.3-1.59l1.51-4.66.39-.46A9.87,9.87,0,0,1,12.17,3.34Z"/><path class="cls-163" d="M11.23,3.79a1.93,1.93,0,0,1,2.6,1c.16.35-.56.51-.89-.11A1.6,1.6,0,0,0,11.23,3.79Z"/><path class="cls-164" d="M7,.7A2.68,2.68,0,0,1,9.28.13c1.24.23,2.34,1.91,3,3.23C11.54,3.3,10,4.59,9.45,3,9.13,2,8.19.7,7,.7Z"/><path class="cls-165" d="M7.7.31C9.78-.54,11.15,1.16,12,3c.2.46-.66.45-.87-.13C10.39,1,9.17.06,7.7.31Z"/><path class="cls-30" d="M12.92,7.83a5.44,5.44,0,0,0,.55-.17c.79-.31.85-1.18.89-1.75a3,3,0,0,1,0-.38.92.92,0,0,0-.07-.9.26.26,0,0,0-.23-.08,2,2,0,0,0-1.85-1.22,7,7,0,0,0-.85-1.54A5.29,5.29,0,0,0,10.68,1a9.56,9.56,0,0,1,1.51,2.42v0h0A2,2,0,0,1,14,4.61l0,0h0a.18.18,0,0,1,.19,0,.87.87,0,0,1,.06.83,1.87,1.87,0,0,0-.05.4c0,.55-.1,1.39-.85,1.69A4.59,4.59,0,0,1,8.77,6.54l0,0a5.47,5.47,0,0,0,2.7,1.28A4.24,4.24,0,0,0,12.92,7.83Z"/><path class="cls-166" d="M14.15,4.87s.08.12.09.31,0,.34-.12.32S14,5.25,14,5.18,14.11,4.85,14.15,4.87Z"/><path class="cls-167" d="M14.24,5.18c0,.18,0,.34-.12.32S14,5.17,14,5.17C14.17,5.51,14.24,5.18,14.24,5.18Z"/><path class="cls-30" d="M14.11,5.54c-.11,0-.13-.2-.13-.36s.08-.33.16-.35h0a.55.55,0,0,1,.11.35c0,.07,0,.33-.13.36h0Zm-.06-.36c0,.18,0,.28.07.29h0s.08-.11.08-.29a.6.6,0,0,0-.07-.27A.53.53,0,0,0,14.05,5.18Z"/><path class="cls-166" d="M11.87,5.55c.24-.27.71.37.66.45A.55.55,0,0,1,12,6C11.89,5.92,11.74,5.69,11.87,5.55Z"/><path class="cls-167" d="M11.87,5.55h0c0,.25.32.49.63.48A.55.55,0,0,1,12,6C11.89,5.92,11.74,5.69,11.87,5.55Z"/><path class="cls-30" d="M12,6a.49.49,0,0,1-.24-.33.2.2,0,0,1,.05-.18A.21.21,0,0,1,12,5.46c.18,0,.38.14.51.32s.13.18.09.24a.25.25,0,0,1-.14.06h0A.51.51,0,0,1,12,6Zm.23-.4A.41.41,0,0,0,12,5.52a.18.18,0,0,0-.09.06.12.12,0,0,0,0,.12.43.43,0,0,0,.2.28.55.55,0,0,0,.34,0l.1,0A.94.94,0,0,0,12.26,5.64Z"/><path class="cls-60" d="M8.56.37c.06,0,.35.17.34.34s-.22.2-.38.18S8.2.69,8.21.59A.45.45,0,0,1,8.56.37Z"/><path class="cls-60" d="M9.68.77A.21.21,0,0,1,9.9,1a.21.21,0,0,1-.13.26A.21.21,0,0,1,9.55,1,.21.21,0,0,1,9.68.77Z"/><path class="cls-60" d="M9,.92c.07,0,.37.19.37.27s-.16.2-.2.22-.24-.11-.26-.17S8.94.94,9,.92Z"/><path class="cls-60" d="M9.52,1.43a.69.69,0,0,1,.32.08.49.49,0,0,1,0,.27c0,.05-.26.08-.29,0S9.45,1.47,9.52,1.43Z"/><path class="cls-168" d="M4.61,6.72c.13,0,.36.72.09.81s-.46-.23-.5-.4S4.5,6.67,4.61,6.72Z"/><path class="cls-60" d="M4.61,6.72c.12,0,.32.61.15.77a2.26,2.26,0,0,1-.26-.74S4.59,6.71,4.61,6.72Z"/><path class="cls-60" d="M5.56,7.18c.09,0,.42.31.4.41A.89.89,0,0,1,5.52,8c-.12,0-.38-.29-.37-.42S5.39,7.17,5.56,7.18Z"/><path class="cls-60" d="M6,6.76s.25.17.27.29S6,7.19,6,7.16,5.88,6.8,6,6.76Z"/><path class="cls-60" d="M6.22,7.73s.2.43.13.51S6,8.2,6,8.12,6.14,7.72,6.22,7.73Z"/><path class="cls-168" d="M5.74,8.29A.48.48,0,0,1,6,8.62a.28.28,0,0,1-.2.21c-.07,0-.23-.18-.25-.29S5.68,8.29,5.74,8.29Z"/><path class="cls-60" d="M5.74,8.29A.48.48,0,0,1,6,8.62a.18.18,0,0,1,0,.11,1.23,1.23,0,0,1-.38-.27C5.61,8.38,5.7,8.29,5.74,8.29Z"/><path class="cls-168" d="M4.78,7.84a.61.61,0,0,1,.5.38c0,.12-.32.23-.41.13S4.68,7.9,4.78,7.84Z"/><path class="cls-167" d="M5.06,7.94a.45.45,0,0,1,.21.25Z"/><path class="cls-30" d="M10.1,9.6l0-.07a1.3,1.3,0,0,1-.33-.19L9.7,9.28a.94.94,0,0,0-.49-.12,1.38,1.38,0,0,1,.45.18l.08.06A1.54,1.54,0,0,0,10.1,9.6Z"/><path class="cls-30" d="M4.17,6a2.06,2.06,0,0,1,.61-.69A1.82,1.82,0,0,0,4.11,6Z"/><path class="cls-30" d="M10.34.67A1.94,1.94,0,0,0,9.75.2l0,.06A3.46,3.46,0,0,1,10.34.67Z"/><path class="cls-30" d="M5.62,2.79h0c0-.42,0-1.68,1.08-2a1.78,1.78,0,0,1,1.83.69A1.63,1.63,0,0,0,8,.9,1.53,1.53,0,0,0,5.61,2,2.82,2.82,0,0,0,5.62,2.79Z"/><path class="cls-30" d="M11.46,3.64a2.81,2.81,0,0,1,.86-.24V3.33A2.15,2.15,0,0,0,11.46,3.64Z"/><path class="cls-30" d="M8.13,6.85a1.68,1.68,0,0,0,.62-.26,1,1,0,0,0,.33-.41A1.66,1.66,0,0,1,7.5,6.8.81.81,0,0,0,8.13,6.85Z"/><path class="cls-30" d="M13.94,4.79a.23.23,0,0,1,.22-.17V4.55C14,4.56,13.94,4.79,13.94,4.79Z"/><path class="cls-169" d="M3.74,13.83a1,1,0,0,1,.58.94c0,.68-.72,1.58-.79,2.08s.45.53.9.83,2.25,1.7,2.09,2.68A2.72,2.72,0,0,1,4,22.67c-1.16,0-2.32-1.7-2.69-3.54C.79,16.81,2.14,13.15,3.74,13.83Z"/><path class="cls-170" d="M6.52,20.36c.16-1-1.54-2.33-2.09-2.68s-.94-.46-.9-.83.75-1.4.79-2.08a1,1,0,0,0-.58-.94,1,1,0,0,0-.42-.08c-1.4.79-2,3-1.66,4.61C2,20.22,2.81,22,4.85,22.49A2.78,2.78,0,0,0,6.52,20.36Z"/><path class="cls-171" d="M1.89,17.11a2.94,2.94,0,0,1,1.81.11.43.43,0,0,1-.17-.37c.07-.5.75-1.4.79-2.08a1,1,0,0,0-.58-.94,1,1,0,0,0-.42-.08c-1.11.63-1.69,2.28-1.74,3.67A.42.42,0,0,1,1.89,17.11Z"/><path class="cls-172" d="M3.65,15.88c-.26.71-.19,1.09-.7,1s-.7-.85-.45-1.56,1.3-1.61,1.62-.95S3.91,15.17,3.65,15.88Z"/><path class="cls-173" d="M4.43,17.68c-.27-.18-.56-.31-.73-.46-.91-.36-1.89-.24-2.07.08a2.76,2.76,0,0,0,0,1.06C2,20.22,2.81,22,4.85,22.49a2.78,2.78,0,0,0,1.67-2.13C6.68,19.38,5,18,4.43,17.68Z"/><path class="cls-174" d="M3.11,17.16c.85.24,3.2,1.7,3.23,3,0,.45-1,.64-1.52,0a10,10,0,0,0-2-2.66C2.42,17.16,2.61,17,3.11,17.16Z"/><path class="cls-66" d="M2.07,18.65a.8.8,0,0,0-.72-.87.55.55,0,0,0-.18,0,5.22,5.22,0,0,0,.09,1.33c0,.13.06.27.09.4A.81.81,0,0,0,2.07,18.65Z"/><path class="cls-60" d="M1.59,17.83a5.94,5.94,0,0,0,.28,1.43,1,1,0,0,0,.2-.61A.88.88,0,0,0,1.59,17.83Z"/><path class="cls-30" d="M3.91,22.7a2.22,2.22,0,0,1-1.64-1.1,6.49,6.49,0,0,1-1-2.46,6.61,6.61,0,0,1,1-4.8,1.42,1.42,0,0,1,1.07-.62,1.24,1.24,0,0,1,.41.08,1.06,1.06,0,0,1,.59,1A3.72,3.72,0,0,1,3.9,16a2.79,2.79,0,0,0-.33.82c0,.27.23.42.56.61l.31.19c.49.32,2.28,1.7,2.11,2.72A2.73,2.73,0,0,1,4,22.7Zm-.56-8.92a1.38,1.38,0,0,0-1,.6,6.51,6.51,0,0,0-1,4.74c.34,1.71,1.46,3.55,2.65,3.52a2.68,2.68,0,0,0,2.55-2.28c.16-1-1.6-2.35-2.08-2.66l-.31-.18c-.34-.2-.64-.37-.6-.68A3.27,3.27,0,0,1,3.84,16a3.76,3.76,0,0,0,.45-1.23,1,1,0,0,0-.56-.91A1,1,0,0,0,3.35,13.78Z"/><path class="cls-30" d="M3.75,17.3a3.12,3.12,0,0,0-1-.27,2.71,2.71,0,0,1,1.07.21Z"/><path class="cls-60" d="M2.79,17.78a.44.44,0,0,1-.42.45.46.46,0,0,1,0-.91A.44.44,0,0,1,2.79,17.78Z"/><ellipse class="cls-60" cx="3.11" cy="18.95" rx="0.35" ry="0.41"/><path class="cls-60" d="M3.19,19.89a.51.51,0,1,1-.51-.48A.5.5,0,0,1,3.19,19.89Z"/><path class="cls-175" d="M4.86,22.27c.08.22.8.49,1,.35s0-.87-.21-1S4.79,22.07,4.86,22.27Z"/><path class="cls-176" d="M5,22.13c.08.22.76.56.85.49s0-.87-.21-1S4.89,21.93,5,22.13Z"/><path class="cls-177" d="M5,22.09c.08.22.69.58.77.5s0-.8-.24-.92S5,21.94,5,22.09Z"/><path class="cls-48" d="M5.46,22.66a1,1,0,0,1-.63-.38c0-.13.11-.35.29-.5s.39-.24.5-.17a1.11,1.11,0,0,1,.29.7.44.44,0,0,1-.07.33h0C5.75,22.72,5.56,22.68,5.46,22.66Zm-.57-.4a1,1,0,0,0,.58.34.44.44,0,0,0,.33,0l0,0,0,0s.06-.13,0-.27a1.07,1.07,0,0,0-.26-.66c-.08-.05-.25,0-.43.16S4.86,22.17,4.89,22.26Z"/><path class="cls-178" d="M3.4,22.45c-.1.21.2.91.42.93s.6-.62.55-.84S3.49,22.26,3.4,22.45Z"/><path class="cls-179" d="M3.58,22.42c-.1.22.12.95.24,1s.6-.62.55-.84S3.67,22.23,3.58,22.42Z"/><path class="cls-180" d="M3.63,22.42c-.1.22.07.9.18.91s.55-.59.49-.81S3.7,22.28,3.63,22.42Z"/><path class="cls-48" d="M3.54,23.14a1,1,0,0,1-.17-.71c.06-.12.33-.16.57-.14s.44.12.46.24a1.09,1.09,0,0,1-.3.7c-.08.08-.19.18-.28.18h0C3.7,23.4,3.59,23.24,3.54,23.14Zm-.11-.68a.91.91,0,0,0,.16.65c.08.14.17.23.23.24v0c.06,0,.14-.06.23-.16a1.16,1.16,0,0,0,.3-.64c0-.1-.19-.18-.42-.2S3.46,22.38,3.43,22.46Z"/><path class="cls-181" d="M6,21.1c.18.16.94.09,1-.11s-.4-.77-.63-.79S5.86,21,6,21.1Z"/><path class="cls-182" d="M6.05,20.92A1.32,1.32,0,0,0,7,21c.08-.2-.4-.77-.63-.79S5.89,20.78,6.05,20.92Z"/><path class="cls-183" d="M6.07,20.87c.17.16.87.21.92.11s-.4-.7-.63-.72S6,20.76,6.07,20.87Z"/><path class="cls-48" d="M6.72,21.18A1,1,0,0,1,6,21.12c-.09-.09,0-.36,0-.58s.25-.38.38-.37a1.13,1.13,0,0,1,.56.5.48.48,0,0,1,.09.33h0C7,21.1,6.83,21.16,6.72,21.18ZM6,21.08a1,1,0,0,0,.68,0C6.87,21.09,7,21,7,21H7l0,0a.39.39,0,0,0-.08-.27c-.14-.23-.39-.46-.52-.47s-.22.12-.31.33S6,21,6,21.08Z"/></g></g></g></g></g></svg>