<svg xmlns="http://www.w3.org/2000/svg" xmlns:xlink="http://www.w3.org/1999/xlink" viewBox="0 0 20.35 27.11"><defs><style>.cls-1{isolation:isolate;}.cls-2{fill:url(#radial-gradient);}.cls-3{fill:url(#radial-gradient-2);}.cls-100,.cls-101,.cls-102,.cls-103,.cls-104,.cls-105,.cls-109,.cls-112,.cls-113,.cls-114,.cls-115,.cls-120,.cls-123,.cls-126,.cls-129,.cls-132,.cls-133,.cls-136,.cls-137,.cls-138,.cls-139,.cls-140,.cls-141,.cls-146,.cls-148,.cls-149,.cls-151,.cls-152,.cls-155,.cls-156,.cls-157,.cls-158,.cls-164,.cls-165,.cls-173,.cls-175,.cls-176,.cls-178,.cls-179,.cls-35,.cls-4,.cls-48,.cls-50,.cls-52,.cls-54,.cls-56,.cls-58,.cls-6,.cls-60,.cls-62,.cls-65,.cls-67,.cls-71,.cls-72,.cls-73,.cls-74,.cls-76,.cls-77,.cls-82,.cls-86,.cls-89,.cls-94,.cls-95,.cls-97,.cls-98{mix-blend-mode:screen;}.cls-4{fill:url(#radial-gradient-3);}.cls-5{fill:#2f7a22;}.cls-6{fill:url(#linear-gradient);}.cls-7{fill:#244d16;}.cls-8{fill:url(#linear-gradient-2);}.cls-9{fill:#592f16;}.cls-10{fill:url(#radial-gradient-4);}.cls-11{fill:url(#radial-gradient-5);}.cls-12{fill:url(#radial-gradient-6);}.cls-13{fill:url(#radial-gradient-7);}.cls-14{fill:url(#radial-gradient-8);}.cls-15{fill:url(#radial-gradient-9);}.cls-16{fill:url(#radial-gradient-10);}.cls-17{fill:url(#radial-gradient-11);}.cls-18{fill:url(#radial-gradient-12);}.cls-19{fill:url(#radial-gradient-13);}.cls-20{fill:url(#radial-gradient-14);}.cls-21{fill:url(#radial-gradient-15);}.cls-22{fill:url(#radial-gradient-16);}.cls-23{fill:url(#radial-gradient-17);}.cls-24{fill:url(#radial-gradient-18);}.cls-25{fill:url(#radial-gradient-19);}.cls-26{fill:url(#radial-gradient-20);}.cls-27{fill:url(#radial-gradient-21);}.cls-28{fill:url(#radial-gradient-22);}.cls-29{fill:url(#radial-gradient-23);}.cls-30{fill:url(#radial-gradient-24);}.cls-31{fill:#211109;}.cls-32{fill:#190a0a;}.cls-33{fill:url(#radial-gradient-25);}.cls-34{fill:url(#radial-gradient-26);}.cls-35{fill:url(#radial-gradient-27);}.cls-36{fill:#348424;}.cls-37{fill:url(#radial-gradient-28);}.cls-38{fill:url(#radial-gradient-29);}.cls-39{fill:url(#radial-gradient-30);}.cls-40{fill:url(#radial-gradient-31);}.cls-41{fill:url(#radial-gradient-32);}.cls-42{fill:url(#radial-gradient-33);}.cls-43{fill:url(#radial-gradient-34);}.cls-44{fill:url(#radial-gradient-35);}.cls-45{fill:url(#radial-gradient-36);}.cls-46{fill:url(#radial-gradient-37);}.cls-47{fill:url(#radial-gradient-38);}.cls-48{fill:url(#linear-gradient-3);}.cls-49{fill:url(#radial-gradient-39);}.cls-50{fill:url(#linear-gradient-4);}.cls-51{fill:url(#radial-gradient-40);}.cls-52{fill:url(#linear-gradient-5);}.cls-53{fill:url(#radial-gradient-41);}.cls-54{fill:url(#linear-gradient-6);}.cls-55{fill:url(#radial-gradient-42);}.cls-56{fill:url(#linear-gradient-7);}.cls-57{fill:url(#radial-gradient-43);}.cls-58{fill:url(#linear-gradient-8);}.cls-59{fill:url(#radial-gradient-44);}.cls-60{fill:url(#linear-gradient-9);}.cls-61{fill:url(#radial-gradient-45);}.cls-62{fill:url(#linear-gradient-10);}.cls-63{fill:#f9d767;}.cls-64{fill:url(#radial-gradient-46);}.cls-65{fill:url(#linear-gradient-11);}.cls-66{fill:url(#radial-gradient-47);}.cls-67{fill:url(#linear-gradient-12);}.cls-68{fill:#965e11;}.cls-69{fill:url(#radial-gradient-48);}.cls-70{fill:url(#radial-gradient-49);}.cls-71{fill:url(#radial-gradient-50);}.cls-72{fill:url(#linear-gradient-13);}.cls-73{fill:url(#radial-gradient-51);}.cls-74{fill:url(#linear-gradient-14);}.cls-75{fill:url(#radial-gradient-52);}.cls-76{fill:url(#radial-gradient-53);}.cls-77{fill:url(#linear-gradient-15);}.cls-78{fill:#28691f;}.cls-79{fill:#307a22;}.cls-80{fill:url(#radial-gradient-54);}.cls-81{fill:url(#radial-gradient-55);}.cls-82{fill:url(#linear-gradient-16);}.cls-83{fill:#d0a074;}.cls-84{fill:url(#radial-gradient-56);}.cls-85{fill:url(#radial-gradient-57);}.cls-86{fill:url(#linear-gradient-17);}.cls-87{fill:url(#radial-gradient-58);}.cls-88{fill:url(#radial-gradient-59);}.cls-89{fill:url(#linear-gradient-18);}.cls-90{fill:none;}.cls-91{fill:url(#radial-gradient-60);}.cls-92{fill:url(#radial-gradient-61);}.cls-93{fill:url(#radial-gradient-62);}.cls-94{fill:url(#radial-gradient-63);}.cls-95{fill:url(#radial-gradient-64);}.cls-96{fill:url(#radial-gradient-65);}.cls-97{fill:url(#radial-gradient-66);}.cls-98{fill:url(#radial-gradient-67);}.cls-99{fill:url(#radial-gradient-68);}.cls-100{fill:url(#radial-gradient-69);}.cls-101{fill:url(#radial-gradient-70);}.cls-102{fill:url(#radial-gradient-71);}.cls-103{fill:url(#radial-gradient-72);}.cls-104{fill:url(#radial-gradient-73);}.cls-105{fill:url(#radial-gradient-74);}.cls-106{fill:#863609;}.cls-107{fill:url(#radial-gradient-75);}.cls-108{fill:url(#radial-gradient-76);}.cls-109{fill:url(#radial-gradient-77);}.cls-110{fill:url(#radial-gradient-78);}.cls-111{fill:url(#radial-gradient-79);}.cls-112{fill:url(#radial-gradient-80);}.cls-113{fill:url(#linear-gradient-19);}.cls-114{fill:url(#radial-gradient-81);}.cls-115{fill:url(#linear-gradient-20);}.cls-116{fill:#235d1d;}.cls-117{fill:#2e7521;}.cls-118{fill:#5bb224;}.cls-119{fill:#378b25;}.cls-120{fill:url(#linear-gradient-21);}.cls-121{fill:url(#linear-gradient-22);}.cls-122{fill:url(#linear-gradient-23);}.cls-123{fill:url(#linear-gradient-24);}.cls-124{fill:url(#linear-gradient-25);}.cls-125{fill:url(#linear-gradient-26);}.cls-126{fill:url(#linear-gradient-27);}.cls-127{fill:url(#linear-gradient-28);}.cls-128{fill:url(#linear-gradient-29);}.cls-129{fill:url(#linear-gradient-30);}.cls-130{fill:url(#radial-gradient-82);}.cls-131{fill:url(#radial-gradient-83);}.cls-132{fill:url(#radial-gradient-84);}.cls-133{fill:url(#linear-gradient-31);}.cls-134{fill:url(#radial-gradient-85);}.cls-135{fill:url(#radial-gradient-86);}.cls-136{fill:url(#radial-gradient-87);}.cls-137{opacity:0.7;fill:url(#linear-gradient-32);}.cls-138{fill:url(#radial-gradient-88);}.cls-139{fill:url(#linear-gradient-33);}.cls-140{fill:url(#radial-gradient-89);}.cls-141{fill:url(#linear-gradient-34);}.cls-142{fill:#2a6e20;}.cls-143,.cls-171{mix-blend-mode:multiply;}.cls-143{fill:url(#radial-gradient-90);}.cls-144{fill:#fff;}.cls-145{fill:url(#radial-gradient-91);}.cls-146,.cls-173{opacity:0.6;}.cls-146{fill:url(#radial-gradient-92);}.cls-147{fill:url(#radial-gradient-93);}.cls-148,.cls-175{opacity:0.5;}.cls-148{fill:url(#radial-gradient-94);}.cls-149{fill:url(#linear-gradient-35);}.cls-150{fill:url(#radial-gradient-95);}.cls-151{fill:url(#radial-gradient-96);}.cls-152{fill:url(#linear-gradient-36);}.cls-153{fill:url(#radial-gradient-97);}.cls-154{fill:url(#radial-gradient-98);}.cls-155{fill:url(#radial-gradient-99);}.cls-156{fill:url(#linear-gradient-37);}.cls-157{fill:url(#radial-gradient-100);}.cls-158{fill:url(#linear-gradient-38);}.cls-159{fill:url(#radial-gradient-101);}.cls-160{fill:url(#radial-gradient-102);}.cls-161{fill:url(#radial-gradient-103);}.cls-162{fill:url(#linear-gradient-39);}.cls-163{fill:url(#linear-gradient-40);}.cls-164{fill:url(#radial-gradient-104);}.cls-165{fill:url(#radial-gradient-105);}.cls-166{fill:#df4a4b;}.cls-167{fill:#14511b;}.cls-168{fill:#154316;}.cls-169{fill:#26621e;}.cls-170{fill:#2d7521;}.cls-171{fill:url(#radial-gradient-106);}.cls-172{fill:url(#radial-gradient-107);}.cls-173{fill:url(#radial-gradient-108);}.cls-174{fill:url(#radial-gradient-109);}.cls-175{fill:url(#radial-gradient-110);}.cls-176{fill:url(#linear-gradient-41);}.cls-177{fill:url(#radial-gradient-111);}.cls-178{fill:url(#radial-gradient-112);}.cls-179{fill:url(#linear-gradient-42);}</style><radialGradient id="radial-gradient" cx="9.5" cy="10.73" r="3.5" gradientUnits="userSpaceOnUse"><stop offset="0" stop-color="#48a528"/><stop offset="0.28" stop-color="#45a027"/><stop offset="0.64" stop-color="#3c9025"/><stop offset="1" stop-color="#2e7922"/></radialGradient><radialGradient id="radial-gradient-2" cx="9.5" cy="10.73" r="3.5" gradientUnits="userSpaceOnUse"><stop offset="0" stop-color="#5bb224"/><stop offset="0.88" stop-color="#459e26"/><stop offset="1" stop-color="#429b26"/></radialGradient><radialGradient id="radial-gradient-3" cx="9.51" cy="10.72" r="2.62" gradientUnits="userSpaceOnUse"><stop offset="0" stop-color="#91ca1f"/><stop offset="0.05" stop-color="#86bb1d"/><stop offset="0.34" stop-color="#4d6c11"/><stop offset="0.57" stop-color="#243208"/><stop offset="0.74" stop-color="#0a0e02"/><stop offset="0.83"/><stop offset="1"/></radialGradient><linearGradient id="linear-gradient" x1="-3.7" y1="-16.34" x2="-3.26" y2="-15.26" gradientTransform="matrix(0.1, -1.26, 1, 0.24, 26.55, 10.25)" gradientUnits="userSpaceOnUse"><stop offset="0" stop-color="#bce496"/><stop offset="0.04" stop-color="#b2d88e"/><stop offset="0.33" stop-color="#677c52"/><stop offset="0.57" stop-color="#2f3926"/><stop offset="0.74" stop-color="#0d100a"/><stop offset="0.83"/><stop offset="1"/></linearGradient><linearGradient id="linear-gradient-2" x1="13.15" y1="11.96" x2="17.41" y2="13.53" gradientUnits="userSpaceOnUse"><stop offset="0" stop-color="#522e0b"/><stop offset="0.39" stop-color="#371e09"/><stop offset="0.54" stop-color="#311b08"/><stop offset="0.74" stop-color="#1f1105"/><stop offset="0.98" stop-color="#030100"/><stop offset="1"/></linearGradient><radialGradient id="radial-gradient-4" cx="17.91" cy="14.95" r="1.97" gradientUnits="userSpaceOnUse"><stop offset="0" stop-color="#62280b"/><stop offset="1" stop-color="#390c08"/></radialGradient><radialGradient id="radial-gradient-5" cx="7.32" cy="22.6" r="1.94" xlink:href="#radial-gradient-4"/><radialGradient id="radial-gradient-6" cx="8.08" cy="23.31" r="1.45" xlink:href="#radial-gradient-4"/><radialGradient id="radial-gradient-7" cx="9.47" cy="23.66" r="2.25" xlink:href="#radial-gradient-4"/><radialGradient id="radial-gradient-8" cx="12.13" cy="22.36" r="3.35" xlink:href="#radial-gradient-4"/><radialGradient id="radial-gradient-9" cx="14.58" cy="20.21" r="4.2" xlink:href="#radial-gradient-4"/><radialGradient id="radial-gradient-10" cx="16.24" cy="16.9" r="4.85" xlink:href="#radial-gradient-4"/><radialGradient id="radial-gradient-11" cx="17.91" cy="14.95" r="1.97" gradientUnits="userSpaceOnUse"><stop offset="0" stop-color="#74300b"/><stop offset="1" stop-color="#491b07"/></radialGradient><radialGradient id="radial-gradient-12" cx="12.13" cy="22.36" r="3.35" xlink:href="#radial-gradient-11"/><radialGradient id="radial-gradient-13" cx="9.47" cy="23.66" r="2.25" xlink:href="#radial-gradient-11"/><radialGradient id="radial-gradient-14" cx="14.58" cy="20.21" r="4.2" xlink:href="#radial-gradient-11"/><radialGradient id="radial-gradient-15" cx="17.86" cy="17.95" r="2.86" xlink:href="#radial-gradient-11"/><radialGradient id="radial-gradient-16" cx="14.04" cy="19.56" r="4.89" xlink:href="#radial-gradient-4"/><radialGradient id="radial-gradient-17" cx="8.75" cy="22.22" r="3.2" xlink:href="#radial-gradient-4"/><radialGradient id="radial-gradient-18" cx="11.42" cy="21.14" r="5.04" xlink:href="#radial-gradient-4"/><radialGradient id="radial-gradient-19" cx="16.26" cy="16.44" r="4.48" xlink:href="#radial-gradient-4"/><radialGradient id="radial-gradient-20" cx="17.26" cy="14.34" r="3.25" xlink:href="#radial-gradient-4"/><radialGradient id="radial-gradient-21" cx="16.26" cy="16.44" r="4.48" xlink:href="#radial-gradient-11"/><radialGradient id="radial-gradient-22" cx="14.04" cy="19.56" r="4.89" xlink:href="#radial-gradient-11"/><radialGradient id="radial-gradient-23" cx="11.42" cy="21.14" r="5.04" xlink:href="#radial-gradient-11"/><radialGradient id="radial-gradient-24" cx="8.75" cy="22.22" r="3.2" xlink:href="#radial-gradient-11"/><radialGradient id="radial-gradient-25" cx="3.51" cy="13.22" r="5.03" gradientUnits="userSpaceOnUse"><stop offset="0" stop-color="#48a528"/><stop offset="0.54" stop-color="#3b8f25"/><stop offset="1" stop-color="#2e7922"/></radialGradient><radialGradient id="radial-gradient-26" cx="3.51" cy="13.22" r="5.03" xlink:href="#radial-gradient-2"/><radialGradient id="radial-gradient-27" cx="3.55" cy="13.23" r="3.34" xlink:href="#radial-gradient-3"/><radialGradient id="radial-gradient-28" cx="11.57" cy="12.46" r="1.08" gradientUnits="userSpaceOnUse"><stop offset="0" stop-color="#f8c950"/><stop offset="1" stop-color="#f8a12a"/></radialGradient><radialGradient id="radial-gradient-29" cx="13.42" cy="13.21" r="1.62" xlink:href="#radial-gradient-28"/><radialGradient id="radial-gradient-30" cx="5.44" cy="17.33" r="1.26" xlink:href="#radial-gradient-28"/><radialGradient id="radial-gradient-31" cx="7.6" cy="18.78" r="2.91" xlink:href="#radial-gradient-28"/><radialGradient id="radial-gradient-32" cx="8.63" cy="16.26" r="3.98" xlink:href="#radial-gradient-28"/><radialGradient id="radial-gradient-33" cx="6.56" cy="15.45" r="2.44" xlink:href="#radial-gradient-28"/><radialGradient id="radial-gradient-34" cx="8.1" cy="14.01" r="2.37" xlink:href="#radial-gradient-28"/><radialGradient id="radial-gradient-35" cx="10.12" cy="14.69" r="3.84" xlink:href="#radial-gradient-28"/><radialGradient id="radial-gradient-36" cx="12.11" cy="13.81" r="2.73" xlink:href="#radial-gradient-28"/><radialGradient id="radial-gradient-37" cx="10.05" cy="12.82" r="1.78" xlink:href="#radial-gradient-28"/><radialGradient id="radial-gradient-38" cx="8.63" cy="16.26" r="3.98" gradientUnits="userSpaceOnUse"><stop offset="0" stop-color="#f6e86d"/><stop offset="0.59" stop-color="#f7ce54"/><stop offset="1" stop-color="#f7b941"/></radialGradient><linearGradient id="linear-gradient-3" x1="10.12" y1="15.89" x2="9.97" y2="18.41" gradientUnits="userSpaceOnUse"><stop offset="0" stop-color="#717171"/><stop offset="0.36" stop-color="#393939"/><stop offset="0.67" stop-color="#101010"/><stop offset="0.83"/><stop offset="1"/></linearGradient><radialGradient id="radial-gradient-39" cx="10.12" cy="14.69" r="3.84" xlink:href="#radial-gradient-38"/><linearGradient id="linear-gradient-4" x1="11.34" y1="14.28" x2="11.55" y2="16.63" xlink:href="#linear-gradient-3"/><radialGradient id="radial-gradient-40" cx="6.56" cy="15.45" r="2.44" xlink:href="#radial-gradient-38"/><linearGradient id="linear-gradient-5" x1="6.61" y1="15.18" x2="6.62" y2="16.84" xlink:href="#linear-gradient-3"/><radialGradient id="radial-gradient-41" cx="8.1" cy="14.01" r="2.37" xlink:href="#radial-gradient-38"/><linearGradient id="linear-gradient-6" x1="8.28" y1="13.68" x2="8.12" y2="14.98" xlink:href="#linear-gradient-3"/><radialGradient id="radial-gradient-42" cx="10.05" cy="12.82" r="1.78" xlink:href="#radial-gradient-38"/><linearGradient id="linear-gradient-7" x1="10.25" y1="12.61" x2="10.32" y2="13.43" xlink:href="#linear-gradient-3"/><radialGradient id="radial-gradient-43" cx="13.42" cy="13.21" r="1.62" xlink:href="#radial-gradient-38"/><linearGradient id="linear-gradient-8" x1="13.62" y1="12.97" x2="13.75" y2="13.81" xlink:href="#linear-gradient-3"/><radialGradient id="radial-gradient-44" cx="7.6" cy="18.78" r="2.91" xlink:href="#radial-gradient-38"/><linearGradient id="linear-gradient-9" x1="7.61" y1="18.21" x2="7.61" y2="19.36" xlink:href="#linear-gradient-3"/><radialGradient id="radial-gradient-45" cx="-28.8" cy="-4.25" r="1.26" gradientTransform="translate(33.87 26.12) rotate(8.39)" xlink:href="#radial-gradient-38"/><linearGradient id="linear-gradient-10" x1="5.53" y1="17.13" x2="5.56" y2="17.96" xlink:href="#linear-gradient-3"/><radialGradient id="radial-gradient-46" cx="8.56" cy="15.51" r="7.9" xlink:href="#radial-gradient-38"/><linearGradient id="linear-gradient-11" x1="11.94" y1="12.31" x2="11.95" y2="12.64" xlink:href="#linear-gradient-3"/><radialGradient id="radial-gradient-47" cx="12.11" cy="13.81" r="2.73" xlink:href="#radial-gradient-38"/><linearGradient id="linear-gradient-12" x1="12.92" y1="13.33" x2="12.93" y2="15.04" xlink:href="#linear-gradient-3"/><radialGradient id="radial-gradient-48" cx="2.84" cy="20.12" r="9.03" xlink:href="#radial-gradient-25"/><radialGradient id="radial-gradient-49" cx="2.84" cy="20.12" r="9.03" xlink:href="#radial-gradient-2"/><radialGradient id="radial-gradient-50" cx="1.4" cy="23.22" r="3.95" xlink:href="#radial-gradient-3"/><linearGradient id="linear-gradient-13" x1="1.5" y1="23.55" x2="2.65" y2="24.47" gradientUnits="userSpaceOnUse"><stop offset="0" stop-color="#7eaa6a"/><stop offset="0.2" stop-color="#5c7c4d"/><stop offset="0.5" stop-color="#2a3924"/><stop offset="0.72" stop-color="#0c100a"/><stop offset="0.83"/><stop offset="1"/></linearGradient><radialGradient id="radial-gradient-51" cx="2.14" cy="21.69" r="4.14" xlink:href="#radial-gradient-3"/><linearGradient id="linear-gradient-14" x1="2.22" y1="22.33" x2="3.85" y2="23.01" xlink:href="#linear-gradient-13"/><radialGradient id="radial-gradient-52" cx="2.84" cy="20.12" r="9.03" xlink:href="#radial-gradient-2"/><radialGradient id="radial-gradient-53" cx="8.55" cy="19.42" r="3.5" xlink:href="#radial-gradient-3"/><linearGradient id="linear-gradient-15" x1="-152.75" y1="79.73" x2="-151.6" y2="81.39" gradientTransform="matrix(0.44, 0.72, -0.68, 0.66, 129.14, 77.73)" gradientUnits="userSpaceOnUse"><stop offset="0" stop-color="#9bcf82"/><stop offset="0.29" stop-color="#5d7c4e"/><stop offset="0.55" stop-color="#2b3924"/><stop offset="0.74" stop-color="#0c100a"/><stop offset="0.83"/><stop offset="1"/></linearGradient><radialGradient id="radial-gradient-54" cx="0.46" cy="24.46" r="0.9" gradientUnits="userSpaceOnUse"><stop offset="0" stop-color="#f2e6d5"/><stop offset="1" stop-color="#e4c097"/></radialGradient><radialGradient id="radial-gradient-55" cx="0.46" cy="24.46" r="0.9" gradientUnits="userSpaceOnUse"><stop offset="0" stop-color="#f4ede0"/><stop offset="0.36" stop-color="#f0e2cd"/><stop offset="1" stop-color="#e6c7a2"/></radialGradient><linearGradient id="linear-gradient-16" x1="0.36" y1="24.59" x2="0.75" y2="24.93" gradientUnits="userSpaceOnUse"><stop offset="0" stop-color="#fff"/><stop offset="0.1" stop-color="#e5e5e5"/><stop offset="0.33" stop-color="#a3a3a3"/><stop offset="0.65" stop-color="#3a3a3a"/><stop offset="0.82"/><stop offset="1"/></linearGradient><radialGradient id="radial-gradient-56" cx="115.44" cy="104.84" r="1.12" gradientTransform="translate(-144.52 -30.31) rotate(-21.25)" xlink:href="#radial-gradient-54"/><radialGradient id="radial-gradient-57" cx="115.44" cy="104.84" r="1.12" gradientTransform="translate(-144.52 -30.31) rotate(-21.25)" xlink:href="#radial-gradient-55"/><linearGradient id="linear-gradient-17" x1="115.31" y1="105" x2="115.8" y2="105.42" gradientTransform="translate(-144.52 -30.31) rotate(-21.25)" xlink:href="#linear-gradient-16"/><radialGradient id="radial-gradient-58" cx="144.33" cy="137.04" r="1.08" gradientTransform="translate(-188.85 -28.34) rotate(-27.63)" xlink:href="#radial-gradient-54"/><radialGradient id="radial-gradient-59" cx="144.33" cy="137.04" r="1.08" gradientTransform="translate(-188.85 -28.34) rotate(-27.63)" xlink:href="#radial-gradient-55"/><linearGradient id="linear-gradient-18" x1="144.21" y1="137.19" x2="144.68" y2="137.6" gradientTransform="translate(-188.85 -28.34) rotate(-27.63)" xlink:href="#linear-gradient-16"/><radialGradient id="radial-gradient-60" cx="10.27" cy="17.54" r="7.79" gradientUnits="userSpaceOnUse"><stop offset="0" stop-color="#c75b0e"/><stop offset="1" stop-color="#a2440f"/></radialGradient><radialGradient id="radial-gradient-61" cx="14.47" cy="12.1" r="2.12" xlink:href="#radial-gradient-60"/><radialGradient id="radial-gradient-62" cx="12.3" cy="11.46" r="1.41" gradientUnits="userSpaceOnUse"><stop offset="0" stop-color="#d87f25"/><stop offset="1" stop-color="#c14e0c"/></radialGradient><radialGradient id="radial-gradient-63" cx="12.29" cy="11.62" r="1.01" gradientUnits="userSpaceOnUse"><stop offset="0" stop-color="#d87f25"/><stop offset="0.02" stop-color="#cf7a24"/><stop offset="0.17" stop-color="#915519"/><stop offset="0.31" stop-color="#5d3710"/><stop offset="0.44" stop-color="#351f09"/><stop offset="0.55" stop-color="#180e04"/><stop offset="0.66" stop-color="#060401"/><stop offset="0.73"/><stop offset="1"/></radialGradient><radialGradient id="radial-gradient-64" cx="13.02" cy="11.16" r="0.78" xlink:href="#radial-gradient-63"/><radialGradient id="radial-gradient-65" cx="14.47" cy="12.1" r="2.12" xlink:href="#radial-gradient-62"/><radialGradient id="radial-gradient-66" cx="15.98" cy="11.81" r="1.37" xlink:href="#radial-gradient-63"/><radialGradient id="radial-gradient-67" cx="15.59" cy="13.22" r="1.5" xlink:href="#radial-gradient-63"/><radialGradient id="radial-gradient-68" cx="10.27" cy="17.54" r="7.79" xlink:href="#radial-gradient-62"/><radialGradient id="radial-gradient-69" cx="8.04" cy="22.4" r="1.22" xlink:href="#radial-gradient-63"/><radialGradient id="radial-gradient-70" cx="9.19" cy="21.89" r="1.38" xlink:href="#radial-gradient-63"/><radialGradient id="radial-gradient-71" cx="10.81" cy="21.08" r="1.67" xlink:href="#radial-gradient-63"/><radialGradient id="radial-gradient-72" cx="12.67" cy="19.66" r="1.98" xlink:href="#radial-gradient-63"/><radialGradient id="radial-gradient-73" cx="13.95" cy="18.11" r="1.85" xlink:href="#radial-gradient-63"/><radialGradient id="radial-gradient-74" cx="15.09" cy="16.57" r="1.44" xlink:href="#radial-gradient-63"/><radialGradient id="radial-gradient-75" cx="12.73" cy="11.39" r="3.85" xlink:href="#radial-gradient-25"/><radialGradient id="radial-gradient-76" cx="12.73" cy="11.39" r="3.85" xlink:href="#radial-gradient-2"/><radialGradient id="radial-gradient-77" cx="12.3" cy="11.95" r="2.82" gradientUnits="userSpaceOnUse"><stop offset="0" stop-color="#91ca1f"/><stop offset="0.14" stop-color="#6d9817"/><stop offset="0.32" stop-color="#47630f"/><stop offset="0.48" stop-color="#283809"/><stop offset="0.62" stop-color="#121904"/><stop offset="0.75" stop-color="#050701"/><stop offset="0.83"/><stop offset="1"/></radialGradient><radialGradient id="radial-gradient-78" cx="15.66" cy="11.65" r="6.06" gradientUnits="userSpaceOnUse"><stop offset="0.12" stop-color="#48a528"/><stop offset="0.38" stop-color="#46a127"/><stop offset="0.65" stop-color="#3e9426"/><stop offset="0.93" stop-color="#328023"/><stop offset="1" stop-color="#2e7922"/></radialGradient><radialGradient id="radial-gradient-79" cx="15.66" cy="11.65" r="6.06" xlink:href="#radial-gradient-2"/><radialGradient id="radial-gradient-80" cx="16.24" cy="13.09" r="2.95" xlink:href="#radial-gradient-3"/><linearGradient id="linear-gradient-19" x1="16.35" y1="12.84" x2="17.46" y2="14.44" gradientTransform="matrix(1, 0, 0, 1, 0, 0)" xlink:href="#linear-gradient-15"/><radialGradient id="radial-gradient-81" cx="16.11" cy="11.01" r="3.1" xlink:href="#radial-gradient-3"/><linearGradient id="linear-gradient-20" x1="16.35" y1="7.53" x2="17.98" y2="7.06" gradientTransform="matrix(0.99, -0.03, -0.03, 0.88, 1.3, 5.26)" gradientUnits="userSpaceOnUse"><stop offset="0" stop-color="#5a7b4c"/><stop offset="0.4" stop-color="#2a3923"/><stop offset="0.68" stop-color="#0c100a"/><stop offset="0.83"/><stop offset="1"/></linearGradient><linearGradient id="linear-gradient-21" x1="3.52" y1="13.39" x2="4.27" y2="14.57" gradientTransform="matrix(1, 0, 0, 1, 0, 0)" xlink:href="#linear-gradient"/><linearGradient id="linear-gradient-22" x1="-78.8" y1="330.78" x2="-78.3" y2="331.58" gradientTransform="translate(-310.05 -119.8) rotate(-79.84)" xlink:href="#radial-gradient-54"/><linearGradient id="linear-gradient-23" x1="-78.79" y1="330.78" x2="-78.29" y2="331.58" gradientTransform="translate(-310.05 -119.8) rotate(-79.84)" xlink:href="#radial-gradient-55"/><linearGradient id="linear-gradient-24" x1="-78.81" y1="330.79" x2="-78.43" y2="331.4" gradientTransform="translate(-310.05 -119.8) rotate(-79.84)" xlink:href="#linear-gradient-16"/><linearGradient id="linear-gradient-25" x1="-33.13" y1="234.72" x2="-32.64" y2="235.53" gradientTransform="matrix(0.76, -0.65, 0.65, 0.76, -124.99, -183.21)" xlink:href="#radial-gradient-54"/><linearGradient id="linear-gradient-26" x1="-33.13" y1="234.72" x2="-32.63" y2="235.52" gradientTransform="matrix(0.76, -0.65, 0.65, 0.76, -124.99, -183.21)" xlink:href="#radial-gradient-55"/><linearGradient id="linear-gradient-27" x1="-33.14" y1="234.73" x2="-32.77" y2="235.34" gradientTransform="matrix(0.76, -0.65, 0.65, 0.76, -124.99, -183.21)" xlink:href="#linear-gradient-16"/><linearGradient id="linear-gradient-28" x1="-240.63" y1="415.64" x2="-240.14" y2="416.45" gradientTransform="matrix(-0.46, -0.89, 0.89, -0.46, -478.75, -3.84)" xlink:href="#radial-gradient-54"/><linearGradient id="linear-gradient-29" x1="-240.63" y1="415.64" x2="-240.13" y2="416.44" gradientTransform="matrix(-0.46, -0.89, 0.89, -0.46, -478.75, -3.84)" xlink:href="#radial-gradient-55"/><linearGradient id="linear-gradient-30" x1="-240.64" y1="415.65" x2="-240.27" y2="416.26" gradientTransform="matrix(-0.46, -0.89, 0.89, -0.46, -478.75, -3.84)" xlink:href="#linear-gradient-16"/><radialGradient id="radial-gradient-82" cx="2.39" cy="15.75" r="7.31" gradientUnits="userSpaceOnUse"><stop offset="0.12" stop-color="#48a528"/><stop offset="0.46" stop-color="#46a228"/><stop offset="0.68" stop-color="#419a26"/><stop offset="0.86" stop-color="#398b24"/><stop offset="1" stop-color="#2e7922"/></radialGradient><radialGradient id="radial-gradient-83" cx="2.39" cy="15.75" r="7.31" xlink:href="#radial-gradient-2"/><radialGradient id="radial-gradient-84" cx="2.1" cy="15.58" r="4.44" xlink:href="#radial-gradient-3"/><linearGradient id="linear-gradient-31" x1="2.28" y1="15.93" x2="3.16" y2="17.61" gradientTransform="matrix(1, 0, 0, 1, 0, 0)" xlink:href="#linear-gradient"/><radialGradient id="radial-gradient-85" cx="9.68" cy="4.45" r="9.36" xlink:href="#radial-gradient-82"/><radialGradient id="radial-gradient-86" cx="9.68" cy="4.53" r="9.41" xlink:href="#radial-gradient-2"/><radialGradient id="radial-gradient-87" cx="12.11" cy="9.18" r="2.55" xlink:href="#radial-gradient-3"/><linearGradient id="linear-gradient-32" x1="17.43" y1="24.32" x2="19.97" y2="23.79" gradientTransform="matrix(0.91, 0.05, -0.04, 0.85, -3.6, -10.71)" gradientUnits="userSpaceOnUse"><stop offset="0" stop-color="#4c4c4c"/><stop offset="0.69" stop-color="#181818"/><stop offset="1"/></linearGradient><radialGradient id="radial-gradient-88" cx="10.26" cy="0.44" r="1.87" xlink:href="#radial-gradient-3"/><linearGradient id="linear-gradient-33" x1="10.37" y1="0.64" x2="11.01" y2="1.42" gradientUnits="userSpaceOnUse"><stop offset="0" stop-color="#5f5f5f"/><stop offset="0.29" stop-color="#393939"/><stop offset="0.65" stop-color="#101010"/><stop offset="0.83"/><stop offset="1"/></linearGradient><radialGradient id="radial-gradient-89" cx="8.35" cy="4.05" r="2.25" xlink:href="#radial-gradient-3"/><linearGradient id="linear-gradient-34" x1="8.36" y1="4.29" x2="9.04" y2="4.66" gradientUnits="userSpaceOnUse"><stop offset="0" stop-color="#5f5f5f"/><stop offset="0.13" stop-color="#4b4b4b"/><stop offset="0.44" stop-color="#222"/><stop offset="0.69" stop-color="#090909"/><stop offset="0.83"/><stop offset="1"/></linearGradient><radialGradient id="radial-gradient-90" cx="10.83" cy="0.84" r="3.6" gradientUnits="userSpaceOnUse"><stop offset="0" stop-color="#fff"/><stop offset="0.22" stop-color="#d1e6ca"/><stop offset="0.6" stop-color="#84be72"/><stop offset="0.87" stop-color="#55a53b"/><stop offset="1" stop-color="#429b26"/></radialGradient><radialGradient id="radial-gradient-91" cx="109.15" cy="32.82" r="2.29" gradientTransform="translate(-75.02 -73.95) rotate(25.85)" gradientUnits="userSpaceOnUse"><stop offset="0.54" stop-color="#e7e7e7"/><stop offset="0.66" stop-color="#e4e4e5"/><stop offset="0.74" stop-color="#dcdcdd"/><stop offset="0.8" stop-color="#cdcdd1"/><stop offset="0.86" stop-color="#b8b8bf"/><stop offset="0.91" stop-color="#9d9da8"/><stop offset="0.94" stop-color="#8c8c9a"/><stop offset="1" stop-color="#c5c5c5"/></radialGradient><radialGradient id="radial-gradient-92" cx="87.86" cy="-122.98" r="0.1" gradientTransform="matrix(1.91, 0.93, -0.95, 1.97, -275.03, 163.09)" gradientUnits="userSpaceOnUse"><stop offset="0.21" stop-color="#fff"/><stop offset="0.36" stop-color="#aeaeae"/><stop offset="0.52" stop-color="#646464"/><stop offset="0.64" stop-color="#2e2e2e"/><stop offset="0.74" stop-color="#0d0d0d"/><stop offset="0.79"/><stop offset="0.98"/></radialGradient><radialGradient id="radial-gradient-93" cx="110.44" cy="19.78" r="1.44" gradientTransform="matrix(0.9, 0.44, -0.46, 0.96, -80.18, -63.21)" gradientUnits="userSpaceOnUse"><stop offset="0" stop-color="#31b2d1"/><stop offset="0.13" stop-color="#2aa3c9"/><stop offset="0.32" stop-color="#1b85ba"/><stop offset="0.52" stop-color="#1b6bae"/><stop offset="0.93" stop-color="#1c298f"/><stop offset="1" stop-color="#1c1d89"/></radialGradient><radialGradient id="radial-gradient-94" cx="57.28" cy="-120.8" r="0.1" gradientTransform="matrix(2.1, 0.34, -0.35, 2.16, -151.53, 245.13)" gradientUnits="userSpaceOnUse"><stop offset="0" stop-color="#fff"/><stop offset="0.22" stop-color="#b3b3b3"/><stop offset="0.62" stop-color="#333"/><stop offset="0.79"/><stop offset="1"/></radialGradient><linearGradient id="linear-gradient-35" x1="90.13" y1="32.76" x2="90.46" y2="33.16" gradientTransform="translate(-62.2 -60.61) rotate(21.27)" gradientUnits="userSpaceOnUse"><stop offset="0" stop-color="#b9b9b9"/><stop offset="0.04" stop-color="#adadad"/><stop offset="0.33" stop-color="#646464"/><stop offset="0.57" stop-color="#2e2e2e"/><stop offset="0.75" stop-color="#0d0d0d"/><stop offset="0.85"/><stop offset="0.98"/></linearGradient><radialGradient id="radial-gradient-95" cx="9.68" cy="4.45" r="9.36" xlink:href="#radial-gradient-2"/><radialGradient id="radial-gradient-96" cx="14.31" cy="-0.07" r="4.58" gradientUnits="userSpaceOnUse"><stop offset="0" stop-color="#91ca1f"/><stop offset="0" stop-color="#90c91f"/><stop offset="0.12" stop-color="#6a9417"/><stop offset="0.24" stop-color="#4a6710"/><stop offset="0.36" stop-color="#2f420a"/><stop offset="0.48" stop-color="#1a2506"/><stop offset="0.6" stop-color="#0c1003"/><stop offset="0.72" stop-color="#030401"/><stop offset="0.83"/><stop offset="1"/></radialGradient><linearGradient id="linear-gradient-36" x1="15.04" y1="0.41" x2="15.13" y2="2.68" xlink:href="#linear-gradient-33"/><radialGradient id="radial-gradient-97" cx="9.68" cy="4.46" r="9.35" xlink:href="#radial-gradient-25"/><radialGradient id="radial-gradient-98" cx="9.68" cy="4.46" r="9.35" xlink:href="#radial-gradient-2"/><radialGradient id="radial-gradient-99" cx="7.83" cy="5.86" r="6.2" xlink:href="#radial-gradient-3"/><linearGradient id="linear-gradient-37" x1="8.13" y1="5.5" x2="11.23" y2="5.5" xlink:href="#linear-gradient-33"/><radialGradient id="radial-gradient-100" cx="10.39" cy="0.87" r="3.73" xlink:href="#radial-gradient-3"/><linearGradient id="linear-gradient-38" x1="10.72" y1="1.2" x2="12.77" y2="2.72" xlink:href="#linear-gradient-33"/><radialGradient id="radial-gradient-101" cx="12.7" cy="9.03" r="3.07" gradientUnits="userSpaceOnUse"><stop offset="0" stop-color="#150c0c"/><stop offset="0.28" stop-color="#200a0a"/><stop offset="0.56" stop-color="#300707"/><stop offset="0.68" stop-color="#3b0807"/><stop offset="1" stop-color="#540a06"/></radialGradient><radialGradient id="radial-gradient-102" cx="12.57" cy="8.88" r="1.9" gradientUnits="userSpaceOnUse"><stop offset="0" stop-color="#130c0c"/><stop offset="0.59" stop-color="#6a0a09"/><stop offset="0.72" stop-color="#7c0c08"/><stop offset="0.87" stop-color="#890e06"/><stop offset="1" stop-color="#8e0f06"/></radialGradient><radialGradient id="radial-gradient-103" cx="12.57" cy="8.88" r="1.9" xlink:href="#radial-gradient-102"/><linearGradient id="linear-gradient-39" x1="11.39" y1="9.85" x2="13.61" y2="9.85" gradientUnits="userSpaceOnUse"><stop offset="0" stop-color="#f59e9f"/><stop offset="1" stop-color="#f17171"/></linearGradient><linearGradient id="linear-gradient-40" x1="11.5" y1="9.91" x2="13.29" y2="9.91" gradientUnits="userSpaceOnUse"><stop offset="0" stop-color="#f0b8b8"/><stop offset="1" stop-color="#f79899"/></linearGradient><radialGradient id="radial-gradient-104" cx="11.55" cy="9.85" r="0.9" gradientUnits="userSpaceOnUse"><stop offset="0" stop-color="#f0b8b8"/><stop offset="0.02" stop-color="#e6b0b0"/><stop offset="0.12" stop-color="#aa8282"/><stop offset="0.23" stop-color="#765a5a"/><stop offset="0.33" stop-color="#4c3a3a"/><stop offset="0.43" stop-color="#2b2121"/><stop offset="0.53" stop-color="#130f0f"/><stop offset="0.62" stop-color="#050404"/><stop offset="0.69"/><stop offset="1"/></radialGradient><radialGradient id="radial-gradient-105" cx="12.2" cy="9.83" r="1.23" xlink:href="#radial-gradient-104"/><radialGradient id="radial-gradient-106" cx="14.23" cy="1.07" r="4.82" xlink:href="#radial-gradient-90"/><radialGradient id="radial-gradient-107" cx="47.25" cy="36.05" r="2.84" gradientTransform="translate(-27.98 -38.63) rotate(9.08)" xlink:href="#radial-gradient-91"/><radialGradient id="radial-gradient-108" cx="59.21" cy="-121.32" r="0.13" gradientTransform="matrix(2.1, 0.34, -0.35, 2.16, -151.53, 245.13)" xlink:href="#radial-gradient-92"/><radialGradient id="radial-gradient-109" cx="49.8" cy="23.54" r="1.79" gradientTransform="matrix(0.99, 0.16, -0.17, 1.05, -30.37, -27.55)" xlink:href="#radial-gradient-93"/><radialGradient id="radial-gradient-110" cx="59.54" cy="-120.76" r="0.1" xlink:href="#radial-gradient-94"/><linearGradient id="linear-gradient-41" x1="29.53" y1="31.44" x2="29.94" y2="31.93" gradientTransform="translate(-12.72 -30.17) rotate(4.5)" xlink:href="#linear-gradient-35"/><radialGradient id="radial-gradient-111" cx="9.68" cy="4.45" r="9.36" xlink:href="#radial-gradient-2"/><radialGradient id="radial-gradient-112" cx="14.6" cy="5.34" r="2.27" xlink:href="#radial-gradient-96"/><linearGradient id="linear-gradient-42" x1="14.7" y1="5.69" x2="15.15" y2="6.77" xlink:href="#linear-gradient-34"/></defs><g class="cls-1"><g id="Layer_2" data-name="Layer 2"><g id="Layer_1-2" data-name="Layer 1"><g id="turtee-assets"><g id="break-time-turtee"><path class="cls-2" d="M10.29,12.55A5.3,5.3,0,0,0,12,12.4a8.63,8.63,0,0,0,0-2.25,11.32,11.32,0,0,1,2.05-1.21c-.88-.17-3.67-.62-3.67-.62A3.68,3.68,0,0,0,10.29,12.55Z"/><path class="cls-3" d="M10,8.94a3.81,3.81,0,0,0,.29,3.61,6.16,6.16,0,0,0,.76,0c.28-.17.35-.55.44-.82A2.35,2.35,0,0,0,10,8.94Z"/><path class="cls-4" d="M10,8.94a3.81,3.81,0,0,0,.29,3.61.75.75,0,0,0,.62-.17C11.45,12,11.91,9.48,10,8.94Z"/><path class="cls-5" d="M9.8,10.17l-.11,0a3.65,3.65,0,0,0,.05.92H9.8a.43.43,0,0,0,.37-.47A.44.44,0,0,0,9.8,10.17Z"/><path class="cls-5" d="M10.46,10.28a.16.16,0,0,0-.14.18c0,.11.06.19.14.19s.13-.08.13-.19S10.53,10.28,10.46,10.28Z"/><path class="cls-5" d="M10.45,11a.38.38,0,0,0-.28.33.28.28,0,0,0,.28.29.26.26,0,0,0,.24-.31C10.67,11.22,10.6,11,10.45,11Z"/><path class="cls-6" d="M10.1,9.43c.29,0,.64.55.77,1.34s0,1.47-.29,1.52-.69-.51-.83-1.3S9.81,9.48,10.1,9.43Z"/><path class="cls-7" d="M10.38,8.3h0a3.19,3.19,0,0,0-.59,1.2,3.91,3.91,0,0,0,.5,3.05h0s.19,0,.47,0A4.67,4.67,0,0,0,12,12.42h0a7.77,7.77,0,0,0,0-2.25,11,11,0,0,1,2-1.21l.07,0h-.07C13.19,8.75,10.41,8.31,10.38,8.3ZM12,10.14h0a8.4,8.4,0,0,1,0,2.23,4.22,4.22,0,0,1-1.26.17c-.24,0-.42,0-.46,0a3.88,3.88,0,0,1-.49-3,3.45,3.45,0,0,1,.58-1.18c.18,0,2.68.43,3.59.6A12.38,12.38,0,0,0,12,10.14Z"/><path class="cls-7" d="M11.72,9.57a1.85,1.85,0,0,1,.27.58h0A1.23,1.23,0,0,0,11.72,9.57Z"/><path class="cls-8" d="M15.56,10.81c-2.2-.71-3.36,1.94-3.36,1.94,1.29.08,2.69,1.46,3.21,2.07C17.44,12.13,16.31,11.1,15.56,10.81Z"/><path class="cls-9" d="M12.2,12.75a4.58,4.58,0,0,1,2.47,1.32A5,5,0,0,0,15,10.7C13.18,10.53,12.2,12.75,12.2,12.75Z"/><path d="M15.57,10.8a2.45,2.45,0,0,0-.75-.12c-1.71,0-2.62,2-2.63,2.07v0h0c1.47.09,3,1.86,3.19,2.06l0,0v0c1-1.25,1.32-2.28,1.09-3.05A1.47,1.47,0,0,0,15.57,10.8Zm-.16,4c-.23-.27-1.74-1.95-3.18-2,.11-.23,1-2,2.59-2a2.43,2.43,0,0,1,.74.12,1.48,1.48,0,0,1,.92,1C16.7,12.55,16.34,13.56,15.41,14.79Z"/><path class="cls-10" d="M18.4,16.5a1.32,1.32,0,0,1,.72.68,3.62,3.62,0,0,0-2.84-4.42c-.2.62-.43,1.27-.7,1.92C16.71,15,18.23,15.17,18.4,16.5Z"/><path class="cls-11" d="M8.37,24.27s0-.09,0-.14c-.14-.75-.48-1.36-.63-2.05A10.18,10.18,0,0,1,6,22.16s.43,1.87,1.6,2.25A.93.93,0,0,0,8.37,24.27Z"/><path class="cls-12" d="M8.88,25.17a2.37,2.37,0,0,1-.51-.9,1,1,0,0,1-.75.15A1.82,1.82,0,0,0,8.88,25.17Z"/><path class="cls-13" d="M11.3,25.45a2.27,2.27,0,0,1-.38-.66A7.89,7.89,0,0,0,9.74,22a1,1,0,0,0-.62-.22,8.92,8.92,0,0,1-1.42.32c.15.69.49,1.3.63,2.05a2.38,2.38,0,0,0,.55,1H9A2.14,2.14,0,0,0,11.3,25.45Z"/><path class="cls-14" d="M14.91,23.78c-.11-.11-.13-.28-.24-.39-.53-.66-.57-1.43-1-2.09A5.53,5.53,0,0,0,12.1,20a8.18,8.18,0,0,1-3,1.73,1,1,0,0,1,.62.22,7.89,7.89,0,0,1,1.18,2.81,2.27,2.27,0,0,0,.38.66l0,0A3.79,3.79,0,0,0,15.1,24h0A2.35,2.35,0,0,1,14.91,23.78Z"/><path class="cls-15" d="M18.17,20.78a1.88,1.88,0,0,1-.56-.37c-.86-.73-1.65-1.3-2.55-2-.26-.2-.43-.44-.7-.66a2.23,2.23,0,0,1-.19-.24A11.13,11.13,0,0,1,12.1,20a5.53,5.53,0,0,1,1.54,1.27c.46.66.5,1.43,1,2.09.11.11.13.28.24.39a2.35,2.35,0,0,0,.19.25C16.13,23.91,18.61,22.63,18.17,20.78Z"/><path class="cls-16" d="M19.12,17.19h0a1.32,1.32,0,0,0-.72-.68c-.17-1.33-1.69-1.55-2.82-1.82a19.13,19.13,0,0,1-1.41,2.83,2.23,2.23,0,0,0,.19.24c.27.22.44.46.7.66.9.7,1.69,1.27,2.55,2a1.88,1.88,0,0,0,.56.37h0A2.77,2.77,0,0,0,19.12,17.19Z"/><path class="cls-17" d="M18.2,13.79a.27.27,0,0,0-.09.12c-.39.71.21,1.41.47,2.12h0c.32.07.47.39.61.67A3.76,3.76,0,0,0,18.2,13.79Z"/><path class="cls-18" d="M10.77,23.79a.26.26,0,0,1,.11.1,3.46,3.46,0,0,1,.33.9,3.64,3.64,0,0,0,3.34-1.28c-.22-.31-.39-.65-.61-1a.76.76,0,0,1,0-.11A3.36,3.36,0,0,0,10.77,23.79Z"/><path class="cls-19" d="M9.89,24.24A2,2,0,0,0,8.28,24c0,.19,0,.35.37.35a2,2,0,0,0,2.06.43c-.05-.18-.18-.75-.26-.92C10.23,23.92,10.08,24.37,9.89,24.24Z"/><path class="cls-20" d="M14.32,22.23a.17.17,0,0,1,.06.06c.21.31.38.65.59,1a1.56,1.56,0,0,0,.16.2,3,3,0,0,0,2.46-2,2.3,2.3,0,0,0-.18-.73,1.65,1.65,0,0,0-.54-.78.24.24,0,0,1-.09-.32C15.4,19.59,14.68,21,14.32,22.23Z"/><path class="cls-21" d="M19.33,18.06c-.13-.22-.08-.54-.2-.78L19,16.93a1.84,1.84,0,0,0-.48-.41.34.34,0,0,1-.12-.06c-.91.51-1.08,1.68-1.15,2.69,0,.11-.12.23-.19.35l.1,0a1.89,1.89,0,0,1,.65.8A2.5,2.5,0,0,0,19.33,18.06Z"/><path class="cls-22" d="M16.81,19.8l0,0a14.83,14.83,0,0,1-2.72-2.14,9.25,9.25,0,0,1-1.71,2.11,7,7,0,0,1,.47.83,11.39,11.39,0,0,0,1.22,1.87A3.34,3.34,0,0,0,16.81,19.8Z"/><path class="cls-23" d="M9.66,21.47a11.81,11.81,0,0,1-2.43.63,3,3,0,0,0,1.11,2.23c1.63.31,2.26-.22,2.33-.37A4.84,4.84,0,0,1,9.66,21.47Z"/><path class="cls-24" d="M12.89,20.58a7,7,0,0,0-.47-.83,9,9,0,0,1-2.76,1.72,4.84,4.84,0,0,0,1,2.49v0a3.68,3.68,0,0,0,3.43-1.49h0A12.08,12.08,0,0,1,12.89,20.58Z"/><path class="cls-25" d="M17.82,15.59a1.42,1.42,0,0,1-.32-.25,3.36,3.36,0,0,0-1.85-1.1c-.23.54-.48,1.16-.72,1.77a11.78,11.78,0,0,1-.8,1.63,14.83,14.83,0,0,0,2.72,2.14c1.53-.86,1.55-2.2,1.62-3.26A2.26,2.26,0,0,0,17.82,15.59Z"/><path class="cls-26" d="M16.29,12.74s-.28.63-.64,1.5a3.36,3.36,0,0,1,1.85,1.1c.06.09.2.14.31.23a3,3,0,0,1,.66.95v0C19.13,14.13,16.29,12.74,16.29,12.74Z"/><path class="cls-27" d="M17.84,16.36a1.74,1.74,0,0,0-.28-.62,2.34,2.34,0,0,0-.82-.63,1.1,1.1,0,0,0-1.22.52A4.32,4.32,0,0,0,15,18.35a.29.29,0,0,1,.33.08c.18.26.4.49.56.76,0-.05,0-.08,0-.08A3.54,3.54,0,0,0,17.84,16.36Z"/><path class="cls-28" d="M13.29,19.19A2,2,0,0,0,13,20.52a.21.21,0,0,1,.17,0,1.31,1.31,0,0,1,.59,1.11h0a2.67,2.67,0,0,0,1.95-1.54,1.94,1.94,0,0,0-.12-.53,3.78,3.78,0,0,0-.64-.9.21.21,0,0,1,0-.29C14.28,18.15,13.65,18.69,13.29,19.19Z"/><path class="cls-29" d="M10.28,21.54a1.13,1.13,0,0,0-.44.71.26.26,0,0,1,.3.17,4.34,4.34,0,0,1,.14.48,4.36,4.36,0,0,0,3-.9,1.09,1.09,0,0,0,0-.18c0-.29-.07-.71-.36-.85a.2.2,0,0,1-.11-.26A3.85,3.85,0,0,0,10.28,21.54Z"/><path class="cls-30" d="M8.69,22.82A1.6,1.6,0,0,0,9.78,23c0-.07,0-.28,0-.34s-.14,0-.17,0A.94.94,0,0,0,8.69,22.82Z"/><path class="cls-31" d="M18.87,18.67a2.17,2.17,0,0,0-.35.82.14.14,0,0,0,0,.12c.08.09.28.31.4.42L19,20l-.39-.41a2,2,0,0,1,.32-.84,1.59,1.59,0,0,1,.49-.05V18.6h0A1.7,1.7,0,0,0,18.87,18.67Z"/><path class="cls-31" d="M18.62,18.33a3.18,3.18,0,0,0-.53,1.2c0,.28.55.76.61.81l.05-.05c-.17-.14-.62-.55-.59-.75a3.85,3.85,0,0,1,.48-1.15,3.1,3.1,0,0,1,.74,0v-.07A2.48,2.48,0,0,0,18.62,18.33Z"/><path class="cls-31" d="M18.57,17.88s-.05,0-.17.21A4.84,4.84,0,0,0,17.74,20a4.47,4.47,0,0,0,.61.67l0-.05a3.74,3.74,0,0,1-.59-.65,5,5,0,0,1,.78-2,1.75,1.75,0,0,1,.74.1l.05-.06A1.81,1.81,0,0,0,18.57,17.88Z"/><path class="cls-31" d="M19.05,19a1.92,1.92,0,0,1,.32-.05v-.07A1.61,1.61,0,0,0,19,19c-.1,0-.19.42-.19.43s.2.34.25.38l.05-.05c-.12-.11-.25-.27-.23-.32A.88.88,0,0,1,19.05,19Z"/><path class="cls-31" d="M16.58,16a10.55,10.55,0,0,0-.85,2.1c0,.33,1.14,1.47,1.28,1.59l0-.05c-.52-.49-1.29-1.31-1.26-1.53a10.27,10.27,0,0,1,.82-2.05,3.77,3.77,0,0,1,1.82.56l0-.06A3.63,3.63,0,0,0,16.58,16Z"/><path class="cls-31" d="M17,16.63a4.53,4.53,0,0,0-.7,1.62,8.48,8.48,0,0,0,1,1.26l.06-.05a8.19,8.19,0,0,1-.94-1.22,5.83,5.83,0,0,1,.65-1.55,4.87,4.87,0,0,1,1.38.29l0-.06A4.2,4.2,0,0,0,17,16.63Z"/><path class="cls-31" d="M17.39,17.16A6.87,6.87,0,0,0,17,18.33c0,.12.4.68.59.91l.06,0a4.09,4.09,0,0,1-.58-.85,6.31,6.31,0,0,1,.38-1.13,3.73,3.73,0,0,1,1,.17l0-.07A3.54,3.54,0,0,0,17.39,17.16Z"/><path class="cls-31" d="M17.75,17.62a1.37,1.37,0,0,0-.34.77c0,.16.37.51.41.55l.05-.05a1.57,1.57,0,0,1-.39-.51,1.46,1.46,0,0,1,.3-.69,1.81,1.81,0,0,1,.54.16l0-.07A1.91,1.91,0,0,0,17.75,17.62Z"/><path class="cls-31" d="M18.8,16.45a10.86,10.86,0,0,1,0-1.12,1.55,1.55,0,0,1,.29-.14l0-.07a1.22,1.22,0,0,0-.32.18,8.94,8.94,0,0,0,0,1.16c0,.12.38.36.45.4l0-.06A1.88,1.88,0,0,1,18.8,16.45Z"/><path class="cls-31" d="M19,16.37a4.59,4.59,0,0,1-.05-.72l.17,0v-.07l-.18,0s-.07,0,0,.39c0,.17,0,.36,0,.41s.21.19.25.21l0-.06C19.16,16.49,19,16.42,19,16.37Z"/><path class="cls-31" d="M18.39,15l0-.07a1.09,1.09,0,0,0-.43.62c0,.14.47.64.57.74l0-.05a2.76,2.76,0,0,1-.54-.69A1,1,0,0,1,18.39,15Z"/><path class="cls-31" d="M18.28,15.62a.75.75,0,0,1,0-.35s.11,0,.18-.06v-.07a.94.94,0,0,0-.22.07.72.72,0,0,0-.05.42c0,.13.31.34.34.37l.05-.06C18.49,15.85,18.3,15.69,18.28,15.62Z"/><path class="cls-31" d="M15.07,19.48A7.06,7.06,0,0,0,13.85,21a4.36,4.36,0,0,0,.49,1.4l.06,0A4.37,4.37,0,0,1,13.92,21a7.88,7.88,0,0,1,1.17-1.48h0a11.63,11.63,0,0,1,1.67.49l0-.05A9.06,9.06,0,0,0,15.07,19.48Z"/><path class="cls-31" d="M15.15,20a6.18,6.18,0,0,0-.82,1c-.12.22.33,1.09.39,1.19l.06,0c-.19-.36-.47-1-.39-1.13a6.35,6.35,0,0,1,.78-1,5.4,5.4,0,0,1,1.49.3l0-.06A5.49,5.49,0,0,0,15.15,20Z"/><path class="cls-31" d="M15.34,20.45a6.7,6.7,0,0,0-.56.69,2.89,2.89,0,0,0,.36.9l.07,0a4.16,4.16,0,0,1-.37-.84c.05-.08.48-.61.54-.66a3.71,3.71,0,0,1,1.08.31l0-.06A3.19,3.19,0,0,0,15.34,20.45Z"/><path class="cls-31" d="M15.65,20.87a2.68,2.68,0,0,0-.36.42c0,.1.13.44.19.54l.06,0a1.35,1.35,0,0,1-.18-.47,2.07,2.07,0,0,1,.32-.38h0a3.07,3.07,0,0,1,.58.15l0-.05A2.14,2.14,0,0,0,15.65,20.87Z"/><path class="cls-31" d="M16,21.71a9.1,9.1,0,0,0-1,1.07c-.09.2.39,1.1.44,1.2l.07,0A3.4,3.4,0,0,1,15,22.8a17,17,0,0,1,2-1.95h0a4.1,4.1,0,0,1,1.15.44l0-.07a3.81,3.81,0,0,0-1.18-.44A8.24,8.24,0,0,0,16,21.71Z"/><path class="cls-31" d="M17,21.39a8.1,8.1,0,0,0-.84.74,6.74,6.74,0,0,0-.78.81,3.62,3.62,0,0,0,.36.92l.06,0a4.06,4.06,0,0,1-.35-.87A18.48,18.48,0,0,1,17,21.46a3.47,3.47,0,0,1,1,.48l.06,0A3.17,3.17,0,0,0,17,21.39Z"/><path class="cls-31" d="M17,21.89A6.94,6.94,0,0,0,15.87,23c-.06.13.25.59.34.73l.06,0a2.09,2.09,0,0,1-.34-.66A8.46,8.46,0,0,1,17,22a3.78,3.78,0,0,1,.83.43l0-.06A3,3,0,0,0,17,21.89Z"/><path class="cls-31" d="M17,22.31c-.14,0-.65.61-.7.71s.18.39.26.47l.05,0c-.14-.15-.28-.33-.25-.39a3.2,3.2,0,0,1,.65-.67c.09,0,.49.29.53.32l.05,0S17.16,22.29,17,22.31Z"/><path class="cls-31" d="M12.59,21.47h0a11.49,11.49,0,0,0-2,1.2c-.11.15.2,1.11.26,1.3l.07,0a3.74,3.74,0,0,1-.27-1.24,10.92,10.92,0,0,1,2-1.17A4.74,4.74,0,0,1,14,22.64l.06-.05A4.88,4.88,0,0,0,12.59,21.47Z"/><path class="cls-31" d="M12.69,22h0a6.91,6.91,0,0,0-1.7.84c-.12.14.18,1,.24,1.13l.07,0A2.6,2.6,0,0,1,11,22.87a7.82,7.82,0,0,1,1.64-.81,5.23,5.23,0,0,1,1.05.84l.06,0A5.19,5.19,0,0,0,12.69,22Z"/><path class="cls-31" d="M12.54,22.44a2.93,2.93,0,0,0-1,.6,5.71,5.71,0,0,0,.08.86h.07a4.6,4.6,0,0,1-.08-.84,3.55,3.55,0,0,1,.95-.54,3.88,3.88,0,0,1,.78.73l.06,0C13.27,23.05,12.67,22.44,12.54,22.44Z"/><path class="cls-31" d="M12.57,23a1.4,1.4,0,0,0-.59.22c-.09.06,0,.4,0,.6l.07,0a1.22,1.22,0,0,1,0-.52,1.52,1.52,0,0,1,.54-.21,1.3,1.3,0,0,1,.42.38l0,0S12.73,23,12.57,23Z"/><path class="cls-31" d="M13.89,23.37a21.08,21.08,0,0,0-2.5,1c-.23.1,0,1,.07,1.15l.07,0c-.12-.41-.24-1-.11-1.06a21.51,21.51,0,0,1,2.45-1,5.67,5.67,0,0,1,.77.59l.27.22,0-.06L14.69,24A5.45,5.45,0,0,0,13.89,23.37Z"/><path class="cls-31" d="M13.67,23.77h0A11.53,11.53,0,0,0,12,24.5l-.26.12s-.08,0,0,.89h.07a5.66,5.66,0,0,1,0-.81l.25-.13c.42-.19,1.51-.71,1.63-.71h0a4.27,4.27,0,0,1,.95.68l.05-.05A4.13,4.13,0,0,0,13.67,23.77Z"/><path class="cls-31" d="M12.08,24.84a2.1,2.1,0,0,0,0,.67h.07a6.17,6.17,0,0,1,0-.62,6.71,6.71,0,0,1,1.37-.63,3.16,3.16,0,0,1,.82.53l0-.06a3.43,3.43,0,0,0-.86-.54A5.71,5.71,0,0,0,12.08,24.84Z"/><path class="cls-31" d="M13.38,24.54a2.64,2.64,0,0,0-.5.22c-.41.22-.43.26-.43.27s0,.41,0,.48h.07c0-.16,0-.4,0-.44a3.88,3.88,0,0,1,.86-.44,1.61,1.61,0,0,1,.43.29L14,25,14,25l-.14-.11A1.41,1.41,0,0,0,13.38,24.54Z"/><path class="cls-31" d="M9.64,23.06a4.91,4.91,0,0,0-1.52.4c-.14.16.23.78.3.9l.06,0c-.17-.28-.39-.72-.3-.82a5,5,0,0,1,1.44-.37,9.58,9.58,0,0,1,.83,1l.06,0A7.43,7.43,0,0,0,9.64,23.06Z"/><path class="cls-31" d="M9.49,23.45a4.48,4.48,0,0,0-1,.3s0,.06.16.64l.06,0a3.89,3.89,0,0,1-.16-.58,5.54,5.54,0,0,1,.94-.27,3.83,3.83,0,0,1,.69.76l.06,0C10.14,24.09,9.63,23.46,9.49,23.45Z"/><path class="cls-31" d="M9.45,23.8a1.26,1.26,0,0,0-.54.16c-.09.07,0,.34,0,.46l.07,0A.72.72,0,0,1,9,24a1.41,1.41,0,0,1,.47-.15,1.73,1.73,0,0,1,.28.36c.12.18.11.16.14.16v0h0l-.11-.17C9.58,23.93,9.5,23.81,9.45,23.8Z"/><path class="cls-31" d="M10.38,24.53a3.38,3.38,0,0,0-.76,0,2,2,0,0,0-.72.14c-.05.08.08.4.14.54l.07,0A1.7,1.7,0,0,1,9,24.74a5.56,5.56,0,0,1,1.39-.14,6.21,6.21,0,0,1,.66,1l.06,0A5.75,5.75,0,0,0,10.38,24.53Z"/><path class="cls-31" d="M10.14,24.82a4.82,4.82,0,0,0-.86.08c-.06,0-.06.2,0,.51h.08a1.44,1.44,0,0,1,0-.45,4.37,4.37,0,0,1,.79-.07,3.08,3.08,0,0,1,.53.78l.07,0A3.45,3.45,0,0,0,10.14,24.82Z"/><path class="cls-31" d="M9.56,25.12c-.08.05,0,.28,0,.41h.07a.9.9,0,0,1,0-.36,1.19,1.19,0,0,1,.42,0,4.81,4.81,0,0,1,.26.5h.07a4.87,4.87,0,0,0-.28-.56A1.05,1.05,0,0,0,9.56,25.12Z"/><path class="cls-31" d="M7.41,23.41a2.79,2.79,0,0,0-.82.1l0,.06a3.66,3.66,0,0,1,.75-.1,6.43,6.43,0,0,1,.54,1l.07,0A5.06,5.06,0,0,0,7.41,23.41Z"/><path class="cls-31" d="M7,23.65l-.26.09,0,.06a2.32,2.32,0,0,1,.44-.12h0c0,.09.36.64.39.75l.07,0a7.67,7.67,0,0,0-.41-.78S7.25,23.58,7,23.65Z"/><path class="cls-31" d="M7.18,23.85s-.12,0-.26,0h0l0,.07H7a.57.57,0,0,1,.2,0,2.59,2.59,0,0,1,.15.35v0h.08l0-.07C7.28,24,7.23,23.87,7.18,23.85Z"/><path class="cls-31" d="M7.77,24.61l0,.06a1.42,1.42,0,0,1,.37-.09,3.74,3.74,0,0,1,.39.54h.07a4.26,4.26,0,0,0-.41-.58S8.16,24.47,7.77,24.61Z"/><path class="cls-31" d="M8.1,24.67s0,0-.2.06l0,.06a.36.36,0,0,1,.13-.05,1.24,1.24,0,0,1,.13.15.63.63,0,0,0,.1.12l.07,0s-.08-.13-.12-.18Z"/><path class="cls-32" d="M18.89,14.74a3.69,3.69,0,0,0-2.6-2h0c-1.32,4-3.78,9.4-9.87,9.4H6v0S6.44,24,7.6,24.43A1.85,1.85,0,0,0,9,25.2a2.34,2.34,0,0,0,1.38.5,2.07,2.07,0,0,0,1-.25,3.23,3.23,0,0,0,.76.08,3.84,3.84,0,0,0,3-1.48,4.55,4.55,0,0,0,2.73-1.66,1.94,1.94,0,0,0,.35-1.61,2.77,2.77,0,0,0,.95-3.59A3.69,3.69,0,0,0,18.89,14.74Zm-.73,6h0a1.9,1.9,0,0,1-.34,1.59A4.5,4.5,0,0,1,15.1,24h0a3.82,3.82,0,0,1-3,1.48,3.89,3.89,0,0,1-.76-.08h0a2.17,2.17,0,0,1-1,.24A2.22,2.22,0,0,1,9,25.16H9a1.77,1.77,0,0,1-1.35-.75h0C6.55,24,6.1,22.39,6,22.18h.35a8.62,8.62,0,0,0,3.92-.89A9.23,9.23,0,0,0,13.12,19a18.94,18.94,0,0,0,3.17-6.23,3.66,3.66,0,0,1,2.57,2,3.58,3.58,0,0,1,.24,2.42h0A2.75,2.75,0,0,1,18.16,20.76Z"/><path class="cls-32" d="M18,14.14a4.57,4.57,0,0,0-1.69-1.4l0,0A4.61,4.61,0,0,1,18,14.16a2.52,2.52,0,0,1,.5,2.34h0c0,2.15-1,3-1.63,3.26h0a3.44,3.44,0,0,1-2.7,2.63h0a3,3,0,0,1-1.64,1.24,4.25,4.25,0,0,1-1.77.27h0c-.61.67-2,.46-2.29.37h0a1.21,1.21,0,0,1-.72.09v0a1.67,1.67,0,0,0,.24,0,1,1,0,0,0,.5-.12c.35.1,1.7.31,2.32-.37a4.11,4.11,0,0,0,1.78-.27,3.07,3.07,0,0,0,1.66-1.24,3.46,3.46,0,0,0,1.53-.72,2.94,2.94,0,0,0,1.2-1.93c.63-.3,1.67-1.13,1.64-3.29A2.58,2.58,0,0,0,18,14.14Z"/><path class="cls-32" d="M8.37,24.31h0c-.89-.44-1.09-2.19-1.09-2.21h0s.21,1.78,1.11,2.23a1.65,1.65,0,0,0,.63.86l0,0A1.61,1.61,0,0,1,8.37,24.31Z"/><path class="cls-32" d="M10.68,23.94h0a5,5,0,0,1-1-2.36h0a5.16,5.16,0,0,0,1,2.37,3.12,3.12,0,0,0,.66,1.5l0,0A3.09,3.09,0,0,1,10.68,23.94Z"/><path class="cls-32" d="M14.11,22.42h0c-.16-.12-1.75-2.58-1.76-2.61l0,0c.06.1,1.58,2.46,1.76,2.61.21.46,1,1.59,1,1.6l0,0s-.79-1.14-1-1.59Z"/><path class="cls-32" d="M16.83,19.77c-.3-.13-2.73-2.09-2.75-2.11l0,0c.1.08,2.43,2,2.75,2.11a6.14,6.14,0,0,0,1.36,1v0a6.23,6.23,0,0,1-1.35-1Z"/><path class="cls-32" d="M18.48,16.49c-.42-1.21-2.68-2.29-2.7-2.3l0,0S18,15.3,18.45,16.51h0a1.68,1.68,0,0,1,.65.68h0A1.79,1.79,0,0,0,18.48,16.49Z"/><path class="cls-33" d="M3.81,13.36c-2.08.39-1.62,3.21-1.62,3.21C6.26,18.15,7.06,15.3,7.32,15,7,14.5,5,13.14,3.81,13.36Z"/><path class="cls-34" d="M3.81,13.36a2.12,2.12,0,0,0-1.64,2.12,3.38,3.38,0,0,0,2.61.29C5.53,15.54,6.37,14.69,6,14A3.72,3.72,0,0,0,3.81,13.36Z"/><path class="cls-35" d="M3.81,13.36c-1.21.22-1.65,1.72-1.39,2a2.37,2.37,0,0,0,2.25.28c.74-.23,1.48-.87,1.16-1.56A2.6,2.6,0,0,0,3.81,13.36Z"/><path class="cls-36" d="M3.81,13.36l-.09,0a.13.13,0,0,0,0,.06.57.57,0,0,0,.48.49.56.56,0,0,0,.5-.48v0A2.08,2.08,0,0,0,3.81,13.36Z"/><path class="cls-7" d="M4.07,13.32a1.23,1.23,0,0,0-.27,0A2,2,0,0,0,2.2,15.1a5,5,0,0,0,0,1.47h0a6.09,6.09,0,0,0,2.2.48,3,3,0,0,0,2.84-1.87A1.81,1.81,0,0,1,7.34,15h0A5.74,5.74,0,0,0,4.07,13.32Zm3.12,1.85A3,3,0,0,1,4.38,17a5.91,5.91,0,0,1-2.17-.47,4.25,4.25,0,0,1,0-1.44,2,2,0,0,1,1.57-1.73,1.09,1.09,0,0,1,.26,0A4.54,4.54,0,0,1,6,14,5,5,0,0,1,7.3,15Z"/><path class="cls-37" d="M12.67,12.74c-.34-.68-1.52-.74-1.69-.44a2.71,2.71,0,0,1,.9.29,1,1,0,0,1,.42.49h0A.55.55,0,0,1,12.67,12.74Z"/><path class="cls-38" d="M15.34,14.82a2.55,2.55,0,0,0-2.66-2.06v0a.55.55,0,0,0-.36.34,5.64,5.64,0,0,1,3,2.45C15.37,15.17,15.34,14.91,15.34,14.82Z"/><path class="cls-39" d="M6.84,17.4l0,0a1.73,1.73,0,0,1-1.42-.88c-.1,0-.45,0-.44.54a5.24,5.24,0,0,0,1,2.8A4.08,4.08,0,0,1,6.84,17.4Z"/><path class="cls-40" d="M6.84,17.4a4.08,4.08,0,0,0-.93,2.44,5.48,5.48,0,0,0,4.55,2,10.42,10.42,0,0,0,3.27-2.4C11,19.8,7.34,17.74,6.84,17.4Z"/><path class="cls-41" d="M13.14,17.77a7.28,7.28,0,0,0-2.4-1.9,6.15,6.15,0,0,0-2-.69,2.86,2.86,0,0,0-1.9,2.18,6.55,6.55,0,0,0,.89.52,12.6,12.6,0,0,0,6,1.66l.18-.2A4.87,4.87,0,0,0,13.14,17.77Z"/><path class="cls-42" d="M8.7,15.18h0A1.85,1.85,0,0,0,8,14.84a3.67,3.67,0,0,0-1.4,0h0a1.61,1.61,0,0,0-1.15,1.69h0a1.59,1.59,0,0,0,1.41.85h0A2.86,2.86,0,0,1,8.7,15.18Z"/><path class="cls-43" d="M10.27,13.91h0a2.38,2.38,0,0,0-1.79-.5h0a2,2,0,0,0-1.89,1.4,3.15,3.15,0,0,1,1.33,0,2.24,2.24,0,0,1,.78.34A1.84,1.84,0,0,1,10.27,13.91Z"/><path class="cls-44" d="M10.27,13.91a1.84,1.84,0,0,0-1.6,1.26h0a8,8,0,0,1,2.07.7,7.14,7.14,0,0,1,2.37,1.87,3.86,3.86,0,0,1,.76,1.6,6.65,6.65,0,0,0,1.07-1.79A6.13,6.13,0,0,0,10.27,13.91Z"/><path class="cls-45" d="M12.3,13.08v0a2.28,2.28,0,0,0-2,.88h0a6,6,0,0,1,4.66,3.61,5.84,5.84,0,0,0,.42-2A5.65,5.65,0,0,0,12.3,13.08Z"/><path class="cls-46" d="M12.29,13.05a1.2,1.2,0,0,0-.41-.46,1.88,1.88,0,0,0-.88-.32l0,0a2.6,2.6,0,0,0-2.52,1.11,2.43,2.43,0,0,1,1.81.52A2.28,2.28,0,0,1,12.29,13.05Z"/><path class="cls-47" d="M8.59,15.69a1.23,1.23,0,0,0-.82,1.46c.2.6,2.66,1.78,4.05,1.6.33,0,.72-.58.36-1.24C11.67,16.61,9.52,15.35,8.59,15.69Z"/><path class="cls-48" d="M8.73,15.91A1.1,1.1,0,0,0,8,17.22c.18.55,2.4,1.6,3.66,1.45.29,0,.65-.52.32-1.12C11.51,16.74,9.57,15.6,8.73,15.91Z"/><path class="cls-49" d="M12.46,15.09A3.22,3.22,0,0,0,10,14.28c-.22.07-.6.42-.5.66s.77.21,1.77.83c.48.29,1.38,1.1,1.89,1C13.85,16.54,13.38,15.75,12.46,15.09Z"/><path class="cls-50" d="M12.32,15.08a2.79,2.79,0,0,0-2.15-.69c-.18.06-.51.36-.42.56s.65.19,1.5.71c.42.25,1.18.94,1.61.83C13.49,16.32,13.09,15.64,12.32,15.08Z"/><path class="cls-51" d="M6.39,15.09c-.46.32-1,1.23-.3,1.62S7.54,16,7.54,15.35C7.54,15,6.8,14.8,6.39,15.09Z"/><path class="cls-52" d="M6.38,15.2c-.38.27-.81,1-.25,1.36s1.23-.63,1.23-1.15C7.36,15.12,6.74,15,6.38,15.2Z"/><path class="cls-53" d="M7.83,13.72c-.38.2-.82.43-.61.77s.94.24,1.33.11.94-.62.67-.92S8.19,13.53,7.83,13.72Z"/><path class="cls-54" d="M7.91,13.79c-.3.16-.65.34-.49.61s.75.19,1.06.09.75-.49.54-.73S8.19,13.64,7.91,13.79Z"/><path class="cls-55" d="M10.31,12.46c-.49.08-1.31.37-1.11.69s.73.32.89.28a2.74,2.74,0,0,0,1.28-.65C11.52,12.5,10.71,12.4,10.31,12.46Z"/><path class="cls-56" d="M10.3,12.6c-.38.06-1,.28-.86.54s.57.24.69.21a2.12,2.12,0,0,0,1-.51C11.25,12.63,10.62,12.55,10.3,12.6Z"/><path class="cls-57" d="M13.76,13.09c-.37-.18-.83-.27-1-.14s.25.26.63.48.94.69,1.13.6S14.32,13.38,13.76,13.09Z"/><path class="cls-58" d="M13.74,13.16c-.28-.14-.62-.2-.72-.1s.19.19.48.36.7.52.85.45S14.17,13.38,13.74,13.16Z"/><path class="cls-59" d="M8.42,18.55c-.33-.2-1.24-.69-1.75-.43a.42.42,0,0,0-.11.57,2,2,0,0,0,1.82.65.52.52,0,0,0,.29-.18C8.84,18.93,8.6,18.66,8.42,18.55Z"/><path class="cls-60" d="M8.29,18.58c-.28-.17-1-.58-1.47-.36a.34.34,0,0,0-.09.48,1.68,1.68,0,0,0,1.53.54.38.38,0,0,0,.24-.15C8.65,18.9,8.44,18.67,8.29,18.58Z"/><path class="cls-61" d="M6.12,17.49C5.91,17.32,5.35,16.9,5,17a.27.27,0,0,0-.13.37A1.37,1.37,0,0,0,6,18a.5.5,0,0,0,.21-.09C6.37,17.79,6.23,17.58,6.12,17.49Z"/><path class="cls-62" d="M6,17.49c-.17-.14-.66-.51-1-.4a.25.25,0,0,0-.11.33A1.21,1.21,0,0,0,6,18a.33.33,0,0,0,.18-.08C6.25,17.75,6.13,17.57,6,17.49Z"/><polygon class="cls-63" points="11.95 12.31 11.95 12.31 11.95 12.3 11.95 12.31"/><path class="cls-64" d="M12,12.32c-.2-.1-.49-.15-.54-.07s.15.13.38.23.41.24.51.2S12.27,12.44,12,12.32Z"/><path class="cls-65" d="M12,12.35c-.13-.06-.33-.1-.37,0s.11.08.26.16.28.16.35.13S12.17,12.44,12,12.35Z"/><path class="cls-66" d="M12.29,13.27c-.33,0-1,.22-1.11.52s.7.34,1.43.75,1.15,1,1.6,1.05.57-.52.34-.82A4.88,4.88,0,0,0,12.29,13.27Z"/><path class="cls-67" d="M12.37,13.38c-.28-.05-.88.18-.95.44s.6.3,1.23.65,1,.83,1.38.91.49-.45.3-.71A4.34,4.34,0,0,0,12.37,13.38Z"/><path class="cls-68" d="M15.35,14.82h0a2.57,2.57,0,0,0-2.53-2.09h-.13a1.32,1.32,0,0,0-1.19-.63.66.66,0,0,0-.53.17l-.31,0a2.64,2.64,0,0,0-2.22,1.13,2,2,0,0,0-1.9,1.42,1.62,1.62,0,0,0-1.15,1.67h0a.4.4,0,0,0-.29.12.58.58,0,0,0-.14.44,4.94,4.94,0,0,0,2,3.8,5.75,5.75,0,0,0,3.32,1.05h.24a8.55,8.55,0,0,0,4.43-4.16,5.78,5.78,0,0,0,.47-2.82S15.35,14.84,15.35,14.82Zm-4.9,7h-.23A5,5,0,0,1,5,17a.57.57,0,0,1,.12-.42.38.38,0,0,1,.27-.1h.08v0a1.57,1.57,0,0,1,1.13-1.66h0a2,2,0,0,1,1.89-1.39h0a2.56,2.56,0,0,1,2.19-1.12l.32,0h0c0-.1.24-.16.5-.16a1.27,1.27,0,0,1,1.16.61v0h.15a2.55,2.55,0,0,1,2.5,2.05v.08C15.45,16.56,15,19.67,10.45,21.85Z"/><path class="cls-68" d="M12.54,14.78a6.36,6.36,0,0,0-2.27-.87,2.59,2.59,0,0,0-1.82-.52v0a2.54,2.54,0,0,1,1.79.51h0a6.12,6.12,0,0,1,2.09.77,5.07,5.07,0,0,1,2.54,2.92h0A5,5,0,0,0,12.54,14.78Z"/><path class="cls-68" d="M11.3,16.15a7.5,7.5,0,0,0-2.63-1,2.89,2.89,0,0,0-2.12-.37v0a2.81,2.81,0,0,1,2.1.36h0a7.22,7.22,0,0,1,2.61,1,5.3,5.3,0,0,1,2.58,3.14h0A5.37,5.37,0,0,0,11.3,16.15Z"/><path class="cls-68" d="M6.82,17.35h0a1.59,1.59,0,0,1-1.38-.84h0a1.64,1.64,0,0,0,1.39.87h0a13.48,13.48,0,0,0,6.45,2.15l.47,0v0C10.73,19.69,7.33,17.72,6.82,17.35Z"/><path class="cls-68" d="M12.29,13.06a2.07,2.07,0,0,0-2,.85,1.87,1.87,0,0,0-1.6,1.26A2.81,2.81,0,0,0,6.8,17.35,3.71,3.71,0,0,0,6,20H6a3.77,3.77,0,0,1,.8-2.59h0a2.76,2.76,0,0,1,1.84-2.15h0a1.82,1.82,0,0,1,1.57-1.25h0a2,2,0,0,1,2-.84h0a.58.58,0,0,1,.36-.32v0A.56.56,0,0,0,12.29,13.06Z"/><path class="cls-68" d="M12.32,13.07c-.24-.67-1.33-.79-1.34-.79v0s1.08.11,1.31.77h0c.63.14,2.75,1.36,3.06,2.56h0C15.08,14.45,13,13.21,12.32,13.07Z"/><path d="M14.41,10.64a1.68,1.68,0,0,1,.09.53h0a1.23,1.23,0,0,0-.09-.54Z"/><path class="cls-69" d="M5.74,19.78a4.51,4.51,0,0,0-3.83,3.6c-.52.22-1.42.6-.72,2.14a2.84,2.84,0,0,0,2.43.89,3.32,3.32,0,0,0,2.28,0c1-.36.71-3,.62-3.79.23.36,2.08.94,4-1.15A4.85,4.85,0,0,0,5.74,19.78Z"/><path class="cls-70" d="M4,22.08a2.26,2.26,0,0,1-1.18-.72,4,4,0,0,0-.94,2,1.25,1.25,0,0,0-.86,1.8,2.78,2.78,0,0,0,2.49,1.08A2.75,2.75,0,0,0,5.13,26c.68-.26,1.13-2.43,1.08-4.6A2.38,2.38,0,0,1,4,22.08Z"/><path class="cls-71" d="M4.31,24.71A2.61,2.61,0,0,0,1.88,23.4a1.24,1.24,0,0,0-.83,1.78c.36.74,1.58,1,2.53.95A1,1,0,0,0,4.31,24.71Z"/><path class="cls-72" d="M3.44,23.8c-1-.52-1.9-.52-2.39.31-.19.33.33.83.62.4A1.64,1.64,0,0,1,3.44,23.8Z"/><path class="cls-73" d="M5.31,23.9A2.85,2.85,0,0,0,5.2,22a2.2,2.2,0,0,1-1.17,0,2.26,2.26,0,0,1-1.18-.72,4,4,0,0,0-.94,2l0,0A2.6,2.6,0,0,1,4.3,24.7C4.73,24.51,5.17,24.36,5.31,23.9Z"/><path class="cls-74" d="M3.53,22c-.51-.15-.63-.47-.74-.4A3.15,3.15,0,0,0,2,23.21c0,.14.34,0,.83.25S4,22,3.53,22Z"/><path class="cls-75" d="M6.26,19.69a6.53,6.53,0,0,0,0,1.7c.87,1.74,3.43.76,4.2,0A4.83,4.83,0,0,0,6.26,19.69Z"/><path class="cls-76" d="M6.5,19.77c-.41.12,0,1.29.07,1.42.87,1.75,4,.51,3.54,0A3.91,3.91,0,0,0,6.5,19.77Z"/><path class="cls-77" d="M9.87,21.24c-.13.35-1.24.38-2,.12s-1.45-1-1.35-1.34.84-.39,1.86,0S10,20.9,9.87,21.24Z"/><path class="cls-78" d="M6.27,22.68a.46.46,0,1,0,.13.9.6.6,0,0,0,.19-.06c0-.33,0-.62-.07-.81A.52.52,0,0,0,6.27,22.68Z"/><path class="cls-79" d="M5.83,23.21a.46.46,0,0,0,.27.34c.05-.29.06-.52.09-.85A.47.47,0,0,0,5.83,23.21Z"/><path class="cls-7" d="M6.84,19.63a4.65,4.65,0,0,0-1.1.13,4.57,4.57,0,0,0-3.85,3.61,1.51,1.51,0,0,0-.9.74,1.89,1.89,0,0,0,.18,1.42,2.78,2.78,0,0,0,2.34.89h.11a2.72,2.72,0,0,0,1.2.23,3.06,3.06,0,0,0,1.08-.18c.88-.33.78-2.46.64-3.75A1.64,1.64,0,0,0,7.62,23h0a4.1,4.1,0,0,0,3-1.52h0A5,5,0,0,0,6.84,19.63ZM7.62,23h0a1.46,1.46,0,0,1-1.09-.34l0-.07v.08c.14,1.26.26,3.44-.61,3.76a3,3,0,0,1-1.07.18,2.82,2.82,0,0,1-1.19-.22H3.51a2.75,2.75,0,0,1-2.31-.87A1.85,1.85,0,0,1,1,24.13a1.45,1.45,0,0,1,.89-.73h0A4.51,4.51,0,0,1,5.75,19.8a4.53,4.53,0,0,1,1.09-.14,5,5,0,0,1,3.69,1.85A4,4,0,0,1,7.62,23Z"/><path class="cls-80" d="M.8,24.29a1.07,1.07,0,0,0-.78.82,2,2,0,0,0,1.23,0C1.53,24.82,1.15,24.23.8,24.29Z"/><path class="cls-81" d="M.8,24.29a1,1,0,0,0-.77.8c.19.08.82,0,1-.22S1.08,24.29.8,24.29Z"/><path class="cls-82" d="M.79,24.34c-.44,0-.69.6-.71.73a.86.86,0,0,0,.84-.25C1,24.65,1.07,24.34.79,24.34Z"/><path class="cls-83" d="M.85,24.26h0a1.1,1.1,0,0,0-.8.83v0H0a.86.86,0,0,0,.47.1,2.1,2.1,0,0,0,.79-.13.37.37,0,0,0,.06-.43A.58.58,0,0,0,.85,24.26Zm.39.79a1.85,1.85,0,0,1-.76.12.88.88,0,0,1-.43-.07,1,1,0,0,1,.75-.79h0a.54.54,0,0,1,.44.37A.32.32,0,0,1,1.24,25.05Z"/><path class="cls-84" d="M1.38,25.21a1.32,1.32,0,0,0-.53,1.3,2.35,2.35,0,0,0,1.4-.6C2.46,25.5,1.75,25,1.38,25.21Z"/><path class="cls-85" d="M1.37,25.22a1.32,1.32,0,0,0-.53,1.27c.26,0,1-.34,1-.69S1.7,25.09,1.37,25.22Z"/><path class="cls-86" d="M1.38,25.27c-.48.24-.52,1-.48,1.17a1.09,1.09,0,0,0,.86-.66C1.8,25.52,1.71,25.15,1.38,25.27Z"/><path class="cls-83" d="M1.43,25.16l-.07,0a1.37,1.37,0,0,0-.54,1.33h0a1.1,1.1,0,0,0,.59-.11,2.38,2.38,0,0,0,.85-.5.47.47,0,0,0-.12-.53A.72.72,0,0,0,1.43,25.16Zm.8.74a2.45,2.45,0,0,1-.83.48,1.15,1.15,0,0,1-.53.11,1.27,1.27,0,0,1,.52-1.25l.06,0a.66.66,0,0,1,.67.23A.4.4,0,0,1,2.23,25.9Z"/><path class="cls-87" d="M2.83,25.78a1.28,1.28,0,0,0-.37,1.3,2.36,2.36,0,0,0,1.29-.72C3.91,25.94,3.17,25.51,2.83,25.78Z"/><path class="cls-88" d="M2.83,25.78a1.25,1.25,0,0,0-.37,1.28c.25,0,.89-.43.91-.77S3.13,25.62,2.83,25.78Z"/><path class="cls-89" d="M2.85,25.83A1.21,1.21,0,0,0,2.5,27c.25,0,.74-.39.76-.72S3.15,25.68,2.85,25.83Z"/><path class="cls-83" d="M2.87,25.72l-.05,0a1.29,1.29,0,0,0-.38,1.34h0A1.16,1.16,0,0,0,3,26.94a2.19,2.19,0,0,0,.76-.58.42.42,0,0,0-.16-.49A.73.73,0,0,0,2.87,25.72Zm.85.63A2.44,2.44,0,0,1,3,26.9a1.07,1.07,0,0,1-.5.16,1.24,1.24,0,0,1,.37-1.26.1.1,0,0,1,0,0,.67.67,0,0,1,.67.15A.39.39,0,0,1,3.72,26.35Z"/><path class="cls-7" d="M1.91,23.37v0a1.37,1.37,0,0,1,.59.06A.84.84,0,0,0,1.91,23.37Z"/><path class="cls-90" d="M6.52,22.71l.05,0-.05-.07Z"/><path class="cls-79" d="M5.12,22.58c-.15.11-.21.28-.13.39s.26.11.41,0a.29.29,0,0,0,.13-.39C5.46,22.47,5.27,22.47,5.12,22.58Z"/><path class="cls-79" d="M5.23,23.44a.43.43,0,0,0,0,.39c.08.11.25.08.36,0a.25.25,0,0,0,.07-.35C5.57,23.37,5.3,23.38,5.23,23.44Z"/><path class="cls-78" d="M6.15,24c-.12,0-.5.17-.52.27a.48.48,0,0,0,.26.49.5.5,0,0,0,.41-.3C6.32,24.34,6.31,24,6.15,24Z"/><path class="cls-79" d="M5.63,24.25a.47.47,0,0,0,.24.48A7.36,7.36,0,0,0,6,24C5.88,24,5.65,24.17,5.63,24.25Z"/><path class="cls-79" d="M4.49,23.66c-.13,0-.37.22-.32.34s.4,0,.42,0S4.57,23.68,4.49,23.66Z"/><path class="cls-91" d="M15.51,14.81a9.94,9.94,0,0,1-.76,2.58c-.73.25-1.05,1.51-1,2a2.67,2.67,0,0,0-1.9,1.34A2.69,2.69,0,0,0,10,21.87a2.3,2.3,0,0,0-1.33.69c-1.46.6-1.94.18-2.12.1.48,1,1.82.5,2.16.31a2.21,2.21,0,0,0,1.77-.71A2.4,2.4,0,0,0,12,21.16a2.39,2.39,0,0,0,2.24-1.53,2.12,2.12,0,0,0,1.17-2,2.23,2.23,0,0,0,.68-1.88,4.36,4.36,0,0,0,.37-1A1.89,1.89,0,0,1,15.51,14.81Z"/><path class="cls-92" d="M16.81,11.17a.85.85,0,0,0-.59-.87,1.62,1.62,0,0,0-1.79.34,1.16,1.16,0,0,0-1.55.87.86.86,0,0,0-1,.68,1.52,1.52,0,0,1,.4.16,1.4,1.4,0,0,1,.34.35,1.35,1.35,0,0,0,.74-.68,2,2,0,0,1,1.13-.85,1.3,1.3,0,0,1,1.59.28,2.3,2.3,0,0,0,0,1.19c-.67.36-.71,1.57-.62,2.06v.11a1.89,1.89,0,0,0,1,0,16.78,16.78,0,0,0,.32-1.69A1.48,1.48,0,0,0,16.81,11.17Z"/><path class="cls-93" d="M13.39,10.75a1.29,1.29,0,0,0-.51.76.86.86,0,0,0-1,.68,1.52,1.52,0,0,1,.4.16h0c.57.12.87-.62.87-.62a.78.78,0,0,0,.23-1Z"/><path class="cls-94" d="M12.81,12.21c-.23.21-.83.16-.87,0s.08-.38.31-.6a.62.62,0,0,1,.75-.07C13.16,11.77,13,12,12.81,12.21Z"/><path class="cls-95" d="M13.38,10.76a1.34,1.34,0,0,0-.48.69c0,.11.25.25.34.19A.69.69,0,0,0,13.38,10.76Z"/><path class="cls-96" d="M16.22,14.83a8.77,8.77,0,0,0,.34-2.14,1.13,1.13,0,0,0,0-1.53.67.67,0,0,0-.48-.72,1.5,1.5,0,0,0-1.68.19,3.43,3.43,0,0,1,.19.48,1.31,1.31,0,0,1,1.48.34,2.3,2.3,0,0,0,0,1.19c-.67.36-.71,1.57-.62,2.06v.11A2.12,2.12,0,0,0,16.22,14.83Z"/><path class="cls-97" d="M16.65,11.23c-.16-.18-.52.12-.57.33a2.25,2.25,0,0,0,0,1c.06.22.55.13.66-.16A1.44,1.44,0,0,0,16.65,11.23Z"/><path class="cls-98" d="M16.48,12.74a.45.45,0,0,0-.44,0,1.74,1.74,0,0,0-.55,1.52c0,.76.89-.44.9-.67S16.54,12.77,16.48,12.74Z"/><path class="cls-99" d="M15.51,14.81a9.94,9.94,0,0,1-.76,2.58c-.73.25-1.05,1.51-1,2a2.67,2.67,0,0,0-1.9,1.34A2.69,2.69,0,0,0,10,21.87a2.3,2.3,0,0,0-1.33.69c-1.46.6-1.94.18-2.12.1.6.82,1.74.37,2.09.18a1.73,1.73,0,0,0,1.55-.64A3,3,0,0,0,11.91,21,2.24,2.24,0,0,0,14,19.53a1.9,1.9,0,0,0,1.11-1.91,1.92,1.92,0,0,0,.79-1.9,4.59,4.59,0,0,0,.35-.89A2.12,2.12,0,0,1,15.51,14.81Z"/><path class="cls-100" d="M6.52,22.66c.55.75,1.55.44,2,.24.14-.08.12-.33,0-.27C7.14,23.13,6.69,22.73,6.52,22.66Z"/><path class="cls-101" d="M10,22.33c.1-.12-.1-.47-.27-.44a2.65,2.65,0,0,0-1,.53c-.18.15-.15.41,0,.43A1.76,1.76,0,0,0,10,22.33Z"/><path class="cls-102" d="M11.59,20.7a3.22,3.22,0,0,0-1.55,1c-.14.2.1.45.27.42a3.45,3.45,0,0,0,1.49-1C11.9,21,11.8,20.69,11.59,20.7Z"/><path class="cls-103" d="M13.94,19.64c.05-.11-.25-.3-.45-.26a2.8,2.8,0,0,0-1.58,1.16.26.26,0,0,0,.17.43A2.3,2.3,0,0,0,13.94,19.64Z"/><path class="cls-104" d="M14.56,17.49a2.4,2.4,0,0,0-.83,1.63c0,.29.23.41.36.35a1.94,1.94,0,0,0,1-1.65A.41.41,0,0,0,14.56,17.49Z"/><path class="cls-105" d="M15.9,16c0-.2-.5-.34-.59-.15a12.38,12.38,0,0,1-.51,1.47c-.07.17.31.27.47.19A2,2,0,0,0,15.9,16Z"/><path class="cls-106" d="M16.83,11.16a.87.87,0,0,0-.61-.88,2.06,2.06,0,0,0-.67-.12,1.64,1.64,0,0,0-1.13.46,1.12,1.12,0,0,0-.43-.08,1.21,1.21,0,0,0-1.12,1h-.16a.92.92,0,0,0-.82.7v0h0a1.42,1.42,0,0,1,.4.17,1.33,1.33,0,0,1,.33.34h0a1.34,1.34,0,0,0,.76-.69,2,2,0,0,1,1.11-.84h0a1,1,0,0,1,.59-.17,1.44,1.44,0,0,1,1,.43,2.41,2.41,0,0,0,0,1.19c-.68.37-.71,1.57-.62,2.06a9.23,9.23,0,0,1-.75,2.68c-.72.25-1.05,1.48-1,2a2.68,2.68,0,0,0-1.89,1.33h-.07A2.8,2.8,0,0,0,10,21.85a2.39,2.39,0,0,0-1.33.69,3.54,3.54,0,0,1-1.32.32,1.31,1.31,0,0,1-.71-.18l-.08,0,0,0a1.09,1.09,0,0,0,1.07.6A2.49,2.49,0,0,0,8.68,23h.19a2.38,2.38,0,0,0,1.59-.72A2.43,2.43,0,0,0,12,21.17a2.42,2.42,0,0,0,2.24-1.53,2.15,2.15,0,0,0,1.18-2,2.19,2.19,0,0,0,.67-1.89,6.92,6.92,0,0,0,.64-2.29c0-.14,0-.26.06-.34A1.53,1.53,0,0,0,16.83,11.16Zm-.06,1.91h0c0,.08,0,.2-.05.34a7.17,7.17,0,0,1-.64,2.29h0a2.22,2.22,0,0,1-.67,1.87h0a2.08,2.08,0,0,1-1.16,2h0A2.4,2.4,0,0,1,12,21.14h0a2.39,2.39,0,0,1-1.53,1.09h0A2.32,2.32,0,0,1,8.87,23h-.2a2.57,2.57,0,0,1-1.1.28,1.06,1.06,0,0,1-1-.54l0,0a1.5,1.5,0,0,0,.73.18,3.48,3.48,0,0,0,1.34-.33h0a2.26,2.26,0,0,1,1.3-.68h0v0a2.81,2.81,0,0,1,1.75-1.17h.1a2.64,2.64,0,0,1,1.87-1.33h0v0c0-.45.3-1.69,1-1.94h0a8.81,8.81,0,0,0,.76-2.7c-.1-.55,0-1.7.62-2h0a2.26,2.26,0,0,1,0-1.18h0a1.46,1.46,0,0,0-1-.46,1.22,1.22,0,0,0-.61.17,1.94,1.94,0,0,0-1.13.87,1.3,1.3,0,0,1-.73.66,1.15,1.15,0,0,0-.33-.34,1.63,1.63,0,0,0-.39-.17.89.89,0,0,1,.78-.66l.17,0h0v0A1.17,1.17,0,0,1,14,10.57a1.35,1.35,0,0,1,.43.08h0a1.64,1.64,0,0,1,1.11-.46,2,2,0,0,1,.66.12.83.83,0,0,1,.58.85v0h0A1.49,1.49,0,0,1,16.77,13.07Z"/><path class="cls-7" d="M6.4,22c.07.35.1.66.1.66l0,.07a6.52,6.52,0,0,0-.25-1.25S6.36,21.85,6.4,22Z"/><path class="cls-106" d="M12.89,11.49v0a.94.94,0,0,1,.47.54h0A1,1,0,0,0,12.89,11.49Z"/><path class="cls-107" d="M13.42,9c.7,2.19-.26,3.22-.82,3.61l.08.13a2.52,2.52,0,0,1,2.55,1.72A8.33,8.33,0,0,0,14.92,9Z"/><path class="cls-108" d="M13.66,10.83a2.67,2.67,0,0,1-1.05,1.79,1.48,1.48,0,0,0,1.75-1.13,2.18,2.18,0,0,1-.69,1.19c.86.44,1.14-.6,1.2-1.33a3.15,3.15,0,0,1-.38,1.84c.16.16.3.19.41.38a4.72,4.72,0,0,0,0-3.19A1.91,1.91,0,0,1,13.66,10.83Z"/><path class="cls-109" d="M13.66,10.83a2.67,2.67,0,0,1-1.05,1.79,1.48,1.48,0,0,0,1.75-1.13,2.18,2.18,0,0,1-.69,1.19c.86.44,1.14-.6,1.2-1.33a3.15,3.15,0,0,1-.38,1.84c.16.16.3.19.41.38a4.72,4.72,0,0,0,0-3.19A1.91,1.91,0,0,1,13.66,10.83Z"/><path class="cls-7" d="M14.93,9H13.4V9c.68,2.15-.22,3.17-.82,3.59h0v0l.07.12v0h.15a2.5,2.5,0,0,1,2.39,1.71l0,.06v-.06A8.44,8.44,0,0,0,14.94,9Zm.29,5.42a2.55,2.55,0,0,0-2.4-1.69h-.13l-.06-.11a2.45,2.45,0,0,0,.87-1.12A3.69,3.69,0,0,0,13.45,9h1.46A8.35,8.35,0,0,1,15.22,14.42Z"/><path class="cls-7" d="M13,12.74v0a1.6,1.6,0,0,0,1.29-1.27,2,2,0,0,1-.4.74A1.68,1.68,0,0,1,13,12.74Z"/><path class="cls-7" d="M14.32,13.24l0,0a3,3,0,0,0,.52-1.9s-.07.67-.13.92A2.28,2.28,0,0,1,14.32,13.24Z"/><path class="cls-106" d="M16.1,11.44l0,0a.62.62,0,0,1,.67-.27v0A.68.68,0,0,0,16.1,11.44Z"/><path class="cls-106" d="M16.13,12.63v0a.81.81,0,0,1,.53.15.32.32,0,0,1,.1.27h0a.4.4,0,0,0-.11-.3A.83.83,0,0,0,16.13,12.63Z"/><path class="cls-106" d="M14.76,17.38l0,0a.73.73,0,0,0,.51.25l.17,0v0A.63.63,0,0,1,14.76,17.38Z"/><path class="cls-106" d="M13.74,19.34l0,0a.89.89,0,0,0,.53.28v0A.77.77,0,0,1,13.74,19.34Z"/><path class="cls-106" d="M11.8,20.69a.81.81,0,0,0,.18.48l0,0a.71.71,0,0,1-.17-.45Z"/><path class="cls-106" d="M10,21.87h0s0,.38.5.41v0C10,22.22,10,21.88,10,21.87Z"/><path class="cls-106" d="M8.66,22.57l0,0a.41.41,0,0,0,0,.43l0,0A.38.38,0,0,1,8.66,22.57Z"/><path class="cls-110" d="M17,8.84a7.4,7.4,0,0,0,.77,3.61c-.62.34-2.6,1.31-2.58,2.5a.89.89,0,0,0,1.08.91A4.59,4.59,0,0,0,20,13.06a5.32,5.32,0,0,0-.65-4.88Z"/><path class="cls-111" d="M17,9.79a6,6,0,0,0,.74,2.66c-.62.34-2.6,1.31-2.58,2.5,0,0,0,.08,0,.12a.82.82,0,0,0,1,.42A5.5,5.5,0,0,0,19,13.67c1.1-1.29.78-3,0-4.35A2.89,2.89,0,0,1,17,9.79Z"/><path class="cls-112" d="M17.84,12.52c-.6.22-2.68,1.26-2.66,2.43,0,0,0,.08,0,.12.18.39.59.36,1,.24a4.68,4.68,0,0,0,2.54-1.67C19.19,12.93,18.71,12.28,17.84,12.52Z"/><path class="cls-113" d="M18.55,12.85c.19.31-.33,1-1.18,1.52s-1.69.71-1.88.4.27-1,1.11-1.57S18.36,12.54,18.55,12.85Z"/><path class="cls-114" d="M18.92,9.43a3.49,3.49,0,0,1-1.9.36,6,6,0,0,0,.74,2.66l0,0c.48-.09,1.29,0,1.42-.31A2.54,2.54,0,0,0,18.92,9.43Z"/><path class="cls-115" d="M17.49,10c.36-.09,1.15-.11,1.34,1,.16.93-.24,1.33-.6,1.42s-.69-.38-.86-1S17.14,10,17.49,10Z"/><path class="cls-116" d="M19.74,10.56a.7.7,0,0,0,.59.71,5.54,5.54,0,0,0-.17-1.38A.72.72,0,0,0,19.74,10.56Z"/><path class="cls-117" d="M19,9.85a.44.44,0,0,0-.18.31c0,.1.27.06.37,0a.17.17,0,0,0,.1-.25A.25.25,0,0,0,19,9.85Z"/><path class="cls-117" d="M19.1,10.76a.45.45,0,0,0-.1.36c0,.09.31,0,.38,0a.29.29,0,0,0,.07-.37A.47.47,0,0,0,19.1,10.76Z"/><path class="cls-116" d="M19.71,11.3c-.12-.06-.35.07-.44.17a.3.3,0,0,0,.1.47.4.4,0,0,0,.45-.17C19.87,11.68,19.87,11.38,19.71,11.3Z"/><path class="cls-117" d="M19.27,11.47a.3.3,0,0,0,.1.47.45.45,0,0,0,.36-.06,2.82,2.82,0,0,0,0-.58C19.57,11.24,19.36,11.37,19.27,11.47Z"/><path class="cls-118" d="M15.2,15.08h0S15.19,15.12,15.2,15.08Z"/><path class="cls-7" d="M19.37,8.16,17,8.82h0a7.45,7.45,0,0,0,.76,3.62l-.11.05c-.74.4-2.49,1.32-2.47,2.45a.9.9,0,0,0,.93.93h.17a4.85,4.85,0,0,0,1.92-.64A4.59,4.59,0,0,0,20,13.07a5.32,5.32,0,0,0-.65-4.9ZM20,13.05a4.62,4.62,0,0,1-3.73,2.79h-.17a.86.86,0,0,1-.89-.9c0-1.11,1.71-2,2.45-2.42l.12-.06h0A7.43,7.43,0,0,1,17,8.85l2.34-.65A5.27,5.27,0,0,1,20,13.05Z"/><path class="cls-7" d="M17.76,12.44v0a2.94,2.94,0,0,1,.6-.07A1.33,1.33,0,0,0,17.76,12.44Z"/><path class="cls-36" d="M3.56,14c-.07,0-.29.15-.29.29a.25.25,0,0,0,.22.26.24.24,0,0,0,.24-.24C3.73,14.15,3.64,14,3.56,14Z"/><path class="cls-119" d="M5,13.78a.59.59,0,0,0-.37.32c0,.17.24.26.33.26a.55.55,0,0,0,.33-.26C5.29,14,5.13,13.79,5,13.78Z"/><path class="cls-120" d="M5.39,13.76c-1.19-.66-2.29-.41-2.77.58-.16.34.65.77.9.12A1.65,1.65,0,0,1,5.39,13.76Z"/><path class="cls-121" d="M1.85,16.68c.17.19.87-.05.86-.44s-.85-1.09-1-1A1.79,1.79,0,0,0,1.85,16.68Z"/><path class="cls-122" d="M1.85,16.68c.17.19.56,0,.55-.35a1.59,1.59,0,0,0-.7-1.09A1.75,1.75,0,0,0,1.85,16.68Z"/><path class="cls-123" d="M1.86,16.62a.3.3,0,0,0,.5-.27,1.52,1.52,0,0,0-.62-1A1.67,1.67,0,0,0,1.86,16.62Z"/><path class="cls-83" d="M1.62,15.4a1.83,1.83,0,0,0,.21,1.3.4.4,0,0,0,.4.05.66.66,0,0,0,.5-.44h0a.17.17,0,0,0,0-.07c0-.38-.45-.79-.76-1-.1,0-.22-.11-.29-.07S1.65,15.24,1.62,15.4ZM2,15.33c.29.16.72.56.73.91v.06h0c0,.2-.27.34-.47.4a.37.37,0,0,1-.34,0,1.84,1.84,0,0,1-.2-1.25.37.37,0,0,1,.05-.15S1.82,15.26,2,15.33Z"/><path class="cls-124" d="M3.48,16.44c0,.25.71.51.95.19a1.36,1.36,0,0,0-.16-1.41A1.81,1.81,0,0,0,3.48,16.44Z"/><path class="cls-125" d="M3.48,16.44c0,.25.41.38.65.07a1.68,1.68,0,0,0,.14-1.29A1.74,1.74,0,0,0,3.48,16.44Z"/><path class="cls-126" d="M3.53,16.39a.29.29,0,0,0,.55.11,1.54,1.54,0,0,0,.17-1.19A1.61,1.61,0,0,0,3.53,16.39Z"/><path class="cls-83" d="M4.1,15.3a1.87,1.87,0,0,0-.65,1.14c0,.1.11.21.28.29a.67.67,0,0,0,.67,0h0s0,0,0-.05a1.45,1.45,0,0,0,0-1.22c0-.1-.11-.22-.18-.23S4.23,15.19,4.1,15.3Zm.31.15a1.38,1.38,0,0,1,0,1.16.1.1,0,0,1,0,.05h0a.63.63,0,0,1-.61,0c-.14-.07-.24-.16-.24-.24a1.73,1.73,0,0,1,.63-1.1.38.38,0,0,1,.13-.09S4.35,15.31,4.41,15.45Z"/><path class="cls-127" d="M1.53,18.33c.25.06.66-.56.41-.87a1.38,1.38,0,0,0-1.41-.18A1.79,1.79,0,0,0,1.53,18.33Z"/><path class="cls-128" d="M1.53,18.33c.25.06.47-.3.22-.61a1.69,1.69,0,0,0-1.22-.44A1.72,1.72,0,0,0,1.53,18.33Z"/><path class="cls-129" d="M1.5,18.28a.29.29,0,0,0,.23-.51,1.54,1.54,0,0,0-1.12-.45A1.64,1.64,0,0,0,1.5,18.28Z"/><path class="cls-83" d="M.57,17.47a1.8,1.8,0,0,0,1,.89.39.39,0,0,0,.35-.2A.66.66,0,0,0,2,17.51H2a.16.16,0,0,0,0-.07,1.47,1.47,0,0,0-1.19-.29c-.1,0-.23.05-.26.12S.49,17.32.57,17.47Zm.21-.26a1.43,1.43,0,0,1,1.14.27l0,.05H2a.64.64,0,0,1-.12.6.41.41,0,0,1-.29.18,1.78,1.78,0,0,1-.92-.87.52.52,0,0,1-.06-.15S.63,17.23.78,17.21Z"/><path class="cls-130" d="M4.61,16.39c-.74-.57-2.16-.9-2.85.17-1.26,2,.17,3,.17,3-.26.51,1.22,3,3.29,2.3C6.38,21.39,6.64,18,4.61,16.39Z"/><path class="cls-131" d="M4.61,16.39c-.74-.58-2.17-.88-2.85.17a2,2,0,0,0,.57,3.05,2.17,2.17,0,0,0,.08.44,2,2,0,0,0,2.52,1.19C6.07,20.74,6.29,17.74,4.61,16.39Z"/><path class="cls-132" d="M4.35,19a1.54,1.54,0,0,0,.91-1.11,1.87,1.87,0,0,0-.59-1.41l-.06-.06c-.74-.58-2.17-.88-2.85.17a1.86,1.86,0,0,0,.3,2.76A3.14,3.14,0,0,0,4.35,19Z"/><path class="cls-133" d="M4.85,16.81a2.35,2.35,0,0,0-2.21-.31,2.57,2.57,0,0,0-1.27,1.73,2.27,2.27,0,0,1,1-2.17A2.2,2.2,0,0,1,4.85,16.81Z"/><path class="cls-7" d="M4.62,16.38a2.64,2.64,0,0,0-1.53-.54,1.5,1.5,0,0,0-1.34.71,2.36,2.36,0,0,0-.39,2.24,1.67,1.67,0,0,0,.55.73,1.36,1.36,0,0,0,.28,1A2.82,2.82,0,0,0,4.46,22h0a2.27,2.27,0,0,0,.76-.14,1.73,1.73,0,0,0,.86-1.44A4.35,4.35,0,0,0,4.62,16.38Zm1.43,4a1.74,1.74,0,0,1-.84,1.42,2.19,2.19,0,0,1-.75.13h0A2.81,2.81,0,0,1,2.22,20.5a1.34,1.34,0,0,1-.28-1v0h0a1.73,1.73,0,0,1-.55-.73,2.34,2.34,0,0,1,.39-2.2,1.48,1.48,0,0,1,1.31-.69,2.57,2.57,0,0,1,1.51.53A4.29,4.29,0,0,1,6.05,20.38Z"/><path class="cls-7" d="M1.93,19.5v0a4.44,4.44,0,0,0,.79.09,1.34,1.34,0,0,0,.77-.19,1.73,1.73,0,0,1-.7.15A3.31,3.31,0,0,1,1.93,19.5Z"/><path class="cls-7" d="M3.06,17.5a2.85,2.85,0,0,1,.25.65c0,.17.11.56.11.56A3,3,0,0,0,2.81,17S2.92,17.22,3.06,17.5Z"/><path class="cls-7" d="M4,19.42l.23-.18A1.32,1.32,0,0,1,4.88,19l.38,0A1.29,1.29,0,0,0,4,19.42Z"/><path class="cls-7" d="M3.08,20.69s.1-.14.24-.31a1.31,1.31,0,0,1,.85-.45c.17,0,.57,0,.57,0A1.38,1.38,0,0,0,3.08,20.69Z"/><path class="cls-134" d="M16,1.28A3.42,3.42,0,0,0,11.74.47C10.88.36,9.85,0,9.87,2.28c-.27.56-.64,1.48-.72,1.54s-1.35.1-.73,1.5A21.19,21.19,0,0,0,10.3,9.06c.53.66.61,1.27,1.13,1.68a1.69,1.69,0,0,0,1.86,0,6.64,6.64,0,0,1,2.1-.45,5.11,5.11,0,0,0,3-.82,2.79,2.79,0,0,0,.83-3.85A4.09,4.09,0,0,0,16,1.28Z"/><path class="cls-135" d="M17.1,2a1.81,1.81,0,0,1,0,.5,4.4,4.4,0,0,0-.28-.82A6.14,6.14,0,0,0,16,1.28,3.42,3.42,0,0,0,11.74.47C10.88.36,9.85,0,9.87,2.28c-.27.56-.64,1.48-.72,1.54s-1.35.1-.73,1.5a16.07,16.07,0,0,0,1.9,3.73c.25.22.67,1.44,1.2,1.73,1.48.78,2-.46,2.55-.6,0,0-.08.19-.05.18.65-.22,2.92-.5,3.85-1.36a3.11,3.11,0,0,0,.65-3.91A3,3,0,0,0,17.1,2Z"/><path class="cls-136" d="M15.53,7.39c-1.34.52-.72,2.59-2.36,3.43a1.5,1.5,0,0,1-1.91-.24,5.94,5.94,0,0,1-.77-1.3,7.12,7.12,0,0,0,3.56-2A4.31,4.31,0,0,0,15.53,7.39Z"/><path class="cls-137" d="M13.6,10a1.68,1.68,0,0,1-2.42.2A1.32,1.32,0,0,0,13.6,10Z"/><path class="cls-138" d="M11.75.48a1.63,1.63,0,0,0-1.47.15A2.84,2.84,0,0,0,10,3,5.2,5.2,0,0,1,11.75.48Z"/><path class="cls-139" d="M9.94,2.21A1.81,1.81,0,0,1,10.32.59c.2-.18.76-.33,1.71,0C10.78.49,10,.83,9.94,2.21Z"/><path class="cls-140" d="M8.4,5.27c-.15-.4-.22-.8-.06-1s.38-.43,1.25-.5A1,1,0,0,1,9.77,5C9.43,5.53,8.6,5.7,8.4,5.27Z"/><path class="cls-141" d="M9,4c.16.1.18.38,0,.64s-.4.41-.57.31a.5.5,0,0,1-.08-.65C8.51,4,8.8,3.91,9,4Z"/><path class="cls-142" d="M13.55.14a.34.34,0,0,0,.35.31.32.32,0,0,0,.37-.28h0A2.93,2.93,0,0,0,13.59,0,.36.36,0,0,0,13.55.14Z"/><path class="cls-142" d="M12.57.12a3.61,3.61,0,0,0-.75.31.41.41,0,0,0,0,.11c0,.12.31.22.48.18a.49.49,0,0,0,.33-.51A.47.47,0,0,0,12.57.12Z"/><path class="cls-142" d="M13.15.38c-.07,0-.36.26-.32.44s.29.18.47.12.32-.27.29-.38A.49.49,0,0,0,13.15.38Z"/><path class="cls-142" d="M12,1a.22.22,0,0,0-.21.24.23.23,0,0,0,.19.26.24.24,0,0,0,.21-.24A.22.22,0,0,0,12,1Z"/><path class="cls-142" d="M12.74,1.07c-.08,0-.38.28-.36.37s.22.19.27.2.25-.17.27-.23S12.83,1.08,12.74,1.07Z"/><path class="cls-142" d="M12.27,1.73a.81.81,0,0,0-.35.15c0,.06.06.25.09.29s.31.05.34,0S12.36,1.76,12.27,1.73Z"/><path class="cls-7" d="M19,3.86a4.18,4.18,0,0,0-3-2.59A3.94,3.94,0,0,0,13.46,0a3.21,3.21,0,0,0-1.72.45l-.19,0a2.84,2.84,0,0,0-.5-.06,1,1,0,0,0-.77.23,2.3,2.3,0,0,0-.44,1.68c-.1.22-.23.5-.34.77a7.5,7.5,0,0,1-.36.76l-.09,0a1.09,1.09,0,0,0-.74.46,1.23,1.23,0,0,0,.09,1c.14.29.27.59.39.88a14.23,14.23,0,0,0,1.5,2.87,5.7,5.7,0,0,1,.5.8,2.33,2.33,0,0,0,.63.87,1.64,1.64,0,0,0,.88.31h0a1.81,1.81,0,0,0,1-.27,6.55,6.55,0,0,1,2.08-.44,5.13,5.13,0,0,0,3-.83,3.36,3.36,0,0,0,1.21-1.74,2.44,2.44,0,0,0-.37-2.13A4.21,4.21,0,0,0,19,3.86Zm-.62,5.63a5.05,5.05,0,0,1-3,.82,6.44,6.44,0,0,0-2.11.45,1.76,1.76,0,0,1-1,.26h0a1.53,1.53,0,0,1-.85-.3,2.28,2.28,0,0,1-.62-.85,5.61,5.61,0,0,0-.51-.82A14.11,14.11,0,0,1,8.83,6.19l-.39-.87a1.17,1.17,0,0,1-.09-1,1,1,0,0,1,.71-.44l.1,0a4.07,4.07,0,0,0,.37-.77c.12-.27.24-.55.35-.78h0A2.23,2.23,0,0,1,10.31.63a.91.91,0,0,1,.74-.22,4.07,4.07,0,0,1,.49.05l.2,0h0A3.2,3.2,0,0,1,13.46,0,3.9,3.9,0,0,1,16,1.3h0A4.08,4.08,0,0,1,19.2,5.65h0A2.78,2.78,0,0,1,18.38,9.49Z"/><path class="cls-143" d="M10.85,1.54c-.59-.2-1.32.54-1.57,1.25A1.1,1.1,0,0,0,10,4.25c.57.19,1,.29,1.24-.81C11.39,2.7,11.14,1.64,10.85,1.54Z"/><path class="cls-144" d="M10.38,1.93C9.79,1.85,9.23,2.49,9,3.22c-.31,1.1.28,1.44.87,1.53a1.27,1.27,0,0,0,1.27-1.21C11.26,2.78,10.94,2,10.38,1.93Z"/><path class="cls-145" d="M10.38,1.93C9.79,1.85,9.23,2.49,9,3.22c-.31,1.1.28,1.44.87,1.53a1.27,1.27,0,0,0,1.27-1.21C11.26,2.78,10.94,2,10.38,1.93Z"/><path class="cls-146" d="M10.31,2.35a.22.22,0,0,1-.29.11.23.23,0,0,1-.11-.3.22.22,0,0,1,.3-.1A.21.21,0,0,1,10.31,2.35Z"/><path class="cls-147" d="M10.28,2.47c-.39-.09-.84.27-1,.81s0,1,.42,1.13.85-.27,1-.81S10.68,2.56,10.28,2.47Z"/><path d="M10.16,2.91c-.27-.07-.56.16-.66.51a.56.56,0,0,0,.29.75.63.63,0,0,0,.66-.52C10.55,3.3,10.42,3,10.16,2.91Z"/><path class="cls-148" d="M10.46,3.36a.22.22,0,1,1-.18-.25A.22.22,0,0,1,10.46,3.36Z"/><path class="cls-149" d="M9.9,2.61c-.24.1-.39.29-.33.43s.28.17.51.07.38-.28.33-.42S10.13,2.52,9.9,2.61Z"/><path d="M10.4,1.81c-.63-.09-1.2.71-1.4,1.41a1.29,1.29,0,0,0,.05,1.09,1.11,1.11,0,0,0,.83.45c.6.09,1.17-.4,1.3-1.29S10.94,1.89,10.4,1.81ZM9.88,4.73a1.08,1.08,0,0,1-.8-.44A1.29,1.29,0,0,1,9,3.23c.2-.69.74-1.37,1.35-1.28s.87.8.75,1.58A1.25,1.25,0,0,1,9.88,4.73Z"/><path class="cls-150" d="M15.63.49A2.25,2.25,0,0,0,13.3,1.54l3.78.94S16.81.84,15.63.49Z"/><path class="cls-151" d="M15.63.49A2.28,2.28,0,0,0,13.3,1.54c-.52.67-1.41,3-.11,3.42,1.78.63,4.23-1.29,3.89-2.48C17,2.28,16.81.83,15.63.49Z"/><path class="cls-152" d="M13.14,1.86A2.32,2.32,0,0,1,15.47.44c.61.09,1.39.74,1.61,2.16C16.11.57,14.45.45,13.14,1.86Z"/><path class="cls-7" d="M15.63.47A2.24,2.24,0,0,0,13.3,1.54l.46-.49A1.92,1.92,0,0,1,15.62.51,2.14,2.14,0,0,1,16.9,1.94l.18.54S16.82.82,15.63.47Z"/><path class="cls-153" d="M9.6,4.37A2.28,2.28,0,0,0,7.73,6.09c-.28,0-.52.36-.15,1.08.2.4.23,1.9,1.45,2.15a5.45,5.45,0,0,0,5.14-2.07L11.79,4.88l-1-3.51A10.89,10.89,0,0,0,9.6,4.37Z"/><path class="cls-154" d="M9.6,4.37A2.28,2.28,0,0,0,7.73,6.09c-.28,0-.52.36-.15,1.08.15.3.21,1.25.76,1.79a3.64,3.64,0,0,0,2.17.18,8.5,8.5,0,0,0,3.66-1.89L11.33,1.81l-.51-.44A10.89,10.89,0,0,0,9.6,4.37Z"/><path class="cls-155" d="M9.6,4.37A2.28,2.28,0,0,0,7.73,6.09c-.28,0-.52.36-.15,1.08.15.3.21,1.25.76,1.79a3.55,3.55,0,0,0,2.17.11c2.18-.48,3.24-1.75,3.37-2.38L11.33,1.81l-.51-.44A10.89,10.89,0,0,0,9.6,4.37Z"/><path class="cls-156" d="M10.48,4.37A2.71,2.71,0,0,0,8,6.36c-.06.43.77.37.94-.4A2.24,2.24,0,0,1,10.48,4.37Z"/><path class="cls-157" d="M14.87.46a3.11,3.11,0,0,0-2.64-.2C10.89.75,10,2.52,9.6,4.37c.76-.19,2.69.79,3-1.07C12.74,2.15,13.59.67,14.87.46Z"/><path class="cls-158" d="M14,.12c-2.46-.55-3.67,1.59-4.22,3.72-.14.55.81.37.94-.3C11.17,1.34,12.36.12,14,.12Z"/><path class="cls-7" d="M9,9.3c-.93-.19-1.16-1.11-1.31-1.72-.05-.17-.09-.33-.13-.42-.25-.48-.22-.81-.1-1a.21.21,0,0,1,.23-.1h0v0A2.28,2.28,0,0,1,9.6,4.39h0a9.51,9.51,0,0,1,.92-2.5c.16-.31.28-.51.28-.51a9.15,9.15,0,0,0-1.24,3,2.3,2.3,0,0,0-1.87,1.7.33.33,0,0,0-.25.12,1,1,0,0,0,.1,1,2.51,2.51,0,0,1,.13.41c.15.62.39,1.55,1.34,1.75a5.49,5.49,0,0,0,.64.08,5,5,0,0,0,1.71-.24,6.26,6.26,0,0,0,2.81-1.92l0,0A5.34,5.34,0,0,1,9,9.3Z"/><path class="cls-7" d="M14.2,7.23A4.57,4.57,0,0,1,13.74,7,2.42,2.42,0,0,0,15,7.43a3.69,3.69,0,0,0,.56,0H15A2.47,2.47,0,0,1,14.2,7.23Z"/><path class="cls-159" d="M14.63,7.37a2.84,2.84,0,0,1-.44-.12,6.1,6.1,0,0,1-3.2,2c.15.75.51,1.29,1.27,1.31s1.36-1.19,1.64-1.93a1.9,1.9,0,0,1,1.3-1.24A3.34,3.34,0,0,1,14.63,7.37Z"/><path class="cls-160" d="M14.63,7.37a2.84,2.84,0,0,1-.44-.12,7.29,7.29,0,0,1-1.5,1.29.75.75,0,0,1,.89.84c.11-.22.25-.54.32-.73a1.9,1.9,0,0,1,1.3-1.24A3.34,3.34,0,0,1,14.63,7.37Z"/><path class="cls-161" d="M11.74,10.46a1.42,1.42,0,0,1,.35-1.58,4.79,4.79,0,0,1-1.1.39A1.51,1.51,0,0,0,11.74,10.46Z"/><path class="cls-162" d="M12.55,9.35c-.75-.24-1.06.5-1.16.84a1.12,1.12,0,0,0,.87.39c.59,0,1-.63,1.35-1.26A.76.76,0,0,0,12.55,9.35Z"/><path class="cls-163" d="M12.38,9.67c-.18-.73-1,.14-.88.63a1,1,0,0,0,.76.28,1.17,1.17,0,0,0,1-1.18C13.17,9.12,12.58,9.22,12.38,9.67Z"/><path class="cls-164" d="M12.37,9.69c0-.25-.23-.33-.36-.25a.83.83,0,0,0-.45.85.74.74,0,0,0,.6.22C12.26,10.47,12.24,10,12.37,9.69Z"/><path class="cls-165" d="M13.16,9.3a.76.76,0,0,0-.85.46c-.15.32-.22.79,0,.78a1,1,0,0,0,.82-.55C13.27,9.69,13.29,9.36,13.16,9.3Z"/><path class="cls-166" d="M13.14,9.1a.79.79,0,0,0-.59.23,1.29,1.29,0,0,0-.24-.05c-.6,0-.86.63-.94.91h0a1.15,1.15,0,0,0,.85.4h0c.49,0,1-.42,1.37-1.27v0h0A.83.83,0,0,0,13.14,9.1Zm-.88,1.46h0a1.13,1.13,0,0,1-.82-.37c.08-.28.34-.89.9-.87a1.29,1.29,0,0,1,.24,0h0a.75.75,0,0,1,.56-.22.76.76,0,0,1,.46.18C13.18,10.15,12.73,10.57,12.26,10.56Z"/><path class="cls-166" d="M12.32,9.81a1.89,1.89,0,0,1,.25-.45l0,0A1.12,1.12,0,0,0,12.32,9.81Z"/><path class="cls-7" d="M15.19,7.39H15l-.36,0a3.09,3.09,0,0,1-.45-.12h0a6.09,6.09,0,0,1-3.19,2h0v0c.17.86.58,1.3,1.25,1.33h0c.6,0,1.17-.66,1.66-1.94a1.93,1.93,0,0,1,1.27-1.23h0v0ZM13.88,8.64c-.48,1.27-1,1.93-1.62,1.92S11.19,10.13,11,9.29a6.28,6.28,0,0,0,3.18-2,2.87,2.87,0,0,0,.44.12l.38,0A2.12,2.12,0,0,0,13.88,8.64Z"/><path class="cls-167" d="M7.64,6.43a.45.45,0,0,0,0,.34c0,.2.1.36.2.32s.06-.28,0-.35S7.68,6.4,7.64,6.43Z"/><path class="cls-79" d="M7.59,6.59c0,.32.11.54.21.5s0-.36,0-.37,0,.22-.07.24S7.59,6.59,7.59,6.59Z"/><path class="cls-168" d="M7.65,6.41h0a.46.46,0,0,0,0,.36c0,.17.08.34.19.35h0c.11,0,.09-.25.07-.38S7.72,6.41,7.65,6.41Zm.14.66h0c-.06,0-.13-.13-.15-.31a.52.52,0,0,1,0-.32.51.51,0,0,1,.18.29C7.85,6.88,7.86,7.05,7.79,7.07Z"/><path class="cls-167" d="M10.41,6.73c-.33-.25-.73.55-.67.63a.62.62,0,0,0,.56-.09C10.46,7.15,10.58,6.86,10.41,6.73Z"/><path class="cls-79" d="M10.41,6.73h0c.07.28-.27.6-.62.65a.62.62,0,0,0,.53-.1C10.46,7.15,10.58,6.86,10.41,6.73Z"/><path class="cls-168" d="M10.43,6.72a.27.27,0,0,0-.14,0c-.2,0-.39.23-.5.44,0,0-.1.21-.06.26a.28.28,0,0,0,.16,0,.65.65,0,0,0,.42-.12.49.49,0,0,0,.2-.39A.22.22,0,0,0,10.43,6.72Zm-.14.54a.64.64,0,0,1-.4.11c-.08,0-.13,0-.13,0a.55.55,0,0,1,.09-.27c.11-.18.27-.37.43-.36a.19.19,0,0,1,.12,0,.18.18,0,0,1,.07.15A.47.47,0,0,1,10.29,7.26Z"/><path class="cls-7" d="M9.59,4.35v0a3,3,0,0,1,.39,0A1.34,1.34,0,0,0,9.59,4.35Z"/><path class="cls-7" d="M11.26.86a5,5,0,0,1,.49-.37l0,0A1.85,1.85,0,0,0,11.26.86Z"/><path class="cls-7" d="M18.85,5.26h0Z"/><path class="cls-7" d="M18.85,5.26a3.68,3.68,0,0,1,.35.41l0,0A1.8,1.8,0,0,0,18.85,5.26Z"/><path class="cls-169" d="M18.88,6.64c-.14.08-.26.86.07.91s.46-.34.48-.53S19,6.57,18.88,6.64Z"/><path class="cls-170" d="M18.88,6.64a.85.85,0,0,0-.06.83A5.26,5.26,0,0,0,19,6.63.12.12,0,0,0,18.88,6.64Z"/><path class="cls-170" d="M17.9,7.32c-.11,0-.42.43-.38.54a1.13,1.13,0,0,0,.58.34c.14,0,.37-.39.34-.53S18.09,7.29,17.9,7.32Z"/><path class="cls-170" d="M17.35,6.94c-.06,0-.25.23-.26.38s.29.11.33.07S17.45,7,17.35,6.94Z"/><path class="cls-170" d="M17.26,8.07c-.05,0-.15.51-.05.58s.37-.11.37-.2S17.34,8,17.26,8.07Z"/><path class="cls-169" d="M17.9,8.59a.51.51,0,0,0-.22.41.31.31,0,0,0,.26.2c.09,0,.23-.24.24-.37S18,8.58,17.9,8.59Z"/><path class="cls-170" d="M17.9,8.59a.51.51,0,0,0-.22.41.24.24,0,0,0,.06.1,1.34,1.34,0,0,0,.38-.37C18.06,8.65,18,8.58,17.9,8.59Z"/><path class="cls-169" d="M18.91,7.91c-.1,0-.5.27-.49.52s.4.19.48.06S19,8,18.91,7.91Z"/><path class="cls-7" d="M13.24,10.79l0,0a1.2,1.2,0,0,0,.23-.17,3,3,0,0,1,.51-.39,2.2,2.2,0,0,0-.54.36A1.19,1.19,0,0,1,13.24,10.79Z"/><path class="cls-7" d="M7.73,6.07v0c.11,0,.18.13.18.13A.21.21,0,0,0,7.73,6.07Z"/><path class="cls-171" d="M14.17,1.86c-.75,0-1.08,1.54-1.08,2.48,0,1.4.92,1.68,1.64,1.45A2.71,2.71,0,0,1,16,5.67C16.47,3.54,15.85,1.8,14.17,1.86Z"/><path class="cls-144" d="M14.32,2.42c-.73.11-1.17,1.07-1.16,2,0,1.42.84,1.6,1.57,1.5a1.58,1.58,0,0,0,1.08-1.89C15.67,3.11,15,2.32,14.32,2.42Z"/><path class="cls-172" d="M14.32,2.42c-.73.11-1.17,1.07-1.16,2,0,1.42.84,1.6,1.57,1.5a1.58,1.58,0,0,0,1.08-1.89C15.67,3.11,15,2.32,14.32,2.42Z"/><path class="cls-173" d="M14.73,2.9a.29.29,0,0,1-.32.23.28.28,0,0,1-.23-.32.28.28,0,1,1,.55.09Z"/><path class="cls-174" d="M14.66,3.18c-.5,0-.91.62-.91,1.31s.41,1.23.91,1.19.9-.62.91-1.31S15.16,3.15,14.66,3.18Z"/><path d="M14.66,3.74a.79.79,0,0,0-.6.85c0,.45.28.8.62.78a.79.79,0,0,0,.6-.85C15.27,4.07,15,3.72,14.66,3.74Z"/><path class="cls-175" d="M15.17,4.2a.21.21,0,0,1-.24.18.22.22,0,0,1-.18-.25A.21.21,0,0,1,15,4,.22.22,0,0,1,15.17,4.2Z"/><path class="cls-176" d="M14.25,3.48c-.25.2-.35.48-.24.63s.39.1.64-.1.35-.47.24-.62S14.49,3.29,14.25,3.48Z"/><path d="M14.3,2.27c-.78.11-1.17,1.26-1.16,2.17a1.62,1.62,0,0,0,.45,1.28A1.4,1.4,0,0,0,14.74,6c.74-.11,1.24-.9,1.07-2S15,2.17,14.3,2.27Zm.43,3.64a1.35,1.35,0,0,1-1.11-.22,1.61,1.61,0,0,1-.44-1.25c0-.89.39-1.89,1.14-2s1.32.64,1.46,1.61A1.53,1.53,0,0,1,14.73,5.91Z"/><path class="cls-177" d="M13.69,6.41l2.58-.6A1.84,1.84,0,0,0,13.69,6.41Z"/><path class="cls-178" d="M16.46,6c.07.27-.11.92-1.17,1.19a1.43,1.43,0,0,1-1.67-.48c-.07-.27.48-.94,1.19-1.12S16.39,5.75,16.46,6Z"/><path class="cls-179" d="M16,5.89c.1.28-.31.67-.9.86s-1.15.12-1.24-.16.27-.72.87-.91S15.91,5.61,16,5.89Z"/><path class="cls-7" d="M14.83,5.53a2,2,0,0,0-1.18.94,2.13,2.13,0,0,1,1.19-.87,2.1,2.1,0,0,1,1.43.21A1.88,1.88,0,0,0,14.83,5.53Z"/></g></g></g></g></g></svg>