<svg xmlns="http://www.w3.org/2000/svg" xmlns:xlink="http://www.w3.org/1999/xlink" viewBox="0 0 19.25 27.99"><defs><style>.cls-1{fill:url(#radial-gradient);}.cls-2{fill:url(#radial-gradient-2);}.cls-109,.cls-11,.cls-112,.cls-115,.cls-118,.cls-121,.cls-124,.cls-127,.cls-13,.cls-130,.cls-133,.cls-135,.cls-138,.cls-141,.cls-143,.cls-146,.cls-149,.cls-151,.cls-153,.cls-155,.cls-157,.cls-161,.cls-162,.cls-165,.cls-168,.cls-171,.cls-174,.cls-175,.cls-176,.cls-179,.cls-18,.cls-182,.cls-185,.cls-188,.cls-189,.cls-192,.cls-195,.cls-198,.cls-22,.cls-25,.cls-28,.cls-29,.cls-3,.cls-30,.cls-31,.cls-36,.cls-38,.cls-40,.cls-43,.cls-45,.cls-48,.cls-51,.cls-52,.cls-53,.cls-54,.cls-55,.cls-56,.cls-62,.cls-63,.cls-66,.cls-67,.cls-7,.cls-71,.cls-73,.cls-74,.cls-76,.cls-77,.cls-80,.cls-82,.cls-83,.cls-86,.cls-87,.cls-88,.cls-89,.cls-9,.cls-96,.cls-99{mix-blend-mode:screen;}.cls-3{fill:url(#radial-gradient-3);}.cls-4{fill:#200908;}.cls-5{fill:url(#radial-gradient-4);}.cls-6{fill:url(#radial-gradient-5);}.cls-7{fill:url(#radial-gradient-6);}.cls-8{fill:url(#radial-gradient-7);}.cls-9{fill:url(#radial-gradient-8);}.cls-10{fill:url(#radial-gradient-9);}.cls-11{fill:url(#radial-gradient-10);}.cls-12{fill:url(#radial-gradient-11);}.cls-13{fill:url(#radial-gradient-12);}.cls-14{fill:#863609;}.cls-15{fill:#244d16;}.cls-16{fill:url(#radial-gradient-13);}.cls-17{fill:url(#radial-gradient-14);}.cls-18{fill:url(#linear-gradient);}.cls-19{fill:#d0a074;}.cls-20{fill:url(#radial-gradient-15);}.cls-21{fill:url(#radial-gradient-16);}.cls-22{fill:url(#linear-gradient-2);}.cls-23{fill:url(#radial-gradient-17);}.cls-24{fill:url(#radial-gradient-18);}.cls-25{fill:url(#linear-gradient-3);}.cls-26{fill:url(#radial-gradient-19);}.cls-27{fill:url(#radial-gradient-20);}.cls-28{fill:url(#radial-gradient-21);}.cls-29{fill:url(#radial-gradient-22);}.cls-30{fill:url(#linear-gradient-4);}.cls-31{fill:url(#radial-gradient-23);}.cls-32{fill:#2c7722;}.cls-33{fill:url(#radial-gradient-24);}.cls-34{fill:#441e07;}.cls-35{fill:url(#radial-gradient-25);}.cls-36{fill:url(#radial-gradient-26);}.cls-37{fill:url(#radial-gradient-27);}.cls-38{fill:url(#radial-gradient-28);}.cls-39{fill:url(#radial-gradient-29);}.cls-40{fill:url(#radial-gradient-30);}.cls-41{fill:#e97e1d;}.cls-42{fill:url(#radial-gradient-31);}.cls-43{fill:url(#radial-gradient-32);}.cls-44{fill:url(#radial-gradient-33);}.cls-45{fill:url(#radial-gradient-34);}.cls-46{fill:url(#radial-gradient-35);}.cls-47{fill:url(#radial-gradient-36);}.cls-48{fill:url(#radial-gradient-37);}.cls-49{fill:url(#radial-gradient-38);}.cls-50{fill:url(#radial-gradient-39);}.cls-51{fill:url(#radial-gradient-40);}.cls-52{fill:url(#linear-gradient-5);}.cls-53{fill:url(#radial-gradient-41);}.cls-54{fill:url(#linear-gradient-6);}.cls-55{fill:url(#radial-gradient-42);}.cls-56{opacity:0.7;fill:url(#linear-gradient-7);}.cls-57{fill:url(#radial-gradient-43);}.cls-58{fill:url(#radial-gradient-44);}.cls-59{fill:url(#radial-gradient-45);}.cls-60{fill:url(#linear-gradient-8);}.cls-61{fill:url(#linear-gradient-9);}.cls-62{fill:url(#radial-gradient-46);}.cls-63{fill:url(#radial-gradient-47);}.cls-64{fill:#df4a4b;}.cls-65{fill:url(#radial-gradient-48);}.cls-66{fill:url(#radial-gradient-49);}.cls-67{fill:url(#linear-gradient-10);}.cls-68,.cls-78{mix-blend-mode:multiply;}.cls-68{fill:url(#radial-gradient-50);}.cls-69{fill:#fff;}.cls-70{fill:url(#radial-gradient-51);}.cls-71,.cls-80{opacity:0.6;}.cls-71{fill:url(#radial-gradient-52);}.cls-72{fill:url(#radial-gradient-53);}.cls-73,.cls-82{opacity:0.5;}.cls-73{fill:url(#radial-gradient-54);}.cls-74{fill:url(#linear-gradient-11);}.cls-75{fill:url(#radial-gradient-55);}.cls-76{fill:url(#radial-gradient-56);}.cls-77{fill:url(#linear-gradient-12);}.cls-78{fill:url(#radial-gradient-57);}.cls-79{fill:url(#radial-gradient-58);}.cls-80{fill:url(#radial-gradient-59);}.cls-81{fill:url(#radial-gradient-60);}.cls-82{fill:url(#radial-gradient-61);}.cls-83{fill:url(#linear-gradient-13);}.cls-84{fill:url(#radial-gradient-62);}.cls-85{fill:url(#radial-gradient-63);}.cls-86{fill:url(#radial-gradient-64);}.cls-87{fill:url(#linear-gradient-14);}.cls-88{fill:url(#radial-gradient-65);}.cls-89{fill:url(#linear-gradient-15);}.cls-90{fill:#14511b;}.cls-91{fill:#307a22;}.cls-92{fill:#26621e;}.cls-93{fill:#2d7521;}.cls-94{fill:url(#radial-gradient-66);}.cls-95{fill:url(#radial-gradient-67);}.cls-96{fill:url(#radial-gradient-68);}.cls-97{fill:url(#radial-gradient-69);}.cls-98{fill:url(#radial-gradient-70);}.cls-99{fill:url(#radial-gradient-71);}.cls-100{fill:url(#radial-gradient-72);}.cls-101{fill:url(#radial-gradient-73);}.cls-102{fill:url(#radial-gradient-74);}.cls-103{fill:url(#radial-gradient-75);}.cls-104{fill:url(#radial-gradient-76);}.cls-105{fill:url(#radial-gradient-77);}.cls-106{fill:#965e11;}.cls-107{fill:url(#radial-gradient-78);}.cls-108{fill:url(#radial-gradient-79);}.cls-109{fill:url(#radial-gradient-80);}.cls-110{fill:url(#radial-gradient-81);}.cls-111{fill:url(#radial-gradient-82);}.cls-112{fill:url(#linear-gradient-16);}.cls-113{fill:url(#radial-gradient-83);}.cls-114{fill:url(#radial-gradient-84);}.cls-115{fill:url(#linear-gradient-17);}.cls-116{fill:url(#radial-gradient-85);}.cls-117{fill:url(#radial-gradient-86);}.cls-118{fill:url(#linear-gradient-18);}.cls-119{fill:url(#radial-gradient-87);}.cls-120{fill:url(#radial-gradient-88);}.cls-121{fill:url(#linear-gradient-19);}.cls-122{fill:url(#radial-gradient-89);}.cls-123{fill:url(#radial-gradient-90);}.cls-124{fill:url(#linear-gradient-20);}.cls-125{fill:url(#radial-gradient-91);}.cls-126{fill:url(#radial-gradient-92);}.cls-127{fill:url(#linear-gradient-21);}.cls-128{fill:url(#radial-gradient-93);}.cls-129{fill:url(#radial-gradient-94);}.cls-130{fill:url(#linear-gradient-22);}.cls-131{fill:url(#radial-gradient-95);}.cls-132{fill:url(#radial-gradient-96);}.cls-133{fill:url(#linear-gradient-23);}.cls-134{fill:url(#radial-gradient-97);}.cls-135{fill:url(#radial-gradient-98);}.cls-136{fill:url(#radial-gradient-99);}.cls-137{fill:url(#radial-gradient-100);}.cls-138{fill:url(#linear-gradient-24);}.cls-139{fill:url(#radial-gradient-101);}.cls-140{fill:url(#radial-gradient-102);}.cls-141{fill:url(#linear-gradient-25);}.cls-142{fill:url(#radial-gradient-103);}.cls-143{fill:url(#radial-gradient-104);}.cls-144{fill:url(#radial-gradient-105);}.cls-145{fill:url(#radial-gradient-106);}.cls-146{fill:url(#linear-gradient-26);}.cls-147{fill:url(#radial-gradient-107);}.cls-148{fill:url(#radial-gradient-108);}.cls-149{fill:url(#linear-gradient-27);}.cls-150{fill:url(#radial-gradient-109);}.cls-151{fill:url(#radial-gradient-110);}.cls-152{fill:url(#radial-gradient-111);}.cls-153{fill:url(#radial-gradient-112);}.cls-154{fill:url(#radial-gradient-113);}.cls-155{fill:url(#radial-gradient-114);}.cls-156{fill:url(#radial-gradient-115);}.cls-157{fill:url(#radial-gradient-116);}.cls-158{fill:#225d1d;}.cls-159{fill:url(#radial-gradient-117);}.cls-160{fill:url(#radial-gradient-118);}.cls-161{fill:url(#radial-gradient-119);}.cls-162{fill:url(#linear-gradient-28);}.cls-163{fill:url(#radial-gradient-120);}.cls-164{fill:url(#radial-gradient-121);}.cls-165{fill:url(#linear-gradient-29);}.cls-166{fill:url(#radial-gradient-122);}.cls-167{fill:url(#radial-gradient-123);}.cls-168{fill:url(#linear-gradient-30);}.cls-169{fill:url(#radial-gradient-124);}.cls-170{fill:url(#radial-gradient-125);}.cls-171{fill:url(#linear-gradient-31);}.cls-172{fill:url(#radial-gradient-126);}.cls-173{fill:url(#radial-gradient-127);}.cls-174{fill:url(#radial-gradient-128);}.cls-175{fill:url(#linear-gradient-32);}.cls-176{fill:url(#radial-gradient-129);}.cls-177{fill:url(#radial-gradient-130);}.cls-178{fill:url(#radial-gradient-131);}.cls-179{fill:url(#linear-gradient-33);}.cls-180{fill:url(#radial-gradient-132);}.cls-181{fill:url(#radial-gradient-133);}.cls-182{fill:url(#linear-gradient-34);}.cls-183{fill:url(#radial-gradient-134);}.cls-184{fill:url(#radial-gradient-135);}.cls-185{fill:url(#linear-gradient-35);}.cls-186{fill:url(#radial-gradient-136);}.cls-187{fill:url(#radial-gradient-137);}.cls-188{fill:url(#radial-gradient-138);}.cls-189{fill:url(#linear-gradient-36);}.cls-190{fill:url(#radial-gradient-139);}.cls-191{fill:url(#radial-gradient-140);}.cls-192{fill:url(#linear-gradient-37);}.cls-193{fill:url(#radial-gradient-141);}.cls-194{fill:url(#radial-gradient-142);}.cls-195{fill:url(#linear-gradient-38);}.cls-196{fill:url(#radial-gradient-143);}.cls-197{fill:url(#radial-gradient-144);}.cls-198{fill:url(#linear-gradient-39);}</style><radialGradient id="radial-gradient" cx="16.88" cy="14.62" r="1.36" gradientUnits="userSpaceOnUse"><stop offset="0" stop-color="#701709"/><stop offset="1" stop-color="#260707"/></radialGradient><radialGradient id="radial-gradient-2" cx="16.94" cy="14.56" r="0.81" gradientUnits="userSpaceOnUse"><stop offset="0" stop-color="#74300b"/><stop offset="1" stop-color="#491b07"/></radialGradient><radialGradient id="radial-gradient-3" cx="16.94" cy="14.56" r="1.09" gradientUnits="userSpaceOnUse"><stop offset="0" stop-color="#602a0c"/><stop offset="0.77"/><stop offset="1"/></radialGradient><radialGradient id="radial-gradient-4" cx="15.25" cy="13.77" r="1.47" xlink:href="#radial-gradient"/><radialGradient id="radial-gradient-5" cx="15.26" cy="13.75" r="0.76" xlink:href="#radial-gradient-2"/><radialGradient id="radial-gradient-6" cx="15.26" cy="13.75" r="0.93" xlink:href="#radial-gradient-3"/><radialGradient id="radial-gradient-7" cx="6.67" cy="18.51" r="0.73" gradientUnits="userSpaceOnUse"><stop offset="0" stop-color="#d87f25"/><stop offset="1" stop-color="#c14e0c"/></radialGradient><radialGradient id="radial-gradient-8" cx="6.67" cy="18.51" r="0.73" gradientUnits="userSpaceOnUse"><stop offset="0" stop-color="#d87f25"/><stop offset="0.02" stop-color="#cf7a24"/><stop offset="0.17" stop-color="#915519"/><stop offset="0.31" stop-color="#5d3710"/><stop offset="0.44" stop-color="#351f09"/><stop offset="0.55" stop-color="#180e04"/><stop offset="0.66" stop-color="#060401"/><stop offset="0.73"/><stop offset="1"/></radialGradient><radialGradient id="radial-gradient-9" cx="6.7" cy="19.68" r="0.86" xlink:href="#radial-gradient-7"/><radialGradient id="radial-gradient-10" cx="6.7" cy="19.68" r="0.86" xlink:href="#radial-gradient-8"/><radialGradient id="radial-gradient-11" cx="6.97" cy="21.16" r="0.88" xlink:href="#radial-gradient-7"/><radialGradient id="radial-gradient-12" cx="6.97" cy="21.16" r="0.88" xlink:href="#radial-gradient-8"/><radialGradient id="radial-gradient-13" cx="4547.99" cy="18634.13" r="0.91" gradientTransform="translate(18597.94 4714.06) rotate(117.9)" gradientUnits="userSpaceOnUse"><stop offset="0" stop-color="#f2e6d5"/><stop offset="1" stop-color="#e4c097"/></radialGradient><radialGradient id="radial-gradient-14" cx="4547.99" cy="18634.13" r="0.91" gradientTransform="translate(18597.94 4714.06) rotate(117.9)" gradientUnits="userSpaceOnUse"><stop offset="0" stop-color="#f4ede0"/><stop offset="0.36" stop-color="#f0e2cd"/><stop offset="1" stop-color="#e6c7a2"/></radialGradient><linearGradient id="linear-gradient" x1="4547.99" y1="18634.23" x2="4548.68" y2="18634.23" gradientTransform="translate(18597.94 4714.06) rotate(117.9)" gradientUnits="userSpaceOnUse"><stop offset="0" stop-color="#fff"/><stop offset="0.1" stop-color="#e5e5e5"/><stop offset="0.33" stop-color="#a3a3a3"/><stop offset="0.65" stop-color="#3a3a3a"/><stop offset="0.82"/><stop offset="1"/></linearGradient><radialGradient id="radial-gradient-15" cx="12368.61" cy="18326.05" r="0.91" gradientTransform="translate(18375.92 12313.41) rotate(157.82)" xlink:href="#radial-gradient-13"/><radialGradient id="radial-gradient-16" cx="12368.61" cy="18326.05" r="0.91" gradientTransform="translate(18375.92 12313.41) rotate(157.82)" xlink:href="#radial-gradient-14"/><linearGradient id="linear-gradient-2" x1="12368.6" y1="18326.15" x2="12369.29" y2="18326.15" gradientTransform="translate(18375.92 12313.41) rotate(157.82)" xlink:href="#linear-gradient"/><radialGradient id="radial-gradient-17" cx="-670.6" cy="15089.11" r="0.91" gradientTransform="translate(15100.92 -313.52) rotate(86.2)" xlink:href="#radial-gradient-13"/><radialGradient id="radial-gradient-18" cx="-670.6" cy="15089.11" r="0.91" gradientTransform="translate(15100.92 -313.52) rotate(86.2)" xlink:href="#radial-gradient-14"/><linearGradient id="linear-gradient-3" x1="-670.61" y1="15089.2" x2="-669.92" y2="15089.2" gradientTransform="translate(15100.92 -313.52) rotate(86.2)" xlink:href="#linear-gradient"/><radialGradient id="radial-gradient-19" cx="2.4" cy="14" r="6.87" gradientUnits="userSpaceOnUse"><stop offset="0" stop-color="#48a528"/><stop offset="0.54" stop-color="#3b8f25"/><stop offset="1" stop-color="#2e7922"/></radialGradient><radialGradient id="radial-gradient-20" cx="2.4" cy="14" r="6.87" gradientUnits="userSpaceOnUse"><stop offset="0" stop-color="#5bb224"/><stop offset="0.88" stop-color="#459e26"/><stop offset="1" stop-color="#429b26"/></radialGradient><radialGradient id="radial-gradient-21" cx="6.39" cy="14.8" r="2.53" gradientUnits="userSpaceOnUse"><stop offset="0" stop-color="#91ca1f"/><stop offset="0.05" stop-color="#86bb1d"/><stop offset="0.34" stop-color="#4d6c11"/><stop offset="0.57" stop-color="#243208"/><stop offset="0.74" stop-color="#0a0e02"/><stop offset="0.83"/><stop offset="1"/></radialGradient><radialGradient id="radial-gradient-22" cx="3.2" cy="13.96" r="4.77" xlink:href="#radial-gradient-21"/><linearGradient id="linear-gradient-4" x1="400.11" y1="-357.15" x2="402" y2="-355.63" gradientTransform="translate(-381.52 390.57) rotate(-2.72)" gradientUnits="userSpaceOnUse"><stop offset="0" stop-color="#9bcf82"/><stop offset="0.29" stop-color="#5d7c4e"/><stop offset="0.55" stop-color="#2b3924"/><stop offset="0.74" stop-color="#0c100a"/><stop offset="0.83"/><stop offset="1"/></linearGradient><radialGradient id="radial-gradient-23" cx="5.84" cy="16.32" r="0" xlink:href="#radial-gradient-21"/><radialGradient id="radial-gradient-24" cx="11.77" cy="14.53" r="3.09" gradientUnits="userSpaceOnUse"><stop offset="0" stop-color="#170b0b"/><stop offset="0.55" stop-color="#2e0606"/><stop offset="0.66" stop-color="#380906"/><stop offset="0.84" stop-color="#530f08"/><stop offset="1" stop-color="#701709"/></radialGradient><radialGradient id="radial-gradient-25" cx="14.36" cy="12.77" r="0.98" xlink:href="#radial-gradient-7"/><radialGradient id="radial-gradient-26" cx="14.36" cy="12.77" r="0.98" xlink:href="#radial-gradient-8"/><radialGradient id="radial-gradient-27" cx="13.23" cy="11.13" r="0.85" xlink:href="#radial-gradient-7"/><radialGradient id="radial-gradient-28" cx="13.23" cy="11.13" r="0.85" xlink:href="#radial-gradient-8"/><radialGradient id="radial-gradient-29" cx="11.89" cy="10.79" r="0.83" xlink:href="#radial-gradient-7"/><radialGradient id="radial-gradient-30" cx="11.89" cy="10.79" r="0.83" xlink:href="#radial-gradient-8"/><radialGradient id="radial-gradient-31" cx="9.32" cy="12.15" r="0.77" xlink:href="#radial-gradient-7"/><radialGradient id="radial-gradient-32" cx="9.32" cy="12.15" r="0.77" xlink:href="#radial-gradient-8"/><radialGradient id="radial-gradient-33" cx="8.66" cy="13.39" r="0.62" xlink:href="#radial-gradient-7"/><radialGradient id="radial-gradient-34" cx="8.66" cy="13.39" r="0.62" xlink:href="#radial-gradient-8"/><radialGradient id="radial-gradient-35" cx="8.82" cy="13.6" r="3.42" xlink:href="#radial-gradient-19"/><radialGradient id="radial-gradient-36" cx="8.82" cy="13.6" r="3.42" xlink:href="#radial-gradient-20"/><radialGradient id="radial-gradient-37" cx="8.82" cy="13.6" r="3.42" xlink:href="#radial-gradient-21"/><radialGradient id="radial-gradient-38" cx="-4.05" cy="14.43" r="9.53" gradientTransform="translate(9.88 -9.72) rotate(0.07)" gradientUnits="userSpaceOnUse"><stop offset="0.12" stop-color="#48a528"/><stop offset="0.46" stop-color="#46a228"/><stop offset="0.68" stop-color="#419a26"/><stop offset="0.86" stop-color="#398b24"/><stop offset="1" stop-color="#2e7922"/></radialGradient><radialGradient id="radial-gradient-39" cx="-4.05" cy="14.48" r="9.56" gradientTransform="translate(9.88 -9.72) rotate(0.07)" xlink:href="#radial-gradient-20"/><radialGradient id="radial-gradient-40" cx="384.75" cy="-365.2" r="2.3" gradientTransform="translate(-362.85 387.11) rotate(-2.66)" xlink:href="#radial-gradient-21"/><linearGradient id="linear-gradient-5" x1="384.81" y1="-364.92" x2="385.51" y2="-364.55" gradientTransform="translate(-362.85 387.11) rotate(-2.66)" gradientUnits="userSpaceOnUse"><stop offset="0" stop-color="#5f5f5f"/><stop offset="0.13" stop-color="#4b4b4b"/><stop offset="0.44" stop-color="#222"/><stop offset="0.69" stop-color="#090909"/><stop offset="0.83"/><stop offset="1"/></linearGradient><radialGradient id="radial-gradient-41" cx="386.71" cy="-368.87" r="1.93" gradientTransform="translate(-362.85 387.11) rotate(-2.66)" xlink:href="#radial-gradient-21"/><linearGradient id="linear-gradient-6" x1="386.86" y1="-368.64" x2="387.52" y2="-367.84" gradientTransform="translate(-362.85 387.11) rotate(-2.66)" gradientUnits="userSpaceOnUse"><stop offset="0" stop-color="#5f5f5f"/><stop offset="0.29" stop-color="#393939"/><stop offset="0.65" stop-color="#101010"/><stop offset="0.83"/><stop offset="1"/></linearGradient><radialGradient id="radial-gradient-42" cx="388.56" cy="-359.87" r="2.6" gradientTransform="translate(-362.85 387.11) rotate(-2.66)" xlink:href="#radial-gradient-21"/><linearGradient id="linear-gradient-7" x1="-817.09" y1="-1404.44" x2="-814.49" y2="-1404.99" gradientTransform="matrix(0.91, 0, 0, 0.85, 747.85, 1203.77)" gradientUnits="userSpaceOnUse"><stop offset="0" stop-color="#4c4c4c"/><stop offset="0.69" stop-color="#181818"/><stop offset="1"/></linearGradient><radialGradient id="radial-gradient-43" cx="-0.84" cy="18.96" r="1.95" gradientTransform="translate(9.88 -9.72) rotate(0.07)" gradientUnits="userSpaceOnUse"><stop offset="0" stop-color="#150c0c"/><stop offset="0.28" stop-color="#200a0a"/><stop offset="0.56" stop-color="#300707"/><stop offset="0.68" stop-color="#3b0807"/><stop offset="1" stop-color="#540a06"/></radialGradient><radialGradient id="radial-gradient-44" cx="-0.92" cy="19.02" r="2.12" gradientTransform="translate(9.88 -9.72) rotate(0.07)" gradientUnits="userSpaceOnUse"><stop offset="0" stop-color="#130c0c"/><stop offset="0.59" stop-color="#6a0a09"/><stop offset="0.72" stop-color="#7c0c08"/><stop offset="0.87" stop-color="#890e06"/><stop offset="1" stop-color="#8e0f06"/></radialGradient><radialGradient id="radial-gradient-45" cx="-0.92" cy="19.02" r="2.12" xlink:href="#radial-gradient-44"/><linearGradient id="linear-gradient-8" x1="-1.17" y1="20.65" x2="-0.77" y2="19.3" gradientTransform="translate(9.88 -9.72) rotate(0.07)" gradientUnits="userSpaceOnUse"><stop offset="0" stop-color="#f59e9f"/><stop offset="1" stop-color="#f17171"/></linearGradient><linearGradient id="linear-gradient-9" x1="-1.22" y1="20.64" x2="-0.82" y2="19.29" gradientTransform="translate(9.88 -9.72) rotate(0.07)" gradientUnits="userSpaceOnUse"><stop offset="0" stop-color="#f0b8b8"/><stop offset="1" stop-color="#f79899"/></linearGradient><radialGradient id="radial-gradient-46" cx="387.91" cy="-359.22" r="0.92" gradientTransform="translate(-362.85 387.11) rotate(-2.66)" gradientUnits="userSpaceOnUse"><stop offset="0" stop-color="#f0b8b8"/><stop offset="0.02" stop-color="#e6b0b0"/><stop offset="0.12" stop-color="#aa8282"/><stop offset="0.23" stop-color="#765a5a"/><stop offset="0.33" stop-color="#4c3a3a"/><stop offset="0.43" stop-color="#2b2121"/><stop offset="0.53" stop-color="#130f0f"/><stop offset="0.62" stop-color="#050404"/><stop offset="0.69"/><stop offset="1"/></radialGradient><radialGradient id="radial-gradient-47" cx="388.57" cy="-359.24" r="1.26" xlink:href="#radial-gradient-46"/><radialGradient id="radial-gradient-48" cx="-4.05" cy="14.43" r="9.53" gradientTransform="translate(9.88 -9.72) rotate(0.07)" xlink:href="#radial-gradient-20"/><radialGradient id="radial-gradient-49" cx="390.99" cy="-369.45" r="4.63" gradientTransform="translate(-362.85 387.11) rotate(-2.66)" gradientUnits="userSpaceOnUse"><stop offset="0" stop-color="#91ca1f"/><stop offset="0" stop-color="#90c91f"/><stop offset="0.12" stop-color="#6a9417"/><stop offset="0.24" stop-color="#4a6710"/><stop offset="0.36" stop-color="#2f420a"/><stop offset="0.48" stop-color="#1a2506"/><stop offset="0.6" stop-color="#0c1003"/><stop offset="0.72" stop-color="#030401"/><stop offset="0.83"/><stop offset="1"/></radialGradient><linearGradient id="linear-gradient-10" x1="391.39" y1="-368.82" x2="391.48" y2="-366.47" xlink:href="#linear-gradient-6"/><radialGradient id="radial-gradient-50" cx="390.69" cy="-368.16" r="4.93" gradientTransform="translate(-362.85 387.11) rotate(-2.66)" gradientUnits="userSpaceOnUse"><stop offset="0" stop-color="#fff"/><stop offset="0.22" stop-color="#d1e6ca"/><stop offset="0.6" stop-color="#84be72"/><stop offset="0.87" stop-color="#55a53b"/><stop offset="1" stop-color="#429b26"/></radialGradient><radialGradient id="radial-gradient-51" cx="-824.37" cy="1001.51" r="2.9" gradientTransform="translate(940.36 -898.57) rotate(6.41)" gradientUnits="userSpaceOnUse"><stop offset="0.54" stop-color="#e7e7e7"/><stop offset="0.66" stop-color="#e4e4e5"/><stop offset="0.74" stop-color="#dcdcdd"/><stop offset="0.8" stop-color="#cdcdd1"/><stop offset="0.86" stop-color="#b8b8bf"/><stop offset="0.91" stop-color="#9d9da8"/><stop offset="0.94" stop-color="#8c8c9a"/><stop offset="1" stop-color="#c5c5c5"/></radialGradient><radialGradient id="radial-gradient-52" cx="3961.93" cy="4750.09" r="0.13" gradientTransform="matrix(2.11, 0.24, -0.24, 2.17, -7184.46, -11264.84)" gradientUnits="userSpaceOnUse"><stop offset="0.21" stop-color="#fff"/><stop offset="0.36" stop-color="#aeaeae"/><stop offset="0.52" stop-color="#646464"/><stop offset="0.64" stop-color="#2e2e2e"/><stop offset="0.74" stop-color="#0d0d0d"/><stop offset="0.79"/><stop offset="0.98"/></radialGradient><radialGradient id="radial-gradient-53" cx="-815.81" cy="1427.41" r="1.83" gradientTransform="matrix(0.99, 0.11, -0.12, 1.06, 990.05, -1411.74)" gradientUnits="userSpaceOnUse"><stop offset="0" stop-color="#31b2d1"/><stop offset="0.13" stop-color="#2aa3c9"/><stop offset="0.32" stop-color="#1b85ba"/><stop offset="0.52" stop-color="#1b6bae"/><stop offset="0.93" stop-color="#1c298f"/><stop offset="1" stop-color="#1c1d89"/></radialGradient><radialGradient id="radial-gradient-54" cx="3962.27" cy="4750.66" r="0.1" gradientTransform="matrix(2.11, 0.24, -0.24, 2.17, -7184.46, -11264.84)" gradientUnits="userSpaceOnUse"><stop offset="0" stop-color="#fff"/><stop offset="0.22" stop-color="#b3b3b3"/><stop offset="0.62" stop-color="#333"/><stop offset="0.79"/><stop offset="1"/></radialGradient><linearGradient id="linear-gradient-11" x1="-238.87" y1="298.27" x2="-238.45" y2="298.77" gradientTransform="matrix(1, 0.03, -0.03, 1, 258.77, -286.85)" gradientUnits="userSpaceOnUse"><stop offset="0" stop-color="#b9b9b9"/><stop offset="0.04" stop-color="#adadad"/><stop offset="0.33" stop-color="#646464"/><stop offset="0.57" stop-color="#2e2e2e"/><stop offset="0.75" stop-color="#0d0d0d"/><stop offset="0.85"/><stop offset="0.98"/></linearGradient><radialGradient id="radial-gradient-55" cx="386.05" cy="-364.82" r="9.52" gradientTransform="translate(-362.85 387.11) rotate(-2.66)" xlink:href="#radial-gradient-20"/><radialGradient id="radial-gradient-56" cx="391.07" cy="-363.79" r="2.33" xlink:href="#radial-gradient-49"/><linearGradient id="linear-gradient-12" x1="-133.04" y1="156.24" x2="-132.58" y2="157.34" gradientTransform="translate(147.02 -147.97) rotate(1.04)" xlink:href="#linear-gradient-5"/><radialGradient id="radial-gradient-57" cx="387.24" cy="-368.45" r="3.69" xlink:href="#radial-gradient-50"/><radialGradient id="radial-gradient-58" cx="-2455.16" cy="3908.98" r="2.34" gradientTransform="matrix(0.92, 0.39, -0.39, 0.92, 3800.74, -2623.04)" xlink:href="#radial-gradient-51"/><radialGradient id="radial-gradient-59" cx="3193.16" cy="6078.8" r="0.11" gradientTransform="matrix(1.95, 0.84, -0.86, 2.01, -987.71, -14892.64)" xlink:href="#radial-gradient-52"/><radialGradient id="radial-gradient-60" cx="-2449.77" cy="4162.16" r="1.48" gradientTransform="matrix(0.92, 0.39, -0.42, 0.98, 3996.38, -3100.05)" xlink:href="#radial-gradient-53"/><radialGradient id="radial-gradient-61" cx="3959.97" cy="4750.59" r="0.1" xlink:href="#radial-gradient-54"/><linearGradient id="linear-gradient-13" x1="-2097.56" y1="3066.13" x2="-2097.22" y2="3066.54" gradientTransform="translate(2971.64 -2233.99) rotate(18.6)" xlink:href="#linear-gradient-11"/><radialGradient id="radial-gradient-62" cx="-4.05" cy="14.43" r="9.53" xlink:href="#radial-gradient-38"/><radialGradient id="radial-gradient-63" cx="-4.05" cy="14.43" r="9.53" gradientTransform="translate(9.88 -9.72) rotate(0.07)" xlink:href="#radial-gradient-20"/><radialGradient id="radial-gradient-64" cx="384.23" cy="-363.36" r="6.35" gradientTransform="translate(-362.85 387.11) rotate(-2.66)" xlink:href="#radial-gradient-21"/><linearGradient id="linear-gradient-14" x1="-507.12" y1="550.26" x2="-503.93" y2="550.26" gradientTransform="translate(546.96 -509.64) rotate(3.8)" xlink:href="#linear-gradient-6"/><radialGradient id="radial-gradient-65" cx="386.77" cy="-368.43" r="3.85" gradientTransform="translate(-362.85 387.11) rotate(-2.66)" xlink:href="#radial-gradient-21"/><linearGradient id="linear-gradient-15" x1="387.15" y1="-368.08" x2="389.25" y2="-366.52" xlink:href="#linear-gradient-6"/><radialGradient id="radial-gradient-66" cx="17.09" cy="21.21" r="1.34" xlink:href="#radial-gradient"/><radialGradient id="radial-gradient-67" cx="17.06" cy="21.2" r="0.72" xlink:href="#radial-gradient-2"/><radialGradient id="radial-gradient-68" cx="17.06" cy="21.2" r="0.72" xlink:href="#radial-gradient-3"/><radialGradient id="radial-gradient-69" cx="12.78" cy="22.84" r="6.19" xlink:href="#radial-gradient-19"/><radialGradient id="radial-gradient-70" cx="12.78" cy="22.84" r="6.19" xlink:href="#radial-gradient-20"/><radialGradient id="radial-gradient-71" cx="11.83" cy="22.13" r="6.9" xlink:href="#radial-gradient-21"/><radialGradient id="radial-gradient-72" cx="10.39" cy="25.71" r="0.81" xlink:href="#radial-gradient-7"/><radialGradient id="radial-gradient-73" cx="9.44" cy="25.52" r="0.74" xlink:href="#radial-gradient-7"/><radialGradient id="radial-gradient-74" cx="9.5" cy="25.3" r="2.46" xlink:href="#radial-gradient-19"/><radialGradient id="radial-gradient-75" cx="9.5" cy="25.3" r="2.46" xlink:href="#radial-gradient-20"/><radialGradient id="radial-gradient-76" cx="10.11" cy="24.59" r="0.71" gradientUnits="userSpaceOnUse"><stop offset="0" stop-color="#f7be46"/><stop offset="1" stop-color="#f8a12a"/></radialGradient><radialGradient id="radial-gradient-77" cx="11.56" cy="24.64" r="0.75" xlink:href="#radial-gradient-76"/><radialGradient id="radial-gradient-78" cx="4.71" cy="22.52" r="7.55" xlink:href="#radial-gradient-19"/><radialGradient id="radial-gradient-79" cx="3.92" cy="21.75" r="7.55" xlink:href="#radial-gradient-20"/><radialGradient id="radial-gradient-80" cx="3.52" cy="21.63" r="7.07" xlink:href="#radial-gradient-21"/><radialGradient id="radial-gradient-81" cx="8.95" cy="15.58" r="1.55" gradientUnits="userSpaceOnUse"><stop offset="0" stop-color="#f8c950"/><stop offset="1" stop-color="#f8a12a"/></radialGradient><radialGradient id="radial-gradient-82" cx="8.96" cy="15.54" r="1.4" gradientUnits="userSpaceOnUse"><stop offset="0" stop-color="#f6e86d"/><stop offset="0.59" stop-color="#f7ce54"/><stop offset="1" stop-color="#f7b941"/></radialGradient><linearGradient id="linear-gradient-16" x1="9.02" y1="15.04" x2="8.89" y2="16.15" gradientUnits="userSpaceOnUse"><stop offset="0" stop-color="#717171"/><stop offset="0.36" stop-color="#393939"/><stop offset="0.67" stop-color="#101010"/><stop offset="0.83"/><stop offset="1"/></linearGradient><radialGradient id="radial-gradient-83" cx="9.34" cy="14.42" r="1.05" xlink:href="#radial-gradient-81"/><radialGradient id="radial-gradient-84" cx="9.48" cy="14.32" r="1.02" xlink:href="#radial-gradient-82"/><linearGradient id="linear-gradient-17" x1="9.55" y1="14.05" x2="9.35" y2="14.83" xlink:href="#linear-gradient-16"/><radialGradient id="radial-gradient-85" cx="12.3" cy="14.31" r="1.98" xlink:href="#radial-gradient-81"/><radialGradient id="radial-gradient-86" cx="11.8" cy="14.35" r="1.55" xlink:href="#radial-gradient-82"/><linearGradient id="linear-gradient-18" x1="11.8" y1="14.18" x2="11.84" y2="14.77" xlink:href="#linear-gradient-16"/><radialGradient id="radial-gradient-87" cx="12.31" cy="15.59" r="1.98" xlink:href="#radial-gradient-81"/><radialGradient id="radial-gradient-88" cx="11.81" cy="15.52" r="1.94" xlink:href="#radial-gradient-82"/><linearGradient id="linear-gradient-19" x1="11.76" y1="15" x2="11.8" y2="16.08" xlink:href="#linear-gradient-16"/><radialGradient id="radial-gradient-89" cx="8.55" cy="17.6" r="1.63" xlink:href="#radial-gradient-81"/><radialGradient id="radial-gradient-90" cx="8.48" cy="17.47" r="1.74" xlink:href="#radial-gradient-82"/><linearGradient id="linear-gradient-20" x1="8.54" y1="16.75" x2="8.44" y2="18.25" xlink:href="#linear-gradient-16"/><radialGradient id="radial-gradient-91" cx="12.2" cy="17.4" r="2.45" xlink:href="#radial-gradient-81"/><radialGradient id="radial-gradient-92" cx="11.78" cy="17.38" r="2.35" xlink:href="#radial-gradient-82"/><linearGradient id="linear-gradient-21" x1="11.76" y1="16.64" x2="11.73" y2="18.12" xlink:href="#linear-gradient-16"/><radialGradient id="radial-gradient-93" cx="9.17" cy="23.31" r="1.11" xlink:href="#radial-gradient-76"/><radialGradient id="radial-gradient-94" cx="9.22" cy="23.61" r="1.07" xlink:href="#radial-gradient-82"/><linearGradient id="linear-gradient-22" x1="8.56" y1="23.61" x2="9.89" y2="23.61" xlink:href="#linear-gradient-16"/><radialGradient id="radial-gradient-95" cx="12.61" cy="23.38" r="1.74" xlink:href="#radial-gradient-76"/><radialGradient id="radial-gradient-96" cx="11.82" cy="23.58" r="1.05" xlink:href="#radial-gradient-82"/><linearGradient id="linear-gradient-23" x1="11.81" y1="23.31" x2="11.85" y2="23.94" xlink:href="#linear-gradient-16"/><radialGradient id="radial-gradient-97" cx="15.07" cy="22.88" r="0.7" xlink:href="#radial-gradient-7"/><radialGradient id="radial-gradient-98" cx="15.07" cy="22.88" r="0.7" xlink:href="#radial-gradient-8"/><radialGradient id="radial-gradient-99" cx="8.81" cy="21.61" r="1.41" xlink:href="#radial-gradient-81"/><radialGradient id="radial-gradient-100" cx="8.75" cy="21.68" r="1.43" xlink:href="#radial-gradient-82"/><linearGradient id="linear-gradient-24" x1="8.71" y1="21.12" x2="8.72" y2="22.29" xlink:href="#linear-gradient-16"/><radialGradient id="radial-gradient-101" cx="12.41" cy="21.67" r="2.14" xlink:href="#radial-gradient-81"/><radialGradient id="radial-gradient-102" cx="11.89" cy="21.89" r="2.05" xlink:href="#radial-gradient-82"/><linearGradient id="linear-gradient-25" x1="11.89" y1="21.29" x2="11.89" y2="22.54" xlink:href="#linear-gradient-16"/><radialGradient id="radial-gradient-103" cx="15.15" cy="21.74" r="0.91" xlink:href="#radial-gradient-7"/><radialGradient id="radial-gradient-104" cx="15.15" cy="21.74" r="0.91" xlink:href="#radial-gradient-8"/><radialGradient id="radial-gradient-105" cx="8.48" cy="19.69" r="1.69" xlink:href="#radial-gradient-81"/><radialGradient id="radial-gradient-106" cx="8.46" cy="19.62" r="1.79" xlink:href="#radial-gradient-82"/><linearGradient id="linear-gradient-26" x1="8.47" y1="19" x2="8.44" y2="20.36" xlink:href="#linear-gradient-16"/><radialGradient id="radial-gradient-107" cx="12.17" cy="19.62" r="2.27" xlink:href="#radial-gradient-81"/><radialGradient id="radial-gradient-108" cx="11.78" cy="19.65" r="2.17" xlink:href="#radial-gradient-82"/><linearGradient id="linear-gradient-27" x1="11.8" y1="18.94" x2="11.77" y2="20.38" xlink:href="#linear-gradient-16"/><radialGradient id="radial-gradient-109" cx="15.27" cy="20.65" r="0.83" xlink:href="#radial-gradient-7"/><radialGradient id="radial-gradient-110" cx="15.27" cy="20.65" r="0.83" xlink:href="#radial-gradient-8"/><radialGradient id="radial-gradient-111" cx="15.07" cy="19.37" r="0.92" xlink:href="#radial-gradient-7"/><radialGradient id="radial-gradient-112" cx="15.07" cy="19.37" r="0.92" xlink:href="#radial-gradient-8"/><radialGradient id="radial-gradient-113" cx="14.85" cy="18.01" r="1.12" xlink:href="#radial-gradient-7"/><radialGradient id="radial-gradient-114" cx="14.85" cy="18.01" r="1.12" xlink:href="#radial-gradient-8"/><radialGradient id="radial-gradient-115" cx="14.72" cy="16.51" r="1.07" xlink:href="#radial-gradient-7"/><radialGradient id="radial-gradient-116" cx="14.72" cy="16.51" r="1.07" xlink:href="#radial-gradient-8"/><radialGradient id="radial-gradient-117" cx="3.92" cy="21.75" r="7.55" xlink:href="#radial-gradient-19"/><radialGradient id="radial-gradient-118" cx="3.92" cy="21.75" r="7.55" xlink:href="#radial-gradient-20"/><radialGradient id="radial-gradient-119" cx="3.52" cy="21.63" r="7.07" xlink:href="#radial-gradient-21"/><linearGradient id="linear-gradient-28" x1="4.55" y1="21.53" x2="6.65" y2="24.6" gradientTransform="matrix(1, 0, 0, 1, 0, 0)" xlink:href="#linear-gradient-4"/><radialGradient id="radial-gradient-120" cx="7024.15" cy="-4169.54" r="0.91" gradientTransform="translate(-3099.28 7581.93) rotate(-36.95)" xlink:href="#radial-gradient-13"/><radialGradient id="radial-gradient-121" cx="7024.15" cy="-4169.54" r="0.91" gradientTransform="translate(-3099.28 7581.93) rotate(-36.95)" xlink:href="#radial-gradient-14"/><linearGradient id="linear-gradient-29" x1="7024.15" y1="-4169.44" x2="7024.84" y2="-4169.44" gradientTransform="translate(-3099.28 7581.93) rotate(-36.95)" xlink:href="#linear-gradient"/><radialGradient id="radial-gradient-122" cx="15721.66" cy="-1762.38" r="0.91" gradientTransform="matrix(0.14, -0.99, 0.99, 0.14, -440.38, 15839.8)" xlink:href="#radial-gradient-13"/><radialGradient id="radial-gradient-123" cx="15721.66" cy="-1762.38" r="0.91" gradientTransform="matrix(0.14, -0.99, 0.99, 0.14, -440.38, 15839.8)" xlink:href="#radial-gradient-14"/><linearGradient id="linear-gradient-30" x1="15721.65" y1="-1762.28" x2="15722.34" y2="-1762.28" gradientTransform="matrix(0.14, -0.99, 0.99, 0.14, -440.38, 15839.8)" xlink:href="#linear-gradient"/><radialGradient id="radial-gradient-124" cx="18989.15" cy="2189.33" r="0.91" gradientTransform="translate(3525.12 18813.28) rotate(-107.18)" xlink:href="#radial-gradient-13"/><radialGradient id="radial-gradient-125" cx="18989.15" cy="2189.33" r="0.91" gradientTransform="translate(3525.12 18813.28) rotate(-107.18)" xlink:href="#radial-gradient-14"/><linearGradient id="linear-gradient-31" x1="18989.15" y1="2189.43" x2="18989.83" y2="2189.43" gradientTransform="translate(3525.12 18813.28) rotate(-107.18)" xlink:href="#linear-gradient"/><radialGradient id="radial-gradient-126" cx="13.86" cy="17.93" r="6.37" xlink:href="#radial-gradient-19"/><radialGradient id="radial-gradient-127" cx="13.86" cy="17.93" r="6.37" xlink:href="#radial-gradient-20"/><radialGradient id="radial-gradient-128" cx="15.69" cy="18.56" r="4.21" xlink:href="#radial-gradient-21"/><linearGradient id="linear-gradient-32" x1="14.93" y1="18.26" x2="17.87" y2="17.67" gradientTransform="matrix(1, 0, 0, 1, 0, 0)" xlink:href="#linear-gradient-4"/><radialGradient id="radial-gradient-129" cx="15" cy="15.01" r="1.95" gradientUnits="userSpaceOnUse"><stop offset="0" stop-color="#65961e"/><stop offset="0.2" stop-color="#486b15"/><stop offset="0.5" stop-color="#21310a"/><stop offset="0.72" stop-color="#090e03"/><stop offset="0.83"/><stop offset="1"/></radialGradient><radialGradient id="radial-gradient-130" cx="4833.12" cy="-4142.7" r="0.91" gradientTransform="translate(-2141.5 6008.86) rotate(-29.57)" xlink:href="#radial-gradient-13"/><radialGradient id="radial-gradient-131" cx="4833.12" cy="-4142.7" r="0.91" gradientTransform="translate(-2141.5 6008.86) rotate(-29.57)" xlink:href="#radial-gradient-14"/><linearGradient id="linear-gradient-33" x1="4833.11" y1="-4142.6" x2="4833.8" y2="-4142.6" gradientTransform="translate(-2141.5 6008.86) rotate(-29.57)" xlink:href="#linear-gradient"/><radialGradient id="radial-gradient-132" cx="-1786.57" cy="589.66" r="0.91" gradientTransform="translate(1881.13 -226.51) rotate(10.71)" xlink:href="#radial-gradient-13"/><radialGradient id="radial-gradient-133" cx="-1786.57" cy="589.66" r="0.91" gradientTransform="translate(1881.13 -226.51) rotate(10.71)" xlink:href="#radial-gradient-14"/><linearGradient id="linear-gradient-34" x1="-1786.58" y1="589.76" x2="-1785.89" y2="589.76" gradientTransform="translate(1881.13 -226.51) rotate(10.71)" xlink:href="#linear-gradient"/><radialGradient id="radial-gradient-134" cx="7990.45" cy="-4608.84" r="0.91" gradientTransform="translate(-2362.61 8931.76) rotate(-45.06)" xlink:href="#radial-gradient-13"/><radialGradient id="radial-gradient-135" cx="7990.45" cy="-4608.84" r="0.91" gradientTransform="translate(-2362.61 8931.76) rotate(-45.06)" xlink:href="#radial-gradient-14"/><linearGradient id="linear-gradient-35" x1="7990.45" y1="-4608.75" x2="7991.13" y2="-4608.75" gradientTransform="translate(-2362.61 8931.76) rotate(-45.06)" xlink:href="#linear-gradient"/><radialGradient id="radial-gradient-136" cx="12.78" cy="22.84" r="6.19" xlink:href="#radial-gradient-19"/><radialGradient id="radial-gradient-137" cx="12.78" cy="22.84" r="6.19" xlink:href="#radial-gradient-20"/><radialGradient id="radial-gradient-138" cx="11.83" cy="22.13" r="6.9" xlink:href="#radial-gradient-21"/><linearGradient id="linear-gradient-36" x1="-734.93" y1="16068.85" x2="-732.98" y2="16068.35" gradientTransform="translate(16089.54 -520.49) rotate(85.45)" xlink:href="#linear-gradient-4"/><radialGradient id="radial-gradient-139" cx="-3302.24" cy="8756.3" r="0.91" gradientTransform="matrix(0.62, 0.79, -0.79, 0.62, 8933.05, -2798.5)" xlink:href="#radial-gradient-13"/><radialGradient id="radial-gradient-140" cx="-3302.24" cy="8756.3" r="0.91" gradientTransform="matrix(0.62, 0.79, -0.79, 0.62, 8933.05, -2798.5)" xlink:href="#radial-gradient-14"/><linearGradient id="linear-gradient-37" x1="-3302.25" y1="8756.39" x2="-3301.56" y2="8756.39" gradientTransform="matrix(0.62, 0.79, -0.79, 0.62, 8933.05, -2798.5)" xlink:href="#linear-gradient"/><radialGradient id="radial-gradient-141" cx="-1062.26" cy="14542.71" r="0.91" gradientTransform="translate(14563.73 -901.15) rotate(82.18)" xlink:href="#radial-gradient-13"/><radialGradient id="radial-gradient-142" cx="-1062.26" cy="14542.71" r="0.91" gradientTransform="translate(14563.73 -901.15) rotate(82.18)" xlink:href="#radial-gradient-14"/><linearGradient id="linear-gradient-38" x1="-1062.27" y1="14542.8" x2="-1061.58" y2="14542.8" gradientTransform="translate(14563.73 -901.15) rotate(82.18)" xlink:href="#linear-gradient"/><radialGradient id="radial-gradient-143" cx="2019.31" cy="17436.02" r="0.91" gradientTransform="matrix(-0.22, 0.98, -0.98, -0.22, 17461.9, 1922.38)" xlink:href="#radial-gradient-13"/><radialGradient id="radial-gradient-144" cx="2019.31" cy="17436.02" r="0.91" gradientTransform="matrix(-0.22, 0.98, -0.98, -0.22, 17461.9, 1922.38)" xlink:href="#radial-gradient-14"/><linearGradient id="linear-gradient-39" x1="2019.3" y1="17436.12" x2="2019.99" y2="17436.12" gradientTransform="matrix(-0.22, 0.98, -0.98, -0.22, 17461.9, 1922.38)" xlink:href="#linear-gradient"/><symbol id="explain-turtee" data-name="explain-turtee" viewBox="0 0 19.25 27.99"><path class="cls-1" d="M16,13.52a2.83,2.83,0,0,1,1.11.55c.42.4.93,1,.8,1.46S16,14.4,16,14.4Z"/><path class="cls-2" d="M16.4,14.45a3.34,3.34,0,0,0,.91.61.15.15,0,0,0,.09,0c.13,0,.22-.09.22-.13a2.52,2.52,0,0,0-.46-.63,1,1,0,0,0-.65-.34h0A1.55,1.55,0,0,0,16.4,14.45Z"/><path class="cls-3" d="M16.4,14.45a3.34,3.34,0,0,0,.91.61.15.15,0,0,0,.09,0c.13,0,.22-.09.22-.13a2.52,2.52,0,0,0-.46-.63,1,1,0,0,0-.65-.34h0A1.55,1.55,0,0,0,16.4,14.45Z"/><path class="cls-4" d="M17.78,15.65c-.44,0-1.74-1.18-1.8-1.23h0v-.93h0a3,3,0,0,1,1.12.56c.64.59.91,1.09.8,1.49A.14.14,0,0,1,17.78,15.65ZM16,14.39c.12.11,1.35,1.21,1.75,1.21.06,0,.09,0,.1-.07.1-.38-.17-.86-.79-1.44A2.88,2.88,0,0,0,16,13.55Z"/><path class="cls-4" d="M17.4,15.14a.2.2,0,0,1-.11,0c-.15-.06-.91-.49-.95-.66h0c0-.15.05-.48.12-.52h.05a1.1,1.1,0,0,1,.69.36c.05.06.48.55.48.67S17.56,15.14,17.4,15.14Zm-1-.69a3.34,3.34,0,0,0,.91.61.15.15,0,0,0,.09,0c.13,0,.22-.09.22-.13a2.52,2.52,0,0,0-.46-.63,1,1,0,0,0-.65-.34h0A1.55,1.55,0,0,0,16.4,14.45Z"/><path class="cls-4" d="M17.08,14.88c-.12,0-.15,0-.16,0l-.05,0c-.13-.06-.39-.18-.44-.36a.23.23,0,0,1,.05-.22h0a.48.48,0,0,1,.23-.12h0a1.61,1.61,0,0,1,.44.32.21.21,0,0,0,.06.08c.08.11.16.21.11.29S17.15,14.88,17.08,14.88ZM17,14.82h.11a.37.37,0,0,0,.23-.05s0-.14-.11-.22l-.06-.09a1.34,1.34,0,0,0-.41-.3h0c-.05,0-.15.08-.19.11a.19.19,0,0,0,0,.17c0,.16.3.28.42.33Z"/><path class="cls-4" d="M17,14.75a1.28,1.28,0,0,1-.47-.24h0a.43.43,0,0,1,.08-.24h0a.38.38,0,0,1,.18,0,1.31,1.31,0,0,1,.34.3.06.06,0,0,1,0,.08.18.18,0,0,1-.14.08Zm-.42-.27a1.17,1.17,0,0,0,.43.22c.08,0,.1,0,.1-.06s0,0,0,0a1.24,1.24,0,0,0-.31-.28.33.33,0,0,0-.17-.05A.34.34,0,0,0,16.6,14.48Z"/><path class="cls-5" d="M14,12.41a2.2,2.2,0,0,1,.86.49,2.52,2.52,0,0,0,.84.4c.18.06.77.15.56,1.1s-2.36-.48-2.32-.56S14,12.41,14,12.41Z"/><path class="cls-6" d="M14.75,13.75a3.71,3.71,0,0,0,.92.41h0c.11-.05.07-.33.05-.46v-.06c0-.11-.26-.2-.41-.26a1,1,0,0,0-.31-.05.38.38,0,0,0-.22,0A1,1,0,0,0,14.75,13.75Z"/><path class="cls-7" d="M14.75,13.75a3.71,3.71,0,0,0,.92.41h0c.11-.05.07-.33.05-.46v-.06c0-.11-.26-.2-.41-.26a1,1,0,0,0-.31-.05.38.38,0,0,0-.22,0A1,1,0,0,0,14.75,13.75Z"/><path class="cls-4" d="M15.81,14.75a3.81,3.81,0,0,1-1.88-.88.08.08,0,0,1,0,0c0-.06.05-.9.06-1.42v0h0a2.07,2.07,0,0,1,.88.49,2.31,2.31,0,0,0,.76.37l.07,0,0,0c.22.07.73.22.52,1.12A.42.42,0,0,1,15.81,14.75ZM14,13.84a3.79,3.79,0,0,0,1.83.86.39.39,0,0,0,.43-.3c.2-.85-.27-1-.49-1.06H15.7l-.07,0a2,2,0,0,1-.77-.38,2.25,2.25,0,0,0-.82-.47C14,12.73,14,13.71,14,13.84Z"/><path class="cls-4" d="M15.67,14.22a3.81,3.81,0,0,1-1-.43h0v0a.91.91,0,0,1,.06-.44.48.48,0,0,1,.26-.06.81.81,0,0,1,.33.06c.23.08.43.17.44.31v0c0,.17.06.45-.09.52Zm-.92-.47a3.71,3.71,0,0,0,.92.41h0c.11-.05.07-.33.05-.46v-.06c0-.11-.26-.2-.41-.26a1,1,0,0,0-.31-.05.38.38,0,0,0-.22,0A1,1,0,0,0,14.75,13.75Z"/><path class="cls-4" d="M15.58,14.1h0c-.07,0-.61-.24-.72-.28H14.8l0-.21s0-.18.12-.21H15c.16,0,.51.06.6.2a.42.42,0,0,1,.05.34v0s0,.09,0,.11S15.6,14.1,15.58,14.1Zm-.72-.31a7.13,7.13,0,0,0,.72.26h0s0,0,0-.07v-.05a.36.36,0,0,0,0-.3c-.07-.12-.4-.18-.55-.18H15c-.06,0-.08.16-.08.16Z"/><path class="cls-4" d="M15.48,14h0l-.53-.2h-.06v-.15a.34.34,0,0,1,0-.16l.05,0a1.26,1.26,0,0,1,.45.08.35.35,0,0,1,.15.17.24.24,0,0,1,0,.12v0s0,.06,0,.09S15.5,14,15.48,14Zm-.55-.23a5.34,5.34,0,0,0,.55.17h0a.11.11,0,0,0,0-.06v-.05a.34.34,0,0,0,0-.1c0-.05-.06-.09-.13-.14a1.47,1.47,0,0,0-.42-.06s-.05.07-.05.13Z"/><path class="cls-4" d="M15.43,14a1.63,1.63,0,0,1-.31-.11l-.14,0v0s0-.16,0-.19h0a.35.35,0,0,1,.12,0,.21.21,0,0,1,.12,0l.05,0c.07,0,.13.07.15.13s0,.19,0,.21Zm0-.05v0Zm-.4-.15.11,0a1.93,1.93,0,0,0,.29.11.37.37,0,0,0,0-.15s-.06-.06-.12-.09l-.05,0-.1,0h-.11S15,13.73,15,13.78Z"/><path class="cls-8" d="M7.46,18.92l-.18-1L6.7,18s-.25.75.07,1.09A.88.88,0,0,0,7.46,18.92Z"/><path class="cls-9" d="M7.46,18.92l-.18-1L6.7,18s-.25.75.07,1.09A.88.88,0,0,0,7.46,18.92Z"/><path class="cls-10" d="M7.66,20.12c-.07-.4-.14-.82-.2-1.2a.88.88,0,0,1-.69.14v0a1.19,1.19,0,0,0,.1,1.26A1.15,1.15,0,0,0,7.66,20.12Z"/><path class="cls-11" d="M7.66,20.12c-.07-.4-.14-.82-.2-1.2a.88.88,0,0,1-.69.14v0a1.19,1.19,0,0,0,.1,1.26A1.15,1.15,0,0,0,7.66,20.12Z"/><path class="cls-12" d="M7.94,21.56c0-.1-.15-.73-.28-1.44a1.15,1.15,0,0,1-.78.22h0c-.13.25-.06,1.35.43,1.62S8,21.82,7.94,21.56Z"/><path class="cls-13" d="M7.94,21.56c0-.1-.15-.73-.28-1.44a1.15,1.15,0,0,1-.78.22h0c-.13.25-.06,1.35.43,1.62S8,21.82,7.94,21.56Z"/><path class="cls-14" d="M7.6,22.08h0a.7.7,0,0,1-.31-.1c-.5-.28-.56-1.35-.44-1.63a.76.76,0,0,1-.22-.51,1.24,1.24,0,0,1,.11-.76C6.43,18.74,6.66,18,6.67,18h0l.62-.09v0s.57,3.43.65,3.67a.43.43,0,0,1-.06.38A.37.37,0,0,1,7.6,22.08ZM6.72,18c0,.11-.21.77.08,1.06l0,0,0,0a1.06,1.06,0,0,0-.11.73.72.72,0,0,0,.21.49l0,0v0c-.12.22-.07,1.31.41,1.58A.67.67,0,0,0,7.6,22a.34.34,0,0,0,.26-.12.43.43,0,0,0,0-.33c-.08-.24-.6-3.31-.65-3.65Z"/><path class="cls-14" d="M6.9,19.12H6.78v-.06a.71.71,0,0,0,.38,0l0,0A.83.83,0,0,1,6.9,19.12Z"/><path class="cls-14" d="M7,20.38H6.88v-.05a.62.62,0,0,0,.36-.06l0,0A.54.54,0,0,1,7,20.38Z"/><path class="cls-15" d="M5.88,17a1.89,1.89,0,0,0-.08-.63h0A1.27,1.27,0,0,1,5.88,17Z"/><path class="cls-16" d="M.9,15.57c-.23,0-.64-.65-.54-.83s.82-.17,1,0S1.1,15.6.9,15.57Z"/><path class="cls-17" d="M1,15.44c-.23,0-.7-.6-.65-.7s.82-.17,1,0S1.21,15.47,1,15.44Z"/><path class="cls-18" d="M1,15.4c-.23,0-.7-.54-.65-.63s.78-.13.93,0S1.19,15.42,1,15.4Z"/><path class="cls-19" d="M.33,14.73h0a.39.39,0,0,1,.3-.14,1.1,1.1,0,0,1,.73.11c.09.1.07.29-.05.52s-.29.4-.42.38-.37-.27-.49-.51C.35,15,.28,14.83.33,14.73Zm.93.46c.1-.2.13-.37.06-.44a1,1,0,0,0-.69-.1.33.33,0,0,0-.25.1h0a.44.44,0,0,0,.07.32c.13.24.33.46.45.48S1.15,15.4,1.26,15.19Z"/><path class="cls-20" d="M2,14.45c-.16-.17-.08-.91.12-1s.74.4.76.62S2.08,14.6,2,14.45Z"/><path class="cls-21" d="M2.12,14.42c-.16-.17-.16-.92-.05-1s.74.4.76.62S2.25,14.57,2.12,14.42Z"/><path class="cls-22" d="M2.17,14.4c-.16-.17-.2-.86-.1-.9s.68.4.7.62S2.27,14.52,2.17,14.4Z"/><path class="cls-19" d="M2.05,13.43h0a.42.42,0,0,1,.31.09,1.09,1.09,0,0,1,.49.55c0,.13-.13.27-.37.37s-.48.12-.57,0a1,1,0,0,1,0-.71C1.9,13.66,2,13.48,2.05,13.43Zm.42,1c.21-.08.34-.2.33-.3s-.24-.37-.46-.51-.21-.1-.26-.08v0c-.06,0-.12.13-.15.28a1,1,0,0,0,0,.66C2,14.49,2.25,14.47,2.47,14.38Z"/><path class="cls-23" d="M.93,17.13c-.21.09-.89-.22-.9-.43s.61-.58.82-.53S1.12,17,.93,17.13Z"/><path class="cls-24" d="M1,17A1.22,1.22,0,0,1,0,16.7c0-.21.61-.58.82-.53S1.14,16.87,1,17Z"/><path class="cls-25" d="M1,16.9c-.21.09-.87-.08-.88-.19s.59-.52.81-.47S1.1,16.84,1,16.9Z"/><path class="cls-19" d="M0,16.7H0a.4.4,0,0,1,.18-.27,1.16,1.16,0,0,1,.68-.29c.13,0,.21.21.23.47s0,.49-.15.54-.46,0-.69-.17S0,16.81,0,16.7Zm1-.09c0-.23-.09-.39-.18-.41a1,1,0,0,0-.63.27c-.11.09-.16.17-.16.23h0c0,.06.09.15.22.23a1,1,0,0,0,.64.17C1,17.06,1.05,16.84,1,16.61Z"/><path class="cls-26" d="M8.7,14.19a5.59,5.59,0,0,0-2.88,2.16,6.36,6.36,0,0,0-2-2.16,2.09,2.09,0,0,0-2.62.69,2.14,2.14,0,0,0-.18,2.42c.46.52,1.37.26,1.5.21.24.29,2.92,2.1,4.85.32C7.87,17,9,15.63,8.7,14.19Z"/><path class="cls-27" d="M8.7,14.19a6.44,6.44,0,0,0-2.88,2.16,6.45,6.45,0,0,0-2-2.16,2.09,2.09,0,0,0-2.62.69,2.42,2.42,0,0,0-.42,1.95,1.28,1.28,0,0,0,1.55.61.77.77,0,0,1,0-.45c.18.66,2.2,1.47,3.51,1.23a1.73,1.73,0,0,0,1.29-1.45c.05-.19.35-.35.35-.41a2.43,2.43,0,0,1,1.24-2Z"/><path class="cls-28" d="M8.7,14.19a6.48,6.48,0,0,0-2.86,2.13,1.7,1.7,0,0,1-.1,1.61,1.23,1.23,0,0,1-.35.33,3.28,3.28,0,0,0,.46,0,1.73,1.73,0,0,0,1.29-1.45c.05-.19.35-.35.35-.41a2.43,2.43,0,0,1,1.24-2Z"/><path class="cls-29" d="M5.74,17.93a1.7,1.7,0,0,0,.1-1.61l0,0a6.45,6.45,0,0,0-2-2.16,2.09,2.09,0,0,0-2.62.69,2.42,2.42,0,0,0-.42,1.95,1.28,1.28,0,0,0,1.55.61.77.77,0,0,1,0-.45c.16.59,1.77,1.29,3.05,1.27A1.23,1.23,0,0,0,5.74,17.93Z"/><path class="cls-30" d="M3.23,14.21c.41.34.25,1.2-.35,1.92s-1.43,1-1.84.69-.29-1.28.31-2S2.82,13.86,3.23,14.21Z"/><polygon class="cls-31" points="5.84 16.32 5.84 16.32 5.84 16.32 5.84 16.32"/><path class="cls-32" d="M4.13,14.91a.62.62,0,0,0,.63.6.63.63,0,0,0,.39-.13,6.4,6.4,0,0,0-.85-.88A.57.57,0,0,0,4.13,14.91Z"/><path class="cls-15" d="M5.41,18.63h0a4.65,4.65,0,0,1-1.91-.47,3.89,3.89,0,0,1-1-.62,2,2,0,0,1-.66.11A1.07,1.07,0,0,1,1,17.32a1.61,1.61,0,0,1-.3-1.15,2.44,2.44,0,0,1,.47-1.31A2.39,2.39,0,0,1,3,13.93a1.71,1.71,0,0,1,.88.24,6.43,6.43,0,0,1,2,2.12,5.57,5.57,0,0,1,2.87-2.12h0v0c.26,1.23-.53,2.45-1.05,3.26-.09.14-.18.27-.25.39h0A2.87,2.87,0,0,1,5.41,18.63ZM2.56,17.48v0a4.8,4.8,0,0,0,2.84,1.07,2.82,2.82,0,0,0,2-.76l.24-.39a4.58,4.58,0,0,0,1-3.19,5.54,5.54,0,0,0-2.82,2.13l0,0,0,0a6.32,6.32,0,0,0-2-2.14A1.6,1.6,0,0,0,3,14a2.28,2.28,0,0,0-1.74.9,2.12,2.12,0,0,0-.18,2.39,1,1,0,0,0,.81.31,2.33,2.33,0,0,0,.66-.1Z"/><path class="cls-15" d="M2.53,17.53A.65.65,0,0,1,2.34,17a1,1,0,0,0,.23.46Z"/><path class="cls-15" d="M1.58,16A1,1,0,0,1,2,15.5a1.52,1.52,0,0,1,.13-.71.74.74,0,0,1,.45-.43,1.16,1.16,0,0,0-.53,1.15v0h0a.91.91,0,0,0-.51,1A.9.9,0,0,1,1.58,16Z"/><path class="cls-32" d="M3.72,15.69a.35.35,0,0,1-.35.34.34.34,0,1,1,0-.68A.35.35,0,0,1,3.72,15.69Z"/><path class="cls-32" d="M5.38,16.07A.34.34,0,1,1,5,15.69.36.36,0,0,1,5.38,16.07Z"/><path class="cls-32" d="M4.42,16.75a.3.3,0,1,1-.29-.3A.29.29,0,0,1,4.42,16.75Z"/><path class="cls-32" d="M5.57,17.25A.31.31,0,1,1,5.26,17,.29.29,0,0,1,5.57,17.25Z"/><path class="cls-33" d="M8.9,14.13a2.37,2.37,0,0,1,.52-1.82,3.87,3.87,0,0,1,2.67-1.17,1.83,1.83,0,0,1,1.74,1.23c.19.59.42,1.63-.21,1.76S10.1,14.79,8.9,14.13Z"/><path class="cls-34" d="M10.23,14.22a3.55,3.55,0,0,1-.34-2.16H10a3.44,3.44,0,0,0,.32,2.12Z"/><path class="cls-34" d="M10.66,14.28a5.13,5.13,0,0,1,.51-2.88l.05,0a4.77,4.77,0,0,0-.5,2.83Z"/><path class="cls-4" d="M11,14.24h0a6.19,6.19,0,0,1,1.34-2.8l0,0A6.16,6.16,0,0,0,11,14.24Z"/><path class="cls-4" d="M12,14l0,0a5.76,5.76,0,0,0,1.53-1.85l.05,0A5.73,5.73,0,0,1,12,14Z"/><path d="M10.72,14.49a4,4,0,0,1-1.84-.33h0A2.42,2.42,0,0,1,9.4,12.3a3.92,3.92,0,0,1,2.69-1.19h0a1.85,1.85,0,0,1,1.76,1.25A2.35,2.35,0,0,1,14,13.92a.48.48,0,0,1-.33.24A15.88,15.88,0,0,1,10.72,14.49Zm-1.8-.37a4.13,4.13,0,0,0,1.8.31,16.15,16.15,0,0,0,2.9-.32.42.42,0,0,0,.29-.21,2.35,2.35,0,0,0-.11-1.52,1.79,1.79,0,0,0-1.71-1.21h0a3.86,3.86,0,0,0-2.65,1.16A2.4,2.4,0,0,0,8.92,14.12Z"/><path class="cls-35" d="M13.6,11.83a.9.9,0,0,1,.6.51,3.13,3.13,0,0,1,.28,1.57c-.07.21-.73-.09-.69-.27A2.51,2.51,0,0,0,13.4,12C13.4,11.92,13.6,11.83,13.6,11.83Z"/><path class="cls-36" d="M13.6,11.83a.9.9,0,0,1,.6.51,3.13,3.13,0,0,1,.28,1.57c-.07.21-.73-.09-.69-.27A2.51,2.51,0,0,0,13.4,12C13.4,11.92,13.6,11.83,13.6,11.83Z"/><path class="cls-14" d="M14.34,14a.91.91,0,0,1-.54-.25.17.17,0,0,1,0-.13A2.59,2.59,0,0,0,13.38,12h0c0-.1.18-.19.22-.21h0a.9.9,0,0,1,.62.53,3,3,0,0,1,.28,1.59S14.46,14,14.34,14Zm-.91-2a2.61,2.61,0,0,1,.39,1.65s0,0,0,.07a.8.8,0,0,0,.49.23c.06,0,.1,0,.11,0a3,3,0,0,0-.28-1.55.9.9,0,0,0-.57-.49A.35.35,0,0,0,13.43,12Z"/><path class="cls-37" d="M12.38,11a1,1,0,0,1,.53,0c.25.07.77.43.82.69s-.16.49-.35.44-.75-.59-1.14-.7A.81.81,0,0,1,12.38,11Z"/><path class="cls-38" d="M12.38,11a1,1,0,0,1,.53,0c.25.07.77.43.82.69s-.16.49-.35.44-.75-.59-1.14-.7A.81.81,0,0,1,12.38,11Z"/><path class="cls-14" d="M13.43,12.15h-.06a1.75,1.75,0,0,1-.4-.25,3.08,3.08,0,0,0-.73-.45h0v0a.8.8,0,0,1,.14-.41h0a1.29,1.29,0,0,1,.35-.06.6.6,0,0,1,.2,0c.25.06.78.43.84.7a.4.4,0,0,1-.08.35A.34.34,0,0,1,13.43,12.15Zm-1.16-.75a3,3,0,0,1,.73.44,1.56,1.56,0,0,0,.39.25.24.24,0,0,0,.24-.1.38.38,0,0,0,.08-.3c-.06-.26-.57-.61-.8-.67a.58.58,0,0,0-.19,0,.8.8,0,0,0-.32.06A.65.65,0,0,0,12.27,11.4Z"/><path class="cls-39" d="M11,11.1a.83.83,0,0,1,.58-.27c.4,0,.78,0,.87.16s0,.47-.17.47a8.37,8.37,0,0,0-1.17,0C11,11.37,11,11.1,11,11.1Z"/><path class="cls-40" d="M11,11.1a.83.83,0,0,1,.58-.27c.4,0,.78,0,.87.16s0,.47-.17.47a8.37,8.37,0,0,0-1.17,0C11,11.37,11,11.1,11,11.1Z"/><path class="cls-14" d="M12.27,11.49l-.29,0-.57,0a1.32,1.32,0,0,0-.3,0h0c-.1-.07-.11-.32-.11-.35h0a.84.84,0,0,1,.59-.28h.24a.85.85,0,0,1,.66.19.42.42,0,0,1,0,.38.22.22,0,0,1-.19.13Zm-.86-.11a4.93,4.93,0,0,1,.57,0h.3a.15.15,0,0,0,.14-.1.31.31,0,0,0,0-.32c-.06-.1-.3-.17-.61-.17l-.23,0a.78.78,0,0,0-.55.25.7.7,0,0,0,.08.29Z"/><path class="cls-41" d="M9.72,11.88a1.85,1.85,0,0,1,.5-.47,1.52,1.52,0,0,1,.81-.27c.22,0,.34.25.19.4a1.39,1.39,0,0,1-.58.28c-.31.09-.57.38-.74.35S9.72,11.88,9.72,11.88Z"/><path class="cls-14" d="M9.93,12.2h0c-.18,0-.21-.3-.21-.31h0a2,2,0,0,1,.51-.47,1.42,1.42,0,0,1,.83-.27.31.31,0,0,1,.27.19.24.24,0,0,1-.06.25,1.53,1.53,0,0,1-.59.29h0a1.36,1.36,0,0,0-.4.2A.7.7,0,0,1,9.93,12.2Zm-.18-.32s0,.23.16.26h0a.59.59,0,0,0,.29-.14,1.74,1.74,0,0,1,.41-.2h0a1.29,1.29,0,0,0,.56-.27.17.17,0,0,0,.05-.19.27.27,0,0,0-.22-.16,1.47,1.47,0,0,0-.8.26A1.75,1.75,0,0,0,9.75,11.88Z"/><path class="cls-42" d="M9,12.94a2.34,2.34,0,0,1,.28-.77c.22-.32.5-.43.65-.39s.16.35,0,.58-.62.72-.75.69S9,12.94,9,12.94Z"/><path class="cls-43" d="M9,12.94a2.34,2.34,0,0,1,.28-.77c.22-.32.5-.43.65-.39s.16.35,0,.58-.62.72-.75.69S9,12.94,9,12.94Z"/><path class="cls-14" d="M9.13,13.08h0c-.15,0-.16-.14-.16-.14H9a2.32,2.32,0,0,1,.29-.77.78.78,0,0,1,.61-.41h.07a.15.15,0,0,1,.12.12.57.57,0,0,1-.15.49C9.58,12.74,9.27,13.08,9.13,13.08ZM9,12.94s0,.07.11.09h0c.13,0,.58-.52.72-.69A.47.47,0,0,0,10,11.9a.11.11,0,0,0-.07-.09H9.85a.79.79,0,0,0-.57.39A2.16,2.16,0,0,0,9,12.94Z"/><path class="cls-44" d="M8.59,14a2.15,2.15,0,0,1,.05-.64c.09-.31.22-.52.38-.52s.19.18.19.36,0,.56-.15.7A.64.64,0,0,1,8.59,14Z"/><path class="cls-45" d="M8.59,14a2.15,2.15,0,0,1,.05-.64c.09-.31.22-.52.38-.52s.19.18.19.36,0,.56-.15.7A.64.64,0,0,1,8.59,14Z"/><path class="cls-14" d="M8.71,14H8.57v0a1.75,1.75,0,0,1,0-.65c.1-.34.25-.54.41-.54a.18.18,0,0,1,.13.06.51.51,0,0,1,.09.33v0c0,.19,0,.54-.16.68A.5.5,0,0,1,8.71,14Zm-.09-.06h.09a.48.48,0,0,0,.33-.1c.13-.12.14-.46.14-.64v0a.46.46,0,0,0-.07-.3l-.09,0c-.13,0-.27.18-.35.5A1.78,1.78,0,0,0,8.62,13.93Z"/><path class="cls-46" d="M11,15.44a5.11,5.11,0,0,1,2.88-1.21,1.32,1.32,0,0,0-.09-1.08c-.38-.48-1.18-.42-1.85-1.25a2.25,2.25,0,0,1-.25-1.41,6.64,6.64,0,0,0-2,.53,2.88,2.88,0,0,1,.17,1.17A4.2,4.2,0,0,0,11,15.44Z"/><path class="cls-47" d="M10.49,14.67c.2-.12.36-.29.56-.42.59-.4,1.9-.77,1.74-1a1.59,1.59,0,0,0-.34-.28c-.68-.6-1.24-.82-1.17-2.09-.43.3-1.06.13-1.57.49a2.77,2.77,0,0,1,.06.8C9.71,13.51,10.23,14.84,10.49,14.67Z"/><path class="cls-48" d="M10.49,14.67c.2-.12.36-.29.56-.42.59-.4,1.9-.77,1.74-1a1.59,1.59,0,0,0-.34-.28c-.68-.6-1.24-.82-1.17-2.09-.43.3-1.06.13-1.57.49a2.77,2.77,0,0,1,.06.8C9.71,13.51,10.23,14.84,10.49,14.67Z"/><path class="cls-15" d="M13.77,13.12a1.68,1.68,0,0,0-.69-.44,2.63,2.63,0,0,1-1.15-.81,2,2,0,0,1-.24-1.38v-.05h0A6.27,6.27,0,0,0,9.58,11l0,0v0a2.88,2.88,0,0,1,.17,1.15c0,.14,0,.37,0,.65A3.92,3.92,0,0,0,10,14.07a6.43,6.43,0,0,1-.23-1.88A2.8,2.8,0,0,0,9.65,11a6.69,6.69,0,0,1,1.95-.51,2.27,2.27,0,0,0,.26,1.39,2.79,2.79,0,0,0,1.18.83,1.71,1.71,0,0,1,.67.42,1.22,1.22,0,0,1,.08,1A5.24,5.24,0,0,0,11,15.38l0,0-.06.05a.46.46,0,0,1,.07.07l0,0,0,0a5,5,0,0,1,2.85-1.2h0v0A1.36,1.36,0,0,0,13.77,13.12Z"/><path class="cls-49" d="M12,1.23A3.31,3.31,0,0,0,7.78.58C6.91.49,5.86.19,6,2.51a17.11,17.11,0,0,1-.65,1.61c-.08.07-1.34.16-.66,1.57A21.16,21.16,0,0,0,6.72,9.45c.55.65.66,1.28,1.2,1.67a1.64,1.64,0,0,0,1.86,0,6.26,6.26,0,0,1,2.07-.55,5,5,0,0,0,3-1,2.93,2.93,0,0,0,.65-4A4.18,4.18,0,0,0,12,1.23Z"/><path class="cls-50" d="M13.19,1.87a1.41,1.41,0,0,1-.12.55,4.09,4.09,0,0,0-.2-.87A5,5,0,0,0,12,1.23,3.31,3.31,0,0,0,7.78.58C6.91.49,5.86.19,6,2.51a17.11,17.11,0,0,1-.65,1.61c-.08.07-1.34.16-.66,1.57A15.15,15.15,0,0,0,6.8,9.31c.4.59.6,1.48,1.12,1.81,1.54.77,2.08-.94,2.67-.65,0,0-.14.17-.11.15.64-.25,2.93-.62,3.8-1.55A3.09,3.09,0,0,0,14.74,5,3.06,3.06,0,0,0,13.19,1.87Z"/><path class="cls-51" d="M4.64,5.63c-.16-.41-.25-.81-.1-1S4.91,4.15,5.79,4A1,1,0,0,1,6,5.32C5.71,5.84,4.87,6.06,4.64,5.63Z"/><path class="cls-52" d="M5.22,4.33c.18.09.21.38.07.66s-.38.43-.56.34a.49.49,0,0,1-.11-.66C4.75,4.39,5.05,4.25,5.22,4.33Z"/><path class="cls-53" d="M7.84.62C7.3.54,6.74.42,6.35.8a3,3,0,0,0-.18,2.52A5.29,5.29,0,0,1,7.84.62Z"/><path class="cls-54" d="M6.12,2.47A1.85,1.85,0,0,1,6.43.81c.2-.2.76-.38,1.75-.11C6.9.68,6.11,1.06,6.12,2.47Z"/><path class="cls-55" d="M12,7.59c-1.34.59-.61,2.55-2.24,3.49a1.56,1.56,0,0,1-2-.07,6.18,6.18,0,0,1-.86-1.25,7.31,7.31,0,0,0,3.55-2.25A4.47,4.47,0,0,0,12,7.59Z"/><path class="cls-56" d="M10,10.27a1.72,1.72,0,0,1-2.47.32A1.35,1.35,0,0,0,10,10.27Z"/><path class="cls-57" d="M11,7.53a3.6,3.6,0,0,1-.45-.11,6.06,6.06,0,0,1-3.1,2.21c.18.77.56,1.31,1.33,1.29S10,9.64,10.29,8.87a1.91,1.91,0,0,1,1.24-1.33A2.55,2.55,0,0,1,11,7.53Z"/><path class="cls-32" d="M9.6,0a.27.27,0,0,0,0,.12.37.37,0,0,0,.72,0h0A3.82,3.82,0,0,0,9.6,0Z"/><path class="cls-32" d="M8.59.18a3.54,3.54,0,0,0-.74.35.41.41,0,0,0,0,.11c0,.12.32.22.49.17a.51.51,0,0,0,.3-.54A.35.35,0,0,0,8.59.18Z"/><path class="cls-15" d="M8.8,11.43h0a1.51,1.51,0,0,1-.9-.28,2.34,2.34,0,0,1-.68-.87,5,5,0,0,0-.53-.8A14.16,14.16,0,0,1,5.07,6.59l-.43-.88A1.29,1.29,0,0,1,4.5,4.63a1,1,0,0,1,.73-.51l.08,0a6.33,6.33,0,0,0,.32-.78c.1-.28.21-.57.31-.8A2.49,2.49,0,0,1,6.3.75,1,1,0,0,1,7.08.48a4,4,0,0,1,.5,0h.19A3.14,3.14,0,0,1,9.47,0a4,4,0,0,1,2.6,1.19,4.25,4.25,0,0,1,3.12,2.54,4.4,4.4,0,0,1,.31,1.83A2.54,2.54,0,0,1,16,7.74a3.49,3.49,0,0,1-1.14,1.85,5,5,0,0,1-3,1,6.44,6.44,0,0,0-2,.54A1.72,1.72,0,0,1,8.8,11.43ZM7.08.56a.94.94,0,0,0-.72.25A2.38,2.38,0,0,0,6,2.51H6c-.1.23-.21.53-.32.81a4,4,0,0,1-.34.82l-.11,0a1,1,0,0,0-.68.46,1.27,1.27,0,0,0,.14,1c.15.29.29.59.43.88A14.54,14.54,0,0,0,6.75,9.42a5.21,5.21,0,0,1,.54.82,2.41,2.41,0,0,0,.65.85,1.56,1.56,0,0,0,.86.26h0a1.7,1.7,0,0,0,.95-.3,6.28,6.28,0,0,1,2.09-.56,5,5,0,0,0,2.94-1,2.89,2.89,0,0,0,.65-3.93h0v0a4.41,4.41,0,0,0-.31-1.81A4.15,4.15,0,0,0,12,1.27h0A3.86,3.86,0,0,0,9.47.08,3,3,0,0,0,7.8.61h0l-.2,0A4,4,0,0,0,7.08.56Z"/><path class="cls-58" d="M11,7.53a3.6,3.6,0,0,1-.45-.11A6.84,6.84,0,0,1,9.08,8.81a.75.75,0,0,1,.92.83c.1-.24.22-.57.29-.77a1.91,1.91,0,0,1,1.24-1.33A2.55,2.55,0,0,1,11,7.53Z"/><path class="cls-59" d="M8.22,10.82a1.49,1.49,0,0,1,.27-1.64,4.48,4.48,0,0,1-1.08.45A1.56,1.56,0,0,0,8.22,10.82Z"/><path class="cls-60" d="M9,9.65c-.76-.22-1,.56-1.12.91a1.11,1.11,0,0,0,.89.36c.58,0,1-.69,1.29-1.35A.75.75,0,0,0,9,9.65Z"/><path class="cls-61" d="M8.75,10c-.07-.54-.74-.12-.8.63a.83.83,0,0,0,.79.29,1.18,1.18,0,0,0,1-1.21C9.63,9.37,9,9.47,8.75,10Z"/><path class="cls-62" d="M8.8,10c-.07-.25-.25-.33-.38-.25a.87.87,0,0,0-.43.9.8.8,0,0,0,.63.2C8.72,10.81,8.68,10.32,8.8,10Z"/><path class="cls-63" d="M9.58,9.57c-.29-.11-.71.18-.85.51s-.18.82,0,.81a1.11,1.11,0,0,0,.81-.61C9.72,10,9.72,9.63,9.58,9.57Z"/><path class="cls-64" d="M8.7,11h0a1.15,1.15,0,0,1-.88-.37l0,0v0c.07-.3.31-1,.92-1L9,9.6a.84.84,0,0,1,.58-.26.85.85,0,0,1,.52.2l0,0v0C9.68,10.49,9.24,11,8.74,11Zm-.81-.41a1.07,1.07,0,0,0,.81.33h0c.45,0,.87-.45,1.24-1.3a.73.73,0,0,0-.44-.15A.79.79,0,0,0,9,9.67v0H9l-.23,0C8.19,9.65,8,10.26,7.89,10.55Z"/><path class="cls-64" d="M9.05,9.52l0,.06a1.31,1.31,0,0,0-.37.55A.91.91,0,0,1,9.05,9.52Z"/><path class="cls-15" d="M8.7,11C8,11,7.58,10.53,7.37,9.64v0h0A6,6,0,0,0,10.48,7.4l0,0h0a2.42,2.42,0,0,0,.44.11l.36,0h.21v.07h0a1.92,1.92,0,0,0-1.2,1.3C9.9,10.23,9.35,11,8.74,11ZM7.46,9.66c.2.82.61,1.22,1.24,1.22h0c.57,0,1.09-.71,1.51-2a2.26,2.26,0,0,1,1-1.27l-.29,0a2.86,2.86,0,0,1-.45-.12A6.27,6.27,0,0,1,7.46,9.66Z"/><path class="cls-65" d="M13.07,2.43s-.22-1.7-1.42-2C10.22.07,9.49,1.66,9.49,1.66Z"/><path class="cls-66" d="M11.66.43A1.93,1.93,0,0,0,9.49,1.61c-.38.78-1.46,3.1-.11,3.5,1.85.57,3.82-1.43,3.69-2.69C13,2.15,12.89.72,11.66.43Z"/><path class="cls-67" d="M9.25,2.09C9.82,1,10.6.38,11.49.46c.63.06,1.33.64,1.58,2.19C12,.62,10.53.59,9.25,2.09Z"/><path class="cls-68" d="M10.31,2c-.77.07-1,1.63-1,2.59C9.4,6,10.35,6.24,11.07,6a2.74,2.74,0,0,1,1.31-.19C12.74,3.58,12,1.83,10.31,2Z"/><path class="cls-69" d="M10.49,2.54c-.74.14-1.15,1.15-1.1,2.12.09,1.45.94,1.6,1.69,1.46a1.6,1.6,0,0,0,1-2C11.9,3.18,11.19,2.4,10.49,2.54Z"/><path class="cls-70" d="M10.49,2.54c-.74.14-1.15,1.15-1.1,2.12.09,1.45.94,1.6,1.69,1.46a1.6,1.6,0,0,0,1-2C11.9,3.18,11.19,2.4,10.49,2.54Z"/><path class="cls-71" d="M10.92,3a.27.27,0,0,1-.31.25A.3.3,0,0,1,10.36,3a.28.28,0,0,1,.32-.25A.27.27,0,0,1,10.92,3Z"/><path class="cls-72" d="M10.87,3.3A1.25,1.25,0,0,0,10,4.69c0,.7.48,1.23,1,1.17a1.24,1.24,0,0,0,.86-1.38C11.82,3.77,11.38,3.24,10.87,3.3Z"/><path d="M10.9,3.87a.8.8,0,0,0-.57.9c0,.46.32.81.66.77s.6-.43.58-.9S11.24,3.84,10.9,3.87Z"/><path class="cls-73" d="M11.44,4.32A.22.22,0,0,1,11,4.27a.22.22,0,1,1,.43.05Z"/><path class="cls-74" d="M10.46,3.63c-.24.22-.33.51-.21.65s.41.09.65-.13.33-.5.21-.64S10.7,3.42,10.46,3.63Z"/><path d="M10.46,2.39c-.79.15-1.14,1.35-1.09,2.27A1.67,1.67,0,0,0,9.9,6a1.41,1.41,0,0,0,1.18.19c.75-.15,1.23-1,1-2.1S11.14,2.25,10.46,2.39Zm.61,3.7a1.36,1.36,0,0,1-1.15-.18,1.6,1.6,0,0,1-.5-1.25c-.05-.91.3-1.95,1.07-2.1s1.38.59,1.57,1.58A1.56,1.56,0,0,1,11.07,6.09Z"/><path class="cls-75" d="M10,6.65l2.61-.73A1.87,1.87,0,0,0,10,6.65Z"/><path class="cls-76" d="M12.85,6.1c.09.28-.07,1-1.14,1.28A1.47,1.47,0,0,1,10,7c-.09-.28.45-1,1.17-1.21S12.77,5.83,12.85,6.1Z"/><path class="cls-77" d="M12.49,6.07c.09.29-.33.68-.94.87s-1.18.1-1.27-.19.3-.73.91-.92S12.4,5.78,12.49,6.07Z"/><path class="cls-15" d="M11.15,5.7a2,2,0,0,0-1.15,1,2.11,2.11,0,0,1,1.17-1,2.06,2.06,0,0,1,1.47.15A1.87,1.87,0,0,0,11.15,5.7Z"/><path class="cls-78" d="M6.91,1.73c-.6-.17-1.32.62-1.54,1.36a1.13,1.13,0,0,0,.8,1.46c.59.17,1.07.25,1.24-.89C7.52,2.9,7.22,1.82,6.91,1.73Z"/><path class="cls-69" d="M6.46,2.16c-.61-.06-1.16.62-1.34,1.38-.27,1.14.35,1.46,1,1.52s1.16-.52,1.24-1.3S7,2.21,6.46,2.16Z"/><path class="cls-79" d="M6.46,2.16c-.61-.06-1.16.62-1.34,1.38-.27,1.14.35,1.46,1,1.52s1.16-.52,1.24-1.3S7,2.21,6.46,2.16Z"/><path class="cls-80" d="M6.41,2.59a.23.23,0,0,1-.3.12A.22.22,0,0,1,6,2.41a.23.23,0,0,1,.42.18Z"/><path class="cls-81" d="M6.38,2.71c-.41-.07-.85.32-1,.87s.08,1.07.49,1.14.85-.32,1-.87S6.79,2.79,6.38,2.71Z"/><path d="M6.27,3.16c-.27-.05-.56.2-.65.56A.58.58,0,0,0,6,4.47c.27.06.56-.19.65-.56A.58.58,0,0,0,6.27,3.16Z"/><path class="cls-82" d="M6.6,3.61a.22.22,0,1,1-.19-.24A.21.21,0,0,1,6.6,3.61Z"/><path class="cls-83" d="M6,2.87c-.23.11-.37.32-.32.45s.3.17.54.06.37-.31.31-.45S6.23,2.77,6,2.87Z"/><path d="M6.47,2C5.82,2,5.28,2.81,5.1,3.54a1.34,1.34,0,0,0,.11,1.11,1.14,1.14,0,0,0,.87.43c.61.06,1.18-.47,1.26-1.39S7,2.09,6.47,2ZM6.08,5a1.1,1.1,0,0,1-.84-.41,1.27,1.27,0,0,1-.1-1.08c.17-.72.69-1.44,1.32-1.38s.92.78.84,1.59A1.26,1.26,0,0,1,6.08,5Z"/><path class="cls-84" d="M6.93,1.61A10.1,10.1,0,0,0,5.79,4.68,2.31,2.31,0,0,0,4,6.52c-.28,0-.5.39-.1,1.12.22.4.32,1.94,1.55,2.14a5.37,5.37,0,0,0,5-2.34Z"/><path class="cls-85" d="M5.8,4.67A2.3,2.3,0,0,0,4,6.51c-.28,0-.5.39-.11,1.11.17.31.27,1.27.85,1.81a3.54,3.54,0,0,0,2.16.09,8.5,8.5,0,0,0,3.59-2.1L7.73,2.17l-.8-.57A10.49,10.49,0,0,0,5.8,4.67Z"/><path class="cls-86" d="M5.84,4.65A2.31,2.31,0,0,0,4,6.49c-.29,0-.51.39-.1,1.11.17.3.27,1.27.87,1.8A3.67,3.67,0,0,0,7,9.41c2.21-.6,3.23-1.95,3.33-2.6L7.49,1.94,7,1.52A11.07,11.07,0,0,0,5.84,4.65Z"/><path class="cls-87" d="M7,4.92a2.24,2.24,0,0,0-2.7,1.72c-.09.43.76.43,1-.34A1.82,1.82,0,0,1,7,4.92Z"/><path class="cls-88" d="M11,.42A3.09,3.09,0,0,0,8.31.32C7,.89,6.15,3.05,5.76,4.68c.78-.24,2.86.83,3.06-1.08C8.94,2.41,9.67.7,11,.42Z"/><path class="cls-89" d="M10.13.14C7.59-.31,6.46,2,6,4.15c-.12.56.84.34.94-.36C7.27,1.52,8.42.22,10.13.14Z"/><path class="cls-15" d="M6.09,9.87a3.65,3.65,0,0,1-.65,0C4.47,9.66,4.19,8.71,4,8.07a3.75,3.75,0,0,0-.14-.41,1.06,1.06,0,0,1-.14-1A.28.28,0,0,1,4,6.48,2.36,2.36,0,0,1,5.75,4.65a8.3,8.3,0,0,1,.57-1.94A5.82,5.82,0,0,1,6.93,1.6a10.92,10.92,0,0,0-1.1,3.09v0h0A2.27,2.27,0,0,0,4,6.53v0H4a.23.23,0,0,0-.21.1c-.1.16-.11.49.15,1a2.87,2.87,0,0,1,.15.43c.17.61.44,1.54,1.36,1.69a5.24,5.24,0,0,0,5-2.33l.07,0a6.25,6.25,0,0,1-2.73,2.1A4.76,4.76,0,0,1,6.09,9.87Z"/><path class="cls-90" d="M4,6.84a.61.61,0,0,0,0,.38c0,.2.12.37.22.33s.05-.31,0-.38S4,6.82,4,6.84Z"/><path class="cls-91" d="M4,7.22c0,.2.12.37.22.33s0-.39,0-.4C4.12,7.58,4,7.22,4,7.22Z"/><path class="cls-15" d="M4.15,7.6h0c-.15,0-.22-.29-.23-.38a.52.52,0,0,1,0-.41H4c.09,0,.23.21.27.36s0,.39-.06.43ZM4,6.89a.78.78,0,0,0,0,.32c0,.2.1.31.15.31h0s0-.14,0-.35A.62.62,0,0,0,4,6.89Z"/><path class="cls-90" d="M6.72,7.06c-.34-.25-.71.59-.64.66a.59.59,0,0,0,.56-.11C6.79,7.48,6.9,7.18,6.72,7.06Z"/><path class="cls-91" d="M6.72,7.06l0,0c.08.29-.24.63-.59.7a.65.65,0,0,0,.53-.13C6.79,7.48,6.9,7.18,6.72,7.06Z"/><path class="cls-15" d="M6.23,7.79h0s-.14,0-.18,0,0-.2,0-.29S6.39,7,6.59,7a.3.3,0,0,1,.16,0,.26.26,0,0,1,.1.2.57.57,0,0,1-.19.42A.62.62,0,0,1,6.23,7.79ZM6.11,7.7h.12a.57.57,0,0,0,.38-.13.47.47,0,0,0,.16-.35.17.17,0,0,0-.07-.14.15.15,0,0,0-.11,0,.42.42,0,0,0-.28.21A1,1,0,0,0,6.11,7.7Z"/><path class="cls-32" d="M9.18.42c-.07,0-.36.28-.31.46s.3.18.48.11S9.66.7,9.62.58A.47.47,0,0,0,9.18.42Z"/><path class="cls-32" d="M8,1.14a.24.24,0,0,0-.2.26.24.24,0,0,0,.2.26c.11,0,.2-.11.2-.26A.24.24,0,0,0,8,1.14Z"/><path class="cls-32" d="M8.8,1.14c-.08,0-.37.31-.34.4s.23.19.27.19S9,1.55,9,1.48,8.88,1.15,8.8,1.14Z"/><path class="cls-32" d="M8.36,1.84S8.05,2,8,2s.07.25.09.29.31,0,.34,0S8.45,1.87,8.36,1.84Z"/><path class="cls-92" d="M15.17,6.59c-.14.1-.22.9.1.93s.46-.36.46-.56S15.29,6.52,15.17,6.59Z"/><path class="cls-93" d="M15.17,6.59c-.12.09-.21.77,0,.91a2.79,2.79,0,0,0,.12-.9A.24.24,0,0,0,15.17,6.59Z"/><path class="cls-93" d="M14.22,7.34c-.1,0-.4.46-.35.57a1.07,1.07,0,0,0,.59.32c.14,0,.35-.42.31-.56S14.41,7.3,14.22,7.34Z"/><path class="cls-93" d="M13.65,7c-.06,0-.23.25-.23.4s.29.1.33.06S13.76,7,13.65,7Z"/><path class="cls-93" d="M13.61,8.13s-.12.53,0,.6S14,8.6,14,8.51,13.7,8.09,13.61,8.13Z"/><path class="cls-92" d="M14.28,8.64a.5.5,0,0,0-.2.43.29.29,0,0,0,.27.19c.08,0,.21-.25.21-.38S14.35,8.63,14.28,8.64Z"/><path class="cls-93" d="M14.28,8.64a.5.5,0,0,0-.2.43.23.23,0,0,0,.08.12,1.89,1.89,0,0,0,.36-.4A.38.38,0,0,0,14.28,8.64Z"/><path class="cls-92" d="M15.25,7.9c-.09,0-.48.3-.46.55s.41.18.49.05S15.38,7.94,15.25,7.9Z"/><path class="cls-91" d="M15,8.08a.52.52,0,0,0-.18.33C14.86,8.3,14.9,8.2,15,8.08Z"/><path class="cls-15" d="M9.7,11.18l0-.07a1.21,1.21,0,0,0,.33-.3l.08-.09a1.09,1.09,0,0,1,.52-.25,1.7,1.7,0,0,0-.46.31l-.08.08A1.36,1.36,0,0,1,9.7,11.18Z"/><path class="cls-15" d="M15.5,5.69a2.52,2.52,0,0,0-.86-.63,2.13,2.13,0,0,1,.92.58Z"/><path class="cls-15" d="M7.25,1.19A2,2,0,0,1,7.79.52l0,.06A4,4,0,0,0,7.25,1.19Z"/><path class="cls-15" d="M13.07,2.43h0c-.1-.47-.4-1.89-1.7-2A2,2,0,0,0,9.49,1.66,1.71,1.71,0,0,1,10,.87,1.81,1.81,0,0,1,11.38.35a1.79,1.79,0,0,1,1.52,1.2A3.35,3.35,0,0,1,13.07,2.43Z"/><path class="cls-15" d="M6.72,4.81a3.22,3.22,0,0,0-1-.06V4.67A2.37,2.37,0,0,1,6.72,4.81Z"/><path class="cls-15" d="M11.24,7.61a2,2,0,0,1-.75-.15A1,1,0,0,1,10,7.08,2,2,0,0,0,12,7.4,1,1,0,0,1,11.24,7.61Z"/><path class="cls-15" d="M4.2,6.71a.25.25,0,0,0-.29-.14V6.49C4.11,6.45,4.2,6.71,4.2,6.71Z"/><path class="cls-94" d="M18.47,19.77s-.11,1.87-1.19,2.51c-1.4.07-1.66-.54-1.65-1s.15-1.25.45-1.3S18.47,19.77,18.47,19.77Z"/><path class="cls-95" d="M16.45,20.57a1.92,1.92,0,0,0-.07.5c0,.14,0,.5.29.62a1.31,1.31,0,0,0,.53.14h0a.33.33,0,0,0,.19,0,1,1,0,0,0,.35-.45.52.52,0,0,0-.07-.39.48.48,0,0,0-.33-.26A5,5,0,0,0,16.45,20.57Z"/><path class="cls-96" d="M16.45,20.57a1.92,1.92,0,0,0-.07.5c0,.14,0,.5.29.62a1.31,1.31,0,0,0,.53.14h0a.33.33,0,0,0,.19,0,1,1,0,0,0,.35-.45.52.52,0,0,0-.07-.39.48.48,0,0,0-.33-.26A5,5,0,0,0,16.45,20.57Z"/><path class="cls-4" d="M17.08,22.31a1.73,1.73,0,0,1-1.25-.37.84.84,0,0,1-.23-.61c0-.33.13-1.26.47-1.33s2.31-.25,2.4-.26h0v0s-.12,1.9-1.21,2.54h-.21Zm1.36-2.51c-.26,0-2.08.21-2.36.26s-.42.84-.43,1.27a.81.81,0,0,0,.22.57,1.86,1.86,0,0,0,1.4.36A3.44,3.44,0,0,0,18.44,19.8Z"/><path class="cls-4" d="M17.2,21.88h0a1.39,1.39,0,0,1-.55-.14c-.3-.14-.32-.52-.33-.66a2.38,2.38,0,0,1,.08-.55v0h0a6.46,6.46,0,0,1,.92.12.56.56,0,0,1,.37.28.7.7,0,0,1,.08.44,1.35,1.35,0,0,1-.37.48A.39.39,0,0,1,17.2,21.88Zm-.75-1.31a1.92,1.92,0,0,0-.07.5c0,.14,0,.5.29.62a1.31,1.31,0,0,0,.53.14h0a.33.33,0,0,0,.19,0,1,1,0,0,0,.35-.45.52.52,0,0,0-.07-.39.48.48,0,0,0-.33-.26A5,5,0,0,0,16.45,20.57Z"/><path class="cls-4" d="M17,21.71a.54.54,0,0,1-.2,0,.69.69,0,0,1-.32-.52,1.65,1.65,0,0,1,.11-.53v0h0s.59.09.69.09h0c.1,0,.26.28.31.39s-.12.41-.21.5A.68.68,0,0,1,17,21.71Zm-.37-1.05a1.83,1.83,0,0,0-.1.48.69.69,0,0,0,.29.48.45.45,0,0,0,.18,0,.61.61,0,0,0,.38-.11c.09-.09.24-.32.2-.44s-.21-.36-.26-.36h0C17.17,20.74,16.69,20.67,16.58,20.66Z"/><path class="cls-4" d="M17,21.52h0c-.18,0-.28-.27-.32-.39a.71.71,0,0,1,0-.4v0h0l.17,0a.52.52,0,0,1,.4.17v0a.48.48,0,0,1,.09.42c0,.12-.17.2-.38.22Zm-.24-.76a.63.63,0,0,0,0,.35c.05.17.15.35.27.35h0c.19,0,.3-.07.33-.17a.46.46,0,0,0-.06-.37l0,0a.45.45,0,0,0-.36-.15Z"/><path class="cls-4" d="M17,21.33h-.07a.11.11,0,0,1-.09-.05c-.08-.08,0-.26,0-.27s.16-.13.24-.13h.05c.08,0,.19.24.19.32s0,0,0,.06A.39.39,0,0,1,17,21.33Zm0-.41c-.08,0-.19,0-.19.09a.4.4,0,0,0,0,.23.05.05,0,0,0,.05,0H17a.34.34,0,0,0,.21-.05,0,0,0,0,0,0,0,.46.46,0,0,0-.16-.27Z"/><path class="cls-97" d="M13.59,21.84a9.25,9.25,0,0,1,2.58-.08c1.13.18,1.86.78,1.83,1.64a26.65,26.65,0,0,1-4.41.35c-.28,0-1.2,0-1.2,0Z"/><path class="cls-98" d="M15.16,21.7a11,11,0,0,0-1.57.14l1.24.85s.09-.27.18,0a2.84,2.84,0,0,0,2.37.85C17.45,22.24,16.55,21.77,15.16,21.7Z"/><path class="cls-99" d="M15.16,21.7a11,11,0,0,0-1.57.14l1.24.85s.09-.27.18,0a2.84,2.84,0,0,0,2.37.85C17.45,22.24,16.55,21.77,15.16,21.7Z"/><path class="cls-15" d="M13.57,21.83h0a10.62,10.62,0,0,1,1.68-.15,5,5,0,0,1,.9.07,2.61,2.61,0,0,1,1.37.57A1.38,1.38,0,0,1,18,23.4v0h0a26,26,0,0,1-4.34.34H12.34Zm2.59,0a5.93,5.93,0,0,0-.89-.06,10.47,10.47,0,0,0-1.66.14l-1.17,1.85h1.23a27.07,27.07,0,0,0,4.3-.33C18,22.57,17.31,22,16.16,21.79Z"/><path class="cls-100" d="M9.78,25.39a1,1,0,0,0,.8.25c.26-.12.34-.75.34-.75l-1.07-.08Z"/><path class="cls-14" d="M10.41,25.69h0a1.14,1.14,0,0,1-.65-.28h0l.08-.62,1.12.08v0s-.08.65-.35.77h0Zm-.6-.31a1,1,0,0,0,.6.26h0a.41.41,0,0,0,.16,0c.22-.1.3-.58.32-.7l-1-.07Z"/><path class="cls-101" d="M9,25.32s.72.33.95.12,0-.68,0-.68l-1.06-.22Z"/><path class="cls-14" d="M9.72,25.54h0a2.14,2.14,0,0,1-.73-.2H9l-.12-.84,1.11.24h0s.24.49,0,.71A.36.36,0,0,1,9.72,25.54ZM9,25.3a2.14,2.14,0,0,0,.69.18h0a.34.34,0,0,0,.22-.06c.19-.18,0-.56,0-.63l-1-.22Z"/><path class="cls-102" d="M10.62,25a1.16,1.16,0,0,1-.39,1c-.51.5-.9.89-.3,1a2.48,2.48,0,0,0,1.66-1c.25-.3.63-1,.55-1.29C12,24.27,10.62,25,10.62,25Z"/><path class="cls-103" d="M11.43,25.26c-.29,0-.59-.07-.73-.32l-.08,0a1.16,1.16,0,0,1-.39,1c-.44.44-.79.78-.49.91A2.23,2.23,0,0,0,11.43,25.26Z"/><path class="cls-15" d="M10,27H9.92c-.18,0-.28-.07-.31-.16s.23-.47.6-.83h0a1.17,1.17,0,0,0,.39-1v0h0a4,4,0,0,1,1.27-.43c.16,0,.25,0,.28.15.09.27-.31,1-.55,1.32A2.7,2.7,0,0,1,10,27Zm.66-2a1.17,1.17,0,0,1-.4,1h0c-.32.32-.63.63-.58.77s.11.11.27.12H10a2.6,2.6,0,0,0,1.58-1c.26-.31.62-1,.54-1.26,0-.08-.1-.12-.23-.12A4,4,0,0,0,10.65,25Z"/><path class="cls-104" d="M10.55,24.14h0c-1.22.43-1.67-.06-1.67-.06a1.79,1.79,0,0,0,2.22,1A1.39,1.39,0,0,1,10.55,24.14Z"/><path class="cls-105" d="M12.86,24a2.39,2.39,0,0,1-2.31.12,1.39,1.39,0,0,0,.52.89h0A1.75,1.75,0,0,0,12.86,24Z"/><path class="cls-106" d="M10.49,25.13a1.76,1.76,0,0,1-1.67-1.05v0h0s2.2-.1,3.34-.1c.66,0,.69,0,.7,0a0,0,0,0,1,0,0h0a1.87,1.87,0,0,1-1.6,1.06h0a.6.6,0,0,1-.2,0A3.26,3.26,0,0,1,10.49,25.13Zm-1.6-1a1.7,1.7,0,0,0,1.6,1,2.44,2.44,0,0,0,.59-.07h0a.54.54,0,0,0,.19,0,1.81,1.81,0,0,0,1.54-1,4.59,4.59,0,0,0-.65,0C11.13,24,9.19,24.08,8.89,24.09Z"/><path class="cls-107" d="M8,22a9.5,9.5,0,0,0-2.58-.09c-1.13.18-1.86.78-1.83,1.64A26.65,26.65,0,0,0,8,23.85c.28,0,1.2,0,1.2,0Z"/><path class="cls-108" d="M5.62,23c.11-.08,1.84-.33,1.9-.44s0-.43.1-.71a10.47,10.47,0,0,0-2.17,0c-1.13.18-1.86.78-1.83,1.64a19.13,19.13,0,0,0,3.57.33C7,23.49,5.29,23.22,5.62,23Z"/><path class="cls-109" d="M5.6,23c.09-.11,1.86-.34,1.92-.45s0-.43.1-.71a10.47,10.47,0,0,0-2.17,0c-1,.16-1.63.61-1.79,1.28C3.66,23.14,5.42,23.05,5.6,23Z"/><path class="cls-15" d="M9.28,23.88H8a25.94,25.94,0,0,1-4.34-.35h0a1.38,1.38,0,0,1,.49-1.1,2.69,2.69,0,0,1,1.37-.57,4.91,4.91,0,0,1,.9-.07A10.62,10.62,0,0,1,8,21.92h0Zm-5.63-.39a27,27,0,0,0,4.3.33H9.18L8,22a10.47,10.47,0,0,0-1.66-.14,5.93,5.93,0,0,0-.89.06C4.31,22.07,3.63,22.67,3.65,23.49Z"/><path class="cls-110" d="M8.53,14.64a2.25,2.25,0,0,1-.17.21,2.79,2.79,0,0,0-.72,1.67,3.49,3.49,0,0,1,2.3-.06,2.33,2.33,0,0,1,.31-1.22A2.43,2.43,0,0,0,8.53,14.64Z"/><path class="cls-111" d="M8.48,15.08c.17-.22,1.27-.19,1.27.07A1.45,1.45,0,0,1,9.6,16a2.14,2.14,0,0,1-1.39,0C8.09,15.92,8.23,15.41,8.48,15.08Z"/><path class="cls-112" d="M8.56,15.2c.13-.18,1-.15,1,.06a1.26,1.26,0,0,1-.12.7,1.69,1.69,0,0,1-1.13,0C8.24,15.89,8.35,15.48,8.56,15.2Z"/><path class="cls-113" d="M10.47,14.27c-.49-.06-1.24-.84-1.87-.41,0,0-.32.21-.11.42s.13.24,0,.36a2.53,2.53,0,0,1,1.72.6l.05-.07C10.43,15,10.27,14.57,10.47,14.27Z"/><path class="cls-114" d="M9,13.9a2,2,0,0,1,1,.38c.19.14,0,.54-.18.46s-.84-.2-.9-.25A.4.4,0,0,1,9,13.9Z"/><path class="cls-115" d="M9.1,14a1.56,1.56,0,0,1,.81.29c.15.11,0,.42-.14.36s-.66-.16-.71-.2A.31.31,0,0,1,9.1,14Z"/><path class="cls-116" d="M14.42,14.89a2.48,2.48,0,0,1,0-1c.06-.27-.34-.82-.67-.62a8.91,8.91,0,0,1-3.16,1s-.08,0-.11,0c-.26.38,0,.76-.24,1l0,.06C10.68,14.55,13.07,14.64,14.42,14.89Z"/><path class="cls-117" d="M12.94,14a7.78,7.78,0,0,0-2.13.45c-.18.15-.07.37.17.33s1.59-.21,1.65-.26S13.05,14,12.94,14Z"/><path class="cls-118" d="M12.58,14.13a5.16,5.16,0,0,0-1.49.32c-.13.1-.05.25.12.23s1.11-.15,1.16-.19S12.66,14.15,12.58,14.13Z"/><path class="cls-119" d="M14.72,15.68a2.8,2.8,0,0,1-.3-.79c-1.39-.25-3.66-.36-4.23.43a2.74,2.74,0,0,0-.25,1.14h0a8.67,8.67,0,0,1,3.59-.07,10.55,10.55,0,0,1,1.43.34S15.19,16.57,14.72,15.68Z"/><path class="cls-120" d="M10.69,15.14c.32-.31,2.52-.31,2.52-.06s.07.69-.07.87a7.76,7.76,0,0,1-2.67.11A.81.81,0,0,1,10.69,15.14Z"/><path class="cls-121" d="M10.92,15.25c.25-.23,1.93-.23,1.93,0s.06.52,0,.67a5.9,5.9,0,0,1-2.05.08A.64.64,0,0,1,10.92,15.25Z"/><path class="cls-106" d="M10.43,17.17c-1.87,0-2.79-.16-2.81-.49a2.63,2.63,0,0,1,.72-1.85l.06-.07c.18-.21.24-.29.07-.46a.21.21,0,0,1-.08-.19c0-.15.19-.27.2-.28A.8.8,0,0,1,9,13.7a2.2,2.2,0,0,1,.93.32,1.6,1.6,0,0,0,.64.24,9,9,0,0,0,3.15-1,.34.34,0,0,1,.17-.05.51.51,0,0,1,.37.22.6.6,0,0,1,.17.47,2.55,2.55,0,0,0,.3,1.81c.48.89.25,1.27.24,1.28h0S12.48,17.17,10.43,17.17ZM9,13.76a.69.69,0,0,0-.39.12.46.46,0,0,0-.18.24.17.17,0,0,0,.07.14c.2.21.11.33-.07.53l-.06.08a2.61,2.61,0,0,0-.71,1.8c0,.21.51.45,2.76.45,2,0,4.3-.19,4.51-.21,0-.07.17-.44-.25-1.22a2.57,2.57,0,0,1-.3-1.84.6.6,0,0,0-.16-.43.46.46,0,0,0-.33-.19.23.23,0,0,0-.14,0,9.3,9.3,0,0,1-3.17,1h0a1.72,1.72,0,0,1-.66-.24A2.06,2.06,0,0,0,9,13.76Z"/><path class="cls-122" d="M10,16.44l0,0a3.9,3.9,0,0,0-2.08-.05c-.5.1-.67.94-.74,1.68s.08.81.08.81.68-.7,2.55,0h.05A5.71,5.71,0,0,1,10,16.44Z"/><path class="cls-123" d="M7.75,16.81c.18-.3,1.68-.31,1.72,0a2.63,2.63,0,0,1-.15,1.34c-.14.25-1.59.25-1.76.1S7.48,17.28,7.75,16.81Z"/><path class="cls-124" d="M7.9,17c.14-.25,1.35-.25,1.38,0a2.12,2.12,0,0,1-.12,1.08c-.11.2-1.28.19-1.41.08S7.68,17.36,7.9,17Z"/><path class="cls-125" d="M15.75,18.34c0-.36-.36-.69-.45-.84s-.05-.56-.24-.68A9.44,9.44,0,0,0,10,16.44a5.71,5.71,0,0,0-.18,2.4,8.79,8.79,0,0,1,5.94.53C15.75,19.12,15.77,18.7,15.75,18.34Z"/><path class="cls-126" d="M10.45,16.67c.19-.31,2.67-.32,2.78,0a2.38,2.38,0,0,1,0,1.5,7.21,7.21,0,0,1-2.89.05A1.86,1.86,0,0,1,10.45,16.67Z"/><path class="cls-127" d="M10.77,16.86a3.21,3.21,0,0,1,2,0,1.78,1.78,0,0,1,0,1.1,5.35,5.35,0,0,1-2.11,0A1.35,1.35,0,0,1,10.77,16.86Z"/><path class="cls-106" d="M15.17,19.72c-1.19,0-7.76-.52-7.83-.53h0a1.44,1.44,0,0,1-.23-1.1c.1-1.06.35-1.61.76-1.7a5.4,5.4,0,0,1,1.08-.12,2.72,2.72,0,0,1,1,.17,5.34,5.34,0,0,1,1.77-.2,9.06,9.06,0,0,1,3.36.56h0c.13.08.16.27.18.44a1.09,1.09,0,0,0,.07.25l.1.14a1.29,1.29,0,0,1,.35.71,1.67,1.67,0,0,0,.07.29c.07.28.17.62,0,.85A.8.8,0,0,1,15.17,19.72Zm-7.81-.58c.32,0,6.64.52,7.81.52a.75.75,0,0,0,.63-.21c.16-.21.07-.54,0-.81a1.43,1.43,0,0,1-.06-.3,1.33,1.33,0,0,0-.34-.68.92.92,0,0,1-.11-.15.81.81,0,0,1-.07-.26c0-.16-.05-.34-.16-.41a9.18,9.18,0,0,0-3.34-.56,5.09,5.09,0,0,0-1.75.2v0h0a2.62,2.62,0,0,0-1-.17,5.23,5.23,0,0,0-1.07.12c-.38.07-.61.61-.72,1.65A1.57,1.57,0,0,0,7.36,19.14Z"/><path class="cls-128" d="M10.22,22.61h0a2.4,2.4,0,0,1-2.4-.32s.09,1.58.92,1.92a2.64,2.64,0,0,0,1.81-.08A2.84,2.84,0,0,1,10.22,22.61Z"/><path class="cls-129" d="M8.64,23.3c.11-.18,1.08-.2,1.15,0a.82.82,0,0,1,.05.66c-.08.14-1,.14-1.11.06A.57.57,0,0,1,8.64,23.3Z"/><path class="cls-130" d="M8.64,23.3c.11-.18,1.08-.2,1.15,0a.82.82,0,0,1,.05.66c-.08.14-1,.14-1.11.06A.57.57,0,0,1,8.64,23.3Z"/><path class="cls-131" d="M15.31,22a6.32,6.32,0,0,1-5.09.58,2.84,2.84,0,0,0,.31,1.51h0a3.09,3.09,0,0,0,2.4.12,7,7,0,0,0,1.93-.75A2.16,2.16,0,0,0,15.31,22Z"/><path class="cls-132" d="M11.16,23.32a1.89,1.89,0,0,1,1.32-.05c.1.23.16.46,0,.6a2.9,2.9,0,0,1-1.28.08A.43.43,0,0,1,11.16,23.32Z"/><path class="cls-133" d="M11.34,23.44a1.39,1.39,0,0,1,1,0,.46.46,0,0,1,0,.43,2,2,0,0,1-.94.06A.32.32,0,0,1,11.34,23.44Z"/><path class="cls-106" d="M11.66,24.43a1.89,1.89,0,0,1-1.12-.28,3.37,3.37,0,0,1-1.09.21,2,2,0,0,1-.74-.13c-.84-.35-1-2.13-1-2.2v0h0a9.6,9.6,0,0,0,2.49.3,19.25,19.25,0,0,0,4.77-.7l.26-.06h0v0a3.65,3.65,0,0,1-.45,2,7.12,7.12,0,0,1-2,.76A5.8,5.8,0,0,1,11.66,24.43Zm-1.11-.35h0a1.84,1.84,0,0,0,1.1.29,6.46,6.46,0,0,0,1.27-.16,7.47,7.47,0,0,0,1.92-.75,3.82,3.82,0,0,0,.45-1.88l-.24.06a19.35,19.35,0,0,1-4.78.7,9.91,9.91,0,0,1-2.47-.29c0,.27.18,1.81.92,2.12a2,2,0,0,0,.72.13,3,3,0,0,0,1.08-.22Z"/><path class="cls-134" d="M15.18,22.21s-.44.91-.06,1.22a.35.35,0,0,0,.6-.11c.1-.3.17-.91,0-1S15.18,22.21,15.18,22.21Z"/><path class="cls-135" d="M15.18,22.21s-.44.91-.06,1.22a.35.35,0,0,0,.6-.11c.1-.3.17-.91,0-1S15.18,22.21,15.18,22.21Z"/><path class="cls-14" d="M15.3,23.56h0a.56.56,0,0,1-.2-.11c-.39-.32,0-1.21.06-1.25v0h0l.27.07.23.07a.14.14,0,0,1,.1.1,1.52,1.52,0,0,1,0,.91A.35.35,0,0,1,15.3,23.56Zm-.1-1.32c-.06.13-.39.9-.06,1.17a.52.52,0,0,0,.18.1.3.3,0,0,0,.37-.2,1.46,1.46,0,0,0,.05-.87.12.12,0,0,0-.07-.07l-.22-.07Z"/><path class="cls-136" d="M9.87,20.72l0,0a3.56,3.56,0,0,1-2.42-.28s-.06,1.49.46,1.87a2.35,2.35,0,0,0,2.33.31A3.1,3.1,0,0,1,9.87,20.72Z"/><path class="cls-137" d="M8,21.17c.15-.27,1.43-.24,1.51,0a1.56,1.56,0,0,1,0,1.06c-.11.23-1.25,0-1.4-.09A.86.86,0,0,1,8,21.17Z"/><path class="cls-138" d="M8.13,21.31c.12-.21,1.1-.18,1.16,0a1.31,1.31,0,0,1,0,.82c-.1.17-1,0-1.09-.07A.66.66,0,0,1,8.13,21.31Z"/><path class="cls-139" d="M15.56,20.47a11.16,11.16,0,0,1-5.69.25,3.1,3.1,0,0,0,.33,1.88h0c.3.23,3.3.7,4.93-.48A1.87,1.87,0,0,0,15.56,20.47Z"/><path class="cls-140" d="M10.53,21.28a5.14,5.14,0,0,1,2.73.09,1.59,1.59,0,0,1,.08,1.11,6.23,6.23,0,0,1-2.72.05A1.07,1.07,0,0,1,10.53,21.28Z"/><path class="cls-141" d="M10.84,21.44a4.06,4.06,0,0,1,2.11.07,1.32,1.32,0,0,1,.07.87,5,5,0,0,1-2.11,0A.83.83,0,0,1,10.84,21.44Z"/><path class="cls-106" d="M12.18,22.9h0a5.31,5.31,0,0,1-1.95-.28,1.33,1.33,0,0,1-.78.21,3,3,0,0,1-1.6-.52c-.53-.38-.48-2-.48-2.06v0h0a33.21,33.21,0,0,0,3.78.2c1.3,0,2.47-.06,3.25-.1l.94,0h.19v0a2.29,2.29,0,0,1-.38,1.81h0A5.29,5.29,0,0,1,12.18,22.9Zm-1.95-.35v0a5.24,5.24,0,0,0,1.94.28,5.21,5.21,0,0,0,3-.76,2.19,2.19,0,0,0,.37-1.74h-.14l-.94,0c-.77,0-1.94.09-3.25.09a32.81,32.81,0,0,1-3.75-.19c0,.22,0,1.65.45,2a3,3,0,0,0,1.57.51,1.27,1.27,0,0,0,.76-.21Z"/><path class="cls-142" d="M15.33,20.94s-.5,1-.07,1.38a.39.39,0,0,0,.67-.12c.12-.34.2-1,0-1.11S15.33,20.94,15.33,20.94Z"/><path class="cls-143" d="M15.33,20.94s-.5,1-.07,1.38a.39.39,0,0,0,.67-.12c.12-.34.2-1,0-1.11S15.33,20.94,15.33,20.94Z"/><path class="cls-14" d="M15.46,22.48h0a.76.76,0,0,1-.23-.13c-.44-.36,0-1.38.07-1.42v0h0l.31.08.26.07a.23.23,0,0,1,.12.12,1.76,1.76,0,0,1-.06,1A.4.4,0,0,1,15.46,22.48ZM15.35,21c-.07.15-.44,1-.07,1.32a.51.51,0,0,0,.2.12.33.33,0,0,0,.42-.23,1.67,1.67,0,0,0,.06-1,.15.15,0,0,0-.08-.09l-.26-.07Z"/><path class="cls-144" d="M9.8,18.85h0a3.2,3.2,0,0,0-2.42-.08c-.32.17-.3.95-.17,1.41s1.86.79,2.65.52h0A3,3,0,0,1,9.8,18.85Z"/><path class="cls-145" d="M7.6,19c.18-.31,1.79-.27,1.83,0a2.28,2.28,0,0,1-.11,1.24c-.14.25-1.49.13-1.66,0A1.2,1.2,0,0,1,7.6,19Z"/><path class="cls-146" d="M7.82,19.23c.13-.23,1.33-.2,1.36,0a1.75,1.75,0,0,1-.08.92c-.11.19-1.11.1-1.23,0A.9.9,0,0,1,7.82,19.23Z"/><path class="cls-147" d="M15.92,19.5c-3.68-1.63-5.95-.73-6.12-.65a3.63,3.63,0,0,0,.06,1.85c1.52.67,5,.06,5.53-.15S16.3,19.76,15.92,19.5Z"/><path class="cls-148" d="M10.41,18.94c.18-.31,2.67-.32,2.78,0a2.38,2.38,0,0,1,0,1.5,6.4,6.4,0,0,1-2.72,0A1.72,1.72,0,0,1,10.41,18.94Z"/><path class="cls-149" d="M10.79,19.13a3.14,3.14,0,0,1,2,0,1.75,1.75,0,0,1,0,1.09,4.51,4.51,0,0,1-2,0A1.26,1.26,0,0,1,10.79,19.13Z"/><path class="cls-106" d="M11.85,21a5.29,5.29,0,0,1-2-.3,2.47,2.47,0,0,1-.73.1c-.83,0-1.83-.28-1.94-.64s-.15-1.27.18-1.44a2.34,2.34,0,0,1,1-.2,3.69,3.69,0,0,1,1.38.27,5.39,5.39,0,0,1,2-.32,10.37,10.37,0,0,1,4.16,1h0a.37.37,0,0,1,.17.37,1,1,0,0,1-.7.74A14.88,14.88,0,0,1,11.85,21Zm-2-.36h0a5.2,5.2,0,0,0,2,.3,14,14,0,0,0,3.53-.46,1,1,0,0,0,.67-.68.34.34,0,0,0-.15-.32,10.21,10.21,0,0,0-4.13-1,5.32,5.32,0,0,0-2,.32h0a3.46,3.46,0,0,0-1.37-.28,2.41,2.41,0,0,0-1,.2c-.29.15-.28.91-.15,1.37s1.1.6,1.89.6a2.08,2.08,0,0,0,.72-.1Z"/><path class="cls-150" d="M15.26,19.66a2.62,2.62,0,0,0,0,1.36c.24.38.58.43.76.25s.2-1.24-.17-1.47A.84.84,0,0,0,15.26,19.66Z"/><path class="cls-151" d="M15.26,19.66a2.62,2.62,0,0,0,0,1.36c.24.38.58.43.76.25s.2-1.24-.17-1.47A.84.84,0,0,0,15.26,19.66Z"/><path class="cls-14" d="M15.76,21.41a.77.77,0,0,1-.5-.37,2.6,2.6,0,0,1,0-1.38v0h0a.68.68,0,0,1,.24,0,1,1,0,0,1,.42.16,1,1,0,0,1,.3.68,1.32,1.32,0,0,1-.12.85A.43.43,0,0,1,15.76,21.41Zm-.47-1.71a2.42,2.42,0,0,0,0,1.3.65.65,0,0,0,.44.33.33.33,0,0,0,.27-.09,1.37,1.37,0,0,0,.09-.78.82.82,0,0,0-.26-.62,1,1,0,0,0-.39-.15A.5.5,0,0,0,15.29,19.7Z"/><path class="cls-152" d="M15,18.52s-.08,1,.21,1.34.63.35.79.16,0-1.26-.35-1.44A.82.82,0,0,0,15,18.52Z"/><path class="cls-153" d="M15,18.52s-.08,1,.21,1.34.63.35.79.16,0-1.26-.35-1.44A.82.82,0,0,0,15,18.52Z"/><path class="cls-14" d="M15.67,20.19a.72.72,0,0,1-.53-.31,2.63,2.63,0,0,1-.22-1.36v0h0a.64.64,0,0,1,.24,0,1.12,1.12,0,0,1,.43.1c.23.11.34.45.39.64A1.34,1.34,0,0,1,16,20,.38.38,0,0,1,15.67,20.19ZM15,18.55a2.46,2.46,0,0,0,.2,1.29.65.65,0,0,0,.47.27.31.31,0,0,0,.26-.12,1.24,1.24,0,0,0,0-.79.86.86,0,0,0-.34-.59,1,1,0,0,0-.4-.09A.61.61,0,0,0,15,18.55Z"/><path class="cls-154" d="M14.85,17s-.27,1.41.36,1.69a.49.49,0,0,0,.78-.36c0-.45-.09-1.31-.41-1.33S14.85,17,14.85,17Z"/><path class="cls-155" d="M14.85,17s-.27,1.41.36,1.69a.49.49,0,0,0,.78-.36c0-.45-.09-1.31-.41-1.33S14.85,17,14.85,17Z"/><path class="cls-14" d="M15.51,18.84h0a.69.69,0,0,1-.32-.08c-.65-.3-.39-1.68-.38-1.73v0h.76a.27.27,0,0,1,.18.1A2.25,2.25,0,0,1,16,18.36.5.5,0,0,1,15.51,18.84Zm-.63-1.77c0,.2-.2,1.37.34,1.62a.59.59,0,0,0,.29.07.41.41,0,0,0,.44-.41,2.11,2.11,0,0,0-.25-1.2.17.17,0,0,0-.13-.08h-.69Z"/><path class="cls-156" d="M14.72,15.87s-.42,1.19.32,1.38.86-.41.83-.86S14.72,15.87,14.72,15.87Z"/><path class="cls-157" d="M14.72,15.87s-.42,1.19.32,1.38.86-.41.83-.86S14.72,15.87,14.72,15.87Z"/><path class="cls-14" d="M15,17.29h0a.55.55,0,0,1-.37-.29,1.7,1.7,0,0,1,0-1.14v0h0a3.33,3.33,0,0,1,.55.09c.41.11.62.26.64.47a1,1,0,0,1-.24.81A.66.66,0,0,1,15,17.29Zm-.29-1.38a1.55,1.55,0,0,0,0,1.06.47.47,0,0,0,.32.24h0a.61.61,0,0,0,.56-.07,1,1,0,0,0,.21-.75c0-.22-.32-.34-.57-.4A3.67,3.67,0,0,0,14.75,15.91Z"/><path class="cls-106" d="M10.47,14.25l0,.05c-.13.09-.15.51-.15.66C10.35,15,10.29,14.38,10.47,14.25Z"/><path class="cls-106" d="M11.08,25.05a1.53,1.53,0,0,1-.56-.92,2.56,2.56,0,0,1-.32-1.53c-.33-.25-.41-1.35-.37-1.9a3.36,3.36,0,0,1-.07-1.85,8.92,8.92,0,0,1,.16-2.39,2.29,2.29,0,0,1,.33-1.25c.34-.46,1.94-.49,1.94-.49s-1.57.08-1.9.52A2.37,2.37,0,0,0,10,16.46h0a9.62,9.62,0,0,0-.15,2.38h0a3.29,3.29,0,0,0,.06,1.83h0c0,.64.07,1.67.36,1.87h0v0a2.55,2.55,0,0,0,.3,1.51h0a1.58,1.58,0,0,0,.53.9Z"/><path class="cls-106" d="M10.23,15.26c-.26-.39-1.05-.56-1.06-.57s.84.13,1.1.54Z"/><path class="cls-41" d="M14.21,13.57a.46.46,0,0,0-.2,0c-.37.19-.55,1.06-.44,1.48a1.56,1.56,0,0,0,1.2.83h0a.48.48,0,0,0,.22,0,2.48,2.48,0,0,0-.24-.62c-.23-.45-.46-.91,0-1.39A1,1,0,0,0,14.21,13.57Z"/><path class="cls-106" d="M14.77,16h0a1.61,1.61,0,0,1-1.23-.85A1.66,1.66,0,0,1,14,13.59a.46.46,0,0,1,.21-.05,1,1,0,0,1,.6.31v0c-.49.47-.26.92,0,1.35a2.75,2.75,0,0,1,.25.63v0h0A.41.41,0,0,1,14.77,16Zm-.56-2.35a.41.41,0,0,0-.19,0c-.36.19-.53,1-.43,1.45a1.57,1.57,0,0,0,1.18.81v0a.38.38,0,0,0,.19,0,2.29,2.29,0,0,0-.24-.59c-.23-.45-.46-.91,0-1.4A.87.87,0,0,0,14.21,13.6Z"/><path class="cls-32" d="M17.91,16.52a.32.32,0,0,0,.26.33,5.08,5.08,0,0,0-.23-.47A.32.32,0,0,0,17.91,16.52Z"/><path class="cls-158" d="M18,15.92a.45.45,0,1,1-.45-.42A.44.44,0,0,1,18,15.92Z"/><path class="cls-159" d="M5.33,23.08a5.2,5.2,0,0,1,3.56.65,2.85,2.85,0,0,1,.34,1.86,1.74,1.74,0,0,1-1.4,1.74,7.09,7.09,0,0,1-3.57-2.17,2.57,2.57,0,0,1-.58-2Z"/><path class="cls-160" d="M7.82,27c0-.55.36-.63.8-.55a.39.39,0,0,0,.1-.54.39.39,0,0,1,0-.5c.22-.16.36-.49.19-.57-.49-.3-.47-.95,0-1.09A3.78,3.78,0,0,0,7,23a8.18,8.18,0,0,0-1.67,0l-1.64.09a2.57,2.57,0,0,0,.58,2,4,4,0,0,0,.45.47,5.42,5.42,0,0,0,1.58,1A3,3,0,0,0,7.82,27Z"/><path class="cls-161" d="M7.82,27c0-.55.36-.63.8-.55a.39.39,0,0,0,.1-.54.39.39,0,0,1,0-.5c.22-.16.36-.49.19-.57-.49-.3-.47-.95,0-1.09A3.78,3.78,0,0,0,7,23a8.18,8.18,0,0,0-1.67,0l-1.64.09a2.57,2.57,0,0,0,.58,2,4,4,0,0,0,.45.47,5.42,5.42,0,0,0,1.58,1A3,3,0,0,0,7.82,27Z"/><path class="cls-32" d="M4.15,24.61a.78.78,0,0,0-.22,0,4.45,4.45,0,0,0,.33.52,4,4,0,0,0,.62.62A.74.74,0,0,0,5,25.39.81.81,0,0,0,4.15,24.61Z"/><path class="cls-15" d="M7.77,27.36a7.41,7.41,0,0,1-3.53-2.18,2.59,2.59,0,0,1-.61-2.05h.05a2.54,2.54,0,0,0,.6,2A6.79,6.79,0,0,0,6.2,26.66a3.84,3.84,0,0,0,1.62.64A1.71,1.71,0,0,0,9.2,25.59a2.84,2.84,0,0,0-.33-1.84,5.24,5.24,0,0,0-3.54-.67,3.54,3.54,0,0,1,1-.11,4.29,4.29,0,0,1,2.61.74,2.83,2.83,0,0,1,.36,1.89,1.78,1.78,0,0,1-1.43,1.75Z"/><path class="cls-32" d="M4.67,24.12a.32.32,0,1,1-.32-.37A.34.34,0,0,1,4.67,24.12Z"/><path class="cls-162" d="M7.4,21.9c-3-.34-4.41.84-3.42,2.7.22.42.77-.17.59-.75C4.15,22.47,6.25,22.06,6.76,22S7.72,22,7.4,21.9Z"/><path class="cls-32" d="M5.62,23.88a.29.29,0,1,1-.29-.3A.29.29,0,0,1,5.62,23.88Z"/><path class="cls-32" d="M6.18,25.22a.48.48,0,0,1-.95,0,.44.44,0,0,1,.47-.41A.44.44,0,0,1,6.18,25.22Z"/><path class="cls-163" d="M8.67,26.68c.2.12.31.86.14,1s-.82-.2-.89-.41S8.5,26.57,8.67,26.68Z"/><path class="cls-164" d="M8.52,26.75c.19.13.38.85.29.92s-.82-.2-.89-.41S8.34,26.64,8.52,26.75Z"/><path class="cls-165" d="M8.47,26.78c.19.13.41.78.32.85S8,27.41,8,27.21,8.34,26.7,8.47,26.78Z"/><path class="cls-19" d="M8.83,27.69h0c-.08.06-.22,0-.33,0s-.56-.27-.61-.42.05-.28.26-.44.43-.24.54-.17a1,1,0,0,1,.23.67C8.93,27.43,8.92,27.62,8.83,27.69Zm-.64-.81c-.18.13-.28.28-.25.37a1.06,1.06,0,0,0,.58.38c.13,0,.23.05.27,0l0,0,0,0a.39.39,0,0,0,.07-.31,1,1,0,0,0-.2-.63C8.59,26.66,8.37,26.73,8.19,26.88Z"/><path class="cls-166" d="M9.13,25.27c.22-.05.82.39.79.6s-.72.44-.91.34S8.93,25.31,9.13,25.27Z"/><path class="cls-167" d="M9.07,25.43c.22-.05.87.33.85.44s-.72.44-.91.34S8.87,25.47,9.07,25.43Z"/><path class="cls-168" d="M9.06,25.48c.22,0,.84.26.82.37s-.68.39-.88.29S8.91,25.51,9.06,25.48Z"/><path class="cls-19" d="M10,25.87h0c0,.1-.13.18-.23.23a1.09,1.09,0,0,1-.73.14c-.11,0-.16-.24-.13-.5s.14-.47.26-.5a1,1,0,0,1,.64.31C9.84,25.62,10,25.76,10,25.87Zm-1-.12c0,.22,0,.4.1.44a1.1,1.1,0,0,0,.67-.14c.12-.06.19-.13.2-.19h0c0-.06-.05-.16-.17-.27a.94.94,0,0,0-.59-.29C9.05,25.31,9,25.52,8.92,25.75Z"/><path class="cls-169" d="M8.81,23.76c.18-.14.91,0,1,.2s-.46.71-.68.71S8.64,23.88,8.81,23.76Z"/><path class="cls-170" d="M8.82,23.93a1.29,1.29,0,0,1,1,0c.06.21-.46.71-.68.71S8.66,24.05,8.82,23.93Z"/><path class="cls-171" d="M8.83,24c.19-.14.88-.12.91,0s-.46.64-.68.63S8.71,24.07,8.83,24Z"/><path class="cls-19" d="M9.81,24h0c0,.1-.05.22-.11.31a1.11,1.11,0,0,1-.6.44c-.13,0-.25-.15-.33-.4s-.08-.49,0-.57a1,1,0,0,1,.71,0C9.6,23.78,9.77,23.85,9.81,24Zm-1,.33c.06.22.17.36.27.36a1.08,1.08,0,0,0,.55-.41c.08-.11.12-.21.1-.26h0c0-.06-.12-.12-.27-.17a1,1,0,0,0-.66,0C8.76,23.83,8.76,24.06,8.83,24.28Z"/><path class="cls-172" d="M14.11,13.86s.17-.29.69-.14A7.75,7.75,0,0,1,18,15.47a4.26,4.26,0,0,1,1,3.23,2,2,0,0,1-.76,1.55,1.72,1.72,0,0,1-2,.4c-.4-.2-.93-1.28-.51-4.21A4.52,4.52,0,0,1,14,15.29,1.45,1.45,0,0,1,14.11,13.86Z"/><path class="cls-173" d="M16.54,14.5a7.16,7.16,0,0,0-2.08-.84c-.73.23-.67,1.27-.43,1.63a2.2,2.2,0,0,0,1.81.62c-.58,2.75-.11,4.31.26,4.65a1.32,1.32,0,0,0,1,0c.08-.06.1-.34.25-.47a.6.6,0,0,1,.69-.11C19.1,17.68,18.34,15.39,16.54,14.5Z"/><path class="cls-174" d="M17.39,15.09a1.32,1.32,0,0,0-1.56.86c-.57,2.72-.1,4.28.27,4.61a1.32,1.32,0,0,0,1,0c.08-.06.1-.34.25-.47a.6.6,0,0,1,.69-.11A4.3,4.3,0,0,0,17.39,15.09Z"/><path class="cls-175" d="M16,15.77a7.81,7.81,0,0,0,0,4.47c.26.5,1,0,.73-.79a10,10,0,0,1-.49-3.52C16.22,15.49,16.13,15.41,16,15.77Z"/><path class="cls-176" d="M17.39,15.09a3.91,3.91,0,0,0-.85-.59,7.16,7.16,0,0,0-2.08-.84c-.73.23-.67,1.27-.43,1.63a2.2,2.2,0,0,0,1.81.62v0A1.32,1.32,0,0,1,17.39,15.09Z"/><path class="cls-158" d="M17.11,15.44a.87.87,0,0,0,.64-.26,5.84,5.84,0,0,0-1.36-.85.64.64,0,0,0-.12.38A.78.78,0,0,0,17.11,15.44Z"/><path class="cls-32" d="M16.34,14.4a.74.74,0,0,0-.07.31.78.78,0,0,0,.84.73,1,1,0,0,0,.49-.13A6,6,0,0,0,16.34,14.4Z"/><path class="cls-15" d="M17.07,20.82a2.94,2.94,0,0,1-.86-.15h0c-.12-.06-.42-.28-.58-1.09a10,10,0,0,1,0-3.12A4.38,4.38,0,0,1,14,15.3a1.46,1.46,0,0,1,.08-1.46.5.5,0,0,1,.44-.19.88.88,0,0,1,.27,0,7.65,7.65,0,0,1,3.25,1.77,4.32,4.32,0,0,1,1,3.24,1.94,1.94,0,0,1-.68,1.48l-.09.09A1.59,1.59,0,0,1,17.07,20.82Zm-.84-.2a2.77,2.77,0,0,0,.84.15,1.54,1.54,0,0,0,1.17-.54l.09-.09A1.91,1.91,0,0,0,19,18.7a4.26,4.26,0,0,0-1-3.21,7.93,7.93,0,0,0-3.21-1.75,1.27,1.27,0,0,0-.26,0,.44.44,0,0,0-.39.17h0a1.42,1.42,0,0,0-.08,1.39,4.38,4.38,0,0,0,1.66,1.14h0v0C15.32,19.35,15.85,20.43,16.23,20.62Z"/><path class="cls-15" d="M15.74,16.44h-.06a3.45,3.45,0,0,1,.18-.61S15.77,16.21,15.74,16.44Z"/><path class="cls-32" d="M17.54,16.48a.36.36,0,0,1-.35.38.37.37,0,0,1-.35-.38.36.36,0,0,1,.35-.37A.35.35,0,0,1,17.54,16.48Z"/><path class="cls-158" d="M18.53,16.52a.31.31,0,1,1-.31-.34A.33.33,0,0,1,18.53,16.52Z"/><path class="cls-32" d="M17.91,16.52a.33.33,0,0,0,.31.34.27.27,0,0,0,.17-.06,2.61,2.61,0,0,0-.22-.61A.32.32,0,0,0,17.91,16.52Z"/><path class="cls-177" d="M18.09,20.15c.17.15.19.89,0,1s-.79-.3-.84-.52S17.93,20,18.09,20.15Z"/><path class="cls-178" d="M17.92,20.2a1.29,1.29,0,0,1,.18.95c-.19.1-.79-.3-.84-.52S17.77,20.07,17.92,20.2Z"/><path class="cls-179" d="M17.88,20.23c.17.15.3.82.2.88s-.72-.31-.76-.53S17.76,20.12,17.88,20.23Z"/><path class="cls-19" d="M18.11,21.17h0c-.08,0-.22,0-.32,0s-.52-.33-.55-.49.09-.28.31-.41.46-.18.56-.1a1,1,0,0,1,.14.7C18.24,20.93,18.21,21.12,18.11,21.17Zm-.53-.89c-.2.11-.31.25-.29.35a1.09,1.09,0,0,0,.52.45c.13.05.22.07.27,0l0,0,0,0c.06,0,.1-.14.11-.3a1,1,0,0,0-.12-.65C18,20.12,17.78,20.17,17.58,20.28Z"/><path class="cls-180" d="M17,20.69c0,.22-.43.8-.64.76s-.4-.74-.3-.93S16.92,20.48,17,20.69Z"/><path class="cls-181" d="M16.79,20.62c0,.23-.37.85-.48.83s-.4-.74-.3-.93S16.76,20.42,16.79,20.62Z"/><path class="cls-182" d="M16.74,20.61c0,.22-.3.82-.41.8s-.35-.7-.25-.89S16.72,20.45,16.74,20.61Z"/><path class="cls-19" d="M16.31,21.48h0c-.1,0-.17-.14-.22-.24a1.12,1.12,0,0,1-.11-.73c.06-.12.25-.16.51-.11s.47.15.49.28-.15.44-.34.63S16.42,21.5,16.31,21.48Zm.17-1c-.22,0-.4,0-.44.07a1.05,1.05,0,0,0,.1.68q.09.2.18.21v0c.06,0,.16-.05.28-.16a1,1,0,0,0,.32-.57C16.91,20.61,16.71,20.5,16.48,20.46Z"/><path class="cls-183" d="M18.9,19.29c.21.09.42.81.27,1s-.83-.08-.94-.28S18.71,19.2,18.9,19.29Z"/><path class="cls-184" d="M18.75,19.38c.21.1.5.79.42.87s-.83-.08-.94-.28S18.57,19.3,18.75,19.38Z"/><path class="cls-185" d="M18.71,19.42c.21.1.52.71.44.79s-.78-.1-.88-.3S18.57,19.35,18.71,19.42Z"/><path class="cls-19" d="M19.19,20.26h0a.43.43,0,0,1-.32,0,1.08,1.08,0,0,1-.66-.32c-.06-.12,0-.3.19-.48s.39-.3.51-.25a1,1,0,0,1,.33.63C19.25,20,19.27,20.19,19.19,20.26Zm-.75-.71c-.16.16-.23.32-.18.41a1.05,1.05,0,0,0,.62.29.35.35,0,0,0,.27,0l0,0,0,0c.05,0,.06-.16,0-.32a1,1,0,0,0-.29-.59C18.81,19.28,18.61,19.38,18.44,19.55Z"/><path class="cls-186" d="M15.91,23.24a4,4,0,0,0-3.52.76c-.74.7-.84,3.25.11,3.58A1.52,1.52,0,0,0,14,27.33a10.91,10.91,0,0,0,2.74-1.27A3.06,3.06,0,0,0,18,23.22Z"/><path class="cls-187" d="M13.37,27.31c.38-.15.55-.63.74-.69a4.38,4.38,0,0,0,3.18-2.7,1.73,1.73,0,0,0,.09-.69H15.91a4,4,0,0,0-3.52.77A3.41,3.41,0,0,0,12,27.13,1.16,1.16,0,0,0,13.37,27.31Z"/><path class="cls-188" d="M13.37,27.31c.38-.15.55-.63.74-.69a4.38,4.38,0,0,0,3.18-2.7,1.73,1.73,0,0,0,.09-.69H15.91a4,4,0,0,0-3.52.77A3.41,3.41,0,0,0,12,27.13,1.16,1.16,0,0,0,13.37,27.31Z"/><path class="cls-189" d="M16.08,23.31a3.79,3.79,0,0,0-3.89,1c-.24.3.16.69.59.27a4.33,4.33,0,0,1,2.78-1.15C16,23.37,16.33,23.38,16.08,23.31Z"/><path class="cls-158" d="M17.53,25.26a.89.89,0,0,0-.67-.29.74.74,0,0,0-.81.65.67.67,0,0,0,.5.59,1.39,1.39,0,0,0,.22-.15A3.27,3.27,0,0,0,17.53,25.26Z"/><path class="cls-32" d="M16.74,25a.71.71,0,0,0-.69.64v0A4.44,4.44,0,0,0,16.74,25Z"/><path class="cls-15" d="M13.07,27.7a1.58,1.58,0,0,1-.58-.1,1.13,1.13,0,0,1-.63-.92,3.42,3.42,0,0,1,.51-2.7,3.45,3.45,0,0,1,2.3-.9h.39a2.72,2.72,0,0,1,.85.16,4.63,4.63,0,0,0-1.23-.11,3.43,3.43,0,0,0-2.27.89,3.31,3.31,0,0,0-.49,2.65,1.1,1.1,0,0,0,.59.88,1.46,1.46,0,0,0,1.5-.24h0A10.83,10.83,0,0,0,16.76,26,3,3,0,0,0,18,23.22H18a3.07,3.07,0,0,1-1.23,2.86A11.3,11.3,0,0,1,14,27.36,1.49,1.49,0,0,1,13.07,27.7Z"/><ellipse class="cls-32" cx="14.17" cy="24.94" rx="0.35" ry="0.34"/><path class="cls-32" d="M16.77,23.88a.45.45,0,1,1-.45-.39A.42.42,0,0,1,16.77,23.88Z"/><path class="cls-32" d="M15.74,25.42c0,.15-.17.27-.37.27s-.36-.12-.36-.27a.32.32,0,0,1,.36-.28C15.57,25.14,15.74,25.26,15.74,25.42Z"/><path class="cls-15" d="M14.05,27.35l0,0a.82.82,0,0,0,.13-.55A.71.71,0,0,1,14.05,27.35Z"/><path class="cls-190" d="M12.84,27.73c-.12.19-.85.32-1,.16s.18-.83.38-.91S13,27.55,12.84,27.73Z"/><path class="cls-191" d="M12.77,27.57a1.29,1.29,0,0,1-.91.32c-.13-.17.18-.83.38-.91S12.87,27.4,12.77,27.57Z"/><path class="cls-192" d="M12.74,27.53c-.13.19-.77.42-.84.34s.19-.77.4-.84S12.82,27.4,12.74,27.53Z"/><path class="cls-19" d="M11.84,27.9h0a.39.39,0,0,1,0-.32,1.08,1.08,0,0,1,.4-.62c.12-.05.29,0,.45.25s.25.42.19.53a1,1,0,0,1-.67.25A.45.45,0,0,1,11.84,27.9Zm.79-.66c-.13-.17-.28-.26-.38-.23a1.11,1.11,0,0,0-.36.58.38.38,0,0,0,0,.28l0,0,0,0c0,.05.16.07.32.06a.9.9,0,0,0,.62-.22C12.86,27.64,12.78,27.43,12.63,27.24Z"/><path class="cls-193" d="M12.07,26.58c-.21.1-.9-.16-.93-.36s.57-.62.79-.59S12.25,26.48,12.07,26.58Z"/><path class="cls-194" d="M12.08,26.4a1.26,1.26,0,0,1-.94-.18c0-.21.57-.62.79-.59S12.26,26.31,12.08,26.4Z"/><path class="cls-195" d="M12.08,26.35c-.21.11-.88,0-.9-.13s.56-.56.77-.52S12.22,26.28,12.08,26.35Z"/><path class="cls-19" d="M11.11,26.22h0a.39.39,0,0,1,.16-.28,1.14,1.14,0,0,1,.66-.34c.13,0,.23.19.26.45s0,.49-.11.55a1,1,0,0,1-.7-.12C11.29,26.43,11.13,26.33,11.11,26.22Zm1-.16c0-.23-.11-.38-.21-.4a1,1,0,0,0-.61.32c-.1.09-.15.18-.14.23h0c0,.06.1.14.24.22a.93.93,0,0,0,.64.12C12.13,26.51,12.17,26.29,12.13,26.06Z"/><path class="cls-196" d="M12.2,25c-.22,0-.79-.46-.74-.67s.76-.37.95-.27S12.41,25,12.2,25Z"/><path class="cls-197" d="M12.28,24.86c-.23,0-.84-.4-.82-.51s.76-.37.95-.27S12.48,24.84,12.28,24.86Z"/><path class="cls-198" d="M12.29,24.81c-.23,0-.81-.33-.79-.44s.72-.33.91-.21S12.45,24.79,12.29,24.81Z"/><path class="cls-19" d="M11.44,24.35h0c0-.1.14-.17.24-.21a1.11,1.11,0,0,1,.74-.08c.11.06.14.25.09.51s-.17.46-.3.48a1,1,0,0,1-.61-.37C11.53,24.61,11.41,24.46,11.44,24.35Zm1,.2c.05-.22,0-.39-.06-.44a1.09,1.09,0,0,0-.68.08.38.38,0,0,0-.22.17h0a.4.4,0,0,0,.15.28c.18.21.44.37.56.35S12.4,24.78,12.45,24.55Z"/></symbol></defs><g id="Layer_2" data-name="Layer 2"><g id="Layer_1-2" data-name="Layer 1"><use width="19.25" height="27.99" xlink:href="#explain-turtee"/></g></g></svg>