<svg xmlns="http://www.w3.org/2000/svg" xmlns:xlink="http://www.w3.org/1999/xlink" viewBox="0 0 21.04 23.12"><defs><style>.cls-1{isolation:isolate;}.cls-2{fill:url(#radial-gradient);}.cls-3{fill:url(#radial-gradient-2);}.cls-4{fill:#244d16;}.cls-5{fill:url(#radial-gradient-3);}.cls-6{fill:url(#radial-gradient-4);}.cls-10,.cls-100,.cls-103,.cls-106,.cls-109,.cls-11,.cls-112,.cls-115,.cls-118,.cls-12,.cls-121,.cls-125,.cls-128,.cls-131,.cls-135,.cls-138,.cls-141,.cls-144,.cls-145,.cls-146,.cls-147,.cls-150,.cls-157,.cls-160,.cls-163,.cls-166,.cls-19,.cls-20,.cls-23,.cls-24,.cls-28,.cls-30,.cls-31,.cls-33,.cls-34,.cls-37,.cls-39,.cls-40,.cls-43,.cls-44,.cls-45,.cls-46,.cls-53,.cls-57,.cls-60,.cls-63,.cls-65,.cls-66,.cls-67,.cls-7,.cls-70,.cls-74,.cls-78,.cls-8,.cls-81,.cls-84,.cls-87,.cls-9,.cls-90,.cls-97{mix-blend-mode:screen;}.cls-7{fill:url(#radial-gradient-5);}.cls-8{fill:url(#linear-gradient);}.cls-9{fill:url(#radial-gradient-6);}.cls-10{fill:url(#linear-gradient-2);}.cls-11{fill:url(#radial-gradient-7);}.cls-12{opacity:0.7;fill:url(#linear-gradient-3);}.cls-13{fill:url(#radial-gradient-8);}.cls-14{fill:#2c7722;}.cls-15{fill:url(#radial-gradient-9);}.cls-16{fill:url(#radial-gradient-10);}.cls-17{fill:url(#linear-gradient-4);}.cls-18{fill:url(#linear-gradient-5);}.cls-19{fill:url(#radial-gradient-11);}.cls-20{fill:url(#radial-gradient-12);}.cls-21{fill:#df4a4b;}.cls-22{fill:url(#radial-gradient-13);}.cls-23{fill:url(#radial-gradient-14);}.cls-24{fill:url(#linear-gradient-6);}.cls-25,.cls-35{mix-blend-mode:multiply;}.cls-25{fill:url(#radial-gradient-15);}.cls-26{fill:#fff;}.cls-27{fill:url(#radial-gradient-16);}.cls-28,.cls-37{opacity:0.6;}.cls-28{fill:url(#radial-gradient-17);}.cls-29{fill:url(#radial-gradient-18);}.cls-30,.cls-39{opacity:0.5;}.cls-30{fill:url(#radial-gradient-19);}.cls-31{fill:url(#linear-gradient-7);}.cls-32{fill:url(#radial-gradient-20);}.cls-33{fill:url(#radial-gradient-21);}.cls-34{fill:url(#linear-gradient-8);}.cls-35{fill:url(#radial-gradient-22);}.cls-36{fill:url(#radial-gradient-23);}.cls-37{fill:url(#radial-gradient-24);}.cls-38{fill:url(#radial-gradient-25);}.cls-39{fill:url(#radial-gradient-26);}.cls-40{fill:url(#linear-gradient-9);}.cls-41{fill:url(#radial-gradient-27);}.cls-42{fill:url(#radial-gradient-28);}.cls-43{fill:url(#radial-gradient-29);}.cls-44{fill:url(#linear-gradient-10);}.cls-45{fill:url(#radial-gradient-30);}.cls-46{fill:url(#linear-gradient-11);}.cls-47{fill:#14511b;}.cls-48{fill:#307a22;}.cls-49{fill:#26621e;}.cls-50{fill:#2d7521;}.cls-51{fill:url(#radial-gradient-31);}.cls-52{fill:url(#radial-gradient-32);}.cls-53{fill:url(#linear-gradient-12);}.cls-54{fill:#d0a074;}.cls-55{fill:url(#radial-gradient-33);}.cls-56{fill:url(#radial-gradient-34);}.cls-57{fill:url(#linear-gradient-13);}.cls-58{fill:url(#radial-gradient-35);}.cls-59{fill:url(#radial-gradient-36);}.cls-60{fill:url(#linear-gradient-14);}.cls-61{fill:url(#radial-gradient-37);}.cls-62{fill:url(#radial-gradient-38);}.cls-63{fill:url(#radial-gradient-39);}.cls-64{fill:#2c6d20;}.cls-65{fill:url(#linear-gradient-15);}.cls-66{fill:url(#radial-gradient-40);}.cls-67{fill:url(#linear-gradient-16);}.cls-68{fill:url(#radial-gradient-41);}.cls-69{fill:url(#radial-gradient-42);}.cls-70{fill:url(#radial-gradient-43);}.cls-71{fill:#200908;}.cls-72{fill:url(#radial-gradient-44);}.cls-73{fill:url(#radial-gradient-45);}.cls-74{fill:url(#radial-gradient-46);}.cls-75{fill:#863609;}.cls-76{fill:url(#radial-gradient-47);}.cls-77{fill:url(#radial-gradient-48);}.cls-78{fill:url(#radial-gradient-49);}.cls-79{fill:url(#radial-gradient-50);}.cls-80{fill:url(#radial-gradient-51);}.cls-81{fill:url(#radial-gradient-52);}.cls-82{fill:url(#radial-gradient-53);}.cls-83{fill:url(#radial-gradient-54);}.cls-84{fill:url(#radial-gradient-55);}.cls-85{fill:url(#radial-gradient-56);}.cls-86{fill:url(#radial-gradient-57);}.cls-87{fill:url(#radial-gradient-58);}.cls-88{fill:url(#radial-gradient-59);}.cls-89{fill:url(#radial-gradient-60);}.cls-90{fill:url(#radial-gradient-61);}.cls-91{fill:url(#radial-gradient-62);}.cls-92{fill:url(#radial-gradient-63);}.cls-93{fill:url(#radial-gradient-64);}.cls-94{fill:#965e11;}.cls-95{fill:url(#radial-gradient-65);}.cls-96{fill:url(#radial-gradient-66);}.cls-97{fill:url(#radial-gradient-67);}.cls-98{fill:url(#radial-gradient-68);}.cls-99{fill:url(#radial-gradient-69);}.cls-100{fill:url(#radial-gradient-70);}.cls-101{fill:url(#radial-gradient-71);}.cls-102{fill:url(#radial-gradient-72);}.cls-103{fill:url(#radial-gradient-73);}.cls-104{fill:url(#radial-gradient-74);}.cls-105{fill:url(#radial-gradient-75);}.cls-106{fill:url(#radial-gradient-76);}.cls-107{fill:url(#radial-gradient-77);}.cls-108{fill:url(#radial-gradient-78);}.cls-109{fill:url(#radial-gradient-79);}.cls-110{fill:url(#radial-gradient-80);}.cls-111{fill:url(#radial-gradient-81);}.cls-112{fill:url(#radial-gradient-82);}.cls-113{fill:url(#radial-gradient-83);}.cls-114{fill:url(#radial-gradient-84);}.cls-115{fill:url(#radial-gradient-85);}.cls-116{fill:url(#radial-gradient-86);}.cls-117{fill:url(#radial-gradient-87);}.cls-118{fill:url(#radial-gradient-88);}.cls-119{fill:url(#radial-gradient-89);}.cls-120{fill:url(#radial-gradient-90);}.cls-121{fill:url(#radial-gradient-91);}.cls-122{fill:url(#radial-gradient-92);}.cls-123{fill:url(#radial-gradient-93);}.cls-124{fill:url(#radial-gradient-94);}.cls-125{fill:url(#radial-gradient-95);}.cls-126{fill:url(#radial-gradient-96);}.cls-127{fill:url(#radial-gradient-97);}.cls-128{fill:url(#radial-gradient-98);}.cls-129{fill:url(#radial-gradient-99);}.cls-130{fill:url(#radial-gradient-100);}.cls-131{fill:url(#radial-gradient-101);}.cls-132{fill:url(#radial-gradient-102);}.cls-133{fill:url(#radial-gradient-103);}.cls-134{fill:url(#radial-gradient-104);}.cls-135{fill:url(#linear-gradient-17);}.cls-136{fill:url(#radial-gradient-105);}.cls-137{fill:url(#radial-gradient-106);}.cls-138{fill:url(#linear-gradient-18);}.cls-139{fill:url(#radial-gradient-107);}.cls-140{fill:url(#radial-gradient-108);}.cls-141{fill:url(#linear-gradient-19);}.cls-142{fill:url(#radial-gradient-109);}.cls-143{fill:url(#radial-gradient-110);}.cls-144{fill:url(#radial-gradient-111);}.cls-145{fill:url(#linear-gradient-20);}.cls-146{fill:url(#radial-gradient-112);}.cls-147{fill:url(#linear-gradient-21);}.cls-148{fill:url(#radial-gradient-113);}.cls-149{fill:url(#radial-gradient-114);}.cls-150{fill:url(#radial-gradient-115);}.cls-151{fill:url(#radial-gradient-116);}.cls-152{fill:url(#radial-gradient-117);}.cls-153{fill:url(#radial-gradient-118);}.cls-154{fill:url(#radial-gradient-119);}.cls-155{fill:url(#radial-gradient-120);}.cls-156{fill:url(#radial-gradient-121);}.cls-157{fill:url(#radial-gradient-122);}.cls-158{fill:url(#radial-gradient-123);}.cls-159{fill:url(#radial-gradient-124);}.cls-160{fill:url(#linear-gradient-22);}.cls-161{fill:url(#radial-gradient-125);}.cls-162{fill:url(#radial-gradient-126);}.cls-163{fill:url(#linear-gradient-23);}.cls-164{fill:url(#radial-gradient-127);}.cls-165{fill:url(#radial-gradient-128);}.cls-166{fill:url(#radial-gradient-129);}</style><radialGradient id="radial-gradient" cx="15.97" cy="9.51" r="2.27" gradientUnits="userSpaceOnUse"><stop offset="0" stop-color="#48a528"/><stop offset="0.54" stop-color="#3b8f25"/><stop offset="1" stop-color="#2e7922"/></radialGradient><radialGradient id="radial-gradient-2" cx="15.97" cy="9.51" r="2.27" gradientUnits="userSpaceOnUse"><stop offset="0" stop-color="#5bb224"/><stop offset="0.88" stop-color="#459e26"/><stop offset="1" stop-color="#429b26"/></radialGradient><radialGradient id="radial-gradient-3" cx="491.12" cy="-4.82" r="7.8" gradientTransform="matrix(-1, 0.05, 0.05, 1, 509.82, -17.96)" gradientUnits="userSpaceOnUse"><stop offset="0.12" stop-color="#48a528"/><stop offset="0.46" stop-color="#46a228"/><stop offset="0.68" stop-color="#419a26"/><stop offset="0.86" stop-color="#398b24"/><stop offset="1" stop-color="#2e7922"/></radialGradient><radialGradient id="radial-gradient-4" cx="491.12" cy="-4.78" r="7.83" gradientTransform="matrix(-1, 0.05, 0.05, 1, 509.82, -17.96)" xlink:href="#radial-gradient-2"/><radialGradient id="radial-gradient-5" cx="478.07" cy="18.34" r="1.88" gradientTransform="matrix(-1, 0.01, 0.01, 1, 498.2, -17.98)" gradientUnits="userSpaceOnUse"><stop offset="0" stop-color="#91ca1f"/><stop offset="0.05" stop-color="#86bb1d"/><stop offset="0.34" stop-color="#4d6c11"/><stop offset="0.57" stop-color="#243208"/><stop offset="0.74" stop-color="#0a0e02"/><stop offset="0.83"/><stop offset="1"/></radialGradient><linearGradient id="linear-gradient" x1="478.12" y1="18.57" x2="478.69" y2="18.88" gradientTransform="matrix(-1, 0.01, 0.01, 1, 498.2, -17.98)" gradientUnits="userSpaceOnUse"><stop offset="0" stop-color="#5f5f5f"/><stop offset="0.13" stop-color="#4b4b4b"/><stop offset="0.44" stop-color="#222"/><stop offset="0.69" stop-color="#090909"/><stop offset="0.83"/><stop offset="1"/></linearGradient><radialGradient id="radial-gradient-6" cx="479.67" cy="15.34" r="1.58" xlink:href="#radial-gradient-5"/><linearGradient id="linear-gradient-2" x1="479.8" y1="15.53" x2="480.34" y2="16.19" gradientTransform="matrix(-1, 0.01, 0.01, 1, 498.2, -17.98)" gradientUnits="userSpaceOnUse"><stop offset="0" stop-color="#5f5f5f"/><stop offset="0.29" stop-color="#393939"/><stop offset="0.65" stop-color="#101010"/><stop offset="0.83"/><stop offset="1"/></linearGradient><radialGradient id="radial-gradient-7" cx="481.19" cy="22.71" r="2.13" xlink:href="#radial-gradient-5"/><linearGradient id="linear-gradient-3" x1="539.2" y1="23.52" x2="541.32" y2="23.08" gradientTransform="matrix(-0.91, 0.05, 0.05, 0.85, 508.18, -39.25)" gradientUnits="userSpaceOnUse"><stop offset="0" stop-color="#4c4c4c"/><stop offset="0.69" stop-color="#181818"/><stop offset="1"/></linearGradient><radialGradient id="radial-gradient-8" cx="493.75" cy="-1.11" r="1.6" gradientTransform="matrix(-1, 0.05, 0.05, 1, 509.82, -17.96)" gradientUnits="userSpaceOnUse"><stop offset="0" stop-color="#150c0c"/><stop offset="0.28" stop-color="#200a0a"/><stop offset="0.56" stop-color="#300707"/><stop offset="0.68" stop-color="#3b0807"/><stop offset="1" stop-color="#540a06"/></radialGradient><radialGradient id="radial-gradient-9" cx="493.69" cy="-1.06" r="1.74" gradientTransform="matrix(-1, 0.05, 0.05, 1, 509.82, -17.96)" gradientUnits="userSpaceOnUse"><stop offset="0" stop-color="#130c0c"/><stop offset="0.59" stop-color="#6a0a09"/><stop offset="0.72" stop-color="#7c0c08"/><stop offset="0.87" stop-color="#890e06"/><stop offset="1" stop-color="#8e0f06"/></radialGradient><radialGradient id="radial-gradient-10" cx="493.69" cy="-1.06" r="1.74" xlink:href="#radial-gradient-9"/><linearGradient id="linear-gradient-4" x1="493.48" y1="0.27" x2="493.81" y2="-0.84" gradientTransform="matrix(-1, 0.05, 0.05, 1, 509.82, -17.96)" gradientUnits="userSpaceOnUse"><stop offset="0" stop-color="#f59e9f"/><stop offset="1" stop-color="#f17171"/></linearGradient><linearGradient id="linear-gradient-5" x1="493.45" y1="0.26" x2="493.77" y2="-0.85" gradientTransform="matrix(-1, 0.05, 0.05, 1, 509.82, -17.96)" gradientUnits="userSpaceOnUse"><stop offset="0" stop-color="#f0b8b8"/><stop offset="1" stop-color="#f79899"/></linearGradient><radialGradient id="radial-gradient-11" cx="480.66" cy="23.24" r="0.75" gradientTransform="matrix(-1, 0.01, 0.01, 1, 498.2, -17.98)" gradientUnits="userSpaceOnUse"><stop offset="0" stop-color="#f0b8b8"/><stop offset="0.02" stop-color="#e6b0b0"/><stop offset="0.12" stop-color="#aa8282"/><stop offset="0.23" stop-color="#765a5a"/><stop offset="0.33" stop-color="#4c3a3a"/><stop offset="0.43" stop-color="#2b2121"/><stop offset="0.53" stop-color="#130f0f"/><stop offset="0.62" stop-color="#050404"/><stop offset="0.69"/><stop offset="1"/></radialGradient><radialGradient id="radial-gradient-12" cx="481.19" cy="23.22" r="1.03" xlink:href="#radial-gradient-11"/><radialGradient id="radial-gradient-13" cx="491.12" cy="-4.82" r="7.8" gradientTransform="matrix(-1, 0.05, 0.05, 1, 509.82, -17.96)" xlink:href="#radial-gradient-2"/><radialGradient id="radial-gradient-14" cx="483.18" cy="14.86" r="3.79" gradientTransform="matrix(-1, 0.01, 0.01, 1, 498.2, -17.98)" gradientUnits="userSpaceOnUse"><stop offset="0" stop-color="#91ca1f"/><stop offset="0" stop-color="#90c91f"/><stop offset="0.12" stop-color="#6a9417"/><stop offset="0.24" stop-color="#4a6710"/><stop offset="0.36" stop-color="#2f420a"/><stop offset="0.48" stop-color="#1a2506"/><stop offset="0.6" stop-color="#0c1003"/><stop offset="0.72" stop-color="#030401"/><stop offset="0.83"/><stop offset="1"/></radialGradient><linearGradient id="linear-gradient-6" x1="483.5" y1="15.38" x2="483.58" y2="17.31" xlink:href="#linear-gradient-2"/><radialGradient id="radial-gradient-15" cx="482.93" cy="15.93" r="4.04" gradientTransform="matrix(-1, 0.01, 0.01, 1, 498.2, -17.98)" gradientUnits="userSpaceOnUse"><stop offset="0" stop-color="#fff"/><stop offset="0.22" stop-color="#d1e6ca"/><stop offset="0.6" stop-color="#84be72"/><stop offset="0.87" stop-color="#55a53b"/><stop offset="1" stop-color="#429b26"/></radialGradient><radialGradient id="radial-gradient-16" cx="523.9" cy="-28.89" r="2.38" gradientTransform="matrix(-0.99, 0.16, 0.16, 0.99, 537.93, -53.62)" gradientUnits="userSpaceOnUse"><stop offset="0.54" stop-color="#e7e7e7"/><stop offset="0.66" stop-color="#e4e4e5"/><stop offset="0.74" stop-color="#dcdcdd"/><stop offset="0.8" stop-color="#cdcdd1"/><stop offset="0.86" stop-color="#b8b8bf"/><stop offset="0.91" stop-color="#9d9da8"/><stop offset="0.94" stop-color="#8c8c9a"/><stop offset="1" stop-color="#c5c5c5"/></radialGradient><radialGradient id="radial-gradient-17" cx="266.44" cy="-188.29" r="0.11" gradientTransform="matrix(-2.09, 0.35, 0.36, 2.16, 640.56, 316.1)" gradientUnits="userSpaceOnUse"><stop offset="0.21" stop-color="#fff"/><stop offset="0.36" stop-color="#aeaeae"/><stop offset="0.52" stop-color="#646464"/><stop offset="0.64" stop-color="#2e2e2e"/><stop offset="0.74" stop-color="#0d0d0d"/><stop offset="0.79"/><stop offset="0.98"/></radialGradient><radialGradient id="radial-gradient-18" cx="526.05" cy="-42.62" r="1.5" gradientTransform="matrix(-0.99, 0.17, 0.17, 1.05, 541.05, -37.72)" gradientUnits="userSpaceOnUse"><stop offset="0" stop-color="#31b2d1"/><stop offset="0.13" stop-color="#2aa3c9"/><stop offset="0.32" stop-color="#1b85ba"/><stop offset="0.52" stop-color="#1b6bae"/><stop offset="0.93" stop-color="#1c298f"/><stop offset="1" stop-color="#1c1d89"/></radialGradient><radialGradient id="radial-gradient-19" cx="266.72" cy="-187.83" r="0.08" gradientTransform="matrix(-2.09, 0.35, 0.36, 2.16, 640.56, 316.1)" gradientUnits="userSpaceOnUse"><stop offset="0" stop-color="#fff"/><stop offset="0.22" stop-color="#b3b3b3"/><stop offset="0.62" stop-color="#333"/><stop offset="0.79"/><stop offset="1"/></radialGradient><linearGradient id="linear-gradient-7" x1="504.37" y1="6.96" x2="504.72" y2="7.37" gradientTransform="matrix(-1, 0.08, 0.08, 1, 517.28, -46.64)" gradientUnits="userSpaceOnUse"><stop offset="0" stop-color="#b9b9b9"/><stop offset="0.04" stop-color="#adadad"/><stop offset="0.33" stop-color="#646464"/><stop offset="0.57" stop-color="#2e2e2e"/><stop offset="0.75" stop-color="#0d0d0d"/><stop offset="0.85"/><stop offset="0.98"/></linearGradient><radialGradient id="radial-gradient-20" cx="479.13" cy="18.66" r="7.79" gradientTransform="matrix(-1, 0.01, 0.01, 1, 498.2, -17.98)" xlink:href="#radial-gradient-2"/><radialGradient id="radial-gradient-21" cx="483.24" cy="19.5" r="1.91" xlink:href="#radial-gradient-14"/><linearGradient id="linear-gradient-8" x1="497.47" y1="-12.59" x2="497.84" y2="-11.69" gradientTransform="matrix(-1, 0.07, 0.07, 1, 512.01, -17.8)" xlink:href="#linear-gradient"/><radialGradient id="radial-gradient-22" cx="480.1" cy="15.68" r="3.02" xlink:href="#radial-gradient-15"/><radialGradient id="radial-gradient-23" cx="565.24" cy="-179.04" r="1.92" gradientTransform="matrix(-0.9, 0.44, 0.44, 0.9, 605.98, -86.3)" xlink:href="#radial-gradient-16"/><radialGradient id="radial-gradient-24" cx="285.04" cy="-257.79" r="0.09" gradientTransform="matrix(-1.9, 0.94, 0.97, 1.96, 810.66, 240.72)" xlink:href="#radial-gradient-17"/><radialGradient id="radial-gradient-25" cx="567.53" cy="-184.28" r="1.21" gradientTransform="matrix(-0.9, 0.44, 0.47, 0.95, 614.17, -71.84)" xlink:href="#radial-gradient-18"/><radialGradient id="radial-gradient-26" cx="264.84" cy="-187.89" r="0.08" xlink:href="#radial-gradient-19"/><linearGradient id="linear-gradient-9" x1="556.19" y1="-138.05" x2="556.46" y2="-137.71" gradientTransform="matrix(-0.93, 0.37, 0.37, 0.93, 586.82, -74.37)" xlink:href="#linear-gradient-7"/><radialGradient id="radial-gradient-27" cx="491.12" cy="-4.82" r="7.8" xlink:href="#radial-gradient-3"/><radialGradient id="radial-gradient-28" cx="491.12" cy="-4.82" r="7.8" gradientTransform="matrix(-1, 0.05, 0.05, 1, 509.82, -17.96)" xlink:href="#radial-gradient-2"/><radialGradient id="radial-gradient-29" cx="477.64" cy="19.85" r="5.2" xlink:href="#radial-gradient-5"/><linearGradient id="linear-gradient-10" x1="503.38" y1="-51.27" x2="505.99" y2="-51.27" gradientTransform="matrix(-0.99, 0.12, 0.12, 0.99, 526.16, -4.29)" xlink:href="#linear-gradient-2"/><radialGradient id="radial-gradient-30" cx="479.72" cy="15.7" r="3.15" xlink:href="#radial-gradient-5"/><linearGradient id="linear-gradient-11" x1="480.03" y1="15.99" x2="481.75" y2="17.27" xlink:href="#linear-gradient-2"/><radialGradient id="radial-gradient-31" cx="195.97" cy="-412.39" r="0.68" gradientTransform="matrix(0.89, 0.45, 0.45, -0.89, 31.28, -440.27)" gradientUnits="userSpaceOnUse"><stop offset="0" stop-color="#f2e6d5"/><stop offset="1" stop-color="#e4c097"/></radialGradient><radialGradient id="radial-gradient-32" cx="195.97" cy="-412.39" r="0.68" gradientTransform="matrix(0.89, 0.45, 0.45, -0.89, 31.28, -440.27)" gradientUnits="userSpaceOnUse"><stop offset="0" stop-color="#f4ede0"/><stop offset="0.36" stop-color="#f0e2cd"/><stop offset="1" stop-color="#e6c7a2"/></radialGradient><linearGradient id="linear-gradient-12" x1="195.97" y1="-412.31" x2="196.48" y2="-412.31" gradientTransform="matrix(0.89, 0.45, 0.45, -0.89, 31.28, -440.27)" gradientUnits="userSpaceOnUse"><stop offset="0" stop-color="#fff"/><stop offset="0.1" stop-color="#e5e5e5"/><stop offset="0.33" stop-color="#a3a3a3"/><stop offset="0.65" stop-color="#3a3a3a"/><stop offset="0.82"/><stop offset="1"/></linearGradient><radialGradient id="radial-gradient-33" cx="262.38" cy="-583.91" r="0.68" gradientTransform="matrix(0.42, 0.91, 0.91, -0.42, 437.34, -468.08)" xlink:href="#radial-gradient-31"/><radialGradient id="radial-gradient-34" cx="262.38" cy="-583.91" r="0.68" gradientTransform="matrix(0.42, 0.91, 0.91, -0.42, 437.34, -468.08)" xlink:href="#radial-gradient-32"/><linearGradient id="linear-gradient-13" x1="262.38" y1="-583.84" x2="262.89" y2="-583.84" gradientTransform="matrix(0.42, 0.91, 0.91, -0.42, 437.34, -468.08)" xlink:href="#linear-gradient-12"/><radialGradient id="radial-gradient-35" cx="423.62" cy="-695.49" r="0.68" gradientTransform="matrix(-0.23, 0.97, 0.97, 0.23, 793.78, -234.02)" xlink:href="#radial-gradient-31"/><radialGradient id="radial-gradient-36" cx="423.62" cy="-695.49" r="0.68" gradientTransform="matrix(-0.23, 0.97, 0.97, 0.23, 793.78, -234.02)" xlink:href="#radial-gradient-32"/><linearGradient id="linear-gradient-14" x1="423.61" y1="-695.42" x2="424.13" y2="-695.42" gradientTransform="matrix(-0.23, 0.97, 0.97, 0.23, 793.78, -234.02)" xlink:href="#linear-gradient-12"/><radialGradient id="radial-gradient-37" cx="18.33" cy="15.97" r="4.08" xlink:href="#radial-gradient"/><radialGradient id="radial-gradient-38" cx="18.33" cy="15.97" r="4.08" xlink:href="#radial-gradient-2"/><radialGradient id="radial-gradient-39" cx="17.84" cy="15.78" r="2.92" gradientTransform="matrix(1, 0, 0, 1, 0, 0)" xlink:href="#radial-gradient-5"/><linearGradient id="linear-gradient-15" x1="17.65" y1="15.38" x2="17.01" y2="17.01" gradientUnits="userSpaceOnUse"><stop offset="0" stop-color="#9bcf82"/><stop offset="0.29" stop-color="#5d7c4e"/><stop offset="0.55" stop-color="#2b3924"/><stop offset="0.74" stop-color="#0c100a"/><stop offset="0.83"/><stop offset="1"/></linearGradient><radialGradient id="radial-gradient-40" cx="18.89" cy="16.28" r="2.78" gradientTransform="matrix(1, 0, 0, 1, 0, 0)" xlink:href="#radial-gradient-5"/><linearGradient id="linear-gradient-16" x1="19.48" y1="16.5" x2="17.89" y2="17.72" xlink:href="#linear-gradient-15"/><radialGradient id="radial-gradient-41" cx="13.15" cy="10.32" r="1.64" gradientUnits="userSpaceOnUse"><stop offset="0" stop-color="#701709"/><stop offset="1" stop-color="#260707"/></radialGradient><radialGradient id="radial-gradient-42" cx="13.19" cy="10.32" r="0.99" gradientUnits="userSpaceOnUse"><stop offset="0" stop-color="#74300b"/><stop offset="1" stop-color="#491b07"/></radialGradient><radialGradient id="radial-gradient-43" cx="13.19" cy="10.32" r="1.16" gradientUnits="userSpaceOnUse"><stop offset="0" stop-color="#602a0c"/><stop offset="0.77"/><stop offset="1"/></radialGradient><radialGradient id="radial-gradient-44" cx="11.47" cy="9.57" r="1.03" gradientUnits="userSpaceOnUse"><stop offset="0" stop-color="#c75b0e"/><stop offset="1" stop-color="#a2440f"/></radialGradient><radialGradient id="radial-gradient-45" cx="11.47" cy="9.56" r="1.03" gradientUnits="userSpaceOnUse"><stop offset="0" stop-color="#d87f25"/><stop offset="1" stop-color="#c14e0c"/></radialGradient><radialGradient id="radial-gradient-46" cx="11.47" cy="9.56" r="1.03" gradientUnits="userSpaceOnUse"><stop offset="0" stop-color="#d87f25"/><stop offset="0.02" stop-color="#cf7a24"/><stop offset="0.17" stop-color="#915519"/><stop offset="0.31" stop-color="#5d3710"/><stop offset="0.44" stop-color="#351f09"/><stop offset="0.55" stop-color="#180e04"/><stop offset="0.66" stop-color="#060401"/><stop offset="0.73"/><stop offset="1"/></radialGradient><radialGradient id="radial-gradient-47" cx="9.85" cy="10.86" r="2.15" xlink:href="#radial-gradient-41"/><radialGradient id="radial-gradient-48" cx="10" cy="11.21" r="1.07" xlink:href="#radial-gradient-42"/><radialGradient id="radial-gradient-49" cx="10" cy="11.21" r="1.51" xlink:href="#radial-gradient-43"/><radialGradient id="radial-gradient-50" cx="13.42" cy="11.63" r="1.56" xlink:href="#radial-gradient-41"/><radialGradient id="radial-gradient-51" cx="13.34" cy="11.67" r="1.1" xlink:href="#radial-gradient-42"/><radialGradient id="radial-gradient-52" cx="13.34" cy="11.67" r="1.24" xlink:href="#radial-gradient-43"/><radialGradient id="radial-gradient-53" cx="11.64" cy="12.52" r="1.69" xlink:href="#radial-gradient-41"/><radialGradient id="radial-gradient-54" cx="11.5" cy="12.7" r="1.32" xlink:href="#radial-gradient-42"/><radialGradient id="radial-gradient-55" cx="11.5" cy="12.7" r="1.72" xlink:href="#radial-gradient-43"/><radialGradient id="radial-gradient-56" cx="6.76" cy="12.57" r="1.63" xlink:href="#radial-gradient-41"/><radialGradient id="radial-gradient-57" cx="6.73" cy="12.85" r="1.15" xlink:href="#radial-gradient-42"/><radialGradient id="radial-gradient-58" cx="6.73" cy="12.85" r="1.55" xlink:href="#radial-gradient-43"/><radialGradient id="radial-gradient-59" cx="9.04" cy="13.27" r="2.07" xlink:href="#radial-gradient-41"/><radialGradient id="radial-gradient-60" cx="8.91" cy="13.08" r="1.25" xlink:href="#radial-gradient-42"/><radialGradient id="radial-gradient-61" cx="8.91" cy="13.08" r="1.59" xlink:href="#radial-gradient-43"/><radialGradient id="radial-gradient-62" cx="4.08" cy="19.25" r="1.69" gradientUnits="userSpaceOnUse"><stop offset="0" stop-color="#f8c950"/><stop offset="1" stop-color="#f8a12a"/></radialGradient><radialGradient id="radial-gradient-63" cx="7.77" cy="18.51" r="2.42" xlink:href="#radial-gradient-62"/><radialGradient id="radial-gradient-64" cx="11.97" cy="17.76" r="1.81" xlink:href="#radial-gradient-62"/><radialGradient id="radial-gradient-65" cx="12.91" cy="9.04" r="1.09" xlink:href="#radial-gradient-44"/><radialGradient id="radial-gradient-66" cx="12.91" cy="9.04" r="1.09" xlink:href="#radial-gradient-45"/><radialGradient id="radial-gradient-67" cx="12.91" cy="9.04" r="1.09" xlink:href="#radial-gradient-46"/><radialGradient id="radial-gradient-68" cx="14.7" cy="9.51" r="0.93" xlink:href="#radial-gradient-44"/><radialGradient id="radial-gradient-69" cx="14.7" cy="9.51" r="0.93" xlink:href="#radial-gradient-45"/><radialGradient id="radial-gradient-70" cx="14.7" cy="9.51" r="0.93" xlink:href="#radial-gradient-46"/><radialGradient id="radial-gradient-71" cx="15.75" cy="11.26" r="1.02" xlink:href="#radial-gradient-44"/><radialGradient id="radial-gradient-72" cx="15.75" cy="11.26" r="1.02" xlink:href="#radial-gradient-45"/><radialGradient id="radial-gradient-73" cx="15.75" cy="11.26" r="1.02" xlink:href="#radial-gradient-46"/><radialGradient id="radial-gradient-74" cx="16.74" cy="12.6" r="1.35" xlink:href="#radial-gradient-44"/><radialGradient id="radial-gradient-75" cx="16.74" cy="12.6" r="1.35" xlink:href="#radial-gradient-45"/><radialGradient id="radial-gradient-76" cx="16.74" cy="12.6" r="1.35" xlink:href="#radial-gradient-46"/><radialGradient id="radial-gradient-77" cx="14.97" cy="13.42" r="1.81" xlink:href="#radial-gradient-41"/><radialGradient id="radial-gradient-78" cx="15.06" cy="13.32" r="1.44" xlink:href="#radial-gradient-42"/><radialGradient id="radial-gradient-79" cx="15.06" cy="13.32" r="1.68" xlink:href="#radial-gradient-43"/><radialGradient id="radial-gradient-80" cx="12.98" cy="15.5" r="2.54" xlink:href="#radial-gradient-41"/><radialGradient id="radial-gradient-81" cx="12.93" cy="15.46" r="2.25" xlink:href="#radial-gradient-42"/><radialGradient id="radial-gradient-82" cx="12.93" cy="15.46" r="1.95" xlink:href="#radial-gradient-43"/><radialGradient id="radial-gradient-83" cx="17.05" cy="14.37" r="1.38" xlink:href="#radial-gradient-44"/><radialGradient id="radial-gradient-84" cx="17.05" cy="14.37" r="1.38" xlink:href="#radial-gradient-45"/><radialGradient id="radial-gradient-85" cx="17.05" cy="14.37" r="1.38" xlink:href="#radial-gradient-46"/><radialGradient id="radial-gradient-86" cx="16.57" cy="16.29" r="1.78" xlink:href="#radial-gradient-44"/><radialGradient id="radial-gradient-87" cx="16.57" cy="16.29" r="1.78" xlink:href="#radial-gradient-45"/><radialGradient id="radial-gradient-88" cx="16.57" cy="16.29" r="1.78" xlink:href="#radial-gradient-46"/><radialGradient id="radial-gradient-89" cx="2.79" cy="15.66" r="0.58" xlink:href="#radial-gradient-44"/><radialGradient id="radial-gradient-90" cx="4.09" cy="17.22" r="7.1" xlink:href="#radial-gradient-2"/><radialGradient id="radial-gradient-91" cx="0.76" cy="16.82" r="3.15" gradientTransform="matrix(1, 0, 0, 1, 0, 0)" xlink:href="#radial-gradient-5"/><radialGradient id="radial-gradient-92" cx="2.64" cy="16.98" r="0.86" xlink:href="#radial-gradient-44"/><radialGradient id="radial-gradient-93" cx="5.13" cy="14.64" r="2.04" xlink:href="#radial-gradient-41"/><radialGradient id="radial-gradient-94" cx="5.08" cy="15.26" r="1.64" xlink:href="#radial-gradient-42"/><radialGradient id="radial-gradient-95" cx="5.08" cy="15.26" r="1.62" xlink:href="#radial-gradient-43"/><radialGradient id="radial-gradient-96" cx="15.55" cy="17.64" r="1.54" xlink:href="#radial-gradient-44"/><radialGradient id="radial-gradient-97" cx="15.55" cy="17.64" r="1.54" xlink:href="#radial-gradient-45"/><radialGradient id="radial-gradient-98" cx="15.55" cy="17.64" r="1.54" xlink:href="#radial-gradient-46"/><radialGradient id="radial-gradient-99" cx="14.24" cy="18.41" r="1.68" xlink:href="#radial-gradient-44"/><radialGradient id="radial-gradient-100" cx="14.24" cy="18.41" r="1.68" xlink:href="#radial-gradient-45"/><radialGradient id="radial-gradient-101" cx="14.24" cy="18.41" r="1.68" xlink:href="#radial-gradient-46"/><radialGradient id="radial-gradient-102" cx="5.48" cy="16.04" r="5.7" xlink:href="#radial-gradient"/><radialGradient id="radial-gradient-103" cx="204.75" cy="-402.85" r="0.68" gradientTransform="matrix(0.92, 0.39, 0.39, -0.92, -19.04, -430.54)" xlink:href="#radial-gradient-31"/><radialGradient id="radial-gradient-104" cx="204.75" cy="-402.85" r="0.68" gradientTransform="matrix(0.92, 0.39, 0.39, -0.92, -19.04, -430.54)" xlink:href="#radial-gradient-32"/><linearGradient id="linear-gradient-17" x1="204.75" y1="-402.78" x2="205.26" y2="-402.78" gradientTransform="matrix(0.92, 0.39, 0.39, -0.92, -19.04, -430.54)" xlink:href="#linear-gradient-12"/><radialGradient id="radial-gradient-105" cx="154.68" cy="-528.96" r="0.68" gradientTransform="matrix(0.62, 0.78, 0.78, -0.62, 332.9, -429.57)" xlink:href="#radial-gradient-31"/><radialGradient id="radial-gradient-106" cx="154.68" cy="-528.96" r="0.68" gradientTransform="matrix(0.62, 0.78, 0.78, -0.62, 332.9, -429.57)" xlink:href="#radial-gradient-32"/><linearGradient id="linear-gradient-18" x1="154.67" y1="-528.88" x2="155.19" y2="-528.88" gradientTransform="matrix(0.62, 0.78, 0.78, -0.62, 332.9, -429.57)" xlink:href="#linear-gradient-12"/><radialGradient id="radial-gradient-107" cx="214.08" cy="-754.78" r="0.68" gradientTransform="matrix(-0.12, 0.99, 0.99, 0.12, 790.66, -101.64)" xlink:href="#radial-gradient-31"/><radialGradient id="radial-gradient-108" cx="214.08" cy="-754.78" r="0.68" gradientTransform="matrix(-0.12, 0.99, 0.99, 0.12, 790.66, -101.64)" xlink:href="#radial-gradient-32"/><linearGradient id="linear-gradient-19" x1="214.07" y1="-754.71" x2="214.59" y2="-754.71" gradientTransform="matrix(-0.12, 0.99, 0.99, 0.12, 790.66, -101.64)" xlink:href="#linear-gradient-12"/><radialGradient id="radial-gradient-109" cx="14.17" cy="19.5" r="5.33" xlink:href="#radial-gradient"/><radialGradient id="radial-gradient-110" cx="14.17" cy="19.5" r="5.33" xlink:href="#radial-gradient-2"/><radialGradient id="radial-gradient-111" cx="13.42" cy="19.43" r="2.84" gradientTransform="matrix(1, 0, 0, 1, 0, 0)" xlink:href="#radial-gradient-5"/><linearGradient id="linear-gradient-20" x1="13.19" y1="19.24" x2="12.06" y2="20.76" xlink:href="#linear-gradient-15"/><radialGradient id="radial-gradient-112" cx="15.31" cy="20.13" r="2.95" gradientTransform="matrix(1, 0, 0, 1, 0, 0)" xlink:href="#radial-gradient-5"/><linearGradient id="linear-gradient-21" x1="15.45" y1="20.56" x2="14.05" y2="21.64" xlink:href="#linear-gradient-15"/><radialGradient id="radial-gradient-113" cx="8.4" cy="15.86" r="2.8" xlink:href="#radial-gradient-41"/><radialGradient id="radial-gradient-114" cx="8.22" cy="15.99" r="2.28" xlink:href="#radial-gradient-42"/><radialGradient id="radial-gradient-115" cx="8.22" cy="15.99" r="2.16" xlink:href="#radial-gradient-43"/><radialGradient id="radial-gradient-116" cx="4.12" cy="17.96" r="0.68" xlink:href="#radial-gradient-44"/><radialGradient id="radial-gradient-117" cx="11.49" cy="18.88" r="0.82" xlink:href="#radial-gradient-44"/><radialGradient id="radial-gradient-118" cx="9.68" cy="18.55" r="0.84" xlink:href="#radial-gradient-44"/><radialGradient id="radial-gradient-119" cx="7.99" cy="18.03" r="0.79" xlink:href="#radial-gradient-44"/><radialGradient id="radial-gradient-120" cx="6.14" cy="17.99" r="0.78" xlink:href="#radial-gradient-44"/><radialGradient id="radial-gradient-121" cx="5.48" cy="16.04" r="5.7" xlink:href="#radial-gradient"/><radialGradient id="radial-gradient-122" cx="5.02" cy="16.12" r="2.72" gradientUnits="userSpaceOnUse"><stop offset="0" stop-color="#6ca11e"/><stop offset="0.24" stop-color="#486b14"/><stop offset="0.52" stop-color="#213109"/><stop offset="0.72" stop-color="#090e03"/><stop offset="0.83"/><stop offset="1"/></radialGradient><radialGradient id="radial-gradient-123" cx="-237.97" cy="-973.41" r="0.68" gradientTransform="matrix(-0.72, 0.7, -0.7, -0.72, -846.94, -513.76)" xlink:href="#radial-gradient-31"/><radialGradient id="radial-gradient-124" cx="-237.97" cy="-973.41" r="0.68" gradientTransform="matrix(-0.72, 0.7, -0.7, -0.72, -846.94, -513.76)" xlink:href="#radial-gradient-32"/><linearGradient id="linear-gradient-22" x1="-237.98" y1="-973.34" x2="-237.46" y2="-973.34" gradientTransform="matrix(-0.72, 0.7, -0.7, -0.72, -846.94, -513.76)" xlink:href="#linear-gradient-12"/><radialGradient id="radial-gradient-125" cx="-87.63" cy="-1250.33" r="0.68" gradientTransform="translate(-1242.13 184.94) rotate(86.5)" xlink:href="#radial-gradient-31"/><radialGradient id="radial-gradient-126" cx="-87.63" cy="-1250.33" r="0.68" gradientTransform="translate(-1242.13 184.94) rotate(86.5)" xlink:href="#radial-gradient-32"/><linearGradient id="linear-gradient-23" x1="-87.63" y1="-1250.26" x2="-87.12" y2="-1250.26" gradientTransform="translate(-1242.13 184.94) rotate(86.5)" xlink:href="#linear-gradient-12"/><radialGradient id="radial-gradient-127" cx="4.09" cy="17.22" r="7.1" xlink:href="#radial-gradient"/><radialGradient id="radial-gradient-128" cx="4.09" cy="17.22" r="7.1" xlink:href="#radial-gradient-2"/><radialGradient id="radial-gradient-129" cx="0.76" cy="16.82" r="3.15" gradientTransform="matrix(1, 0, 0, 1, 0, 0)" xlink:href="#radial-gradient-5"/></defs><g class="cls-1"><g id="Layer_2" data-name="Layer 2"><g id="Layer_1-2" data-name="Layer 1"><g id="turtee-assets"><g id="exit-turtee"><path class="cls-2" d="M14.3,7.36s-.26,1.49-1,1.8c-.15.31,1.74,1.9,2,1.75s.41-2,0-3Z"/><path class="cls-3" d="M15.29,8l-.62-.37A4.62,4.62,0,0,1,14.15,9a1.78,1.78,0,0,1,1,1.9h.1C15.57,10.76,15.7,9,15.29,8Z"/><path class="cls-4" d="M15.25,11a4.15,4.15,0,0,1-1.46-1c-.29-.28-.62-.65-.54-.8h0c.75-.29,1-1.76,1-1.77h.06c0,.06-.27,1.49-1,1.81,0,.08.1.31.53.73.59.57,1.31,1.05,1.45,1a4.27,4.27,0,0,0,0-2.93l.05,0c.41,1,.29,2.84,0,3Z"/><path class="cls-5" d="M13.92,1.12A2.73,2.73,0,0,1,17.38.4c.71-.1,1.55-.4,1.55,1.51.23.46.53,1.24.6,1.29s1.11.07.61,1.25a18.06,18.06,0,0,1-1.51,3.16c-.42.55-.49,1.07-.91,1.41a1.31,1.31,0,0,1-1.52.05,5.17,5.17,0,0,0-1.72-.35A4.11,4.11,0,0,1,12,8.05a2.39,2.39,0,0,1-.7-3.23A3.43,3.43,0,0,1,13.92,1.12Z"/><path class="cls-6" d="M13,1.69a1.27,1.27,0,0,0,.11.45,4,4,0,0,1,.13-.72,4.5,4.5,0,0,1,.66-.3A2.73,2.73,0,0,1,17.38.4c.71-.1,1.55-.4,1.55,1.51.23.46.53,1.24.6,1.29s1.11.07.61,1.25A13,13,0,0,1,18.56,7.5c-.3.5-.43,1.23-.84,1.52-1.23.7-1.74-.67-2.21-.41,0,0,.12.13.09.12-.53-.18-2.41-.38-3.17-1.1a2.53,2.53,0,0,1-.55-3.29A2.51,2.51,0,0,1,13,1.69Z"/><path class="cls-7" d="M20.16,4.4c.12-.34.18-.68.05-.84s-.33-.36-1.06-.41A.81.81,0,0,0,19,4.2C19.3,4.62,20,4.76,20.16,4.4Z"/><path class="cls-8" d="M19.63,3.36c-.14.08-.15.32,0,.54s.34.34.48.26a.42.42,0,0,0,.06-.55A.44.44,0,0,0,19.63,3.36Z"/><path class="cls-9" d="M17.33.44c.44-.09.89-.21,1.23.08a2.51,2.51,0,0,1,.26,2.05A4.36,4.36,0,0,0,17.33.44Z"/><path class="cls-10" d="M18.82,1.88A1.55,1.55,0,0,0,18.5.53c-.18-.15-.65-.27-1.44,0C18.1.45,18.77.72,18.82,1.88Z"/><path class="cls-11" d="M14.23,6.32c1.13.42.61,2,2,2.75a1.28,1.28,0,0,0,1.61-.14,5,5,0,0,0,.64-1.06,6,6,0,0,1-3-1.68A3.94,3.94,0,0,1,14.23,6.32Z"/><path class="cls-12" d="M16,8.42a1.4,1.4,0,0,0,2,.16A1.1,1.1,0,0,1,16,8.42Z"/><path class="cls-13" d="M15.08,6.22a2.79,2.79,0,0,0,.36-.1,5,5,0,0,0,2.64,1.67c-.12.63-.41,1.09-1,1.11s-1.12-1-1.35-1.61a1.57,1.57,0,0,0-1.07-1A2.2,2.2,0,0,0,15.08,6.22Z"/><path class="cls-14" d="M15.87,0a.19.19,0,0,1,0,.1.27.27,0,0,1-.28.26.28.28,0,0,1-.31-.23h0A2.54,2.54,0,0,1,15.87,0Z"/><path class="cls-14" d="M16.7.11a2.93,2.93,0,0,1,.62.26.27.27,0,0,1,0,.09c0,.1-.25.19-.39.16a.44.44,0,0,1-.28-.43A.56.56,0,0,1,16.7.11Z"/><path class="cls-4" d="M16.18,9.1a5,5,0,0,0-1.7-.35A4.18,4.18,0,0,1,12,8.07a2.9,2.9,0,0,1-1-1.46,2.12,2.12,0,0,1,.29-1.8,3.82,3.82,0,0,1,.18-1.51A3.43,3.43,0,0,1,13.9,1.09,3.24,3.24,0,0,1,16,0a2.59,2.59,0,0,1,1.42.37l.15,0L18,.29a.81.81,0,0,1,.64.19A2,2,0,0,1,19,1.9c.09.19.19.42.29.65s.26.59.29.62l.07,0a.89.89,0,0,1,.62.38,1.06,1.06,0,0,1-.07.89c-.11.25-.21.5-.31.74a12.47,12.47,0,0,1-1.2,2.43,4.13,4.13,0,0,0-.4.68,2.07,2.07,0,0,1-.52.74,1.27,1.27,0,0,1-.72.27h0A1.45,1.45,0,0,1,16.18,9.1ZM17.55.41l-.16,0h0A2.5,2.5,0,0,0,16,.07a3.16,3.16,0,0,0-2,1.07h0a3.42,3.42,0,0,0-2.41,2.17,3.54,3.54,0,0,0-.17,1.49v0h0A2.37,2.37,0,0,0,12,8a4,4,0,0,0,2.45.66A5.37,5.37,0,0,1,16.22,9a1.31,1.31,0,0,0,.79.21h0A1.16,1.16,0,0,0,17.7,9a1.94,1.94,0,0,0,.5-.72,3.91,3.91,0,0,1,.4-.69,12.24,12.24,0,0,0,1.2-2.41c.1-.25.2-.5.31-.74a1,1,0,0,0,.07-.84.83.83,0,0,0-.57-.35l-.1,0a3.36,3.36,0,0,1-.31-.65l-.3-.65h0A1.94,1.94,0,0,0,18.55.53.75.75,0,0,0,18,.36,2.73,2.73,0,0,0,17.55.41Z"/><path class="cls-15" d="M15.08,6.22a2.79,2.79,0,0,0,.36-.1,6.33,6.33,0,0,0,1.23,1.07c-.53-.12-.77.45-.72.71-.09-.19-.2-.45-.26-.61a1.57,1.57,0,0,0-1.07-1A2.2,2.2,0,0,0,15.08,6.22Z"/><path class="cls-16" d="M17.47,8.8a1.22,1.22,0,0,0-.3-1.33,3.56,3.56,0,0,0,.91.32A1.32,1.32,0,0,1,17.47,8.8Z"/><path class="cls-17" d="M16.8,7.87c.61-.21.87.41,1,.7A.93.93,0,0,1,17,8.9c-.47,0-.85-.52-1.11-1.05A.61.61,0,0,1,16.8,7.87Z"/><path class="cls-18" d="M17,8.15c0-.45.6-.14.69.48A.71.71,0,0,1,17,8.9a1,1,0,0,1-.86-1C16.25,7.67,16.77,7.72,17,8.15Z"/><path class="cls-19" d="M17,8.16c0-.21.19-.29.3-.22a.7.7,0,0,1,.38.72.65.65,0,0,1-.5.18C17.05,8.81,17.06,8.41,17,8.16Z"/><path class="cls-20" d="M16.3,7.84c.23-.11.59.1.71.37s.18.67,0,.66a.89.89,0,0,1-.69-.46C16.2,8.16,16.18,7.89,16.3,7.84Z"/><path class="cls-21" d="M17,8.93c-.4,0-.79-.35-1.14-1.07v0l0,0a.6.6,0,0,1,.41-.17.63.63,0,0,1,.48.18l.2,0c.49,0,.72.53.79.77h0v0a1,1,0,0,1-.7.34h0Zm0-1.07a.65.65,0,0,0-.19,0h0a.6.6,0,0,0-.45-.18.64.64,0,0,0-.35.15c.34.68.7,1,1.07,1h0a.85.85,0,0,0,.65-.3C17.65,8.33,17.44,7.84,17,7.86Z"/><path class="cls-21" d="M16.73,7.77l0,.05a1,1,0,0,1,.33.43A.78.78,0,0,0,16.73,7.77Z"/><path class="cls-4" d="M17,8.93c-.49,0-1-.55-1.38-1.63a1.56,1.56,0,0,0-1-1h0V6.23h.17l.3,0a1.43,1.43,0,0,0,.35-.11h0a5.05,5.05,0,0,0,2.61,1.67h0v0c-.14.74-.48,1.11-1,1.14Zm-1.6-2.79a1.73,1.73,0,0,1-.36.11l-.23,0a1.87,1.87,0,0,1,.87,1c.4,1,.86,1.6,1.32,1.58h0c.52,0,.83-.37,1-1A5.08,5.08,0,0,1,15.44,6.14Z"/><path class="cls-22" d="M13.13,2.14S13.24.75,14.21.45C15.37.09,16,1.36,16,1.36Z"/><path class="cls-23" d="M14.2.45A1.59,1.59,0,0,1,16,1.32c.34.62,1.32,2.47.24,2.86a2.56,2.56,0,0,1-3.14-2C13.14,1.91,13.21.74,14.2.45Z"/><path class="cls-24" d="M16.25,1.7A2,2,0,0,0,14.34.47c-.51.07-1.06.58-1.2,1.85C13.94.62,15.13.53,16.25,1.7Z"/><path class="cls-25" d="M15.37,1.65c.63,0,.92,1.29.92,2.08,0,1.17-.76,1.41-1.36,1.22a2.15,2.15,0,0,0-1.08-.09C13.46,3.07,14,1.61,15.37,1.65Z"/><path class="cls-26" d="M15.25,2.12c.61.09,1,.9,1,1.69,0,1.19-.7,1.35-1.32,1.26A1.3,1.3,0,0,1,14,3.5C14.13,2.71,14.67,2,15.25,2.12Z"/><path class="cls-27" d="M15.25,2.12c.61.09,1,.9,1,1.69,0,1.19-.7,1.35-1.32,1.26A1.3,1.3,0,0,1,14,3.5C14.13,2.71,14.67,2,15.25,2.12Z"/><path class="cls-28" d="M14.91,2.53a.24.24,0,0,0,.27.19.23.23,0,0,0,.19-.27.23.23,0,0,0-.46.08Z"/><path class="cls-29" d="M15,2.76a1,1,0,0,1,.77,1.1c0,.58-.34,1-.76,1s-.76-.51-.76-1.09S14.55,2.74,15,2.76Z"/><path d="M15,3.23a.66.66,0,0,1,.51.71c0,.38-.23.67-.51.66s-.51-.33-.51-.71S14.69,3.22,15,3.23Z"/><path class="cls-30" d="M14.55,3.62a.18.18,0,0,0,.2.15.18.18,0,0,0,.15-.21.18.18,0,1,0-.35.06Z"/><path class="cls-31" d="M15.32,3c.2.17.29.4.2.53s-.33.09-.53-.08-.3-.4-.21-.52S15.11,2.85,15.32,3Z"/><path d="M14,3.42c-.14.92.29,1.58.91,1.67a1.14,1.14,0,0,0,1-.21,1.33,1.33,0,0,0,.37-1.07c0-.76-.33-1.72-1-1.81S14.13,2.59,14,3.42Zm0,.08c.12-.82.67-1.44,1.22-1.36s1,.93,1,1.67a1.37,1.37,0,0,1-.36,1.05,1.11,1.11,0,0,1-.93.19A1.28,1.28,0,0,1,14,3.5Z"/><path class="cls-32" d="M15.8,5.47,13.64,5A1.53,1.53,0,0,1,15.8,5.47Z"/><path class="cls-33" d="M13.47,5.14c-.06.23.1.77,1,1a1.21,1.21,0,0,0,1.4-.41c.06-.23-.41-.78-1-.93S13.53,4.91,13.47,5.14Z"/><path class="cls-34" d="M13.76,5.1c-.06.24.31.54.81.66s1,0,1-.2-.27-.59-.78-.72S13.83,4.85,13.76,5.1Z"/><path class="cls-4" d="M14.84,4.74a1.57,1.57,0,0,1,1,.78,1.73,1.73,0,0,0-1-.73A1.76,1.76,0,0,0,13.64,5,1.54,1.54,0,0,1,14.84,4.74Z"/><path class="cls-35" d="M18.14,1.31c.49-.17,1.11.45,1.32,1a.93.93,0,0,1-.59,1.23c-.48.16-.86.25-1.05-.68C17.69,2.29,17.89,1.39,18.14,1.31Z"/><path class="cls-26" d="M18.53,1.64c.49-.08,1,.46,1.15,1.07C20,3.63,19.46,3.92,19,4s-1-.37-1.07-1S18.06,1.71,18.53,1.64Z"/><path class="cls-36" d="M18.53,1.64c.49-.08,1,.46,1.15,1.07C20,3.63,19.46,3.92,19,4s-1-.37-1.07-1S18.06,1.71,18.53,1.64Z"/><path class="cls-37" d="M18.59,2a.19.19,0,0,0,.25.08.19.19,0,0,0-.17-.33A.18.18,0,0,0,18.59,2Z"/><path class="cls-38" d="M18.62,2.09c.33-.08.7.22.84.67s0,.87-.35,1-.71-.22-.84-.67S18.29,2.17,18.62,2.09Z"/><path d="M18.72,2.45a.54.54,0,0,1,.56.43.47.47,0,0,1-.24.63.54.54,0,0,1-.56-.43A.47.47,0,0,1,18.72,2.45Z"/><path class="cls-39" d="M18.47,2.83a.18.18,0,1,0,.15-.21A.19.19,0,0,0,18.47,2.83Z"/><path class="cls-40" d="M18.94,2.2c.2.08.32.24.28.36s-.24.14-.43.06-.32-.23-.28-.35S18.74,2.12,18.94,2.2Z"/><path d="M17.87,2.93C18,3.67,18.46,4.08,19,4a.92.92,0,0,0,.69-.39,1.11,1.11,0,0,0,0-.91c-.18-.59-.66-1.26-1.19-1.17S17.77,2.26,17.87,2.93Zm0,0c-.1-.65.18-1.26.62-1.33s1,.49,1.14,1.06a1.08,1.08,0,0,1,0,.9A.92.92,0,0,1,19,4,1,1,0,0,1,17.91,3Z"/><path class="cls-41" d="M18.12,1.21a8.38,8.38,0,0,1,1.06,2.46A1.89,1.89,0,0,1,20.72,5.1c.23,0,.43.3.14.91-.17.33-.18,1.6-1.17,1.82a4.42,4.42,0,0,1-4.23-1.7Z"/><path class="cls-42" d="M19.17,3.66a1.89,1.89,0,0,1,1.54,1.43c.23,0,.43.3.13.91-.12.25-.16,1-.61,1.51a2.81,2.81,0,0,1-1.76.16,7,7,0,0,1-3-1.55l2-4.42.63-.5A8.33,8.33,0,0,1,19.17,3.66Z"/><path class="cls-43" d="M19.14,3.64a1.94,1.94,0,0,1,1.58,1.43c.23,0,.43.3.13.91-.13.25-.17,1-.63,1.5a2.89,2.89,0,0,1-1.82.11c-1.83-.39-2.73-1.45-2.84-2L17.68,1.5l.42-.36A9,9,0,0,1,19.14,3.64Z"/><path class="cls-44" d="M18.2,3.92a1.81,1.81,0,0,1,2.27,1.29c.1.35-.6.38-.81-.24A1.5,1.5,0,0,0,18.2,3.92Z"/><path class="cls-45" d="M14.76.41A2.53,2.53,0,0,1,16.93.22c1.12.4,1.89,2.13,2.28,3.45-.65-.16-2.3.8-2.55-.75C16.51,2,15.84.59,14.76.41Z"/><path class="cls-46" d="M15.44.14C17.5-.33,18.52,1.46,19,3.25c.12.45-.67.31-.79-.26C17.84,1.15,16.84.14,15.44.14Z"/><path class="cls-4" d="M19.16,7.93a3,3,0,0,0,.53-.07c.79-.17,1-1,1.1-1.49a1.51,1.51,0,0,1,.1-.35c.17-.36.2-.68.06-.85a.24.24,0,0,0-.2-.11,1.92,1.92,0,0,0-1.54-1.41,6,6,0,0,0-.55-1.56,4.88,4.88,0,0,0-.54-.89,9,9,0,0,1,1,2.48v0h0a1.84,1.84,0,0,1,1.51,1.4v0h0a.17.17,0,0,1,.17.08c.09.12.12.39-.07.78a2.27,2.27,0,0,0-.11.36c-.12.51-.3,1.28-1,1.44A4.29,4.29,0,0,1,15.49,6.1l-.05.05a5.06,5.06,0,0,0,2.32,1.59A3.81,3.81,0,0,0,19.16,7.93Z"/><path class="cls-47" d="M20.75,5.36s.06.13,0,.3-.08.32-.17.29-.05-.25,0-.32S20.72,5.34,20.75,5.36Z"/><path class="cls-48" d="M20.79,5.66c0,.18-.08.32-.17.29s0-.32,0-.33C20.67,6,20.79,5.66,20.79,5.66Z"/><path class="cls-4" d="M20.61,6c-.09,0-.09-.21-.07-.35s.13-.3.2-.3h0a.47.47,0,0,1,.05.34c0,.07,0,.31-.17.32h0Zm0-.34c0,.17,0,.27,0,.28h0s.09-.09.11-.26a.73.73,0,0,0,0-.26A.49.49,0,0,0,20.61,5.64Z"/><path class="cls-47" d="M18.52,5.65c.27-.21.61.46.56.52a.51.51,0,0,1-.46-.06C18.49,6,18.39,5.76,18.52,5.65Z"/><path class="cls-48" d="M18.52,5.65h0c-.05.24.22.51.51.54a.51.51,0,0,1-.43-.07C18.49,6,18.39,5.76,18.52,5.65Z"/><path class="cls-4" d="M18.6,6.13a.44.44,0,0,1-.17-.34.19.19,0,0,1,.07-.16.21.21,0,0,1,.13,0c.16,0,.33.2.42.37s.09.2.05.24-.12,0-.14,0h0A.51.51,0,0,1,18.6,6.13Zm.27-.33a.36.36,0,0,0-.24-.16l-.09,0a.14.14,0,0,0-.05.11.4.4,0,0,0,.15.29.48.48,0,0,0,.31.09l.1,0A.8.8,0,0,0,18.87,5.8Z"/><path class="cls-14" d="M16.23.33c.06,0,.3.22.27.37s-.24.15-.38.11-.27-.23-.25-.32A.41.41,0,0,1,16.23.33Z"/><path class="cls-14" d="M17.21.88c.09,0,.17.08.18.2a.21.21,0,0,1-.16.22.19.19,0,0,1-.17-.2C17.05,1,17.12.88,17.21.88Z"/><path class="cls-14" d="M16.57.91c.07,0,.32.23.3.31s-.18.16-.22.17-.21-.14-.22-.2S16.5.92,16.57.91Z"/><path class="cls-14" d="M17,1.46s.26.07.29.13-.05.21-.07.24-.25,0-.27,0S16.89,1.49,17,1.46Z"/><path class="cls-49" d="M11.6,5.64c.11.07.22.73,0,.77s-.38-.29-.4-.44S11.5,5.58,11.6,5.64Z"/><path class="cls-50" d="M11.6,5.64c.1.06.21.62,0,.74a2.29,2.29,0,0,1-.13-.73A.15.15,0,0,1,11.6,5.64Z"/><path class="cls-50" d="M12.41,6.21c.08,0,.34.36.31.45a.9.9,0,0,1-.47.29c-.12,0-.31-.33-.28-.45S12.25,6.18,12.41,6.21Z"/><path class="cls-50" d="M12.86,5.89s.2.19.21.31-.24.1-.27.06S12.77,5.91,12.86,5.89Z"/><path class="cls-50" d="M12.94,6.83s.12.43.05.49-.31-.09-.32-.17S12.87,6.8,12.94,6.83Z"/><path class="cls-49" d="M12.41,7.27a.44.44,0,0,1,.19.35.22.22,0,0,1-.21.16c-.07,0-.19-.19-.2-.3S12.36,7.27,12.41,7.27Z"/><path class="cls-50" d="M12.41,7.27a.44.44,0,0,1,.19.35.27.27,0,0,1-.06.1,1.9,1.9,0,0,1-.32-.31A.37.37,0,0,1,12.41,7.27Z"/><path class="cls-49" d="M11.59,6.71c.08,0,.41.23.4.43s-.33.17-.4.06S11.48,6.75,11.59,6.71Z"/><path class="cls-48" d="M11.83,6.85a.49.49,0,0,1,.16.26Z"/><path class="cls-4" d="M16.27,9.15l0-.06A1.09,1.09,0,0,1,16,8.86L16,8.79a1,1,0,0,0-.44-.18,1.25,1.25,0,0,1,.39.23l.07.07A1.06,1.06,0,0,0,16.27,9.15Z"/><path class="cls-4" d="M11.29,4.91A2.3,2.3,0,0,1,12,4.36a1.82,1.82,0,0,0-.72.51Z"/><path class="cls-4" d="M17.84.88a1.83,1.83,0,0,0-.47-.53l0,.06A3.23,3.23,0,0,1,17.84.88Z"/><path class="cls-4" d="M13.13,2.14h0c.06-.39.25-1.56,1.31-1.7A1.67,1.67,0,0,1,16,1.36,1.55,1.55,0,0,0,15.6.73,1.49,1.49,0,0,0,14.43.37a1.46,1.46,0,0,0-1.19,1A2.43,2.43,0,0,0,13.13,2.14Z"/><path class="cls-4" d="M18.43,3.82a2.11,2.11,0,0,1,.84-.09V3.66A2,2,0,0,0,18.43,3.82Z"/><path class="cls-4" d="M14.85,6.3a1.52,1.52,0,0,0,.61-.16.83.83,0,0,0,.38-.33,1.58,1.58,0,0,1-1.57.35A.8.8,0,0,0,14.85,6.3Z"/><path class="cls-4" d="M20.57,5.26a.21.21,0,0,1,.23-.13V5.07C20.63,5.05,20.57,5.26,20.57,5.26Z"/><path class="cls-51" d="M18.71,16.58c.13-.12.11-.67,0-.74s-.58.25-.6.41S18.6,16.69,18.71,16.58Z"/><path class="cls-52" d="M18.58,16.55c.13-.12.18-.67.1-.71s-.58.25-.6.41S18.47,16.65,18.58,16.55Z"/><path class="cls-53" d="M18.55,16.53c.12-.12.2-.63.12-.66s-.53.25-.55.41S18.46,16.61,18.55,16.53Z"/><path class="cls-54" d="M18.81,16.07a.71.71,0,0,1-.09.53c-.07.06-.26,0-.42-.06s-.26-.2-.25-.29a.89.89,0,0,1,.4-.39.31.31,0,0,1,.24,0h0C18.77,15.86,18.8,16,18.81,16.07Zm-.12.5a.75.75,0,0,0,.08-.49c0-.12-.06-.2-.1-.22v0a.24.24,0,0,0-.2,0c-.17.09-.36.26-.37.35s.07.17.22.25S18.65,16.61,18.69,16.57Z"/><path class="cls-55" d="M19.39,17.4c.17,0,.5-.47.43-.61s-.61-.16-.73-.05S19.23,17.41,19.39,17.4Z"/><path class="cls-56" d="M19.31,17.29c.17,0,.55-.42.51-.5s-.61-.16-.73-.05S19.15,17.31,19.31,17.29Z"/><path class="cls-57" d="M19.29,17.26c.17,0,.54-.37.51-.45s-.58-.13-.7,0S19.17,17.27,19.29,17.26Z"/><path class="cls-54" d="M19.78,17.05c-.1.18-.27.36-.39.37s-.22-.15-.3-.31-.09-.32,0-.38a.8.8,0,0,1,.55-.06.29.29,0,0,1,.21.11h0C19.88,16.86,19.82,17,19.78,17.05Zm-.4.32c.09,0,.26-.16.36-.34a.3.3,0,0,0,.06-.23h0s-.08-.07-.18-.09a.81.81,0,0,0-.52.05c-.05,0,0,.18,0,.33S19.32,17.38,19.38,17.37Z"/><path class="cls-58" d="M19.08,18.45c.14.09.68-.05.72-.21s-.38-.5-.55-.49S19,18.36,19.08,18.45Z"/><path class="cls-59" d="M19.08,18.32a1,1,0,0,0,.72-.08c0-.15-.38-.5-.55-.49S19,18.23,19.08,18.32Z"/><path class="cls-60" d="M19.09,18.28c.14.09.66,0,.68,0s-.38-.45-.54-.44S19,18.21,19.09,18.28Z"/><path class="cls-54" d="M19.6,18.42a.72.72,0,0,1-.53,0c-.08-.05-.08-.25,0-.42s.13-.3.22-.31.34.15.47.29a.39.39,0,0,1,.1.23h0C19.8,18.33,19.67,18.39,19.6,18.42Zm-.51,0a.68.68,0,0,0,.49-.05c.11,0,.19-.1.2-.14h0s0-.11-.09-.19a.82.82,0,0,0-.44-.28c-.07,0-.14.12-.18.28S19,18.39,19.09,18.43Z"/><path class="cls-61" d="M15.32,17.55a2.47,2.47,0,0,1,.6.65,1.78,1.78,0,0,0,1.45.75,2.16,2.16,0,0,0,1.8-.59,1.5,1.5,0,0,0-.22-1.9,1.7,1.7,0,0,0-1-.27,2.07,2.07,0,0,0-1.48-1C16.19,15.28,15.32,17.55,15.32,17.55Z"/><path class="cls-62" d="M19,16.46a1.7,1.7,0,0,0-1-.27,2.2,2.2,0,0,0-1.44-1l.08.1a2.08,2.08,0,0,1-.7,2.21,1.7,1.7,0,0,0,.39.66A2.1,2.1,0,0,0,19.36,18,1.52,1.52,0,0,0,19,16.46Z"/><path class="cls-63" d="M18,16.19h0a2.2,2.2,0,0,0-1.44-1l.08.1a2.08,2.08,0,0,1-.7,2.21,1.7,1.7,0,0,0,.39.66,2.11,2.11,0,0,0,1.5.57A3.26,3.26,0,0,0,18,16.19Z"/><path class="cls-64" d="M17.28,16.1a.45.45,0,0,0,.63,0,2.47,2.47,0,0,0-.73-.63A.77.77,0,0,0,17.28,16.1Z"/><path class="cls-64" d="M17,17s.18.15.14.3-.15.28-.3.22a.23.23,0,0,1-.09-.33C16.79,17.09,16.87,17,17,17Z"/><path class="cls-64" d="M17,16.16s-.26.19-.27.28.08.44.2.4a.6.6,0,0,0,.31-.37C17.2,16.36,17,16.16,17,16.16Z"/><path class="cls-64" d="M17.62,16.43a.55.55,0,0,1,.05.49.23.23,0,0,1-.43-.11C17.21,16.58,17.48,16.28,17.62,16.43Z"/><path class="cls-65" d="M18,16.19h0a2.2,2.2,0,0,0-1.44-1l.08.1a2.11,2.11,0,0,1,.11.83c.77.32,1.23,1.42,1.34,1.17A1.85,1.85,0,0,0,18,16.19Z"/><path class="cls-66" d="M19,16.46a1.64,1.64,0,0,0-1-.27,3.26,3.26,0,0,1-.18,2.56A2.06,2.06,0,0,0,19.36,18,1.52,1.52,0,0,0,19,16.46Z"/><path class="cls-67" d="M18,16.19c1.19,0,1.44.72,1.41,1.54s-1.09.63-1,.08C18.63,16.76,18.27,16.33,18,16.19Z"/><path class="cls-4" d="M17.62,19h-.25a1.84,1.84,0,0,1-1.47-.76,2.4,2.4,0,0,0-.59-.64h0v0c.09-.23.89-2.28,1.2-2.35h.07a2.27,2.27,0,0,1,1.44,1h0a1.72,1.72,0,0,1,.93.27,1.29,1.29,0,0,1,.46.88,1.41,1.41,0,0,1-.23,1.07A2.05,2.05,0,0,1,17.62,19Zm-2.26-1.45a2.44,2.44,0,0,1,.59.65,1.76,1.76,0,0,0,1.43.73h.24a2,2,0,0,0,1.53-.59,1.33,1.33,0,0,0,.21-1,1.17,1.17,0,0,0-.43-.83,1.71,1.71,0,0,0-.9-.27H18v0a2.21,2.21,0,0,0-1.4-1h0A7.46,7.46,0,0,0,15.36,17.54Z"/><path class="cls-68" d="M10.7,10.82a3.32,3.32,0,0,1,1.85-1.31,2.22,2.22,0,0,1,2.61,1.56c.3,1.07.38,1.65,0,1.72A38,38,0,0,1,10.7,10.82Z"/><path class="cls-69" d="M12.86,9.64a2.57,2.57,0,0,0-.42.54c-.06.17-.09.41,0,.52a1.41,1.41,0,0,0,.79.18h0a1.37,1.37,0,0,0,.73-.12.44.44,0,0,0,.06-.56,1.85,1.85,0,0,0-.77-.52A3.15,3.15,0,0,0,12.86,9.64Z"/><path class="cls-70" d="M12.86,9.64a2.57,2.57,0,0,0-.42.54c-.06.17-.09.41,0,.52a1.41,1.41,0,0,0,.79.18h0a1.37,1.37,0,0,0,.73-.12.44.44,0,0,0,.06-.56,1.85,1.85,0,0,0-.77-.52A3.15,3.15,0,0,0,12.86,9.64Z"/><path d="M15.13,12.82a38,38,0,0,1-4.44-2h0l0,0a3.31,3.31,0,0,1,1.86-1.31,2.07,2.07,0,0,1,.5-.06,2.26,2.26,0,0,1,2.14,1.64c.23.81.34,1.37.19,1.61a.3.3,0,0,1-.21.13Zm-4.39-2a39.08,39.08,0,0,0,4.39,1.95h0a.26.26,0,0,0,.17-.11c.14-.23,0-.79-.19-1.57A2.21,2.21,0,0,0,13,9.49a2,2,0,0,0-.49,0A3.32,3.32,0,0,0,10.74,10.81Z"/><path class="cls-71" d="M12.65,11.46h0a.81.81,0,0,1-.56-.16h0a1.84,1.84,0,0,1,.27-1.62h0a2,2,0,0,1,1.07-.38,1.69,1.69,0,0,1,1.46,1.3h0A3.53,3.53,0,0,1,12.65,11.46Zm-.52-.2a.79.79,0,0,0,.52.14,3.52,3.52,0,0,0,2.18-.82c-.06-.23-.48-1.24-1.4-1.24a1.83,1.83,0,0,0-1,.37A1.71,1.71,0,0,0,12.13,11.26Z"/><path class="cls-71" d="M13.28,10.93h0a1.47,1.47,0,0,1-.83-.19c-.19-.15-.08-.51-.06-.58a3,3,0,0,1,.45-.57h0s.26,0,.46,0a1.89,1.89,0,0,1,.81.55.49.49,0,0,1-.08.64A1.41,1.41,0,0,1,13.28,10.93Zm-.42-1.29a2.57,2.57,0,0,0-.42.54c-.06.17-.09.41,0,.52a1.41,1.41,0,0,0,.79.18h0a1.37,1.37,0,0,0,.73-.12.44.44,0,0,0,.06-.56,1.85,1.85,0,0,0-.77-.52A3.15,3.15,0,0,0,12.86,9.64Z"/><path class="cls-72" d="M12.06,9.4a1.89,1.89,0,0,0-1.57,1.1,2,2,0,0,0,.52.13,3.61,3.61,0,0,1,1.2-.82A2.74,2.74,0,0,0,12.06,9.4Z"/><path class="cls-73" d="M12.11,9.51a1.48,1.48,0,0,0-.69.2c-.31.21-.12.46.26.37a2,2,0,0,1,.53-.27A1.11,1.11,0,0,0,12.11,9.51Z"/><path class="cls-74" d="M12.11,9.51a1.48,1.48,0,0,0-.69.2c-.31.21-.12.46.26.37a2,2,0,0,1,.53-.27A1.11,1.11,0,0,0,12.11,9.51Z"/><path class="cls-75" d="M11,10.66h0a2,2,0,0,1-.53-.13l0,0v0a1.93,1.93,0,0,1,1.6-1.12h0v0c.16.38.15.42.14.43h0a3.49,3.49,0,0,0-1.19.82Zm-.5-.17a2.14,2.14,0,0,0,.48.11,3.63,3.63,0,0,1,1.18-.81,2.85,2.85,0,0,0-.13-.36A1.9,1.9,0,0,0,10.52,10.49Z"/><path class="cls-76" d="M7.86,11.85A2.68,2.68,0,0,1,10,10.4a2.34,2.34,0,0,1,2.45,1c-.1.15-2.52,1.82-3.17,1.56A4.71,4.71,0,0,1,7.86,11.85Z"/><path class="cls-77" d="M10,10.62c-.27,0-1,.18-1.09.35a1.27,1.27,0,0,0-.07.12c-.1.14-.21.31-.17.41a.13.13,0,0,0,.11.07,1.17,1.17,0,0,1,.26.1,1.14,1.14,0,0,0,.5.13,1.13,1.13,0,0,0,.3,0c.24,0,.44-.07.61-.09a.86.86,0,0,0,.49-.12l.17-.13c.13-.11.32-.25.33-.34s0,0,0,0a2.24,2.24,0,0,0-.89-.43H10Z"/><path class="cls-78" d="M10,10.62c-.27,0-1,.18-1.09.35a1.27,1.27,0,0,0-.07.12c-.1.14-.21.31-.17.41a.13.13,0,0,0,.11.07,1.17,1.17,0,0,1,.26.1,1.14,1.14,0,0,0,.5.13,1.13,1.13,0,0,0,.3,0c.24,0,.44-.07.61-.09a.86.86,0,0,0,.49-.12l.17-.13c.13-.11.32-.25.33-.34s0,0,0,0a2.24,2.24,0,0,0-.89-.43H10Z"/><path class="cls-71" d="M9.4,13.05a.48.48,0,0,1-.18,0,4.67,4.67,0,0,1-1.39-1.15h0v0a2.72,2.72,0,0,1,2.11-1.46l.38,0a2.6,2.6,0,0,1,2.09,1c0,.06,0,.11,0,.14S10.23,13.05,9.4,13.05Zm-1.51-1.2A4.67,4.67,0,0,0,9.24,13a.41.41,0,0,0,.16,0,8.25,8.25,0,0,0,3-1.57.2.2,0,0,0,0-.08,2.51,2.51,0,0,0-2-.93l-.37,0A2.66,2.66,0,0,0,7.89,11.85Z"/><path class="cls-79" d="M11.62,11.8a1.81,1.81,0,0,1,2-.81,2.09,2.09,0,0,1,1.69,1.42s-1.47,2.21-2.1,1.59A14.63,14.63,0,0,1,11.62,11.8Z"/><path class="cls-80" d="M13.17,11.16a1,1,0,0,0-.38.05c-.21.08-.48.23-.45.33s.42.6.67.62a.42.42,0,0,1,.27.17c.05.07.1.12.17.12h0a.3.3,0,0,0,.14,0,2.42,2.42,0,0,1,.37-.21,1,1,0,0,0,.37-.25.38.38,0,0,0,.06-.32.27.27,0,0,0-.2-.16,1.82,1.82,0,0,1-.43-.16l-.24-.09A1.06,1.06,0,0,0,13.17,11.16Z"/><path class="cls-81" d="M13.17,11.16a1,1,0,0,0-.38.05c-.21.08-.48.23-.45.33s.42.6.67.62a.42.42,0,0,1,.27.17c.05.07.1.12.17.12h0a.3.3,0,0,0,.14,0,2.42,2.42,0,0,1,.37-.21,1,1,0,0,0,.37-.25.38.38,0,0,0,.06-.32.27.27,0,0,0-.2-.16,1.82,1.82,0,0,1-.43-.16l-.24-.09A1.06,1.06,0,0,0,13.17,11.16Z"/><path class="cls-71" d="M13.43,14.14a.4.4,0,0,1-.29-.12,14.86,14.86,0,0,1-1.55-2.21h0a1.82,1.82,0,0,1,1.57-.86l.41,0a2.16,2.16,0,0,1,1.72,1.45h0C15.24,12.5,14.14,14.14,13.43,14.14ZM11.65,11.8A14.89,14.89,0,0,0,13.18,14a.33.33,0,0,0,.25.1c.65,0,1.7-1.53,1.8-1.67A2.1,2.1,0,0,0,13.56,11a2.85,2.85,0,0,0-.4,0A1.76,1.76,0,0,0,11.65,11.8Z"/><path class="cls-82" d="M10,12.5s.83-1,1.81-.78a2.89,2.89,0,0,1,1.93,2c-.3.31-2.76,1.89-3.14,1.64S10,12.5,10,12.5Z"/><path class="cls-83" d="M11.55,11.92h0s-.58,0-.73.19a1,1,0,0,0,0,.93l.07.11c.13.24.3.56.48.56l.07,0,.07,0a2.44,2.44,0,0,1,.83-.29H13c.17,0,.21,0,.22,0v0a4.21,4.21,0,0,0-.66-.75l-.06,0C12.2,12.29,11.77,11.92,11.55,11.92Z"/><path class="cls-84" d="M11.55,11.92h0s-.58,0-.73.19a1,1,0,0,0,0,.93l.07.11c.13.24.3.56.48.56l.07,0,.07,0a2.44,2.44,0,0,1,.83-.29H13c.17,0,.21,0,.22,0v0a4.21,4.21,0,0,0-.66-.75l-.06,0C12.2,12.29,11.77,11.92,11.55,11.92Z"/><path class="cls-71" d="M10.67,15.41a.23.23,0,0,1-.13,0c-.38-.25-.61-2.77-.62-2.88h0a2.34,2.34,0,0,1,1.53-.83,1.22,1.22,0,0,1,.32,0,2.91,2.91,0,0,1,2,2v0h0A9.61,9.61,0,0,1,10.67,15.41ZM10,12.51c.08.9.3,2.63.59,2.82a.13.13,0,0,0,.1,0,9.72,9.72,0,0,0,3-1.65,2.88,2.88,0,0,0-1.91-2l-.3,0A2.2,2.2,0,0,0,10,12.51Z"/><path class="cls-85" d="M5.33,13.8a2.61,2.61,0,0,1,1.08-1.45c1-.76,1.66-.87,2.35-.16s-1.68,2.45-2,2.47S5.33,13.8,5.33,13.8Z"/><path class="cls-86" d="M5.86,13.18c0,.06.32.4.55.4h0A.73.73,0,0,0,7,13.26a2.21,2.21,0,0,0,.2-.3,1.9,1.9,0,0,1,.41-.54.31.31,0,0,0,.13-.32A.12.12,0,0,0,7.59,12h0a2.4,2.4,0,0,0-.91.43l-.16.1C6.22,12.71,5.89,12.93,5.86,13.18Z"/><path class="cls-87" d="M5.86,13.18c0,.06.32.4.55.4h0A.73.73,0,0,0,7,13.26a2.21,2.21,0,0,0,.2-.3,1.9,1.9,0,0,1,.41-.54.31.31,0,0,0,.13-.32A.12.12,0,0,0,7.59,12h0a2.4,2.4,0,0,0-.91.43l-.16.1C6.22,12.71,5.89,12.93,5.86,13.18Z"/><path class="cls-71" d="M6.78,14.69a6.13,6.13,0,0,1-1.47-.86l0,0h0a2.67,2.67,0,0,1,1.09-1.48,2.39,2.39,0,0,1,1.4-.63,1.39,1.39,0,0,1,1,.48.55.55,0,0,1,.08.61,4.87,4.87,0,0,1-2.07,1.91Zm-1.42-.9a5.79,5.79,0,0,0,1.42.84h0a4.86,4.86,0,0,0,2-1.87.49.49,0,0,0-.06-.55,1.35,1.35,0,0,0-1-.47,2.34,2.34,0,0,0-1.37.63A2.68,2.68,0,0,0,5.36,13.79Z"/><path class="cls-88" d="M6.84,14.47a3.66,3.66,0,0,1,1.44-2.19,1.66,1.66,0,0,1,2.42,1.09,2.83,2.83,0,0,1,0,2.16C10.48,15.82,6.84,14.47,6.84,14.47Z"/><path class="cls-89" d="M8.75,13.7a2.14,2.14,0,0,1,.58.12,2.58,2.58,0,0,0,.48.1.26.26,0,0,0,.22-.08.73.73,0,0,0,.07-.55,1.24,1.24,0,0,0-.77-.78A.84.84,0,0,0,9,12.44a1.89,1.89,0,0,0-.49.07.56.56,0,0,0-.36.38A.48.48,0,0,1,8,13.1a.81.81,0,0,0-.29.56c0,.08.1.12.31.12a5.61,5.61,0,0,0,.59-.06h.15Z"/><path class="cls-90" d="M8.75,13.7a2.14,2.14,0,0,1,.58.12,2.58,2.58,0,0,0,.48.1.26.26,0,0,0,.22-.08.73.73,0,0,0,.07-.55,1.24,1.24,0,0,0-.77-.78A.84.84,0,0,0,9,12.44a1.89,1.89,0,0,0-.49.07.56.56,0,0,0-.36.38A.48.48,0,0,1,8,13.1a.81.81,0,0,0-.29.56c0,.08.1.12.31.12a5.61,5.61,0,0,0,.59-.06h.15Z"/><path class="cls-71" d="M10.56,15.6a23.33,23.33,0,0,1-3.73-1.1h0v0a3.7,3.7,0,0,1,1.46-2.21A1.63,1.63,0,0,1,9.09,12a1.91,1.91,0,0,1,1.64,1.36,3,3,0,0,1,0,2.19A.26.26,0,0,1,10.56,15.6ZM6.87,14.45a22.88,22.88,0,0,0,3.69,1.09c.1,0,.12,0,.13,0a2.88,2.88,0,0,0,0-2.13,1.85,1.85,0,0,0-1.58-1.32,1.51,1.51,0,0,0-.79.24A3.66,3.66,0,0,0,6.87,14.45Z"/><path class="cls-91" d="M5.62,18.89a2.64,2.64,0,0,0-.59,0,.77.77,0,0,0-.41,1.22h0l0,0,0,0a2.25,2.25,0,0,0,2.08.42A2.68,2.68,0,0,1,5.62,18.89Z"/><path class="cls-92" d="M8.06,19.27a7.37,7.37,0,0,0-2.44-.38,2.68,2.68,0,0,0,1.14,1.75h0a4,4,0,0,0,3.08-.26l.19-.07a3.43,3.43,0,0,0-.43-1.07A2.39,2.39,0,0,1,8.06,19.27Z"/><path class="cls-93" d="M14.69,18.08h0c-.36,0-3.91.33-4.09.63a2.06,2.06,0,0,1-1,.52,3.43,3.43,0,0,1,.43,1.07c.24-.09.76-.25,1.84-.53,2.35-.31,2.81-1.69,2.81-1.69Z"/><path class="cls-94" d="M8,20.86a3.79,3.79,0,0,1-1.21-.2,1.47,1.47,0,0,1-.61.1,2.15,2.15,0,0,1-1.51-.52.77.77,0,0,1-.22-.75A.92.92,0,0,1,5,18.9a2.34,2.34,0,0,1,.55,0,7.67,7.67,0,0,1,2.5.38,1.51,1.51,0,0,0,.63.12h0a2.83,2.83,0,0,0,1.86-.67c.19-.31,3.73-.61,4.14-.64h0v0a2.35,2.35,0,0,1-.53.74,4.1,4.1,0,0,1-2.31,1,14.18,14.18,0,0,0-2,.59A4,4,0,0,1,8,20.86ZM6.78,20.6h0a3.73,3.73,0,0,0,1.2.2,4,4,0,0,0,1.86-.46,15.38,15.38,0,0,1,2-.6h0a4,4,0,0,0,2.27-.95,2.33,2.33,0,0,0,.51-.68,17.16,17.16,0,0,0-4.05.61,2.88,2.88,0,0,1-1.91.69h0a1.61,1.61,0,0,1-.65-.11,7.59,7.59,0,0,0-2.48-.38A3.08,3.08,0,0,0,5,19a.89.89,0,0,0-.54.55.71.71,0,0,0,.2.7,2.13,2.13,0,0,0,1.47.51,1.15,1.15,0,0,0,.59-.11Z"/><path class="cls-95" d="M14,9.31a1.53,1.53,0,0,0-1.15-.25c-.71.1-1.05.31-.8.77.08.15.54,0,.74-.07s.82-.06,1.06-.1A.82.82,0,0,0,14,9.31Z"/><path class="cls-96" d="M12.23,9.57s0,.08.15.06a3.07,3.07,0,0,1,1.35,0h.09A.82.82,0,0,0,14,9.31a1.5,1.5,0,0,0-1-.27,1.64,1.64,0,0,0-.38.1A.44.44,0,0,0,12.23,9.57Z"/><path class="cls-97" d="M12.23,9.57s0,.08.15.06a3.07,3.07,0,0,1,1.35,0h.09A.82.82,0,0,0,14,9.31a1.5,1.5,0,0,0-1-.27,1.64,1.64,0,0,0-.38.1A.44.44,0,0,0,12.23,9.57Z"/><path class="cls-75" d="M12.16,9.92h0A.19.19,0,0,1,12,9.84a.46.46,0,0,1-.05-.43c.1-.19.37-.31.88-.38a1.18,1.18,0,0,1,.26,0,1.58,1.58,0,0,1,.91.27h0v0s-.06.28-.16.37h0l-.57.05c-.2,0-.39,0-.48,0l-.19,0A1.76,1.76,0,0,1,12.16,9.92Zm.92-.86-.26,0c-.48.08-.74.19-.82.36a.38.38,0,0,0,0,.38.17.17,0,0,0,.12,0h0a1.57,1.57,0,0,0,.4-.08l.2,0c.09,0,.28,0,.48-.05l.56,0a.73.73,0,0,0,.14-.31A1.49,1.49,0,0,0,13.08,9.06Z"/><path class="cls-98" d="M13.92,9.25a1,1,0,0,1,.71.25,1.46,1.46,0,0,1,.51,1.17c-.1.39-.43-.1-.61-.31-.44-.51-.9-.67-.85-.88A.29.29,0,0,1,13.92,9.25Z"/><path class="cls-99" d="M14.63,9.5a1.31,1.31,0,0,0-.42-.22c-.29,0-.32.15-.2.29a4.94,4.94,0,0,1,.85,1.16c.12.11.23.14.28-.06A1.46,1.46,0,0,0,14.63,9.5Z"/><path class="cls-100" d="M14.63,9.5a1.31,1.31,0,0,0-.42-.22c-.29,0-.32.15-.2.29a4.94,4.94,0,0,1,.85,1.16c.12.11.23.14.28-.06A1.46,1.46,0,0,0,14.63,9.5Z"/><path class="cls-75" d="M15,10.85c-.13,0-.29-.2-.43-.37l-.08-.1a3.4,3.4,0,0,0-.55-.5c-.21-.16-.34-.27-.31-.41a.34.34,0,0,1,.26-.25H14a1.16,1.16,0,0,1,.67.27,1.45,1.45,0,0,1,.52,1.2C15.14,10.79,15.09,10.85,15,10.85ZM14,9.27h-.05a.27.27,0,0,0-.22.21c0,.11.1.2.29.35a4.09,4.09,0,0,1,.55.51l.09.11c.12.14.28.34.38.34s.07,0,.09-.13a1.39,1.39,0,0,0-.5-1.13A1,1,0,0,0,14,9.27Z"/><path class="cls-101" d="M15.14,10.59a.56.56,0,0,1,.49.4c.12.3.33,1,.2,1.2s-.6,0-.63-.07a7,7,0,0,0-.19-.77C14.92,11.17,14.67,10.59,15.14,10.59Z"/><path class="cls-102" d="M15.63,11a.56.56,0,0,0-.49-.4l-.14,0c-.13.3.22.73.28,1.31a.59.59,0,0,1,.33.36.24.24,0,0,0,.22-.09C16,12,15.75,11.29,15.63,11Z"/><path class="cls-103" d="M15.63,11a.56.56,0,0,0-.49-.4l-.14,0c-.13.3.22.73.28,1.31a.59.59,0,0,1,.33.36.24.24,0,0,0,.22-.09C16,12,15.75,11.29,15.63,11Z"/><path class="cls-75" d="M15.64,12.31a.74.74,0,0,1-.47-.18,2,2,0,0,1,0-.21,2.86,2.86,0,0,0-.15-.55c-.09-.18-.22-.51-.1-.69a.27.27,0,0,1,.26-.12.59.59,0,0,1,.52.41s.37,1,.2,1.24A.26.26,0,0,1,15.64,12.31Zm-.5-1.69a.25.25,0,0,0-.22.09c-.1.17.06.53.11.63a3.1,3.1,0,0,1,.15.57c0,.09,0,.18,0,.2a.79.79,0,0,0,.42.14.18.18,0,0,0,.17-.07c.11-.17-.07-.82-.2-1.18A.53.53,0,0,0,15.14,10.62Z"/><path class="cls-104" d="M15.41,12.28a.64.64,0,0,1,.82-.16,1.55,1.55,0,0,1,.71,1.67c-.23.33-.93,0-.93,0Z"/><path class="cls-105" d="M16.23,12.12a.61.61,0,0,0-.73.08c.52,0,.87.67.95,1.16a5.65,5.65,0,0,1,0,.58.46.46,0,0,0,.45-.15A1.55,1.55,0,0,0,16.23,12.12Z"/><path class="cls-106" d="M16.23,12.12a.61.61,0,0,0-.73.08c.52,0,.87.67.95,1.16a5.65,5.65,0,0,1,0,.58.46.46,0,0,0,.45-.15A1.55,1.55,0,0,0,16.23,12.12Z"/><path class="cls-75" d="M16.56,14a1.45,1.45,0,0,1-.56-.13h0l-.61-1.57h0a.68.68,0,0,1,.52-.27.72.72,0,0,1,.34.09A1.59,1.59,0,0,1,17,13.8h0A.46.46,0,0,1,16.56,14ZM16,13.8a1.47,1.47,0,0,0,.53.12.41.41,0,0,0,.35-.14,1.54,1.54,0,0,0-.69-1.64.71.71,0,0,0-.31-.08.66.66,0,0,0-.47.23Z"/><path class="cls-107" d="M13.44,13.75s.22-1.57,1.24-1.78,1.79,1.37,1.78,1.83,0,1.71-.26,1.94-1.12.49-1.41-.07S13.44,13.75,13.44,13.75Z"/><path class="cls-108" d="M15.08,12.3c-.15,0-.51,0-.65.21a1.74,1.74,0,0,0-.43.86c0,.24.4.6.73.83a2.49,2.49,0,0,1,.44.43c.19.22.39.44.5.44h0a.86.86,0,0,0,.22-.84,1.08,1.08,0,0,1,.05-.48.74.74,0,0,0,0-.37c-.07-.33-.61-1.06-.84-1.06h-.08Z"/><path class="cls-109" d="M15.08,12.3c-.15,0-.51,0-.65.21a1.74,1.74,0,0,0-.43.86c0,.24.4.6.73.83a2.49,2.49,0,0,1,.44.43c.19.22.39.44.5.44h0a.86.86,0,0,0,.22-.84,1.08,1.08,0,0,1,.05-.48.74.74,0,0,0,0-.37c-.07-.33-.61-1.06-.84-1.06h-.08Z"/><path class="cls-71" d="M15.4,16a.67.67,0,0,1-.64-.35,22.16,22.16,0,0,0-1.34-1.92h0s.23-1.59,1.26-1.81l.2,0a1.32,1.32,0,0,1,.9.45,2.65,2.65,0,0,1,.72,1.43V14c0,.57,0,1.52-.27,1.72A1.43,1.43,0,0,1,15.4,16Zm-1.93-2.3c.09.13,1.06,1.39,1.34,1.92a.64.64,0,0,0,.59.32,1.37,1.37,0,0,0,.78-.26c.24-.19.25-1.16.25-1.68V13.8a2.54,2.54,0,0,0-.7-1.39,1.21,1.21,0,0,0-.86-.43l-.18,0C13.74,12.2,13.49,13.6,13.47,13.74Z"/><path class="cls-110" d="M10.7,15.25a2.31,2.31,0,0,1,1.07-1.41,2,2,0,0,1,2.45.2,4,4,0,0,1,1.4,2.21,5.47,5.47,0,0,1-1.73,2.13,5.14,5.14,0,0,1-2.83.17A18.19,18.19,0,0,1,10.7,15.25Z"/><path class="cls-111" d="M12.7,14c-.61,0-1.39.77-1.4.77-.17.16,0,.79.18,1.13a1.84,1.84,0,0,1,.31,1.15.69.69,0,0,0,.59.77h.08a3.57,3.57,0,0,0,1.8-1c.56-.53.66-.89.41-1.45A3.13,3.13,0,0,0,12.83,14Z"/><path class="cls-112" d="M12.7,14c-.61,0-1.39.77-1.4.77-.17.16,0,.79.18,1.13a1.84,1.84,0,0,1,.31,1.15.69.69,0,0,0,.59.77h.08a3.57,3.57,0,0,0,1.8-1c.56-.53.66-.89.41-1.45A3.13,3.13,0,0,0,12.83,14Z"/><path class="cls-71" d="M11.92,18.71a1.89,1.89,0,0,1-.89-.14,18.08,18.08,0,0,1-.36-3.32h0a2.44,2.44,0,0,1,1.09-1.44,2.31,2.31,0,0,1,1.14-.33,2.07,2.07,0,0,1,1.34.54,4,4,0,0,1,1.41,2.23,5.57,5.57,0,0,1-1.75,2.16A5.85,5.85,0,0,1,11.92,18.71Zm-1.19-3.45a15.6,15.6,0,0,0,.35,3.27,1.74,1.74,0,0,0,.84.12,5.65,5.65,0,0,0,1.95-.29,5.47,5.47,0,0,0,1.72-2.12,3.94,3.94,0,0,0-1.38-2.18,2,2,0,0,0-1.31-.52,2.3,2.3,0,0,0-1.11.32A2.27,2.27,0,0,0,10.73,15.26Z"/><path class="cls-113" d="M16.14,15.44a4.75,4.75,0,0,1,.24-1.69c.27-.53.6-.2.65.19s-.09,1.44-.48,1.71C16.26,15.77,16.14,15.44,16.14,15.44Z"/><path class="cls-114" d="M17,13.94c0-.3-.25-.57-.47-.42a2,2,0,0,0-.18,1.61c.12.1.32.2.31.39A3,3,0,0,0,17,13.94Z"/><path class="cls-115" d="M17,13.94c0-.3-.25-.57-.47-.42a2,2,0,0,0-.18,1.61c.12.1.32.2.31.39A3,3,0,0,0,17,13.94Z"/><path class="cls-75" d="M16.43,15.7c-.22,0-.31-.24-.32-.25h0a4.75,4.75,0,0,1,.24-1.71c.13-.23.25-.28.34-.28s.34.25.37.49c.05.39-.08,1.45-.49,1.73h0Zm-.26-.27s.09.22.26.22l.11,0c.38-.27.51-1.31.46-1.68s-.17-.44-.31-.44-.2.09-.29.26A4.79,4.79,0,0,0,16.17,15.43Z"/><path class="cls-116" d="M15.12,16.91a5,5,0,0,1,.71-1.34c.38-.41.79-.27.86.06s-.51,1.85-1.25,2A1.08,1.08,0,0,1,15.12,16.91Z"/><path class="cls-117" d="M16.69,15.63c-.07-.32-.47-.47-.84-.07a1.58,1.58,0,0,0-.26,1c0,.36.28.47.59.48A2.65,2.65,0,0,0,16.69,15.63Z"/><path class="cls-118" d="M16.69,15.63c-.07-.32-.47-.47-.84-.07a1.58,1.58,0,0,0-.26,1c0,.36.28.47.59.48A2.65,2.65,0,0,0,16.69,15.63Z"/><path class="cls-75" d="M15.43,17.67h0a1.13,1.13,0,0,1-.33-.75h0a4.73,4.73,0,0,1,.71-1.35.72.72,0,0,1,.5-.26.41.41,0,0,1,.41.33A2.61,2.61,0,0,1,16.24,17a1.43,1.43,0,0,1-.8.69Zm-.28-.75a1,1,0,0,0,.3.69,1.44,1.44,0,0,0,.74-.66,2.71,2.71,0,0,0,.48-1.32.36.36,0,0,0-.36-.28.65.65,0,0,0-.46.24A5.05,5.05,0,0,0,15.15,16.92Z"/><path class="cls-119" d="M3.68,15.74a1.09,1.09,0,0,0-.83-.23.62.62,0,0,0-.35,1A2.31,2.31,0,0,0,3.68,15.74Z"/><path class="cls-75" d="M2.49,16.51h0a.62.62,0,0,1-.1-.59.71.71,0,0,1,.46-.43l.18,0a1.35,1.35,0,0,1,.68.25l0,0v0a2.35,2.35,0,0,1-1.2.76Zm.53-1a.41.41,0,0,0-.16,0,.63.63,0,0,0-.43.39.56.56,0,0,0,.09.52,2.34,2.34,0,0,0,1.12-.7A1.14,1.14,0,0,0,3,15.52Z"/><path class="cls-75" d="M3,16H3a.3.3,0,0,1,.27-.3A.32.32,0,0,0,3,16Z"/><path class="cls-120" d="M2.51,16.54a2.38,2.38,0,0,0-.79,1c0,.38-.06,1.67.4,1.57S4,18.4,4,18.4v-.89Z"/><path class="cls-121" d="M2.51,16.54a2.38,2.38,0,0,0-.79,1c0,.38-.06,1.67.4,1.57S4,18.4,4,18.4v-.89Z"/><path class="cls-4" d="M2.07,19.12h0A.21.21,0,0,1,1.91,19c-.18-.17-.25-.69-.22-1.53h0a2.42,2.42,0,0,1,.8-1h0l1.51,1v.92H4a19.07,19.07,0,0,1-1.88.69Zm-.32-1.6c0,1,.09,1.37.2,1.48a.14.14,0,0,0,.12.06h0c.42-.1,1.69-.62,1.85-.68v-.86l-1.45-.95A2.41,2.41,0,0,0,1.75,17.52Z"/><path class="cls-122" d="M3.27,16.21s-.91-.11-1,.4S3.34,18,3.84,18c0-.19.15-1,.15-1Z"/><path class="cls-75" d="M3.78,18h0a1.92,1.92,0,0,1-1.12-.67,1.2,1.2,0,0,1-.37-.72c0-.38.5-.44.78-.44h.21L4,17v0s-.13.79-.15,1v0H3.78Zm-.71-1.77c-.26,0-.69.05-.72.38a1.08,1.08,0,0,0,.35.68,1.93,1.93,0,0,0,1.08.65h0c0-.2.13-.85.15-1l-.7-.75Z"/><path class="cls-123" d="M7,14.44a1.56,1.56,0,0,0-.7-.64,1.26,1.26,0,0,0-1.67.4,4.34,4.34,0,0,1-1.47,1.69c-.28.08-.39.49.78,1.38.5.36,1.44.91,1.73.33S6.18,15.11,7,14.44Z"/><path class="cls-124" d="M5.6,13.94a.93.93,0,0,0-.38.08h0a7,7,0,0,0-.67,1l-.21.33a4.87,4.87,0,0,1-.79.79s0,.06,0,.11c.08.23.41.56.68.54a2.15,2.15,0,0,0,1.08-.7c.16-.17,1-1.18,1-1.72a.3.3,0,0,0-.12-.22A1,1,0,0,0,5.6,13.94Z"/><path class="cls-125" d="M5.6,13.94a.93.93,0,0,0-.38.08h0a7,7,0,0,0-.67,1l-.21.33a4.87,4.87,0,0,1-.79.79s0,.06,0,.11c.08.23.41.56.68.54a2.15,2.15,0,0,0,1.08-.7c.16-.17,1-1.18,1-1.72a.3.3,0,0,0-.12-.22A1,1,0,0,0,5.6,13.94Z"/><path class="cls-71" d="M5.24,17.88h0a2.84,2.84,0,0,1-1.31-.58c-.88-.67-1-1-1-1.23a.26.26,0,0,1,.2-.2c.61-.24,1.32-1.45,1.46-1.69a1.14,1.14,0,0,1,1-.55,1.83,1.83,0,0,1,.67.14,1.61,1.61,0,0,1,.72.66v0H7a4.8,4.8,0,0,0-1,2.3,5.78,5.78,0,0,1-.27.85A.48.48,0,0,1,5.24,17.88Zm.4-4.2a1.1,1.1,0,0,0-1,.53c-.14.25-.86,1.47-1.49,1.71a.2.2,0,0,0-.16.16c0,.11,0,.46,1,1.17a2.76,2.76,0,0,0,1.28.57h0a.39.39,0,0,0,.4-.23,4.77,4.77,0,0,0,.27-.85A4.9,4.9,0,0,1,7,14.44a1.66,1.66,0,0,0-.68-.62A1.73,1.73,0,0,0,5.64,13.68Z"/><path class="cls-126" d="M14,18.23a3.33,3.33,0,0,1,.95-1.31c.59-.43.86.41.63.76a2.18,2.18,0,0,1-1.58,1A.94.94,0,0,1,14,18.23Z"/><path class="cls-127" d="M15.54,17.68c.22-.34,0-1.14-.59-.79s-.47,1.42,0,1.39A2.35,2.35,0,0,0,15.54,17.68Z"/><path class="cls-128" d="M15.54,17.68c.22-.34,0-1.14-.59-.79s-.47,1.42,0,1.39A2.35,2.35,0,0,0,15.54,17.68Z"/><path class="cls-75" d="M13.94,18.69v0a1,1,0,0,1,0-.45h0a3.45,3.45,0,0,1,1-1.33.58.58,0,0,1,.33-.12.38.38,0,0,1,.34.23.7.7,0,0,1,0,.69,2.19,2.19,0,0,1-1.6,1Zm.05-.45a.76.76,0,0,0,0,.39,2.13,2.13,0,0,0,1.53-1,.64.64,0,0,0,0-.63.33.33,0,0,0-.29-.2.58.58,0,0,0-.3.11A3.34,3.34,0,0,0,14,18.24Z"/><path class="cls-129" d="M12.38,18.68a1.77,1.77,0,0,1,1-.57c.51-.1.75,0,.81.2s0,.36-.26.56a2.41,2.41,0,0,1-1.54.22C12.4,18.87,12.38,18.68,12.38,18.68Z"/><path class="cls-130" d="M14.21,18.31a.31.31,0,0,0-.27-.23.73.73,0,0,0-.53.3.4.4,0,0,0,.08.46,1.14,1.14,0,0,0,.23.15,1,1,0,0,0,.23-.12C14.19,18.67,14.26,18.54,14.21,18.31Z"/><path class="cls-131" d="M14.21,18.31a.31.31,0,0,0-.27-.23.73.73,0,0,0-.53.3.4.4,0,0,0,.08.46,1.14,1.14,0,0,0,.23.15,1,1,0,0,0,.23-.12C14.19,18.67,14.26,18.54,14.21,18.31Z"/><path class="cls-75" d="M12.72,19.18c-.18,0-.29,0-.33-.07h0c0-.21,0-.41,0-.41h0a1.79,1.79,0,0,1,1-.58,2,2,0,0,1,.39,0q.39,0,.45.27c.06.24,0,.38-.26.59A2.62,2.62,0,0,1,12.72,19.18Zm-.28-.1a.64.64,0,0,0,.28,0,2.38,2.38,0,0,0,1.21-.27c.25-.19.3-.32.25-.53s-.17-.23-.4-.23a2,2,0,0,0-.38.05,1.81,1.81,0,0,0-1,.55S12.43,18.9,12.44,19.08Z"/><path class="cls-132" d="M11,18.84A10.18,10.18,0,0,1,9.69,19.9a4.11,4.11,0,0,1-1.93-.36c-.51-.23-2.39-.67-3.23,0-.75.19-.61-1.71-.46-1.95s3,.29,3,.29Z"/><path class="cls-94" d="M9.45,20a5.27,5.27,0,0,1-1.7-.4,5.59,5.59,0,0,0-1.88-.35,2.06,2.06,0,0,0-1.32.36h0a.37.37,0,0,1-.45-.22,2.76,2.76,0,0,1,0-1.77s.08-.07.34-.07A20.64,20.64,0,0,1,7,17.87l4,.95,0,0A9.25,9.25,0,0,1,9.7,19.92.57.57,0,0,1,9.45,20Zm-3.58-.8a5.55,5.55,0,0,1,1.91.35,5.29,5.29,0,0,0,1.67.39.67.67,0,0,0,.23,0,9.12,9.12,0,0,0,1.21-1L7,17.92a22.75,22.75,0,0,0-2.63-.36c-.24,0-.29,0-.29.05a2.74,2.74,0,0,0,0,1.72.33.33,0,0,0,.38.19A2.15,2.15,0,0,1,5.87,19.16Z"/><path class="cls-133" d="M14.68,20.56c.11-.13.06-.68-.09-.74s-.55.29-.57.46S14.57,20.67,14.68,20.56Z"/><path class="cls-134" d="M14.55,20.53a.89.89,0,0,0,0-.71c-.14-.06-.55.29-.57.46S14.45,20.65,14.55,20.53Z"/><path class="cls-135" d="M14.51,20.52c.12-.13.16-.64.08-.67s-.51.29-.53.46S14.43,20.61,14.51,20.52Z"/><path class="cls-54" d="M14.74,20a.73.73,0,0,1-.05.53c-.06.07-.26,0-.42,0s-.28-.18-.27-.28.2-.31.37-.41.17-.09.23-.06h0C14.68,19.83,14.72,20,14.74,20Zm-.08.5a.72.72,0,0,0,0-.49.36.36,0,0,0-.11-.21v0s-.11,0-.2.06-.34.28-.35.38.09.16.25.23S14.62,20.59,14.66,20.54Z"/><path class="cls-136" d="M15.42,21.35c.16-.05.38-.57.28-.69s-.63,0-.72.13S15.27,21.4,15.42,21.35Z"/><path class="cls-137" d="M15.32,21.27c.16-.06.44-.54.38-.61s-.63,0-.72.13S15.17,21.32,15.32,21.27Z"/><path class="cls-138" d="M15.29,21.24c.17-.06.44-.49.39-.55s-.59,0-.68.15S15.18,21.28,15.29,21.24Z"/><path class="cls-54" d="M15.72,20.93c-.06.19-.18.4-.29.44s-.25-.09-.36-.23-.16-.29-.11-.37a.83.83,0,0,1,.52-.18.28.28,0,0,1,.24.06h0C15.77,20.72,15.74,20.85,15.72,20.93Zm-.31.4a.71.71,0,0,0,.27-.41c0-.12,0-.21,0-.24v0s-.1-.05-.2-.05a.78.78,0,0,0-.49.17c0,.06,0,.19.1.32S15.35,21.35,15.41,21.33Z"/><path class="cls-139" d="M15.64,22.51c.15.08.67-.13.69-.29s-.44-.45-.6-.42S15.5,22.44,15.64,22.51Z"/><path class="cls-140" d="M15.62,22.38c.16.08.7-.07.71-.16s-.44-.45-.6-.42S15.49,22.31,15.62,22.38Z"/><path class="cls-141" d="M15.63,22.34c.15.08.65,0,.66-.11s-.42-.41-.58-.38S15.52,22.29,15.63,22.34Z"/><path class="cls-54" d="M16.15,22.42a.72.72,0,0,1-.52.11c-.09-.05-.11-.24-.09-.42s.09-.32.19-.33a.83.83,0,0,1,.49.24c.06.05.14.13.13.21h0C16.34,22.31,16.22,22.39,16.15,22.42Zm-.5.07a.74.74,0,0,0,.48-.1c.1-.06.17-.12.17-.17h0s0-.1-.1-.17a.75.75,0,0,0-.47-.23c-.07,0-.13.13-.15.3S15.59,22.46,15.65,22.49Z"/><path class="cls-142" d="M9.22,18.66a5.35,5.35,0,0,0,.7,2.23A6,6,0,0,0,13.12,23a3,3,0,0,0,2.71-.65,2.22,2.22,0,0,0-2.08-2.13,4.45,4.45,0,0,0-2.29-1.06C11,19.12,9.22,18.66,9.22,18.66Z"/><path class="cls-143" d="M12.06,19.33a1.21,1.21,0,0,1-1.49-.15.45.45,0,0,1-.61.23,5.15,5.15,0,0,0,2,2.47,4.71,4.71,0,0,0,3.7.67.69.69,0,0,0,.19-.2,2.22,2.22,0,0,0-2.08-2.13,4.24,4.24,0,0,0-1.66-.92Z"/><path class="cls-144" d="M13.75,20.22h0a4.24,4.24,0,0,0-1.66-.92l0,0a1.21,1.21,0,0,1-1.49-.15.45.45,0,0,1-.61.23,5.15,5.15,0,0,0,2,2.47,4.74,4.74,0,0,0,1.7.71A2.32,2.32,0,0,0,13.75,20.22Z"/><path class="cls-64" d="M12.71,20.07a.53.53,0,0,0,.68-.15,5.2,5.2,0,0,0-.82-.45C12.54,19.62,12.5,20,12.71,20.07Z"/><path class="cls-64" d="M12.15,21s.33-.21.44-.14.2.22,0,.35S11.86,21.36,12.15,21Z"/><path class="cls-64" d="M12.12,19.9s.32.14.36.34a.36.36,0,0,1-.32.43c-.24,0-.41-.12-.36-.27S11.93,19.87,12.12,19.9Z"/><path class="cls-64" d="M13.1,20.37s.27.2.28.31-.18.28-.3.29-.34-.16-.32-.27S12.92,20.34,13.1,20.37Z"/><path class="cls-145" d="M12.08,19.34a3.34,3.34,0,0,1,1.73,1c.29.61.16,1.34,0,1.22a5.33,5.33,0,0,0-3.25-2.1A1.73,1.73,0,0,0,12.08,19.34Z"/><path class="cls-146" d="M13.75,20.22a2.32,2.32,0,0,1-.11,2.37,5.18,5.18,0,0,0,2,0,.69.69,0,0,0,.19-.2A2.22,2.22,0,0,0,13.75,20.22Z"/><path class="cls-147" d="M13.75,20.23a2,2,0,0,1,1.88,1.54c.1.71-1.21.7-1.1.14A1.48,1.48,0,0,0,13.75,20.23Z"/><path class="cls-4" d="M13.81,23.12h0a2.63,2.63,0,0,1-.7-.09A6,6,0,0,1,9.89,20.9a5.47,5.47,0,0,1-.7-2.24v0h0s1.82.47,2.24.5a4.49,4.49,0,0,1,2.3,1.06,2.25,2.25,0,0,1,1.79,1.11,1.43,1.43,0,0,1,.29,1.06A2.68,2.68,0,0,1,13.81,23.12ZM9.25,18.7a5.38,5.38,0,0,0,.69,2.17A6,6,0,0,0,13.13,23a2.48,2.48,0,0,0,.68.09h0a2.71,2.71,0,0,0,2-.72,1.44,1.44,0,0,0-.29-1,2.18,2.18,0,0,0-1.76-1.08h0a4.37,4.37,0,0,0-2.27-1C11.07,19.16,9.52,18.77,9.25,18.7Z"/><path class="cls-4" d="M13.92,20.64a1.19,1.19,0,0,0-.19-.4l0,0A1,1,0,0,1,13.92,20.64Z"/><path class="cls-148" d="M7.81,14a2.06,2.06,0,0,0-1.4.79A6.66,6.66,0,0,0,5.21,18c1.84.05,6.1.76,6.1.76A11.08,11.08,0,0,0,11.23,16a2.79,2.79,0,0,0-1.62-1.8A5,5,0,0,0,7.81,14Z"/><path class="cls-149" d="M7.73,17.4a2.82,2.82,0,0,1,.94.11,5.13,5.13,0,0,0,1.58.27.78.78,0,0,0,.43-.07c.16-.14,0-1.19-.06-1.69,0-.1,0-.19,0-.26,0-.35-.57-.76-1.52-1.2a1.32,1.32,0,0,0-.57-.1A5.07,5.07,0,0,0,7,14.75a2.28,2.28,0,0,0-.5,1,2.94,2.94,0,0,1-.17.43c-.13.26-.32.75,0,1.08.12.14.48.16.86.16h.54Z"/><path class="cls-150" d="M7.73,17.4a2.82,2.82,0,0,1,.94.11,5.13,5.13,0,0,0,1.58.27.78.78,0,0,0,.43-.07c.16-.14,0-1.19-.06-1.69,0-.1,0-.19,0-.26,0-.35-.57-.76-1.52-1.2a1.32,1.32,0,0,0-.57-.1A5.07,5.07,0,0,0,7,14.75a2.28,2.28,0,0,0-.5,1,2.94,2.94,0,0,1-.17.43c-.13.26-.32.75,0,1.08.12.14.48.16.86.16h.54Z"/><path class="cls-71" d="M11.34,18.77h0S7,18.05,5.21,18h0v0a6.65,6.65,0,0,1,1.2-3.18A2.13,2.13,0,0,1,7.81,14l.4,0a4.46,4.46,0,0,1,1.41.19A2.78,2.78,0,0,1,11.26,16a11.18,11.18,0,0,1,.08,2.76Zm-6.11-.83c1.76.06,5.67.7,6.06.76A11,11,0,0,0,11.2,16a2.77,2.77,0,0,0-1.6-1.78A4.42,4.42,0,0,0,8.21,14a2.12,2.12,0,0,0-.39,0,2.08,2.08,0,0,0-1.39.77A6.79,6.79,0,0,0,5.23,17.94Z"/><path class="cls-151" d="M4.81,17.6a5.11,5.11,0,0,0-1-.42c-.27-.05-.6.39-.31.84.28.17.94.69,1,.36Z"/><path class="cls-75" d="M4.42,18.52h0a2,2,0,0,1-.77-.39L3.52,18h0a.62.62,0,0,1-.06-.64.43.43,0,0,1,.35-.25h0a4.67,4.67,0,0,1,1,.43h0v0l-.24.78A.18.18,0,0,1,4.42,18.52ZM3.55,18l.13.09a1.94,1.94,0,0,0,.74.38h0a.11.11,0,0,0,.12-.09l.24-.76a5.4,5.4,0,0,0-1-.41h0a.37.37,0,0,0-.3.21A.56.56,0,0,0,3.55,18Z"/><path class="cls-4" d="M18.14,16.74A2.94,2.94,0,0,0,18,16.2l.05,0A2.25,2.25,0,0,1,18.14,16.74Z"/><path class="cls-94" d="M6.77,20.65a2.14,2.14,0,0,1-.92-1l.05,0a2.2,2.2,0,0,0,.89,1Z"/><path class="cls-94" d="M4.89,19.87l0-.05a4.21,4.21,0,0,1,1.4-.2,2.25,2.25,0,0,1,1,.25A3.74,3.74,0,0,0,4.89,19.87Z"/><path class="cls-152" d="M10.49,18.57a3,3,0,0,1,1.12-.18c.55,0,.89.16.9.34s.06.44-.19.53-1.75.07-1.92-.42A.23.23,0,0,1,10.49,18.57Z"/><path class="cls-75" d="M11.88,19.33c-.5,0-1.37-.1-1.5-.48a.25.25,0,0,1,.1-.3h0a2.83,2.83,0,0,1,1-.2h.13c.58,0,.92.17.93.37v.05c0,.18,0,.42-.22.51A1.53,1.53,0,0,1,11.88,19.33ZM10.5,18.6a.2.2,0,0,0-.07.23c.11.31.83.44,1.45.44a1.38,1.38,0,0,0,.43,0c.2-.07.19-.27.18-.44v-.06c0-.16-.35-.28-.89-.32h-.12A3.2,3.2,0,0,0,10.5,18.6Z"/><path class="cls-153" d="M8.78,18a3.55,3.55,0,0,1,1.05,0c.48.12.78.45.78.65s0,.43-.49.44-1.58-.47-1.59-.7A.68.68,0,0,1,8.78,18Z"/><path class="cls-75" d="M10.1,19.15c-.57,0-1.59-.46-1.59-.73A.63.63,0,0,1,8.76,18h0a1.85,1.85,0,0,1,.43,0,2.9,2.9,0,0,1,.62.06c.51.12.81.48.81.68v0c0,.18,0,.44-.52.45ZM8.79,18a.63.63,0,0,0-.23.4c0,.19.94.67,1.54.67h0c.45,0,.46-.2.46-.4h0c0-.18-.29-.51-.76-.62A2.8,2.8,0,0,0,9.21,18Z"/><path class="cls-154" d="M6.91,17.75a3,3,0,0,1,1.3-.06c.62.14.73.28.7.49s0,.45-.47.44S7,18.43,7,18.21Z"/><path class="cls-75" d="M8.46,18.65h0C8,18.64,7,18.47,7,18.22s-.08-.46-.08-.46v0h0a3.05,3.05,0,0,1,.82-.12,2.46,2.46,0,0,1,.49.05c.57.13.76.27.72.52v0C8.91,18.41,8.88,18.65,8.46,18.65ZM7,17.78c0,.06,0,.26.08.43s.94.38,1.41.38h0c.37,0,.39-.19.42-.39v0c0-.19-.07-.32-.68-.46a2.26,2.26,0,0,0-.47,0A2.82,2.82,0,0,0,7,17.78Z"/><path class="cls-155" d="M5.13,17.84a4.5,4.5,0,0,1,1.54-.22c.57.08.54.59.39.7a3.33,3.33,0,0,1-1.5.15C5.3,18.37,5.13,17.84,5.13,17.84Z"/><path class="cls-75" d="M5.89,18.54a1.25,1.25,0,0,1-.34,0c-.27-.11-.44-.63-.45-.66v0h0a5.69,5.69,0,0,1,1.33-.24l.23,0a.53.53,0,0,1,.49.38.4.4,0,0,1-.1.38A3.5,3.5,0,0,1,5.89,18.54Zm-.72-.69c0,.11.19.51.4.6a1.17,1.17,0,0,0,.32,0A3.45,3.45,0,0,0,7,18.3.32.32,0,0,0,7.11,18a.49.49,0,0,0-.44-.34H6.45A5.5,5.5,0,0,0,5.17,17.85Z"/><path class="cls-156" d="M6.19,18.8a2.22,2.22,0,0,1-.72-.72A1.94,1.94,0,0,1,5.3,16.7c.08-.37-.06-.5-.36,0a5.89,5.89,0,0,0-.7,2.08c0,.4.49.46.49.46Z"/><path class="cls-157" d="M6.19,18.8a2.22,2.22,0,0,1-.72-.72A1.94,1.94,0,0,1,5.3,16.7c.08-.37-.06-.5-.36,0a5.89,5.89,0,0,0-.7,2.08c0,.4.49.46.49.46Z"/><path class="cls-4" d="M4.72,19.27s-.46-.07-.51-.48h0a6,6,0,0,1,.7-2.09c.16-.26.28-.38.37-.34s.09.16,0,.36a1.92,1.92,0,0,0,.16,1.36,2.62,2.62,0,0,0,.7.73,2.21,2.21,0,0,1-.75-.71,2,2,0,0,1-.17-1.39c0-.2,0-.29,0-.3s-.13,0-.3.32a6.06,6.06,0,0,0-.7,2.06.54.54,0,0,0,.47.43Z"/><path class="cls-71" d="M4.21,16.83a.94.94,0,0,1-.71-.58.17.17,0,0,1,0-.18,4.28,4.28,0,0,0,.78-.77L4.5,15a6.21,6.21,0,0,1,.69-1,1,1,0,0,1,1,.12.33.33,0,0,1,.14.26c0,.55-.81,1.58-1,1.76a2.25,2.25,0,0,1-1.11.72ZM5.6,13.94a.93.93,0,0,0-.38.08h0a7,7,0,0,0-.67,1l-.21.33a4.87,4.87,0,0,1-.79.79s0,.06,0,.11c.08.23.41.56.68.54a2.15,2.15,0,0,0,1.08-.7c.16-.17,1-1.18,1-1.72a.3.3,0,0,0-.12-.22A1,1,0,0,0,5.6,13.94Z"/><path class="cls-71" d="M4.27,16.51h0a.52.52,0,0,1-.44-.3.13.13,0,0,1,.06-.14,5.28,5.28,0,0,0,.75-.85L4.75,15a2.34,2.34,0,0,1,.57-.8h.07c.31,0,.48,0,.51.11a.85.85,0,0,1-.08.69A4.75,4.75,0,0,1,5.05,16,1.26,1.26,0,0,1,4.27,16.51Zm1.06-2.29A3.13,3.13,0,0,0,4.8,15c-.07.11-.12.21-.16.26a5.31,5.31,0,0,1-.76.86.06.06,0,0,0,0,.08.45.45,0,0,0,.39.25c.26,0,.52-.21.77-.46a4.48,4.48,0,0,0,.75-1.05.87.87,0,0,0,.09-.65s-.16-.07-.46-.07Z"/><path class="cls-71" d="M4.4,16.25a.35.35,0,0,1-.26-.08.07.07,0,0,1,0-.06,1.42,1.42,0,0,1,.3-.37,2.31,2.31,0,0,0,.16-.19A3.91,3.91,0,0,0,4.91,15c.21-.36.28-.47.32-.48a1.76,1.76,0,0,1,.29,0c.09,0,.14,0,.16.06s-.17.61-.29.78-.6.81-.81.88Zm.85-1.64a2.7,2.7,0,0,0-.29.45,5.1,5.1,0,0,1-.32.53l-.17.18a3.35,3.35,0,0,0-.29.35v0a.36.36,0,0,0,.21.05.41.41,0,0,0,.16,0,3.29,3.29,0,0,0,.78-.85,1.57,1.57,0,0,0,.29-.73s0,0-.11,0A.84.84,0,0,0,5.25,14.61Z"/><path class="cls-71" d="M4.55,16h0A.13.13,0,0,1,4.42,16c0-.07,0-.13.1-.19a.58.58,0,0,0,.2-.21A1.52,1.52,0,0,1,5,15.2a.25.25,0,0,1,.2-.1.13.13,0,0,1,.14.12c0,.09-.18.29-.39.54l-.12.14A.31.31,0,0,1,4.55,16Zm.62-.88a.21.21,0,0,0-.16.08,2,2,0,0,0-.24.34.56.56,0,0,1-.21.24c-.08.06-.11.08-.09.12a.09.09,0,0,0,.08,0,.29.29,0,0,0,.21-.11,1.11,1.11,0,0,1,.12-.15,2.21,2.21,0,0,0,.37-.5C5.25,15.16,5.19,15.16,5.17,15.16Z"/><path class="cls-71" d="M10.25,17.84a5.32,5.32,0,0,1-1.6-.28,3,3,0,0,0-.92-.1H7.19c-.45,0-.77,0-.91-.18-.32-.35-.12-.86,0-1.14a2.91,2.91,0,0,0,.16-.42,2.43,2.43,0,0,1,.53-1H7a5,5,0,0,1,1.5-.3,1.5,1.5,0,0,1,.6.11c1,.45,1.5.87,1.55,1.24,0,.07,0,.16,0,.26.11.8.21,1.59,0,1.74A.81.81,0,0,1,10.25,17.84ZM7.73,17.4a2.82,2.82,0,0,1,.94.11,5.13,5.13,0,0,0,1.58.27.78.78,0,0,0,.43-.07c.16-.14,0-1.19-.06-1.69,0-.1,0-.19,0-.26,0-.35-.57-.76-1.52-1.2a1.32,1.32,0,0,0-.57-.1A5.07,5.07,0,0,0,7,14.75a2.28,2.28,0,0,0-.5,1,2.94,2.94,0,0,1-.17.43c-.13.26-.32.75,0,1.08.12.14.48.16.86.16h.54Z"/><path class="cls-71" d="M9.73,17.47H9.57a15.91,15.91,0,0,0-2.13-.27H7.25a1,1,0,0,1-.67-.35.3.3,0,0,1-.07-.24s.41-1.49.63-1.58a4.12,4.12,0,0,1,1.24-.32l.16,0c.13,0,1.24.24,1.43.63s.52,1.15.36,1.44l-.07.18c-.09.23-.19.48-.53.48Zm-2.29-.33a16.9,16.9,0,0,1,2.14.26h.15c.3,0,.39-.22.48-.44a1,1,0,0,1,.07-.18c.12-.22-.11-.86-.36-1.39-.14-.3-.94-.52-1.39-.61H8.38a4.25,4.25,0,0,0-1.22.31,5.6,5.6,0,0,0-.6,1.55.22.22,0,0,0,.07.18.89.89,0,0,0,.62.33h.19Z"/><path class="cls-71" d="M8.62,17A1.88,1.88,0,0,1,8,17a2.18,2.18,0,0,0-.47-.11c-.38-.06-.74-.13-.71-.32a2.44,2.44,0,0,1,.63-1.07h0a2.22,2.22,0,0,1,.89-.28h.12c.37.05.94.14,1.07.55s.27.94.06,1.13A2.1,2.1,0,0,1,8.62,17Zm-.28-1.81a2.17,2.17,0,0,0-.87.28h0a2.47,2.47,0,0,0-.59,1c0,.14.35.2.66.26a2.14,2.14,0,0,1,.48.11,2.1,2.1,0,0,0,.61.07,1.93,1.93,0,0,0,.93-.16c.19-.16,0-.68-.07-1.06s-.67-.46-1-.52H8.34Z"/><path class="cls-71" d="M8.51,16.77l-.16,0a2.77,2.77,0,0,0-.63-.1c-.28,0-.42,0-.44-.1a.65.65,0,0,1,.1-.35c0-.08.15-.31.27-.34a3.09,3.09,0,0,1,.78-.14.62.62,0,0,1,.26,0,1,1,0,0,1,.5.61C9.19,16.52,8.82,16.77,8.51,16.77Zm-.08-1a3.51,3.51,0,0,0-.77.14.65.65,0,0,0-.23.31.73.73,0,0,0-.1.31,1.27,1.27,0,0,0,.4.06,3,3,0,0,1,.64.1.32.32,0,0,0,.14,0c.3,0,.62-.25.62-.35a.94.94,0,0,0-.47-.56A.63.63,0,0,0,8.43,15.77Z"/><path class="cls-71" d="M12.46,17.89h-.08a.76.76,0,0,1-.65-.84,1.8,1.8,0,0,0-.3-1.11c-.24-.36-.36-1-.16-1.2a2.72,2.72,0,0,1,1.43-.79h.14a3.26,3.26,0,0,1,1.89,1.36c.25.58.15,1-.43,1.51A3.6,3.6,0,0,1,12.46,17.89ZM12.7,14c-.61,0-1.39.77-1.4.77-.17.16,0,.79.18,1.13a1.84,1.84,0,0,1,.31,1.15.69.69,0,0,0,.59.77h.08a3.57,3.57,0,0,0,1.8-1c.56-.53.66-.89.41-1.45A3.13,3.13,0,0,0,12.83,14Z"/><path class="cls-71" d="M12.63,17.08h-.09c-.18,0-.26-.25-.34-.47a1.29,1.29,0,0,0-.22-.42c-.26-.27-.64-1-.48-1.21h0a2.6,2.6,0,0,1,1.32-.59l.24,0c.57.2,1.09.41,1.18.91a1.31,1.31,0,0,1-.3,1.21A3.15,3.15,0,0,1,12.63,17.08ZM11.55,15c-.14.22.23.88.47,1.14a1.25,1.25,0,0,1,.24.44c.07.21.15.4.29.44h.08a3.26,3.26,0,0,0,1.29-.55,1.29,1.29,0,0,0,.28-1.16c-.09-.42-.49-.64-1.15-.86a.54.54,0,0,0-.22,0A2.66,2.66,0,0,0,11.55,15Z"/><path class="cls-71" d="M13.06,16.51H13a1.64,1.64,0,0,1-.71-.4,1.87,1.87,0,0,0-.23-.17.55.55,0,0,1-.16-.39.76.76,0,0,1,.07-.49,1.79,1.79,0,0,1,1-.32.72.72,0,0,1,.32.07c.29.17.41.42.44.91a.75.75,0,0,1-.2.58A.62.62,0,0,1,13.06,16.51ZM13,14.8a1.74,1.74,0,0,0-.94.3.78.78,0,0,0-.06.44c0,.18.07.31.14.35a1.36,1.36,0,0,1,.24.17,1.46,1.46,0,0,0,.67.39h.05a.58.58,0,0,0,.42-.2.72.72,0,0,0,.19-.53c0-.48-.14-.71-.42-.87A.6.6,0,0,0,13,14.8Z"/><path class="cls-71" d="M13,16a1.5,1.5,0,0,1-.61-.17c-.26-.16,0-.59,0-.61h0a3,3,0,0,1,.44,0c.21,0,.34,0,.38.11a.82.82,0,0,1,.12.52.31.31,0,0,1-.13.17A.44.44,0,0,1,13,16Zm-.58-.74c0,.07-.19.4,0,.52a1.38,1.38,0,0,0,.58.17.44.44,0,0,0,.18,0,.21.21,0,0,0,.1-.14.73.73,0,0,0-.11-.47s-.08-.08-.33-.08A2.81,2.81,0,0,0,12.39,15.24Z"/><path class="cls-71" d="M15.67,15.13h0c-.14,0-.34-.23-.55-.47a3.31,3.31,0,0,0-.42-.42c-.36-.24-.76-.6-.76-.87a1.73,1.73,0,0,1,.45-.9c.15-.2.53-.22.69-.22h.08c.27,0,.83.78.9,1.11a.8.8,0,0,1,0,.39,1.23,1.23,0,0,0,0,.47.92.92,0,0,1-.24.88A.11.11,0,0,1,15.67,15.13Zm-.59-2.83c-.15,0-.51,0-.65.21a1.74,1.74,0,0,0-.43.86c0,.24.4.6.73.83a2.49,2.49,0,0,1,.44.43c.19.22.39.44.5.44h0a.86.86,0,0,0,.22-.84,1.08,1.08,0,0,1,.05-.48.74.74,0,0,0,0-.37c-.07-.33-.61-1.06-.84-1.06h-.08Z"/><path class="cls-71" d="M15.51,14.77a.33.33,0,0,1-.28-.18,2.23,2.23,0,0,0-.6-.68c-.25-.17-.5-.51-.46-.72s.26-.61.37-.62h.13a1.24,1.24,0,0,1,.61.08l0,0c.14.15.52.53.46.83a2.69,2.69,0,0,0-.06.92.36.36,0,0,1-.07.29A.19.19,0,0,1,15.51,14.77Zm-.84-2.14h-.13a1.27,1.27,0,0,0-.31.57c0,.18.2.51.43.66a2.24,2.24,0,0,1,.62.7.29.29,0,0,0,.23.16.15.15,0,0,0,.09,0,.42.42,0,0,0,.06-.25,3.06,3.06,0,0,1,.05-.93c.06-.27-.32-.65-.44-.78l0,0A1.33,1.33,0,0,0,14.67,12.63Z"/><path class="cls-71" d="M15.54,14.47l0,0a1.16,1.16,0,0,1-.24-.25,1.21,1.21,0,0,0-.27-.28s-.56-.3-.56-.49v-.06c0-.17,0-.43.13-.46a1.4,1.4,0,0,1,.32,0,.54.54,0,0,1,.4.13.91.91,0,0,1,.26.69c0,.07,0,.17,0,.29s.06.42,0,.47Zm-.66-1.54a1.37,1.37,0,0,0-.31,0c-.09,0-.08.26-.08.4v.06c0,.11.31.32.53.44a1.14,1.14,0,0,1,.29.29,1.12,1.12,0,0,0,.22.25h0v0s0-.28,0-.42a2.27,2.27,0,0,1,0-.3.83.83,0,0,0-.24-.65A.49.49,0,0,0,14.88,12.93Z"/><path class="cls-71" d="M15.21,13.7c-.08,0-.49,0-.49-.14a.31.31,0,0,0,0-.08c0-.1-.06-.23,0-.27a.58.58,0,0,1,.25-.07.21.21,0,0,1,.17.08.77.77,0,0,1,.16.43.11.11,0,0,1,0,0Zm-.43-.14a1.16,1.16,0,0,0,.43.09h0a.74.74,0,0,0-.15-.38A.17.17,0,0,0,15,13.2a.53.53,0,0,0-.22.06h0s0,.13,0,.21S14.77,13.53,14.78,13.56Z"/><path class="cls-71" d="M11.32,13.77c-.21,0-.39-.33-.53-.59l-.07-.11a1.06,1.06,0,0,1,0-1c.17-.19.74-.21.77-.21h0c.24,0,.66.36.94.61l0,0a4.1,4.1,0,0,1,.68.76.08.08,0,0,1,0,.08s-.1.06-.27.06h-.42l-.25,0a2.15,2.15,0,0,0-.8.29l-.08,0Zm.23-1.85h0s-.58,0-.73.19a1,1,0,0,0,0,.93l.07.11c.13.24.3.56.48.56l.07,0,.07,0a2.44,2.44,0,0,1,.83-.29H13c.17,0,.21,0,.22,0v0a4.21,4.21,0,0,0-.66-.75l-.06,0C12.2,12.29,11.77,11.92,11.55,11.92Z"/><path class="cls-71" d="M11.29,13.31a.23.23,0,0,1-.24-.13A1.3,1.3,0,0,0,10.9,13a.35.35,0,0,1-.1-.16s-.1-.42,0-.58h0a1.1,1.1,0,0,1,.5-.15.58.58,0,0,1,.19,0l.15.06c.24.1.48.19.54.36v.05c.07.2.16.46,0,.52l0,0a1.48,1.48,0,0,1-.51.15l-.14,0Zm-.4-1.05c-.1.11-.06.41,0,.52a.63.63,0,0,0,.09.14.72.72,0,0,1,.16.24.19.19,0,0,0,.19.09l.26,0,.14,0a1.71,1.71,0,0,0,.5-.14l0,0c.11,0,0-.28,0-.46l0,0c0-.14-.28-.24-.5-.32l-.16-.07a.38.38,0,0,0-.16,0A1.13,1.13,0,0,0,10.89,12.26Z"/><path class="cls-71" d="M11.47,13.11a.53.53,0,0,1-.41-.2c-.06-.11-.16-.51,0-.6,0,0,.08,0,.12,0a1,1,0,0,1,.51.12c.09.05.36.22.25.39a.83.83,0,0,1-.46.31Zm-.28-.76H11.1c-.12.07,0,.42,0,.54s.24.16.36.16h0a.76.76,0,0,0,.41-.28s.08-.12-.23-.31A1,1,0,0,0,11.19,12.35Z"/><path class="cls-71" d="M11.5,12.9c-.09,0-.3,0-.33-.1a.49.49,0,0,1,0-.31v0h0s.31,0,.37.11a.29.29,0,0,1,0,.24.11.11,0,0,1-.09.07Zm-.25-.37a.47.47,0,0,0,0,.25.6.6,0,0,0,.28.06h.05l0,0a.2.2,0,0,0,0-.18S11.36,12.54,11.25,12.53Z"/><path class="cls-71" d="M9.49,11.85A1.07,1.07,0,0,1,9,11.72a1.34,1.34,0,0,0-.26-.09.22.22,0,0,1-.15-.11c0-.13.07-.31.18-.47l.07-.11c.14-.23,1.09-.38,1.13-.38h.56a2.08,2.08,0,0,1,.93.45.08.08,0,0,1,0,.08c0,.11-.2.25-.36.37l-.16.13a1,1,0,0,1-.52.14,6,6,0,0,0-.61.09ZM10,10.62c-.27,0-1,.18-1.09.35a1.27,1.27,0,0,0-.07.12c-.1.14-.21.31-.17.41a.13.13,0,0,0,.11.07,1.17,1.17,0,0,1,.26.1,1.14,1.14,0,0,0,.5.13,1.13,1.13,0,0,0,.3,0c.24,0,.44-.07.61-.09a.86.86,0,0,0,.49-.12l.17-.13c.13-.11.32-.25.33-.34s0,0,0,0a2.24,2.24,0,0,0-.89-.43H10Z"/><path class="cls-71" d="M9.66,11.67H9.57a1.4,1.4,0,0,1-.64-.16c-.19-.12,0-.47,0-.49h0a2,2,0,0,1,.7-.22,1.55,1.55,0,0,0,.34,0,2.71,2.71,0,0,1,.37-.05l.16,0c.12,0,.42.17.44.32s-.09.32-.39.43A2.88,2.88,0,0,1,9.66,11.67ZM9,11.06c0,.09-.12.33,0,.4a1.41,1.41,0,0,0,.62.15h.08a3.12,3.12,0,0,0,.87-.2c.26-.1.36-.28.35-.37s-.17-.19-.4-.27a.3.3,0,0,0-.14,0,1.72,1.72,0,0,0-.36.05,2.67,2.67,0,0,1-.35,0A2,2,0,0,0,9,11.06Z"/><path class="cls-71" d="M9.51,11.47c-.29,0-.43-.05-.43-.13s.13-.39.32-.41a3.73,3.73,0,0,1,.44,0,1.15,1.15,0,0,1,.3,0c.15,0,.23.1.25.16a.14.14,0,0,1,0,.13,1.27,1.27,0,0,1-.7.24ZM9.84,11a4.22,4.22,0,0,0-.44,0c-.14,0-.27.29-.27.36s.09.07.38.07h.15a1.27,1.27,0,0,0,.66-.21.12.12,0,0,0,0-.08.37.37,0,0,0-.22-.13A1,1,0,0,0,9.84,11Z"/><path class="cls-71" d="M9.55,11.33l-.09,0c-.05,0-.08,0-.08-.08s.06-.12.07-.13h0A2.32,2.32,0,0,1,9.8,11h.06c.06,0,.07,0,.07.07s0,.08-.11.11l0,0A.52.52,0,0,1,9.55,11.33Zm-.07-.18s-.05,0-.05.07a.1.1,0,0,0,.05,0h.07a.35.35,0,0,0,.2-.07l.05,0s.07,0,.07-.06l0,0h0A1.65,1.65,0,0,0,9.48,11.15Z"/><path class="cls-71" d="M13.26,10.83h0a.79.79,0,0,1-.29-.08.85.85,0,0,0-.22-.09c-.24-.06-.21-.18-.19-.31a.51.51,0,0,0,0-.13.54.54,0,0,1,.3-.36l.11,0a2.45,2.45,0,0,1,.35.05l.17,0a.88.88,0,0,1,.49.56c0,.12-.13.16-.28.21a1.19,1.19,0,0,0-.28.1A.39.39,0,0,1,13.26,10.83ZM13,9.89c-.05,0-.07,0-.08,0h0s-.24.12-.26.32a.51.51,0,0,1,0,.13c0,.14,0,.2.14.24a1.7,1.7,0,0,1,.24.09.54.54,0,0,0,.26.09h0a.53.53,0,0,0,.16,0,2.66,2.66,0,0,1,.28-.11c.16,0,.25-.07.24-.14A.8.8,0,0,0,13.5,10l-.18,0A1.45,1.45,0,0,0,13,9.89Z"/><path class="cls-71" d="M13.26,10.73h0a.84.84,0,0,1-.53-.33c-.09-.11,0-.25,0-.26A.27.27,0,0,1,13,10a1.09,1.09,0,0,1,.26,0l.06,0a1.27,1.27,0,0,1,.48.34s0,.06,0,.07-.16.12-.34.18l-.13.05ZM13,10.06a.22.22,0,0,0-.21.11h0s-.09.12,0,.19a.71.71,0,0,0,.48.31h.09l.13-.05a.91.91,0,0,0,.31-.14v0a1.25,1.25,0,0,0-.44-.32h-.07A.93.93,0,0,0,13,10.06Z"/><path class="cls-71" d="M13.18,10.51h0a.42.42,0,0,1-.31-.21l0,0h0a.59.59,0,0,1,.22-.09h0l.07,0a.49.49,0,0,1,.25.15s.06.07.05.1-.08.05-.17.05h-.15Zm-.25-.22c0,.05.13.17.25.17h.15l.11,0s0,0,0,0a.59.59,0,0,0-.23-.14l-.07,0h0A.31.31,0,0,0,12.93,10.29Z"/><path class="cls-71" d="M13.45,12.51h0a.28.28,0,0,1-.21-.14.39.39,0,0,0-.23-.15c-.29,0-.67-.5-.73-.67s.4-.36.49-.4a1.63,1.63,0,0,1,.4-.05,1.18,1.18,0,0,1,.37.05l.24.1a1.9,1.9,0,0,0,.42.15.33.33,0,0,1,.24.2.41.41,0,0,1-.06.37,1,1,0,0,1-.39.27,2.64,2.64,0,0,0-.36.2A.32.32,0,0,1,13.45,12.51Zm-.28-1.35a1,1,0,0,0-.38.05c-.21.08-.48.23-.45.33s.42.6.67.62a.42.42,0,0,1,.27.17c.05.07.1.12.17.12h0a.3.3,0,0,0,.14,0,2.42,2.42,0,0,1,.37-.21,1,1,0,0,0,.37-.25.38.38,0,0,0,.06-.32.27.27,0,0,0-.2-.16,1.82,1.82,0,0,1-.43-.16l-.24-.09A1.06,1.06,0,0,0,13.17,11.16Z"/><path class="cls-71" d="M13.46,12.25h0c-.07,0-.11,0-.16-.1a.89.89,0,0,0-.3-.24c-.21-.09-.32-.17-.35-.26a.25.25,0,0,1,0-.17.51.51,0,0,1,.47-.21h.08a1,1,0,0,1,.34.1,1.91,1.91,0,0,0,.34.1.22.22,0,0,1,.2.12.34.34,0,0,1,0,.31c-.08.16-.35.27-.54.34Zm-.33-.93c-.21,0-.36.07-.41.19a.14.14,0,0,0,0,.12c0,.08.14.15.32.23a.82.82,0,0,1,.32.25c.05.06.08.09.12.09h0c.1,0,.43-.16.51-.32a.25.25,0,0,0,0-.25.18.18,0,0,0-.16-.1,1.4,1.4,0,0,1-.35-.1,1.35,1.35,0,0,0-.33-.09Z"/><path class="cls-71" d="M13.45,11.84h-.12a.64.64,0,0,1-.42-.24l0,0,0,0a.87.87,0,0,1,.35-.12.69.69,0,0,1,.49.22.08.08,0,0,1,0,.08A.4.4,0,0,1,13.45,11.84ZM13,11.6a.53.53,0,0,0,.35.18h.12a.39.39,0,0,0,.27-.07,0,0,0,0,0,0,0,.72.72,0,0,0-.44-.2A.7.7,0,0,0,13,11.6Z"/><path class="cls-71" d="M9.83,14h0a2.59,2.59,0,0,1-.49-.11,2.59,2.59,0,0,0-.57-.11H8.61a3.93,3.93,0,0,1-.6.06c-.09,0-.37,0-.37-.17a.82.82,0,0,1,.32-.6.43.43,0,0,0,.1-.19.57.57,0,0,1,.39-.42A2.27,2.27,0,0,1,9,12.38a1.09,1.09,0,0,1,.39.07c.36.16.77.5.81.83a.77.77,0,0,1-.09.6A.33.33,0,0,1,9.83,14ZM8.75,13.7a2.14,2.14,0,0,1,.58.12,2.58,2.58,0,0,0,.48.1.26.26,0,0,0,.22-.08.73.73,0,0,0,.07-.55,1.24,1.24,0,0,0-.77-.78A.84.84,0,0,0,9,12.44a1.89,1.89,0,0,0-.49.07.56.56,0,0,0-.36.38A.48.48,0,0,1,8,13.1a.81.81,0,0,0-.29.56c0,.08.1.12.31.12a5.61,5.61,0,0,0,.59-.06h.15Z"/><path class="cls-71" d="M8.15,13.7A.13.13,0,0,1,8,13.59a.57.57,0,0,1,.2-.44A.57.57,0,0,0,8.3,13c0-.12.11-.27.24-.32h.3a1.25,1.25,0,0,1,.4.05h0c.2.09.49.23.49.45,0,0,0,.07,0,.11s0,.3-.07.37a.16.16,0,0,1-.11,0h0a.78.78,0,0,1-.26-.07,1.63,1.63,0,0,0-.45-.09.5.5,0,0,0-.17,0l-.21.06A1.59,1.59,0,0,1,8.15,13.7Zm.41-1c-.1,0-.16.17-.21.29a.45.45,0,0,1-.1.17.54.54,0,0,0-.18.4s0,.05.08.05a1.34,1.34,0,0,0,.32-.07l.22-.07.18,0a1.3,1.3,0,0,1,.46.1,1.09,1.09,0,0,0,.25.06h0a.09.09,0,0,0,.07,0c.06,0,.05-.19.05-.33v-.11c0-.19-.28-.31-.47-.39l0,0a1.16,1.16,0,0,0-.38,0Z"/><path class="cls-71" d="M8.48,13.4c-.05,0-.07,0-.08-.05h0a.19.19,0,0,1,0-.16A.39.39,0,0,1,8.72,13h.06a2.33,2.33,0,0,1,.32,0c.14,0,.23,0,.28.08h0c.1.11.19.21.17.29a.15.15,0,0,1-.11.07H8.73l-.12,0ZM9.1,13a2.32,2.32,0,0,0-.31,0H8.72a.32.32,0,0,0-.26.18c0,.06,0,.1,0,.11h0s0,0,0,0l.12,0,.12,0h.73s.06,0,.06,0-.08-.15-.15-.23h0A.35.35,0,0,0,9.1,13Z"/><path class="cls-71" d="M6.41,13.64h0c-.28,0-.59-.42-.6-.43h0c0-.28.36-.5.66-.7l.15-.1A2.73,2.73,0,0,1,7.55,12a.2.2,0,0,1,.23.14.35.35,0,0,1-.16.38,2,2,0,0,0-.39.52c-.08.12-.15.24-.21.31a.8.8,0,0,1-.6.34Zm-.55-.46c0,.06.32.4.55.4h0A.73.73,0,0,0,7,13.26a2.21,2.21,0,0,0,.2-.3,1.9,1.9,0,0,1,.41-.54.31.31,0,0,0,.13-.32A.12.12,0,0,0,7.59,12h0a2.4,2.4,0,0,0-.91.43l-.16.1C6.22,12.71,5.89,12.93,5.86,13.18Z"/><path class="cls-71" d="M6.33,13.41h0A.59.59,0,0,1,6,13.2H6c0-.22.67-.69.93-.71h.27a.15.15,0,0,1,.17.11c0,.14-.18.34-.41.55l-.07.07a.62.62,0,0,1-.39.21H6.33ZM6,13.17a.51.51,0,0,0,.3.18h0l.1,0a.59.59,0,0,0,.36-.19l.07-.07c.19-.17.42-.39.39-.49s0-.07-.11-.07H6.9A1.5,1.5,0,0,0,6,13.17Z"/><path class="cls-71" d="M6.31,13.29h0a.09.09,0,0,1-.1-.1h0a2.61,2.61,0,0,1,.3-.38.49.49,0,0,1,.32-.13h0a.17.17,0,0,1,.15.07.14.14,0,0,1,0,.15,1.72,1.72,0,0,1-.54.37A.3.3,0,0,1,6.31,13.29Zm0-.09a.06.06,0,0,0,0,0h0a.22.22,0,0,0,.11,0,2.23,2.23,0,0,0,.52-.34.09.09,0,0,0,0-.1.11.11,0,0,0-.1,0h0a.41.41,0,0,0-.29.13A1.69,1.69,0,0,0,6.26,13.2Z"/><path class="cls-158" d="M.77,20.6c-.15-.07-.3-.61-.19-.72s.63.07.7.22S.91,20.67.77,20.6Z"/><path class="cls-159" d="M.88,20.53c-.15-.07-.36-.59-.3-.65s.63.07.7.22S1,20.6.88,20.53Z"/><path class="cls-160" d="M.91,20.51c-.15-.08-.37-.54-.31-.6s.58.09.65.23S1,20.56.91,20.51Z"/><path class="cls-54" d="M.57,19.87h0a.28.28,0,0,1,.24,0,.76.76,0,0,1,.49.25c.05.09,0,.22-.15.35s-.3.22-.39.18a.75.75,0,0,1-.23-.48C.52,20.07.51,19.93.57,19.87Zm.55.54c.12-.12.18-.24.14-.3a.71.71,0,0,0-.46-.23c-.1,0-.17,0-.2,0l0,0,0,0s0,.12,0,.24a.75.75,0,0,0,.21.44C.84,20.61,1,20.53,1.12,20.41Z"/><path class="cls-161" d="M.69,21.74c-.15.07-.66-.17-.67-.32S.48,21,.64,21,.83,21.68.69,21.74Z"/><path class="cls-162" d="M.71,21.61A1,1,0,0,1,0,21.42c0-.16.46-.43.62-.39S.85,21.55.71,21.61Z"/><path class="cls-163" d="M.71,21.57a.88.88,0,0,1-.66-.15c0-.12.45-.38.61-.34S.82,21.53.71,21.57Z"/><path class="cls-54" d="M0,21.42H0a.32.32,0,0,1,.13-.2A.85.85,0,0,1,.65,21c.09,0,.15.16.17.35s0,.37-.12.41a.71.71,0,0,1-.51-.13C.12,21.59,0,21.5,0,21.42Zm.77-.07c0-.17-.06-.29-.13-.3a.75.75,0,0,0-.48.2c-.08.06-.12.12-.12.17H0a.38.38,0,0,0,.17.17.67.67,0,0,0,.48.13A.51.51,0,0,0,.77,21.35Z"/><path class="cls-164" d="M2.67,17.9a2,2,0,0,1,1.53.37A3,3,0,0,1,5,20.85,1.74,1.74,0,0,1,3.35,22.5a3.33,3.33,0,0,1-2.73-.88A1.37,1.37,0,0,1,1.51,20a4,4,0,0,1,.28-2.52Z"/><path class="cls-165" d="M3.9,18.06a2.23,2.23,0,0,0-1.23-.16l-.88-.46a4,4,0,0,0-.37,1.67c0,.46.93,1.12,1.16.55a1.49,1.49,0,0,1,.58-.7,1.81,1.81,0,0,1,1-.3C4.25,18.5,4.11,18.19,3.9,18.06Z"/><path class="cls-166" d="M3.9,18.06a2.23,2.23,0,0,0-1.23-.16l-.88-.46a4,4,0,0,0-.37,1.67c0,.46.93,1.12,1.16.55a1.49,1.49,0,0,1,.58-.7,1.81,1.81,0,0,1,1-.3C4.25,18.5,4.11,18.19,3.9,18.06Z"/><path class="cls-64" d="M1.84,18.37c0-.14-.17-.25-.3-.31a3.74,3.74,0,0,0-.13.83A.54.54,0,0,0,1.84,18.37Z"/><path class="cls-4" d="M3,22.56a3.21,3.21,0,0,1-2.37-.93h0a1.25,1.25,0,0,1,.06-.89,1.53,1.53,0,0,1,.83-.8,3.88,3.88,0,0,1,.25-2.52l.06,0A3.86,3.86,0,0,0,1.54,20v0h0A1.34,1.34,0,0,0,.64,21.6a3.32,3.32,0,0,0,2.71.87A1.69,1.69,0,0,0,5,20.85a3,3,0,0,0-.79-2.56,2.08,2.08,0,0,0-1.51-.39,1.89,1.89,0,0,1,.89,0,1.67,1.67,0,0,1,.66.34A3.08,3.08,0,0,1,5,20.85a1.76,1.76,0,0,1-1.67,1.68A2.6,2.6,0,0,1,3,22.56Z"/><path class="cls-4" d="M1.49,20l.05,0a6.5,6.5,0,0,0,.56,1A4.79,4.79,0,0,1,1.49,20Z"/><path class="cls-4" d="M2.41,20.46a1.92,1.92,0,0,1,.2-.86A2.48,2.48,0,0,1,3,19.12a1.44,1.44,0,0,1,1.75-.25l0,.05A1.38,1.38,0,0,0,3,19.16,2.41,2.41,0,0,0,2.41,20.46Z"/><path class="cls-64" d="M2.12,18.12s.27.08.31.24,0,.38-.1.41S2,18.54,2,18.42,2.08,18.1,2.12,18.12Z"/><path class="cls-64" d="M2.22,19.11a.27.27,0,0,1-.29.26.27.27,0,0,1-.29-.26.28.28,0,0,1,.29-.26A.28.28,0,0,1,2.22,19.11Z"/></g></g></g></g></g></svg>